<?xml version='1.0' encoding='utf-8'?>
<!-- Generator: Adobe Illustrator 16.0.0, SVG Export Plug-In . SVG Version: 6.00 Build 0)  --><svg xmlns="http://www.w3.org/2000/svg" xmlns:cc="http://creativecommons.org/ns#" xmlns:dc="http://purl.org/dc/elements/1.1/" xmlns:ns="&amp;#38;ns_sfw;" xmlns:rdf="http://www.w3.org/1999/02/22-rdf-syntax-ns#" width="476.22px" height="476.22px" version="1.2" viewBox="0 0 476.22 476.22" xml:space="preserve">
<metadata>
	<ns:sfw>
		<ns:slices></ns:slices>
		<ns:sliceSourceBounds x="220.61" y="98.762" width="399.779" height="399.873" bottomLeftOrigin="true"></ns:sliceSourceBounds>
	</ns:sfw>
<rdf:RDF><cc:Work rdf:about=""><dc:format>image/svg+xml</dc:format><dc:type rdf:resource="http://purl.org/dc/dcmitype/StillImage"></dc:type><dc:title></dc:title></cc:Work></rdf:RDF></metadata>
<path d="m379.45 95.616c-37.754-37.754-87.951-58.546-141.34-58.546-53.392 0-103.59 20.792-141.34 58.545-37.754 37.756-58.546 87.953-58.546 141.34 0 53.393 20.792 103.59 58.546 141.34 37.755 37.753 87.952 58.545 141.34 58.545 53.395 0 103.59-20.791 141.34-58.543 37.754-37.752 58.546-87.95 58.546-141.34 0-53.393-20.792-103.59-58.546-141.34zm-141.34 314.08c-95.246 0-172.73-77.488-172.73-172.73s77.488-172.73 172.73-172.73c46.063 0 89.421 17.988 122.08 50.651s50.65 76.02 50.65 122.08c0 95.246-77.488 172.73-172.73 172.73z" display="none" fill="#262524"></path>
	<path d="m209.96 161.55h55.811v-55.815h-55.811v55.815z"></path>
	<rect x="209.96" y="188.39" width="55.811" height="179"></rect>
<path d="m437.45 436.15h-399.17v-399.17h399.17v399.17zm-374.17-25h349.17v-349.17h-349.17v349.17z"></path>
</svg>