<?xml version='1.0' encoding='utf-8'?>
<!-- Generator: Adobe Illustrator 16.0.0, SVG Export Plug-In . SVG Version: 6.00 Build 0)  --><svg xmlns="http://www.w3.org/2000/svg" xmlns:cc="http://creativecommons.org/ns#" xmlns:dc="http://purl.org/dc/elements/1.1/" xmlns:rdf="http://www.w3.org/1999/02/22-rdf-syntax-ns#" width="476.22px" height="476.22px" version="1.2" viewBox="0 0 476.22 476.22" xml:space="preserve"><metadata><rdf:RDF><cc:Work rdf:about=""><dc:format>image/svg+xml</dc:format><dc:type rdf:resource="http://purl.org/dc/dcmitype/StillImage"></dc:type><dc:title></dc:title></cc:Work></rdf:RDF></metadata>
<path d="m379.45 95.616c-37.754-37.754-87.951-58.546-141.34-58.546-53.392 0-103.59 20.792-141.34 58.545-37.754 37.756-58.546 87.953-58.546 141.34 0 53.393 20.792 103.59 58.546 141.34 37.755 37.753 87.952 58.545 141.34 58.545 53.395 0 103.59-20.791 141.34-58.543 37.754-37.752 58.546-87.95 58.546-141.34 0-53.393-20.792-103.59-58.546-141.34zm-141.34 314.08c-95.246 0-172.73-77.488-172.73-172.73s77.488-172.73 172.73-172.73c46.063 0 89.421 17.988 122.08 50.651s50.65 76.02 50.65 122.08c0 95.246-77.488 172.73-172.73 172.73z" fill="#262524"></path>
<path d="m210.2 368.26h55.811v-55.815h-55.811v55.815zm0-261.65v40.128l8.183 139.02h39.437l8.191-139.02v-40.128h-55.811z"></path>
</svg>