<?xml version='1.0' encoding='utf-8'?>
<!-- Generator: Adobe Illustrator 16.0.0, SVG Export Plug-In . SVG Version: 6.00 Build 0)  --><svg xmlns="http://www.w3.org/2000/svg" xmlns:cc="http://creativecommons.org/ns#" xmlns:dc="http://purl.org/dc/elements/1.1/" xmlns:ns0="&amp;ns_sfw;" xmlns:rdf="http://www.w3.org/1999/02/22-rdf-syntax-ns#" width="311.81px" height="425.2px" enable-background="new 0 0 311.811 425.2" version="1.1" viewBox="0 0 311.81 425.2" xml:space="preserve">
<metadata>
	<rdf:RDF>
		<cc:Work rdf:about="">
			<dc:format>image/svg+xml</dc:format>
			<dc:type rdf:resource="http://purl.org/dc/dcmitype/StillImage"></dc:type>
			<dc:title></dc:title>
		</cc:Work>
	</rdf:RDF>
	<ns0:sfw>
		<ns0:slices></ns0:slices>
		<ns0:sliceSourceBounds x="280.648" y="192.04" width="280.604" height="283.465" bottomLeftOrigin="true">
			</ns0:sliceSourceBounds>
	</ns0:sfw>
	<ns0:sfw>
		<ns0:slices></ns0:slices>
		<ns0:sliceSourceBounds x="279.806" y="169.945" width="280.6" height="283.459" bottomLeftOrigin="true"></ns0:sliceSourceBounds>
	</ns0:sfw>
</metadata>
<path d="m295.81 340.16h-280.6v-283.46h280.6v283.46zm-270.46-273.32v262.85h260.32v-262.85h-260.32zm65.316 50.098h65.158c6.342 0 11.813 0.106 16.406 0.317 4.602 0.213 8.615 0.61 12.051 1.19 3.436 0.581 6.5 1.425 9.195 2.537 2.696 1.11 5.363 2.616 8.005 4.517 5.073 3.486 9.274 8.034 12.605 13.633 3.326 5.605 4.994 11.891 4.994 18.865 0 7.929-2.09 15.009-6.263 21.246-4.18 6.236-9.647 10.938-16.411 14.109 9.832 2.854 17.387 7.769 22.674 14.742 5.283 6.976 7.926 15.167 7.926 24.574 0 5.709-0.951 11.204-2.854 16.487-1.903 5.285-4.625 10.016-8.168 14.189-3.538 4.178-7.849 7.664-12.922 10.463-5.069 2.801-10.83 4.518-17.276 5.151-2.748 0.313-7.429 0.556-14.029 0.714-6.607 0.157-15.197 0.293-25.761 0.396h-55.332v-163.14l2e-3 5e-3v5e-3zm32.818 27.269v37.733h21.56c6.553 0 11.784-0.053 15.696-0.161 3.906-0.103 6.604-0.262 8.084-0.474 5.602-0.635 10.041-2.537 13.315-5.708 3.273-3.17 4.915-7.452 4.915-12.841 0-5.176-1.426-9.301-4.278-12.366-2.856-3.065-6.977-4.915-12.364-5.548-1.588-0.211-4.682-0.369-9.275-0.475-4.598-0.103-10.86-0.159-18.786-0.159l-18.867-1e-3zm0 64.842v43.279h30.438c11.941 0 19.498-0.313 22.669-0.949 4.76-0.846 8.721-2.935 11.892-6.264 3.171-3.328 4.759-8.005 4.759-14.03 0-4.756-1.189-8.88-3.566-12.365-2.379-3.486-5.842-5.97-10.387-7.452-2.219-0.736-5.76-1.292-10.621-1.664-4.862-0.369-11.098-0.556-18.707-0.556l-26.477 1e-3z" fill="#000000"></path>
</svg>