<?xml version='1.0' encoding='utf-8'?>
<!-- Generator: Adobe Illustrator 16.0.3, SVG Export Plug-In . SVG Version: 6.00 Build 0)  --><svg xmlns="http://www.w3.org/2000/svg" xmlns:cc="http://creativecommons.org/ns#" xmlns:rdf="http://www.w3.org/1999/02/22-rdf-syntax-ns#" xmlns:dc="http://purl.org/dc/elements/1.1/" width="312.02px" height="425.2px" enable-background="new 0 0 312.021 425.197" version="1.1" viewBox="0 0 312.02 425.2" xml:space="preserve"><metadata><rdf:RDF><cc:Work rdf:about=""><dc:format>image/svg+xml</dc:format><dc:type rdf:resource="http://purl.org/dc/dcmitype/StillImage"></dc:type><dc:title></dc:title></cc:Work></rdf:RDF></metadata>
<path d="m129.22 56.693c33.453 0 61.209 24.364 66.509 56.314h45.347c22.461 0 39.003 11.375 48.337 27.124 4.559 7.694 7.337 16.484 8.173 25.501 0.833 8.995-0.284 18.217-3.509 26.801-6.588 17.532-21.677 32.321-46.489 37.085l-77.884 14.965c-14.967 2.876-24.394 12.188-28.462 23.241-2.051 5.574-2.807 11.559-2.284 17.385 0.517 5.754 2.289 11.378 5.3 16.314 5.846 9.585 16.699 16.512 32.509 16.512h116.02v22.221h-116.02c-24.557 0-41.807-11.403-51.433-27.188-4.785-7.845-7.603-16.79-8.425-25.949-0.815-9.083 0.342-18.354 3.499-26.935 6.574-17.857 21.547-32.858 45.129-37.389l77.885-14.963c16.178-3.108 25.847-12.298 29.909-23.112 2.035-5.417 2.736-11.265 2.207-16.991-0.529-5.703-2.303-11.292-5.221-16.215-5.569-9.399-15.563-16.188-29.241-16.188h-45.347c-5.299 31.951-33.057 56.315-66.509 56.315h-58.859v-26.911h-56.187v-22.223h56.187v-36.581h-56.187v-22.222h56.187v-26.911h58.858z" clip-rule="evenodd" fill-rule="evenodd" fill="#51F093"></path>
</svg>