<?xml version='1.0' encoding='utf-8'?>
<!-- Generator: Adobe Illustrator 26.0.1, SVG Export Plug-In . SVG Version: 6.00 Build 0)  --><svg xmlns="http://www.w3.org/2000/svg" xmlns:xlink="http://www.w3.org/1999/xlink" version="1.1" id="Layer_1" x="0px" y="0px" viewBox="0 0 445.1 425.2" style="enable-background:new 0 0 445.1 425.2;" xml:space="preserve" width="418.72058" height="400.0">
<g>
	<path d="M430.9,272.8L403.2,411H82.5l146-80.4c3.2,0.1,6.3,0.3,9.5,0.3c3.9,0,7.7,0,11.6-0.1l24.2-0.5l-9.9-19.1l69.7-38.4H430.9z    M360,307l19.6-23.6h-18.8L335.5,307H360z M331,341.9l19.5-23.5h-27.2l-25.1,23.5H331z M279.2,359.5L248,388.7h44.2l24.2-29.2   H279.2z"></path>
	<path d="M161.8,238.9c-19.9,17.8-16.9,43.2,4.5,61.9c14.2,12.5,50.3,18.7,79.4,17.8c-3.6-14.1-7.5-29.6-10.3-43.6   c-3.3-16.5-8.2-28.3-14.1-34.2C204.8,224.3,178,224.5,161.8,238.9z"></path>
	<path d="M151.8,227.7c8.3-7.5,18.6-11,29.1-12.8L62.2,96.2c-3.5-3.5-9.2-3.5-12.7,0l-32.6,32.6c-3.5,3.5-3.5,9.2,0,12.7l117,117   C136.1,247,142.2,236.2,151.8,227.7z"></path>
</g>
</svg>