<?xml version='1.0' encoding='utf-8'?>
<!-- Generator: Adobe Illustrator 16.0.0, SVG Export Plug-In . SVG Version: 6.00 Build 0)  --><svg xmlns="http://www.w3.org/2000/svg" xmlns:cc="http://creativecommons.org/ns#" xmlns:dc="http://purl.org/dc/elements/1.1/" xmlns:ns="&amp;ns_sfw;" xmlns:rdf="http://www.w3.org/1999/02/22-rdf-syntax-ns#" width="499px" height="541px" enable-background="new 0 0 499 541" version="1.1" viewBox="0 0 499 541" xml:space="preserve">
<metadata>
	<ns:sfw>
		<ns:slices></ns:slices>
		<ns:sliceSourceBounds x="215.366" y="103.947" width="406.269" height="420.463" bottomLeftOrigin="true"></ns:sliceSourceBounds>
	</ns:sfw>
<rdf:RDF><cc:Work rdf:about=""><dc:format>image/svg+xml</dc:format><dc:type rdf:resource="http://purl.org/dc/dcmitype/StillImage"></dc:type><dc:title></dc:title></cc:Work></rdf:RDF></metadata>
	<path d="m318.84 220.34 40.934-47.56 90.86 291.27h-406.27l85.42-199.23 38.33 37.622 95.119-258.86 55.606 176.75zm-57.026-123.99-86.6 235.9-39.751-38.095-65.069 152.85h357.29l-75.007-240.16-40.461 47.796-50.4-158.29zm-71.93 265.01-11.121-10.884 10.884-10.888 10.884 10.888-10.647 10.884zm134.87-3.786c-0.791 4.577-2.248 8.796-4.377 12.659-2.133 3.864-4.773 7.217-7.93 10.056l8.521 14.197 26.265 6.149-3.313 16.326-21.299-4.729-5.202 21.769-16.563-4.021 6.152-26.027-8.991-14.67c-4.418 1.737-9.15 2.603-14.197 2.603-2.052 0-4.063-0.118-6.033-0.354-1.975-0.236-3.749-0.591-5.321-1.064l-7.811 12.541 7.101 26.027-16.802 4.259-5.439-21.059-21.295 5.439-4.496-16.09 26.734-7.099 6.392-12.305c-3.157-2.842-5.956-6.229-8.399-10.177-2.446-3.938-4.223-8.278-5.323-13.014h-17.746l-19.401 18.691-11.594-12.066 15.144-15.144-15.615-15.616 12.065-12.307 19.401 19.642h17.746c0.788-4.103 2.207-7.963 4.26-11.595 2.048-3.628 4.414-6.938 7.099-9.938l-9.229-15.617-26.265-5.679 4.26-17.036 20.82 5.206 5.206-21.769 16.563 4.021-6.152 26.5 9.465 15.38c2.207-0.787 4.533-1.456 6.98-2.011 2.44-0.551 5.006-0.828 7.688-0.828 2.366 0 4.732 0.236 7.102 0.71 2.363 0.473 4.729 1.104 7.099 1.895l8.281-15.146-6.625-26.264 15.854-4.26 5.441 21.06 22.006-5.916 4.259 16.8-26.265 6.862-8.521 15.615c2.684 2.686 5.007 5.721 6.979 9.107 1.971 3.396 3.432 7.142 4.378 11.239h16.326l19.166-18.692 11.83 12.067-15.381 15.144 15.854 15.854-12.067 11.831-19.399-19.166h-15.382v5e-3h-4e-3zm-100.09-81.869 3.549-14.907 14.671 3.55-3.55 15.144-14.67-3.787zm24.37 159-15.381 3.786-3.784-14.434 15.38-4.022 3.785 14.67zm59.391-84.234c0-6.939-2.366-12.777-7.102-17.513-4.73-4.73-10.567-7.099-17.51-7.099s-12.74 2.366-17.391 7.099c-4.655 4.732-6.98 10.57-6.98 17.513 0 6.939 2.325 12.696 6.98 17.271 4.647 4.577 10.446 6.861 17.391 6.861 6.939 0 12.777-2.284 17.51-6.861 4.736-4.572 7.102-10.329 7.102-17.271zm13.25-86.128 15.144-4.259 4.259 14.671-15.613 4.259-3.79-14.671zm20.824 159.24-3.786 14.907-15.146-3.313 3.785-15.146 15.147 3.552zm32.888-84.944 11.121 10.646-11.121 11.121-10.411-11.357 10.411-10.41z" fill="#000000"></path>
</svg>