<?xml version='1.0' encoding='utf-8'?>
<!-- Generator: Adobe Illustrator 16.0.0, SVG Export Plug-In . SVG Version: 6.00 Build 0)  --><svg xmlns="http://www.w3.org/2000/svg" xmlns:cc="http://creativecommons.org/ns#" xmlns:dc="http://purl.org/dc/elements/1.1/" xmlns:ns="&amp;ns_sfw;" xmlns:rdf="http://www.w3.org/1999/02/22-rdf-syntax-ns#" width="841.89px" height="438px" version="1.2" viewBox="0 0 841.89 438" xml:space="preserve">
<metadata>
	<ns:sfw>
		<ns:slices></ns:slices>
		<ns:sliceSourceBounds x="4.4" y="165.784" width="827.185" height="286.041" bottomLeftOrigin="true"></ns:sliceSourceBounds>
	</ns:sfw>
<rdf:RDF><cc:Work rdf:about=""><dc:format>image/svg+xml</dc:format><dc:type rdf:resource="http://purl.org/dc/dcmitype/StillImage"></dc:type><dc:title></dc:title></cc:Work></rdf:RDF></metadata>
	<path d="m161.62 305.14h-91.944l-12.967 40.863h-51.865l91.944-276.61h41.257l90.765 276.61h-54.223l-12.967-40.863zm-17.681-55.008-28.291-89.19-28.29 89.19h56.581z" fill="#000000"></path>
	<path d="m228.22 237.56v-168.17h50.688v169.74c0 32.22 17.389 50.293 42.438 50.293 23.87 0 41.257-18.073 41.257-50.293v-169.74h50.688v168.17c0 69.153-38.312 113.16-91.944 113.16-54.817 0-93.127-44.006-93.127-113.16z" fill="#000000"></path>
	<path d="m608.95 130.68h-64.833v215.32h-50.687v-215.32h-66.011v-61.295h181.53l2e-3 61.295z" fill="#000000"></path>
	<path d="m605.71 207.7c0-80.546 51.864-143.02 113.16-143.02 61.297 0 113.16 62.08 113.16 143.02s-51.866 143.02-113.16 143.02-113.16-62.08-113.16-143.02zm173.28 0c0-44.791-27.701-80.153-60.117-80.153s-60.115 36.147-60.115 80.153c0 44.793 27.699 80.154 60.115 80.154s60.117-35.361 60.117-80.154z" fill="#000000"></path>
</svg>