<?xml version='1.0' encoding='utf-8'?>
<!-- Generator: Adobe Illustrator 16.0.0, SVG Export Plug-In . SVG Version: 6.00 Build 0)  --><svg xmlns="http://www.w3.org/2000/svg" xmlns:cc="http://creativecommons.org/ns#" xmlns:dc="http://purl.org/dc/elements/1.1/" xmlns:ns="&amp;ns_sfw;" xmlns:rdf="http://www.w3.org/1999/02/22-rdf-syntax-ns#" width="327px" height="510.24px" enable-background="new 0 0 327 510.236" version="1.1" viewBox="0 0 327 510.24" xml:space="preserve">
<metadata>
	<ns:sfw>
		<ns:slices></ns:slices>
		<ns:sliceSourceBounds x="281.822" y="112.489" width="277.387" height="384.074" bottomLeftOrigin="true"></ns:sliceSourceBounds>
	</ns:sfw>
<rdf:RDF><cc:Work rdf:about=""><dc:format>image/svg+xml</dc:format><dc:type rdf:resource="http://purl.org/dc/dcmitype/StillImage"></dc:type><dc:title></dc:title></cc:Work></rdf:RDF></metadata>
	<path d="m84.585 169.58c0.856 6.854 2.144 14.211 3.854 22.063 1.715 7.855 3.855 15.851 6.427 23.992 3.427 13.853 7.354 26.527 11.78 38.021 4.426 11.498 8.998 22.17 13.709 32.022v17.992c0 4.146-1.5 7.711-4.498 10.711-3 2.998-6.57 4.498-10.711 4.498h-29.986c-2.999 0-5.82-0.783-8.461-2.354-2.645-1.57-4.68-3.644-6.104-6.211-5-9.429-9.783-21.025-14.354-34.812-4.572-13.779-8.568-28.596-11.995-44.445-2.999-13.851-5.321-26.991-6.962-39.415-1.643-12.424-2.463-23.776-2.463-34.058 0-2.283 0.498-4.532 1.498-6.748 0.998-2.212 2.32-4.14 3.964-5.783 1.64-1.64 3.534-2.962 5.676-3.963 2.144-0.998 4.427-1.5 6.854-1.5l11.781 0.857c3.996 0 7.78 0.75 11.352 2.249 3.568 1.5 6.711 3.571 9.426 6.212 2.711 2.644 4.854 5.75 6.426 9.318 1.572 3.573 2.499 7.358 2.787 11.354zm-4.284-51.194c0 2.57-0.964 4.786-2.892 6.64-1.929 1.857-4.392 2.785-7.39 2.785-0.289 0-1.285-0.141-3-0.428-1.713-0.285-3.93-0.643-6.641-1.071-2.714-0.428-5.75-0.89-9.104-1.392-3.357-0.499-6.748-0.964-10.176-1.393-2.143 0-4.106-1.034-5.892-3.106-1.787-2.068-2.679-4.177-2.679-6.319 0-7.423 0.928-13.886 2.785-19.385 1.854-5.496 4.392-10.031 7.604-13.602 3.213-3.568 7.069-6.212 11.567-7.926 4.498-1.713 9.388-2.57 14.673-2.57 3.427 0 6.138 0.964 8.14 2.892 1.999 1.928 2.999 4.391 2.999 7.39l6e-3 37.485zm17.993 166.44c-1.285-3-2.929-6.748-4.927-11.246-2.001-4.498-4.145-9.459-6.426-14.887-2.287-5.429-4.572-11.279-6.854-17.566-2.286-6.282-4.282-12.778-5.998-19.493-2.43-8.996-4.498-17.598-6.212-25.812-1.713-8.21-2.999-16.387-3.854-24.526 0-0.857-0.037-1.821-0.107-2.892-0.072-1.071-0.251-2.105-0.535-3.106-0.287-0.998-0.785-1.821-1.5-2.463-0.716-0.643-1.714-0.964-2.999-0.964h-8.354c-1.284 0-2.463 0.535-3.533 1.606-1.071 1.071-1.605 2.249-1.605 3.534 0 7.999 0.782 16.46 2.355 25.383 1.57 8.926 3.427 18.602 5.568 29.024l1.07 5.354c2.999 14.994 6.641 28.563 10.926 40.699 4.282 12.14 8.707 22.49 13.279 31.062h15.424c1.283 0 2.317-0.537 3.104-1.607 0.782-1.069 1.178-2.25 1.178-3.535v-8.565zm80.112 4.283c-0.57 0-0.855-0.285-0.855-0.857 0-1.141 0.285-1.998 0.855-2.57l16.279-38.342c0.428-0.428 0.713-0.676 0.854-0.75 0.143-0.067 0.432-0.104 0.857-0.104l0.857 0.854 17.137 38.342c0 0.572 0.141 1.002 0.428 1.285 0.143 0.289 0.285 0.431 0.428 0.431 0 0.717-0.143 1.215-0.428 1.497-0.145 0.146-0.287 0.218-0.428 0.218h-9.426l-5.998 28.061c4.713-0.856 9.352-1.5 13.924-1.928 4.568-0.43 9.854-0.646 15.852-0.646l5.998-25.487h-5.998c-1.145 0-1.715-0.713-1.715-2.146v-1.285l17.137-38.342c0.43-0.428 0.715-0.676 0.857-0.75 0.141-0.069 0.428-0.104 0.855-0.104l0.855 0.854 16.279 38.342c0.43 0.431 0.676 0.718 0.75 0.857 0.068 0.145 0.105 0.428 0.105 0.855 0 1.146-0.57 1.715-1.713 1.715h-7.713l-5.996 25.489c2.143-0.43 4.176-0.678 6.104-0.75 1.928-0.069 4.178-0.106 6.748-0.106 2.568 0 5.389 0.037 8.461 0.106 3.066 0.072 6.459 0.25 10.174 0.535 3.141 0.287 6.104 1.107 8.891 2.463 2.785 1.359 5.143 3.072 7.068 5.144 1.928 2.07 3.461 4.465 4.604 7.176 1.143 2.713 1.715 5.568 1.715 8.568l-6.854 40.055c-0.289 2.57-1.072 4.965-2.357 7.176-1.283 2.217-2.928 4.107-4.926 5.678-2.002 1.572-4.285 2.82-6.854 3.748-2.57 0.933-5.215 1.394-7.926 1.394h-20.564l-4.283 11.996v3.428c0 0.428 0.033 0.891 0.107 1.393 0.068 0.498 0.32 1.179 0.75 2.033l9.424 16.066-17.135 9.424-11.141-18.85c-0.717-1.285-1.18-2.716-1.393-4.283-0.215-1.574-0.322-3.213-0.322-4.928 0-1.285 0.033-2.537 0.107-3.748 0.068-1.216 0.32-2.25 0.75-3.105l3.428-9.426h-28.912l-4.283 11.996c-0.57 0.567-0.855 1.713-0.855 3.428l0.855 3.426 10.281 16.066-17.992 9.424-10.283-18.85c-0.854-1.285-1.643-2.716-2.354-4.283-0.717-1.574-1.07-3.213-1.07-4.928 0-1.285 0.18-2.537 0.535-3.748 0.355-1.216 0.75-2.248 1.178-3.105l3.43-8.567h-28.919l-4.282 11.139v2.57c0 0.43 0.032 1.143 0.105 2.143 0.07 0.998 0.32 1.715 0.75 2.143l9.425 16.064-17.137 9.426-11.138-18.85c-0.717-1.285-1.322-2.715-1.822-4.285-0.502-1.572-0.75-3.213-0.75-4.928 0-1.283 0.142-2.535 0.43-3.746 0.284-1.217 0.43-2.25 0.43-3.107l4.282-8.565h-19.707c-4.571 0-8.642-1.25-12.209-3.75-3.569-2.496-6.284-5.816-8.14-9.962l-16.277-36.629c-0.145 0-0.288-0.141-0.429-0.43-0.288-0.283-0.429-0.713-0.429-1.285 0-1.713 0.568-3.139 1.713-4.283 1.143-1.143 2.572-1.715 4.285-1.715 9.424 0 18.025-0.391 25.812-1.178 7.782-0.783 15.103-1.82 21.956-3.104h-0.855c-0.857-1.716-1.5-3.32-1.93-4.818-0.429-1.5-0.643-3.32-0.643-5.463 0-0.857 0.033-1.679 0.105-2.463 0.07-0.783 0.321-1.396 0.75-1.82l7.711-30.631h-7.711c-0.145 0-0.287-0.144-0.429-0.431-0.288-0.282-0.429-0.713-0.429-1.284-0.145 0-0.145-0.142 0-0.431 0-0.282 0.285-0.713 0.856-1.285l17.138-38.341c0-0.568 0.567-0.855 1.713-0.855-0.146 0.143-0.146 0.287 0 0.428 0 0.287 0.285 0.428 0.855 0.428l16.064 38.345c0.285 0.286 0.429 0.534 0.429 0.75 0 0.215 0.069 0.395 0.214 0.534 0 0.287 0.07 0.431 0.214 0.431 0 0.854-0.181 1.356-0.534 1.498-0.357 0.145-0.75 0.215-1.179 0.215h-7.497l-6.854 31.485c-0.572 0-0.857 0.572-0.857 1.716 0 0.717 0.143 1.5 0.43 2.354 0.141 0.428 0.283 0.787 0.428 1.07l2.57 4.285 25.49-7.711 8.566-33.201h-7.711v-7e-3h4e-3zm-34.915 64.904c-2.714 0.718-5.998 1.357-9.853 1.929-3.856 0.571-7.604 1.145-11.246 1.715-3.644 0.57-6.748 1.285-9.318 2.141-2.571 0.857-3.855 2.002-3.855 3.428 0 1.146 0.284 2.003 0.856 2.57l2.569 8.568c1.143 1.145 1.998 1.713 2.569 1.713h27.418l5.142-13.709c0-0.996-0.571-2.068-1.713-3.213l-2.569-5.142zm76.687-212.7c0 0.429 0.141 1.178 0.428 2.25 0.285 1.071 0.428 2.035 0.428 2.892v1.714c6.855 1.713 12.855 2.57 17.994 2.57 3.141 0 6.139-0.248 8.996-0.75 2.855-0.499 5.57-1.071 8.141-1.713s5.033-1.249 7.391-1.821c2.355-0.569 4.746-0.857 7.176-0.857 0.998 0 2.643 0.214 4.928 0.643 2.283 0.429 4.568 1.429 6.854 2.999 2.283 1.573 4.285 3.963 5.998 7.176 1.715 3.213 2.568 7.604 2.568 13.173 0 7.283-1.533 13.676-4.604 19.171-3.072 5.499-6.854 10.141-11.354 13.923-4.496 3.785-9.393 6.607-14.674 8.461-5.285 1.856-10.141 2.784-14.564 2.784-5.143 0-10.066-0.964-14.779-2.892s-8.889-4.89-12.531-8.89c-3.641-3.996-6.531-8.959-8.674-14.887-2.143-5.924-3.215-12.959-3.215-21.099h-6.854c-0.855 3.856-1.498 7.176-1.928 9.96-0.428 2.785-0.643 5.462-0.643 8.033 0 3.427 0.248 6.57 0.75 9.425 0.498 2.858 1.068 5.606 1.713 8.247 0.643 2.644 1.248 5.178 1.82 7.604 0.568 2.43 0.855 4.786 0.855 7.068 0 1.145-0.215 2.893-0.643 5.248-0.43 2.355-1.432 4.712-2.998 7.068-1.574 2.356-3.963 4.465-7.178 6.319-3.215 1.858-7.604 2.785-13.174 2.785-1.715 0-3.395-0.069-5.035-0.214-1.643-0.141-3.104-0.643-4.391-1.5-5.713-1.854-10.746-4.391-15.102-7.604-4.357-3.214-7.999-6.817-10.924-10.817-2.93-3.997-5.141-8.21-6.641-12.638-1.5-4.425-2.25-8.853-2.25-13.281 0-5.141 0.965-10.067 2.893-14.78 1.93-4.713 4.891-8.89 8.891-12.531 3.996-3.641 8.961-6.566 14.887-8.782 5.925-2.212 12.959-3.32 21.102-3.32v-7.711c-3.43-0.428-6.5-0.82-9.211-1.178-2.715-0.355-5.355-0.536-7.926-0.536-3.571 0-6.854 0.288-9.854 0.857-3 0.572-5.857 1.178-8.568 1.821-2.715 0.643-5.285 1.215-7.711 1.713-2.43 0.502-4.786 0.75-7.069 0.75-1.146 0-2.892-0.178-5.248-0.536-2.354-0.355-4.712-1.285-7.067-2.785-2.356-1.5-4.465-3.856-6.319-7.069-1.857-3.213-2.785-7.674-2.785-13.388 0-6.995 1.606-13.244 4.819-18.743 3.213-5.496 7.176-10.138 11.889-13.923 4.712-3.782 9.746-6.674 15.102-8.675 5.354-1.998 10.176-2.999 14.459-2.999 4.854 0 9.639 0.964 14.353 2.892 4.712 1.928 8.89 4.856 12.53 8.782 3.643 3.929 6.605 8.889 8.891 14.887 2.281 5.998 3.428 13.066 3.428 21.206 0.855 0 1.748-0.141 2.678-0.428 0.928-0.285 2.035-0.429 3.32-0.429 1.715-6.854 2.568-13.137 2.568-18.85 0-6.426-0.715-12.103-2.141-17.029-1.43-4.927-2.143-9.458-2.143-13.602 0-0.998 0.178-2.711 0.533-5.141 0.355-2.427 1.285-4.82 2.785-7.176s3.855-4.461 7.068-6.319c3.213-1.854 7.674-2.785 13.389-2.785 7.281 0.716 13.709 2.607 19.277 5.676 5.568 3.073 10.244 6.854 14.031 11.353 3.779 4.498 6.604 9.392 8.461 14.673 1.854 5.285 2.781 10.355 2.781 15.208 0 5-0.963 9.783-2.891 14.352-1.928 4.572-4.895 8.642-8.891 12.21-3.998 3.571-8.996 6.426-14.994 8.568-5.994 2.146-13.065 3.217-21.201 3.217zm-38.344-8.353c0.141 0 0.283-0.07 0.43-0.214 0.283-0.285 0.428-0.783 0.428-1.5v-3.427c0-5.569-0.822-10.529-2.463-14.887-1.645-4.354-3.822-8.033-6.533-11.031-2.715-2.999-5.82-5.282-9.317-6.854-3.501-1.57-7.036-2.356-10.604-2.356-5.998 0-11.748 2.179-17.242 6.533-5.499 4.358-9.746 11.032-12.745 20.028-0.429 1.286-0.679 2.393-0.75 3.32-0.074 0.931-0.106 1.821-0.106 2.678 0 3.427 0.928 5.998 2.784 7.711 1.854 1.713 4.07 2.57 6.642 2.57 1.713 0 3.604-0.248 5.677-0.75 2.067-0.499 4.284-1.071 6.64-1.713 2.355-0.643 4.928-1.249 7.711-1.821 2.785-0.569 5.817-0.857 9.104-0.857 5.848-1e-3 12.631 0.856 20.344 2.57zm3.428 32.344h-3.43c-5.568 0-10.496 0.786-14.779 2.356-4.283 1.573-7.926 3.678-10.925 6.319-2.999 2.644-5.284 5.676-6.854 9.104-1.572 3.427-2.355 6.928-2.355 10.496 0 5.857 2.035 11.533 6.105 17.028 4.07 5.5 10.529 9.748 19.385 12.746 1.285 0.856 2.496 1.358 3.643 1.5 1.143 0.144 1.928 0.213 2.355 0.213 2.428 0 4.316-0.32 5.678-0.963 1.354-0.644 2.391-1.427 3.104-2.356 0.713-0.927 1.143-1.892 1.285-2.892 0.141-0.998 0.215-1.929 0.215-2.785 0-2.428-0.215-4.854-0.643-7.283-0.43-2.427-0.932-4.89-1.5-7.39-0.572-2.497-1.07-5.174-1.498-8.033-0.432-2.855-0.645-5.924-0.645-9.211 0-2.57 0.07-5.355 0.213-8.354s0.645-6.212 1.5-9.639l-0.854-0.856zm-0.858 176.72c-3.428 1.285-7.25 2.646-11.461 4.07-4.213 1.43-7.748 2.355-10.604 2.785l1.5 3.426c1.715 2.57 2.57 5.715 2.57 9.426 0 1.146-0.182 2.355-0.536 3.644-0.356 1.285-0.75 2.568-1.179 3.854l-2.355 6.855h28.92l4.283-11.139v-2.57c0-0.285-0.037-0.783-0.107-1.5-0.074-0.713-0.32-1.285-0.75-1.713l-10.281-17.138zm17.135-201.56c-5.141 0-7.711 2.001-7.711 5.998 0 5.141 2.57 7.711 7.711 7.711 1.717 0 3.143-0.643 4.285-1.928 1.143-1.286 1.713-3.213 1.713-5.784 0-2.142-0.57-3.675-1.713-4.605-1.144-0.927-2.568-1.392-4.285-1.392zm10.283 234.77h28.916l4.285-10.278v-2.572c0-0.283-0.037-0.783-0.107-1.498-0.072-0.713-0.32-1.285-0.748-1.715l-13.709-24.849h-1.715c-4.283 0-8.318 0.32-12.104 0.966-3.785 0.643-7.389 1.178-10.816 1.604h-1.715l9.426 15.422c0.713 1.146 1.318 2.357 1.82 3.644 0.498 1.285 0.75 2.715 0.75 4.282 0 3.146-0.572 6.144-1.713 8.996l-2.57 6.855v-0.857zm8.356-247.4c5.279 0 10.064-0.783 14.352-2.356 4.283-1.569 7.891-3.675 10.816-6.319 2.926-2.641 5.176-5.64 6.748-8.997 1.568-3.354 2.354-6.888 2.354-10.603 0-5.569-2.07-11.065-6.211-16.494-4.145-5.425-10.924-9.854-20.35-13.281-1.285 0-2.395-0.141-3.32-0.428-0.93-0.285-1.82-0.429-2.678-0.429-2.857 0-5.107 0.964-6.748 2.892-1.645 1.928-2.463 4.391-2.463 7.39 0 1.713 0.215 3.287 0.643 4.712 0.43 1.429 1.072 3.213 1.928 5.355 0.432 2.57 0.82 5.536 1.182 8.89 0.354 3.357 0.535 6.961 0.535 10.817 0 2.999-0.074 6.035-0.217 9.104-0.145 3.072-0.643 6.319-1.5 9.746l4.929 1e-3zm0 40.057c0 5.141 0.75 9.746 2.248 13.816 1.5 4.07 3.498 7.571 5.998 10.496 2.498 2.929 5.389 5.141 8.676 6.641 3.283 1.499 6.781 2.249 10.496 2.249 5.998 0 11.744-2.176 17.242-6.533 5.494-4.354 9.674-11.246 12.529-20.671 0.432-1.285 0.678-2.39 0.75-3.32 0.07-0.927 0.107-1.821 0.107-2.678 0-2.57-0.824-4.783-2.463-6.64-1.646-1.854-3.895-2.785-6.748-2.785-2.432 0-4.75 0.288-6.961 0.856-2.217 0.573-4.498 1.178-6.855 1.821-2.354 0.643-4.926 1.215-7.711 1.714-2.785 0.502-5.891 0.75-9.316 0.75-2.57 0-5.463-0.214-8.676-0.643-3.215-0.428-6.318-1.071-9.316-1.928v6.855zm41.982 184.43c0.996 1.433 1.678 3 2.033 4.713 0.355 1.715 0.537 3.502 0.537 5.355 0 1.145-0.182 2.285-0.537 3.428-0.355 1.146-0.748 2.285-1.178 3.426l-1.713 5.998h11.996c0.428 0 0.926-0.067 1.498-0.213 0.568-0.141 0.855-0.643 0.855-1.5l5.998-36.629c0-0.568-0.572-0.854-1.715-0.854l-1.713-0.857c-5.43-0.428-10.174-0.676-14.244-0.75-4.07-0.07-7.818-0.107-11.246-0.107l9.429 17.99z" fill="#000000"></path>
</svg>