<?xml version='1.0' encoding='utf-8'?>
<!-- Generator: Adobe Illustrator 16.0.3, SVG Export Plug-In . SVG Version: 6.00 Build 0)  --><svg xmlns="http://www.w3.org/2000/svg" xmlns:cc="http://creativecommons.org/ns#" xmlns:dc="http://purl.org/dc/elements/1.1/" xmlns:rdf="http://www.w3.org/1999/02/22-rdf-syntax-ns#" width="352.64px" height="425.2px" enable-background="new 0 0 352.638 425.197" version="1.1" viewBox="0 0 352.64 425.2" xml:space="preserve"><metadata><rdf:RDF><cc:Work rdf:about=""><dc:format>image/svg+xml</dc:format><dc:type rdf:resource="http://purl.org/dc/dcmitype/StillImage"></dc:type><dc:title></dc:title></cc:Work></rdf:RDF></metadata>
<path d="m193.02 174.59v-20.213h-5.903v20.213h-14.344v-20.213h-5.903v20.213h-7.229v17.722c0 8.188 4.839 15.243 11.807 18.462v76.128c0 4.722-1.696 8.065-4.789 9.42-1.093 0.48-2.33 0.734-3.591 0.734h-0.016c-1.256-1e-3 -2.518-0.263-3.651-0.758-3.212-1.403-4.911-4.653-4.911-9.396v-45.423c0-7.766-2.516-14.324-7.277-18.974-5.355-5.337-11.564-8.204-18.063-8.224v-64.118c0-3.314-2.688-6-6.002-6h-89.599c-3.302 0.024-5.978 2.7-5.978 6l-0.011 169.38h-13.391v20.608h128.35v-20.608h-13.367v-88.266c1.916 0.091 3.978 1.16 6.095 3.277l0.089 0.088c1.439 1.398 2.17 3.696 2.17 6.832v45.423c0 11.499 5.643 20.831 15.093 24.961 3.259 1.425 6.872 2.179 10.439 2.181h0.041c3.587 0 7.191-0.752 10.41-2.168 9.359-4.098 14.947-13.434 14.947-24.974v-76.124c6.969-3.218 11.807-10.275 11.807-18.466v-17.722h-7.22zm-77.292 37.14h-74.795l0.01-54.147h74.785v54.147z" fill="#000000"></path>
<path d="m321.04 56.693h-248.38c-9.621 0-17.442 7.82-17.442 17.428v56.512h110.7c-9.719-10.138-21.614-19.103-36.229-27.736-4.046-2.391-5.392-7.611-3-11.661 2.393-4.048 7.615-5.389 11.66-3 21.493 12.693 37.636 26.41 49.797 42.397h1.251c16.946-28.354 45.871-42.35 97.449-48.374 4.647-0.546 8.9 2.796 9.44 7.468 0.544 4.67-2.798 8.897-7.465 9.444-43.433 5.073-65.572 15.836-78.684 31.461h6.892v35.297l97.513 21.756c4.594 1.021 7.482 5.575 6.458 10.163-0.881 3.963-4.401 6.663-8.296 6.663-0.619 0-1.241-0.071-1.862-0.209l-93.813-20.929v82.276h104.01c9.605 0 17.43-7.828 17.43-17.438v-174.12c-1e-3 -9.586-7.825-17.403-17.43-17.403z" fill="#000000"></path>
</svg>