<?xml version='1.0' encoding='utf-8'?>
<!-- Generator: Adobe Illustrator 16.0.0, SVG Export Plug-In . SVG Version: 6.00 Build 0)  --><svg xmlns="http://www.w3.org/2000/svg" xmlns:cc="http://creativecommons.org/ns#" xmlns:dc="http://purl.org/dc/elements/1.1/" xmlns:ns="&amp;ns_sfw;" xmlns:rdf="http://www.w3.org/1999/02/22-rdf-syntax-ns#" width="316px" height="536.14px" enable-background="new 0 0 316 536.141" version="1.1" viewBox="0 0 316 536.14" xml:space="preserve">
<metadata>
	<ns:sfw>
		<ns:slices></ns:slices>
		<ns:sliceSourceBounds x="333.566" y="115.727" width="170.475" height="394.759" bottomLeftOrigin="true"></ns:sliceSourceBounds>
	</ns:sfw>
<rdf:RDF><cc:Work rdf:about=""><dc:format>image/svg+xml</dc:format><dc:type rdf:resource="http://purl.org/dc/dcmitype/StillImage"></dc:type><dc:title></dc:title></cc:Work></rdf:RDF></metadata>
	<path d="m112.53 416.1v-187.46h-41.461v-34.625h129.68v222.08h40.799v33.742h-170.48v-33.742l41.461 2e-3zm-7.056-310.29c0-7.057 1.322-13.635 3.977-19.738 2.652-6.1 6.3-11.468 10.939-16.099 4.643-4.631 10.094-8.271 16.354-10.917s12.929-3.97 20.003-3.97c7.07 0 13.699 1.323 19.889 3.97 6.188 2.646 11.602 6.285 16.244 10.917 4.641 4.631 8.322 10 11.051 16.099 2.727 6.103 4.09 12.681 4.09 19.738s-1.363 13.711-4.09 19.958c-2.729 6.251-6.41 11.688-11.051 16.32-4.645 4.631-10.057 8.308-16.244 11.027-6.188 2.722-12.818 4.08-19.889 4.08-7.075 0-13.742-1.357-20.003-4.08-6.263-2.719-11.714-6.396-16.354-11.027s-8.287-10.069-10.939-16.32c-2.654-6.247-3.977-12.901-3.977-19.958zm27.566 0c0 3.384 0.621 6.506 1.863 9.373 1.244 2.867 2.927 5.369 5.049 7.499 2.121 2.133 4.609 3.825 7.464 5.072 2.853 1.251 5.965 1.875 9.332 1.875 3.218 0 6.254-0.624 9.106-1.875 2.854-1.248 5.379-2.939 7.573-5.072 2.192-2.129 3.915-4.631 5.159-7.499 1.242-2.867 1.865-5.989 1.865-9.373 0-3.232-0.623-6.285-1.865-9.152-1.244-2.867-2.967-5.365-5.159-7.498-2.194-2.129-4.721-3.822-7.573-5.072-2.854-1.248-5.89-1.875-9.106-1.875-3.367 0-6.479 0.627-9.332 1.875-2.854 1.25-5.343 2.943-7.464 5.072-2.123 2.133-3.805 4.631-5.049 7.498-1.242 2.866-1.863 5.919-1.863 9.152zm40.579 310.29v-187.46h-33.964v187.46h33.964z" fill="#000000"></path>
</svg>