<?xml version='1.0' encoding='utf-8'?>
<!-- Generator: Adobe Illustrator 16.0.3, SVG Export Plug-In . SVG Version: 6.00 Build 0)  --><svg xmlns="http://www.w3.org/2000/svg" xmlns:cc="http://creativecommons.org/ns#" xmlns:dc="http://purl.org/dc/elements/1.1/" xmlns:rdf="http://www.w3.org/1999/02/22-rdf-syntax-ns#" width="221.27px" height="425.2px" version="1.2" viewBox="0 0 221.27 425.2" xml:space="preserve"><metadata><rdf:RDF><cc:Work rdf:about=""><dc:format>image/svg+xml</dc:format><dc:type rdf:resource="http://purl.org/dc/dcmitype/StillImage"></dc:type><dc:title></dc:title></cc:Work></rdf:RDF></metadata>
<path d="m173.12 170.11v-65.401c0-13.277-5.693-25.334-16.032-33.949-11.202-9.334-26.829-14.067-46.448-14.067-19.618 0-35.247 4.732-46.451 14.066-10.342 8.615-16.038 20.672-16.038 33.95v65.401h-33.977v117.23c0 29.166 23.651 52.818 52.831 52.818h87.277c29.166 0 52.817-23.652 52.817-52.818v-117.23h-33.979zm-101.98-65.401c0-15.439 15.136-25.03 39.502-25.03 24.361 0 39.495 9.591 39.495 25.03v65.401h-78.997v-65.401zm57.953 160.05v34.32c0 10.185-8.253 18.453-18.449 18.453-10.193 0-18.462-8.269-18.462-18.453v-34.323c-12.499-6.626-21.017-19.763-21.017-34.895 0-21.807 17.674-39.481 39.476-39.481s39.476 17.674 39.476 39.481c-1e-3 15.134-8.522 28.274-21.024 34.898z" fill="#000000"></path>
</svg>