<?xml version='1.0' encoding='utf-8'?>
<!-- Generator: Adobe Illustrator 16.0.0, SVG Export Plug-In . SVG Version: 6.00 Build 0)  --><svg xmlns="http://www.w3.org/2000/svg" xmlns:cc="http://creativecommons.org/ns#" xmlns:ns="&amp;ns_sfw;" xmlns:rdf="http://www.w3.org/1999/02/22-rdf-syntax-ns#" xmlns:dc="http://purl.org/dc/elements/1.1/" width="212px" height="471px" enable-background="new 0 0 212 471" version="1.1" viewBox="0 0 212 471" xml:space="preserve">
<metadata>
	<ns:sfw>
		<ns:slices></ns:slices>
		<ns:sliceSourceBounds x="363.682" y="118.527" width="113.637" height="376.397" bottomLeftOrigin="true"></ns:sliceSourceBounds>
	</ns:sfw>
<rdf:RDF><cc:Work rdf:about=""><dc:format>image/svg+xml</dc:format><dc:type rdf:resource="http://purl.org/dc/dcmitype/StillImage"></dc:type><dc:title></dc:title></cc:Work></rdf:RDF></metadata>
	<path d="m162.82 130.59v113.64l-0.846 4.646-2.744 4.014-4.016 2.533-4.225 0.846v77.73l-1.061 4.436-3.379 3.379-4.436 1.06 4.436 7.393 2.957 8.027 1.48 8.449-0.424 8.871-1.688 8.233-3.592 7.814-5.068 7.395-6.127 5.914-7.182 4.438-8.236 3.381-8.449 1.688h-8.658l-8.447-1.688-7.814-3.381-7.184-4.438-6.336-5.914-4.857-7.395-3.592-7.814-1.899-8.233-0.211-8.871 1.269-8.449 3.17-8.027 4.437-7.393-4.437-1.06-3.381-3.379-1.058-4.436v-77.73l-4.856-0.846-3.804-2.533-2.534-4.014-0.846-4.646v-113.64l1.057-6.337 2.959-6.125 4.646-4.436 5.913-3.168 6.338-1.056-4.438-7.393-3.17-7.815-1.268-8.026 0.211-9.293 1.9-8.238 3.59-8.026 4.856-6.759 6.339-6.125 7.182-4.858 7.814-3.379 8.447-1.479h8.658l8.449 1.479 8.236 3.379 7.182 4.858 6.127 6.125 5.068 6.759 3.592 8.026 1.689 8.238 0.424 9.293-1.48 8.026-2.957 7.815-4.438 7.393 6.338 1.056 5.701 3.168 4.646 4.436 3.168 6.125 0.859 6.337zm-32.736 3.169h-47.946l-4.438 1.056-3.379 3.168-1.268 4.647v80.688l1.268 4.436 3.379 3.379 4.438 1.061h47.946l4.438-1.061 3.379-3.379 1.27-4.436v-80.688l-1.27-4.647-3.379-3.168-4.438-1.056zm-3.17 236.15-0.635-5.914-2.533-5.492-4.014-4.646-5.068-2.957-5.703-1.897h-5.914l-5.703 1.897-4.855 2.957-3.802 4.646-2.746 5.492-0.845 5.914 0.845 5.914 2.746 5.276 3.802 4.438 4.855 3.59 5.703 1.479h5.914l5.703-1.479 5.068-3.59 4.014-4.438 2.533-5.276 0.635-5.914zm0-286.84-0.635-6.125-2.533-5.07-3.592-4.436-4.438-2.957-5.492-2.112-5.701-0.422-5.703 1.268-5.066 2.746-4.016 3.591-2.957 5.069-1.479 5.492v5.915l1.479 5.069 2.957 5.069 4.016 3.379 5.066 2.746 5.703 1.267 5.701-0.422 5.492-1.901 4.438-3.38 3.592-4.224 2.533-5.492 0.635-5.07z" fill="#FFCE63"></path>
</svg>