<?xml version='1.0' encoding='utf-8'?>
<!-- Generator: Adobe Illustrator 25.0.0, SVG Export Plug-In . SVG Version: 6.00 Build 0)  --><svg xmlns="http://www.w3.org/2000/svg" xmlns:cc="http://creativecommons.org/ns#" xmlns:dc="http://purl.org/dc/elements/1.1/" xmlns:rdf="http://www.w3.org/1999/02/22-rdf-syntax-ns#" overflow="visible" version="1.2" viewBox="237.53 85.042 389.8 425.2" xml:space="preserve" width="366.69803" height="400.0"><metadata><rdf:RDF><cc:Work rdf:about=""><dc:format>image/svg+xml</dc:format><dc:type rdf:resource="http://purl.org/dc/dcmitype/StillImage"></dc:type><dc:title></dc:title></cc:Work></rdf:RDF></metadata>
<path d="m496.33 383.11c-64.669 0-117.28-52.613-117.28-117.28 0-64.67 52.613-117.28 117.28-117.28s117.28 52.613 117.28 117.28c-1e-3 64.669-52.613 117.28-117.28 117.28zm0-208.5c-50.298 0-91.219 40.921-91.219 91.22 0 50.298 40.921 91.219 91.219 91.219s91.219-40.921 91.219-91.219c0-50.3-40.922-91.22-91.219-91.22z" fill="#000000"></path>
	<path d="m474.93 224.01c5.621 3.508 10.005 8.884 13.155 16.123 3.147 7.242 4.723 16.258 4.723 27.053 0 10.253-1.463 19.09-4.385 26.512-2.923 7.42-7.241 13.155-12.952 17.202-5.713 4.048-12.706 6.072-20.98 6.072-7.825 0-14.686-1.91-20.575-5.734-5.892-3.822-10.277-9.826-13.155-18.011l19.429-2.294c3.057 5.218 7.778 7.825 14.166 7.825 5.127 0 9.242-1.866 12.345-5.598s4.925-9.737 5.464-18.013c-2.34 2.789-5.15 4.882-8.433 6.274-3.285 1.397-6.859 2.092-10.725 2.092-6.658 0-12.48-1.371-17.473-4.116-4.992-2.742-8.816-6.521-11.469-11.334-2.654-4.81-3.98-10.274-3.98-16.392 0-5.846 1.416-11.287 4.25-16.325 2.834-5.036 6.925-9.061 12.278-12.076 5.351-3.013 11.581-4.52 18.687-4.52 7.464-2e-3 14.008 1.752 19.63 5.26zm-9.983 40.207c3.012-1.438 5.417-3.509 7.218-6.206-0.54-7.104-2.317-12.39-5.33-15.853-3.015-3.461-6.813-5.195-11.401-5.195-2.698 0-5.15 0.675-7.353 2.024-2.205 1.349-3.959 3.15-5.262 5.397-1.304 2.249-1.956 4.768-1.956 7.555 0 2.789 0.652 5.285 1.956 7.488 1.303 2.205 3.104 3.913 5.397 5.127s4.833 1.822 7.623 1.822c3.056 0 6.093-0.72 9.108-2.159z" fill="#000000"></path>
	<path d="m509.26 304.55c-6.476-8.274-9.715-20.508-9.715-36.698 0-16.191 3.239-28.423 9.715-36.7 6.476-8.274 15.739-12.412 27.793-12.412 12.143 0 21.429 4.138 27.862 12.412 6.429 8.277 9.646 20.508 9.646 36.7 0 16.19-3.217 28.423-9.646 36.698-6.433 8.277-15.719 12.413-27.862 12.413-12.054-1e-3 -21.317-4.136-27.793-12.413zm39.936-13.762c2.699-4.766 4.048-12.413 4.048-22.936 0-10.524-1.349-18.169-4.048-22.937-2.698-4.766-6.746-7.151-12.143-7.151s-9.444 2.384-12.143 7.151c-2.698 4.768-4.047 12.413-4.047 22.937 0 10.523 1.349 18.17 4.047 22.936 2.699 4.768 6.746 7.151 12.143 7.151s9.446-2.383 12.143-7.151z" fill="#000000"></path>
<rect x="484.6" y="392.11" width="23.456" height="89.916" fill="#000000"></rect>
	<path d="m343.29 274.26c-40.1 0-72.723-32.623-72.723-72.723s32.623-72.723 72.723-72.723c28.635 0 53.448 16.64 65.301 40.754 5.197-4.741 10.78-9.063 16.692-12.923-15.911-28.944-46.696-48.609-81.993-48.609-51.557 0-93.502 41.945-93.502 93.502s41.945 93.502 93.502 93.502c8.762 0 17.236-1.238 25.284-3.502-1.369-6.814-2.2-13.818-2.457-20.967-7.184 2.381-14.854 3.689-22.827 3.689z" fill="#000000"></path>
	<path d="m320.38 192.73c3.571 2.149 6.274 4.964 8.108 8.44 1.833 3.477 2.75 7.144 2.75 11 0 4.173-1.059 8.013-3.176 11.522-2.119 3.509-5.059 6.306-8.819 8.392-3.762 2.086-8.013 3.129-12.755 3.129-6.576 0-12.091-1.612-16.548-4.836s-7.413-7.839-8.866-13.845l13.94-1.802c1.074 2.529 2.48 4.41 4.22 5.643 1.738 1.232 3.902 1.849 6.495 1.849 2.023 0 3.841-0.442 5.453-1.328 1.612-0.884 2.86-2.086 3.746-3.603 0.884-1.517 1.327-3.192 1.327-5.026 0-1.833-0.443-3.509-1.327-5.025-0.886-1.518-2.15-2.734-3.794-3.651-1.644-0.916-3.541-1.375-5.69-1.375-1.896 0-3.684 0.474-5.358 1.422-1.676 0.949-3.051 2.245-4.125 3.888l-13.181-1.992 5.216-38.216h38.69v12.991h-27.311l-1.517 11.664c2.907-1.643 6.1-2.466 9.578-2.466 5.057 0 9.372 1.076 12.944 3.225z" fill="#000000"></path>
	<path d="m343.57 226.49c-4.552-5.816-6.827-14.414-6.827-25.793s2.275-19.976 6.827-25.793c4.552-5.816 11.063-8.724 19.535-8.724 8.535 0 15.062 2.909 19.582 8.724 4.52 5.818 6.78 14.414 6.78 25.793s-2.261 19.978-6.78 25.793c-4.52 5.818-11.047 8.724-19.582 8.724-8.473 1e-3 -14.983-2.906-19.535-8.724zm28.069-9.672c1.896-3.35 2.845-8.724 2.845-16.121 0-7.396-0.949-12.769-2.845-16.121-1.897-3.35-4.742-5.026-8.535-5.026s-6.638 1.676-8.535 5.026c-1.897 3.351-2.845 8.724-2.845 16.121s0.948 12.771 2.845 16.121c1.897 3.351 4.742 5.026 8.535 5.026s6.638-1.675 8.535-5.026z" fill="#000000"></path>
<rect x="331.33" y="302.22" width="18.7" height="71.685" fill="#000000"></rect>
</svg>