<?xml version='1.0' encoding='utf-8'?>
<!-- Generator: Adobe Illustrator 16.0.3, SVG Export Plug-In . SVG Version: 6.00 Build 0)  --><svg xmlns="http://www.w3.org/2000/svg" xmlns:cc="http://creativecommons.org/ns#" xmlns:dc="http://purl.org/dc/elements/1.1/" xmlns:rdf="http://www.w3.org/1999/02/22-rdf-syntax-ns#" width="225.03px" height="425.2px" version="1.2" viewBox="0 0 225.03 425.2" xml:space="preserve"><metadata><rdf:RDF><cc:Work rdf:about=""><dc:format>image/svg+xml</dc:format><dc:type rdf:resource="http://purl.org/dc/dcmitype/StillImage"></dc:type><dc:title></dc:title></cc:Work></rdf:RDF></metadata>
<circle cx="28.865" cy="325.46" r="14.693" fill="#000000"></circle>
<path d="m54.779 332.38v-13.814c55.038 0 83.918-13.451 86.848-23.001 0.535-1.743 0.25-2.688-0.344-3.581-1.672-2.51-8.865-8.682-39.557-11.742-31.437-3.132-48.25-8.809-54.518-18.398-2.1-3.22-4.104-8.59-1.723-15.917 5.069-15.595 33.154-24.182 79.077-24.182v13.83c-50.187 0-64.607 10.555-65.93 14.632-0.838 2.565-0.194 3.545 0.15 4.08 2.03 3.109 10.493 8.832 44.313 12.204 27.642 2.755 43.429 8.424 49.695 17.831 3.016 4.545 3.729 9.835 2.049 15.304-6.097 19.899-45.378 32.754-100.06 32.754z" fill="#000000"></path>
<path d="m210.23 121.35 0.01-5e-3c-6.097 45.05-55.612 116.76-55.612 116.76s-49.512-71.714-55.617-116.76l6e-3 6e-3c-0.412-2.748-0.627-5.556-0.627-8.418 0-31.058 25.18-56.239 56.238-56.239s56.231 25.181 56.231 56.239c0 2.861-0.211 5.67-0.629 8.417zm-27.606-36.418h-55.999v56h55.999v-56z" fill="#000000"></path>
</svg>