<?xml version='1.0' encoding='utf-8'?>
<!-- Generator: Adobe Illustrator 16.0.3, SVG Export Plug-In . SVG Version: 6.00 Build 0)  --><svg xmlns="http://www.w3.org/2000/svg" xmlns:cc="http://creativecommons.org/ns#" xmlns:dc="http://purl.org/dc/elements/1.1/" xmlns:rdf="http://www.w3.org/1999/02/22-rdf-syntax-ns#" width="291.63px" height="425.2px" version="1.2" viewBox="0 0 291.63 425.2" xml:space="preserve"><metadata><rdf:RDF><cc:Work rdf:about=""><dc:format>image/svg+xml</dc:format><dc:type rdf:resource="http://purl.org/dc/dcmitype/StillImage"></dc:type><dc:title></dc:title></cc:Work></rdf:RDF></metadata>
<path d="m14.178 56.693v283.46s24.621-4.324 24.621-27.324 10-28.666 27.667-28.666c36.667 0 48.484-23.667 48.484-38.334 0-8-2.484-12.334-2.484-17 0-8.666 0.667-11 16.333-21.667 11.715-7.976 10.666-20.333 3.333-28.667s-17.674-19.994-22-24.667c-2.882-3.113-4.108-11.032-3.333-20.333 4.333-51.999-34.242-76.806-92.621-76.806z" fill="#000000"></path>
<path d="m176.25 201.17-23.291 15.186c7.076 8.326 10.265 17.008 9.921 23.589-0.347 6.582-4.42 14.798-12.328 22.337l21.577 17.531c11.364-11.968 17.872-25.285 18.563-38.454 0.689-13.169-4.39-27.092-14.442-40.189z" fill="#000000"></path>
<path d="m210.81 178.64-23.338 15.213c14.389 16.653 20.172 32.54 19.342 48.396-0.832 15.857-8.239 30.96-24.29 46.017l21.62 17.569c19.078-19.215 29.323-40.079 30.481-62.173 1.158-22.091-6.85-43.921-23.815-65.022z" fill="#000000"></path>
<path d="m247.12 154.97-23.423 15.268c19.609 21.72 28.08 45.479 26.572 74.243-1.507 28.768-12.414 51.504-34.186 71.053l21.697 17.634c24.69-23.889 37.632-52.562 39.452-87.272 1.82-34.712-8.054-64.587-30.112-90.926z" fill="#000000"></path>
</svg>