<?xml version='1.0' encoding='utf-8'?>
<!-- Generator: Adobe Illustrator 16.0.0, SVG Export Plug-In . SVG Version: 6.00 Build 0)  --><svg xmlns="http://www.w3.org/2000/svg" xmlns:cc="http://creativecommons.org/ns#" xmlns:dc="http://purl.org/dc/elements/1.1/" xmlns:rdf="http://www.w3.org/1999/02/22-rdf-syntax-ns#" width="424px" height="425.2px" version="1.2" viewBox="0 0 424 425.2" xml:space="preserve"><metadata><rdf:RDF><cc:Work rdf:about=""><dc:format>image/svg+xml</dc:format><dc:type rdf:resource="http://purl.org/dc/dcmitype/StillImage"></dc:type><dc:title></dc:title></cc:Work></rdf:RDF></metadata>
<path d="m409.32 185.36c-1.005-7.641-4.184-22.763-6.381-30.143-2.172-7.3-7.722-21.552-11.037-28.405-3.364-6.94-11.247-20.286-15.667-26.605-4.568-6.53-14.773-18.839-20.286-24.6-5.375-5.606-16.946-16.053-23.103-20.795-5.947-4.581-18.535-12.837-25.115-16.438-6.518-3.563-20.137-9.646-27.139-12.167-7.064-2.539-21.577-6.518-28.939-7.983-7.635-1.521-23.092-3.544-30.876-3.849-8.044-0.316-24.19 0.503-32.185 1.465-7.716 0.931-23.011 3.917-30.491 6.021-7.394 2.08-21.856 7.393-28.821 10.634-7.045 3.277-20.577 11.024-27.002 15.394-6.642 4.519-19.175 14.649-25.047 20.13-5.767 5.382-16.506 16.99-21.403 23.179-4.736 5.984-13.346 18.647-17.077 25.308-3.687 6.574-9.944 20.348-12.527 27.437-2.607 7.157-6.667 21.906-8.119 29.386-1.502 7.759-3.259 23.526-3.563 31.422-0.31 8.144 0.254 24.481 1.192 32.576 0.906 7.821 3.923 23.34 6.083 30.938 2.129 7.449 7.635 22.024 10.975 29.026 3.39 7.102 11.385 20.732 15.885 27.213 4.675 6.704 15.115 19.343 20.776 25.252 5.667 5.935 17.884 16.959 24.414 21.9 6.275 4.767 19.628 13.259 26.599 16.934 6.878 3.625 21.235 9.782 28.61 12.24 7.448 2.483 22.762 6.184 30.509 7.475 8.014 1.365 24.253 2.88 32.391 3.029 4.953 0.074 14.873-0.695 19.802-1.192 4.817-0.497 14.401-1.912 19.156-2.831 4.605-0.868 13.755-3.004 18.262-4.295 4.457-1.291 13.21-4.271 17.505-6.033 5.736-2.334 16.959-7.599 22.372-10.628 5.487-3.054 16.077-9.932 21.117-13.706 5.189-3.873 15.084-12.29 19.728-16.81 5.686-5.536 16.438-17.331 21.279-23.638 4.68-6.083 13.135-18.994 16.797-25.748 3.613-6.68 9.746-20.609 12.229-27.785 2.521-7.274 7.697-29.82 7.697-29.82l3.017-31.657c-2e-3 1e-3 -0.585-23.929-1.617-31.831zm-126.89-64.855 0.409-0.137h0.137l0.211 0.062 0.137 0.137 0.224 0.36 7.474 18.957 7.908 19.802 6.01 14.836 0.148 0.757-0.211 0.422-0.695 0.646-10.925 7.424-34.552 23.482-16.288 11.056-0.845 0.497-25.351-57.233 11.496-7.138 21.465-13.21 16.164-10.093 17.084-10.627zm-14.786-7.685 3.812 6.294 0.198 0.409 0.82 1.54-0.199 0.757-1.316 0.993-46.046 28.12-13.632 8.467-1.067 0.571 24.569 53.588-0.348 0.149-45.625-54.582 78.834-46.306zm-58.952 78.338 28.325 34.228-6.158 2.036-11.186 3.625-13.93 4.544-1.552-0.496-6.691-10.976-9.237-14.978-5.332-8.808 25.761-9.175zm-115.8-84.433c1.607-3.594 6.301-10.043 8.963-12.936 1.397-1.515 4.649-4.109 6.369-5.252 1.763-1.173 5.531-3.122 7.486-3.923 1.894-0.776 5.816-1.986 7.821-2.384 2.142-0.422 6.499-0.888 8.678-0.832 3.414 0.094 10.255 0.987 13.508 2.024 3.159 1.005 9.125 4.079 11.819 6.021 2.669 1.925 7.417 6.593 9.373 9.237 1.993 2.694 5.159 8.709 6.22 11.894 1.117 3.346 2.24 10.404 2.253 13.929 0.013 3.439-1.03 10.305-2.104 13.569-1.049 3.203-4.215 9.255-6.22 11.968-1.992 2.701-6.803 7.468-9.522 9.436-2.769 2.005-8.908 5.208-12.167 6.232-3.39 1.067-10.521 1.887-14.072 1.937-2.092 0.031-6.27-0.478-8.318-0.906-1.986-0.416-5.884-1.633-7.753-2.434-1.855-0.794-5.4-2.78-7.07-3.923-1.726-1.173-5.003-3.805-6.443-5.313-2.104-2.197-5.872-7.058-7.35-9.721-1.439-2.589-3.606-8.163-4.258-11.049-0.671-2.979-1.167-9.131-0.919-12.179 0.316-3.949 2.086-11.783 3.706-15.395zm207.58 155.73c-0.571 2.061-2.645 5.859-3.837 7.622-0.471 0.695-2.259 2.533-2.259 2.533l-5.587 3.973-28.058 16.015-27.077 15.594-15.394 8.814s-7.449 2.88-10.081 3.078c-2.471 0.199-7.505-0.496-9.845-1.315-2.161-0.77-6.071-3.277-7.834-4.742-0.882-0.745-2.353-2.558-3.061-3.452-1.434-1.837-5.27-7.672-5.27-7.672l-31.832-47.797-0.205-0.497-4.134 1.192 8.46 12.588 12.601 18.896 9.715 14.823s0.341 0.721 0.416 0.994c0.031 0.123 0.062 0.496 0.062 0.496v67.14s0.187 0.77 0 0.919c-1.073 0.844-3.985-0.944-5.295-1.316-4.792-1.391-14.333-4.37-18.963-6.232-4.985-1.986-14.711-6.58-19.386-9.236-5.444-3.079-15.903-10.031-20.832-13.88-4.687-3.65-13.539-11.67-17.58-16.04-5.419-5.859-15.308-18.448-19.646-25.128-0.124-0.198-0.348-0.571-0.422-0.794-0.075-0.199-0.137-0.895-0.137-0.895v-96.887s0.689-6.071 1.391-7.971c0.72-1.949 2.88-5.562 4.208-7.151 1.334-1.589 4.506-4.333 6.294-5.388 1.818-1.067 5.847-2.471 7.902-2.942 0.894-0.205 2.725-0.329 3.644-0.348 1.8-0.031 5.394 0.298 7.194 0.41 1.104 0.068 4.419 0.298 4.419 0.298l6.853 0.186 12.806 0.794 7.971 0.41 12.533 0.782s7.089 0.633 9.367 1.254c1.359 0.366 3.985 1.44 5.184 2.185 1.217 0.757 3.377 2.7 4.339 3.762 1.341 1.478 3.488 4.842 4.581 6.505 1.074 1.639 4.072 6.716 4.072 6.716l8.876 14.47 10.298 16.841 9.801 15.891 10.578 17.281 12.65-7.274 10.342-5.935 12.179-7.002 10.913-6.232 8.317-4.122s2.868-0.869 3.849-0.968c1.962-0.198 5.984 0.037 7.921 0.422 1.639 0.348 4.817 1.49 6.282 2.31s4.109 2.941 5.251 4.171c1.254 1.366 3.34 4.42 4.122 6.108s1.85 5.289 2.036 7.126c0.214 2.161-0.109 6.531-0.692 8.617zm66.878-50.386-8.814 6.934-39.863 31.782-3.563 2.78h-0.087l-0.211 0.05h-0.261s-0.174-0.024-0.235-0.05c-2.533-0.819-7.425-2.979-9.721-4.345-0.051-0.025-0.162-0.074-0.199-0.124-0.1-0.124-0.285-0.373-0.36-0.497-0.732-1.315-1.626-4.221-2.371-5.537-0.757-1.315-2.495-3.823-3.575-4.891-1.875-1.875-6.207-5.065-8.591-6.232-1.552-0.745-4.941-1.614-6.655-1.862-1.688-0.261-5.102-0.348-6.79-0.149-1.974 0.211-5.761 1.44-7.697 1.887-0.534 0.112-2.16 0.423-2.16 0.423l-1.13-0.372-15.332-6.779-5.947-2.632 2.322-1.564 20.646-13.985 36.04-24.488 6.506-4.469 0.124-0.087 0.422-0.063h0.62l34.502 14.29 16.573 6.915 13.234 5.525 1.315 0.571-8.742 6.969z" fill="#000000"></path>
</svg>