<?xml version='1.0' encoding='utf-8'?>
<!-- Generator: Adobe Illustrator 16.0.3, SVG Export Plug-In . SVG Version: 6.00 Build 0)  --><svg xmlns="http://www.w3.org/2000/svg" xmlns:cc="http://creativecommons.org/ns#" xmlns:dc="http://purl.org/dc/elements/1.1/" xmlns:rdf="http://www.w3.org/1999/02/22-rdf-syntax-ns#" width="319.76px" height="425.2px" enable-background="new 0 0 319.757 425.197" version="1.1" viewBox="0 0 319.76 425.2" xml:space="preserve"><metadata><rdf:RDF><cc:Work rdf:about=""><dc:format>image/svg+xml</dc:format><dc:type rdf:resource="http://purl.org/dc/dcmitype/StillImage"></dc:type><dc:title></dc:title></cc:Work></rdf:RDF></metadata>

	<path d="m170.66 56.693c-74.504 0-134.91 60.406-134.91 134.92 0 5.92 0.384 11.749 1.123 17.466l22.597-4.313c-0.505-4.315-0.773-8.702-0.773-13.153 0-57.923 43.978-105.57 100.37-111.38 0.948 1.426 0.593 2.544-1.833 3.187-6.478 1.722-38.364 9.752-37.713 21.133 0.65 11.379 13.655 8.453 20.481 8.453 6.829 0 8.454-11.055 14.305-12.681 5.853-1.625 16.892-4.228 20.14-9.429 3.253-5.199 7.47-9.71 19.816-8.758 7.077 1.52 13.902 3.702 20.41 6.486 4.64 5.525-2.838 8.774-6.738 10.4-3.899 1.626-13.005 7.478-17.23 1.626-4.226-5.852-12.357-0.975-18.207 1.3-5.84 2.277-12.988 13.006-6.811 14.957 6.163 1.95 23.393-3.577 22.415 2.601-0.973 6.177-3.251 6.828-13.325 6.177-10.065-0.65-19.494-1.299-24.696 1.951-5.203 3.251-13.33 1.951-17.557 8.777-4.227 6.827-2.276 10.078 0.65 13.979 2.927 3.902 6.502 4.877 12.03 4.227 5.527-0.649 3.577-7.153 9.753-8.128 6.177-0.975 9.103 1.625 11.378 4.876 2.269 3.252 9.089 9.423 13.642 3.412 4.555-6.012 5.853-10.889 11.704-10.889 5.854 0 3.575-8.127 10.729-8.127 7.152 0 10.729 5.201 9.752 10.078-0.976 4.876-9.752 5.852-14.626 5.852-4.879 0-7.804 2.127-9.107 5.615-1.299 3.489-4.228 8.69-9.103 7.715-4.879-0.975-12.021-0.736-16.24 0.12-4.227 0.855-5.203-8.898-13.004-7.597-7.803 1.299-10.08 7.477-23.409 5.202-6.731-1.149-9.104 1.3-12.354 9.103-2.972 7.13-8.38 15.076-2.094 22.844l34.997-6.679v24.746c1.846 1.927 3.021 4.413 3.51 7.221 1.3 7.473 7.151 7.8 7.478 20.805 0.326 13.005 2.275 24.058 10.073 30.234 7.794 6.18 14.946 17.229 20.472 8.777 5.528-8.449 8.78-17.227 14.957-19.177 6.177-1.951 10.809-13.334 10.077-21.461-0.728-8.128-8.776-16.904-1.951-18.53 6.829-1.626 15.285-0.978 15.605-9.428 0.328-8.465-11.051-10.09-18.529-15.943-7.479-5.852-19.183-23.409-14.957-26.009 4.228-2.603 8.129 3.25 12.356 9.428 4.225 6.177 16.907 16.259 24.383 15.932 7.479-0.325 11.702-6.83 11.702-13.007s-1.299-8.128-13.653-10.403c-12.354-2.276-15.278-7.153-11.054-11.055 4.227-3.901 17.881-4.876 20.808 1.302 2.926 6.176 19.507 0.976 20.157 11.053 0.646 10.078 3.731 13.285 6.982 18.487 3.251 5.204 7.647 8.499 9.925 0.622 1.783-6.176 0-7.769 4.224-12.644 0.821-0.946 1.354-2.027 1.735-3.121 0.724 5.151 1.106 10.413 1.106 15.764 0 61.853-50.133 111.98-111.97 111.98-8.039 0-15.877-0.854-23.438-2.464v23.381c7.613 1.334 15.443 2.033 23.438 2.033 74.511 0 134.92-60.406 134.92-134.93 2e-3 -74.513-60.405-134.92-134.92-134.92z" fill="#000000"></path>
	<path d="m233.3 248.59c-2.19 4.066-9.428 4.035-8.127 10.211 1.301 6.179 3.083 17.098 8.286 10.271 5.202-6.826 9.92-10.729 6.671-16.58-3.253-5.852-4.553-8.13-6.83-3.902z" fill="#000000"></path>

<path d="m48.864 213.06v87.617c-2.31-0.197-4.736-0.18-7.248 0.1-15.156 1.673-27.443 11.796-27.443 22.607 0 10.809 12.287 18.216 27.443 16.539 15.157-1.674 27.445-11.795 27.445-22.605v-76.366l51.813-9.875v55.742c-2.309-0.196-4.735-0.179-7.246 0.099-15.158 1.675-27.444 11.797-27.444 22.607s12.286 18.217 27.444 16.541c15.156-1.674 27.444-11.798 27.444-22.606v-108l-92.208 17.599z" clip-rule="evenodd" fill-rule="evenodd" fill="#000000"></path>
</svg>