<?xml version='1.0' encoding='utf-8'?>
<!-- Generator: Adobe Illustrator 16.0.3, SVG Export Plug-In . SVG Version: 6.00 Build 0)  --><svg xmlns="http://www.w3.org/2000/svg" xmlns:cc="http://creativecommons.org/ns#" xmlns:dc="http://purl.org/dc/elements/1.1/" xmlns:rdf="http://www.w3.org/1999/02/22-rdf-syntax-ns#" width="311.81px" height="425.2px" version="1.2" viewBox="0 0 311.81 425.2" xml:space="preserve"><metadata><rdf:RDF><cc:Work rdf:about=""><dc:format>image/svg+xml</dc:format><dc:type rdf:resource="http://purl.org/dc/dcmitype/StillImage"></dc:type><dc:title></dc:title></cc:Work></rdf:RDF></metadata>

	<path d="m155.91 340.16c-78.08 0-141.73-63.651-141.73-141.7 0-78.108 63.652-141.76 141.73-141.76 78.193 0 141.73 63.651 141.73 141.76 1e-3 78.053-63.538 141.7-141.73 141.7zm0-257.86c-64.072 0-116.29 52.053-116.29 116.15 0 64.044 52.221 116.6 116.29 116.6 64.129 0 116.13-52.559 116.13-116.6 0-64.1-51.998-116.15-116.13-116.15z" fill="#000000"></path>
	<path d="m156.02 111.1c-48.188 0-87.326 38.998-87.326 87.186 0 48.075 39.139 87.521 87.326 87.521 48.104 0 87.156-39.446 87.156-87.521 0-48.188-39.053-87.186-87.156-87.186z" fill="#000000"></path>

</svg>