<?xml version='1.0' encoding='utf-8'?>
<!-- Generator: Adobe Illustrator 16.0.0, SVG Export Plug-In . SVG Version: 6.00 Build 0)  --><svg xmlns="http://www.w3.org/2000/svg" xmlns:cc="http://creativecommons.org/ns#" xmlns:dc="http://purl.org/dc/elements/1.1/" xmlns:ns="&amp;ns_sfw;" xmlns:rdf="http://www.w3.org/1999/02/22-rdf-syntax-ns#" width="209px" height="425.2px" enable-background="new 0 0 209 425.197" version="1.1" viewBox="0 0 209 425.2" xml:space="preserve">
<metadata>
	<ns:sfw>
		<ns:slices></ns:slices>
		<ns:sliceSourceBounds x="332.045" y="165.206" width="177.602" height="281.596" bottomLeftOrigin="true"></ns:sliceSourceBounds>
	</ns:sfw>
<rdf:RDF><cc:Work rdf:about=""><dc:format>image/svg+xml</dc:format><dc:type rdf:resource="http://purl.org/dc/dcmitype/StillImage"></dc:type><dc:title></dc:title></cc:Work></rdf:RDF></metadata>
	<path d="m193.65 256.9c0 55.199-30.9 87.998-74.4 87.998h-103.2v-281.6h102c33.601 0 66.001 28 66.001 78.399 0 21.6-8.701 37.199-21 49.199 18.9 13.601 30.599 37.6 30.599 66zm-126-134.4v54.398h43.201c12.898 0 21.6-10.8 21.6-27.199 0-14.799-8.7-27.199-21.6-27.199h-43.201zm72 136c0-14.4-9.899-27.199-22.801-27.199h-49.2v54.398h49.201c12.901 0 22.8-10.401 22.8-27.199z" fill="#000000"></path>
</svg>