<?xml version='1.0' encoding='utf-8'?>
<!-- Generator: Adobe Illustrator 16.0.0, SVG Export Plug-In . SVG Version: 6.00 Build 0)  --><svg xmlns="http://www.w3.org/2000/svg" xmlns:cc="http://creativecommons.org/ns#" xmlns:dc="http://purl.org/dc/elements/1.1/" xmlns:ns="&amp;ns_sfw;" xmlns:rdf="http://www.w3.org/1999/02/22-rdf-syntax-ns#" width="471px" height="432px" enable-background="new 0 0 471 432" version="1.1" viewBox="0 0 471 432" xml:space="preserve">
<metadata>
	<ns:sfw>
		<ns:slices></ns:slices>
		<ns:sliceSourceBounds x="218.362" y="153.752" width="404.275" height="292.74" bottomLeftOrigin="true"></ns:sliceSourceBounds>
	</ns:sfw>
<rdf:RDF><cc:Work rdf:about=""><dc:format>image/svg+xml</dc:format><dc:type rdf:resource="http://purl.org/dc/dcmitype/StillImage"></dc:type><dc:title></dc:title></cc:Work></rdf:RDF></metadata>
	<path d="m33.362 213.28c0-27.9 5.022-54.197 15.066-78.89 10.044-24.692 24.41-46.382 43.105-65.077l28.04 27.83c-15.485 14.092-27.519 31.146-36.098 51.162-8.579 20.02-12.869 41.678-12.869 64.975 0 23.436 4.29 44.885 12.869 64.344 8.58 19.461 20.611 36.725 36.098 51.791l-28.04 27.83c-18.695-18.691-33.063-40.314-43.105-64.869-10.043-24.551-15.066-50.916-15.066-79.096zm53.569 0c0-20.367 3.904-39.409 11.718-57.127 7.813-17.713 18.483-33.234 32.018-46.559 13.527-13.32 29.295-23.75 47.291-31.283s37.175-11.299 57.544-11.299c20.366 0 39.443 3.767 57.23 11.299 17.784 7.533 33.271 17.963 46.451 31.283 13.186 13.323 23.574 28.844 31.181 46.559 7.602 17.719 11.402 36.76 11.402 57.127 0 13.53-1.745 26.541-5.229 39.022-3.488 12.486-8.37 24.137-14.647 34.945-6.275 10.813-13.847 20.684-22.704 29.606-8.858 8.933-18.728 16.568-29.606 22.914-10.881 6.351-22.53 11.269-34.945 14.752-12.418 3.488-25.46 5.232-39.13 5.232-13.533 0-26.611-1.744-39.235-5.232-12.627-3.483-24.45-8.401-35.468-14.752-11.021-6.346-21.03-13.981-30.028-22.914-8.998-8.926-16.812-18.795-23.436-29.606-6.627-10.812-11.688-22.459-15.171-34.945-3.493-12.481-5.236-25.489-5.236-39.022zm23.019 0c0 16.737 3.274 32.608 9.834 47.604 6.556 14.998 15.518 28.076 26.889 39.234 11.368 11.162 24.655 19.981 39.862 26.471 15.201 6.486 31.523 9.729 48.965 9.729 11.159 0 21.972-1.466 32.434-4.396 10.465-2.93 20.264-7.078 29.4-12.449 9.135-5.369 17.473-11.824 25.005-19.354 7.533-7.533 14.021-15.832 19.461-24.9 5.44-9.065 9.59-18.865 12.45-29.399 2.857-10.529 4.29-21.377 4.29-32.537 0-16.741-3.211-32.608-9.626-47.605-6.418-14.994-15.242-28.04-26.47-39.13-11.231-11.09-24.312-19.947-39.235-26.575-14.929-6.624-30.832-9.939-47.709-9.939-11.581 0-22.74 1.5-33.48 4.499-10.744 3.001-20.752 7.187-30.025 12.555-9.279 5.372-17.72 11.823-25.319 19.355-7.605 7.533-14.092 15.871-19.46 25.006-5.372 9.139-9.593 18.904-12.66 29.295-3.074 10.391-4.606 21.236-4.606 32.536zm76.795 86.002v-171.8h55.87c8.229 0 15.972 0.769 23.228 2.303 7.252 1.537 13.634 4.221 19.146 8.056 5.509 3.838 9.901 8.86 13.183 15.065 3.276 6.21 4.917 13.988 4.917 23.332 0 8.789-1.778 16.148-5.336 22.076-3.557 5.932-8.16 10.776-13.811 14.545-5.649 3.766-12.067 6.59-19.251 8.475-7.188 1.883-14.543 3.104-22.076 3.66h-32.645v74.285h-23.225zm23.226-95.211h37.038c0.419 0 1.431-0.032 3.034-0.104 1.602-0.068 3.558-0.347 5.859-0.837 2.302-0.487 4.708-1.324 7.219-2.511 2.511-1.184 4.846-2.789 7.01-4.813 2.161-2.021 3.904-4.636 5.231-7.847 1.322-3.208 1.986-7.115 1.986-11.719 0-4.74-0.664-8.684-1.986-11.822-1.327-3.139-3.07-5.754-5.231-7.848-2.164-2.092-4.499-3.694-7.01-4.813-2.511-1.115-4.917-1.916-7.219-2.406-2.304-0.486-4.26-0.765-5.859-0.836-1.604-0.07-2.615-0.104-3.034-0.104h-37.038v55.66zm167.19-134.76c9.345 9.348 17.715 19.496 25.11 30.446 7.393 10.953 13.706 22.495 18.938 34.631 5.232 12.137 9.275 24.832 12.137 38.084 2.857 13.254 4.289 26.855 4.289 40.805 0 13.948-1.432 27.553-4.289 40.803-2.859 13.256-6.903 25.981-12.137 38.188-5.231 12.209-11.545 23.787-18.938 34.736-7.396 10.953-15.768 21.029-25.11 30.236l-25.528-27.83c15.203-15.066 27.131-32.328 35.781-51.789 8.648-19.461 12.974-40.908 12.974-64.346 0-23.295-4.323-44.676-12.974-64.137-8.65-19.46-20.578-36.792-35.781-51.999l25.528-27.828z" fill="#000000"></path>
</svg>