<?xml version='1.0' encoding='utf-8'?>
<!-- Generator: Adobe Illustrator 16.0.0, SVG Export Plug-In . SVG Version: 6.00 Build 0)  --><svg xmlns="http://www.w3.org/2000/svg" xmlns:cc="http://creativecommons.org/ns#" xmlns:rdf="http://www.w3.org/1999/02/22-rdf-syntax-ns#" xmlns:dc="http://purl.org/dc/elements/1.1/" width="450px" height="425.2px" version="1.2" viewBox="0 0 450 425.2" xml:space="preserve"><metadata><rdf:RDF><cc:Work rdf:about=""><dc:format>image/svg+xml</dc:format><dc:type rdf:resource="http://purl.org/dc/dcmitype/StillImage"></dc:type><dc:title></dc:title></cc:Work></rdf:RDF></metadata>

	<path d="m214.2 167.76c-3.183 0.33-6.167 0.741-8.963 1.234s-5.455 1.124-7.976 1.89c-4.387 1.208-8.525 3.071-12.416 5.592-3.893 2.522-8.033 5.591-12.416 9.209-4.496 3.728-8.772 7.511-12.827 11.347-4.057 3.838-8.057 7.456-12.004 10.853-3.4 2.852-5.784 4.798-7.154 5.837-1.372 1.045-2.22 1.729-2.549 2.057-0.768 0-1.372 0.027-1.808 0.082-0.44 0.059-0.823 0.305-1.151 0.741-0.33 0-0.879 0.028-1.645 0.081-0.768 0.058-1.92 0.246-3.454 0.574-5.154 0.771-9.484 1.429-12.992 1.976-3.51 0.551-6.742 1.067-9.702 1.563-2.96 0.492-5.894 0.983-8.797 1.479-2.906 0.494-6.388 1.016-10.443 1.564-7.675 1.535-14.471 3.18-20.391 4.933-5.92 1.755-11.074 3.563-15.458 5.427-0.438 0-0.851 0.139-1.233 0.41-0.385 0.275-0.961 0.633-1.727 1.068-0.439 0.33-0.96 0.686-1.562 1.068-0.604 0.385-1.069 0.739-1.398 1.068-0.657 0.984-1.262 2.275-1.809 3.863-0.55 1.591-1.043 3.289-1.48 5.1-0.439 1.811-0.768 3.676-0.987 5.591-0.221 1.921-0.328 3.646-0.328 5.183l0.164 2.302c0 0.769 0.301 1.37 0.905 1.81 0.602 0.438 1.287 0.822 2.056 1.15 1.534 0 3.561 0.139 6.084 0.41 2.52 0.275 4.877 0.412 7.071 0.412h14.8v0.658c0 4.055 0.765 7.865 2.302 11.428 1.534 3.563 3.672 6.688 6.414 9.375 2.739 2.688 5.921 4.797 9.538 6.328 3.618 1.539 7.565 2.303 11.84 2.303 3.837 0 7.482-0.739 10.935-2.219 3.454-1.479 6.522-3.479 9.21-6.002 2.685-2.521 4.823-5.48 6.413-8.881 1.588-3.396 2.493-7.017 2.714-10.855v-2.959h189.44l0.659 4.439c0.219 3.617 1.15 7.045 2.795 10.276 1.645 3.233 3.782 6.06 6.413 8.472 2.63 2.412 5.617 4.303 8.962 5.672 3.344 1.371 6.879 2.055 10.608 2.055 3.835 0 7.507-0.684 11.017-2.055 3.509-1.369 6.633-3.291 9.374-5.756 2.739-2.468 4.904-5.371 6.496-8.715 1.587-3.346 2.385-6.934 2.385-10.773v-4.273c1.862 0 5.179-0.023 9.948-0.08s9.785-0.303 15.047-0.74c1.095-0.328 1.864-0.74 2.303-1.232 0.438-0.494 0.658-1.287 0.658-2.385-0.438-7.345-1.262-14.609-2.468-21.789-1.208-7.181-2.358-13.403-3.453-18.666-0.658-1.422-1.371-2.14-2.138-2.14-3.398-0.437-6.963-1.12-10.689-2.056-3.729-0.93-8.005-1.945-12.826-3.042-3.616-1.095-7.151-2.384-10.606-3.863-3.452-1.481-6.88-2.985-10.277-4.522l-1.973-0.986c-3.29-1.535-6.634-3.372-10.031-5.509-3.398-2.138-7.07-4.358-11.019-6.661-7.456-4.275-14.416-7.754-20.886-10.442-6.47-2.685-12.278-4.629-17.433-5.838-3.181-0.765-6.659-1.452-10.44-2.055-3.782-0.602-7.758-1.178-11.923-1.728v-21.707c5.261 0.549 10.25 1.233 14.964 2.055 4.712 0.822 9.101 1.673 13.156 2.549 6.796 1.645 13.921 4.305 21.377 7.976 7.454 3.675 14.773 7.539 21.954 11.593 7.18 4.058 14.061 7.84 20.64 11.347 6.576 3.51 12.44 5.92 17.597 7.236 6.249 1.644 11.594 2.688 16.032 3.124 4.439 0.44 8.192 1.069 11.265 1.892 3.067 0.822 5.591 2.248 7.563 4.274 1.976 2.03 3.618 5.51 4.935 10.443 0.878 3.289 1.81 7.153 2.797 11.593 0.986 4.439 1.916 9.238 2.795 14.389 0.877 5.154 1.617 10.556 2.222 16.197 0.602 5.648 0.903 11.432 0.903 17.352 0 2.96-0.987 5.316-2.961 7.07-1.973 1.754-4.387 3.1-7.234 4.027-2.853 0.934-5.895 1.539-9.127 1.811-3.234 0.273-6.168 0.41-8.799 0.41-1.535 0-2.877-0.023-4.028-0.082-1.149-0.055-2.002-0.08-2.549-0.08h-0.657c-2.521 6.688-6.44 12.441-11.758 17.267-5.318 4.825-11.648 8.276-18.993 10.358-2.193 0.658-4.387 1.125-6.579 1.398-2.191 0.273-4.386 0.41-6.575 0.41-4.827 0-9.434-0.684-13.813-2.057-4.386-1.369-8.442-3.289-12.17-5.756-3.729-2.467-7.07-5.426-10.031-8.881-2.961-3.451-5.426-7.207-7.397-11.266h-161.49c-2.96 6.249-7.127 11.76-12.498 16.529-5.373 4.769-11.676 8.193-18.912 10.275-3.727 1.098-7.674 1.645-11.839 1.645-4.605 0-9.073-0.684-13.402-2.057-4.333-1.369-8.387-3.23-12.169-5.59-3.783-2.355-7.21-5.181-10.279-8.47-3.07-3.289-5.591-6.907-7.564-10.854-0.769 0-2.907-0.137-6.414-0.41-3.51-0.271-8.937-0.629-16.28-1.068-3.181 0-5.755-0.766-7.729-2.303-1.973-1.532-3.536-3.426-4.687-5.674-1.151-2.246-1.947-4.656-2.385-7.234-0.439-2.573-0.658-4.852-0.658-6.823 0-9.209 0.849-16.553 2.55-22.034 1.698-5.482 3.314-9.152 4.85-11.02 1.753-2.412 3.701-4.631 5.838-6.66 2.138-2.025 4.794-3.945 7.976-5.757 3.179-1.812 7.125-3.506 11.84-5.097 4.713-1.588 10.578-3.15 17.596-4.688 1.974-0.438 4.219-0.904 6.742-1.398 2.521-0.492 5.235-0.987 8.141-1.48 2.903-0.491 5.863-0.984 8.88-1.478 3.014-0.495 5.946-1.015 8.797-1.564 6.796-1.203 13.814-2.355 21.049-3.452 0.767-0.329 1.341-0.52 1.727-0.576 0.383-0.054 0.795-0.082 1.234-0.082 0.766-0.438 1.424-1.013 1.973-1.728 0.547-0.712 1.588-1.616 3.125-2.714 3.836-3.289 7.865-6.959 12.087-11.018 4.219-4.054 8.687-8.058 13.402-12.004 4.712-3.947 9.727-7.565 15.046-10.854 5.316-3.289 11.101-5.81 17.349-7.565 3.507-0.986 7.154-1.809 10.937-2.467 3.781-0.657 7.754-1.204 11.923-1.644l-5e-3 21.714zm8.387 47.856c0-2.851 0.548-5.51 1.644-7.977s2.576-4.631 4.44-6.495c1.864-1.863 4.03-3.314 6.497-4.359 2.469-1.041 5.123-1.563 7.977-1.563 2.74 0 5.371 0.521 7.895 1.563 2.52 1.044 4.688 2.496 6.495 4.359 1.81 1.864 3.261 4.028 4.356 6.495 1.097 2.467 1.646 5.126 1.646 7.977 0 2.853-0.549 5.509-1.646 7.976-1.098 2.467-2.549 4.604-4.356 6.412-1.81 1.812-3.976 3.266-6.495 4.358-2.523 1.097-5.154 1.646-7.895 1.646-2.854 0-5.508-0.549-7.977-1.646-2.467-1.095-4.633-2.549-6.497-4.358s-3.345-3.945-4.44-6.412-1.644-5.126-1.644-7.976zm3.452-114.29c0-2.192 0.412-4.275 1.232-6.249 0.822-1.973 1.975-3.701 3.455-5.18 1.479-1.48 3.207-2.657 5.181-3.536 1.973-0.876 4.11-1.315 6.413-1.315 2.191 0 4.275 0.439 6.249 1.315 1.973 0.879 3.698 2.056 5.18 3.536 1.479 1.479 2.657 3.207 3.535 5.18 0.877 1.973 1.313 4.057 1.313 6.249v69.232c0 2.303-0.438 4.44-1.313 6.413-0.878 1.974-2.058 3.701-3.535 5.18-1.479 1.481-3.207 2.632-5.18 3.454-1.974 0.822-4.058 1.234-6.249 1.234-4.604 0-8.471-1.563-11.594-4.688-3.125-3.125-4.688-6.988-4.688-11.593v-69.232z" fill="#F54C4C"></path>

</svg>