<?xml version='1.0' encoding='utf-8'?>
<!-- Generator: Adobe Illustrator 16.0.0, SVG Export Plug-In . SVG Version: 6.00 Build 0)  --><svg xmlns="http://www.w3.org/2000/svg" xmlns:cc="http://creativecommons.org/ns#" xmlns:dc="http://purl.org/dc/elements/1.1/" xmlns:ns="&amp;ns_sfw;" xmlns:rdf="http://www.w3.org/1999/02/22-rdf-syntax-ns#" width="497px" height="575.14px" enable-background="new 0 0 497 575.141" version="1.1" viewBox="0 0 497 575.14" xml:space="preserve">
<metadata>
	<ns:sfw>
		<ns:slices></ns:slices>
		<ns:sliceSourceBounds x="220.829" y="58.277" width="397.979" height="486.446" bottomLeftOrigin="true"></ns:sliceSourceBounds>
	</ns:sfw>
<rdf:RDF><cc:Work rdf:about=""><dc:format>image/svg+xml</dc:format><dc:type rdf:resource="http://purl.org/dc/dcmitype/StillImage"></dc:type><dc:title></dc:title></cc:Work></rdf:RDF></metadata>
	<path d="m196.37 187.62c-14.7 7.443-28.357 16.426-40.97 26.949-12.614 10.527-23.546 21.777-32.802 33.754-9.257 11.978-16.471 24.229-21.643 36.747-5.173 12.523-7.759 24.322-7.759 35.391 0 22.145 4.22 42.24 12.658 60.297 8.438 18.059 19.553 33.529 33.347 46.412 13.789 12.889 29.535 22.865 47.229 29.941 17.692 7.076 35.796 10.615 54.307 10.615 12.156 0 24.271-1.586 36.341-4.764 12.066-3.172 23.546-7.758 34.438-13.746 10.889-5.988 21.003-13.293 30.353-21.914 9.347-8.617 17.421-18.375 24.229-29.262 6.806-10.893 12.153-22.867 16.061-35.936 3.9-13.064 5.854-26.949 5.854-41.646 0-14.699-2.543-28.535-7.622-41.515-5.082-12.973-11.752-24.997-20.008-36.066-8.263-11.067-17.693-21.186-28.313-30.352-10.616-9.162-21.463-17.464-32.53-24.908v-58.798c18.514 7.443 36.566 17.421 54.172 29.943 17.603 12.522 33.302 27.085 47.096 43.69 13.789 16.605 24.906 34.891 33.346 54.852 8.438 19.965 12.658 41.014 12.658 63.153 0 29.396-5.219 56.715-15.652 81.938-10.438 25.23-24.815 47.051-43.146 65.467-18.332 18.418-40.108 32.848-65.331 43.283-25.229 10.436-52.537 15.652-81.938 15.652-17.243 0-33.938-2.361-50.088-7.078-16.153-4.721-31.352-11.436-45.596-20.146-14.249-8.711-27.271-19.281-39.063-31.713-11.8-12.428-21.913-26.27-30.353-41.514-8.438-15.244-15.021-31.801-19.734-49.678-4.722-17.873-7.078-36.613-7.078-56.213 0-22.143 2.857-43.189 8.574-63.154 5.717-19.961 14.563-38.246 26.541-54.852 11.979-16.605 27.265-31.168 45.868-43.69 18.601-12.522 40.785-22.5 66.558-29.943v58.801h-4e-3v3e-3zm80.498 162.24v-309.51h-58.799v309.51h58.799v2e-3z" fill="#000000"></path>
</svg>