<?xml version='1.0' encoding='utf-8'?>
<!-- Generator: Adobe Illustrator 16.0.0, SVG Export Plug-In . SVG Version: 6.00 Build 0)  --><svg xmlns="http://www.w3.org/2000/svg" xmlns:cc="http://creativecommons.org/ns#" xmlns:ns="&amp;#38;ns_sfw;" xmlns:rdf="http://www.w3.org/1999/02/22-rdf-syntax-ns#" xmlns:dc="http://purl.org/dc/elements/1.1/" width="471px" height="461px" enable-background="new 0 0 471 461" version="1.1" viewBox="0 0 471 461" xml:space="preserve">
<metadata>
	<ns:sfw>
		<ns:slices></ns:slices>
		<ns:sliceSourceBounds x="219.134" y="116.295" width="403.548" height="362.411" bottomLeftOrigin="true"></ns:sliceSourceBounds>
	</ns:sfw>
<rdf:RDF><cc:Work rdf:about=""><dc:format>image/svg+xml</dc:format><dc:type rdf:resource="http://purl.org/dc/dcmitype/StillImage"></dc:type><dc:title></dc:title></cc:Work></rdf:RDF></metadata>
	<path d="m99.948 221.41h-65.814v-22.3h65.814l-0.216 11.258 0.216 11.042zm47.629-114.96-8.01 7.361-7.577 8.011-46.546-46.547 15.371-15.371 46.762 46.546zm0 207.4-46.763 46.33-15.371-14.938 46.546-46.979 7.577 8.01 8.011 7.577zm197.23-103.49-0.649 12.341-1.948 12.122-3.681 11.691-4.546 11.475-6.278 10.394-7.145 10.391-8.443 9.094-9.093 8.013-10.175 6.928-10.825 6.061-11.258 4.33-11.907 3.465-12.34 2.164-12.124 0.435-12.559-0.865-11.689-2.381-12.124-3.682-11.477-4.979-10.392-6.063-9.959-7.576-9.093-8.013-8.012-9.311-6.928-10.174-5.845-11.258-4.33-11.261-3.031-12.123-1.949-12.124-0.433-12.34 1.299-12.123 2.165-12.341 3.896-11.907 5.194-10.824 6.495-10.608 7.361-9.958 8.443-8.876 9.74-8.01 10.177-6.928v-66.25h109.11v66.248l10.394 7.144 9.742 8.443 8.66 9.093 7.575 10.175 6.711 10.825 4.549 11.69 3.896 12.125 1.949 12.34 0.875 12.988zm-21.65 0-0.865-11.258-1.947-10.608-3.247-10.392-4.979-9.959-5.629-9.093-6.928-8.443-8.229-7.577-9.093-6.495-9.31-5.196-10.176-4.33-10.394-2.381-10.824-1.516h-11.258l-10.608 1.516-10.606 2.381-10.394 4.33-9.524 5.196-8.66 6.495-8.229 7.577-6.711 8.443-6.276 9.093-4.33 9.959-3.464 10.392-2.165 10.608-0.65 11.258 0.65 11.042 2.165 10.393 3.464 10.393 4.33 9.959 6.276 9.309 6.711 8.443 8.229 7.361 8.66 6.494 9.524 5.194 10.394 4.113 10.606 2.814 10.608 1.081h11.258l10.824-1.081 10.394-2.814 10.176-4.113 9.31-5.194 9.093-6.494 8.229-7.361 6.928-8.443 5.629-9.309 4.979-9.959 3.247-10.393 1.947-10.393 0.865-11.042zm-54.34-104.13v-34.855h-65.6v34.855l12.773-3.464 13.207-1.732h13.422l12.773 1.732 13.425 3.464zm-13.637 106.73-0.866 5.412-2.381 4.979-3.897 4.113-4.112 2.813-5.411 1.517h-5.196l-5.196-1.517-4.763-2.813-3.464-4.113-2.383-4.979-0.433-5.412v-57.155l0.433-5.196 2.383-5.412 3.464-3.897 4.763-3.031 5.196-1.516h5.196l5.411 1.516 4.112 3.031 3.897 3.897 2.381 5.412 0.866 5.196v57.155zm0 51.741-0.866 5.197-2.164 4.762-3.464 3.896-3.897 3.031-4.979 1.946-5.196 0.22-4.979-0.867-4.763-2.599-4.113-3.682-2.381-4.33-1.299-4.762v-5.197l1.299-4.979 2.381-4.545 4.113-3.466 4.763-2.598 4.979-1.301 5.196 0.434 4.979 1.949 3.897 3.031 3.464 3.895 2.164 4.765 0.866 5.2zm-8.661 147h-21.436v-65.813l11.041 0.647 10.395-0.647v65.813zm139.64-336.43-46.546 46.547-7.361-8.011-8.01-7.361 46.33-46.546 15.587 15.371zm-46.546 222.99 46.546 46.979-15.587 14.939-46.33-46.33 8.01-7.578 7.361-8.01zm98.073-76.856h-66.248l0.648-11.042-0.648-11.258h66.248v22.3z" fill="#FFCE63"></path>
</svg>