<?xml version='1.0' encoding='utf-8'?>
<!-- Generator: Adobe Illustrator 16.0.0, SVG Export Plug-In . SVG Version: 6.00 Build 0)  --><svg xmlns="http://www.w3.org/2000/svg" xmlns:cc="http://creativecommons.org/ns#" xmlns:dc="http://purl.org/dc/elements/1.1/" xmlns:ns="&amp;ns_sfw;" xmlns:rdf="http://www.w3.org/1999/02/22-rdf-syntax-ns#" width="325px" height="425.2px" version="1.2" viewBox="258.44 85.042 325 425.2" xml:space="preserve">
<metadata>
	<ns:sfw>
		<ns:slices></ns:slices>
		<ns:sliceSourceBounds x="278.275" y="169.941" width="283.456" height="283.464" bottomLeftOrigin="true"></ns:sliceSourceBounds>
	</ns:sfw>
<rdf:RDF><cc:Work rdf:about=""><dc:format>image/svg+xml</dc:format><dc:type rdf:resource="http://purl.org/dc/dcmitype/StillImage"></dc:type><dc:title></dc:title></cc:Work></rdf:RDF></metadata>
<path d="m302.49 361.5c-7.818-11.407-13.705-23.607-17.666-36.6-3.961-12.991-5.996-26.404-6.1-40.243-0.106-14.364 1.847-28.254 5.862-41.67 4.013-13.413 9.981-25.984 17.904-37.709l16.161 10.616c-6.867 10.247-11.989 21.127-15.368 32.638-3.382 11.515-5.07 23.133-5.07 34.857s1.688 23.345 5.07 34.856c3.379 11.514 8.501 22.395 15.368 32.639l-16.161 10.616zm117.72 63.694c-13.943 0-27.544-1.98-40.798-5.942-13.257-3.96-25.643-9.902-37.155-17.823l10.616-16.319c10.244 6.867 21.124 12.013 32.638 15.447 11.512 3.431 23.132 5.149 34.857 5.149s23.343-1.691 34.856-5.07c11.512-3.382 22.444-8.501 32.798-15.369l10.456 16.162c-11.407 7.708-23.606 13.546-36.599 17.508-12.992 3.96-26.408 6.045-40.244 6.258h-1.425zm67.812-243.52c-10.247-6.865-21.127-12.015-32.64-15.448-11.514-3.431-23.131-5.149-34.856-5.149-11.724 0-23.37 1.718-34.936 5.149-11.566 3.434-22.474 8.531-32.718 15.29l-10.458-16.161c11.408-7.709 23.607-13.546 36.6-17.507 12.992-3.961 26.404-5.993 40.243-6.1 14.261-0.21 28.123 1.718 41.591 5.783 13.468 4.067 26.063 10.061 37.788 17.983l-10.614 16.16zm50.226 179.99-16.003-10.615c6.758-10.243 11.855-21.125 15.29-32.638 3.431-11.512 5.148-23.132 5.148-34.857s-1.718-23.342-5.148-34.857c-3.435-11.512-8.532-22.444-15.29-32.797l16.16-10.457c7.815 11.304 13.705 23.476 17.666 36.521 3.962 13.046 5.994 26.487 6.1 40.323 0.104 14.26-1.848 28.098-5.862 41.511-4.015 13.414-10.036 26.037-18.061 37.866z" fill="#000000"></path>
<path d="m515.54 253.55c0-1.032-0.893-1.806-2.675-2.323-1.784-0.515-3.567-0.774-5.35-0.774h-15.626c-1.597-2.721-3.097-4.973-4.505-6.757-1.407-1.782-2.487-3.144-3.238-4.083-0.47-0.844-1.104-1.805-1.899-2.885-0.799-1.078-1.644-2.134-2.534-3.167-0.893-1.032-1.76-2.017-2.604-2.957-0.845-0.937-1.596-1.641-2.252-2.112-1.126-1.218-2.16-2.415-3.098-3.589-0.939-1.173-2.042-2.228-3.308-3.167-1.267-0.937-2.864-1.759-4.787-2.463-1.924-0.704-4.482-1.243-7.672-1.619-8.635-0.75-15.955-1.196-21.96-1.337-6.008-0.141-10.699-0.211-14.078-0.211-3.286 0-8.073 0.07-14.358 0.211-6.289 0.141-13.422 0.587-21.397 1.337-3.474 0.471-6.219 1.056-8.235 1.76-2.02 0.703-3.639 1.526-4.857 2.463-1.22 0.939-2.206 1.97-2.957 3.097-0.752 1.126-1.597 2.301-2.533 3.519-1.221 1.316-2.724 2.957-4.506 4.927-1.783 1.971-3.895 4.459-6.334 7.461-0.658 1.689-1.597 3.309-2.816 4.857-1.221 1.548-2.207 3.122-2.956 4.716h-17.456c-0.47 0-1.034 0.071-1.689 0.211-0.658 0.141-1.337 0.33-2.042 0.563-0.704 0.236-1.291 0.542-1.759 0.916-0.471 0.376-0.703 0.845-0.703 1.408l-2.957 10.84c0 0.657 0.353 1.597 1.056 2.815 0.704 1.221 1.853 1.83 3.449 1.83h10.839c-0.281 0.939-0.751 2.372-1.408 4.294-0.658 1.924-1.196 4.482-1.619 7.672-0.421 3.191-0.586 7.017-0.493 11.473 0.093 4.458 0.705 9.644 1.831 15.556v28.014c0 3.191 1.595 4.786 4.786 4.786h19.99c3.189 0 4.787-1.595 4.787-4.786v-16.753h109.24v16.753c0 3.191 1.595 4.786 4.786 4.786h20.271c0.749 0 1.735-0.353 2.956-1.057 1.219-0.703 1.83-1.945 1.83-3.729v-28.014c1.126-5.912 1.665-11.122 1.619-15.627-0.049-4.504-0.376-8.351-0.986-11.543-0.611-3.189-1.337-5.747-2.182-7.671-0.845-1.923-1.455-3.309-1.83-4.153h12.388c0.374 0 0.821-0.187 1.338-0.563 0.515-0.374 1.032-0.796 1.549-1.267 0.515-0.468 0.961-0.985 1.337-1.548 0.374-0.563 0.563-0.985 0.563-1.267l-2.956-10.843zm-141.83-10.98c1.548-2.908 3.541-5.537 5.982-7.883 0.655 0 1.478-0.257 2.463-0.774 0.986-0.514 2.323-0.774 4.012-0.774 7.788-0.75 14.546-1.243 20.271-1.479 5.724-0.233 10.229-0.352 13.515-0.352h5.491c3.565 0 7.788 0.165 12.67 0.493 4.878 0.33 10.416 0.774 16.61 1.337 0.282 0 0.68 0.07 1.196 0.211 0.515 0.141 1.032 0.33 1.549 0.563 0.515 0.236 0.961 0.422 1.337 0.563 0.374 0.141 0.515 0.211 0.423 0.211 2.439 2.347 4.737 4.74 6.897 7.179 2.158 2.442 4.034 5.304 5.631 8.587h-102.9c1.69-2.344 3.308-4.972 4.858-7.882zm116.63 60.955h-139.93v-17.174h29.281v-15.767h-24.917c0-0.75 0.609-1.831 1.83-3.238 1.219-1.407 2.205-2.908 2.956-4.505h121.49c1.032 1.597 1.877 3.098 2.534 4.505 0.655 1.408 1.36 2.488 2.112 3.238h-24.495v15.767h29.14v17.174z" fill="#000000"></path>
</svg>