<?xml version='1.0' encoding='utf-8'?>
<!-- Generator: Adobe Illustrator 16.0.0, SVG Export Plug-In . SVG Version: 6.00 Build 0)  --><svg xmlns="http://www.w3.org/2000/svg" xmlns:cc="http://creativecommons.org/ns#" xmlns:dc="http://purl.org/dc/elements/1.1/" xmlns:ns="&amp;ns_sfw;" xmlns:rdf="http://www.w3.org/1999/02/22-rdf-syntax-ns#" width="656px" height="438px" version="1.2" viewBox="0 0 656 438" xml:space="preserve">
<metadata>
	<ns:sfw>
		<ns:slices></ns:slices>
		<ns:sliceSourceBounds x="125.345" y="144.76" width="592.1" height="323.196" bottomLeftOrigin="true"></ns:sliceSourceBounds>
	</ns:sfw>
<rdf:RDF><cc:Work rdf:about=""><dc:format>image/svg+xml</dc:format><dc:type rdf:resource="http://purl.org/dc/dcmitype/StillImage"></dc:type><dc:title></dc:title></cc:Work></rdf:RDF></metadata>
	<path d="m192.45 315.54h-93.602l-13.2 41.6h-52.801l93.601-281.6h42l92.401 281.6h-55.2l-13.199-41.6zm-18.001-55.999-28.8-90.798-28.801 90.798h57.601z" fill="#000000"></path>
	<path d="m379.04 48.544h51.601l-106.8 323.2h-51.602l106.8-323.2z" fill="#000000"></path>
	<path d="m413.44 216.34c0-82.399 43.2-145.6 105.6-145.6 62.398 0 98.101 53.199 105.3 113.6h-54.001c-6.3-25.6-23.102-49.599-50.102-49.599-34.801 0-52.801 36.399-52.801 81.599s17.7 81.601 52.801 81.601c29.399 0 44.102-20.399 51.302-51.199h53.398c-6.3 59.199-41.7 115.2-107.1 115.2-62.4-2e-3 -104.4-63.2-104.4-145.6z" fill="#000000"></path>
</svg>