<?xml version='1.0' encoding='utf-8'?>
<!-- Generator: Adobe Illustrator 16.0.0, SVG Export Plug-In . SVG Version: 6.00 Build 0)  --><svg xmlns="http://www.w3.org/2000/svg" xmlns:cc="http://creativecommons.org/ns#" xmlns:dc="http://purl.org/dc/elements/1.1/" xmlns:ns="&amp;ns_sfw;" xmlns:rdf="http://www.w3.org/1999/02/22-rdf-syntax-ns#" width="451px" height="386px" enable-background="new 0 0 451 386" version="1.1" viewBox="0 0 451 386" xml:space="preserve">
<metadata>
	<ns:sfw>
		<ns:slices></ns:slices>
		<ns:sliceSourceBounds x="217.498" y="195.968" width="406.005" height="223.063" bottomLeftOrigin="true"></ns:sliceSourceBounds>
	</ns:sfw>
<rdf:RDF><cc:Work rdf:about=""><dc:format>image/svg+xml</dc:format><dc:type rdf:resource="http://purl.org/dc/dcmitype/StillImage"></dc:type><dc:title></dc:title></cc:Work></rdf:RDF></metadata>
	<path d="m22.497 71.468h406v22.269h-97.133c-2.178 12.669-6.336 24.476-12.479 35.417-6.145 10.941-13.791 20.51-22.939 28.699-9.15 8.188-19.518 14.623-31.098 19.293-11.584 4.672-24.029 7.006-37.338 7.006-13.184 0-25.565-2.334-37.147-7.006-11.584-4.67-21.854-11.104-30.811-19.293-8.959-8.189-16.317-17.758-22.076-28.699-5.76-10.941-9.535-22.748-11.326-35.417h-103.66v-22.269zm15.358 106.16 77.36-44.151c1.022 3.33 2.561 6.623 4.607 9.886 2.046 3.264 4.157 6.56 6.335 9.886l-77.17 44.153-11.132-19.774zm72.755 81.395 44.15-77.17c3.456 2.178 6.782 4.317 9.982 6.432 3.197 2.111 8.769 5.189 9.555 5.449l-43.725 76.424-19.962-11.135zm196.57-165.28h-158.95c1.662 9.343 4.86 18.044 9.599 26.107 4.733 8.063 10.621 15.068 17.661 21.02 7.037 5.951 14.973 10.591 23.804 13.917 8.83 3.329 18.236 4.991 28.219 4.991 9.98 0 19.42-1.662 28.314-4.991 8.895-3.326 16.859-7.966 23.898-13.917 7.037-5.951 12.959-12.958 17.758-21.02s8.029-16.764 9.695-26.107zm-90.418 200.79v-90.416c1.023 1.027 19.709 1.027 21.885 0v90.416h-21.885zm105.77-22.265-44.15-77.17c1.426-0.521 6.271-2.688 9.535-4.732s6.906-4.031 10.234-6.209l44.344 77.361-19.963 10.75zm81.584-74.868-74.863-42.04c2.174-3.328 4.252-6.624 6.236-9.887 1.982-3.264 3.551-6.558 4.703-9.887l75.061 44.151-11.137 17.663z" fill="#000000"></path>
</svg>