<?xml version='1.0' encoding='utf-8'?>
<!-- Generator: Adobe Illustrator 16.0.0, SVG Export Plug-In . SVG Version: 6.00 Build 0)  --><svg xmlns="http://www.w3.org/2000/svg" xmlns:cc="http://creativecommons.org/ns#" xmlns:dc="http://purl.org/dc/elements/1.1/" xmlns:rdf="http://www.w3.org/1999/02/22-rdf-syntax-ns#" width="446px" height="425.2px" enable-background="new 0 0 446 425.2" version="1.1" viewBox="0 0 446 425.2" xml:space="preserve"><metadata><rdf:RDF><cc:Work rdf:about=""><dc:format>image/svg+xml</dc:format><dc:type rdf:resource="http://purl.org/dc/dcmitype/StillImage"></dc:type><dc:title></dc:title></cc:Work></rdf:RDF></metadata>
<path d="m271.79 247.86c0 45.989-37.283 83.272-83.279 83.272-45.99 0-83.271-37.283-83.271-83.272 0-45.998 37.281-83.28 83.271-83.28 45.995 0 83.279 37.282 83.279 83.28zm24.29-56.659c9.093-33.229-19.788-59.685-52.674-47.045-33.856 13.014-20.678 52.137-39.646 86.834 31.888 0 83.553-7.744 92.32-39.789z" fill="#000000"></path>
<path d="m270 125.77c19.25 0.542 40.31 20.642 41.695 39.991l117.5-118.6-39.649-40.252-119.54 118.86z" fill="#000000"></path>
<rect transform="matrix(.7071 .7071 -.7071 .7071 271.56 38.415)" x="81.035" y="317.07" width="16.75" height="59.822" fill="#000000"></rect>
<rect x="18.436" y="239.48" width="59.823" height="16.751" fill="#000000"></rect>
<rect x="298.79" y="239.48" width="59.822" height="16.751" fill="#000000"></rect>
<rect transform="matrix(.7071 -.7071 .7071 .7071 -78.978 106.78)" x="81.03" y="118.81" width="16.749" height="59.821" fill="#000000"></rect>
<rect transform="matrix(.7072 -.707 .707 .7072 -161.08 304.96)" x="279.27" y="317.05" width="16.75" height="59.82" fill="#000000"></rect>
<rect x="180.15" y="77.773" width="16.75" height="59.822" fill="#000000"></rect>
<rect x="180.15" y="358.11" width="16.75" height="59.819" fill="#000000"></rect>
</svg>