<?xml version='1.0' encoding='utf-8'?>
<!-- Generator: Adobe Illustrator 16.0.0, SVG Export Plug-In . SVG Version: 6.00 Build 0)  --><svg xmlns="http://www.w3.org/2000/svg" xmlns:cc="http://creativecommons.org/ns#" xmlns:dc="http://purl.org/dc/elements/1.1/" xmlns:rdf="http://www.w3.org/1999/02/22-rdf-syntax-ns#" width="152px" height="425.2px" version="1.2" viewBox="0 0 152 425.2" xml:space="preserve"><metadata><rdf:RDF><cc:Work rdf:about=""><dc:format>image/svg+xml</dc:format><dc:type rdf:resource="http://purl.org/dc/dcmitype/StillImage"></dc:type><dc:title></dc:title></cc:Work></rdf:RDF></metadata>
<path d="m142.09 286.89v-178.5-0.017c0-36.37-29.484-65.853-65.854-65.853-36.369 0-65.85 29.483-65.85 65.853v0.017 178.5h0.039c-0.012 0.527-0.039 1.053-0.039 1.582 0 36.369 29.482 65.856 65.85 65.856 36.367 0 65.854-29.487 65.854-65.856 0-0.529-0.029-1.055-0.041-1.582h0.041zm-65.966 33.386c-11.566 0-20.943-9.378-20.943-20.945 0-11.564 9.376-20.941 20.943-20.941s20.942 9.377 20.942 20.941c0 11.567-9.375 20.945-20.942 20.945zm0-206.98c-11.566 0-20.943-9.376-20.943-20.943s9.376-20.943 20.943-20.943 20.942 9.376 20.942 20.943c0 11.566-9.375 20.943-20.942 20.943z" fill="#000000"></path>
</svg>