<?xml version='1.0' encoding='utf-8'?>
<!-- Generator: Adobe Illustrator 16.0.0, SVG Export Plug-In . SVG Version: 6.00 Build 0)  --><svg xmlns="http://www.w3.org/2000/svg" xmlns:cc="http://creativecommons.org/ns#" xmlns:dc="http://purl.org/dc/elements/1.1/" xmlns:rdf="http://www.w3.org/1999/02/22-rdf-syntax-ns#" width="424px" height="425.2px" version="1.2" viewBox="0 0 424 425.2" xml:space="preserve"><metadata><rdf:RDF><cc:Work rdf:about=""><dc:format>image/svg+xml</dc:format><dc:type rdf:resource="http://purl.org/dc/dcmitype/StillImage"></dc:type><dc:title></dc:title></cc:Work></rdf:RDF></metadata>
<path d="m409.98 358.8c-0.708-2.359-2.895-6.756-4.099-8.891-0.05-0.074-0.148-0.248-0.199-0.322-23.059-36.582-88.459-148.67-88.459-148.67l-55.27-92.7-20.376-34.185s-6.605-11.138-8.816-14.851c-0.671-1.13-2.035-3.409-2.707-4.533-0.298-0.491-0.906-1.471-1.191-1.968-0.1-0.174-0.26-0.527-0.372-0.689-1.503-2.08-4.72-6.246-6.88-7.618-1.911-1.211-6.383-2.596-8.643-2.596-2.248 0-6.724 1.385-8.63 2.596-2.161 1.372-5.296 5.594-6.867 7.618-0.056 0.068-0.136 0.236-0.186 0.311-23.084 36.599-88.615 148.68-88.615 148.68l-55.275 92.756-20.29 34.172s-6.668 11.176-8.891 14.9c-0.677 1.117-2.03 3.402-2.713 4.52-0.298 0.498-0.913 1.467-1.198 1.963-0.1 0.174-0.286 0.521-0.373 0.694-1.074 2.161-3.346 6.481-4.035 8.816-0.565 1.888-1.167 5.886-1.192 7.872-0.019 1.365 0.316 4.099 0.689 5.414 0.248 0.869 0.968 2.607 1.515 3.328 1.037 1.414 3.731 3.75 5.234 4.644 1.626 0.944 5.265 2.11 7.109 2.509 2.602 0.571 7.935 0.795 10.592 0.92h0.323 337.54 5.228 2.322c0.187 0 0.584 0.023 0.771 0 3.663-0.248 11.126-0.796 14.564-2.063 2.073-0.77 5.948-3.153 7.426-4.793 1.043-1.143 2.334-4.073 2.781-5.563 0.235-0.771 0.323-2.385 0.372-3.179 0.013-0.299 0.025-0.919 0-1.217-0.148-1.985-0.619-5.983-1.191-7.871zm-351.86-10.654 154.85-263.7 154.78 263.7h-309.63z" fill="#000000"></path>
<path d="m170.08 280.62c1.471-1.144 3.042-2.187 4.42-3.402 27.554-24.586 55.083-49.223 82.636-73.777 1.143-1.024 2.521-1.813 3.713-2.657 6.816 4.924 7.265 8.45 0.993 13.417-20.303 15.98-40.853 31.627-61.136 47.621-7.755 6.107-15.112 12.738-22.481 19.295-1.472 1.342-2.186 3.502-3.253 5.291 0.459 0.348 0.906 0.694 1.359 1.043 10.722-6.606 21.438-13.238 32.154-19.818 20.823-12.814 41.647-25.629 62.495-38.381 5.924-3.613 6.209-3.479 8.494 3.688-3.104 1.838-6.346 3.727-9.549 5.612 0.074 0.174 0.148 0.348 0.248 0.521 2.596-1.142 5.092-2.582 7.799-3.326 2.508-0.695 5.201-0.672 7.834-0.969 0.162 0.545 0.336 1.092 0.521 1.613-1.963 1.117-3.838 2.334-5.836 3.277-33.365 15.795-66.768 31.516-100.08 47.408-1.918 0.896-3.129 3.229-4.824 4.719-1.223 1.068-2.645 2.359-4.085 2.51-0.77 0.074-2.533-2.111-2.502-3.254 0.068-3.551 0.764-7.104 1.223-10.654l-0.147 0.223zm143.73 21.407c-43.161 0.521-86.349 0.695-129.54 0.969h-7.103c1.235 1.144 2.583 1.217 3.824 1.615 1.385 0.446 3.098 0.818 3.955 1.838 3.632 4.32 4.743 4.32 7.251-0.521 3.216 0.225 6.476 0.447 9.741 0.671-0.229 0.321-0.459 0.62-0.689 0.918 1.701 1.466 3.415 2.905 5.954 5.042 0.217-2.73 0.316-3.85 0.453-5.538 41.349 4.173 82.512 8.319 123.68 12.44 0.124-0.893 0.236-1.762 0.385-2.655-11.722-8.345-26.188-3.478-39.896-6.481h33.552c-2.385-5.617-5.364-8.372-11.56-8.298zm-91.501-159.67c-17.837 39.803-35.632 79.613-53.426 119.46-0.41 0.92-0.516 1.963-0.764 2.955 1.272-0.795 1.869-1.838 2.489-2.855 13.193-21.953 26.182-44.024 39.679-65.786 7.847-12.634 16.576-24.748 24.722-37.196 0.745-1.148 0.212-3.147 0.263-4.756-1.479 0.745-3.392 1.124-4.348 2.297-2.271 2.806-4.109 5.973-6.122 9.009-6.27 9.45-12.528 18.893-18.805 28.342-0.354-0.218-0.714-0.422-1.068-0.64 8.635-17.26 17.241-34.526 26.008-52.04-5.662-3.804-6.408-3.736-8.628 1.212zm-61.715 133.62c1.161-6.854 2.303-13.709 3.489-20.588 3.93-22.6 4.52-45.757 11.573-67.828 0.521-1.633 0.795-3.384 0.894-5.104 0.378-6.141-2.291-9.245-9.424-10.549-0.447 2.248-1.093 4.526-1.323 6.842-1.875 18.93-3.663 37.885-5.476 56.821-0.323 3.377-0.906 6.061-5.277 6.854-3.868 0.695-8.27 8.221-6.966 10.928 2.304 4.719 5.786 2.012 8.94 1.117 0.267-0.1 0.627 0.124 0.975 0.225 1.148 6.979-2.986 14.18 0.397 21.034 0.739 0.074 1.472 0.148 2.198 0.248zm-11.008 30.051c-0.578-2.436-2.893-4.795-5.01-6.434-2.396-1.887-3.055-3.65-2.459-6.631 1.006-5.041-2.253-7.475-6.984-5.588-10.685 4.271-15.788 16.986-10.939 27.269 4.867 10.28 19.054 15.323 28.752 9.958 1.651-0.918 3.88-3.602 3.514-4.743-0.627-1.937-2.924-3.526-4.842-4.743-0.931-0.596-2.595-0.123-3.415-0.123 0.626-3.405 1.992-6.409 1.383-8.965zm93.992-115.54c-11.686 13.728-23.791 27.082-35.687 40.616-7.251 8.271-14.398 16.614-21.593 24.935 0.341 0.349 0.683 0.695 1.037 1.043 25.562-22.252 51.14-44.521 76.707-66.768-0.26-0.49-0.521-0.956-0.771-1.44-1.291-0.198-2.807-0.894-3.836-0.447-1.291 0.565-2.224 2.024-3.254 3.154-0.77 0.851-1.416 1.763-2.123 2.657-0.225-0.149-0.459-0.304-0.684-0.466 0.596-1.732 1.229-3.471 1.938-5.494-4.966-2.602-8.257-1.838-11.734 2.21zm50.811 78.217c-30.248 5.487-60.509 11.025-90.744 16.737-4.079 0.796-7.941 2.657-12.765 4.296 4.631 2.336 103.84-10.826 111.3-14.006-1.118-6.158-2.782-7.922-7.786-7.027zm-101.47 44.576c30.279 15.895 93.73 29.95 112.42 24.412-37.474-8.147-74.949-16.266-112.42-24.412zm12.678-16.043c38.3 1.217 76.621 2.434 115.65 3.65-1.315-5.389-3.042-7.674-7.5-7.201-4.806 0.521-9.673 0.721-14.528 0.795-28.781 0.372-57.564 0.695-86.361 1.018-2.396 0.025-4.792 0-7.2 0-0.014 0.572-0.033 1.142-0.058 1.738zm58.864-29.75c2.036-1.416 2.099-5.787 3.029-8.816-2.558-0.373-5.252-1.49-7.611-0.969-3.999 0.918-7.674 3.078-11.635 4.346-3.019 0.969-5.563 2.656-4.284 5.763 0.932 2.284 3.775 3.823 5.712 5.612 5.638-2.137 10.79-3.206 14.789-5.936zm-61.912 71.869c2.72 1.838 9.673 0.051 12.417-2.98-14.82-6.432-29.664-12.838-45.279-19.594 11.517 7.897 22.158 15.273 32.862 22.574zm0.248-183.56c-1.807 1.335-4.185 2.322-5.277 4.085-1.949 3.179-3.334 6.773-4.482 10.337-0.335 1.043 0.54 3.055 1.503 3.781 0.993 0.751 3.557 1.174 4.06 0.584 2.986-3.563 5.576-7.463 8.531-11.573-1.839-3.06-3.093-5.14-4.335-7.214zm29.927 29.553c-3.305 0.516-9.004 6.302-8.854 9.604 0.073 1.534 1.291 3.744 2.595 4.34 3.899 1.807 12.641-4.414 12.641-8.63-2e-3 -3.935-2.421-5.941-6.382-5.314zm-21.434 139.53c4.247 4.32 9.102 7.524 13.734 11.076 7.164 5.514 7.09 5.588 16.291 0.396-10.654-4.071-20.339-7.796-30.025-11.472zm-49.128-33.08c-3.824 1.49-6.991 7.451-5.538 11.375 0.385 1.068 3.353 2.385 3.688 2.086 2.967-2.855 5.606-6.01 7.462-8.07-0.347-5.539-2.123-6.756-5.612-5.391zm63.222 18.975c-1.688 1.018-3.229 2.285-4.816 3.452 1.861 1.392 3.638 2.955 5.638 4.099 0.731 0.422 2.16 0.174 3.017-0.25 2.224-1.092 4.31-2.482 6.444-3.75-2.233-1.316-4.47-2.656-6.729-3.924-0.26-0.148-0.67-0.049-1.278-0.049-0.587 0.124-1.581 0-2.276 0.422zm-83.077-28.982c-2.98-8.146-5.948-16.267-8.922-24.412-0.546 0.125-1.099 0.248-1.651 0.349-2.856 5.165 4.091 8.741 3.514 13.063-1.732 0.942-3.31 1.664-4.682 2.683-0.267 0.174 0.149 2.086 0.497 2.185 2.061 0.498 4.209 0.696 6.935 1.094 0.149 0.299 0.652 1.391 1.211 2.459 0.553 1.018 1.192 2.012 1.782 3.004 0.435-0.152 0.875-0.276 1.316-0.425zm6.252-16.215c-1.98 3.277-4.073 6.506-5.768 9.907-0.198 0.397 2.502 2.931 2.794 2.757 3.03-1.887 5.855-4.121 10.058-7.252-3.247-2.483-5.166-3.947-7.084-5.412zm-7.475-23.842c-0.845 0.918-2.49 1.912-2.421 2.756 0.608 7.699 1.534 15.373 2.366 23.071 0.397-0.024 0.801-0.073 1.204-0.101v-25.156c-0.385-0.198-0.758-0.372-1.149-0.57zm4.066 48.924c-0.515 0.645 0.162 3.377 1 3.824 3.737 1.986 10.827-0.373 13.646-4.421-3.917-2.435-12.392-2.187-14.646 0.597zm27.132-54.09c1.664-1.143 3.495-2.136 4.936-3.525 1.012-0.994 1.49-2.533 2.21-3.824-1.826 0-4.309-0.771-5.321 0.148-1.708 1.514-2.483 4.098-3.65 6.209 0.608 0.345 1.217 0.644 1.825 0.992zm-2.254 38.021c-1.105-0.373-3.408 1.713-4.681 3.078-0.602 0.646-0.081 2.385-0.062 3.602 1.645-0.271 3.297-0.546 4.942-0.869l-0.149 0.225c0.633-2.086 4.408-4.446-0.05-6.036zm2.868 53.071c-3.266-4.816-7.276-5.091-11.697 0h11.697z" fill="#000000"></path>
</svg>