<?xml version='1.0' encoding='utf-8'?>
<!-- Generator: Adobe Illustrator 16.0.3, SVG Export Plug-In . SVG Version: 6.00 Build 0)  --><svg xmlns="http://www.w3.org/2000/svg" xmlns:cc="http://creativecommons.org/ns#" xmlns:rdf="http://www.w3.org/1999/02/22-rdf-syntax-ns#" xmlns:dc="http://purl.org/dc/elements/1.1/" width="400.15px" height="425.2px" version="1.2" viewBox="0 0 400.15 425.2" xml:space="preserve"><metadata><rdf:RDF><cc:Work rdf:about=""><dc:format>image/svg+xml</dc:format><dc:type rdf:resource="http://purl.org/dc/dcmitype/StillImage"></dc:type><dc:title></dc:title></cc:Work></rdf:RDF></metadata>
<path d="m276.06 297.08c0 23.79-19.288 43.077-43.078 43.077s-43.076-19.287-43.076-43.077h86.154z" fill="#51F093"></path>
<path d="m92.024 233.11-71.842 45.721c-6.044 3.844-7.825 11.862-3.979 17.905 2.473 3.887 6.668 6.012 10.956 6.012 2.383 0 4.794-0.657 6.952-2.031l56.104-35.704c-2.448-9.55-1.84-20.402 1.809-31.903z" fill="#51F093"></path>
<path d="m323.79 230.13c-21.41-45.721-43.074-91.425-64.758-137.16-8.887-18.74-21.711-25.175-40.497-25.175-18.78 0-31.609 6.435-40.494 25.175-21.686 45.738-43.347 91.442-64.758 137.16-13.92 29.729-2.59 50.105 29.472 50.105h151.56c32.062 0 43.392-20.377 29.471-50.105z" fill="#51F093"></path>
<path d="m383.95 62.702c-3.846-6.044-11.862-7.825-17.908-3.979l-70.99 45.177c3.716 7.84 7.446 15.715 11.193 23.627l73.727-46.919c6.043-3.845 7.824-11.863 3.978-17.906z" fill="#51F093"></path>
</svg>