<?xml version='1.0' encoding='utf-8'?>
<!-- Generator: Adobe Illustrator 16.0.0, SVG Export Plug-In . SVG Version: 6.00 Build 0)  --><svg xmlns="http://www.w3.org/2000/svg" xmlns:cc="http://creativecommons.org/ns#" xmlns:ns="&amp;ns_sfw;" xmlns:rdf="http://www.w3.org/1999/02/22-rdf-syntax-ns#" xmlns:dc="http://purl.org/dc/elements/1.1/" width="472px" height="410px" enable-background="new 0 0 472 410" version="1.1" viewBox="0 0 472 410" xml:space="preserve">
<metadata>
	<ns:sfw>
		<ns:slices></ns:slices>
		<ns:sliceSourceBounds x="218.381" y="154.148" width="404.196" height="292.703" bottomLeftOrigin="true"></ns:sliceSourceBounds>
	</ns:sfw>
<rdf:RDF><cc:Work rdf:about=""><dc:format>image/svg+xml</dc:format><dc:type rdf:resource="http://purl.org/dc/dcmitype/StillImage"></dc:type><dc:title></dc:title></cc:Work></rdf:RDF></metadata>
	<path d="m33.881 202c0-27.995 5.003-54.347 15.015-79.055 10.005-24.705 24.319-46.437 42.937-65.196l27.717 27.926c-7.421 7.001-14.104 14.803-20.052 23.412-5.952 8.609-11.061 17.885-15.328 27.821-4.271 9.94-7.56 20.368-9.869 31.286s-3.465 22.188-3.465 33.806c0 23.238 4.337 44.619 13.021 64.146 8.679 19.523 20.577 36.85 35.693 51.967l-25.406 27.717c-19.878-18.615-34.894-40.242-45.039-64.881-10.151-24.636-15.224-50.951-15.224-78.949zm55.643 0c0-20.438 3.813-39.508 11.442-57.218 7.63-17.707 18.021-33.208 31.183-46.509 13.156-13.297 28.661-23.727 46.51-31.286 17.848-7.559 36.85-11.339 57.007-11.339 13.576 0 26.633 1.752 39.16 5.25 12.525 3.5 24.215 8.366 35.065 14.593 10.846 6.23 20.751 13.789 29.711 22.677 8.956 8.892 16.552 18.792 22.781 29.712 6.228 10.918 11.093 22.645 14.594 35.17 3.497 12.529 5.249 25.512 5.249 38.948 0 13.439-1.752 26.424-5.249 38.951-3.501 12.529-8.366 24.182-14.594 34.959-6.229 10.781-13.825 20.613-22.781 29.502-8.96 8.891-18.865 16.555-29.711 22.992-10.854 6.438-22.54 11.373-35.065 14.803-12.527 3.434-25.584 5.146-39.16 5.146-13.301 0-26.213-1.713-38.738-5.146-12.528-3.43-24.22-8.363-35.064-14.803-10.85-6.439-20.754-14.104-29.711-22.992-8.96-8.889-16.555-18.721-22.781-29.502-6.229-10.777-11.097-22.43-14.594-34.959-3.505-12.525-5.254-25.511-5.254-38.949zm23.307 0c0 11.199 1.436 21.979 4.304 32.336 2.868 10.359 7.034 20.123 12.494 29.291 5.459 9.17 11.934 17.531 19.422 25.092 7.487 7.561 15.817 14.035 24.987 19.424 9.167 5.391 18.966 9.521 29.396 12.389 10.426 2.871 21.171 4.305 32.229 4.305 11.341 0 22.224-1.434 32.65-4.305 10.427-2.867 20.19-6.998 29.291-12.389 9.098-5.389 17.428-11.863 24.987-19.424s14.029-15.922 19.422-25.092c5.388-9.168 9.554-18.932 12.493-29.291 2.938-10.355 4.407-21.137 4.407-32.336 0-16.937-3.255-32.86-9.764-47.771-6.51-14.907-15.364-27.926-26.562-39.055-11.201-11.127-24.288-19.979-39.269-26.562-14.979-6.578-30.865-9.869-47.663-9.869-16.659 0-32.439 3.291-47.349 9.869-14.908 6.582-27.962 15.433-39.16 26.562-11.2 11.129-20.052 24.147-26.563 39.055-6.498 14.911-9.752 30.835-9.752 47.771zm34.646 39.476h-18.27l25.196-90.5h23.518l25.408 90.5h-20.997l-4.41-20.998h-25.825l-4.62 20.998zm27.926-34.857-9.028-37.166-9.449 37.166h18.477zm69.92 34.857h-32.545v-90.5h32.545c3.36 0 6.614 0.351 9.767 1.05 3.147 0.702 5.844 1.926 8.084 3.675 2.235 1.752 4.059 4.063 5.46 6.93 1.396 2.87 2.1 6.687 2.1 11.443 0 11.758-4.691 18.688-14.068 20.787 5.882 1.258 10.079 3.747 12.602 7.454 2.52 3.711 3.778 9.063 3.778 16.063 0 5.184-1.121 9.313-3.358 12.391-2.241 3.079-4.901 5.391-7.979 6.93-3.078 1.543-6.125 2.557-9.134 3.045-3.019 0.487-5.433 0.732-7.252 0.732zm-14.068-76.641v23.098h11.76c2.234 0 4.338-0.735 6.3-2.205 1.958-1.471 2.939-4.584 2.939-9.344 0-3.498-1.053-6.3-3.149-8.399-2.101-2.101-4.902-3.149-8.399-3.149h-9.451v-1e-3zm0 37.165v25.615h9.448c1.263 0 2.657-0.068 4.199-0.209 1.539-0.139 3.009-0.561 4.41-1.26 1.397-0.699 2.624-1.893 3.674-3.57s1.575-3.988 1.575-6.928c0-9.102-4.619-13.648-13.858-13.648h-9.448zm108.98 13.649c0 6.02-0.912 10.744-2.729 14.172-1.821 3.432-4.167 5.984-7.034 7.664-2.871 1.68-6.126 2.766-9.767 3.256-3.643 0.49-7.212 0.734-10.709 0.734-5.601 0-10.22-0.699-13.855-2.104-3.645-1.396-6.479-3.287-8.504-5.668-2.03-2.379-3.396-5.283-4.097-8.715-0.699-3.428-1.051-7.244-1.051-11.443h18.479c0 1.684 0.174 3.5 0.521 5.459 0.351 1.965 0.909 3.746 1.683 5.355 0.768 1.609 1.923 2.938 3.465 3.988 1.538 1.051 3.429 1.572 5.669 1.572 3.639 0 6.158-1.051 7.56-3.146 1.397-2.104 2.103-4.898 2.103-8.398 0-2.799-0.945-5.178-2.835-7.141-1.893-1.957-4.199-3.779-6.932-5.459-2.729-1.68-5.706-3.428-8.924-5.248-3.222-1.818-6.229-3.918-9.027-6.3-2.804-2.378-5.11-5.146-6.931-8.294-1.819-3.149-2.729-7.104-2.729-11.863 0-3.498 0.485-6.788 1.47-9.869 0.978-3.078 2.624-5.738 4.934-7.979 2.313-2.238 5.391-4.022 9.239-5.354 3.851-1.329 8.782-1.995 14.803-1.995 8.117 0 14.351 2.241 18.688 6.719 4.338 4.481 6.51 11.412 6.51 20.787h-18.268c0-3.498-0.702-6.683-2.103-9.554-1.398-2.868-3.921-4.305-7.56-4.305-3.501 0-5.879 0.944-7.139 2.835-1.263 1.89-1.893 4.025-1.893 6.404 0 3.08 0.908 5.668 2.729 7.769 1.814 2.101 4.094 4.026 6.821 5.774 2.729 1.752 5.702 3.432 8.927 5.039 3.218 1.61 6.19 3.537 8.924 5.772 2.729 2.242 5.003 4.938 6.823 8.084 1.827 3.157 2.739 6.973 2.739 11.452zm39.684-157.9c8.681 9.521 16.555 19.737 23.622 30.656 7.066 10.918 13.192 22.434 18.372 34.541 5.181 12.109 9.167 24.85 11.972 38.215 2.799 13.37 4.196 26.98 4.196 40.839s-1.397 27.477-4.196 40.84c-2.805 13.369-6.791 26.109-11.972 38.219-5.18 12.105-11.306 23.619-18.372 34.538-7.067 10.921-14.941 20.995-23.622 30.235l-27.717-27.717c15.118-15.119 26.981-32.441 35.592-51.969 8.607-19.527 12.912-40.908 12.912-64.146 0-23.516-4.305-44.933-12.912-64.25s-20.474-36.673-35.592-52.073l27.717-27.928z" fill="#FFCE63"></path>
</svg>