<?xml version='1.0' encoding='utf-8'?>
<!-- Generator: Adobe Illustrator 22.1.0, SVG Export Plug-In . SVG Version: 6.00 Build 0)  --><svg xmlns="http://www.w3.org/2000/svg" xmlns:cc="http://creativecommons.org/ns#" xmlns:rdf="http://www.w3.org/1999/02/22-rdf-syntax-ns#" xmlns:dc="http://purl.org/dc/elements/1.1/" version="1.2" viewBox="0 0 456 444" xml:space="preserve" width="410.81082" height="400.0"><metadata><rdf:RDF><cc:Work rdf:about=""><dc:format>image/svg+xml</dc:format><dc:type rdf:resource="http://purl.org/dc/dcmitype/StillImage"></dc:type><dc:title></dc:title></cc:Work></rdf:RDF></metadata>
<path d="m178.7 161.9-46.9-1.1-45.8-2.3-7.6-1.2-7.3-3.2-5.9-4.6-5.2-5.9-3.6-6.9-2.1-7.5-2.7-31.6v-32l2.7-31.6 2.1-7.6 3.6-6.9 5.2-5.9 5.8-4.5 7.3-3.2 7.6-1.2 69.8-2.8 69.5-2.1 76.9 0.9 76.6 2.3 5.5 0.9 5.3 2.1 4.4 3.2 3.7 4.3 2.5 5 1.6 5.5 3.2 38.4v38.7l-3.2 38.4-1.6 5.3-2.5 5-3.7 4.4-4.4 3.4-5.3 2.1-5.5 0.7-25.4 1.1-26.3 0.2-17.2-9.1-13.3-7.8-11.5-10.1-29.3 0.4-29.3 0.2-14.4 9.6-15.5 8.4-17.8 8.6zm203.8-25.1 3.2-36.8v-37l-3.2-37-1.4-2.8-2.8-1.2-26.4-1-25.9-0.9-2.3-1.6-2.8-0.7-66.6-1.2-66.5 0.2-3.4 0.7-3 1.6-46.7 0.9-46.9 1.4-6.4 2-5 4.3-2.5 6.3-2.7 23.6-0.9 24 0.9 24 2.7 23.6 2.5 6 5 4.6 6.4 1.8 41.4 1.2 41.2 0.9 3.6-0.4 3.2-0.9 14.9-6 13.9-7.8 12.8-9.2 2.3-0.9 2.1-0.5 32.9-0.2 33-0.4 2.8 0.7 2.7 1.8 9.2 8.9 10.7 7.1 11.9 5.3 4.1 1.1 4.4 0.2 21.7-0.7 21.7-0.9 2.8-1.1 1.4-3zm-190.5-14.2-18.8 7.8-4.1 0.2-3.2-2.1-2.1-3.6-2.8-21.5-1.2-21.9 1.2-22 2.8-21.5 2.1-3.6 3.2-2 4.1 0.2 18.8 7.6 17.1 10.8 0.9 1.1v1.2l-2.1 27.9 2.1 28.3v1.1l-0.9 1.1-17.1 10.9zm106.4 90.7-6.9 11.2-7.3 10.7-0.9 0.7-1.2-0.4-47.4-29.3-46.6-30.7-1.8-2.5v-3l3-5.2 4.1-4.1 5.5-2.5 5.7-0.7h8.5l41.8 27.5 43 26.1 0.7 1.1-0.2 1.1zm12-183.8 1.6 1.6-1.1 2-21.9 13.8-33.6-0.4-33-0.2-23.8-14-0.9-2.3 1.8-1.6h55.3l55.6 1.1zm25.5 99.3-11.7-6.2-11.4-6.6-0.9-1.2-0.2-1.2 2-21.3v-21.6l-2-21.1 0.2-1.4 0.9-1.1 11.4-6.8 11.7-6.2 3.4-0.5 3.2 0.7 2.3 2.1 1.6 3.4 2.8 27.5v28.3l-2.8 27.7-1.6 3.2-2.3 2.1-3.2 0.9-3.4-0.7z" fill="#FFCE63"></path>
<path d="m34.2 347.6c0-54.3 35-96.4 76.3-96.4s76.3 41.9 76.3 96.4-35 96.4-76.3 96.4-76.3-41.9-76.3-96.4zm116.8 0c0-30.2-18.7-54-40.5-54-21.9 0-40.5 24.4-40.5 54 0 30.2 18.7 54 40.5 54 21.9 0 40.5-23.8 40.5-54z" fill="#FFCE63"></path>
<path d="m234.5 295.6v38.2h63.6v39.2h-63.6v67.8h-34.2v-186.5h103.3v41.3h-69.1z" fill="#FFCE63"></path>
<path d="m351.3 295.6v38.2h63.6v39.2h-63.6v67.8h-34.2v-186.5h103.3v41.3h-69.1z" fill="#FFCE63"></path>
</svg>