<?xml version='1.0' encoding='utf-8'?>
<!-- Generator: Adobe Illustrator 16.0.0, SVG Export Plug-In . SVG Version: 6.00 Build 0)  --><svg xmlns="http://www.w3.org/2000/svg" xmlns:cc="http://creativecommons.org/ns#" xmlns:dc="http://purl.org/dc/elements/1.1/" xmlns:rdf="http://www.w3.org/1999/02/22-rdf-syntax-ns#" width="554px" height="425.2px" enable-background="new 0 0 554 425.2" version="1.1" viewBox="0 0 554 425.2" xml:space="preserve"><metadata><rdf:RDF><cc:Work rdf:about=""><dc:format>image/svg+xml</dc:format><dc:type rdf:resource="http://purl.org/dc/dcmitype/StillImage"></dc:type><dc:title></dc:title></cc:Work></rdf:RDF></metadata>
<g fill="#1D1D1B">
	<path d="m108.79 418.11c-49.51 0-89.788-40.277-89.788-89.787s40.278-89.785 89.788-89.785c49.507 0 89.786 40.275 89.786 89.785 0 49.508-40.28 89.787-89.786 89.787zm0-151.48c-34.016 0-61.692 27.675-61.692 61.691 0 34.018 27.676 61.69 61.692 61.69s61.692-27.675 61.692-61.69c0-34.016-27.676-61.691-61.692-61.691z" fill="#000000"></path>
	
		<rect transform="matrix(-.7071 -.7071 .7071 -.7071 -46.439 637.4)" x="94.743" y="219.46" width="28.094" height="217.7" fill="#000000"></rect>
	<path d="m315.5 7.098c-105.73 0-193.61 74.314-215.16 173.44 2.845-0.142 5.598-0.852 8.445-0.852 82.005 0 148.64 66.672 148.64 148.62 0 17.464-3.704 33.93-9.301 49.399h227.79c36.922-39.387 59.984-91.967 59.984-150.24 0-121.77-98.707-220.38-220.38-220.38l-0.014 0.01zm42.617 272.72-22.496-23.585c-4.648 1.66-9.488 2.939-14.615 2.939-23.635 0-42.711-19.121-42.711-42.709 0-5.931 1.139-11.578 3.417-16.705l-99.942-104.54 11.011-11.011 103.16 98.565c7.119-5.316 15.475-9.018 25.059-9.018 23.537 0 42.709 19.125 42.709 42.71 0 8.826-3.414 16.609-7.973 23.395l21.641 20.691-19.265 19.269z" fill="#000000"></path>
</g>
</svg>