<?xml version='1.0' encoding='utf-8'?>
<!-- Generator: Adobe Illustrator 27.2.0, SVG Export Plug-In . SVG Version: 6.00 Build 0)  --><svg xmlns:cc="http://creativecommons.org/ns#" xmlns="http://www.w3.org/2000/svg" xmlns:rdf="http://www.w3.org/1999/02/22-rdf-syntax-ns#" xmlns:dc="http://purl.org/dc/elements/1.1/" xmlns:xlink="http://www.w3.org/1999/xlink" version="1.2" baseProfile="tiny" id="Vrstva_1" x="0px" y="0px" viewBox="0 0 372 425.2" overflow="visible" xml:space="preserve" width="349.95294" height="400.0">
<path d="M40.7,198.4c0-69.7,49.3-128,114.8-142.1v-35C70.9,35.9,6.3,109.7,6.3,198.4c0,88.7,64.6,162.6,149.2,177.1v-35  C90,326.4,40.7,268.1,40.7,198.4L40.7,198.4z" fill="#51F093"></path>
<path d="M365.6,198.4c0-88.9-64.9-162.9-149.9-177.2v35c65.9,13.8,115.5,72.3,115.5,142.2c0,69.9-49.6,128.4-115.5,142.2v35  C300.7,361.4,365.6,287.3,365.6,198.4L365.6,198.4z" fill="#51F093"></path>
<path d="M226.5,160.7h-15.8v-45h-10.8v45h-28.5v-45h-10.8v45h-15.2v39.6c0,0-0.7,33.7,31.7,38.9v60.9h17.1v-60.8  c33.2-4.9,32.2-39,32.2-39L226.5,160.7z" fill="#51F093"></path>
</svg>