<?xml version='1.0' encoding='utf-8'?>
<!-- Generator: Adobe Illustrator 16.0.0, SVG Export Plug-In . SVG Version: 6.00 Build 0)  --><svg xmlns="http://www.w3.org/2000/svg" xmlns:cc="http://creativecommons.org/ns#" xmlns:dc="http://purl.org/dc/elements/1.1/" xmlns:ns0="&amp;ns_sfw;" xmlns:rdf="http://www.w3.org/1999/02/22-rdf-syntax-ns#" width="231px" height="217.21px" enable-background="new 0 0 231 217.21" version="1.1" viewBox="0 0 231 217.21" xml:space="preserve">
<metadata>
	<rdf:RDF>
		<cc:Work rdf:about="">
			<dc:format>image/svg+xml</dc:format>
			<dc:type rdf:resource="http://purl.org/dc/dcmitype/StillImage"></dc:type>
			<dc:title></dc:title>
		</cc:Work>
	</rdf:RDF>
	<ns0:sfw>
		<ns0:slices></ns0:slices>
		<ns0:sliceSourceBounds x="333.19" y="222.947" width="174.777" height="157.105" bottomLeftOrigin="true"></ns0:sliceSourceBounds>
	</ns0:sfw>
</metadata>
<path d="m56.96 100.23h-28.77v-9.965h28.77c-0.184 1.119-0.496 4.307-0.496 4.933-1e-3 0.938 0.312 4.186 0.496 5.032zm12.691-43.53-19.742-19.648 7.05-7.052 19.649 19.837c-1.067 0.878-2.08 1.82-3.354 3.006-1.243 1.158-2.374 2.542-3.603 3.857zm7.991 83.862-21.2 20.656-6.533-6.836 20.776-20.684c0.939 1.565 1.942 2.869 3.01 3.901 1.063 1.037 2.381 2.023 3.947 2.963zm-9.965-45.221c0-4.514 0.596-8.837 1.785-12.975 1.191-4.137 2.837-8.006 4.938-11.612 2.098-3.604 4.572-6.846 7.428-9.73 2.85-2.882 6.031-5.326 9.542-7.333v-27.64h48.325v27.641c3.57 2.007 6.8 4.451 9.683 7.333 2.885 2.884 5.392 6.126 7.521 9.73 2.131 3.605 3.763 7.475 4.892 11.612 1.127 4.137 1.69 8.46 1.69 12.975 0 6.646-1.271 12.896-3.809 18.756-2.537 5.861-5.971 10.986-10.297 15.373-4.322 4.387-9.338 7.834-15.039 10.34-5.705 2.51-11.814 3.764-18.335 3.764-6.833 0-13.224-1.254-19.179-3.764-5.955-2.506-11.092-5.953-15.418-10.34-4.325-4.387-7.693-9.512-10.106-15.373-2.417-5.86-3.621-12.11-3.621-18.757zm8.931 0c0 5.328 1.033 10.342 3.104 15.043s4.889 8.76 8.461 12.174c3.573 3.416 7.756 6.129 12.551 8.135s9.887 3.008 15.276 3.008c5.203 0 10.14-1.002 14.808-3.008 4.67-2.006 8.773-4.719 12.316-8.135 3.539-3.414 6.328-7.473 8.365-12.174 2.035-4.701 3.057-9.715 3.057-15.043 0-5.266-1.021-10.215-3.057-14.854-2.037-4.638-4.826-8.744-8.365-12.316-3.543-3.573-7.646-6.378-12.316-8.416-4.668-2.035-9.604-3.055-14.808-3.055-5.39 0-10.481 1.02-15.276 3.055-4.795 2.038-8.978 4.843-12.551 8.416-3.572 3.572-6.393 7.678-8.461 12.316-2.07 4.639-3.104 9.589-3.104 14.854zm24.631-59.324v13.82c4.891-2.003 9.811-3.007 14.761-3.007 2.632 0 4.983 0.267 7.052 0.799 2.066 0.532 4.354 1.269 6.863 2.208v-13.82h-28.676zm18.805 118.37v28.77h-9.025v-28.77h9.025zm34.502-104.55 19.744-19.837 6.957 7.052-20.684 19.648c-0.805-1.326-1.854-2.544-2.961-3.826-1.097-1.272-2.054-2.159-3.056-3.037zm6.017 83.861 20.685 20.685-6.472 6.461-20.229-20.281c1.002-0.939 2.521-2.143 3.521-3.428 1.001-1.286 1.583-2.167 2.495-3.437zm13.728-43.433h28.676v9.965h-28.676c0.351-1.514 0.657-2.969 0.61-4.803-0.05-2-0.25-3.693-0.61-5.162z" fill="#000000"></path>
</svg>