<?xml version='1.0' encoding='utf-8'?>
<!-- Generator: Adobe Illustrator 27.2.0, SVG Export Plug-In . SVG Version: 6.00 Build 0)  --><svg xmlns="http://www.w3.org/2000/svg" xmlns:xlink="http://www.w3.org/1999/xlink" version="1.1" id="Vrstva_1" x="0px" y="0px" viewBox="0 0 400 425.2" style="enable-background:new 0 0 400 425.2;" xml:space="preserve" width="376.2935" height="400.0">
<style type="text/css">
	.st0{fill-rule:evenodd;clip-rule:evenodd;fill:#222221;}
	.st1{fill:#222221;}
</style>
<g>
	<g>
		<path class="st0" d="M386.6,8.1c5.4,24.6,8.6,55.6,6.4,93.1c-3.3,44.9-15,82.4-31.1,118.7h-23.5c17.1-37.5,28.9-74.8,32.1-120.8    c2.1-37.5-1.1-68.4-7.5-90.9C362.9,8.1,386.6,8.1,386.6,8.1z M296.8,8.1c-2.1,16.1-7.5,31.1-16.1,46c-15,24.6-39.6,48.2-73.8,73.8    c-46,35.3-103.7,67.4-150.8,90.9H8c52.4-24.6,128.3-63.1,187.1-108c34.2-26.8,55.6-47,68.4-68.4c6.4-10.7,10.7-22.5,12.8-35.3    h20.4V8.1z"></path>
		<path class="st0" d="M339.5,8.1c0,15-1.1,31.1-4.3,47h-21.4c3.3-16.1,4.3-32.1,4.3-47H339.5z M226.2,218.8    c18.2-16.1,34.2-33.2,50.3-52.4h-27.8c-17.1,20.4-35.3,37.5-55.6,52.4H226.2z M305.3,81.9h22.5c-5.4,14-12.8,28.9-23.5,44.9    c-2.1,3.3-4.3,5.4-5.4,8.6h-25.7c4.3-6.4,9.7-12.8,14-20.4C295.6,103.3,301,92.6,305.3,81.9z"></path>
	</g>
	<g>
		<path class="st1" d="M88.3,272.2h20.4v116.6H88.3v-64.1l-24.6,64.1H48.8l-24.6-63.1v63.1H2.8V272.2h20.4l33.1,84.4L88.3,272.2z"></path>
		<path class="st1" d="M171.6,389.8c-10.7,0-19.2-2.1-27.8-7.5c-7.5-5.4-14-12.8-18.2-21.4c-4.3-9.7-6.4-19.2-6.4-31.1    c0-11.8,2.1-21.4,6.4-31.1c4.3-9.7,9.7-16.1,18.2-21.4c7.5-5.4,17.1-7.5,27.8-7.5c10.7,0,19.2,2.1,27.8,7.5    c7.5,5.4,14,12.8,18.2,21.4s6.4,19.2,6.4,31.1c0,11.8-2.1,21.4-6.4,31.1s-9.7,16.1-18.2,21.4C192,387.7,182.3,389.8,171.6,389.8z     M171.6,369.5c6.4,0,11.8-1.1,15-4.3c4.3-3.3,7.5-7.5,9.7-14c2.1-5.4,3.3-12.8,3.3-20.4c0-11.8-2.1-21.4-7.5-28.9    c-4.3-7.5-11.8-10.7-20.4-10.7c-6.4,0-10.7,2.1-15,5.4c-4.3,3.3-7.5,7.5-9.7,14c-2.1,5.4-3.3,12.8-3.3,20.4s1.1,15,3.3,20.4    c2.1,5.4,5.4,10.7,9.7,14C161,367.4,166.4,369.5,171.6,369.5z"></path>
		<path class="st1" d="M269,272.2c10.7,0,19.2,2.1,26.8,7.5c7.5,4.3,14,11.8,18.2,20.4c4.3,8.6,6.4,19.2,6.4,31.1    s-2.1,21.4-6.4,29.9c-4.3,8.6-10.7,16.1-18.2,20.4c-7.5,5.4-17.1,7.5-27.8,7.5h-33.2V272.2H269z M267.9,367.4    c9.7,0,17.1-3.3,22.5-9.7c5.4-6.4,7.5-16.1,7.5-27.8c0-11.7-2.1-21.4-7.5-27.8c-5.4-6.4-12.8-9.7-22.5-9.7h-9.7v74.8h9.7V367.4z"></path>
		<path class="st1" d="M353.4,339.5v28.9h43.9v20.4H331V272.2h65.3v20.3h-42.8v27.8H392v19.2L353.4,339.5L353.4,339.5z"></path>
	</g>
</g>
</svg>