<?xml version='1.0' encoding='utf-8'?>
<!-- Generator: Adobe Illustrator 16.0.3, SVG Export Plug-In . SVG Version: 6.00 Build 0)  --><svg xmlns="http://www.w3.org/2000/svg" xmlns:cc="http://creativecommons.org/ns#" xmlns:dc="http://purl.org/dc/elements/1.1/" xmlns:rdf="http://www.w3.org/1999/02/22-rdf-syntax-ns#" width="885.49px" height="425.2px" version="1.2" viewBox="0 0 885.49 425.2" xml:space="preserve"><metadata><rdf:RDF><cc:Work rdf:about=""><dc:format>image/svg+xml</dc:format><dc:type rdf:resource="http://purl.org/dc/dcmitype/StillImage"></dc:type><dc:title></dc:title></cc:Work></rdf:RDF></metadata>
	<path d="m23.325 305.89c12.696 2.056 23.641 3.527 32.933 4.414 9.284 0.888 18.744 1.229 28.361 1.229 16.026 0 28.724-0.955 38.093-3.246 9.424-2.095 16.526-5.299 21.353-9.212 4.847-4.108 7.955-9.128 9.341-15.057 1.413-6.123 2.078-12.917 2.078-20.375 0-7.014-0.634-12.657-1.914-17.133-1.247-4.675-3.908-8.828-7.982-12.657-4.047-3.831-9.769-7.658-17.133-11.452-7.377-3.812-17.138-8.339-29.364-13.66l-25.116-10.742c-11.207-4.757-20.563-9.494-28.197-14.21-7.638-4.716-13.756-9.876-18.463-15.479-4.717-5.602-8.101-11.831-10.122-18.885-1.996-6.954-3.02-15.097-3.02-24.529 0-12.23 1.795-22.595 5.484-31.276 3.686-8.59 9.456-15.665 17.384-21.128 7.848-5.461 18.049-9.452 30.631-11.972 12.591-2.519 27.73-3.83 45.538-3.83 11.415 0 22.609 0.584 33.525 1.753 10.913 1.101 20.339 2.681 28.183 4.736l-4.962 26.707c-3.771-0.825-8.125-1.449-12.918-1.916-4.855-0.563-9.678-1.007-14.476-1.329-4.852-0.423-9.535-0.7-14.107-0.811-4.576-0.076-8.763-0.198-12.568-0.198-12.969 0-23.949 0.585-32.959 1.754-9.016 1.168-16.332 3.128-21.932 6.066-5.593 2.943-9.617 6.913-12.153 11.812-2.571 4.998-3.812 11.227-3.812 18.885 0 7.378 1.021 13.465 3.035 18.463 2.005 4.998 5.224 9.292 9.522 12.979 4.294 3.689 9.852 7.096 16.549 10.219 6.767 3.226 14.917 6.752 24.598 10.481l29.333 12.234c11.697 4.857 21.342 9.616 28.97 14.47 7.596 4.859 13.586 10.068 17.88 15.802 4.327 5.673 7.377 12.147 9.151 19.471 1.773 7.136 2.661 15.619 2.661 24.852 0 12.334-1.276 23.037-3.805 32.71-2.545 9.474-7.508 17.478-14.87 24.206-7.332 6.534-17.646 11.551-30.869 15.026-13.175 3.337-30.324 5.091-51.399 5.091-12.446 0-24.815-0.633-37.176-2.075-12.287-1.451-22.768-3.246-31.417-5.584l6.131-26.604z" fill="#000000"></path>
	<path d="m230.92 185.44c0-24.368 2.444-44.765 7.234-61.293 4.825-16.526 11.922-29.808 21.353-39.847 9.366-10.037 20.735-17.132 34.104-21.285 13.303-4.251 28.639-6.328 45.914-6.328 12.135 0 23.642 0.727 34.427 2.077 10.782 1.451 19.911 3.244 27.29 5.582l-4.999 27.029c-8.404-2.055-17.436-3.407-27.19-4.156-9.849-0.835-19.351-1.165-28.781-1.165-12.417 0-23.603 1.613-33.357 4.737-9.756 3.225-17.989 8.547-24.529 15.968-6.632 7.515-11.705 17.531-15.282 29.946-3.563 12.417-5.347 28.056-5.347 46.821v29.778c0 18.776 1.743 34.417 5.15 46.832 3.434 12.418 8.545 22.434 15.233 29.85 6.754 7.617 14.931 12.939 24.614 15.965 9.614 3.225 20.819 4.936 33.519 4.936 11.388 0 21.869-0.563 31.443-1.689 9.473-0.93 18.319-2.098 26.443-3.308l4.576 27.45c-7.378 2.057-16.669 3.588-27.775 4.816-11.207 1.392-23.018 1.997-35.433 1.997-17.274 0-32.611-2.075-45.914-6.228-13.369-4.354-24.737-11.447-34.104-21.486-9.431-10.036-16.528-23.313-21.353-39.646-4.79-16.526-7.234-37.117-7.234-61.392v-25.961z" fill="#000000"></path>
	<path d="m515.95 61.268h41.923l90.66 274.22h-33.296l-23.101-72.358h-110.45l-23.299 72.358h-32.775l90.336-274.22zm20.963 29.365-46.6 145.05h92.998l-46.077-145.05h-0.321z" fill="#000000"></path>
	<path d="m683.96 61.268h33.82l112.07 201.53c1.771 3.267 3.264 6.188 4.475 8.565 1.338 2.381 2.502 4.698 3.508 6.753 0.924 2.137 1.813 4.151 2.66 5.643h0.773v-222.49h30.054v274.22h-34.335l-111.16-200.26c-3.556-6.167-6.39-11.346-8.444-15.641-0.929-2.337-2.057-4.434-2.983-6.491h-0.384v222.4h-30.054v-274.21z" fill="#000000"></path>
</svg>