<?xml version='1.0' encoding='utf-8'?>
<!-- Generator: Adobe Illustrator 16.0.0, SVG Export Plug-In . SVG Version: 6.00 Build 0)  --><svg xmlns="http://www.w3.org/2000/svg" xmlns:cc="http://creativecommons.org/ns#" xmlns:ns="&amp;ns_sfw;" xmlns:rdf="http://www.w3.org/1999/02/22-rdf-syntax-ns#" xmlns:dc="http://purl.org/dc/elements/1.1/" width="475px" height="427px" enable-background="new 0 0 475 427" version="1.1" viewBox="0 0 475 427" xml:space="preserve">
<metadata>
	<ns:sfw>
		<ns:slices></ns:slices>
		<ns:sliceSourceBounds x="215.966" y="117.171" width="409.067" height="360.658" bottomLeftOrigin="true"></ns:sliceSourceBounds>
	</ns:sfw>
<rdf:RDF><cc:Work rdf:about=""><dc:format>image/svg+xml</dc:format><dc:type rdf:resource="http://purl.org/dc/dcmitype/StillImage"></dc:type><dc:title></dc:title></cc:Work></rdf:RDF></metadata>
	<path d="m255.25 134.23v-7.06h-39.534v-20.574h33.28c-0.807-1.478-1.748-3.158-2.822-5.043-1.078-1.881-2.15-3.763-3.229-5.647h-160.76c-1.479 1.885-2.62 3.766-3.429 5.647-0.808 1.885-1.749 3.565-2.824 5.043h33.888v20.574h-39.736c0 2.42 0.031 5.516 0.102 9.279 0.065 3.766 0.305 7.8 0.706 12.102h126.87c-0.136-0.132-1.078 0.271-2.822 1.21-1.75 0.942-3.867 2.152-6.354 3.63-2.49 1.481-5.145 3.096-7.968 4.842-2.823 1.748-5.445 3.429-7.867 5.041-2.421 1.613-4.405 2.994-5.949 4.136-1.547 1.144-2.253 1.784-2.118 1.917h-73.02v22.994c0 1.885-0.74 3.328-2.219 4.336-1.48 1.009-3.025 1.514-4.641 1.514h-26.422c-1.885 0-3.43-0.602-4.64-1.813-1.21-1.207-1.814-2.549-1.814-4.024v-33.212c-0.674-0.805-1.18-2.346-1.514-4.626-0.337-2.282-0.604-4.63-0.807-7.044-0.202-2.415-0.305-5.504-0.305-9.26 0-4.832 0.132-8.957 0.402-12.381 0.269-3.422 0.672-6.406 1.211-8.957 0.535-2.546 1.108-4.727 1.714-6.54 0.604-1.812 1.313-3.458 2.117-4.932l0.604-1.813h-15.53c-1.613 0-3.161-0.737-4.641-2.219-1.479-1.478-2.219-2.89-2.219-4.236l5.243-13.313c0-0.939 0.672-2.149 2.018-3.63 1.345-1.479 3.563-2.219 6.656-2.219h20.979c4.438-4.729 8.438-9.524 12.001-14.391 3.563-4.863 7.293-9.59 11.193-14.186l0.604-1.217c1.075-1.349 2.118-2.701 3.126-4.053 1.009-1.349 2.352-2.6 4.034-3.748 1.681-1.147 3.832-2.162 6.455-3.041 2.621-0.876 6.083-1.453 10.388-1.724 1.21 0 3.158-0.101 5.851-0.303 2.688-0.202 5.681-0.369 8.978-0.504 3.293-0.133 6.724-0.303 10.287-0.504 3.563-0.202 6.856-0.403 9.884-0.605 3.023-0.202 5.613-0.334 7.767-0.404 2.148-0.066 3.495-0.101 4.034-0.101 4.033 0 10.188 0.17 18.455 0.504 8.271 0.337 17.852 0.977 28.743 1.916 3.358 0.271 6.285 0.813 8.772 1.623s4.641 1.755 6.455 2.836c1.815 1.081 3.359 2.298 4.641 3.646 1.274 1.352 2.451 2.771 3.528 4.258l1.413 1.418c1.744 2.704 3.764 5.439 6.051 8.21 2.285 2.771 4.504 5.44 6.654 8.005 2.148 2.565 4.066 4.929 5.748 7.091 1.684 2.162 2.727 3.921 3.127 5.27h21.986c3.229 0 5.613 0.74 7.16 2.219 1.545 1.481 2.32 2.691 2.32 3.63l4.031 13.313c0 2.42-0.773 4.104-2.318 5.043-1.547 0.942-2.924 1.412-4.135 1.412h-14.926c0.939 0.933 1.746 2.569 2.42 4.901 0.676 2.333 1.242 4.999 1.719 7.999 0.469 3 0.807 6.073 1.008 9.215 0.201 3.143 0.303 5.991 0.303 8.545h-4.236c-1.346 0-2.791-0.033-4.336-0.102-1.547-0.066-3.262-0.102-5.145-0.102-1.076 0-1.984 0.035-2.723 0.102-0.74 0.068-1.445 0.102-2.117 0.102h-1.814l6e-3 5e-3zm-161.36-56.276h137.36c-2.42-2.849-5.042-6.007-7.865-9.471-2.824-3.461-5.985-7.296-9.479-11.507-3.901 0-8.003-0.101-12.306-0.303-4.306-0.202-8.506-0.47-12.605-0.807-4.104-0.334-7.866-0.605-11.295-0.807-3.431-0.202-6.086-0.302-7.969-0.302h-19.968c-4.438 0-9.313 0.17-14.624 0.504-5.313 0.337-11.265 0.841-17.852 1.513-1.078 0-2.391 0.17-3.936 0.51-1.547 0.341-2.655 0.508-3.328 0.508-3.095 3.939-5.918 7.57-8.472 10.895-2.552 3.329-5.108 6.418-7.661 9.267zm243.86 112.75c-9.279-6.858-19.396-12.336-30.354-16.438-10.965-4.102-22.563-6.557-34.797-7.363v20.978h-17.348v-20.978c-13.852 1.078-26.827 4.136-38.929 9.178-12.104 5.043-22.994 11.8-32.678 20.271l14.928 15.125-12.306 12.307-14.926-15.127c-8.473 10.084-15.265 21.109-20.373 33.08-5.11 11.969-8.066 24.879-8.875 38.727h20.775v17.146h-20.775c0.809 13.852 3.765 26.824 8.875 38.93 5.108 12.102 11.9 23.061 20.373 32.877l15.329-15.33 12.305 12.104-27.633 27.635c-7.263-6.455-13.786-13.584-19.563-21.381-5.784-7.805-10.762-16.141-14.928-25.016-4.17-8.875-7.36-18.219-9.581-28.037-2.219-9.813-3.326-19.969-3.326-30.457 0-12.906 1.68-25.313 5.042-37.215 3.358-11.898 8.066-23.023 14.118-33.383 6.053-10.352 13.346-19.797 21.887-28.338 8.538-8.538 18.019-15.834 28.438-21.886 10.419-6.051 21.613-10.721 33.584-14.019 11.969-3.293 24.407-4.942 37.315-4.942 15.598 0 30.49 2.422 44.678 7.263 14.189 4.841 27.195 11.698 39.031 20.573l-10.286 13.716zm-86.934 111.54c-1.889-1.883-3.266-3.965-4.139-6.254-0.875-2.285-1.311-4.643-1.311-7.063 0-1.881 0.268-3.561 0.807-5.043l-42.156-42.152-6.051-18.561 18.558 6.252 41.752 42.158c0.672-0.27 1.58-0.471 2.725-0.604 1.143-0.135 2.25-0.201 3.328-0.201 2.42 0 4.705 0.504 6.857 1.512 2.146 1.01 4.063 2.354 5.748 4.035 1.68 1.684 2.988 3.631 3.934 5.85 0.939 2.221 1.412 4.607 1.412 7.16 0 5.111-1.783 9.414-5.346 12.91-3.564 3.498-7.9 5.244-13.012 5.244-4.973 1e-3 -9.344-1.745-13.106-5.243zm136.55 52.24c0-3.766 0.707-7.293 2.119-10.59 1.412-3.293 3.395-6.186 5.949-8.676 2.553-2.482 5.479-4.438 8.771-5.85s6.893-2.117 10.791-2.117c3.631 0 7.063 0.705 10.287 2.117 3.23 1.412 6.084 3.363 8.572 5.85 2.486 2.49 4.438 5.383 5.85 8.676 1.412 3.297 2.119 6.824 2.119 10.59 0 3.764-0.707 7.293-2.119 10.59-1.412 3.293-3.361 6.184-5.85 8.674-2.488 2.486-5.344 4.438-8.572 5.85-3.227 1.412-6.656 2.117-10.287 2.117-3.898 0-7.498-0.705-10.791-2.117-3.297-1.41-6.221-3.359-8.771-5.85-2.559-2.49-4.537-5.381-5.949-8.674-1.412-3.297-2.119-6.827-2.119-10.59zm27.633-252.54c3.631 0 7.092 0.807 10.389 2.42 3.297 1.614 6.186 3.833 8.676 6.656 2.484 2.824 4.438 6.121 5.85 9.883 1.412 3.768 2.117 7.8 2.117 12.104v131.11c0 4.307-0.705 8.34-2.117 12.104-1.412 3.77-3.363 7.027-5.85 9.783-2.49 2.756-5.379 4.941-8.676 6.557-3.297 1.611-6.758 2.422-10.389 2.422-3.766 0-7.33-0.811-10.688-2.422-3.361-1.613-6.287-3.801-8.773-6.557-2.49-2.756-4.438-6.018-5.85-9.783-1.412-3.764-2.117-7.797-2.117-12.104v-131.11c0-4.302 0.705-8.336 2.117-12.103 1.412-3.763 3.357-7.06 5.85-9.883 2.486-2.824 5.412-5.042 8.773-6.656 3.358-1.614 6.924-2.421 10.688-2.421z" fill="#FFCE63"></path>
</svg>