<?xml version='1.0' encoding='utf-8'?>
<!-- Generator: Adobe Illustrator 16.0.0, SVG Export Plug-In . SVG Version: 6.00 Build 0)  --><svg xmlns="http://www.w3.org/2000/svg" xmlns:cc="http://creativecommons.org/ns#" xmlns:dc="http://purl.org/dc/elements/1.1/" xmlns:rdf="http://www.w3.org/1999/02/22-rdf-syntax-ns#" width="348px" height="425.2px" enable-background="new 0 0 348 425.2" version="1.1" viewBox="0 0 348 425.2" xml:space="preserve"><metadata><rdf:RDF><cc:Work rdf:about=""><dc:format>image/svg+xml</dc:format><dc:type rdf:resource="http://purl.org/dc/dcmitype/StillImage"></dc:type><dc:title></dc:title></cc:Work></rdf:RDF></metadata>
<path d="m19 382.71h311.81v35.226h-311.81v-35.226zm33.141-102.17-20.029-52.688c-0.764-2.161-1.453-4.339-2.064-6.556-0.632-2.236-0.937-4.646-0.937-7.264 0-3.21 0.363-6.365 1.052-9.422 0.69-3.077 1.875-5.906 3.553-8.526l26.7-45.562c0.306-1.07 0.65-2.178 1.032-3.347 0.385-1.147 0.574-2.332 0.574-3.553v-1.854c0-0.459-0.152-1.07-0.458-1.836l-14.028-56.38h-14.735c-1.376 0-2.065-0.689-2.065-2.063 0-1.395 0.458-2.772 1.376-4.147l30.138-69.033c0.152-0.937 0.763-1.395 1.853-1.395 0.919 0 1.605 0.458 2.064 1.395l30.39 69.033c0.612 1.07 0.917 2.294 0.917 3.688 0 1.683-0.784 2.523-2.314 2.523h-11.736l13.133 54.775c0.612 2.446 0.917 5.292 0.917 8.504 0 5.831-1.548 11.832-4.607 17.967l-26.011 44.167c-0.458 0.785-0.879 1.777-1.26 3-0.384 1.224-0.574 2.449-0.574 3.687 0 0.764 0.036 1.531 0.113 2.294 0.077 0.765 0.344 1.53 0.802 2.294l8.982 23.03 17.718 48.544c0.764 2.16 1.375 4.188 1.837 6.098 0.457 1.932 0.687 3.957 0.687 6.098 0 3.074-0.496 6.098-1.489 9.097-0.994 2.999-2.101 5.79-3.345 8.411l-19.322 33.596-30.616-17.275 17.049-28.994c0.306-1.225 0.688-2.37 1.147-3.438 0.458-1.072 0.688-2.314 0.688-3.691 0-0.764-0.113-1.565-0.342-2.406-0.229-0.842-0.499-1.586-0.805-2.197l-6.21-16.572h0.225v-2e-3zm69.031-82.39c0.151-0.306 0.227-0.65 0.227-1.033 0-0.382 0.152-0.727 0.458-1.034l26.928-45.562c1.068-2.448 1.604-4.759 1.604-6.899 0-0.764-0.036-1.396-0.113-1.854-0.079-0.459-0.27-1.07-0.574-1.836l-13.34-56.38h-14.963c-1.531 0-2.294-0.841-2.294-2.523 0-1.242 0.457-2.464 1.376-3.688l29.91-69.033c0.458-0.937 1.147-1.395 2.085-1.395 0.764 0 1.375 0.458 1.836 1.395l30.37 69.033c0.764 1.224 1.146 2.446 1.146 3.688 0 1.683-0.766 2.523-2.295 2.523h-12.193l13.34 54.775c0.456 1.375 0.764 2.714 0.918 4.014 0.151 1.32 0.229 2.81 0.229 4.494 0 5.829-1.531 11.829-4.589 17.966l-14.047 23.47-46.019 9.879zm86.979 51.333c-7.817-6.46-13.493-13.09-17.027-19.914-3.519-6.824-5.293-13.455-5.293-19.896 0-5.831 1.241-11.314 3.688-16.458 2.447-5.14 5.83-9.632 10.13-13.472 4.302-3.823 9.326-6.86 15.076-9.079 5.754-2.236 11.926-3.346 18.52-3.346 7.816 0 14.333 1.032 19.549 3.113 5.221 2.066 9.402 4.625 12.557 7.702 3.135 3.079 5.368 6.289 6.672 9.671 1.299 3.364 1.951 6.364 1.951 8.964 0 1.243-0.152 2.465-0.457 3.688-1.375 4.913-3.554 8.733-6.556 11.506-3.002 2.751-6.403 5.641-10.243 8.621-3.842 3-7.816 6.651-11.966 10.932-4.146 4.3-7.913 10.281-11.272 17.966 0.457 1.069 1.223 2.022 2.291 2.867s1.854 1.815 2.314 2.886h0.456c6.44-7.986 13.075-13.701 19.896-17.143 6.844-3.461 13.478-5.18 19.914-5.18 5.676 0 11.088 1.223 16.228 3.67 5.141 2.465 9.632 5.793 13.454 10.014 3.839 4.226 6.879 9.214 9.095 14.965 2.218 5.753 3.346 11.927 3.346 18.52 0 7.834-1.052 14.353-3.112 19.569-2.064 5.218-4.609 9.386-7.588 12.536-2.998 3.134-6.192 5.371-9.559 6.674-3.381 1.297-6.287 1.948-8.751 1.948-1.224 0-2.446-0.134-3.669-0.456-4.912-1.227-8.791-3.326-11.621-6.327-2.85-2.981-5.791-6.403-8.868-10.243-3.075-3.822-6.743-7.855-11.045-12.076-4.303-4.205-10.36-8.084-18.175-11.621l-0.69 0.916c-1.24 1.393-2.77 2.924-4.604 4.606 7.969 6.437 13.721 13.091 17.258 19.912 3.534 6.821 5.292 13.454 5.292 19.896 0 5.83-1.227 11.276-3.691 16.344-2.443 5.063-5.787 9.517-10.013 13.357-4.202 3.823-9.229 6.862-15.063 9.079-5.827 2.237-12.055 3.349-18.649 3.349-7.356 0-13.609-0.998-18.749-3-5.144-1.987-9.329-4.397-12.537-7.244-3.232-2.848-5.561-5.943-7.015-9.326-1.47-3.363-2.198-6.441-2.198-9.194 0-3.84 0.649-7.069 1.967-9.67 1.299-2.62 3.058-5.028 5.275-7.243 2.235-2.236 4.76-4.377 7.606-6.459 2.828-2.064 5.754-4.439 8.732-7.129 2.999-2.678 5.944-5.867 8.867-9.557 2.905-3.67 5.599-8.2 8.047-13.569l-0.69-1.147c-1.834-1.375-3.287-2.846-4.357-4.375-6.46 7.988-13.091 13.742-19.912 17.256-6.822 3.535-13.454 5.294-19.914 5.294-5.83 0-11.275-1.224-16.343-3.688-5.044-2.449-9.499-5.771-13.339-9.998-3.841-4.227-6.86-9.213-9.097-14.963-2.215-5.754-3.325-12.002-3.325-18.75 0-7.378 0.956-13.625 2.868-18.767 1.932-5.142 4.299-9.308 7.148-12.538 2.83-3.23 5.945-5.561 9.31-7.014 3.383-1.451 6.439-2.198 9.213-2.198 5.524 0 9.938 1.433 13.224 4.26 3.306 2.849 6.632 6.366 10.015 10.588 3.384 4.226 7.281 8.677 11.735 13.341 4.451 4.684 10.738 8.867 18.882 12.557l0.688-1.395c0.613-0.766 1.34-1.49 2.178-2.179 0.843-0.688 1.646-1.34 2.432-1.951l-0.486-2e-3zm-13.797 16.799c-7.205-3.533-12.959-7.34-17.26-11.39-4.299-4.07-7.932-7.947-10.93-11.62-3-3.688-5.6-6.919-7.819-9.67-2.236-2.771-4.872-4.604-7.95-5.523-0.15 0-0.688 0.037-1.604 0.113-0.919 0.077-2.044 0.458-3.347 1.146-1.299 0.688-2.634 1.724-4.014 3.115-1.395 1.377-2.542 3.287-3.459 5.752-2.465 6.746-3.688 12.959-3.688 18.635 0 4.761 0.764 8.982 2.313 12.654 1.531 3.688 3.556 6.844 6.097 9.442 2.521 2.616 5.483 4.604 8.849 5.981 3.384 1.377 6.918 2.063 10.589 2.063 4.913 0 9.978-1.3 15.195-3.897 5.22-2.621 10.056-6.688 14.507-12.211 0.61-0.765 1.259-1.531 1.95-2.295 0.688-0.764 1.031-1.299 1.031-1.604-1e-3 -0.156-0.156-0.385-0.46-0.691zm25.073 27.388c-3.517 7.205-7.512 13.109-11.965 17.718-4.452 4.606-8.581 8.505-12.421 11.733-3.842 3.215-7.051 5.983-9.67 8.277-2.602 2.313-3.898 4.758-3.898 7.376 0 1.226 0.611 3.058 1.836 5.526 1.225 2.447 4.073 4.509 8.524 6.211 6.438 2.445 12.576 3.669 18.404 3.669 4.604 0 8.771-0.765 12.535-2.293 3.766-1.532 6.938-3.577 9.559-6.099 2.597-2.541 4.605-5.484 5.98-8.865 1.375-3.365 2.065-6.979 2.065-10.818 0-2.447-0.385-5.121-1.146-8.046-0.766-2.905-1.951-5.869-3.576-8.867-1.604-2.983-3.596-5.829-5.98-8.505-2.372-2.693-5.256-5.025-8.619-7.016-0.306-0.15-0.611-0.229-0.918-0.229-0.327-1e-3 -0.557 0.075-0.71 0.228zm2.541-52.483c2.752-5.829 5.715-10.701 8.867-14.601 3.135-3.918 6.289-7.301 9.422-10.129 3.154-2.85 6.174-5.372 9.098-7.607 2.902-2.217 5.523-4.472 7.817-6.785 1.683-1.682 2.541-3.516 2.541-5.524 0-0.152-0.077-0.728-0.229-1.721-0.149-0.996-0.571-2.102-1.279-3.346-0.689-1.224-1.684-2.484-2.983-3.783-1.299-1.319-3.19-2.427-5.638-3.345-6.745-2.294-12.805-3.461-18.174-3.461-4.76 0-9.021 0.784-12.785 2.314-3.744 1.529-6.936 3.553-9.535 6.097-2.62 2.522-4.605 5.484-5.98 8.85-1.396 3.382-2.086 6.993-2.086 10.817 0 5.372 1.528 10.97 4.605 16.799 3.077 5.848 7.971 10.971 14.736 15.423 0 0.306 0.228 0.457 0.688 0.457 0.305 4e-3 0.608-0.147 0.915-0.455zm52.234-94.355c0 1.396-0.114 2.734-0.344 4.032-0.229 1.299-0.42 2.733-0.573 4.262l-34.748-13.129c0-0.307-0.076-0.651-0.228-1.035-0.152-0.382-0.229-0.725-0.229-1.031l-13.816-56.38h-14.717c-1.546 0-2.313-0.688-2.313-2.063 0-0.612 0.152-1.281 0.459-1.97 0.306-0.688 0.61-1.413 0.936-2.178l30.137-69.033c0.459-0.937 1.147-1.395 2.066-1.395 0.763 0 1.395 0.458 1.852 1.395l30.142 69.262c0.306 0.612 0.61 1.262 0.917 1.948 0.306 0.688 0.459 1.357 0.459 1.97 0 1.375-0.691 2.063-2.064 2.063h-12.424l13.57 54.775c0.15 1.53 0.34 3.021 0.572 4.492 0.229 1.454 0.346 2.793 0.346 4.015zm-48.775 114.62c-1.238-1.07-2.924-1.605-5.061-1.605-2.16 0-3.959 0.766-5.408 2.295-1.473 1.529-2.199 3.381-2.199 5.523 0 1.985 0.764 3.767 2.313 5.295 1.531 1.525 3.363 2.291 5.525 2.291 1.986 0 3.783-0.727 5.406-2.179 1.604-1.452 2.407-3.269 2.407-5.407-1e-3 -2.141-0.995-4.225-2.983-6.213zm21.158 7.357c6.133 3.076 11.202 6.211 15.195 9.443 3.996 3.209 7.396 6.401 10.24 9.557 2.828 3.134 5.336 6.059 7.474 8.73 2.161 2.696 4.377 5.028 6.671 7.018 1.242 1.699 2.852 2.768 4.839 3.229 1.699-0.152 3.302-0.611 4.834-1.375 1.224-0.763 2.543-1.816 3.915-3.113 1.375-1.301 2.6-3.248 3.689-5.867 2.449-6.746 3.67-12.961 3.67-18.635 0-4.607-0.729-8.793-2.182-12.559-1.47-3.746-3.457-6.898-5.98-9.422-2.543-2.543-5.484-4.491-8.865-5.868-3.385-1.396-6.979-2.084-10.818-2.084-4.912 0-9.979 1.315-15.195 3.918-5.217 2.618-10.033 6.671-14.483 12.19-0.458 0.459-1.11 1.146-1.953 2.087-0.856 0.918-1.28 1.528-1.28 1.835s0.039 0.496 0.117 0.574c0.074 0.076 0.112 0.19 0.112 0.342z" fill="#000000"></path>
</svg>