<?xml version='1.0' encoding='utf-8'?>
<!-- Generator: Adobe Illustrator 16.0.0, SVG Export Plug-In . SVG Version: 6.00 Build 0)  --><svg xmlns="http://www.w3.org/2000/svg" xmlns:cc="http://creativecommons.org/ns#" xmlns:dc="http://purl.org/dc/elements/1.1/" xmlns:ns="&amp;ns_sfw;" xmlns:rdf="http://www.w3.org/1999/02/22-rdf-syntax-ns#" width="180px" height="425.2px" version="1.2" viewBox="0 0 180 425.2" xml:space="preserve">
<metadata>
	<ns:sfw>
		<ns:slices></ns:slices>
		<ns:sliceSourceBounds x="340.699" y="162.807" width="159.602" height="286.395" bottomLeftOrigin="true"></ns:sliceSourceBounds>
	</ns:sfw>
<rdf:RDF><cc:Work rdf:about=""><dc:format>image/svg+xml</dc:format><dc:type rdf:resource="http://purl.org/dc/dcmitype/StillImage"></dc:type><dc:title></dc:title></cc:Work></rdf:RDF></metadata>
	<path d="m169.8 249.69c0 51.198-31.2 97.599-79.201 97.599-45.301 0-78.301-35.199-80.4-92.798h51.3c4.5 20.799 14.1 30.397 26.699 30.397 18.002 0 27.602-17.6 27.602-35.198 0-17.6-9.6-35.199-27.602-35.199-10.5 0-19.199 7.199-24.6 17.6h-50.4l16.199-171.2h126v62.398h-85.201l-3.601 38.8c8.7-5.199 17.7-8.398 26.399-8.398 56.403-3e-3 76.804 54.396 76.804 95.996z" fill="#000000"></path>
</svg>