<?xml version='1.0' encoding='utf-8'?>
<!-- Generator: Adobe Illustrator 16.0.0, SVG Export Plug-In . SVG Version: 6.00 Build 0)  --><svg xmlns="http://www.w3.org/2000/svg" xmlns:cc="http://creativecommons.org/ns#" xmlns:dc="http://purl.org/dc/elements/1.1/" xmlns:rdf="http://www.w3.org/1999/02/22-rdf-syntax-ns#" width="311.81px" height="425.2px" version="1.2" viewBox="0 0 311.81 425.2" xml:space="preserve"><metadata><rdf:RDF><cc:Work rdf:about=""><dc:format>image/svg+xml</dc:format><dc:type rdf:resource="http://purl.org/dc/dcmitype/StillImage"></dc:type><dc:title></dc:title></cc:Work></rdf:RDF></metadata>
<path d="m155.91 66.69c35.187 0 68.267 13.703 93.148 38.583 24.88 24.881 38.582 57.961 38.582 93.147s-13.702 68.267-38.583 93.147c-24.881 24.881-57.961 38.583-93.147 38.583-35.187 0-68.267-13.702-93.147-38.583s-38.583-57.961-38.583-93.147 13.703-68.266 38.583-93.146 57.962-38.584 93.147-38.584m0-10c-78.274 0-141.73 63.456-141.73 141.73s63.454 141.73 141.73 141.73c78.274 0 141.73-63.454 141.73-141.73 0-78.274-63.453-141.73-141.73-141.73z" fill="#000000"></path>
<rect x="141.41" y="172.64" width="29" height="109.6" fill="#000000"></rect>
<circle cx="155.91" cy="129.83" r="17.857" fill="#000000"></circle>
</svg>