<?xml version='1.0' encoding='utf-8'?>
<!-- Generator: Adobe Illustrator 16.0.0, SVG Export Plug-In . SVG Version: 6.00 Build 0)  --><svg xmlns="http://www.w3.org/2000/svg" xmlns:cc="http://creativecommons.org/ns#" xmlns:dc="http://purl.org/dc/elements/1.1/" xmlns:ns="&amp;ns_sfw;" xmlns:rdf="http://www.w3.org/1999/02/22-rdf-syntax-ns#" width="459px" height="411px" version="1.2" viewBox="0 0 459 411" xml:space="preserve">
<metadata>
	<ns:sfw>
		<ns:slices></ns:slices>
		<ns:sliceSourceBounds x="211.427" y="226.501" width="418.146" height="160.666" bottomLeftOrigin="true"></ns:sliceSourceBounds>
	</ns:sfw>
<rdf:RDF><cc:Work rdf:about=""><dc:format>image/svg+xml</dc:format><dc:type rdf:resource="http://purl.org/dc/dcmitype/StillImage"></dc:type><dc:title></dc:title></cc:Work></rdf:RDF></metadata>
	<path d="m36.478 200.31c0-1.645 0.587-3.056 1.764-4.23 1.175-1.174 2.585-1.764 4.232-1.764 1.646 0 3.056 0.59 4.232 1.764 1.174 1.177 1.764 2.588 1.764 4.23 0 5.646 0.971 11.992 2.91 19.049 1.939 7.055 5.556 15.52 10.847 25.396 0.706 1.411 1.262 3.028 1.675 4.85 0.411 1.824 0.617 3.439 0.617 4.853 0 3.174-0.591 6.084-1.765 8.729-1.176 2.646-2.765 4.97-4.763 6.968-2 2.001-4.351 3.558-7.054 4.674-2.706 1.118-5.585 1.675-8.643 1.675-3.06 0-5.938-0.557-8.643-1.675-2.706-1.116-5.025-2.673-6.966-4.674-1.939-1.998-3.471-4.351-4.585-7.057-1.119-2.703-1.676-5.582-1.676-8.641 0-1.646 0.177-3.321 0.529-5.026 0.354-1.703 0.939-3.263 1.764-4.674 5.291-9.876 8.906-18.341 10.847-25.396 1.944-7.059 2.914-13.407 2.914-19.051zm97.702-19.047c0-2.116 0.733-3.907 2.205-5.379 1.47-1.469 3.202-2.204 5.203-2.204 2.116 0 3.907 0.735 5.379 2.204 1.47 1.472 2.205 3.263 2.205 5.379 0 3.527 0.265 7.23 0.793 11.11s1.47 8.113 2.821 12.698 3.114 9.521 5.291 14.813c2.175 5.29 4.908 10.994 8.201 17.106 1.879 3.646 2.822 7.645 2.822 11.99 0 3.882-0.736 7.495-2.205 10.849-1.472 3.351-3.438 6.261-5.908 8.729-2.469 2.471-5.379 4.409-8.729 5.819-3.352 1.411-6.907 2.116-10.669 2.116-3.765 0-7.318-0.732-10.67-2.204-3.352-1.469-6.262-3.439-8.729-5.908-2.47-2.469-4.438-5.379-5.908-8.729-1.472-3.353-2.205-6.905-2.205-10.672 0-4.467 0.998-8.521 2.998-12.169 6.583-12.227 11.081-22.775 13.492-31.654 2.406-8.872 3.613-16.839 3.613-23.894zm122.57-23.808c0-2.703 0.909-4.967 2.733-6.79 1.821-1.821 4.084-2.733 6.79-2.733 2.584 0 4.789 0.912 6.613 2.733 1.819 1.823 2.731 4.087 2.731 6.79 0 8.701 1.526 18.636 4.585 29.804 3.059 11.172 8.644 24.398 16.755 39.683 1.292 2.354 2.231 4.851 2.821 7.493 0.587 2.646 0.882 5.203 0.882 7.674 0 4.82-0.912 9.317-2.731 13.489-1.824 4.177-4.293 7.82-7.407 10.937-3.116 3.116-6.79 5.556-11.022 7.317-4.23 1.765-8.7 2.646-13.401 2.646-4.822 0-9.319-0.909-13.491-2.733-4.175-1.819-7.82-4.26-10.937-7.316-3.115-3.058-5.555-6.672-7.316-10.849-1.764-4.172-2.646-8.669-2.646-13.489 0-5.646 1.292-10.697 3.881-15.167 4.113-7.643 7.521-14.728 10.229-21.252 2.703-6.524 4.85-12.638 6.438-18.342 1.589-5.701 2.703-10.99 3.353-15.873 0.638-4.879 1.023-9.552 1.14-14.022zm126.98-29.628c0-3.409 1.146-6.261 3.438-8.554 2.292-2.291 5.084-3.438 8.377-3.438 3.527 0 6.376 1.265 8.556 3.792 2.174 2.53 3.262 5.498 3.262 8.906 0 5.408 0.441 11.141 1.323 17.195 0.882 6.057 2.381 12.609 4.497 19.664 2.115 7.055 4.877 14.638 8.289 22.749 3.407 8.112 7.641 16.933 12.695 26.454 2.938 5.764 4.409 12.055 4.409 18.87 0 5.996-1.146 11.612-3.438 16.843-2.293 5.232-5.38 9.787-9.26 13.667-3.88 3.882-8.438 6.939-13.669 9.171-5.231 2.235-10.847 3.353-16.843 3.353-5.88 0-11.436-1.146-16.666-3.438-5.23-2.293-9.787-5.379-13.667-9.259s-6.967-8.435-9.259-13.668c-2.293-5.229-3.438-10.785-3.438-16.666 0-7.054 1.588-13.401 4.763-19.047 5.172-9.639 9.436-18.545 12.786-26.718 3.351-8.171 6.021-15.784 8.022-22.838 1.998-7.055 3.438-13.607 4.32-19.664 0.886-6.056 1.385-11.845 1.503-17.374z" fill="#000000"></path>
</svg>