<?xml version='1.0' encoding='utf-8'?>
<!-- Generator: Adobe Illustrator 16.0.0, SVG Export Plug-In . SVG Version: 6.00 Build 0)  --><svg xmlns="http://www.w3.org/2000/svg" xmlns:cc="http://creativecommons.org/ns#" xmlns:dc="http://purl.org/dc/elements/1.1/" xmlns:ns="&amp;ns_sfw;" xmlns:rdf="http://www.w3.org/1999/02/22-rdf-syntax-ns#" width="364px" height="595.28px" version="1.2" viewBox="0 0 364 595.28" xml:space="preserve">
<metadata>
	<ns:sfw>
		<ns:slices></ns:slices>
		<ns:sliceSourceBounds x="257.164" y="131.095" width="327.777" height="387.053" bottomLeftOrigin="true"></ns:sliceSourceBounds>
	</ns:sfw>
<rdf:RDF><cc:Work rdf:about=""><dc:format>image/svg+xml</dc:format><dc:type rdf:resource="http://purl.org/dc/dcmitype/StillImage"></dc:type><dc:title></dc:title></cc:Work></rdf:RDF></metadata>
	<path d="m295.66 87.018c7.838 2.232 12.205 7.955 14.82 12.531s3.922 9.263 3.922 14.057v114.42h5.016c8.424 0 15.037 2.217 19.83 6.647 4.797 4.434 7.191 11.152 7.191 20.159v170.21c0 1.162-0.145 2.797-0.436 4.904-0.293 2.104-0.871 4.213-1.744 6.317-0.871 2.105-2.182 3.924-3.922 5.449-1.744 1.525-7.215 3.041-7.215 3.041-49.982 13.365-100.09 19.297-150.36 19.297-50.271 0-99.641-5.807-148.02-19.172 0 0-4.896-1.459-6.93-2.621-2.037-1.164-3.705-2.688-5.014-4.576-1.309-1.891-2.326-3.961-3.052-6.211-0.729-2.256-1.089-4.396-1.089-6.43v-170.21c0-3.776 0.834-7.301 2.506-10.57 1.669-3.27 3.777-6.103 6.32-8.5 2.541-2.397 5.373-4.284 8.5-5.667 3.123-1.379 6.211-2.07 9.262-2.07h5.449v-114.42c0-3.923 0.507-7.192 1.525-9.807 1.015-2.615 2.431-4.904 4.25-6.865 1.813-1.961 4.031-3.667 6.646-5.121 2.614-1.451 9.032-3.769 9.625-3.938 11.375-3.25 36.688-6.704 55.211-8.376 18.524-1.668 37.158-2.506 55.899-2.506 18.742 0 37.377 0.838 55.902 2.506 18.529 1.672 37.596 2.303 55.904 7.519zm-247.57 319.71v2.398c0 3.779 2.471 7.012 7.41 9.697 4.938 2.688 11.404 4.977 19.396 6.864 7.986 1.888 16.961 3.412 26.914 4.576 9.951 1.16 19.94 2.07 29.967 2.726 10.023 0.651 19.613 1.09 28.768 1.309 9.154 0.217 16.854 0.326 23.104 0.326 41.842 0 82.74-3.998 122.7-11.986 0.289 0 1.162-0.471 2.615-1.416 1.449-0.942 2.941-2.18 4.469-3.705 1.523-1.524 2.902-3.229 4.141-5.12 1.232-1.888 1.854-3.775 1.854-5.666v-127.93c0-3.342-0.652-6.32-1.961-8.936-1.309-2.617-3.09-4.867-5.342-6.756-2.254-1.889-4.795-3.305-7.627-4.251-2.834-0.943-5.773-1.417-8.824-1.417h-226.22c-1.743 0-3.814 0.292-6.211 0.872-2.397 0.583-4.723 1.634-6.975 3.159-2.255 1.525-4.179 3.672-5.775 6.43-1.6 2.762-2.396 6.396-2.396 10.896v127.93zm32.037-178.71h207.69v-93.059c0-1.015-0.406-3.773-1.566-6.464-1.164-2.687-2.664-5.435-4.625-8.125-1.963-2.687-4.451-4.116-6.992-6.224-2.543-2.104-8.172-3.16-8.172-3.16-28.189-3.923-56.086-5.884-83.689-5.884-7.41 0-16.019 0.075-25.824 0.218-9.807 0.146-19.396 0.62-28.768 1.417-9.371 0.8-17.947 2.146-25.718 4.032-7.772 1.89-14.351 4.615-17.838 8.102-1.601 2.908-2.483 4.856-3.5 8.125-1.019 3.269-1 6.656-1 7.964l-1e-3 93.058zm87.609 157.35c0.099 6.127 1.123 18.377 14.82 18.512 11.775 0.115 14.383-11.539 14.383-18.512v-79.983c0-6.975-2.746-18.827-14.383-18.672-13.695 0.188-14.82 16.492-14.82 18.672v79.983z" fill="#000000"></path>
</svg>