<?xml version='1.0' encoding='utf-8'?>
<!-- Generator: Adobe Illustrator 16.0.0, SVG Export Plug-In . SVG Version: 6.00 Build 0)  --><svg xmlns="http://www.w3.org/2000/svg" xmlns:cc="http://creativecommons.org/ns#" xmlns:dc="http://purl.org/dc/elements/1.1/" xmlns:ns="&amp;ns_sfw;" xmlns:rdf="http://www.w3.org/1999/02/22-rdf-syntax-ns#" width="460px" height="595.28px" version="1.2" viewBox="0 0 460 595.28" xml:space="preserve">
<metadata>
	<ns:sfw>
		<ns:slices></ns:slices>
		<ns:sliceSourceBounds x="207.847" y="107.279" width="425.195" height="418.447" bottomLeftOrigin="true"></ns:sliceSourceBounds>
	</ns:sfw>
<rdf:RDF><cc:Work rdf:about=""><dc:format>image/svg+xml</dc:format><dc:type rdf:resource="http://purl.org/dc/dcmitype/StillImage"></dc:type><dc:title></dc:title></cc:Work></rdf:RDF></metadata>
	<path d="m436.76 140.31c1.597 2.701 2.958 5.48 4.082 8.338 1.12 2.863 1.688 5.722 1.695 8.587-1.729 7.164-4.253 13.775-7.575 19.827-3.32 6.059-7.281 11.797-11.876 17.219-8.566 8.141-17.375 14.61-26.43 19.41-9.053 4.8-19.307 7.219-30.76 7.253-3.66 0.013-7.281-0.574-10.863-1.756-3.583-1.182-7.446-2.799-11.589-4.856l-178.41 182.38c0.034 10.662-0.178 19.252-0.635 25.773-0.458 6.523-1.317 11.938-2.576 16.234-1.263 4.301-2.854 8.508-4.861 11.602-2.517 3.869-3.87 7.506-12.317 14.75-3.617 3.102-13.858 10.205-21.472 13.855-3.468 1.662-7.028 3.279-10.845 4.566-3.813 1.283-7.629 2.326-11.442 3.139-3.815 0.809-7 1.211-9.54 1.225-10.023 0.027-17.664-1.303-22.921-3.986-5.26-2.689-9.01-6.098-11.248-10.227l57.154-37.162-6.458-40.146-30.939-16.529-56.677 37.16c-1.44-2.857-2.285-5.68-2.532-8.463-0.247-2.781-0.376-5.686-0.385-8.709-0.015-4.297 0.647-8.393 1.989-12.295 1.337-3.9 2.918-7.486 4.739-10.752 1.816-3.266 3.68-6.098 5.582-8.488 1.901-2.395 3.484-4.227 4.755-5.504 5.71-5.746 10.982-10.375 15.825-13.891 4.841-3.512 9.486-6.232 13.936-8.156 4.446-1.922 8.979-3.166 13.592-3.738 4.608-0.57 9.541-0.865 14.792-0.883 3.975-0.012 7.913 0.375 11.814 1.158 3.898 0.783 7.917 1.729 12.061 2.824l178.41-182.38c-0.487-2.702-0.975-5.325-1.457-7.869-0.328-2.226-0.61-4.451-0.856-6.678-0.245-2.225-0.371-4.056-0.374-5.488-0.028-9.547 1.933-17.9 5.89-25.074 3.951-7.169 8.703-13.347 14.26-18.537 5.552-5.185 11.266-9.46 17.142-12.819 5.872-3.358 11.156-5.768 14.813-7.533 0.476-0.157 5.524-2.402 10.518-3.144 5.478-0.813 13.769-1.137 13.769-1.137 3.342-9e-3 6.36 0.14 9.067 0.45 2.705 0.312 5.373 0.936 8 1.883 2.628 0.947 5.295 2.371 8.007 4.271 2.71 1.901 5.659 4.438 8.854 7.608l-56.682 37.162 2.063 38.967 32.473 17.717 56.437-37.157zm-117 52.5c4.16-3.671 8.479-8.871 2.313-14.987-7.542-7.483-12.758 0.465-15.476 2.5l-167.23 170.89c-2.307 1.998-4.6 8.32 0.592 13.168 5.7 5.318 11.445 0.236 12.718-1.197-2e-3 -1e-3 166.45-169.82 167.08-170.38z" fill="#000000"></path>
</svg>