<?xml version='1.0' encoding='utf-8'?>
<!-- Generator: Adobe Illustrator 27.2.0, SVG Export Plug-In . SVG Version: 6.00 Build 0)  --><svg xmlns:cc="http://creativecommons.org/ns#" xmlns="http://www.w3.org/2000/svg" xmlns:rdf="http://www.w3.org/1999/02/22-rdf-syntax-ns#" xmlns:ns="http://ns.adobe.com/SaveForWeb/1.0/" xmlns:dc="http://purl.org/dc/elements/1.1/" xmlns:xlink="http://www.w3.org/1999/xlink" version="1.2" baseProfile="tiny" id="Layer_1" x="0px" y="0px" viewBox="0 0 481.9 425.2" overflow="visible" xml:space="preserve" width="453.3396" height="400.0">
<g>
	<g>
		<g>
			<path d="M136.1,354.7h-65c-4.2,0-7.7-1.4-10.5-4.2c-2.8-2.8-4.2-6.4-4.2-10.5v-46.3c0-4.2,1.4-7.7,4.2-10.5     c2.8-2.8,6.4-4.2,10.5-4.2h65c4,0,7.7,1.4,10.6,4.2c2.9,2.8,4.5,6.4,4.5,10.5V340c0,4.2-1.5,7.7-4.5,10.5     C143.8,353.3,140.3,354.7,136.1,354.7z M71.7,339.5H136v-45.6H71.7V339.5z" fill="#FFCE63"></path>
		</g>
		<g>
			<path d="M181.7,382.7h-24V262.9c0-1.4-0.3-2.8-0.8-4c-0.6-1.4-1.4-2.5-2.4-3.5s-2.1-1.8-3.5-2.4c-1.3-0.6-2.6-0.8-4-0.8H60.4     c-3.1,0-5.4,1-7.5,3.1c-2.1,2.2-3.1,4.6-3.1,7.5v119.8H25.7V262.8c0-4.7,1-9.2,2.6-13.5c1.8-4.2,4.3-7.9,7.5-11.2     c3.2-3.1,6.8-5.6,11-7.3c4.3-1.8,8.8-2.6,13.5-2.6H147c4.7,0,9.2,1,13.5,2.6c4.2,1.8,7.9,4.3,11,7.4c3.1,3.1,5.6,6.8,7.4,11     c1.8,4.2,2.6,8.8,2.6,13.5v119.9H181.7z" fill="#FFCE63"></path>
		</g>
	</g>
	<g>
		<g>
			<path d="M253.1,332.1l-3.8-3.9c-11.3-11.9-19.9-25.2-25.9-40c-6-14.8-9.1-30.5-9.1-46.7c0-5.4,0.4-10.9,1.3-16.3l0.8-5.2     l20.9,2.8l-0.6,5.3c-0.3,2.2-0.4,4.5-0.7,6.8c-0.1,2.2-0.3,4.5-0.3,6.6c0,13.5,2.5,26.5,7.4,38.8c4.9,12.3,12.1,23.4,21.6,33.2     l3.8,3.9L253.1,332.1z" fill="#FFCE63"></path>
		</g>
		<g>
			<path d="M279.8,307l-3.8-3.9c-7.9-8.4-14.2-17.8-18.5-28.3c-4.3-10.5-6.6-21.6-6.6-33.3c0-2,0.1-3.9,0.3-5.7     c0.1-1.8,0.4-3.8,0.7-5.7l0.7-5.3l21.1,2.8l-0.7,5.3c-0.4,2.9-0.6,5.9-0.6,8.6c0,8.8,1.7,17.3,4.9,25.2     c3.2,7.9,7.9,15.1,14.2,21.3l3.9,3.9L279.8,307z" fill="#FFCE63"></path>
		</g>
	</g>
	<g>
		<g>
			<path d="M403.5,245.2h-51c-2.9,0-5.4-1-7.4-2.9c-2-2-2.9-4.5-2.9-7.4v-19.9c0-2.9,1-5.4,2.9-7.4c2-2,4.5-2.9,7.4-2.9h51.2     c2.9,0,5.4,1,7.4,2.9c2.1,2,3.2,4.6,3.2,7.5V235c0,2.9-1.1,5.6-3.2,7.5C409,244.2,406.4,245.2,403.5,245.2z M357.1,230.3h41.8     v-10.7h-41.8V230.3z" fill="#FFCE63"></path>
		</g>
		<g>
			<path d="M410.5,140.9h-65c-4,0-7.5-1.4-10.3-4.3c-2.9-2.9-4.3-6.4-4.3-10.3V79.6c0-4.2,1.5-7.7,4.5-10.5     c2.9-2.8,6.4-4.2,10.3-4.2h65c4.2,0,7.7,1.4,10.5,4.3c2.8,2.8,4,6.3,4,10.5v46.6c0,3.9-1.4,7.4-4,10.3     C418.3,139.4,414.7,140.9,410.5,140.9z M345.9,125.7h64V80.1h-64V125.7z" fill="#FFCE63"></path>
		</g>
		<g>
			<path d="M421.2,281.6h-86.3c-4.9,0-9.5-1-13.7-2.6c-4.2-1.8-7.9-4.3-11.2-7.5c-3.2-3.2-5.7-7-7.5-11.2s-2.6-8.8-2.6-13.5V49     c0-4.7,1-9.2,2.6-13.5c1.8-4.2,4.3-7.9,7.5-11.2s7-5.7,11.2-7.5c4.2-1.8,8.9-2.6,13.7-2.6h86.3c4.7,0,9.2,1,13.5,2.6     c4.2,1.8,7.9,4.3,11.2,7.5c3.2,3.2,5.7,6.8,7.5,11c2,4.3,2.8,8.9,2.8,13.7v197.7c0,4.7-1,9.3-2.8,13.7c-1.8,4.2-4.3,7.9-7.5,11     c-3.2,3.2-7,5.7-11.2,7.5C430.4,280.8,426,281.6,421.2,281.6z M334.8,38.4c-3.2,0-5.7,1-7.8,3.1c-2.1,2.1-3.1,4.5-3.1,7.7v197.7     c0,3.1,1,5.6,3.1,7.7c2.1,2.1,4.6,3.1,7.8,3.1h86.3c3.1,0,5.6-1,7.7-3.1c2.1-2.1,3.1-4.5,3.1-7.7V49c0-3.1-1-5.6-3.1-7.7     s-4.5-3.1-7.7-3.1h-86.3V38.4z" fill="#FFCE63"></path>
		</g>
	</g>
</g>
</svg>