<?xml version='1.0' encoding='utf-8'?>
<!-- Generator: Adobe Illustrator 16.0.0, SVG Export Plug-In . SVG Version: 6.00 Build 0)  --><svg xmlns="http://www.w3.org/2000/svg" xmlns:cc="http://creativecommons.org/ns#" xmlns:dc="http://purl.org/dc/elements/1.1/" xmlns:ns="&amp;ns_sfw;" xmlns:rdf="http://www.w3.org/1999/02/22-rdf-syntax-ns#" width="458px" height="407px" version="1.2" viewBox="0 0 458 407" xml:space="preserve">
<metadata>
	<ns:sfw>
		<ns:slices></ns:slices>
		<ns:sliceSourceBounds x="209.843" y="179.442" width="425.194" height="278.559" bottomLeftOrigin="true"></ns:sliceSourceBounds>
	</ns:sfw>
<rdf:RDF><cc:Work rdf:about=""><dc:format>image/svg+xml</dc:format><dc:type rdf:resource="http://purl.org/dc/dcmitype/StillImage"></dc:type><dc:title></dc:title></cc:Work></rdf:RDF></metadata>
	<path d="m32.698 321.56-14.355-15.627 46.154-41.793 14.173 15.627-45.972 41.793zm52.513-211.87c-9.813 9.692-17.506 21.078-23.078 34.16-5.571 13.084-8.356 27.196-8.356 42.337 0 15.146 2.814 29.257 8.449 42.341 5.633 13.082 13.415 24.528 23.349 34.342l14.537-14.535c-7.995-7.996-14.295-17.293-18.897-27.895-4.604-10.599-6.903-22.017-6.903-34.253 0-12.11 2.3-23.499 6.903-34.159 4.604-10.659 10.902-19.988 18.897-27.983l-14.901-14.355zm156.09 76.497c0-10.901-2.063-21.137-6.18-30.706-4.118-9.568-9.754-17.928-16.898-25.076-7.149-7.146-15.509-12.779-25.076-16.899-9.57-4.117-19.808-6.178-30.708-6.178-10.902 0-21.143 2.062-30.708 6.178-9.571 4.12-17.898 9.752-24.985 16.899-7.086 7.148-12.689 15.508-16.808 25.076-4.12 9.569-6.18 19.805-6.18 30.706 0 10.902 2.061 21.144 6.18 30.709 4.117 9.57 9.722 17.933 16.808 25.076 7.087 7.148 15.415 12.781 24.985 16.898 9.566 4.119 19.806 6.178 30.708 6.178 10.9 0 21.138-2.059 30.708-6.178 9.566-4.117 17.927-9.75 25.076-16.898 7.146-7.146 12.78-15.506 16.898-25.076 4.116-9.568 6.18-19.807 6.18-30.709zm-12.541 0c0 9.207-1.757 17.841-5.271 25.896-3.515 8.057-8.268 15.053-14.265 20.988-5.996 5.936-13.023 10.629-21.078 14.082-8.059 3.45-16.626 5.178-25.711 5.178s-17.657-1.728-25.712-5.178c-8.059-3.453-15.082-8.146-21.078-14.082-5.996-5.937-10.752-12.933-14.266-20.988-3.515-8.055-5.269-16.688-5.269-25.896 0-9.084 1.754-17.625 5.269-25.62 3.514-7.994 8.27-14.99 14.266-20.986 5.997-5.997 13.021-10.721 21.078-14.174 8.055-3.452 16.627-5.178 25.712-5.178s17.652 1.727 25.711 5.178c8.055 3.453 15.082 8.177 21.078 14.174 5.997 5.996 10.75 12.992 14.265 20.986 3.516 7.995 5.271 16.536 5.271 25.62zm-103.39 35.434 28.528-80.135h17.626l27.801 80.135h-15.264l-5.997-16.354h-30.163l-5.451 16.354h-17.08zm26.347-28.709h22.532l-7.269-20.533c-0.729-2.182-1.425-4.422-2.089-6.725-0.667-2.302-1.305-4.48-1.908-6.543-0.364 2.303-0.79 4.481-1.272 6.543-0.483 2.063-1.028 4.121-1.635 6.178l-8.359 21.08zm119.38-6.725c0-15.141-2.816-29.282-8.45-42.428-5.632-13.142-13.537-24.559-23.712-34.251l-14.174 14.174c7.996 7.994 14.293 17.354 18.896 28.073 4.604 10.722 6.904 22.2 6.904 34.434 0 12.355-2.303 23.865-6.904 34.523-4.604 10.662-10.9 19.988-18.896 27.984l14.174 14.717c9.932-9.933 17.775-21.471 23.53-34.615 5.753-13.142 8.632-27.347 8.632-42.611zm4.907-85.583-14.174-15.81 45.974-41.793 14.173 15.809-45.973 41.794zm26.527 200.6h134.28c2.058 0 3.693-0.482 4.906-1.453 1.209-0.969 1.814-2.301 1.814-3.998v-1.453l-5.633-14.537h-136.64l-5.088 14.537c-0.363 0.121-0.544 0.607-0.544 1.453 0 1.697 0.661 3.029 1.998 3.998 1.333 0.97 2.967 1.453 4.905 1.453zm14.721-35.797 39.61-130.1c1.332-2.422 3.027-4.42 5.089-5.996 2.06-1.574 4.604-2.362 7.631-2.362 2.907 0 5.451 0.727 7.634 2.181 2.181 1.454 3.753 3.211 4.725 5.27l40.339 131.01h-105.03v-3e-3zm52.33-103.94-27.072 87.946h54.146l-27.074-87.946z" fill="#000000"></path>
</svg>