<?xml version='1.0' encoding='utf-8'?>
<!-- Generator: Adobe Illustrator 16.0.0, SVG Export Plug-In . SVG Version: 6.00 Build 0)  --><svg xmlns="http://www.w3.org/2000/svg" xmlns:cc="http://creativecommons.org/ns#" xmlns:dc="http://purl.org/dc/elements/1.1/" xmlns:ns="&amp;ns_sfw;" xmlns:rdf="http://www.w3.org/1999/02/22-rdf-syntax-ns#" width="432px" height="425.2px" version="1.2" viewBox="0 0 432 425.2" xml:space="preserve">
<metadata>
	<ns:sfw>
		<ns:slices></ns:slices>
		<ns:sliceSourceBounds x="219.768" y="150.401" width="402.646" height="322.544" bottomLeftOrigin="true"></ns:sliceSourceBounds>
	</ns:sfw>
<rdf:RDF><cc:Work rdf:about=""><dc:format>image/svg+xml</dc:format><dc:type rdf:resource="http://purl.org/dc/dcmitype/StillImage"></dc:type><dc:title></dc:title></cc:Work></rdf:RDF></metadata>
<path d="m214.72 37.153-46.195 51.386-34.904-30.541 3.841 45.951-66.376 23.372 66.899 7.757-1.454 46.054 38.782-42.176 51.44 2.465-34.96-31.067 22.927-73.201z" fill="#000000"></path>
	<path d="m168.42 81.184 26.128-29.064c-13.677 1.479-26.765 4.823-39.261 10.055-2.085 0.873-4.137 1.788-6.16 2.741l18.798 16.448c0.164-0.062 0.331-0.119 0.495-0.18z" fill="#000000"></path>
	<path d="m390.83 116.48c-5.063-11.751-11.179-22.928-18.337-33.534-7.161-10.603-15.266-20.429-24.315-29.481l-24.719 26.947c14.719 14.726 26.271 31.508 34.647 50.352 1.377 3.098 2.629 6.25 3.778 9.449h37.395c-2.329-8.141-5.139-16.054-8.449-23.733z" fill="#000000"></path>
	<path d="m270.87 295.69c-8.847 5.2-18.335 9.218-28.468 12.055-10.131 2.837-20.601 4.258-31.407 4.258-16.889 0-32.691-3.141-47.414-9.422-14.725-6.284-27.591-14.822-38.599-25.632-11.011-10.804-19.689-23.47-26.037-37.991-6.351-14.521-9.521-29.888-9.521-46.095 0-10.942 1.482-21.444 4.462-31.507 2.611-8.854 6.094-17.238 10.435-25.152l-23.94-2.776c-0.646 1.36-1.283 2.73-1.896 4.118-7.569 17.157-11.348 35.594-11.348 55.317 0 13.104 1.687 25.698 5.067 37.784 3.373 12.092 8.273 23.369 14.69 33.84 6.413 10.469 13.979 20.021 22.689 28.667 8.717 8.647 18.405 16.043 29.077 22.188 10.669 6.15 22.117 10.912 34.348 14.284 12.223 3.378 24.887 5.067 37.988 5.067 13.238 0 25.867-1.689 37.895-5.067 4.427-1.242 8.752-2.676 12.979-4.295 2.088-9.438 5.317-19.83 9.771-30.109-0.26 0.154-0.511 0.316-0.771 0.468z" fill="#000000"></path>
	<path d="m341.59 137.55c-7.362-17.153-17.423-32.183-30.189-45.084-12.762-12.898-27.757-22.998-44.979-30.292-15.897-6.733-32.861-10.351-50.892-10.869l-6.971 22.258c0.813-0.015 1.625-0.04 2.441-0.04 16.345 0 31.742 3.21 46.197 9.624 14.45 6.418 27.117 14.995 37.992 25.733 9.196 9.084 16.707 19.538 22.571 31.327h24.928c-0.358-0.889-0.721-1.776-1.098-2.657z" fill="#000000"></path>
	<path d="m63.793 255.17c-8.308-18.843-12.462-39.613-12.462-62.305 0-22.561 4.154-43.531 12.462-62.917 8.31-19.382 19.959-35.895 34.953-49.541l-27.152-26.948c-18.104 18.102-32.014 39.105-41.738 63.015-9.729 23.911-14.589 49.375-14.589 76.391 0 27.287 4.861 52.816 14.589 76.589 9.723 23.777 23.635 44.713 41.738 62.814l27.15-26.948c-14.994-14.588-26.643-31.304-34.951-50.15z" fill="#000000"></path>
	<path d="m132.16 100.52-2.076-24.835c-7.373 4.939-14.242 10.531-20.595 16.787-7.034 6.924-13.261 14.467-18.697 22.615l41.368-14.567z" fill="#000000"></path>
<path d="m285.4 239.57-51.082 0.838-1.219 5.863c-0.016 0.063-1.465 6.623-6.046 13.131-5.949 8.451-14.303 12.738-24.821 12.738-26.406 0-31.946-22.49-32.159-23.399l-1.279-5.839-5.977-0.06c-12.964-0.12-28.623-0.764-33.08-1.612-2.019-2.989-2.417-14.674-0.593-20.479 2.516-8.008 6.692-15.779 8.608-17.121 10.92-7.648 44.591-11.908 62.68-14.196 10.189-1.29 15.217-1.949 18.063-2.847 6.331-1.995 10.885-8.341 16.649-16.376 7.244-10.098 16.261-22.666 30.565-29.462 8.15-3.871 32.19-7.259 38.449-8.024-3.556-4.884-6.469-9.58-10.732-13.837-7.548 1.271-27.138 4.981-34.149 8.313-17.804 8.457-28.507 23.374-36.321 34.267-3.041 4.239-7.205 10.043-8.969 10.814-1.688 0.532-8.994 1.456-15.438 2.271-28.055 3.549-56.521 7.769-69.399 16.792-7.918 5.547-13.314 21.726-14.316 24.911-2.019 6.426-5.104 31.334 7.753 38.313 1.407 0.766 5.021 2.725 34.661 3.209 5.011 12.492 18.503 29.365 44.984 29.365 25.776 0 38.998-18.481 43.864-31.945l51.829-0.799c-0.551-0.533-1.101-1.065-1.641-1.617-3.961-4.052-7.582-8.503-10.884-13.212z" fill="#000000"></path>
<path d="m400.31 288.63c-7.993-15.195-17.439-26.501-27.995-33.68 10.556-7.18 20.002-18.484 27.995-33.68 11.614-22.081 17.17-46.835 17.416-60.493l0.189-10.572h-148.72l-0.219 10.163c-0.441 20.596 11.292 61.736 34.467 85.414 3.505 3.581 7.145 6.629 10.899 9.168-3.756 2.54-7.396 5.588-10.899 9.169-23.175 23.678-34.908 64.817-34.467 85.412l0.219 10.164h148.73l-0.189-10.572c-0.248-13.658-5.802-38.413-17.418-60.493zm-109.68-117.65h105.17c-4.627 26.252-22.859 72.397-52.445 72.397-8.762 0-17.194-4.078-25.066-12.121-15.654-15.99-24.886-43.081-27.659-60.276zm52.812 131.75c-12.588 0-52.813 36.199-52.813 36.199 2.773-17.194 12.005-44.284 27.657-60.274 7.872-8.043 16.306-12.121 25.066-12.121 29.586 0 47.818 46.146 52.445 72.396 3e-3 -1e-3 -38.65-36.2-52.355-36.2z" fill="#000000"></path>
</svg>