<?xml version='1.0' encoding='utf-8'?>
<!-- Generator: Adobe Illustrator 27.2.0, SVG Export Plug-In . SVG Version: 6.00 Build 0)  --><svg xmlns="http://www.w3.org/2000/svg" xmlns:xlink="http://www.w3.org/1999/xlink" version="1.1" id="Vrstva_1" x="0px" y="0px" viewBox="0 0 532.4 566.9" style="enable-background:new 0 0 532.4 566.9;" xml:space="preserve" width="375.6571" height="400.0">
<g>
	<path d="M250,168.1c1.5,0,3.1,0.2,4.5,0.6c1.5,0.4,3,0.9,4.5,1.5l16,6.4c6,2.5,10.3,6.8,12.8,12.7c2.5,5.9,2.5,12,0,18.2   c-1.6,3.7-2.6,7.2-3.2,10.5c-0.6,2.9-0.7,5.8-0.3,8.8c0.4,2.9,1.8,5.2,4.1,7h0.3c0.8,0.6,1.5,1.2,2,1.8c0.6,0.6,1.3,1.2,2,1.8   c3.9,2.9,7.6,6.1,11.1,9.6s6.8,7.2,9.9,11.1l0.3,0.3c1.2,1.6,2.7,2.6,4.5,3.2c1.9,0.6,3.7,0.9,5.7,0.9s3.9-0.2,5.8-0.6   c1.9-0.4,3.7-0.8,5.2-1.2c1.8-0.6,3.4-1.2,5-1.8c2.9-1.2,5.9-1.8,9-1.8c4.7,0,9,1.3,13,3.9s7,6.2,8.9,10.6l6.7,16   c2.5,6,2.6,12.1,0.2,18.1c-2.4,6-6.8,10.2-13,12.5c-3.7,1.6-6.9,3.3-9.6,5.2c-2.3,1.8-4.4,3.8-6.3,6.1c-1.9,2.3-2.5,4.9-1.9,7.6   v0.3c0.2,1,0.3,1.9,0.3,2.8s0.1,1.8,0.3,2.8c0.4,5.1,0.6,10.1,0.7,15c0.1,5-0.1,10-0.7,15c-0.4,2.7,0.3,5.3,2.2,7.7   c1.9,2.4,3.9,4.4,6.3,6c2.7,2.1,5.9,3.9,9.6,5.2c6,2.5,10.3,6.8,12.8,12.8c2.5,6,2.5,12,0,17.8l-6.7,16c-2,4.7-5,8.3-9,10.8   c-4.1,2.5-8.4,3.8-12.8,3.8c-3.1,0-6.1-0.6-9-1.8c-1.6-0.6-3.2-1.2-5-1.8c-1.6-0.4-3.3-0.8-5.1-1.2c-1.9-0.4-3.8-0.6-5.7-0.6   s-3.8,0.3-5.7,0.9c-1.9,0.6-3.5,1.7-4.8,3.2v0.3c-0.4,0.6-0.9,1.2-1.5,1.7s-1.1,1.2-1.5,1.8c-3.3,3.9-6.7,7.7-10.2,11.5   c-3.5,3.8-7.2,7.3-11.1,10.6l-0.3,0.3c-2.1,1.6-3.4,3.8-3.6,6.7c-0.3,2.9-0.2,5.7,0.1,8.5c0.6,3.3,1.6,6.8,2.9,10.5   c2.5,6.2,2.6,12.3,0.1,18.2c-2.4,5.9-6.8,10.2-13,12.7l-16,6.7c-2.7,1.2-5.7,1.8-9,1.8c-4.5,0-8.8-1.3-12.8-3.8   c-4.1-2.5-7-6.1-8.8-10.8c-1.6-3.3-3.2-6.3-5-9c-1.6-2.1-3.4-4.2-5.4-6.1c-2-1.9-4.3-2.9-6.9-2.9c-0.8,0-1.3,0.1-1.5,0.3h-0.3   c-1,0.2-2,0.3-2.9,0.3s-2,0.1-2.9,0.3c-2.7,0.2-5.5,0.3-8.3,0.4s-5.7,0.2-8.6,0.2h-6.4c-2.1,0-4.4-0.2-6.7-0.6h-1.5   c-2.5,0-4.9,1-7,2.9s-4,4-5.5,6.1c-2,2.7-3.6,5.7-5,9c-2,4.7-4.9,8.3-8.9,10.8c-4,2.5-8.3,3.8-13,3.8c-2.9,0-5.8-0.6-8.8-1.8   l-16-6.7c-6.2-2.5-10.5-6.8-13-12.7c-2.4-5.9-2.4-12,0.1-18.2c1.4-3.5,2.4-6.9,3.2-10.2c0.4-2.7,0.4-5.5,0.1-8.5   c-0.3-2.9-1.6-5.2-3.9-7h-0.3l-4.4-3.5c-3.9-3.3-7.6-6.7-11.1-10.2s-6.8-7.2-9.9-11.1l-0.3-0.3c-1.2-1.6-2.6-2.6-4.4-3.2   s-3.7-0.9-5.8-0.9s-4.1,0.2-5.8,0.6c-1.8,0.4-3.4,0.8-5,1.2c-1.8,0.6-3.4,1.2-5,1.8c-2.9,1.2-5.9,1.8-9,1.8c-4.7,0-9-1.3-13-3.8   c-4-2.5-6.9-6.1-8.9-10.8l-6.7-16c-1.2-2.9-1.8-5.9-1.8-8.9s0.6-5.9,1.8-8.8c1.2-2.8,2.9-5.4,5.1-7.6c2.2-2.2,4.8-4,7.7-5.4   c3.7-1.4,6.9-3,9.6-5c2.3-1.6,4.4-3.5,6.1-5.8s2.4-5,2-7.9v-0.3c0-1-0.1-1.9-0.1-2.8c-0.1-0.9-0.2-1.8-0.4-2.8   c-0.4-5.1-0.6-10.1-0.6-15s0.2-10,0.6-15v-0.3c0.4-2.7-0.4-5.2-2.2-7.6c-1.9-2.3-3.9-4.3-6.3-5.8c-2.7-1.9-5.9-3.7-9.6-5.2   c-6.2-2.5-10.6-6.8-13-12.8s-2.4-12.1,0.1-18.1l6.7-16c1.9-4.5,4.9-8,8.9-10.6c4-2.6,8.3-3.9,13-3.9c3.3,0,6.3,0.7,9,2   c1.4,0.6,2.9,1.2,4.7,1.8c1.6,0.4,3.2,0.8,5,1.2s3.7,0.6,5.8,0.6s4.1-0.3,5.8-0.9c1.8-0.6,3.2-1.6,4.4-3.2v-0.6   c0.8-0.8,1.5-1.5,2-2.2c0.6-0.7,1.3-1.4,2-2.2c3.1-3.7,6.4-7.3,9.8-10.9c3.4-3.6,7.1-6.9,10.9-9.8l0.3-0.3c2.1-1.6,3.4-3.8,3.8-6.9   c0.4-3,0.4-6,0-8.9c-0.6-3.5-1.7-7-3.2-10.5c-2.5-6-2.6-12.1-0.1-18.1c2.4-6,6.8-10.3,13-12.8l16-6.4c2.9-1.2,5.8-1.8,8.8-1.8   c4.5,0,8.8,1.3,12.8,3.8c4.1,2.5,7.1,6.1,9,10.8c1.4,3.5,2.9,6.5,4.7,9c1.5,2.1,3.4,4.1,5.4,6c2,1.9,4.4,2.8,7.1,2.8h1.8   c1-0.2,1.9-0.3,2.9-0.3s1.9-0.1,2.9-0.3c2.7-0.2,5.5-0.3,8.3-0.4s5.7-0.1,8.6-0.1h6.4c2.1,0,4.4,0.2,6.7,0.6h1.5   c2.3,0,4.6-0.9,6.7-2.8c2.1-1.9,4-3.9,5.5-6.3c1.9-2.7,3.7-5.8,5.2-9.3c1.8-4.5,4.7-8,8.8-10.6C241.2,169.3,245.5,168,250,168.1   L250,168.1L250,168.1z M250,189.4c-1.2,0-2,0.5-2.3,1.5c-0.2,0.6-0.9,2.1-2,4.7s-2.8,5.4-5,8.5c-5.2,7.6-10.5,12.5-15.9,14.9   c-5.4,2.3-10,3.5-13.9,3.5c-0.8,0-1.5-0.1-2.2-0.1c-0.7-0.1-1.3-0.1-1.9-0.1c-1.6-0.2-3.2-0.3-5-0.4s-3.6-0.1-5.5-0.1   c-4.3,0-9.3,0.3-15.2,0.9h-2.8c-0.9,0-1.7,0.1-2.5,0.3c-0.8,0.2-2.1,0.3-4.1,0.3c-3.9,0-8.6-1.2-14.1-3.5   c-5.5-2.3-10.9-7.3-15.9-14.9c-2-2.9-3.5-5.5-4.7-7.9c-1.2-2.3-2-4-2.3-5c-0.2-0.6-0.5-1-0.9-1.2c-0.4-0.2-0.8-0.3-1.2-0.3   c-0.2,0-0.4,0.1-0.4,0.1c-0.1,0.1-0.2,0.1-0.4,0.1l-16,6.4c-1.4,0.6-1.8,1.8-1.2,3.5c0.4,0.6,1.1,2.3,2,5.1c1,2.8,1.9,6.2,2.6,10.1   c0.8,5.1,0.9,9.5,0.3,13.4c-0.6,3.9-1.5,7.3-2.8,10.2c-1.3,2.9-2.8,5.3-4.5,7.1c-1.8,1.9-3.3,3.4-4.7,4.5v0.3   c-3.7,2.7-7,5.7-10.1,9c-3,3.3-5.7,6.3-8,9v0.3c-0.6,0.6-1.2,1.2-1.8,1.8c-0.6,0.6-1.1,1.3-1.5,2c-6.4,8.2-15.5,12.3-27.1,12.3   c-5.6,0-10.6-0.7-15-2c-4.4-1.4-7.3-2.3-8.9-2.9h-0.6c-1.2,0-1.9,0.5-2.3,1.5L26,297.9c-0.4,0.6-0.4,1.2,0,1.8   c0.4,0.8,0.8,1.3,1.2,1.5c0.6,0.2,2.2,1,5,2.3c2.7,1.4,5.7,3.2,9,5.5c4.1,2.9,7.3,5.9,9.8,9c2.4,3.1,4.2,6.1,5.2,9   c1.1,2.9,1.7,5.6,1.9,8.2c0.2,2.5,0.2,4.8,0,6.7c-0.4,4.5-0.5,9-0.4,13.6c0.1,4.6,0.3,8.6,0.7,12.1v0.6c0,0.8,0,1.5,0.1,2.2   c0.1,0.7,0.1,1.5,0.1,2.5c0.8,5.1,0.3,9.7-1.3,14c-1.7,4.3-4,8.2-7,11.7c-3,3.5-6.5,6.6-10.4,9.2c-3.9,2.6-7.9,4.7-12,6.3   c-1.6,0.4-1.9,1.4-1.2,2.9l6.4,16c0.6,1,1.4,1.5,2.3,1.5c0.2,0,0.3,0,0.4-0.1s0.2-0.1,0.4-0.1c0.4-0.2,1.3-0.6,2.8-1.2   c1.5-0.6,3.3-1.2,5.5-1.8c2.2-0.6,4.7-1.1,7.3-1.6c2.6-0.5,5.4-0.7,8.3-0.7c7.6,0,13.5,1.5,17.6,4.4s7.2,5.5,9.2,7.9h0.3   c2.7,3.7,5.7,7.1,9,10.1c3.3,3,6.4,5.7,9.3,8c1.2,1.6,2.3,2.7,3.5,3.5h0.3c4.1,3.1,7,6.8,8.9,10.9s2.9,8.6,3.2,13.1   c0.3,4.6,0,9.2-0.9,13.9c-0.9,4.7-2.2,9-3.9,12.8c-0.6,0.6-0.6,1.1,0,1.5c0.2,0.4,0.4,0.7,0.6,0.9c0.2,0.2,0.4,0.4,0.6,0.6   l15.8,6.7c0.2,0.2,0.5,0.3,0.9,0.3c1,0,1.8-0.5,2.3-1.5c0.2-0.8,0.9-2.4,2-5s2.8-5.2,5-8.2c5.2-7.4,10.6-12.3,16-14.7   s10.1-3.6,14-3.6c0.8,0,1.5,0.1,2,0.3c0.6,0.2,1.3,0.3,2,0.3c1.5,0.2,3.2,0.3,5,0.4s3.6,0.1,5.5,0.1c2.3,0,4.7,0,7.1-0.1   c2.4-0.1,5.1-0.2,8-0.4c1.8-0.6,3.5-0.9,5.2-0.9c0.8-0.2,2.1-0.3,4.1-0.3c3.9,0,8.6,1.2,14,3.6c5.4,2.4,10.8,7.3,16,14.7   c1.8,2.7,3.2,5.2,4.4,7.6c1.2,2.3,1.9,4,2.3,5c0.2,1.2,0.9,1.8,2,1.8c0.4,0,0.7-0.1,0.9-0.3l16.1-6.7c1.8-0.6,2.2-1.7,1.5-3.2   c-0.2-0.4-0.8-2-1.9-5c-1.1-2.9-1.9-6.2-2.5-9.9c-1-5.2-1.2-9.8-0.6-13.7c0.6-3.9,1.5-7.3,2.8-10.2c1.3-2.9,2.7-5.3,4.4-7.3   c1.6-1.9,3.2-3.5,4.8-4.7c3.5-2.9,7-6.1,10.4-9.6c3.4-3.5,6.2-6.7,8.3-9.6c0.4-0.6,0.8-1.1,1.3-1.6c0.5-0.5,0.9-1,1.3-1.6   c3.3-3.9,7.2-7,11.7-9.2c4.5-2.2,9.5-3.4,15.2-3.4s10.7,0.8,15.2,2.3c4.5,1.6,7.4,2.6,8.8,3.2c0.2,0,0.3,0,0.3,0.1   c0,0.1,0.1,0.1,0.3,0.1h0.3c1,0,1.8-0.5,2.3-1.5l6.4-16c0.2-0.6,0.2-1.2,0-1.8c-0.4-0.8-0.8-1.3-1.2-1.5c-0.6-0.2-2.2-0.9-5-2.2   s-5.7-3.1-9-5.4c-4.3-3.1-7.6-6.3-10.1-9.5c-2.4-3.2-4.2-6.3-5.4-9.2c-1.2-2.9-1.8-5.7-1.9-8.3c-0.1-2.6,0-4.8,0.1-6.6   c0.4-4.5,0.5-9,0.4-13.6c-0.1-4.6-0.3-8.6-0.7-12.1v-2.5c0-0.7-0.1-1.5-0.3-2.5c-0.6-5-0.1-9.7,1.5-14s3.9-8.2,7-11.7   s6.6-6.6,10.5-9.2c3.9-2.6,7.9-4.7,12-6.3c1.5-0.4,1.9-1.4,1.2-2.9l-6.4-16c-0.2-1-1-1.5-2.3-1.5c-0.4,0-0.7,0.1-0.9,0.3   c-1.2,0.4-4.1,1.3-8.8,2.8s-9.8,2.2-15.5,2.2c-7.4,0-13.2-1.4-17.4-4.2c-4.2-2.8-7.2-5.4-9.2-7.7v-0.3h-0.3   c-2.7-3.5-5.8-6.9-9.2-10.1c-3.4-3.2-6.5-6-9.2-8.3c-0.6-0.4-1.2-0.9-1.9-1.5c-0.7-0.6-1.3-1.1-1.9-1.5c-4.1-3.1-7.1-6.8-9-10.9   c-2-4.2-3.1-8.6-3.4-13.1c-0.3-4.6,0-9.1,1-13.7c1-4.6,2.3-8.9,4.1-13c0.2-0.8,0.2-1.5,0-2c-0.2-0.6-0.6-1-1.2-1.2l-16.1-6.4   C250.6,189.5,250.3,189.4,250,189.4L250,189.4L250,189.4z M192.2,462.7h-0.3c-14.6,0-28.3-2.8-41.1-8.5   c-12.8-5.6-24-13.3-33.4-22.9s-16.9-20.9-22.5-33.8c-5.6-12.9-8.3-26.7-8.3-41.3s2.8-28.3,8.5-41.1s13.2-24.1,22.8-33.7   c9.5-9.6,20.7-17.3,33.4-22.9c12.7-5.6,26.4-8.5,41-8.5h0.3c14.6,0,28.3,2.9,41.3,8.6c12.9,5.7,24.2,13.4,33.8,23   c9.6,9.6,17.2,20.9,22.8,33.8c5.5,12.9,8.3,26.7,8.3,41.3s-2.8,28.3-8.5,41.1c-5.6,12.8-13.3,24.1-22.9,33.7   c-9.6,9.6-20.9,17.2-33.8,22.8C220.5,460,206.8,462.7,192.2,462.7L192.2,462.7L192.2,462.7z M192.2,271.3   c-11.7,0-22.6,2.2-32.8,6.7c-10.2,4.5-19.2,10.5-26.8,18.2c-7.7,7.7-13.8,16.7-18.2,27.1c-4.5,10.4-6.7,21.4-6.7,33.1   s2.2,22.7,6.6,33c4.4,10.3,10.4,19.3,17.9,26.8c7.6,7.6,16.5,13.6,26.8,18.1s21.3,6.7,33,6.7h0.3c11.7,0,22.7-2.2,33.1-6.6   c10.4-4.4,19.5-10.4,27.1-17.9c7.7-7.6,13.8-16.5,18.4-26.8s6.9-21.3,6.9-33s-2.2-22.7-6.7-33.1c-4.5-10.4-10.5-19.5-18.2-27.3   c-7.7-7.8-16.7-13.9-27.1-18.4c-10.4-4.5-21.4-6.7-33.1-6.7L192.2,271.3L192.2,271.3L192.2,271.3z M408.1,22.5   c4.1,0,7.5,1.5,10.4,4.4s4.2,6.4,4.2,10.5c0,2.5,0.3,4.9,0.9,7c0.4,1.8,1,3.5,1.9,5.1c0.9,1.7,2.3,2.7,4.2,3.1l0.3,0.3   c0.6,0.2,1.7,0.5,3.2,0.9c3.1,1,6.1,2,9,3.1c2.9,1.1,5.7,2.4,8.5,3.9h0.3c0.4,0.8,1.5,1.2,3.2,1.2c1.4,0,2.8-0.3,4.2-1   c1.5-0.7,2.8-1.5,3.9-2.5c1.4-1,2.7-2.1,4.1-3.5c1.4-1.5,3-2.7,5-3.4c1.9-0.7,3.9-1,5.8-1c3.5,0,6.9,1.5,10.2,4.4l7.6,7.9   c3.1,2.7,4.7,6.2,4.7,10.4s-1.6,7.7-4.7,10.7c-1.8,1.9-3.2,3.8-4.4,5.5c-1,1.6-1.7,3.2-2.2,4.8c-0.5,1.7-0.2,3.3,0.7,4.8l0.3,0.3   c0.2,0.6,0.4,1.1,0.6,1.6c0.2,0.5,0.5,1,0.9,1.6c1.5,2.9,2.9,5.8,4.1,8.6c1.2,2.8,2.2,5.7,3.2,8.6v0.3c0.6,1.8,1.7,3.1,3.2,4.1   c1.6,1,3.2,1.7,5,2c1.8,0.4,4.1,0.7,7,0.9c4.3,0,7.8,1.4,10.7,4.2s4.2,6.4,4.2,10.6v10.8c0,4.1-1.4,7.5-4.2,10.4s-6.4,4.2-10.7,4.2   h-0.3c-0.4,0-1.3,0.1-2.8,0.1c-1.5,0.1-3,0.4-4.5,0.9c-1.6,0.5-3.1,1.2-4.5,2c-1.5,0.9-2.5,2.2-3.1,3.9v0.3l-0.9,2.6   c-1,3.1-2,6.2-3.1,9.3c-1.1,3.1-2.4,6-3.9,8.8h-0.3c-1,1.6-1.2,3.3-0.6,5.1c0.6,1.9,1.4,3.6,2.3,5.1c1.2,1.9,2.6,3.8,4.4,5.5   c2.9,2.9,4.4,6.4,4.4,10.5s-1.5,7.7-4.4,10.8l-7.9,7.6c-1.4,1.4-3,2.4-4.8,3.1c-1.8,0.7-3.7,1-5.4,1c-3.9,0-7.5-1.4-10.8-4.1   c-1.2-1.2-2.4-2.2-3.8-3.2c-1.2-1-2.4-1.8-3.8-2.5s-2.8-1-4.4-1c-1.2,0-2.3,0.3-3.5,0.9c-0.6,0.4-1.1,0.7-1.6,0.9   c-0.5,0.2-1,0.5-1.6,0.9c-5.7,2.9-11.5,5.2-17.5,7c-1.8,0.4-3.1,1.4-3.9,3.1c-0.9,1.7-1.5,3.4-1.9,5.1c-0.6,2.1-0.9,4.5-0.9,7   c0,4.3-1.5,7.9-4.5,10.8c-3,2.9-6.5,4.4-10.4,4.4h-11.1c-4.1,0-7.6-1.5-10.5-4.4s-4.4-6.5-4.4-10.8c0.2-2.5,0-4.9-0.6-7   c-0.4-1.8-1.1-3.4-2-5.1c-1-1.6-2.3-2.7-4.1-3.1h-0.3c-0.6-0.2-1.1-0.3-1.6-0.4s-1-0.2-1.6-0.4c-3.1-1-6.1-1.9-9-2.9   c-2.9-1-5.7-2.2-8.5-3.8l-0.3-0.3c-0.6-0.4-1.6-0.6-2.9-0.6c-1.6,0-3.1,0.3-4.5,1c-1.5,0.7-2.8,1.4-3.9,2.2c-1.4,1-2.7,2-4.1,3.2   c-2.7,2.7-6.3,4.1-10.8,4.1c-4.1,0-7.5-1.4-10.2-4.1l-7.9-7.6c-2.9-2.9-4.4-6.4-4.4-10.5s1.5-7.7,4.4-10.8c1.8-1.6,3.2-3.3,4.4-5.2   c1-1.6,1.8-3.2,2.3-5.1c0.6-1.9,0.4-3.6-0.6-5.1h-0.3c-0.4-0.6-0.7-1.1-0.9-1.6c-0.2-0.5-0.6-1-1.2-1.6c-1.4-2.7-2.6-5.5-3.8-8.5   c-1.2-2.9-2.2-5.9-3.2-9c-0.4-1.6-1.4-2.8-3.1-3.8c-1.7-1-3.4-1.6-5.1-2c-2.1-0.6-4.4-0.9-6.7-0.9c-4.3,0-7.9-1.5-10.8-4.4   c-2.9-2.9-4.4-6.4-4.4-10.5v-10.8c0-4.3,1.5-7.8,4.4-10.6c2.9-2.8,6.5-4.2,10.8-4.2c0.6,0,1.6-0.1,2.9-0.1c1.4-0.1,2.9-0.4,4.5-0.9   s3.2-1.2,4.5-2.2c1.4-1,2.2-2.2,2.6-3.8v-0.3c0.4-0.6,0.6-1.2,0.7-1.8c0.1-0.6,0.2-1.1,0.4-1.5c1-2.9,2-5.9,3.2-8.9   c1.2-3,2.5-5.9,4.1-8.6v-0.3c1-1.6,1.2-3.2,0.6-5c-0.6-1.8-1.4-3.4-2.3-5c-1.2-1.9-2.6-3.8-4.4-5.5c-2.7-2.9-4.1-6.4-4.1-10.5   s1.4-7.5,4.1-10.2l7.9-7.9c2.9-2.9,6.4-4.4,10.5-4.4s7.8,1.5,10.5,4.4c1.4,1.4,2.7,2.5,4.1,3.5c1.2,1,2.5,1.8,3.9,2.3   c1.5,0.6,3,0.9,4.5,0.9c1.4,0,2.4-0.2,3.2-0.6v-0.3c0.6-0.4,1.1-0.7,1.6-0.9s1-0.5,1.6-0.9c2.9-1.5,5.8-2.9,8.6-4.1   s5.8-2.2,8.9-3.2c1.8-0.4,3.1-1.4,3.9-3.1s1.5-3.5,1.9-5.4c0.6-2.1,0.9-4.5,0.9-7c0-4.1,1.5-7.6,4.4-10.5c2.9-2.9,6.4-4.4,10.5-4.4   L408.1,22.5L408.1,22.5L408.1,22.5z M397.9,38.5c-0.2,6.2-1.6,12.2-4.2,18.1s-7.2,9.5-13.9,11.1c-2.7,1-5.3,2-7.7,3.1   c-2.4,1.1-4.7,2.1-6.9,3.1c-1.2,0.8-2,1.3-2.6,1.5c-3.7,2.1-7.4,3.2-11.1,3.2c-2.7,0-5.2-0.4-7.6-1.2c-2.3-0.8-4.5-1.8-6.6-2.9   s-3.8-2.4-5.2-3.7c-1.5-1.3-2.7-2.3-3.6-3.1l-6.4,6.1c4.3,4.5,7.5,9.8,9.8,15.9c2.2,6.1,1.6,12.2-1.9,18.2   c-1.4,2.5-2.5,5.1-3.4,7.7c-0.9,2.6-1.7,5-2.5,7.2c-0.2,0.8-0.5,1.8-0.9,2.9c-1.6,5.6-5,10.1-10.2,13.3c-5.2,3.2-11.6,4.9-19,5.1   v8.8c2.9,0.2,5.9,0.6,9,1.3c3.1,0.7,6,1.8,8.8,3.2s5.1,3.4,7.1,5.7c2,2.3,3.5,5.2,4.5,8.5c0.8,2.5,1.7,5.1,2.8,7.6   c1.1,2.5,2.1,4.9,3.1,7c0.8,1.2,1.3,2,1.5,2.6c1.8,3.1,2.7,6.2,2.9,9.3c0.2,3.1-0.1,6.1-1,9c-0.9,2.9-2.2,5.7-3.9,8.3   s-3.6,5-5.5,7.1l6.1,6.4c1.9-1.8,5-4,9-6.7c4.1-2.7,8.9-4.1,14.3-4.1c3.9,0,7.6,0.9,11.1,2.6c2.3,1.4,4.8,2.5,7.4,3.5   c2.6,1,5,1.9,7.2,2.6h0.3l2.6,0.9c3.3,1,6.1,2.5,8.5,4.5c2.3,2,4.2,4.4,5.7,7.1c1.5,2.7,2.5,5.6,3.1,8.6c0.6,3,0.9,6,0.9,8.9h9.3   c0-6.2,1.4-12.2,4.1-17.9c2.7-5.7,7.5-9.6,14.3-11.5c2.5-0.8,5-1.7,7.4-2.8s4.7-2.1,6.9-3.1h0.3v-0.3c0.4-0.2,0.8-0.4,1.3-0.6   s0.9-0.4,1.3-0.6c3.1-1.9,6.8-2.9,11.1-2.9c5.2,0,9.9,1.3,14,3.9s7,4.8,8.8,6.6l6.1-6.4c-4.1-4.5-7.2-9.7-9.3-15.8   s-1.6-12.1,1.8-18.1c1.4-2.7,2.5-5.4,3.4-8c0.9-2.6,1.6-5,2.2-7.1c0.4-1.2,0.7-1.9,0.9-2.3c1.5-5.6,5-10.1,10.2-13.3   s11.7-4.9,19.2-5.1v-9c-6-0.2-12-1.6-17.9-4.4c-5.9-2.7-9.9-7.4-11.8-14c-0.8-2.7-1.7-5.3-2.6-7.7s-2-4.7-2.9-6.9   c-0.8-1.2-1.3-2-1.5-2.6c-1.8-3.1-2.8-6.2-3.1-9.3s0-6.2,0.9-9.2c0.9-3,2.2-5.8,3.9-8.5s3.6-5,5.5-7.2l-5.8-6.4   c-1,0.8-2.2,1.8-3.6,3.1c-1.5,1.3-3.2,2.5-5.2,3.7s-4.3,2.2-6.7,3.1c-2.4,0.9-4.9,1.3-7.4,1.3c-4.5,0-8.2-1.1-11.1-3.2   c-2.5-1.4-5.1-2.5-7.7-3.3c-2.6-0.9-5-1.7-7.2-2.5l-2.6-0.9c-3.5-0.8-6.4-2.2-8.8-4.2c-2.3-2-4.2-4.4-5.7-7.2   c-1.5-2.7-2.5-5.6-3.2-8.8s-1-6.1-1-9L397.9,38.5L397.9,38.5L397.9,38.5L397.9,38.5z M403.1,215c-6.8,0-13.4-1-19.7-2.9   c-6.3-1.9-12.2-4.8-17.5-8.5c-5.3-3.7-10.1-8.1-14.3-13.3c-4.2-5.1-7.5-10.8-10.1-17.1c-3.5-8.4-5.2-17-5.1-26   c0.1-8.9,1.8-17.4,5.1-25.2c3.3-7.9,8-15,14.1-21.4c6.1-6.4,13.5-11.4,22-14.9c8.4-3.3,16.7-5,25.1-5c7,0,13.7,1,20.1,2.9   c6.4,1.9,12.3,4.8,17.7,8.5c5.3,3.7,10.2,8.1,14.4,13.3c4.3,5.2,7.7,10.9,10.2,17.4c3.5,8.2,5.2,16.6,5.2,25.2s-1.8,17.2-5.5,25.5   c-3.3,8.4-8.1,15.7-14.4,21.9c-6.3,6.2-13.7,11-22,14.3c-4.1,1.6-8.2,2.8-12.4,3.8C411.9,214.6,407.6,215,403.1,215L403.1,215   L403.1,215z M402.8,93.7c-6.8,0-13.5,1.4-20.1,4.1c-7,2.9-13,7-17.9,12.1c-5,5.2-8.8,10.9-11.4,17.4s-4,13.2-4.2,20.3   c-0.2,7.1,1.2,14.1,4.1,21.1c4.3,10.3,10.9,18.5,20,24.5c9,6,19,9,29.9,9c7.6,0,14.5-1.4,20.7-4.1c6.6-2.7,12.4-6.6,17.5-11.7   c5-5.1,8.9-10.9,11.7-17.5c6.2-13.8,6.4-27.6,0.6-41.4c-4.3-10.3-11-18.5-20.1-24.7C424.3,96.7,414.1,93.7,402.8,93.7L402.8,93.7   L402.8,93.7z"></path>
</g>
</svg>