<?xml version='1.0' encoding='utf-8'?>
<!-- Generator: Adobe Illustrator 16.0.0, SVG Export Plug-In . SVG Version: 6.00 Build 0)  --><svg xmlns="http://www.w3.org/2000/svg" xmlns:cc="http://creativecommons.org/ns#" xmlns:dc="http://purl.org/dc/elements/1.1/" xmlns:ns="&amp;ns_sfw;" xmlns:rdf="http://www.w3.org/1999/02/22-rdf-syntax-ns#" width="188px" height="425.2px" version="1.2" viewBox="0 0 188 425.2" xml:space="preserve">
<metadata>
	<ns:sfw>
		<ns:slices></ns:slices>
		<ns:sliceSourceBounds x="337.7" y="160.406" width="165.6" height="291.195" bottomLeftOrigin="true"></ns:sliceSourceBounds>
	</ns:sfw>
<rdf:RDF><cc:Work rdf:about=""><dc:format>image/svg+xml</dc:format><dc:type rdf:resource="http://purl.org/dc/dcmitype/StillImage"></dc:type><dc:title></dc:title></cc:Work></rdf:RDF></metadata>
	<path d="m176.8 261.69c0 51.198-33.6 87.999-82.801 87.999-44.399 0-82.801-31.999-82.5-89.6h50.101c2.399 22.4 18 28.8 31.2 28.8 18 0 30-11.199 30-28.8 0-17.6-12-28.799-31.2-28.799h-18v-52.8h16.8c18.002 0 28.801-11.199 28.801-28.801 0-17.6-9.6-30.398-28.801-30.398-18 0-28.8 11.2-30 33.6h-49.2c0-51.199 24-94.397 82.801-94.397 48 0 76.801 39.999 76.801 81.599 0 25.2-8.102 45.199-24.301 57.6 21 13.598 30.299 38.397 30.299 63.997z" fill="#000000"></path>
</svg>