<?xml version='1.0' encoding='utf-8'?>
<!-- Generator: Adobe Illustrator 16.0.0, SVG Export Plug-In . SVG Version: 6.00 Build 0)  --><svg xmlns="http://www.w3.org/2000/svg" xmlns:cc="http://creativecommons.org/ns#" xmlns:dc="http://purl.org/dc/elements/1.1/" xmlns:ns="&amp;ns_sfw;" xmlns:rdf="http://www.w3.org/1999/02/22-rdf-syntax-ns#" width="654px" height="432px" version="1.2" viewBox="0 0 654 432" xml:space="preserve">
<metadata>
	<ns:sfw>
		<ns:slices></ns:slices>
		<ns:sliceSourceBounds x="128.745" y="157.901" width="583.196" height="291.197" bottomLeftOrigin="true"></ns:sliceSourceBounds>
	</ns:sfw>
<rdf:RDF><cc:Work rdf:about=""><dc:format>image/svg+xml</dc:format><dc:type rdf:resource="http://purl.org/dc/dcmitype/StillImage"></dc:type><dc:title></dc:title></cc:Work></rdf:RDF></metadata>
	<path d="m35.245 210c0-81.999 52.801-145.6 115.2-145.6 62.401 0 115.2 63.199 115.2 145.6s-52.8 145.6-115.2 145.6c-62.399-1e-3 -115.2-63.2-115.2-145.6zm176.4 0c0-45.599-28.2-81.599-61.201-81.599-33 0-61.199 36.799-61.199 81.599 0 45.601 28.199 81.601 61.199 81.601 33.001-1e-3 61.201-36.001 61.201-81.601z" fill="#000000"></path>
	<path d="m337.64 131.6v57.599h96v59.199h-96v102.4h-51.602v-281.6h156v62.399h-104.4z" fill="#000000"></path>
	<path d="m514.04 131.6v57.599h96.003v59.199h-96.003v102.4h-51.6v-281.6h156v62.399h-104.4z" fill="#000000"></path>
</svg>