<?xml version='1.0' encoding='utf-8'?>
<!-- Generator: Adobe Illustrator 16.0.0, SVG Export Plug-In . SVG Version: 6.00 Build 0)  --><svg xmlns="http://www.w3.org/2000/svg" xmlns:cc="http://creativecommons.org/ns#" xmlns:rdf="http://www.w3.org/1999/02/22-rdf-syntax-ns#" xmlns:ns0="&amp;ns_sfw;" xmlns:dc="http://purl.org/dc/elements/1.1/" width="841.89px" height="425.2px" enable-background="new 0 0 841.891 425.2" version="1.1" viewBox="0 0 841.89 425.2" xml:space="preserve">
<metadata>
	<rdf:RDF>
		<cc:Work rdf:about="">
			<dc:format>image/svg+xml</dc:format>
			<dc:type rdf:resource="http://purl.org/dc/dcmitype/StillImage"></dc:type>
			<dc:title></dc:title>
		</cc:Work>
	</rdf:RDF>
	<ns0:sfw>
		<ns0:slices></ns0:slices>
		<ns0:sliceSourceBounds x="22.457" y="155.768" width="798.083" height="283.464" bottomLeftOrigin="true">
			</ns0:sliceSourceBounds>
	</ns0:sfw>
	<ns0:sfw>
		<ns0:slices></ns0:slices>
		<ns0:sliceSourceBounds x="22.458" y="169.941" width="798.081" height="283.464" bottomLeftOrigin="true">
			</ns0:sliceSourceBounds>
	</ns0:sfw>
	<ns0:sfw>
		<ns0:slices></ns0:slices>
		<ns0:sliceSourceBounds x="22.458" y="169.941" width="798.08" height="283.467" bottomLeftOrigin="true"></ns0:sliceSourceBounds>
	</ns0:sfw>
</metadata>
<path d="m22.903 198.42c0-63.857 41.119-113.39 89.714-113.39s89.714 49.217 89.714 113.39c0 64.169-41.119 113.39-89.714 113.39-48.596 0-89.714-49.217-89.714-113.39zm137.37 0c0-35.512-21.961-63.547-47.661-63.547-25.699 0-47.659 28.657-47.659 63.547 0 35.512 21.96 63.548 47.659 63.548 25.7 2e-3 47.661-28.036 47.661-63.548z" fill="#FFCE63"></path>
<path d="m258.4 137.36v44.855h74.762v46.104h-74.762v79.744h-40.187v-219.3h121.49v48.593h-81.303v4e-3z" fill="#FFCE63"></path>
<path d="m395.77 137.36v44.855h74.763v46.104h-74.763v79.744h-40.187v-219.3h121.49v48.593h-81.302l-1e-3 4e-3z" fill="#FFCE63"></path>
<path d="m653.97 285.17c-7.604-3.444-14.646-6.657-21.157-9.575-2.799-1.297-5.628-2.595-8.456-3.828-2.8-1.238-5.451-2.445-7.956-3.566-2.505-1.148-4.771-2.18-6.836-3.094-2.063-0.914-3.624-1.65-4.715-2.209-3.153-1.414-6.188-2.123-9.105-2.123-2.505-0.089-4.685 0.414-6.567 1.563-1.914 1.15-3.392 2.74-4.479 4.807-0.56 1.09-1.797 3.238-3.741 6.48-1.941 3.271-4.271 7.104-6.925 11.549-2.648 4.451-5.565 9.252-8.78 14.41-3.183 5.156-6.361 10.166-9.519 15.027-3.123 4.891-6.1 9.311-8.84 13.26-2.771 3.949-5.068 6.953-6.925 9.018-0.977 1.211-2.239 2.033-3.83 2.533-1.563 0.475-3.099 0.736-4.627 0.736-2.271 0-4.601-0.473-6.983-1.387-2.387-0.941-4.597-2.236-6.6-3.918-2.004-1.683-3.625-3.652-4.862-5.924-1.268-2.271-1.886-4.771-1.886-7.482 0-3.564 1.267-7.277 3.741-11.049 1.942-2.947 4.652-6.867 8.134-11.787 3.477-4.951 7.308-10.314 11.462-16.119 4.185-5.805 8.457-11.729 12.847-17.797 4.394-6.07 8.457-11.669 12.2-16.824 3.741-5.158 6.954-9.576 9.604-13.261 2.65-3.688 4.359-6.013 5.131-6.983 1.822-2.504 4.184-4.42 7.067-5.771 2.858-1.354 5.981-2.032 9.341-2.032 0.77 0 1.505 0.028 2.211 0.059 0.681 0.061 1.413 0.146 2.183 0.268 2.063 0.439 5.245 1.119 9.604 2.029 4.331 0.914 8.663 1.916 12.994 3.01 5.102 1.179 10.521 2.504 16.27 3.89l20 56.09zm13.818-156.76c0 8.692-1.439 16.854-4.302 24.545-2.888 7.722-6.807 14.646-11.787 20.833l8.782 8.781-10.254 10.254-8.958-8.779c-6.158 5.098-13.111 9.045-20.803 11.844-7.69 2.83-15.823 4.243-24.397 4.243-8.663 0-16.854-1.413-24.546-4.243-7.721-2.799-14.645-6.746-20.833-11.844l-8.78 8.779-10.225-10.254 8.78-8.781c-5.102-6.188-9.075-13.111-11.875-20.833-2.828-7.688-4.242-15.853-4.242-24.545 0-8.545 1.414-16.678 4.242-24.397 2.8-7.69 6.773-14.614 11.875-20.803l-8.78-8.781 10.225-10.402 8.78 8.929c6.188-5.188 13.112-9.193 20.833-12.022 7.69-2.829 15.883-4.243 24.546-4.243 8.574 0 16.707 1.414 24.397 4.243 7.688 2.829 14.645 6.836 20.803 12.022l8.958-8.929 10.255 10.401-8.782 8.781c4.98 6.188 8.899 13.111 11.787 20.803 2.859 7.721 4.301 15.853 4.301 24.398zm-128.97 0.176c0 6.602 1.063 12.877 3.185 18.771 2.119 5.923 5.066 11.314 8.868 16.177l34.803-34.946-34.803-34.979c-3.802 4.892-6.749 10.284-8.868 16.178-2.122 5.924-3.185 12.169-3.185 18.799zm57.254-57.076c-6.602 0-12.877 1.031-18.771 3.065-5.923 2.062-11.314 5.009-16.18 8.78l34.946 34.977 34.979-34.977c-4.896-3.771-10.283-6.719-16.181-8.78-5.918-2.034-12.191-3.065-18.793-3.065zm0 114.3c6.604 0 12.876-1.063 18.799-3.153 5.896-2.122 11.285-5.067 16.181-8.869l-34.979-34.977-34.943 34.977c4.858 3.802 10.254 6.747 16.177 8.869 5.888 2.09 12.163 3.153 18.765 3.153zm57.25-57.225c0-6.63-1.061-12.875-3.183-18.799-2.121-5.894-5.067-11.285-8.869-16.178l-34.946 34.977 34.946 34.947c3.802-4.861 6.748-10.254 8.869-16.177 2.124-5.893 3.183-12.168 3.183-18.77zm-8.308 102.78c1.975-0.679 3.979-1.53 6.012-2.622 1.856-0.854 3.83-1.942 5.951-3.24 2.122-1.297 4.244-2.829 6.424-4.565 1.091 3.035 2.479 6.981 4.155 11.787 1.68 4.832 3.563 10.166 5.688 16.026 2.121 5.862 4.306 12.021 6.57 18.446 2.299 6.45 4.567 12.847 6.836 19.123 5.216 14.731 10.844 30.526 16.914 47.321l-21.127 2.596-37.423-104.87v-2e-3zm26.017-16.589c1.533-2.711 3.271-5.863 5.217-9.428 1.737-3.154 3.859-6.927 6.427-11.316 2.53-4.393 5.448-9.521 8.688-15.382 3.035-4.538 6.659-7.839 10.903-9.901 4.213-2.062 8.604-3.093 13.17-3.093 3.802 0 7.484 0.618 11.05 1.854 3.597 1.269 6.778 3.007 9.606 5.217 2.8 2.21 5.098 4.861 6.836 7.896 1.709 3.034 2.593 6.275 2.593 9.752 0 3.685-1.031 7.367-3.093 11.051-1.945 3.478-4.155 7.31-6.571 11.464-2.445 4.187-4.979 8.456-7.572 12.849-2.593 4.391-5.245 8.84-7.896 13.348-2.652 4.479-5.216 8.843-7.721 13.084-5.863 9.871-11.816 19.83-17.89 29.908l-23.747-67.303zm84.747-100.18c0 4.242-0.796 8.19-2.354 11.875-1.595 3.684-3.742 6.896-6.516 9.664-2.77 2.771-5.979 4.951-9.69 6.513-3.688 1.562-7.634 2.356-11.85 2.356-4.24 0-8.222-0.795-11.963-2.356-3.742-1.562-6.979-3.742-9.754-6.513-2.77-2.771-4.95-5.98-6.512-9.664-1.563-3.685-2.357-7.633-2.357-11.875 0-4.215 0.796-8.191 2.357-11.875s3.742-6.896 6.512-9.666c2.771-2.77 6.011-4.979 9.754-6.601 3.741-1.62 7.722-2.444 11.963-2.444 4.216 0 8.162 0.824 11.85 2.444 3.712 1.621 6.925 3.831 9.69 6.601 2.771 2.771 4.923 5.982 6.516 9.666 1.558 3.683 2.354 7.66 2.354 11.875zm-2.948 38.041c0.976-0.53 2.445-1.355 4.394-2.506 1.975-1.148 4.185-2.445 6.688-3.918 2.479-1.443 5.188-3.035 8.136-4.716 2.916-1.68 5.772-3.329 8.604-4.95 6.719-3.801 14.026-7.955 21.952-12.522l2.593 2.594v15.617l-2.092 5.362-41.959 24.074c-0.441-2.388-1.032-4.715-1.798-6.983-0.648-1.945-1.532-4.037-2.593-6.276-1.097-2.211-2.391-4.127-3.925-5.776zm11.729 182.81v-5.719l23.396-31.205c2.714-3.594 4.951-6.688 6.689-9.34 1.709-2.685 3.094-5.066 4.125-7.16 1.031-2.122 1.771-4.127 2.21-6.041 0.442-1.887 0.646-3.801 0.646-5.745 0-3.153-0.975-5.806-2.916-7.985-1.978-2.147-4.512-3.239-7.66-3.239-4.009 0-6.866 1.476-8.547 4.479-1.682 2.979-2.504 6.688-2.504 11.139v1.942h-17.237c0-11.489 2.534-20.213 7.632-26.192 5.098-5.95 12.258-8.93 21.48-8.93 4.652 0 8.722 0.769 12.195 2.355 3.448 1.563 6.364 3.653 8.693 6.246 2.327 2.623 4.095 5.629 5.271 9.047 1.207 3.39 1.801 6.896 1.801 10.49 0 3.355-0.476 6.657-1.39 9.898-0.913 3.271-2.415 6.777-4.478 10.578-2.063 3.802-4.773 7.984-8.192 12.611-3.418 4.598-7.632 9.871-12.61 15.854 3.687-0.326 7.544-0.503 11.554-0.503h16.266v17.415h-56.425l1e-3 5e-3z" fill="#FFCE63"></path>
</svg>