<?xml version='1.0' encoding='utf-8'?>
<!-- Generator: Adobe Illustrator 16.0.3, SVG Export Plug-In . SVG Version: 6.00 Build 0)  --><svg xmlns="http://www.w3.org/2000/svg" xmlns:cc="http://creativecommons.org/ns#" xmlns:dc="http://purl.org/dc/elements/1.1/" xmlns:rdf="http://www.w3.org/1999/02/22-rdf-syntax-ns#" width="285.1px" height="425.2px" enable-background="new 0 0 285.101 425.197" version="1.1" viewBox="0 0 285.1 425.2" xml:space="preserve"><metadata><rdf:RDF><cc:Work rdf:about=""><dc:format>image/svg+xml</dc:format><dc:type rdf:resource="http://purl.org/dc/dcmitype/StillImage"></dc:type><dc:title></dc:title></cc:Work></rdf:RDF></metadata>
<path d="m188.95 340.16h-95.233c-14.235 0-25.818-11.582-25.818-25.819v-231.83c0-14.235 11.583-25.817 25.818-25.817h95.233c14.236 0 25.817 11.582 25.817 25.817v231.83c1e-3 14.237-11.58 25.819-25.817 25.819zm-95.233-272.45c-8.16 0-14.8 6.639-14.8 14.799v231.83c0 2.042 0.415 3.986 1.165 5.757l120.44-246.8c-2.714-3.399-6.892-5.581-11.569-5.581h-95.234z" fill="#000000"></path>

	<path d="m227.29 138.62v35.591c31.575-3.77 43.687-18.366 43.64-29.812-0.041-10.272-13.291-16.709-43.64-5.779z" fill="#000000"></path>
	<path d="m55.378 151.62c-7.059-4.432-12.383-8.027-14.873-9.549-18.03-11.019-35.672 12.599-20.701 26.71 23.3 21.96 29.414 59.601 35.574 94.833v-111.99z" fill="#000000"></path>
	<path d="m227.29 274.99v39.347c0 0.557-0.019 1.11-0.042 1.662 29.226-14.281 24.136-48.341 0.042-41.009z" fill="#000000"></path>
	<path d="m227.29 229.99v43.234c16.551-7.954 24.507-16.671 23.658-32.088-0.558-10.139-9.707-16.265-23.658-11.146z" fill="#000000"></path>
	<path d="m227.29 184.98v43.359c20.019-6.814 27.902-16.129 27.902-28.915 0-12.687-11.969-18.29-27.902-14.444z" fill="#000000"></path>

</svg>