<?xml version='1.0' encoding='utf-8'?>
<!-- Generator: Adobe Illustrator 16.0.0, SVG Export Plug-In . SVG Version: 6.00 Build 0)  --><svg xmlns="http://www.w3.org/2000/svg" xmlns:cc="http://creativecommons.org/ns#" xmlns:dc="http://purl.org/dc/elements/1.1/" xmlns:ns="&amp;ns_sfw;" xmlns:rdf="http://www.w3.org/1999/02/22-rdf-syntax-ns#" width="323px" height="425.2px" version="1.2" viewBox="0 0 323 425.2" xml:space="preserve">
<metadata>
	<rdf:RDF>
		<cc:Work rdf:about="">
			<dc:format>image/svg+xml</dc:format>
			<dc:type rdf:resource="http://purl.org/dc/dcmitype/StillImage"></dc:type>
			<dc:title></dc:title>
		</cc:Work>
	</rdf:RDF>
	<ns:sfw>
		<ns:slices></ns:slices>
		<ns:sliceSourceBounds x="278.532" y="128.875" width="283.468" height="365.597" bottomLeftOrigin="true"></ns:sliceSourceBounds>
	</ns:sfw>
</metadata>
<path d="m102.35 127.7c0-22.757 18.512-41.262 41.197-41.262h35.394c22.75 0 41.252 18.504 41.252 41.262v151.68c0 22.754-22.478 31.043-45.164 31.043h-27.438c-22.752 0-45.241-8.289-45.241-31.043v-151.68zm106.11 47.188v-17.805h-94.384v17.805h94.384zm0 94.332v-17.803h-94.384v17.803h94.384z" fill="#000000"></path>
<polygon points="144.81 15.628 177.72 15.628 161.27 65.015" fill="#000000"></polygon>
<polygon points="144.81 381.22 177.72 381.22 161.27 331.83" fill="#000000"></polygon>
<polygon points="19.532 212.04 19.532 179.14 68.922 195.58" fill="#000000"></polygon>
<polygon points="303 212.04 303 179.14 253.61 195.58" fill="#000000"></polygon>
</svg>