<?xml version='1.0' encoding='utf-8'?>
<!-- Generator: Adobe Illustrator 16.0.3, SVG Export Plug-In . SVG Version: 6.00 Build 0)  --><svg xmlns="http://www.w3.org/2000/svg" xmlns:cc="http://creativecommons.org/ns#" xmlns:dc="http://purl.org/dc/elements/1.1/" xmlns:ns="&amp;ns_sfw;" xmlns:rdf="http://www.w3.org/1999/02/22-rdf-syntax-ns#" width="425.2px" height="425.2px" enable-background="new -172.5 510.1 425.197 425.199" version="1.1" viewBox="-172.5 510.1 425.2 425.2" xml:space="preserve">
<metadata>
	<rdf:RDF>
		<cc:Work rdf:about="">
			<dc:format>image/svg+xml</dc:format>
			<dc:type rdf:resource="http://purl.org/dc/dcmitype/StillImage"></dc:type>
			<dc:title></dc:title>
		</cc:Work>
	</rdf:RDF>
	<ns:sfw>
		<ns:slices></ns:slices>
		<ns:sliceSourceBounds x="14.173" y="-411.023" width="396.851" height="396.85" bottomLeftOrigin="true"></ns:sliceSourceBounds>
	</ns:sfw>
</metadata>
<path d="m40.098 524.27c-109.41 0-198.42 89.012-198.42 198.42 0 109.41 89.012 198.43 198.42 198.43 109.41 0 198.43-89.016 198.43-198.43 0-109.41-89.014-198.42-198.43-198.42zm-166.89 198.42c0-38.666 13.223-74.301 35.379-102.63l234.17 234.12c-28.332 22.167-63.978 35.396-102.66 35.396-92.024 0-166.89-74.868-166.89-166.89zm292.46 109.81-235.4-235.35c29.371-25.726 67.81-41.342 109.83-41.342 92.025 0 166.89 74.864 166.89 166.88 0 42.013-15.609 80.442-41.324 109.81z" fill="#000000"></path>
<g fill="#222221">
	<path d="m113.44 768.66c3.771-22.037 5.919-42.592 6.794-50.639 1.713-15.769-0.804-68.917-1.352-77.194-0.668-10.104-16.092-10.739-17.35-0.113-0.726 6.137-4.991 43.292-5.677 49.12s-7.348 5.321-7.576-0.049c-0.205-4.807-3.055-87.742-3.428-94.596-0.686-12.571-18.736-13.152-19.537-1.497-0.494 7.19-5.002 76.541-5.345 83.396-0.343 6.856-7.83 6.17-8.173 0.343-0.304-5.179-5.535-98.908-6.02-105.1-0.913-11.655-20.16-10.893-20.223 0.42-0.033 5.837-1.916 61.04-2.31 68.914-0.342 6.855-8.66 6.119-9.231-0.051-0.447-4.828-3.737-39.987-4.467-46.152-1.643-13.875-16.828-12.392-18.713-1.422-0.519 3.02-4.046 23.06-7.532 44.503l130.14 130.11z" fill="#000000"></path>
	<path d="m-24.45 698.65c-0.9 17.344-0.507 32.95-0.347 43.632-11.171-14.322-21.223-32.946-26.707-46.486-1.413-3.487-18.235-6.95-18.039-2.613 6.152 136.24 76.248 171.21 106.07 171.21s53.053-21.126 61.277-37.947c0.592-1.211 1.167-2.504 1.733-3.832l-123.98-123.96z" fill="#000000"></path>
</g>
</svg>