<?xml version='1.0' encoding='utf-8'?>
<!-- Generator: Adobe Illustrator 27.2.0, SVG Export Plug-In . SVG Version: 6.00 Build 0)  --><svg xmlns:cc="http://creativecommons.org/ns#" xmlns="http://www.w3.org/2000/svg" xmlns:rdf="http://www.w3.org/1999/02/22-rdf-syntax-ns#" xmlns:dc="http://purl.org/dc/elements/1.1/" xmlns:xlink="http://www.w3.org/1999/xlink" version="1.2" baseProfile="tiny" id="Vrstva_1" x="0px" y="0px" viewBox="0 0 372 425.2" overflow="visible" xml:space="preserve" width="349.95294" height="400.0">
<path d="M186,58.5c37.4,0,72.5,14.6,98.9,41c26.4,26.4,41,61.6,41,98.9s-14.6,72.5-41,98.9c-26.4,26.4-61.6,41-98.9,41  s-72.5-14.6-98.9-41c-26.4-26.4-41-61.6-41-98.9s14.6-72.5,41-98.9C113.5,73.1,148.6,58.5,186,58.5 M186,28.3  c-93.9,0-170.1,76.1-170.1,170.1c0,93.9,76.1,170.1,170.1,170.1c93.9,0,170.1-76.1,170.1-170.1C356.1,104.5,279.9,28.3,186,28.3  L186,28.3z" fill="#F54C4C"></path>
<path d="M274,199.9c-2.8-13.1-17-21-42.1-23.3c-16.5-1.5-32.2-0.3-32.8-0.2l-48.7,5.2l-2.7-11.4l-50,35.5l59.3,4.1l-2.9-12.4  l46.4-4.9c25.4-2.1,55,1.7,57.7,10.5c-1.4,2.3-8.8,6.3-15.6,8.3l4.4,15.5C252.1,225.2,277.6,217,274,199.9L274,199.9z" fill="#F54C4C"></path>
</svg>