<?xml version='1.0' encoding='utf-8'?>
<!-- Generator: Adobe Illustrator 16.0.0, SVG Export Plug-In . SVG Version: 6.00 Build 0)  --><svg xmlns="http://www.w3.org/2000/svg" xmlns:cc="http://creativecommons.org/ns#" xmlns:dc="http://purl.org/dc/elements/1.1/" xmlns:ns="&amp;ns_sfw;" xmlns:rdf="http://www.w3.org/1999/02/22-rdf-syntax-ns#" width="506px" height="595.28px" enable-background="new 0 0 506 595.281" version="1.1" viewBox="0 0 506 595.28" xml:space="preserve">
<metadata>
	<ns:sfw>
		<ns:slices></ns:slices>
		<ns:sliceSourceBounds x="220.425" y="71.03" width="403.145" height="489.604" bottomLeftOrigin="true"></ns:sliceSourceBounds>
	</ns:sfw>
<rdf:RDF><cc:Work rdf:about=""><dc:format>image/svg+xml</dc:format><dc:type rdf:resource="http://purl.org/dc/dcmitype/StillImage"></dc:type><dc:title></dc:title></cc:Work></rdf:RDF></metadata>
	<path d="m412.9 497.55c-1.837 3.396-3.9 6.511-6.189 9.357-2.3 2.843-4.911 5.642-7.847 8.394-2.938 2.752-6.425 5.688-10.458 8.81h-305.76c-3.854-3.121-7.293-6.058-10.318-8.81-3.027-2.752-5.688-5.551-7.98-8.394-2.297-2.85-4.36-5.965-6.192-9.357-1.836-3.396-3.576-7.388-5.229-11.972h365.21c-1.655 4.585-3.401 8.575-5.232 11.972zm37.703-192.1c4.404 7.979 6.146 16.647 5.229 26.007-1.101 12.66-4.726 23.626-10.868 32.889-6.149 9.27-13.854 17.436-23.117 24.493-9.271 7.065-19.678 13.351-31.237 18.854-11.559 5.504-23.212 10.828-34.951 15.962-3.303 1.471-6.697 2.981-10.184 4.541-3.487 1.562-6.977 3.075-10.458 4.541l-4.953 2.202c-9.908 10.824-20.551 20.362-31.925 28.619h-125.22c-12.108-8.447-23.395-18.69-33.853-30.729-10.458-12.032-19.587-25.999-27.384-41.893-7.801-15.896-13.945-33.716-18.438-53.472-4.498-19.75-6.743-41.66-6.743-65.73h297.78v10.875c0 3.53-0.186 7.061-0.551 10.591 5.685-3.482 11.052-5.917 16.1-7.293 5.044-1.376 9.634-2.064 13.764-2.064 4.128 0 7.705 0.46 10.73 1.376 3.027 0.92 5.547 1.746 7.568 2.477 8.076 3.856 14.312 9.772 18.717 17.754zm-137.05 103.62c7.336-9.357 13.851-19.631 19.54-30.824 11.188-22.748 17.979-48.438 20.362-77.059h-236.13c2.935 28.807 9.813 54.491 20.643 77.059 11.188 22.566 26.146 41.191 44.858 55.868h105.68c9.354-7.336 17.702-15.687 25.043-25.044zm-157.01-323.92c-4.864 4.038-8.396 8.394-10.598 13.073-2.2 4.679-3.351 9.68-3.438 14.999-0.094 5.324 0.552 10.505 1.928 15.549 1.376 5.048 3.302 9.955 5.778 14.724 2.478 4.773 5.092 8.992 7.845 12.66 5.869 7.891 9.446 15.506 10.732 22.842 1.28 7.341 1.145 14.221-0.413 20.641-1.563 6.424-4.085 12.432-7.567 18.026-3.487 5.599-7.063 10.643-10.733 15.137-3.672 4.498-6.975 8.441-9.906 11.834-2.938 3.397-4.588 6.102-4.954 8.119h43.76c12.84-13.576 21.329-25.96 25.457-37.153 4.128-11.189 5.547-21.282 4.266-30.273-1.286-8.987-4.358-16.788-9.219-23.393-4.864-6.605-9.865-12.2-14.999-16.788-5.14-4.584-9.313-9.262-12.521-14.036-3.212-4.769-5.275-9.908-6.191-15.412-0.92-5.504-0.599-11.559 0.963-18.164 1.559-6.605 4.631-14.036 9.22-22.292-8.084 2.571-14.551 5.873-19.41 9.907zm74.72-35.915c-6.605 5.779-12.066 11.881-16.375 18.302-4.313 6.424-7.568 13.072-9.771 19.953-2.202 6.881-3.352 13.442-3.44 19.678-0.095 6.24 0.869 12.066 2.891 17.476 2.019 5.414 4.954 9.864 8.809 13.348 11.56 10.458 19.032 20.873 22.431 31.236 3.393 10.368 4.171 20.46 2.339 30.273-1.836 9.817-5.504 19.222-11.008 28.209-5.505 8.992-11.379 17.338-17.614 25.044h42.106c9.173-11.189 15.963-21.694 20.364-31.512 4.403-9.813 7.108-19.033 8.119-27.659 1.006-8.622 0.644-16.603-1.102-23.943-1.745-7.336-4.269-14.036-7.567-20.09-3.303-6.055-6.976-11.512-11.009-16.375-4.038-4.859-7.892-9.219-11.56-13.072-4.772-4.769-8.213-9.86-10.319-15.274-2.111-5.41-2.938-11.512-2.478-18.302 0.456-6.786 2.2-14.401 5.229-22.842 3.026-8.437 7.383-18.164 13.072-29.173-8.806 4.037-16.512 8.944-23.117 14.723zm55.042 40.318c-5.142 5.689-8.119 11.881-8.944 18.577-0.826 6.7 0.181 13.808 3.027 21.329 2.842 7.525 7.018 14.956 12.521 22.292 5.319 6.975 8.987 13.717 11.009 20.228 2.02 6.515 2.846 12.754 2.479 18.714-0.369 5.964-1.651 11.696-3.854 17.201-2.199 5.504-4.726 10.828-7.565 15.962-2.847 5.139-5.779 10.092-8.81 14.861-3.024 4.773-5.552 9.452-7.565 14.036h38.805c8.438-10.823 14.401-21.604 17.89-32.337 3.482-10.733 5.318-20.778 5.506-30.136 0.181-9.357-1.013-17.704-3.577-25.044-2.571-7.336-5.689-12.935-9.357-16.788-4.223-4.584-8.213-9.035-11.972-13.348-3.764-4.309-6.7-9.172-8.809-14.586-2.109-5.41-3.121-11.739-3.025-18.99 0.09-7.246 1.879-16.005 5.366-26.283-10.285 3.854-17.991 8.628-23.125 14.312zm138.71 230.63c-1.286-2.564-3.213-4.4-5.78-5.504-4.037-2.018-8.901-1.789-14.586 0.688-5.689 2.477-11.653 6.838-17.889 13.069l-9.082 8.532c-4.038 19.449-10.002 36.973-17.892 52.565 8.987-3.854 17.384-7.847 25.185-11.975 7.796-4.128 14.677-8.572 20.641-13.348 5.96-4.771 10.776-10.046 14.449-15.825 3.668-5.778 5.869-12.337 6.604-19.678 0.182-3.11-0.371-5.952-1.65-8.524z" fill="#000000"></path>
</svg>