<?xml version='1.0' encoding='utf-8'?>
<!-- Generator: Adobe Illustrator 16.0.3, SVG Export Plug-In . SVG Version: 6.00 Build 0)  --><svg xmlns="http://www.w3.org/2000/svg" xmlns:cc="http://creativecommons.org/ns#" xmlns:dc="http://purl.org/dc/elements/1.1/" xmlns:rdf="http://www.w3.org/1999/02/22-rdf-syntax-ns#" width="397.28px" height="425.2px" enable-background="new 0 0 397.278 425.197" version="1.1" viewBox="0 0 397.28 425.2" xml:space="preserve"><metadata><rdf:RDF><cc:Work rdf:about=""><dc:format>image/svg+xml</dc:format><dc:type rdf:resource="http://purl.org/dc/dcmitype/StillImage"></dc:type><dc:title></dc:title></cc:Work></rdf:RDF></metadata>
<path d="m138.26 340.16h-110.78c-7.348 0-13.305-5.957-13.305-13.305v-188.11c0-7.348 5.957-13.305 13.305-13.305h110.78c7.349 0 13.306 5.957 13.306 13.305v188.11c-1e-3 7.348-5.958 13.305-13.307 13.305zm-12.505-188.85h-85.771v137.17h85.771v-137.17zm-42.885 154.15c-4.851 0-8.783 3.933-8.783 8.784s3.932 8.783 8.783 8.783c4.852 0 8.784-3.933 8.784-8.783 0-4.851-3.932-8.784-8.784-8.784z" fill="#000000"></path>
<path d="m383.1 69.998v188.1c0 7.348-5.957 13.306-13.306 13.306h-210.01v-34.432h146.1v-145.85h-205.86v26.089h-34.567v-47.216c0-7.348 5.957-13.305 13.305-13.305h291.03c7.348 0 13.305 5.957 13.305 13.305zm-25.457 94.053c0-7.234-5.865-13.1-13.1-13.1s-13.1 5.865-13.1 13.1 5.865 13.099 13.1 13.099 13.1-5.864 13.1-13.099z" fill="#000000"></path>
</svg>