<?xml version='1.0' encoding='utf-8'?>
<!-- Generator: Adobe Illustrator 16.0.3, SVG Export Plug-In . SVG Version: 6.00 Build 0)  --><svg xmlns="http://www.w3.org/2000/svg" xmlns:cc="http://creativecommons.org/ns#" xmlns:dc="http://purl.org/dc/elements/1.1/" xmlns:rdf="http://www.w3.org/1999/02/22-rdf-syntax-ns#" width="259.19px" height="425.2px" enable-background="new 0 0 259.186 425.197" version="1.1" viewBox="0 0 259.19 425.2" xml:space="preserve"><metadata><rdf:RDF><cc:Work rdf:about=""><dc:format>image/svg+xml</dc:format><dc:type rdf:resource="http://purl.org/dc/dcmitype/StillImage"></dc:type><dc:title></dc:title></cc:Work></rdf:RDF></metadata>
<path d="m103.4 198.94v84.502c0 7e-3 2e-3 0.031 2e-3 0.046 0 0.017-5e-3 0.043-6e-3 0.052-0.048 9.237-10.55 17.882-23.502 19.307-12.987 1.44-23.515-4.903-23.515-14.165 0-9.271 10.527-17.929 23.515-19.376 3.722-0.407 7.251-0.179 10.379 0.589v-93.739l85.162-13.397v107.53 0.046c0 6e-3 2e-3 0.035 0 0.048-0.048 9.244-10.54 17.876-23.489 19.303-12.996 1.447-23.51-4.897-23.51-14.167 0-9.259 10.514-17.93 23.51-19.363 3.724-0.409 7.251-0.182 10.383 0.582v-67.118l-58.929 9.321zm62.472-142.25h-151.7v283.46h230.84v-215.66l-79.143-67.807zm69.096 75.965v12.964h-85.537v-79.29h12.985v66.326h72.552z" clip-rule="evenodd" fill-rule="evenodd" fill="#000000"></path>
</svg>