<?xml version='1.0' encoding='utf-8'?>
<!-- Generator: Adobe Illustrator 25.0.0, SVG Export Plug-In . SVG Version: 6.00 Build 0)  --><svg xmlns="http://www.w3.org/2000/svg" xmlns:cc="http://creativecommons.org/ns#" xmlns:dc="http://purl.org/dc/elements/1.1/" xmlns:rdf="http://www.w3.org/1999/02/22-rdf-syntax-ns#" overflow="visible" version="1.2" viewBox="0 0 270 425.2" xml:space="preserve" width="253.99811" height="400.0"><metadata><rdf:RDF><cc:Work rdf:about=""><dc:format>image/svg+xml</dc:format><dc:type rdf:resource="http://purl.org/dc/dcmitype/StillImage"></dc:type><dc:title></dc:title></cc:Work></rdf:RDF></metadata>
<path d="m224.65 188.15c22.979-23.283 32.593-48.42 25.854-68.892-5.995-18.209-23.514-32.102-48.054-32.959-24.173-0.845-37.453 1.783-50.151 4.428-11.867 2.468-20.635 6.077-38.61 5.45-10.175-0.354-19.004-2.759-22.416-9.824-3.475-7.193-3.861-14.844 2.231-23.247 16.335-22.538 52.987-25.067 147.16-21.778 7.428 0.26 14-5.365 14.674-12.566 0.669-7.197-4.808-13.245-12.241-13.504-89.91-3.14-144.8-3.115-171.61 33.869-11.791 16.266-12.022 33.762-4.526 49.282 7.434 15.392 24.455 23.181 44.291 23.874 21.37 0.747 32.853-3.463 45.361-6.068 12.206-2.542 22.619-4.572 43.399-3.846 7.71 0.269 21.161 5.28 24.689 15.997 2.753 8.357-1.896 23.226-19.674 41.358-12.295-8.346-26.241-12.984-40.975-13.499-22.333-0.78-44.706 8.42-59.8 24.606l-53.106 56.949c-2.436 2.613-3.735 6.087-3.61 9.656 0.125 3.57 1.663 6.944 4.276 9.377l11.886 11.104-43.307 46.887c-5.071 5.441-4.77 13.961 0.669 19.034 2.47 2.302 5.576 3.496 8.705 3.602 3.762 0.131 7.559-1.304 10.327-4.274l43.304-46.883 32.125 30.193-43.32 46.879c-5.073 5.441-4.774 13.961 0.665 19.033 2.47 2.301 5.577 3.497 8.707 3.608 3.76 0.133 7.555-1.304 10.323-4.276l43.344-46.879 12.062 10.971c2.468 2.304 5.575 3.503 8.707 3.61 3.757 0.133 7.554-1.308 10.319-4.278l53.093-56.934c23.554-25.251 30.401-67.517 5.227-100.06h1e-3z" fill="#000000"></path>
</svg>