<?xml version='1.0' encoding='utf-8'?>
<!-- Generator: Adobe Illustrator 27.2.0, SVG Export Plug-In . SVG Version: 6.00 Build 0)  --><svg xmlns="http://www.w3.org/2000/svg" xmlns:xlink="http://www.w3.org/1999/xlink" version="1.1" id="Vrstva_1" x="0px" y="0px" viewBox="0 0 453.5 425.2" style="enable-background:new 0 0 453.5 425.2;" xml:space="preserve" width="426.62274" height="400.0">
<g>
	<path d="M289.8,22.1c4.8,0,9.6,4.8,9.6,9.6v161.8c0,4.8-4.8,9.6-9.6,9.6h-126c-4.8,0-9.6-4.8-9.6-9.6V31.6c0-4.8,4.8-9.6,9.6-9.6   H289.8 M289.8,4h-126c-15.6,0-27.5,12-27.5,27.5v161.8c0,15.6,13.2,27.5,27.5,27.5h126c15.6,0,27.5-12,27.5-27.5V31.6   C317.3,16,305.3,4,289.8,4L289.8,4z"></path>
	<path d="M209.4,113.2V72.3H225c5.9,0,9.6,1.2,13.2,4.8c3.6,3.6,4.8,8.4,4.8,14.3c0,5.9-1.2,12-4.8,15.6c-3.6,3.6-7.2,4.8-13.2,4.8   h-15.6V113.2z M184.2,50.8v130.7h25.2v-45.6h18c8.4,0,16.8-2.4,22.7-5.9c5.9-3.6,10.7-8.4,14.3-15.6c3.6-5.9,4.8-13.2,4.8-21.6   S268.1,77,264.5,71c-3.6-5.9-8.4-12-14.3-15.6c-5.9-3.6-13.2-5.9-22.7-5.9h-43.2V50.8z"></path>
	<g>
		<path d="M72.7,279.7c5.9,3.6,12,8.4,15.6,14.3c3.6,5.9,5.9,13.2,5.9,20.4s-1.2,14.3-4.8,20.4s-8.4,10.7-15.6,14.3    c-7.2,3.6-13.2,4.8-21.6,4.8H26v45.6H5.6V273.8h45.6C59.5,273.8,66.7,276.1,72.7,279.7z M67.9,331.3c4.8-4.8,5.9-10.7,5.9-16.8    s-2.4-12-5.9-16.8c-4.8-4.8-9.6-7.2-16.8-7.2H24.7v47.9h26.4C57.2,338.5,63.1,336.1,67.9,331.3z"></path>
		<path d="M191.4,400.8l-12-27.5h-58.8l-12,27.5H90.8L145.9,275h12l55.2,125.9H191.4z M129,356.5h44.3l-22.7-53.9L129,356.5z"></path>
		<path d="M302.9,400.8l-37.2-49.1h-19.1v49.1h-19.1v-127h40.7c8.4,0,16.8,1.2,22.7,4.8c5.9,3.6,12,8.4,15.6,13.2    c3.6,5.9,5.9,12,5.9,19.1c0,8.4-2.4,15.6-7.2,21.6c-4.8,5.9-10.7,10.7-19.1,13.2l40.7,53.9h-24v1.3H302.9z M246.6,334.9h21.6    c7.2,0,13.2-2.4,18-5.9c4.8-3.6,7.2-9.6,7.2-15.6s-2.4-12-7.2-15.6c-4.8-3.6-10.7-5.9-18-5.9h-21.6V334.9z"></path>
		<path d="M447.9,400.8h-22.7l-44.3-55.2l-19.1,21.6v33.6h-19.1v-127h19.1v69.5l62.3-69.5h22.7l-52.7,58.8L447.9,400.8z"></path>
	</g>
</g>
</svg>