<?xml version='1.0' encoding='utf-8'?>
<!-- Generator: Adobe Illustrator 16.0.0, SVG Export Plug-In . SVG Version: 6.00 Build 0)  --><svg xmlns="http://www.w3.org/2000/svg" xmlns:cc="http://creativecommons.org/ns#" xmlns:dc="http://purl.org/dc/elements/1.1/" xmlns:rdf="http://www.w3.org/1999/02/22-rdf-syntax-ns#" width="570px" height="533.14px" enable-background="new 0 0 570 533.14" version="1.1" viewBox="0 0 570 533.14" xml:space="preserve"><metadata><rdf:RDF><cc:Work rdf:about=""><dc:format>image/svg+xml</dc:format><dc:type rdf:resource="http://purl.org/dc/dcmitype/StillImage"></dc:type><dc:title></dc:title></cc:Work></rdf:RDF></metadata>
<path d="m378.51 436.96c-13.855-6.363-29.223-11.691-45.465-14.629-16.248-2.935-31.066-4.517-47.896-4.517l-17.025 0.944 18.5 45.799c7.629 1.369 13.6 4.844 17.908 10.42 4.301 5.578 6.457 12.186 6.457 19.816 0 7.828-2.645 14.387-7.926 19.672-5.287 5.281-11.746 7.924-19.377 7.924-3.917 0-7.683-0.732-11.303-2.201-3.624-1.473-6.897-3.229-9.835-5.289-2.937-2.057-5.238-4.941-6.899-8.656-1.665-3.723-2.494-7.535-2.494-11.447 0-2.934 0.633-5.924 1.908-8.951 1.271-3.041 2.589-6.117 3.964-9.248l-24.073-54.896c-7.831 1.369-15.329 4.203-23.194 6.457-21.292 6.107-45.505 20.939-50.202 24.07l-143.56-229c3.129-3.129 6.703-6.114 10.717-8.954 4.008-2.835 7.485-5.037 10.421-6.604 36.99-22.9 75.84-40.318 116.55-52.258 40.707-11.935 83.373-17.908 128-17.908 44.426 0 87.291 5.972 128.59 17.908 41.295 11.94 121.98 56.028 126.39 58.862 4.404 2.838 8.953 5.825 13.652 8.954l-146.5 228.98c-4.699-3.131-20.07-11.943-27.305-15.266l-2e-3 0.012-2e-3 6e-3zm130.94-204.62c-33.666-20.156-69.336-35.863-107.01-47.119-37.68-11.253-77.262-16.881-118.75-16.881-41.496 0-80.981 5.628-118.46 16.881-37.482 11.255-72.364 26.962-104.66 47.119l113.03 177.32c7.825-3.125 16.045-6.111 24.661-8.949 8.608-2.834 16.633-5.035 24.071-6.605l-76.036-179.96 30.239-9.394 76.624 183.19c6.061 0 17.233-1.919 31.247-1.973 20.867-0.075 38.328 1.193 56.533 5.494 18.199 4.311 35.711 10.375 52.551 18.203l115.96-177.32 1e-3 -6e-3zm-399.86-128.29c0-9.197 0.832-17.712 2.495-25.541 1.66-7.826 4.843-15.657 9.542-23.487l24.658 18.496c-3.133 4.504-5.427 9.542-6.898 15.12-1.468 5.577-2.202 10.714-2.202 15.413v9.101h-27.594l-1e-3 -9.102zm27.597-64.294c7.633-7.633 16.003-14.138 25.104-19.522 9.101-5.38 19.03-8.074 29.797-8.074v27.596c-6.266 1.568-12.284 3.771-18.053 6.605-5.774 2.839-11.012 5.726-15.709 8.66l-21.139-15.265zm109.8 15.265c-4.697-2.935-9.443-5.821-14.239-8.66-4.795-2.836-10.226-5.037-16.293-6.605v-27.596c4.5 0 9.197 0.733 14.092 2.201 4.893 1.467 9.587 3.331 14.095 5.577 4.499 2.253 8.809 4.844 12.918 7.781 4.11 2.938 7.633 5.972 10.569 9.101l-21.142 18.201zm36.698 0 21.43 18.496c-3.133 4.505-5.43 9.542-6.897 15.119-1.47 5.577-2.202 10.715-2.202 15.413v3.523c0 0.981 0.082 5.578 0.082 5.578h-27.971v-9.101c0-4.698-0.731-9.835-2.202-15.413-1.468-5.578-3.77-10.614-6.897-15.119l24.657-18.496zm-15.559 137.4h30.827v39.927h-30.827v-39.927zm0 61.066h30.827v39.929h-30.827v-39.929zm0 61.356h30.827v42.865h-30.827v-42.865zm51.963-259.82-24.072-18.202c3.719-3.128 7.635-6.164 11.744-9.101 4.107-2.935 8.463-5.527 13.061-7.78 4.598-2.248 9.396-4.11 14.389-5.579 4.99-1.467 10.223-2.201 15.707-2.201v27.597c-6.266 1.567-12.186 3.771-17.764 6.604-5.579 2.842-9.94 5.727-13.065 8.662zm110.09-15.265-24.369 15.265c-4.695-2.935-9.395-5.82-14.092-8.66-4.697-2.835-10.178-5.037-16.438-6.605v-27.596c10.76 0 20.697 2.694 29.797 8.075 9.102 5.384 17.467 11.888 25.102 19.521zm27.593 64.294v9.101h-28.48s0.887-5.523 0.889-9.101c0-4.697-0.783-9.834-2.35-15.412-1.568-5.579-3.816-10.616-6.75-15.12l21.432-18.496c4.699 7.832 8.414 15.662 11.152 23.486 2.74 7.831 4.107 16.344 4.107 25.542z" fill="#000000"></path>
</svg>