<?xml version='1.0' encoding='utf-8'?>
<!-- Generator: Adobe Illustrator 16.0.3, SVG Export Plug-In . SVG Version: 6.00 Build 0)  --><svg xmlns="http://www.w3.org/2000/svg" xmlns:cc="http://creativecommons.org/ns#" xmlns:dc="http://purl.org/dc/elements/1.1/" xmlns:rdf="http://www.w3.org/1999/02/22-rdf-syntax-ns#" width="406.81px" height="425.2px" version="1.2" viewBox="0 0 406.81 425.2" xml:space="preserve"><metadata><rdf:RDF><cc:Work rdf:about=""><dc:format>image/svg+xml</dc:format><dc:type rdf:resource="http://purl.org/dc/dcmitype/StillImage"></dc:type><dc:title></dc:title></cc:Work></rdf:RDF></metadata>
<path d="m287.96 270.04h-169.07c-6.595 0-11.961-5.352-11.961-11.937v-119.32c0-6.594 5.366-11.96 11.961-11.96h169.07c6.589 0 11.939 5.367 11.939 11.96v119.32c0 6.585-5.351 11.936-11.939 11.936z" fill="#000000"></path>
<polygon points="61.499 83.57 21.652 56.693 14.174 67.78 54.021 94.657 43.553 110.18 97.705 116.06 71.967 68.051" fill="#000000"></polygon>
<polygon points="61.499 313.28 21.652 340.16 14.174 329.07 54.021 302.19 43.553 286.68 97.705 280.79 71.967 328.8" fill="#000000"></polygon>
<polygon points="345.32 83.57 385.16 56.693 392.64 67.78 352.79 94.657 363.26 110.18 309.11 116.06 334.85 68.051" fill="#000000"></polygon>
<polygon points="345.32 313.28 385.16 340.16 392.64 329.07 352.79 302.19 363.26 286.68 309.11 280.79 334.85 328.8" fill="#000000"></polygon>
</svg>