<?xml version='1.0' encoding='utf-8'?>
<!-- Generator: Adobe Illustrator 27.2.0, SVG Export Plug-In . SVG Version: 6.00 Build 0)  --><svg xmlns:cc="http://creativecommons.org/ns#" xmlns="http://www.w3.org/2000/svg" xmlns:rdf="http://www.w3.org/1999/02/22-rdf-syntax-ns#" xmlns:dc="http://purl.org/dc/elements/1.1/" xmlns:xlink="http://www.w3.org/1999/xlink" version="1.2" baseProfile="tiny" id="Vrstva_1" x="0px" y="0px" viewBox="0 0 372 425.2" overflow="visible" xml:space="preserve" width="349.95294" height="400.0">
<path d="M49.3,198.4c0-65.6,46.4-120.5,108.1-133.7v-33C77.7,45.4,16.9,114.9,16.9,198.4c0,83.5,60.8,153,140.5,166.7v-33  C95.7,318.9,49.3,264,49.3,198.4L49.3,198.4z" fill="#51F093"></path>
<path d="M355.1,198.4c0-83.7-61.1-153.4-141.1-166.8v32.9c62,13,108.7,68.1,108.7,133.9c0,65.8-46.7,120.9-108.7,133.8v32.9  C294,351.8,355.1,282.1,355.1,198.4L355.1,198.4z" fill="#51F093"></path>
<path d="M224.2,162.9h-14.9v-42.4h-10.1v42.4h-26.8v-42.4h-10.1v42.4h-14.3v37.3c0,0-0.6,31.7,29.8,36.6v57.3h16.1V237  c31.2-4.6,30.3-36.7,30.3-36.7L224.2,162.9z" fill="#51F093"></path>
</svg>