<?xml version='1.0' encoding='utf-8'?>
<!-- Generator: Adobe Illustrator 16.0.0, SVG Export Plug-In . SVG Version: 6.00 Build 0)  --><svg xmlns="http://www.w3.org/2000/svg" xmlns:cc="http://creativecommons.org/ns#" xmlns:dc="http://purl.org/dc/elements/1.1/" xmlns:ns0="&amp;ns_sfw;" xmlns:rdf="http://www.w3.org/1999/02/22-rdf-syntax-ns#" width="325px" height="595.28px" version="1.2" viewBox="0 0 325 595.28" xml:space="preserve">
<metadata>
	<rdf:RDF>
		<cc:Work rdf:about="">
			<dc:format>image/svg+xml</dc:format>
			<dc:type rdf:resource="http://purl.org/dc/dcmitype/StillImage"></dc:type>
			<dc:title></dc:title>
		</cc:Work>
	</rdf:RDF>
	<ns0:sfw>
		<ns0:slices></ns0:slices>
		<ns0:sliceSourceBounds x="278.222" y="155.774" width="283.461" height="283.457" bottomLeftOrigin="true"></ns0:sliceSourceBounds>
	</ns0:sfw>
</metadata>
<path d="m183.5 297.67 115.72-115.79c5.949-5.898 5.949-15.564 0-21.513-5.947-5.948-15.564-5.948-21.516 0l-115.72 115.79-115.79-115.79c-5.947-5.948-15.564-5.948-21.512 0-5.949 5.948-5.949 15.614 0 21.513l115.79 115.79-115.79 115.72c-5.949 5.947-5.949 15.613 0 21.513 2.973 2.975 6.84 4.461 10.805 4.461 3.867 0 7.731-1.486 10.707-4.461l115.79-115.72 115.72 115.72c2.977 2.975 6.844 4.461 10.809 4.461 3.867 0 7.73-1.486 10.707-4.461 5.947-5.898 5.947-15.564 0-21.513l-115.72-115.72z" fill="#000000"></path>
</svg>