<?xml version='1.0' encoding='utf-8'?>
<!-- Generator: Adobe Illustrator 16.0.0, SVG Export Plug-In . SVG Version: 6.00 Build 0)  --><svg xmlns="http://www.w3.org/2000/svg" xmlns:cc="http://creativecommons.org/ns#" xmlns:dc="http://purl.org/dc/elements/1.1/" xmlns:rdf="http://www.w3.org/1999/02/22-rdf-syntax-ns#" width="440px" height="390px" enable-background="new 0 0 440 390" version="1.1" viewBox="0 0 440 390" xml:space="preserve"><metadata><rdf:RDF><cc:Work rdf:about=""><dc:format>image/svg+xml</dc:format><dc:type rdf:resource="http://purl.org/dc/dcmitype/StillImage"></dc:type><dc:title></dc:title></cc:Work></rdf:RDF></metadata>
<path d="m119 67.93-43.047 67.304h289.82l-43.047-67.304h-203.73zm-42.642 230.99v41.237h-59.353v-153.28l44.921-51.636 53.317-78.55h211.23l53.314 78.55 44.923 51.636v153.28h-59.352v-41.237h-289.01 0.011-2e-3zm-40.51-98.272 68.779 16.556-3.747-28.963-65.029-6.61-3e-3 19.017zm157.09-11.582-76.842-2.188 17.176 50.739h175.16l17.178-50.739-76.842 2.188-8.121 8.898h-39.588l-8.117-8.898h-5e-3zm212.92-7.435-65.032 6.61-3.746 28.963 68.777-16.556 1e-3 -19.017z" fill="#000000"></path>
<path d="M48,111.19c13.328,0,16.167,6.228,16.167,13.913S61.323,139.016,48,139.016c-13.325,0-24.125-6.228-24.125-13.913  S34.678,111.19,48,111.19z" fill="#000000"></path>
<path d="m397.79 111.19c-13.328 0-16.165 6.228-16.165 13.913s2.843 13.913 16.165 13.913c13.328 0 24.124-6.228 24.124-13.913s-10.799-13.913-24.124-13.913z" fill="#000000"></path>
</svg>