<?xml version='1.0' encoding='utf-8'?>
<!-- Generator: Adobe Illustrator 16.0.0, SVG Export Plug-In . SVG Version: 6.00 Build 0)  --><svg xmlns="http://www.w3.org/2000/svg" xmlns:cc="http://creativecommons.org/ns#" xmlns:dc="http://purl.org/dc/elements/1.1/" xmlns:rdf="http://www.w3.org/1999/02/22-rdf-syntax-ns#" width="424px" height="425.2px" version="1.2" viewBox="0 0 424 425.2" xml:space="preserve"><metadata><rdf:RDF><cc:Work rdf:about=""><dc:format>image/svg+xml</dc:format><dc:type rdf:resource="http://purl.org/dc/dcmitype/StillImage"></dc:type><dc:title></dc:title></cc:Work></rdf:RDF></metadata>
<g fill="#1D1D1B">
	<path d="m410.12 207.61c-2.582-108.92-94.156-195.39-204.21-192.19-107.82 3.129-195.55 92.432-192.04 204.84 3.401 108.94 93.537 193.37 201.56 191.57 110.72-1.862 198.42-94.032 194.68-204.22zm-62.308 5.749c-0.905 18.34-7.053 35.091-17.434 50.215-2.187 3.215-4.917 6.132-7.773 8.803-4.37 4.109-9.733 6.021-15.769 5.463-2.347 7.327-4.271 14.627-7.028 21.618-8.716 22.028-21.294 41.336-40.54 55.74-10.145 7.599-21.48 12.143-34.271 12.242-10.48 0.1-21.011 0.497-31.415-0.446-17.446-1.552-30.819-11.313-42.392-23.63-15.781-16.8-26.263-36.556-31.626-59.005-0.484-2.036-1.129-4.036-1.8-6.332-11.857 1.563-18.539-6.023-24.263-14.393-10.417-15.234-16.364-32.259-17.359-50.697-0.41-7.661 0.981-15.459 8.208-20.078 3.291-2.11 7.363-2.98 11.227-4.457-7.786-69.224 45.333-126.74 109.73-130.3 36.045-1.999 67.025 10.765 91.698 37.176 24.498 26.225 34.52 57.726 31.104 92.964 3.726 1.217 7.426 1.813 10.491 3.526 8.468 4.72 9.625 13.188 9.214 21.594z" fill="#000000"></path>
	<path d="m324.98 202.67c-2.161 2.26-4.632 3.278-7.537 1.764-2.867-1.49-4.369-3.863-3.763-7.265 0.285-1.602 0.471-3.229 0.87-5.923-6.073 3.253-11.313 6.036-16.714 8.915-1.019-4.196-0.622-7.574 3.539-9.685 3.984-1.987 8.021-3.975 11.857-6.233 1.181-0.708 2.532-2.285 2.607-3.526 0.807-12.865-0.646-25.479-4.682-37.76-16.006-48.712-65.464-80.102-118.07-70.714-50.537 8.99-88.558 56.671-85.342 107.88 0.137 2.357 0.981 3.376 3.03 4.295 3.961 1.764 7.724 3.961 11.635 5.85 4.334 2.099 4.88 5.514 3.788 9.871-5.539-2.918-10.902-5.762-17.137-9.041 0.485 3.229 0.695 5.166 1.068 7.078 0.658 3.291-0.783 5.91-3.639 6.668-2.05 0.534-5.178 0.049-6.768-1.254-5.824-4.779-8.953-4.048-10.293 3.376-0.672 3.664-0.783 7.563-0.324 11.25 1.502 12.267 5.762 23.691 12.032 34.271 2.261 3.825 5.24 7.264 8.134 10.653 2.646 3.115 5.625 3.551 9.201 0.918 4.01-2.955 8.356-1.129 9.734 3.701 0.608 2.147 1.154 4.32 1.639 6.519 4.967 22.438 13.907 42.889 29.825 59.86 10.456 11.128 22.375 19.744 38.219 20.749 8.655 0.534 17.397 0.585 26.063 0.249 12.205-0.482 23.121-4.979 31.924-13.373 6.557-6.259 12.876-12.988 18.142-20.326 11.174-15.596 18.19-33.078 21.009-52.164 0.833-5.648 4.706-7.858 9.623-5.723 6.433 2.78 8.122 2.407 12.578-3.043 8.519-10.418 13.896-22.438 16.415-35.513 1.242-6.457 1.366-13.36 0.583-19.892-0.69-5.695-5.333-6.552-9.244-2.43zm-114.88-9.226c2.694-0.063 5.725 0.212 7.983 1.454 1.403 0.781 1.627 3.675 2.385 5.637-1.404 0.521-2.782 1.429-4.21 1.502-3.999 0.212-8.021 0.075-11.907 0.075-1.391-5.998 0.258-8.544 5.749-8.668zm-83.355 22.263c-0.635 6.619-0.138 13.35-0.138 21.223-1.911-2.162-4.185-3.591-4.644-5.451-2.36-9.859-4.259-19.844-6.333-29.765 0.446-0.137 0.907-0.261 1.366-0.385 0.608 0.298 1.191 0.646 1.813 0.919 5.837 2.607 8.568 6.682 7.936 13.459zm-9.909-35.586c12.28 1.391 24.101 2.719 35.922 4.059-0.05 0.424-0.1 0.847-0.161 1.28-11.871-1.092-24.722 6.42-35.761-5.339zm52.461 79.58c-9.461 0.285-18.477-0.273-26.286-6.407-5.873-4.606-10.355-10.405-10.629-17.879-0.509-14.256-0.148-28.535-0.148-44.269 15.187-0.321 30.421-0.693 45.656-0.967 5.601-0.1 11.213 0.137 16.825 0.074 2.358-0.049 3.575 0.459 3.602 3.204 0.174 12.044 0.731 24.088 0.758 36.134 0.023 17.755-12.085 29.589-29.778 30.11zm34.073-46.65c0.669-2.546 0.645-5.265 1.974-6.828 2.197-2.584 9.772-2.845 12.541-0.397 1.604 1.39 1.974 4.185 3.29 7.228-6.741-3e-3 -11.722-3e-3 -17.805-3e-3zm88.767 11.547c-0.037 4.321 0.124 8.779-0.832 12.951-2.284 10.07-8.951 16.738-18.487 20.152-9.784 3.501-19.893 2.941-29.7-0.111-10.432-3.217-18.181-14.44-18.181-26.324-0.023-12.603 0.511-25.217 0.759-37.821 0.024-1.925 0.322-3.19 2.72-3.179 20.996 0.138 42.044-1.365 62.966 1.852 0.112 0.025 0.235 0.148 0.795 0.484-2e-3 10.478 0.072 21.231-0.04 31.996zm-3.352-37.871c-5.602-1.366-11.622-1.105-17.521-2.532 11.821-1.354 23.655-2.707 35.464-4.062-5.489 3.838-10.294 8.469-17.943 6.594zm13.336 44.551c-0.46 1.963-2.731 3.489-4.421 5.526 0-9.972-0.721-19.186 0.409-28.176 0.36-2.904 5.515-5.215 8.469-7.796 0.583 0.359 1.153 0.72 1.727 1.066-2.012 9.811-3.862 19.659-6.184 29.38z" fill="#000000"></path>
	<path d="m192.29 197.5h-55.342c0.521 13.397 0.521 25.604 1.689 37.685 0.607 6.146 5.115 10.69 10.405 14.131 7.103 4.595 14.913 4.21 22.784 3.427 10.258-1.028 18.824-8.815 20.129-19.01 0.72-5.786 0.298-11.722 0.322-17.581 0.037-6.26 0.013-12.531 0.013-18.652zm-5.525 35.834c-0.807 8.382-8.617 14.095-17.185 14.578-6.469 0.36-12.915 0.67-18.564-3.515-5.028-3.737-7.958-8.469-8.046-14.912-0.099-7.698-0.508-15.396-0.521-23.096 0-1.217 1.39-3.452 2.195-3.488 13.958-0.658 27.902-1.02 42.342-1.479 1e-3 11.3 0.759 21.694-0.221 31.912z" fill="#000000"></path>
	<path d="m231.46 197.55c0 11.398-0.36 22.871 0.137 34.295 0.298 6.828 3.899 12.455 9.449 16.688 5.75 4.358 12.468 4.729 19.234 4.779 13.161 0.112 24.461-8.33 25.652-20.761 1.068-11.226 0.225-22.636 0.225-35.002-17.682 1e-3 -35.687 1e-3 -54.697 1e-3zm49.68 32.469c-0.597 9.425-7.798 16.838-17.196 17.78-4.136 0.422-8.493 0.461-12.541-0.347-7.885-1.554-13.571-6.632-14.293-14.591-0.918-10.096-0.224-20.326-0.224-30.173 14.527 0 28.359-0.05 42.205 0.125 0.881 0.012 2.436 1.813 2.436 2.805 0.06 8.135 0.109 16.293-0.387 24.401z" fill="#000000"></path>
</g>
</svg>