<?xml version='1.0' encoding='utf-8'?>
<!-- Generator: Adobe Illustrator 16.0.3, SVG Export Plug-In . SVG Version: 6.00 Build 0)  --><svg xmlns="http://www.w3.org/2000/svg" xmlns:cc="http://creativecommons.org/ns#" xmlns:dc="http://purl.org/dc/elements/1.1/" xmlns:ns="&amp;ns_sfw;" xmlns:rdf="http://www.w3.org/1999/02/22-rdf-syntax-ns#" width="488.78px" height="425.2px" enable-background="new -133.424 510.1 488.778 425.2" version="1.1" viewBox="-133.42 510.1 488.78 425.2" xml:space="preserve">
<metadata>
	<rdf:RDF>
		<cc:Work rdf:about="">
			<dc:format>image/svg+xml</dc:format>
			<dc:type rdf:resource="http://purl.org/dc/dcmitype/StillImage"></dc:type>
			<dc:title></dc:title>
		</cc:Work>
	</rdf:RDF>
	<ns:sfw>
		<ns:slices></ns:slices>
		<ns:sliceSourceBounds x="53.249" y="-411.024" width="460.432" height="396.851" bottomLeftOrigin="true"></ns:sliceSourceBounds>
	</ns:sfw>
</metadata>
<path d="m339.79 892.44c-0.823-2.74-3.36-7.846-4.761-10.325-0.06-0.085-0.172-0.29-0.229-0.375-26.777-42.478-102.73-172.65-102.73-172.65l-64.19-107.66-23.66-39.7s-7.673-12.936-10.238-17.247c-0.779-1.313-2.362-3.958-3.145-5.264-0.347-0.57-1.053-1.708-1.383-2.285-0.118-0.203-0.304-0.613-0.433-0.8-1.747-2.415-5.482-7.253-7.989-8.847-2.224-1.406-7.413-3.016-10.041-3.016-2.609 0-7.807 1.609-10.021 3.016-2.508 1.594-6.15 6.496-7.974 8.847-0.064 0.08-0.157 0.274-0.216 0.36-26.804 42.504-102.91 172.67-102.91 172.67l-64.192 107.72-23.563 39.687s-7.743 12.978-10.325 17.303c-0.786 1.297-2.357 3.951-3.15 5.25-0.346 0.574-1.061 1.701-1.391 2.275-0.116 0.202-0.332 0.607-0.434 0.807-1.248 2.513-3.886 7.53-4.686 10.24-0.656 2.193-1.355 6.836-1.384 9.145-0.022 1.588 0.367 4.76 0.8 6.283 0.288 1.012 1.124 3.028 1.76 3.866 1.203 1.645 4.332 4.355 6.077 5.391 1.889 1.1 6.115 2.453 8.256 2.916 3.022 0.664 12.3 1.068 12.3 1.068h401.13c0.213 0 0.678 0.027 0.894 0 4.255-0.289 12.923-0.924 16.915-2.398 2.406-0.893 6.907-3.658 8.624-5.566 1.212-1.324 2.71-4.728 3.229-6.458 0.271-0.895 0.378-2.77 0.433-3.688 0.016-0.352 0.029-1.07 0-1.414-0.173-2.306-0.72-6.949-1.384-9.145l5e-3 -6e-3 4e-3 -2e-3zm-408.62-12.372 179.83-306.24 179.75 306.24h-359.58z" fill="#000000"></path>
<rect x="26.383" y="842.18" width="177.1" height="20.999" fill="#000000"></rect>
<g fill="#222221">
	<path d="m78.467 830.72-17.142-12.134c18.289-25.837 11.016-39.486 0.948-58.379-10.552-19.802-23.685-44.447 1.329-82.068l17.486 11.626c-18.071 27.183-10.221 41.915-0.283 60.566 10.442 19.593 23.434 43.977-2.338 80.389z" fill="#000000"></path>
	<path d="m122.04 830.72-17.139-12.134c18.288-25.837 11.014-39.486 0.947-58.38-10.551-19.802-23.683-44.446 1.327-82.067l17.489 11.626c-18.073 27.183-10.223 41.915-0.283 60.566 10.441 19.593 23.434 43.977-2.341 80.389z" fill="#000000"></path>
	<path d="m165.55 830.72-17.139-12.134c18.289-25.837 11.014-39.486 0.947-58.379-10.552-19.802-23.686-44.447 1.329-82.068l17.486 11.626c-18.071 27.183-10.222 41.915-0.283 60.566 10.442 19.593 23.436 43.977-2.34 80.389z" fill="#000000"></path>
</g>
</svg>