<?xml version='1.0' encoding='utf-8'?>
<!-- Generator: Adobe Illustrator 16.0.0, SVG Export Plug-In . SVG Version: 6.00 Build 0)  --><svg xmlns="http://www.w3.org/2000/svg" xmlns:cc="http://creativecommons.org/ns#" xmlns:dc="http://purl.org/dc/elements/1.1/" xmlns:ns="&amp;ns_sfw;" xmlns:rdf="http://www.w3.org/1999/02/22-rdf-syntax-ns#" width="332px" height="505px" enable-background="new 0 0 332 505" version="1.1" viewBox="0 0 332 505" xml:space="preserve">
<metadata>
	<ns:sfw>
		<ns:slices></ns:slices>
		<ns:sliceSourceBounds x="281.805" y="118.75" width="277.391" height="369.501" bottomLeftOrigin="true"></ns:sliceSourceBounds>
	</ns:sfw>
<rdf:RDF><cc:Work rdf:about=""><dc:format>image/svg+xml</dc:format><dc:type rdf:resource="http://purl.org/dc/dcmitype/StillImage"></dc:type><dc:title></dc:title></cc:Work></rdf:RDF></metadata>
	<path d="m143.4 280.24 8.568 33.199 25.49 7.715 2.57-4.285c0.141-0.283 0.281-0.645 0.428-1.07 0.285-0.857 0.428-1.641 0.428-2.355 0-1.143-0.287-1.715-0.854-1.715l-6.855-31.486h-7.496c-0.43 0-0.823-0.07-1.178-0.215-0.358-0.141-0.537-0.643-0.537-1.5-0.145 0-0.145-0.141 0-0.428 0-0.285 0.285-0.713 0.856-1.285l16.065-38.344c0.143 0 0.355-0.141 0.645-0.428 0-0.144 0.068-0.285 0.215-0.43 1.141 0 1.713 0.286 1.713 0.856l17.137 38.341c0.285 0.287 0.428 0.535 0.428 0.75 0 0.217 0.07 0.396 0.217 0.535 0 0.287 0.068 0.428 0.215 0.428 0 0.572-0.146 1.004-0.432 1.285-0.143 0.289-0.285 0.432-0.428 0.432h-7.711l7.711 30.633c0.428 0.428 0.676 1.037 0.75 1.816 0.07 0.787 0.107 1.607 0.107 2.467 0 2.143-0.215 3.963-0.645 5.463-0.43 1.498-1.07 3.104-1.93 4.816h-0.855c6.854 1.285 14.172 2.322 21.955 3.105 7.781 0.787 16.389 1.178 25.814 1.178 1.713 0 3.139 0.572 4.283 1.715 1.143 1.146 1.715 2.57 1.715 4.283 0 0.572-0.146 1-0.43 1.285-0.145 0.287-0.287 0.428-0.43 0.428l-16.277 36.629c-1.857 4.146-4.572 7.465-8.143 9.961-3.57 2.5-7.641 3.75-12.209 3.75h-19.707l4.283 8.566c0 0.857 0.141 1.893 0.43 3.105 0.283 1.213 0.43 2.465 0.43 3.748 0 1.715-0.25 3.355-0.75 4.928-0.502 1.57-1.107 3-1.82 4.283l-11.139 18.852-17.139-9.426 9.426-16.064c0.43-0.428 0.678-1.145 0.75-2.143 0.07-1 0.107-1.713 0.107-2.143v-2.57l-4.285-11.139h-28.918l3.428 8.568c0.429 0.854 0.82 1.891 1.178 3.104 0.355 1.215 0.536 2.465 0.536 3.748 0 1.715-0.356 3.355-1.069 4.93-0.718 1.566-1.5 2.998-2.356 4.281l-10.282 18.854-17.993-9.426 10.282-16.064 0.857-3.428c0-0.857-0.037-1.537-0.107-2.035-0.074-0.502-0.32-0.965-0.75-1.393l-4.284-11.996h-28.916l3.428 9.426c0.428 0.854 0.676 1.891 0.75 3.104 0.069 1.211 0.106 2.465 0.106 3.748 0 1.713-0.106 3.355-0.319 4.93-0.216 1.566-0.682 2.998-1.395 4.281l-11.138 18.854-17.138-9.426 9.427-16.064c0.428-0.857 0.676-1.537 0.75-2.035 0.068-0.502 0.105-0.965 0.105-1.393v-3.428l-4.284-11.996h-20.563c-2.713 0-5.354-0.461-7.926-1.395-2.57-0.928-4.855-2.176-6.854-3.748-2.001-1.568-3.678-3.461-5.034-5.678-1.358-2.211-2.106-4.605-2.249-7.176l-6.854-40.057c0-2.998 0.568-5.854 1.713-8.566 1.142-2.711 2.678-5.105 4.605-7.176 1.928-2.068 4.246-3.783 6.961-5.143 2.711-1.355 5.709-2.176 8.996-2.463 3.713-0.285 7.104-0.463 10.176-0.535 3.067-0.07 5.891-0.107 8.461-0.107 2.569 0 4.817 0.037 6.746 0.107 1.928 0.072 3.963 0.32 6.104 0.748l-5.998-25.49h-7.711c-1.146 0-1.714-0.568-1.714-1.713 0-0.568 0.285-1.141 0.857-1.713l16.28-38.343 0.856-0.857c0.429 0 0.713 0.037 0.856 0.107 0.142 0.074 0.429 0.322 0.856 0.75l17.136 38.344v1.498c0 1.285-0.571 1.928-1.713 1.928h-5.998l5.998 25.49c5.997 0 11.278 0.215 15.853 0.645 4.566 0.428 9.209 1.07 13.922 1.928l-5.998-28.063h-9.424c-0.146 0-0.289-0.068-0.431-0.213-0.287-0.285-0.429-0.783-0.429-1.5 0.143 0 0.285-0.141 0.429-0.428 0.285-0.285 0.431-0.713 0.431-1.285l17.135-38.344 0.857-0.857c0.568 0 1.141 0.289 1.713 0.857l16.279 38.344c0.568 0.572 0.857 1.428 0.857 2.57 0 0.57-0.289 0.854-0.857 0.854h-7.712v0.01h4e-3zm-66.618 45.196c-3.427 0-7.176 0.037-11.245 0.107-4.07 0.074-8.818 0.322-14.244 0.75l-1.715 0.855c-1.146 0-1.714 0.289-1.714 0.857l5.998 36.629c0 0.857 0.285 1.359 0.856 1.5 0.57 0.145 1.072 0.213 1.5 0.213h11.996l-1.713-5.998c-0.43-1.141-0.824-2.281-1.18-3.426-0.357-1.143-0.533-2.283-0.533-3.428 0-1.855 0.176-3.645 0.533-5.355 0.355-1.713 1.034-3.283 2.035-4.713l9.426-17.991zm40.913 41.771-2.568-6.855c-1.146-2.854-1.715-5.854-1.715-8.996 0-2.854 0.856-5.494 2.57-7.926l9.425-15.424h-1.714c-3.427-0.428-7.033-0.963-10.816-1.605-3.785-0.643-7.818-0.965-12.104-0.965h-1.713l-13.709 24.852c-0.429 0.428-0.681 1-0.75 1.713-0.073 0.717-0.106 1.215-0.106 1.5v2.566l4.283 10.283h28.917v0.857zm27.419-34.06-10.28 17.141c-0.43 0.428-0.681 1-0.75 1.713-0.074 0.717-0.107 1.215-0.107 1.5v2.568l4.283 11.141h28.918l-2.355-6.855c-0.428-1.285-0.822-2.568-1.178-3.854-0.357-1.285-0.535-2.498-0.535-3.645 0-3.713 0.855-6.854 2.57-9.426l1.5-3.428c-2.858-0.428-6.393-1.355-10.604-2.783-4.216-1.426-8.035-2.785-11.462-4.072zm40.915 11.996-2.57 5.145c-0.43 0.428-0.824 1-1.18 1.713-0.357 0.717-0.535 1.215-0.535 1.5l5.141 13.709h27.418c0.43 0 0.857-0.178 1.285-0.535 0.43-0.355 0.857-0.75 1.285-1.178l2.572-8.568c0.428-0.43 0.676-0.857 0.748-1.285 0.068-0.43 0.105-0.857 0.105-1.285 0-1.426-1.285-2.57-3.854-3.428-2.57-0.857-5.678-1.57-9.318-2.143-3.641-0.568-7.389-1.145-11.244-1.713-3.857-0.571-7.142-1.218-9.853-1.932zm58.905-184.43c0.143-3.996 1.033-7.782 2.68-11.353 1.639-3.568 3.816-6.674 6.531-9.318 2.711-2.641 5.816-4.712 9.316-6.212 3.498-1.5 7.316-2.249 11.461-2.249l11.781-0.857c2.281 0 4.531 0.502 6.746 1.5 2.213 1 4.141 2.323 5.785 3.963 1.639 1.643 2.961 3.571 3.963 5.783 0.996 2.216 1.498 4.465 1.498 6.748 0 10.282-0.822 21.635-2.463 34.059-1.645 12.423-3.965 25.564-6.963 39.414-3.428 15.852-7.428 30.667-11.994 44.448-4.572 13.781-9.355 25.383-14.354 34.811-1.43 2.566-3.465 4.643-6.104 6.211-2.646 1.57-5.465 2.354-8.463 2.354h-29.986c-4.146 0-7.713-1.498-10.711-4.498-3-2.998-4.498-6.563-4.498-10.709v-17.994c4.713-9.854 9.281-20.523 13.709-32.022 4.424-11.492 8.354-24.167 11.781-38.021 2.568-8.14 4.713-16.135 6.426-23.991 1.716-7.856 3.001-15.212 3.859-22.067zm-13.709 123.81c0 1.285 0.393 2.467 1.18 3.533 0.781 1.072 1.818 1.607 3.104 1.607h15.422c4.57-8.568 8.998-18.92 13.281-31.061 4.285-12.137 7.926-25.706 10.924-40.7l1.072-5.354c2.143-10.422 3.996-20.099 5.568-29.025 1.568-8.923 2.355-17.384 2.355-25.383 0-1.286-0.535-2.463-1.605-3.535-1.07-1.071-2.248-1.606-3.533-1.606h-8.355c-1.285 0-2.285 0.321-2.998 0.964-0.717 0.643-1.215 1.466-1.5 2.463-0.287 1.001-0.465 2.035-0.535 3.106-0.072 1.071-0.105 2.035-0.105 2.892-0.857 8.14-2.145 16.316-3.855 24.526-1.713 8.214-3.785 16.815-6.211 25.812-1.715 6.715-3.717 13.21-5.998 19.493-2.287 6.285-4.57 12.138-6.854 17.564-2.287 5.43-4.43 10.389-6.426 14.889-2.004 4.498-3.645 8.246-4.93 11.244v8.571h-1e-3zm17.992-212.49c0-2.999 0.998-5.462 2.998-7.39s4.713-2.892 8.141-2.892c5.281 0 10.176 0.856 14.676 2.57 4.496 1.714 8.354 4.358 11.564 7.926 3.213 3.571 5.746 8.106 7.604 13.602 1.854 5.499 2.785 11.962 2.785 19.386 0 2.142-0.895 4.25-2.68 6.319-1.787 2.072-3.748 3.106-5.891 3.106-3.428 0.429-6.82 0.894-10.174 1.393-3.357 0.502-6.395 0.964-9.105 1.392-2.715 0.429-4.963 0.787-6.748 1.071-1.787 0.288-2.75 0.428-2.891 0.428-3 0-5.463-0.927-7.393-2.785-1.928-1.854-2.891-4.07-2.891-6.64v-37.486h5e-3z" fill="#000000"></path>
</svg>