<?xml version='1.0' encoding='utf-8'?>
<!-- Generator: Adobe Illustrator 16.0.0, SVG Export Plug-In . SVG Version: 6.00 Build 0)  --><svg xmlns="http://www.w3.org/2000/svg" xmlns:cc="http://creativecommons.org/ns#" xmlns:dc="http://purl.org/dc/elements/1.1/" xmlns:ns="&amp;ns_sfw;" xmlns:rdf="http://www.w3.org/1999/02/22-rdf-syntax-ns#" width="470px" height="425.2px" version="1.2" viewBox="0 -73.099 470 425.2" xml:space="preserve">
<metadata>
	<ns:sfw>
		<ns:slices></ns:slices>
		<ns:sliceSourceBounds x="214.415" y="219.047" width="412.169" height="171.432" bottomLeftOrigin="true">
			</ns:sliceSourceBounds>
	</ns:sfw>
	<rdf:RDF>
		<cc:Work rdf:about="">
			<dc:format>image/svg+xml</dc:format>
			<dc:type rdf:resource="http://purl.org/dc/dcmitype/StillImage"></dc:type>
			<dc:title></dc:title>
		</cc:Work>
	</rdf:RDF>
	<ns:sfw>
		<ns:slices></ns:slices>
		<ns:sliceSourceBounds x="193.453" y="190.941" width="454.09" height="283.464" bottomLeftOrigin="true"></ns:sliceSourceBounds>
	</ns:sfw>
</metadata>
<path d="m300.26 60.185c-78.404-25.669-54.054-54.676-124.41-76.59l-0.118 0.192-0.304-0.192-141.08 223.12 6.174 3.903 88.013-139.19c66.853 30.622 46.009 52.012 119.12 74.22l52.611-85.463z" fill="#000000"></path>
<path d="m455.22 141c-4.549-10.218-10.54-18.872-17.981-25.958-7.441-7.087-15.918-12.816-25.425-17.187-9.51-4.369-19.224-7.854-29.146-10.454-9.923-2.598-19.639-4.519-29.145-5.758-9.509-1.242-17.981-2.214-25.425-2.924-0.943-0.116-1.769-0.204-2.48-0.266-0.709-0.059-1.479-0.146-2.304-0.266h-32.131l-0.068 0.108c3.553 0.472 7.253 1.14 11.116 2.022 3.543 0.827 7.554 1.949 12.047 3.365 4.487 1.418 9.036 3.133 13.643 5.139l-16.65-0.885c-4.137-1.89-8.15-3.425-12.052-4.608-3.528-1.066-6.7-1.983-9.549-2.763l-7.806 12.267c0.086 0.049 0.18 0.098 0.266 0.148 4.546 2.657 8.178 5.522 10.896 8.593 2.718 3.073 4.076 6.497 4.076 10.276 0 4.136-1.925 8.77-5.761 13.909-3.838 5.137-10.188 10.984-19.047 17.538-8.855 6.557-20.551 13.91-35.08 22.058-14.53 8.152-32.513 17.305-53.952 27.464-21.437 10.16-46.596 21.383-75.476 33.664-6.493 2.762-13.221 5.591-20.158 8.478-23.92 9.955-50.472 20.648-79.678 32.093h43.976l387.08 6e-3c8.15-18.307 14.025-34.814 17.63-49.521 3.602-14.705 5.403-27.963 5.403-39.774 1e-3 -14.293-2.274-26.549-6.82-36.764zm-113.12-44.202c3.07 2.126 5.938 4.548 8.594 7.265 2.656 2.719 4.873 5.789 6.644 9.213h-18.427c-1.417-3.424-3.249-6.495-5.493-9.213-2.244-2.716-4.725-5.139-7.44-7.265h16.122zm-71.4 152.36c-7.441 5.671-15.414 11.637-23.919 17.894h-46.774c9.922-6.262 19.133-12.223 27.639-17.894 8.505-5.668 16.535-11.277 24.096-16.831h39.685c-6.378 5.554-13.289 11.166-20.727 16.831zm65.199-60.5c-4.371 5.254-9.452 10.838-15.237 16.743h-34.371c6.852-5.905 12.933-11.491 18.248-16.743 5.315-5.255 10.038-10.366 14.174-15.325h28.525c-3.188 4.959-6.971 10.074-11.339 15.325zm23.032-38.354h-24.449c4.017-7.913 6.2-14.997 6.555-21.261h21.262v1e-3l0.177 3.19c-1e-3 5.315-1.182 11.338-3.545 18.07z" fill="#000000"></path>
</svg>