<?xml version='1.0' encoding='utf-8'?>
<!-- Generator: Adobe Illustrator 16.0.0, SVG Export Plug-In . SVG Version: 6.00 Build 0)  --><svg xmlns="http://www.w3.org/2000/svg" xmlns:cc="http://creativecommons.org/ns#" xmlns:dc="http://purl.org/dc/elements/1.1/" xmlns:ns0="&amp;ns_sfw;" xmlns:rdf="http://www.w3.org/1999/02/22-rdf-syntax-ns#" width="593px" height="595.28px" version="1.2" viewBox="0 0 593 595.28" xml:space="preserve">
<metadata>
	<rdf:RDF>
		<cc:Work rdf:about="">
			<dc:format>image/svg+xml</dc:format>
			<dc:type rdf:resource="http://purl.org/dc/dcmitype/StillImage"></dc:type>
			<dc:title></dc:title>
		</cc:Work>
	</rdf:RDF>
	<ns0:sfw>
		<ns0:slices></ns0:slices>
		<ns0:sliceSourceBounds x="172.93" y="75.73" width="492.033" height="492.018" bottomLeftOrigin="true"></ns0:sliceSourceBounds>
	</ns0:sfw>
</metadata>
<path d="m480.61 112.01c-43.11-49.591-102.95-79.426-168.5-84.01-5.78-0.404-11.633-0.609-17.404-0.609-62.139 0-121.52 23.365-167.2 65.79-45.897 42.63-73.586 100.54-77.958 163.06-4.584 65.549 16.636 128.96 59.742 178.55 43.11 49.59 102.95 79.426 168.5 84.01 5.779 0.404 11.633 0.609 17.404 0.609v-1e-3c62.139 0 121.52-23.365 167.2-65.787 45.896-42.631 73.586-100.54 77.959-163.06 4.583-65.55-16.632-128.96-59.743-178.55zm-46.039 19.561c37.681 37.681 58.433 87.78 58.433 141.07s-20.752 103.39-58.433 141.07c-37.68 37.681-87.779 58.433-141.07 58.433-53.289 0-103.39-20.752-141.07-58.433-37.682-37.679-58.433-87.779-58.433-141.07 0-53.289 20.751-103.39 58.433-141.07 37.68-37.681 87.778-58.432 141.07-58.432 53.288 0 103.39 20.751 141.07 58.432z" fill="#000000"></path>
	<path d="m280.02 303.63c0 27.896-23.69 47.823-59.559 47.823-30.774 0-55.794-15.499-59.115-42.51l31.883-3.321c3.1 11.513 14.612 16.163 26.568 16.163 16.163 0 25.24-7.971 25.24-19.041 0-12.178-10.849-18.599-28.783-18.599h-12.62v-26.567h13.507c15.497 0 24.354-7.528 24.354-18.598 0-11.292-7.75-19.041-23.469-19.041-13.284 0-22.141 5.757-25.02 17.712l-31.218-3.321c3.542-25.019 21.478-44.06 58.008-44.06 35.646 0 55.573 21.698 55.573 44.281 0 13.727-5.978 25.683-19.041 32.989 16.386 7.307 23.692 21.477 23.692 36.09z" fill="#000000"></path>
	<path d="m424.37 270.86c0 51.145-25.903 80.592-66.421 80.592s-66.2-29.447-66.2-80.592c0-51.146 25.684-80.591 66.2-80.591 40.517-1e-3 66.421 29.446 66.421 80.591zm-35.203 0c0-33.875-11.292-49.374-31.218-49.374-18.82 0-31.219 15.499-31.219 49.374 0 33.211 12.397 49.374 31.219 49.374 19.926 0 31.218-16.163 31.218-49.374z" fill="#000000"></path>
</svg>