<?xml version='1.0' encoding='utf-8'?>
<!-- Generator: Adobe Illustrator 16.0.0, SVG Export Plug-In . SVG Version: 6.00 Build 0)  --><svg xmlns="http://www.w3.org/2000/svg" xmlns:cc="http://creativecommons.org/ns#" xmlns:dc="http://purl.org/dc/elements/1.1/" xmlns:ns="&amp;ns_sfw;" xmlns:rdf="http://www.w3.org/1999/02/22-rdf-syntax-ns#" width="456px" height="512.14px" enable-background="new 0 0 456 512.141" version="1.1" viewBox="0 0 456 512.14" xml:space="preserve">
<metadata>
	<ns:sfw>
		<ns:slices></ns:slices>
		<ns:sliceSourceBounds x="216.705" y="123.689" width="407.795" height="340.769" bottomLeftOrigin="true"></ns:sliceSourceBounds>
	</ns:sfw>
<rdf:RDF><cc:Work rdf:about=""><dc:format>image/svg+xml</dc:format><dc:type rdf:resource="http://purl.org/dc/dcmitype/StillImage"></dc:type><dc:title></dc:title></cc:Work></rdf:RDF></metadata>
	<path d="m347.79 154.39c0 6.385-0.869 12.478-2.609 18.279-1.741 5.804-4.172 11.207-7.29 16.211-3.121 5.005-6.894 9.503-11.315 13.492-4.427 3.992-9.248 7.364-14.471 10.119v27.635c0 3.193-0.075 6.42-0.218 9.684-0.146 3.267-0.581 6.566-1.308 9.9-0.728 3.34-1.85 6.605-3.373 9.793-1.521 3.193-3.734 6.238-6.637 9.139-3.19 3.05-6.563 5.406-10.119 7.072-3.556 1.67-7.07 2.867-10.554 3.592-3.479 0.729-6.892 1.162-10.228 1.308-3.341 0.145-6.387 0.217-9.141 0.217h-236.32v-59.188h228.49v-19.149c-5.223-2.754-10.01-6.127-14.36-10.119-4.354-3.987-8.091-8.487-11.207-13.492-3.124-5.005-5.551-10.408-7.292-16.211-1.739-5.801-2.609-11.894-2.609-18.279 0-8.993 1.704-17.48 5.112-25.46 3.407-7.977 8.054-14.906 13.929-20.781 5.876-5.875 12.764-10.517 20.673-13.927 7.905-3.407 16.283-5.114 25.133-5.114 9.142 0 17.698 1.707 25.68 5.114 7.977 3.41 14.938 8.051 20.891 13.927 5.946 5.875 10.625 12.805 14.035 20.781 3.404 7.977 5.111 16.464 5.111 25.457zm56.142 97.922c-0.437 19.586-4.354 38.299-11.75 56.143-7.834 17.99-18.646 34.021-32.424 48.092-14.073 14.072-30.104 24.881-48.093 32.422-18.714 7.834-38.372 11.752-58.971 11.752h-1.959v29.158l-58.536-48.09 58.536-48.309v27.198c0.438 0.146 1.088 0.22 1.959 0.22 15.086 0 29.302-2.828 42.65-8.486 13.346-5.658 25.059-13.418 35.144-23.285 10.081-9.863 18.095-21.359 24.045-34.49 5.947-13.127 9.064-27.231 9.357-42.321h-28.071l48.091-58.537 48.093 58.536h-28.07v-3e-3h-1e-3z" fill="#000000"></path>
</svg>