<?xml version='1.0' encoding='utf-8'?>
<!-- Generator: Adobe Illustrator 16.0.0, SVG Export Plug-In . SVG Version: 6.00 Build 0)  --><svg xmlns="http://www.w3.org/2000/svg" xmlns:cc="http://creativecommons.org/ns#" xmlns:dc="http://purl.org/dc/elements/1.1/" xmlns:rdf="http://www.w3.org/1999/02/22-rdf-syntax-ns#" width="389.48px" height="425.2px" version="1.2" viewBox="0 0 389.48 425.2" xml:space="preserve"><metadata><rdf:RDF><cc:Work rdf:about=""><dc:format>image/svg+xml</dc:format><dc:type rdf:resource="http://purl.org/dc/dcmitype/StillImage"></dc:type><dc:title></dc:title></cc:Work></rdf:RDF></metadata>

	<path d="m120.52 36.47-30.994 48.456h208.67l-30.993-48.456h-146.68 4e-3zm-30.702 166.31v29.688h-42.735v-110.36l32.343-37.178 38.389-56.556h152.08l38.386 56.556 32.344 37.178v110.36h-42.73v-29.688h-208.08 7e-3l1e-3 -1e-3zm-29.168-70.758 49.521 11.92-2.699-20.851-46.821-4.759-1e-3 13.69zm113.11-8.336-55.327-1.578 12.366 36.533h126.11l12.369-36.533-55.324 1.578-5.848 6.404h-28.502l-5.841-6.404h-2e-3zm153.29-5.354-46.818 4.759-2.693 20.851 49.513-11.92-2e-3 -13.69z" fill="#000000"></path>
	<path d="m69.394 67.616c9.597 0 11.641 4.484 11.641 10.017 0 5.532-2.046 10.017-11.641 10.017-9.594 0-17.369-4.483-17.369-10.017 0-5.533 7.778-10.017 17.369-10.017z" fill="#000000"></path>
	<path d="m321.24 67.616c-9.596 0-11.638 4.484-11.638 10.017 0 5.532 2.046 10.017 11.638 10.017 9.598 0 17.371-4.483 17.371-10.017 0-5.533-7.775-10.017-17.371-10.017z" fill="#000000"></path>


	<path d="m19.249 340.13 26.768-2.955c0.81 5.215 3.129 8.98 6.953 11.299 3.824 2.318 9.443 3.477 16.86 3.477 7.996 0 13.672-1.043 17.034-3.129 3.36-2.086 5.041-5.271 5.041-9.561 0-3.592-1.624-6.432-4.867-8.518-3.245-2.086-8.286-3.824-15.122-5.215l-11.819-2.26c-12.284-2.434-21.874-6.488-28.767-12.167-6.896-5.677-10.342-13.847-10.342-24.509 0-7.414 1.795-13.934 5.389-19.555 3.59-5.619 9.008-9.965 16.252-13.037 7.24-3.067 16.135-4.605 26.681-4.605 15.179 0 26.594 3.102 34.242 9.301s12.108 14.572 13.384 25.115l-25.899 3.129c-0.929-4.52-3.129-7.908-6.605-10.168-3.477-2.26-8.403-3.391-14.775-3.391-5.214 0-9.329 0.436-12.341 1.305-3.015 0.869-5.158 2.173-6.431 3.911-1.277 1.737-1.912 3.997-1.912 6.778 0 2.434 0.752 4.492 2.26 6.17 1.504 1.682 3.911 3.158 7.213 4.434 3.302 1.275 7.735 2.434 13.297 3.477l11.298 2.434c11.934 2.434 21.146 6.404 27.637 11.906 6.488 5.506 9.733 13.588 9.733 24.248 0 12.054-4.258 21.379-12.775 27.983s-21.179 9.908-37.979 9.908c-30.245 2e-3 -47.048-11.932-50.408-35.805z" fill="#000000"></path>
	<path d="m160.91 367.5c-10.082-5.618-18.077-13.236-23.987-22.855-5.91-9.617-8.864-20.277-8.864-31.982 0-11.703 2.955-22.393 8.864-32.068 5.91-9.676 13.906-17.295 23.987-22.857s21.032-8.344 32.852-8.344c11.933 0 22.914 2.781 32.938 8.344 10.021 5.563 17.989 13.184 23.899 22.857 5.909 9.677 8.864 20.365 8.864 32.068 0 11.59-2.955 22.223-8.864 31.896-5.91 9.678-13.879 17.324-23.899 22.943-10.024 5.621-21.005 8.431-32.938 8.431-11.821-1e-3 -22.771-2.81-32.852-8.433zm52.058-21.117c5.851-3.36 10.485-7.996 13.905-13.906 3.416-5.909 5.128-12.516 5.128-19.814 0-7.301-1.712-13.904-5.128-19.814-3.42-5.91-8.057-10.543-13.905-13.904-5.854-3.361-12.255-5.041-19.207-5.041-6.953 0-13.357 1.68-19.207 5.041-5.853 3.361-10.489 7.994-13.905 13.904-3.419 5.91-5.128 12.516-5.128 19.814 0 7.301 1.708 13.905 5.128 19.814 3.417 5.91 8.052 10.546 13.905 13.906 5.85 3.361 12.254 5.039 19.207 5.039 6.952 0 13.354-1.676 19.207-5.039z" fill="#000000"></path>
	<path d="m267.29 340.13 26.768-2.955c0.811 5.215 3.129 8.98 6.953 11.299 3.823 2.318 9.443 3.477 16.86 3.477 7.995 0 13.672-1.043 17.034-3.129 3.358-2.086 5.04-5.271 5.04-9.561 0-3.592-1.624-6.432-4.866-8.518-3.246-2.086-8.286-3.824-15.122-5.215l-11.82-2.26c-12.284-2.434-21.874-6.488-28.767-12.167-6.896-5.677-10.342-13.847-10.342-24.509 0-7.414 1.795-13.934 5.388-19.555 3.591-5.619 9.009-9.965 16.252-13.037 7.241-3.067 16.136-4.605 26.682-4.605 15.18 0 26.595 3.102 34.242 9.301s12.107 14.572 13.384 25.115l-25.898 3.129c-0.93-4.52-3.128-7.908-6.604-10.168s-8.402-3.391-14.773-3.391c-5.215 0-9.329 0.436-12.343 1.305-3.015 0.869-5.156 2.173-6.431 3.911-1.276 1.737-1.911 3.997-1.911 6.778 0 2.434 0.752 4.492 2.26 6.17 1.505 1.682 3.91 3.158 7.213 4.434s7.734 2.434 13.298 3.477l11.298 2.434c11.934 2.434 21.146 6.404 27.637 11.906 6.488 5.506 9.734 13.588 9.734 24.248 0 12.054-4.259 21.379-12.776 27.983s-21.178 9.908-37.979 9.908c-30.248 2e-3 -47.051-11.932-50.411-35.805z" fill="#000000"></path>

</svg>