<?xml version='1.0' encoding='utf-8'?>
<!-- Generator: Adobe Illustrator 16.0.0, SVG Export Plug-In . SVG Version: 6.00 Build 0)  --><svg xmlns="http://www.w3.org/2000/svg" xmlns:cc="http://creativecommons.org/ns#" xmlns:dc="http://purl.org/dc/elements/1.1/" xmlns:ns="&amp;ns_sfw;" xmlns:rdf="http://www.w3.org/1999/02/22-rdf-syntax-ns#" width="444px" height="391px" version="1.2" viewBox="0 0 444 391" xml:space="preserve">
<metadata>
	<ns:sfw>
		<ns:slices></ns:slices>
		<ns:sliceSourceBounds x="216.198" y="219.215" width="408.604" height="170.207" bottomLeftOrigin="true"></ns:sliceSourceBounds>
	</ns:sfw>
<rdf:RDF><cc:Work rdf:about=""><dc:format>image/svg+xml</dc:format><dc:type rdf:resource="http://purl.org/dc/dcmitype/StillImage"></dc:type><dc:title></dc:title></cc:Work></rdf:RDF></metadata>
	<path d="m343.23 132.87 12.854-17.086c2.062-2.278 4.094-4.122 6.104-5.533 2.006-1.408 4.475-2.686 7.401-3.824 2.932-1.139 6.349-1.708 10.252-1.708 3.473 0 7.404 0.407 11.798 1.22 4.396 0.813 8.705 1.791 12.938 2.93 4.229 1.139 8.136 2.334 11.716 3.58 3.58 1.248 9.845 3.688 10.008 4.394 0.162 0.707-10.333 18.144-10.333 18.144-1.302 0-2.983-0.487-5.045-1.465-2.062-0.976-4.584-2.033-7.564-3.172-2.985-1.14-6.511-2.197-10.577-3.174-4.068-0.977-8.706-1.464-13.913-1.464-1.302 0-2.469 0.056-3.498 0.163-1.032 0.109-1.765 0.326-2.197 0.65-0.544 1.627-1.302 3.229-2.275 4.801-0.979 1.574-2.063 3.066-3.257 4.475-1.193 1.411-2.438 2.766-3.741 4.068-1.304 1.302-2.496 2.496-3.579 3.58 1.302 0.543 2.791 0.869 4.475 0.977 1.682 0.109 3.442 0.163 5.288 0.163h2.604c4.661 0 8.729 0.19 12.205 0.569 3.471 0.381 6.671 1.438 9.601 3.173 2.929 1.735 5.748 4.394 8.461 7.973 2.711 3.58 5.64 8.625 8.787 15.133 1.192 2.39 2.467 5.236 3.824 8.543 1.354 3.313 2.629 6.894 3.822 10.74 1.192 3.854 2.169 7.894 2.931 12.123 0.758 4.23 1.14 8.521 1.14 12.855v0.649c0 5.426-0.626 9.982-1.871 13.668-1.249 3.689-2.93 6.672-5.045 8.949-2.115 2.279-4.612 3.906-7.485 4.883-2.875 0.978-5.886 1.465-9.029 1.465-1.411 0-2.713-0.135-3.905-0.405-1.195-0.271-2.225-0.406-3.092-0.406-0.869 0-1.847 0.729-2.931 2.195-1.086 1.465-2.416 3.256-3.985 5.368-1.573 2.115-3.475 4.449-5.695 6.998-2.225 2.552-4.963 4.883-8.217 6.996-3.255 2.115-7.054 3.906-11.394 5.371s-9.384 2.195-15.133 2.195c-4.34 0-8.599-0.621-12.771-1.871-4.18-1.246-8.058-3.063-11.636-5.451-3.579-2.385-6.78-5.287-9.603-8.705s-5.1-7.242-6.834-11.473c-0.435-0.324-130.21-0.789-162.44-0.789-4.34 8.461-10.298 15.979-17.944 20.967-7.648 4.992-16.191 7.486-25.629 7.486-4.558 0-9.006-0.65-13.345-1.953-4.34-1.303-8.354-3.146-12.042-5.533-3.688-2.385-6.972-5.287-9.845-8.705-2.875-3.418-5.182-7.242-6.916-11.473h-23.432c-4.45 0-7.757-1.383-9.926-4.148-2.173-2.768-3.661-5.965-4.477-9.602-0.813-3.633-1.194-7.187-1.139-10.658 0.053-3.471 0.081-5.965 0.081-7.484 0-8.241 0.542-15.239 1.627-20.989 1.083-5.75 2.899-10.47 5.451-14.158 2.547-3.688 5.912-6.48 10.089-8.381 4.175-1.896 9.354-3.117 15.54-3.66 5.313-1.192 11.091-2.306 17.33-3.336 6.235-1.029 12.474-1.953 18.713-2.769 6.235-0.813 12.339-1.436 18.306-1.871 5.965-0.432 11.335-0.649 16.11-0.649 1.518-1.302 4.771-3.498 5.533-3.985 0.758-0.488 5.802-5.289 8.299-7.893 2.71-2.93 6.127-6.237 10.251-9.926 4.122-3.688 8.729-7.348 13.832-10.984 5.098-3.633 10.577-7.078 16.435-10.333 5.858-3.254 11.986-5.965 18.388-8.136 6.074-1.193 12.638-2.088 19.689-2.686 7.051-0.595 14.32-0.895 21.808-0.895 11.172 0 21.909 0.568 32.219 1.708 10.306 1.139 20.066 2.875 29.291 5.207 9.219 2.334 17.734 5.345 25.547 9.03 7.805 3.69 14.802 8.137 20.987 13.344zm-215.94 91.299 190.39 0.479v4.396c0 3.799 0.76 7.27 2.278 10.414 1.519 3.146 3.523 5.856 6.021 8.137 2.492 2.277 5.423 4.041 8.785 5.287 3.361 1.25 6.89 1.871 10.577 1.871 3.796 0 7.376-0.621 10.739-1.871 3.361-1.246 6.318-3.01 8.869-5.287 2.547-2.279 4.556-4.988 6.021-8.137 1.466-3.146 2.196-6.615 2.196-10.414v-4.396h4.231c1.302-0.434 10.847-0.543 13.343-0.323 2.494 0.219 4.447 0.323 5.856 0.323h2.278c0.867-0.104 1.489-0.461 1.871-1.059 0.379-0.594 0.569-1.979 0.569-4.148 0-6.184-0.896-12.422-2.687-18.713s-3.799-11.934-6.021-16.924c-2.227-4.988-4.23-9.004-6.021-12.041-1.79-3.037-2.685-4.447-2.685-4.229l-2.115-0.488h-29.943c-0.762 0-2.308-1.06-4.639-3.174-2.334-2.115-5.589-4.72-9.764-7.812-4.177-3.092-9.385-6.48-15.621-10.17-6.239-3.688-13.644-7.078-22.212-10.17-8.571-3.092-18.388-5.695-29.453-7.811s-23.488-3.174-37.264-3.174c-7.704 0-14.701 0.545-20.991 1.627-6.293 1.086-12.151 2.686-17.574 4.801-5.426 2.115-10.633 4.746-15.622 7.892-4.991 3.147-10.036 6.781-15.133 10.902-3.148 2.604-5.939 5.044-8.38 7.323-2.441 2.275-4.584 4.312-6.43 6.103-1.846 1.789-8.624 8.055-8.624 8.055l-2.114 1.953c-1.304 1.301-2.359 2.277-3.175 2.928-0.813 0.652-1.521 1.142-2.114 1.468-0.599 0.323-1.113 0.625-1.546 0.895-0.437 0.271-10.251 1.221-10.251 1.221-4.884 0.65-10.172 1.33-15.866 2.033-5.695 0.707-11.554 1.439-17.574 2.197-6.021 0.76-12.016 1.52-17.981 2.277-5.967 0.762-11.553 1.465-16.76 2.114-4.556 0.545-7.513 1.627-8.869 3.254-1.355 1.63-2.032 3.363-2.032 5.207 0 0.437-0.139 1.357-0.407 2.769-0.272 1.412-0.599 3.065-0.978 4.963-0.381 1.9-0.707 3.986-0.977 6.266-0.272 2.277-0.407 4.449-0.407 6.511v2.276c0 0.869 0.053 1.654 0.163 2.359 0.107 0.707 0.351 1.301 0.732 1.789 0.379 0.488 1.002 0.731 1.871 0.731h30.104v2.277c0 3.799 0.732 7.271 2.197 10.414 1.465 3.148 3.441 5.859 5.938 8.137 2.494 2.277 5.423 4.043 8.787 5.289 3.361 1.248 6.941 1.871 10.74 1.871 3.687 0 7.213-0.623 10.577-1.871 3.359-1.246 6.291-3.012 8.787-5.289 2.492-2.276 4.5-4.987 6.021-8.137 1.52-3.145 2.278-6.615 2.278-10.414v-2.756l0.014-1e-3z" fill="#000000"></path>
</svg>