<?xml version='1.0' encoding='utf-8'?>
<!-- Generator: Adobe Illustrator 16.0.3, SVG Export Plug-In . SVG Version: 6.00 Build 0)  --><svg xmlns="http://www.w3.org/2000/svg" xmlns:cc="http://creativecommons.org/ns#" xmlns:dc="http://purl.org/dc/elements/1.1/" xmlns:rdf="http://www.w3.org/1999/02/22-rdf-syntax-ns#" width="298.25px" height="425.2px" enable-background="new 0 0 298.247 425.197" version="1.1" viewBox="0 0 298.25 425.2" xml:space="preserve"><metadata><rdf:RDF><cc:Work rdf:about=""><dc:format>image/svg+xml</dc:format><dc:type rdf:resource="http://purl.org/dc/dcmitype/StillImage"></dc:type><dc:title></dc:title></cc:Work></rdf:RDF></metadata>
<path d="m215.7 340.16c-13.456 0-23.402-3.311-30.244-10.043-7.028-6.915-10.067-16.824-9.024-29.45 0.228-2.757 0.708-4.944 1.061-6.53 0.103-0.47 0.231-1.057 0.301-1.445-0.301-0.573-1.219-2.041-3.88-4.955-2.367-2.592-3.284-6.188-2.451-9.595 0.837-3.413 3.317-6.181 6.613-7.384l19.541-7.136-23.769-7.811c-2.761-0.902-5.024-2.914-6.251-5.546-1.229-2.631-1.317-5.653-0.238-8.352l4.199-10.515-18.228-5.729c-10.085-3.172-13.743-8.959-15.035-13.254-1.949-6.481 0.052-13.451 5.944-20.708 14.96-18.429 27.887-33.253 43.141-50.23-12.53-37.94-0.672-64.627 36.967-83.646 5.172-2.631 11.514-0.543 14.139 4.646 2.62 5.186 0.539 11.518-4.646 14.138-34.226 17.294-34.791 37.096-24.613 63.438 1.428 3.699 0.653 7.891-2.004 10.836-16.909 18.751-30.614 34.339-46.643 54.082-0.213 0.261-0.403 0.507-0.572 0.734l28.688 9.018c2.793 0.877 5.094 2.882 6.35 5.527 1.259 2.643 1.354 5.693 0.268 8.413l-4.254 10.65 33.502 11.002c5.487 1.802 9.242 6.89 9.334 12.651 0.096 5.836-3.557 11.114-9.092 13.133l-27.013 9.865c1.508 4.221 1.27 8.075 0.257 12.692-0.283 1.284-0.528 2.382-0.639 3.74-0.503 6.107 0.44 10.387 2.804 12.706 3.517 3.457 11.724 4.734 23.101 3.604l49.193-4.896c5.881-0.609 10.941 3.648 11.514 9.433 0.576 5.785-3.648 10.938-9.428 11.511l-49.194 4.896c-3.42 0.341-6.649 0.51-9.699 0.51z" fill="#000000"></path>
<path d="m277.74 147.69c-14.976-11.914-32.145-22.037-56.119-15.404-5.604 1.549-8.89 7.345-7.345 12.945 1.549 5.603 7.363 8.88 12.945 7.343 0.271-0.075 0.534-0.13 0.803-0.2 1.407 5.97 6.755 10.417 13.155 10.417h1.064c4.819 0 9.038-2.528 11.434-6.323 3.363 1.97 6.957 4.507 10.959 7.692 1.936 1.538 4.248 2.287 6.545 2.287 3.098 0 6.162-1.358 8.244-3.971 3.618-4.548 2.862-11.169-1.685-14.786z" fill="#000000"></path>

	<path d="m40.153 330.01c-3.701 0-7.293-1.961-9.214-5.426-10.969-19.797-16.766-42.219-16.766-64.836 0-22.625 5.797-45.043 16.766-64.837 2.817-5.08 9.222-6.918 14.307-4.103 5.083 2.818 6.92 9.223 4.103 14.307-9.244 16.678-14.13 35.569-14.13 54.634s4.887 37.951 14.13 54.633c2.817 5.08 0.978 11.488-4.105 14.307-1.616 0.895-3.366 1.321-5.091 1.321z" fill="#000000"></path>
	<path d="m77.503 311.67c-3.701 0-7.291-1.952-9.212-5.425-7.869-14.186-12.027-30.269-12.027-46.499 0-16.231 4.159-32.314 12.027-46.508 2.819-5.087 9.222-6.918 14.305-4.104 5.083 2.819 6.92 9.224 4.102 14.307-6.143 11.081-9.389 23.634-9.389 36.305 0 12.67 3.247 25.223 9.389 36.3 2.818 5.083 0.981 11.484-4.102 14.303-1.617 0.895-3.367 1.321-5.093 1.321z" fill="#000000"></path>
	<path d="m114.85 289.55c-3.703 0-7.294-1.959-9.216-5.424-4.124-7.451-6.3-15.878-6.3-24.379 0-8.508 2.179-16.937 6.302-24.38 2.817-5.079 9.226-6.922 14.305-4.103 5.085 2.818 6.922 9.223 4.105 14.307-2.4 4.325-3.668 9.229-3.668 14.176 0 4.94 1.27 9.844 3.668 14.183 2.817 5.079 0.979 11.488-4.107 14.3-1.615 0.895-3.364 1.32-5.089 1.32z" fill="#000000"></path>

</svg>