<?xml version='1.0' encoding='utf-8'?>
<!-- Generator: Adobe Illustrator 27.2.0, SVG Export Plug-In . SVG Version: 6.00 Build 0)  --><svg xmlns:cc="http://creativecommons.org/ns#" xmlns="http://www.w3.org/2000/svg" xmlns:rdf="http://www.w3.org/1999/02/22-rdf-syntax-ns#" xmlns:dc="http://purl.org/dc/elements/1.1/" xmlns:xlink="http://www.w3.org/1999/xlink" version="1.2" baseProfile="tiny" id="Vrstva_1" x="0px" y="0px" viewBox="0 0 56.7 56.7" overflow="visible" xml:space="preserve" width="400.0" height="400.0">
<path fill="none" d="M28.5,18.1c0.1,0,0.2,0,0.3,0c0.1,0,0.2,0,0.3,0c0.1,0,0.2,0,0.3,0c0.1,0,0.2,0,0.3,0c0.1,0,0.2,0,0.3,0  c0.1,0,0.2,0,0.2,0c0.1,0,0.2,0,0.2,0c0.1,0,0.2,0,0.2,0c0.1,0,0.2,0,0.2,0.1c0.1,0,0.2,0,0.2,0.1c0.1,0,0.2,0,0.2,0.1  c0.1,0,0.2,0,0.2,0.1c0.1,0,0.2,0.1,0.2,0.1c0.1,0,0.2,0.1,0.2,0.1c0.1,0,0.2,0.1,0.2,0.1c0.1,0,0.2,0.1,0.2,0.1  c0.1,0,0.2,0.1,0.2,0.1c0.1,0,0.2,0.1,0.2,0.1c0.1,0,0.2,0.1,0.2,0.1c0.1,0,0.1,0.1,0.2,0.1c0.1,0,0.1,0.1,0.2,0.1  c0.1,0,0.1,0.1,0.2,0.1c0.1,0,0.1,0.1,0.2,0.1c0.1,0,0.1,0.1,0.2,0.1c0.1,0,0.1,0.1,0.2,0.1c0.1,0,0.1,0.1,0.2,0.2  c0.1,0.1,0.1,0.1,0.2,0.2c0.1,0.1,0.1,0.1,0.2,0.2c0.1,0.1,0.1,0.1,0.2,0.2c0.1,0.1,0.1,0.1,0.2,0.2c0.1,0.1,0.1,0.1,0.2,0.2  c0.1,0.1,0.1,0.1,0.2,0.2c0.1,0.1,0.1,0.1,0.2,0.2c0.1,0.1,0.1,0.1,0.2,0.2c0.1,0.1,0.1,0.1,0.2,0.2c0.1,0.1,0.1,0.1,0.2,0.2  c0.1,0.1,0.1,0.1,0.2,0.2c0.1,0.1,0.1,0.1,0.2,0.2c0,0.1,0.1,0.1,0.1,0.2c0,0.1,0.1,0.1,0.1,0.2c0,0.1,0.1,0.1,0.1,0.2  c0,0.1,0.1,0.1,0.1,0.2c0,0.1,0.1,0.1,0.1,0.2s0.1,0.1,0.1,0.2c0,0.1,0.1,0.1,0.1,0.2c0,0.1,0.1,0.2,0.1,0.2c0,0.1,0.1,0.2,0.1,0.2  c0,0.1,0.1,0.2,0.1,0.2c0,0.1,0.1,0.2,0.1,0.2c0,0.1,0.1,0.2,0.1,0.2c0,0.1,0.1,0.2,0.1,0.2c0,0.1,0,0.2,0.1,0.2  c0,0.1,0,0.2,0.1,0.2c0,0.1,0,0.2,0.1,0.2c0,0.1,0,0.2,0.1,0.2c0,0.1,0,0.2,0,0.2c0,0.1,0,0.2,0,0.2c0,0.1,0,0.2,0,0.2  c0,0.1,0,0.2,0,0.3c0,0.1,0,0.2,0,0.3c0,0.1,0,0.2,0,0.3c0,0.1,0,0.2,0,0.3c0,0.1,0,0.2,0,0.3c0,0,0,0.1,0,0.1c0,0,0,0.1,0,0.1  c0,0.1,0,0.2,0,0.3c0,0.1,0,0.2,0,0.3c0,0.1,0,0.2,0,0.3c0,0.1,0,0.2,0,0.3c0,0.1,0,0.2,0,0.3c0,0.1,0,0.2,0,0.2c0,0.1,0,0.2,0,0.2  c0,0.1,0,0.2,0,0.2c0,0.1,0,0.2-0.1,0.2c0,0.1,0,0.2-0.1,0.2c0,0.1,0,0.2-0.1,0.2c0,0.1,0,0.2-0.1,0.2c0,0.1-0.1,0.2-0.1,0.2  c0,0.1-0.1,0.2-0.1,0.2c0,0.1-0.1,0.2-0.1,0.2c0,0.1-0.1,0.2-0.1,0.2c0,0.1-0.1,0.2-0.1,0.2c0,0.1-0.1,0.2-0.1,0.2  c0,0.1-0.1,0.2-0.1,0.2c0,0.1-0.1,0.1-0.1,0.2c0,0.1-0.1,0.1-0.1,0.2c0,0.1-0.1,0.1-0.1,0.2c0,0.1-0.1,0.1-0.1,0.2  c0,0.1-0.1,0.1-0.1,0.2c0,0.1-0.1,0.1-0.1,0.2c0,0.1-0.1,0.1-0.2,0.2c-0.1,0.1-0.1,0.1-0.2,0.2c-0.1,0.1-0.1,0.1-0.2,0.2  c-0.1,0.1-0.1,0.1-0.2,0.2c-0.1,0.1-0.1,0.1-0.2,0.2c-0.1,0.1-0.1,0.1-0.2,0.2c-0.1,0.1-0.1,0.1-0.2,0.2s-0.1,0.1-0.2,0.2  c-0.1,0.1-0.1,0.1-0.2,0.2c-0.1,0.1-0.1,0.1-0.2,0.2c-0.1,0.1-0.1,0.1-0.2,0.2c-0.1,0.1-0.1,0.1-0.2,0.2c-0.1,0.1-0.1,0.1-0.2,0.2  c-0.1,0-0.1,0.1-0.2,0.1c-0.1,0-0.1,0.1-0.2,0.1c-0.1,0-0.1,0.1-0.2,0.1c-0.1,0-0.1,0.1-0.2,0.1c-0.1,0-0.1,0.1-0.2,0.1  c-0.1,0-0.1,0.1-0.2,0.1c-0.1,0-0.2,0.1-0.2,0.1c-0.1,0-0.2,0.1-0.2,0.1c-0.1,0-0.2,0.1-0.2,0.1c-0.1,0-0.2,0.1-0.2,0.1  c-0.1,0-0.2,0.1-0.2,0.1c-0.1,0-0.2,0.1-0.2,0.1c-0.1,0-0.2,0.1-0.2,0.1c-0.1,0-0.2,0.1-0.2,0.1c-0.1,0-0.2,0-0.2,0.1  c-0.1,0-0.2,0-0.2,0.1c-0.1,0-0.2,0-0.2,0.1c-0.1,0-0.2,0-0.2,0c-0.1,0-0.2,0-0.2,0c-0.1,0-0.2,0-0.2,0c-0.1,0-0.2,0-0.3,0  c-0.1,0-0.2,0-0.3,0c-0.1,0-0.2,0-0.3,0c-0.1,0-0.2,0-0.3,0c-0.1,0-0.2,0-0.3,0c0,0-0.1,0-0.1,0s-0.1,0-0.1,0c-0.1,0-0.2,0-0.3,0  c-0.1,0-0.2,0-0.3,0c-0.1,0-0.2,0-0.3,0c-0.1,0-0.2,0-0.3,0c-0.1,0-0.2,0-0.3,0c-0.1,0-0.2,0-0.2,0c-0.1,0-0.2,0-0.2,0  c-0.1,0-0.2,0-0.2,0c-0.1,0-0.2,0-0.2-0.1c-0.1,0-0.2,0-0.2-0.1c-0.1,0-0.2,0-0.2-0.1c-0.1,0-0.2,0-0.2-0.1c-0.1,0-0.2-0.1-0.2-0.1  c-0.1,0-0.2-0.1-0.2-0.1c-0.1,0-0.2-0.1-0.2-0.1c-0.1,0-0.2-0.1-0.2-0.1c-0.1,0-0.2-0.1-0.2-0.1c-0.1,0-0.2-0.1-0.2-0.1  c-0.1,0-0.2-0.1-0.2-0.1c-0.1,0-0.1-0.1-0.2-0.1c-0.1,0-0.1-0.1-0.2-0.1c-0.1,0-0.1-0.1-0.2-0.1c-0.1,0-0.1-0.1-0.2-0.1  c-0.1,0-0.1-0.1-0.2-0.1c-0.1,0-0.1-0.1-0.2-0.1c-0.1,0-0.1-0.1-0.2-0.2c-0.1-0.1-0.1-0.1-0.2-0.2c-0.1-0.1-0.1-0.1-0.2-0.2  c-0.1-0.1-0.1-0.1-0.2-0.2c-0.1-0.1-0.1-0.1-0.2-0.2c-0.1-0.1-0.1-0.1-0.2-0.2c-0.1-0.1-0.1-0.1-0.2-0.2c-0.1-0.1-0.1-0.1-0.2-0.2  c-0.1-0.1-0.1-0.1-0.2-0.2c-0.1-0.1-0.1-0.1-0.2-0.2c-0.1-0.1-0.1-0.1-0.2-0.2c-0.1-0.1-0.1-0.1-0.2-0.2c-0.1-0.1-0.1-0.1-0.2-0.2  c0-0.1-0.1-0.1-0.1-0.2c0-0.1-0.1-0.1-0.1-0.2c0-0.1-0.1-0.1-0.1-0.2c0-0.1-0.1-0.1-0.1-0.2c0-0.1-0.1-0.1-0.1-0.2s-0.1-0.1-0.1-0.2  c0-0.1-0.1-0.1-0.1-0.2c0-0.1-0.1-0.2-0.1-0.2c0-0.1-0.1-0.2-0.1-0.2c0-0.1-0.1-0.2-0.1-0.2c0-0.1-0.1-0.2-0.1-0.2  c0-0.1-0.1-0.2-0.1-0.2c0-0.1-0.1-0.2-0.1-0.2c0-0.1,0-0.2-0.1-0.2c0-0.1,0-0.2-0.1-0.2c0-0.1,0-0.2-0.1-0.2c0-0.1,0-0.2-0.1-0.2  c0-0.1,0-0.2,0-0.2c0-0.1,0-0.2,0-0.2c0-0.1,0-0.2,0-0.2c0-0.1,0-0.2,0-0.3c0-0.1,0-0.2,0-0.3c0-0.1,0-0.2,0-0.3c0-0.1,0-0.2,0-0.3  c0-0.1,0-0.2,0-0.3c0,0,0-0.1,0-0.1c0,0,0-0.1,0-0.1c0-0.1,0-0.2,0-0.3c0-0.1,0-0.2,0-0.3c0-0.1,0-0.2,0-0.3c0-0.1,0-0.2,0-0.3  c0-0.1,0-0.2,0-0.3c0-0.1,0-0.2,0-0.2c0-0.1,0-0.2,0-0.2c0-0.1,0-0.2,0-0.2c0-0.1,0-0.2,0.1-0.2c0-0.1,0-0.2,0.1-0.2  c0-0.1,0-0.2,0.1-0.2c0-0.1,0-0.2,0.1-0.2c0-0.1,0.1-0.2,0.1-0.2c0-0.1,0.1-0.2,0.1-0.2c0-0.1,0.1-0.2,0.1-0.2  c0-0.1,0.1-0.2,0.1-0.2c0-0.1,0.1-0.2,0.1-0.2c0-0.1,0.1-0.2,0.1-0.2s0.1-0.2,0.1-0.2c0-0.1,0.1-0.1,0.1-0.2s0.1-0.1,0.1-0.2  c0-0.1,0.1-0.1,0.1-0.2c0-0.1,0.1-0.1,0.1-0.2c0-0.1,0.1-0.1,0.1-0.2c0-0.1,0.1-0.1,0.1-0.2c0-0.1,0.1-0.1,0.2-0.2  c0.1-0.1,0.1-0.1,0.2-0.2c0.1-0.1,0.1-0.1,0.2-0.2s0.1-0.1,0.2-0.2c0.1-0.1,0.1-0.1,0.2-0.2c0.1-0.1,0.1-0.1,0.2-0.2  c0.1-0.1,0.1-0.1,0.2-0.2s0.1-0.1,0.2-0.2c0.1-0.1,0.1-0.1,0.2-0.2c0.1-0.1,0.1-0.1,0.2-0.2c0.1-0.1,0.1-0.1,0.2-0.2  c0.1-0.1,0.1-0.1,0.2-0.2c0.1-0.1,0.1-0.1,0.2-0.2c0.1,0,0.1-0.1,0.2-0.1c0.1,0,0.1-0.1,0.2-0.1c0.1,0,0.1-0.1,0.2-0.1  c0.1,0,0.1-0.1,0.2-0.1c0.1,0,0.1-0.1,0.2-0.1c0.1,0,0.1-0.1,0.2-0.1c0.1,0,0.2-0.1,0.2-0.1c0.1,0,0.2-0.1,0.2-0.1  c0.1,0,0.2-0.1,0.2-0.1c0.1,0,0.2-0.1,0.2-0.1c0.1,0,0.2-0.1,0.2-0.1c0.1,0,0.2-0.1,0.2-0.1c0.1,0,0.2-0.1,0.2-0.1  c0.1,0,0.2-0.1,0.2-0.1c0.1,0,0.2,0,0.2-0.1c0.1,0,0.2,0,0.2-0.1c0.1,0,0.2,0,0.2-0.1c0.1,0,0.2,0,0.2,0c0.1,0,0.2,0,0.2,0  c0.1,0,0.2,0,0.2,0c0.1,0,0.2,0,0.3,0c0.1,0,0.2,0,0.3,0c0.1,0,0.2,0,0.3,0c0.1,0,0.2,0,0.3,0c0.1,0,0.2,0,0.3,0c0,0,0.1,0,0.1,0  C28.4,18.1,28.4,18.1,28.5,18.1L28.5,18.1z"></path>
<path fill="#070809" d="M38.6,28l8.1-0.3c0,0.1,0,0.3,0,0.5l-8.1,0.1C38.6,28.1,38.6,28.1,38.6,28L38.6,28z"></path>
<path fill="#080809" d="M38.6,27.7l8.1-0.5c0,0.2,0,0.3,0,0.5L38.6,28C38.6,27.9,38.6,27.8,38.6,27.7L38.6,27.7z"></path>
<path fill="#080809" d="M38.6,27.5l8.1-0.7c0,0.1,0,0.3,0,0.4l-8.1,0.5C38.6,27.6,38.6,27.5,38.6,27.5L38.6,27.5z"></path>
<g>
	<path fill="#08090A" d="M38.6,27.2l8.1-0.9c0,0.1,0,0.3,0,0.5l-8.1,0.7C38.6,27.4,38.6,27.3,38.6,27.2L38.6,27.2z"></path>
	<path fill="#08090A" d="M38.5,27l8.1-1.1c0,0.1,0,0.3,0.1,0.4l-8.1,0.9C38.6,27.1,38.5,27,38.5,27z"></path>
	<path fill="#08090A" d="M38.5,26.7l8-1.3c0,0.1,0,0.3,0.1,0.4L38.5,27C38.5,26.9,38.5,26.8,38.5,26.7L38.5,26.7z"></path>
</g>
<path fill="#090A0B" d="M38.5,26.5l8-1.5c0,0.1,0.1,0.3,0.1,0.4l-8,1.3C38.5,26.6,38.5,26.5,38.5,26.5z"></path>
<path fill="#090A0B" d="M38.4,26.2l8-1.7c0,0.1,0.1,0.3,0.1,0.4l-8,1.5C38.4,26.4,38.4,26.3,38.4,26.2L38.4,26.2z"></path>
<g>
	<path fill="#0A0B0C" d="M38.4,26l7.9-1.9c0,0.1,0.1,0.3,0.1,0.4l-8,1.7C38.4,26.1,38.4,26.1,38.4,26L38.4,26z"></path>
	<path fill="#0A0B0C" d="M38.3,25.7l7.9-2.1c0,0.1,0.1,0.3,0.1,0.4L38.4,26C38.3,25.9,38.3,25.8,38.3,25.7z"></path>
	<path fill="#0A0B0C" d="M38.2,25.5l7.8-2.3c0,0.1,0.1,0.3,0.1,0.4l-7.9,2.1C38.3,25.6,38.2,25.6,38.2,25.5z"></path>
</g>
<g>
	<path fill="#0D0D0E" d="M38.2,25.2l7.8-2.5c0,0.1,0.1,0.3,0.1,0.4l-7.8,2.3C38.2,25.4,38.2,25.3,38.2,25.2L38.2,25.2z"></path>
	<path fill="#0D0D0E" d="M38.1,25l7.7-2.6c0,0.1,0.1,0.3,0.1,0.4l-7.8,2.5C38.1,25.2,38.1,25.1,38.1,25L38.1,25z"></path>
	<path fill="#0D0D0E" d="M38,24.8l7.6-2.8c0.1,0.1,0.1,0.3,0.2,0.4L38.1,25C38,24.9,38,24.8,38,24.8L38,24.8z"></path>
</g>
<path fill="#0E0F0F" d="M37.9,24.5l7.6-3c0.1,0.1,0.1,0.3,0.2,0.4L38,24.8C38,24.7,37.9,24.6,37.9,24.5z"></path>
<path fill="#0E0F0F" d="M37.8,24.3l7.5-3.2c0.1,0.1,0.1,0.3,0.2,0.4l-7.6,3C37.9,24.4,37.8,24.4,37.8,24.3L37.8,24.3z"></path>
<g>
	<path fill="#121212" d="M37.7,24.1l7.4-3.4c0.1,0.1,0.1,0.3,0.2,0.4l-7.5,3.2C37.8,24.2,37.7,24.1,37.7,24.1z"></path>
	<path fill="#121212" d="M37.6,23.8l7.3-3.6c0.1,0.1,0.1,0.3,0.2,0.4l-7.4,3.4C37.7,24,37.6,23.9,37.6,23.8z"></path>
	<path fill="#121212" d="M37.5,23.6l7.2-3.8c0.1,0.1,0.1,0.3,0.2,0.4l-7.3,3.6C37.6,23.8,37.5,23.7,37.5,23.6z"></path>
</g>
<path fill="#131414" d="M37.4,23.4l7.1-3.9c0.1,0.1,0.1,0.3,0.2,0.4l-7.2,3.8C37.4,23.5,37.4,23.5,37.4,23.4z"></path>
<path fill="#131414" d="M37.2,23.2l7-4.1c0.1,0.1,0.2,0.3,0.2,0.4l-7.1,3.9C37.3,23.3,37.3,23.2,37.2,23.2L37.2,23.2z"></path>
<g>
	<path fill="#161616" d="M37.1,23l6.9-4.3c0.1,0.1,0.2,0.3,0.2,0.4l-7,4.1C37.2,23.1,37.1,23,37.1,23L37.1,23z"></path>
	<path fill="#161616" d="M37,22.7l6.8-4.4c0.1,0.1,0.2,0.3,0.2,0.4L37.1,23C37.1,22.9,37,22.8,37,22.7L37,22.7z"></path>
	<path fill="#161616" d="M36.8,22.5l6.7-4.6c0.1,0.1,0.2,0.3,0.3,0.4L37,22.7C36.9,22.7,36.9,22.6,36.8,22.5L36.8,22.5z"></path>
</g>
<path fill="#191919" d="M36.7,22.3l6.6-4.8c0.1,0.1,0.2,0.2,0.3,0.4l-6.7,4.6C36.8,22.5,36.7,22.4,36.7,22.3L36.7,22.3z"></path>
<path fill="#191919" d="M36.5,22.1l6.5-4.9c0.1,0.1,0.2,0.2,0.3,0.4l-6.6,4.8C36.6,22.3,36.6,22.2,36.5,22.1z"></path>
<g>
	<path fill="#1C1C1C" d="M36.4,21.9l6.4-5.1c0.1,0.1,0.2,0.2,0.3,0.4l-6.5,4.9C36.5,22.1,36.4,22,36.4,21.9L36.4,21.9z"></path>
	<path fill="#1C1C1C" d="M36.2,21.7l6.2-5.2c0.1,0.1,0.2,0.2,0.3,0.4l-6.4,5.1C36.3,21.9,36.3,21.8,36.2,21.7L36.2,21.7z"></path>
	<path fill="#1C1C1C" d="M36,21.5l6.1-5.4c0.1,0.1,0.2,0.2,0.3,0.3l-6.2,5.2C36.2,21.7,36.1,21.6,36,21.5L36,21.5z"></path>
</g>
<path fill="#1F1F1F" d="M35.9,21.3l6-5.5c0.1,0.1,0.2,0.2,0.3,0.3L36,21.5C36,21.5,35.9,21.4,35.9,21.3L35.9,21.3z"></path>
<path fill="#1F1F1F" d="M35.7,21.2l5.8-5.7c0.1,0.1,0.2,0.2,0.3,0.3l-6,5.5C35.8,21.3,35.8,21.2,35.7,21.2z"></path>
<g>
	<path fill="#212121" d="M35.5,21l5.7-5.8c0.1,0.1,0.2,0.2,0.3,0.3l-5.8,5.7C35.6,21.1,35.6,21,35.5,21z"></path>
	<path fill="#212121" d="M35.3,20.8l5.5-6c0.1,0.1,0.2,0.2,0.3,0.3L35.5,21C35.5,20.9,35.4,20.9,35.3,20.8z"></path>
	<path fill="#212121" d="M35.2,20.6l5.4-6.1c0.1,0.1,0.2,0.2,0.3,0.3l-5.5,6C35.3,20.8,35.2,20.7,35.2,20.6z"></path>
</g>
<path fill="#242424" d="M35,20.5l5.2-6.2c0.1,0.1,0.2,0.2,0.3,0.3l-5.4,6.1C35.1,20.6,35,20.5,35,20.5L35,20.5z"></path>
<path fill="#242424" d="M34.8,20.3l5.1-6.4c0.1,0.1,0.2,0.2,0.3,0.3L35,20.5C34.9,20.4,34.8,20.4,34.8,20.3L34.8,20.3z"></path>
<g>
	<path fill="#252525" d="M34.6,20.2l4.9-6.5c0.1,0.1,0.2,0.2,0.4,0.3l-5.1,6.4C34.7,20.3,34.6,20.2,34.6,20.2z"></path>
	<path fill="#252525" d="M34.4,20l4.8-6.6c0.1,0.1,0.2,0.2,0.4,0.3l-4.9,6.5C34.5,20.1,34.4,20.1,34.4,20z"></path>
	<path fill="#252525" d="M34.2,19.9l4.6-6.7c0.1,0.1,0.2,0.2,0.4,0.3L34.4,20C34.3,20,34.2,19.9,34.2,19.9L34.2,19.9z"></path>
</g>
<g>
	<path fill="#292929" d="M34,19.7l4.4-6.8c0.1,0.1,0.3,0.2,0.4,0.3l-4.6,6.7C34.1,19.8,34,19.8,34,19.7z"></path>
	<path fill="#292929" d="M33.7,19.6l4.3-6.9c0.1,0.1,0.3,0.2,0.4,0.2L34,19.7C33.9,19.7,33.8,19.6,33.7,19.6L33.7,19.6z"></path>
	<path fill="#292929" d="M33.5,19.5l4.1-7c0.1,0.1,0.3,0.2,0.4,0.2l-4.3,6.9C33.7,19.5,33.6,19.5,33.5,19.5L33.5,19.5z"></path>
</g>
<path fill="#2B2B2B" d="M33.3,19.3l3.9-7.1c0.1,0.1,0.3,0.1,0.4,0.2l-4.1,7C33.5,19.4,33.4,19.4,33.3,19.3z"></path>
<path fill="#2B2B2B" d="M33.1,19.2l3.7-7.2c0.1,0.1,0.3,0.1,0.4,0.2l-3.9,7.1C33.2,19.3,33.2,19.3,33.1,19.2z"></path>
<g>
	<path fill="#2E2E2E" d="M32.9,19.1l3.6-7.3c0.1,0.1,0.3,0.1,0.4,0.2l-3.7,7.2C33,19.2,32.9,19.1,32.9,19.1L32.9,19.1z"></path>
	<path fill="#2E2E2E" d="M32.6,19l3.4-7.4c0.1,0.1,0.3,0.1,0.4,0.2l-3.6,7.3C32.8,19.1,32.7,19,32.6,19L32.6,19z"></path>
	<path fill="#2E2E2E" d="M32.4,18.9l3.2-7.5c0.1,0.1,0.3,0.1,0.4,0.2L32.6,19C32.6,19,32.5,18.9,32.4,18.9L32.4,18.9z"></path>
</g>
<path fill="#303030" d="M32.2,18.8l3-7.6c0.1,0.1,0.3,0.1,0.4,0.2l-3.2,7.5C32.3,18.9,32.2,18.8,32.2,18.8z"></path>
<path fill="#303030" d="M31.9,18.7l2.8-7.6c0.1,0.1,0.3,0.1,0.4,0.2l-3,7.6C32.1,18.8,32,18.7,31.9,18.7L31.9,18.7z"></path>
<g>
	<path fill="#333334" d="M31.7,18.6l2.6-7.7c0.1,0,0.3,0.1,0.4,0.2l-2.8,7.6C31.9,18.7,31.8,18.6,31.7,18.6L31.7,18.6z"></path>
	<path fill="#333334" d="M31.5,18.5l2.5-7.8c0.1,0,0.3,0.1,0.4,0.1l-2.6,7.7C31.6,18.6,31.5,18.6,31.5,18.5L31.5,18.5z"></path>
	<path fill="#333334" d="M31.2,18.5l2.3-7.8c0.1,0,0.3,0.1,0.4,0.1l-2.5,7.8C31.4,18.5,31.3,18.5,31.2,18.5L31.2,18.5z"></path>
</g>
<path fill="#363636" d="M31,18.4l2.1-7.9c0.1,0,0.3,0.1,0.4,0.1l-2.3,7.8C31.1,18.4,31,18.4,31,18.4L31,18.4z"></path>
<path fill="#363636" d="M30.7,18.3l1.9-7.9c0.1,0,0.3,0.1,0.4,0.1L31,18.4C30.9,18.4,30.8,18.4,30.7,18.3L30.7,18.3z"></path>
<g>
	<path fill="#383838" d="M30.5,18.3l1.7-8c0.1,0,0.3,0.1,0.4,0.1l-1.9,7.9C30.6,18.3,30.6,18.3,30.5,18.3L30.5,18.3z"></path>
	<path fill="#383838" d="M30.2,18.2l1.5-8c0.1,0,0.3,0.1,0.4,0.1l-1.7,8C30.4,18.3,30.3,18.3,30.2,18.2L30.2,18.2z"></path>
	<path fill="#383838" d="M30,18.2l1.3-8c0.1,0,0.3,0,0.4,0.1l-1.5,8C30.1,18.2,30.1,18.2,30,18.2L30,18.2z"></path>
</g>
<path fill="#3B3B3B" d="M29.7,18.2l1.1-8.1c0.1,0,0.3,0,0.4,0.1l-1.3,8C29.9,18.2,29.8,18.2,29.7,18.2z"></path>
<path fill="#3B3B3B" d="M29.5,18.1l0.9-8.1c0.2,0,0.3,0,0.4,0.1l-1.1,8.1C29.6,18.1,29.6,18.1,29.5,18.1z"></path>
<g>
	<path fill="#3D3D3D" d="M29.2,18.1l0.7-8.1c0.2,0,0.3,0,0.5,0l-0.9,8.1C29.4,18.1,29.3,18.1,29.2,18.1z"></path>
	<path fill="#3D3D3D" d="M29,18.1l0.5-8.1c0.2,0,0.3,0,0.4,0l-0.7,8.1C29.1,18.1,29.1,18.1,29,18.1L29,18.1z"></path>
	<path fill="#3D3D3D" d="M28.7,18.1L29,9.9c0.2,0,0.3,0,0.5,0L29,18.1C28.9,18.1,28.8,18.1,28.7,18.1L28.7,18.1z"></path>
</g>
<g>
	<path fill="#404040" d="M28.5,18.1l0.1-8.1c0.2,0,0.3,0,0.5,0l-0.3,8.1C28.6,18.1,28.6,18.1,28.5,18.1L28.5,18.1z"></path>
	<path fill="#404040" d="M28.3,18.1c0,0-0.1,0-0.1,0l-0.1-8.1c0.1,0,0.2,0,0.2,0s0.2,0,0.2,0l-0.1,8.1   C28.4,18.1,28.4,18.1,28.3,18.1z"></path>
	<path fill="#404040" d="M28.2,18.1c-0.1,0-0.2,0-0.3,0l-0.3-8.1c0.2,0,0.3,0,0.5,0L28.2,18.1z"></path>
</g>
<path fill="#424242" d="M27.7,18.1L27.2,10c0.2,0,0.3,0,0.5,0l0.3,8.1C27.9,18.1,27.8,18.1,27.7,18.1L27.7,18.1z"></path>
<path fill="#424242" d="M27.5,18.1L26.8,10c0.1,0,0.3,0,0.4,0l0.5,8.1C27.6,18.1,27.5,18.1,27.5,18.1L27.5,18.1z"></path>
<g>
	<path fill="#454545" d="M27.2,18.1L26.3,10c0.2,0,0.3,0,0.5,0l0.7,8.1C27.4,18.1,27.3,18.1,27.2,18.1z"></path>
	<path fill="#454545" d="M27,18.2l-1.1-8.1c0.1,0,0.3,0,0.4-0.1l0.9,8.1C27.1,18.1,27,18.1,27,18.2z"></path>
	<path fill="#454545" d="M26.7,18.2l-1.3-8c0.1,0,0.3,0,0.4-0.1l1.1,8.1C26.9,18.2,26.8,18.2,26.7,18.2L26.7,18.2z"></path>
</g>
<path fill="#474747" d="M26.5,18.2l-1.5-8c0.1,0,0.3-0.1,0.4-0.1l1.3,8C26.6,18.2,26.5,18.2,26.5,18.2z"></path>
<path fill="#474747" d="M26.2,18.3l-1.7-8c0.1,0,0.3-0.1,0.4-0.1l1.5,8C26.4,18.3,26.3,18.3,26.2,18.3L26.2,18.3z"></path>
<g>
	<path fill="#4A4A4A" d="M26,18.3l-1.9-7.9c0.1,0,0.3-0.1,0.4-0.1l1.7,8C26.1,18.3,26.1,18.3,26,18.3L26,18.3z"></path>
	<path fill="#4A4A4A" d="M25.7,18.4l-2.1-7.9c0.1,0,0.3-0.1,0.4-0.1l1.9,7.9C25.9,18.4,25.8,18.4,25.7,18.4L25.7,18.4z"></path>
	<path fill="#4A4A4A" d="M25.5,18.5l-2.3-7.8c0.1,0,0.3-0.1,0.4-0.1l2.1,7.9C25.6,18.4,25.6,18.4,25.5,18.5z"></path>
</g>
<path fill="#4E4D4D" d="M25.2,18.5l-2.5-7.8c0.1,0,0.3-0.1,0.4-0.1l2.3,7.8C25.4,18.5,25.3,18.5,25.2,18.5z"></path>
<path fill="#4E4D4D" d="M25,18.6l-2.6-7.7c0.1,0,0.3-0.1,0.4-0.1l2.5,7.8C25.2,18.6,25.1,18.6,25,18.6z"></path>
<g>
	<path fill="#4F4F4F" d="M24.8,18.7l-2.8-7.6c0.1-0.1,0.3-0.1,0.4-0.2l2.6,7.7C24.9,18.6,24.8,18.7,24.8,18.7z"></path>
	<path fill="#4F4F4F" d="M24.5,18.8l-3-7.6c0.1-0.1,0.3-0.1,0.4-0.2l2.8,7.6C24.7,18.7,24.6,18.8,24.5,18.8L24.5,18.8z"></path>
	<path fill="#4F4F4F" d="M24.3,18.9l-3.2-7.5c0.1-0.1,0.3-0.1,0.4-0.2l3,7.6C24.4,18.8,24.4,18.9,24.3,18.9L24.3,18.9z"></path>
</g>
<path fill="#525252" d="M24.1,19l-3.4-7.4c0.1-0.1,0.3-0.1,0.4-0.2l3.2,7.5C24.2,18.9,24.1,19,24.1,19z"></path>
<path fill="#525252" d="M23.8,19.1l-3.6-7.3c0.1-0.1,0.3-0.1,0.4-0.2l3.4,7.4C24,19,23.9,19.1,23.8,19.1L23.8,19.1z"></path>
<g>
	<path fill="#555454" d="M23.6,19.2L19.9,12c0.1-0.1,0.3-0.1,0.4-0.2l3.6,7.3C23.8,19.1,23.7,19.2,23.6,19.2z"></path>
	<path fill="#555454" d="M23.4,19.3l-3.9-7.1c0.1-0.1,0.3-0.1,0.4-0.2l3.8,7.2C23.5,19.3,23.5,19.3,23.4,19.3L23.4,19.3z"></path>
	<path fill="#555454" d="M23.2,19.5l-4.1-7c0.1-0.1,0.3-0.2,0.4-0.2l3.9,7.1C23.3,19.4,23.2,19.4,23.2,19.5L23.2,19.5z"></path>
</g>
<path fill="#585757" d="M23,19.6l-4.3-6.9c0.1-0.1,0.3-0.2,0.4-0.2l4.1,7C23.1,19.5,23,19.5,23,19.6z"></path>
<path fill="#585757" d="M22.7,19.7l-4.4-6.8c0.1-0.1,0.3-0.2,0.4-0.2l4.3,6.9C22.9,19.6,22.8,19.7,22.7,19.7L22.7,19.7z"></path>
<g>
	<path fill="#5A5A5A" d="M22.5,19.9l-4.6-6.7c0.1-0.1,0.2-0.2,0.4-0.3l4.4,6.8C22.7,19.8,22.6,19.8,22.5,19.9L22.5,19.9z"></path>
	<path fill="#5A5A5A" d="M22.3,20l-4.8-6.6c0.1-0.1,0.2-0.2,0.4-0.3l4.6,6.7C22.5,19.9,22.4,20,22.3,20z"></path>
	<path fill="#5A5A5A" d="M22.1,20.2l-4.9-6.5c0.1-0.1,0.2-0.2,0.4-0.3l4.8,6.6C22.3,20.1,22.2,20.1,22.1,20.2z"></path>
</g>
<g>
	<path fill="#5D5D5D" d="M21.9,20.3L16.8,14c0.1-0.1,0.2-0.2,0.4-0.3l4.9,6.5C22.1,20.2,22,20.3,21.9,20.3z"></path>
	<path fill="#5D5D5D" d="M21.7,20.5l-5.2-6.2c0.1-0.1,0.2-0.2,0.3-0.3l5.1,6.4C21.9,20.4,21.8,20.4,21.7,20.5L21.7,20.5z"></path>
	<path fill="#5D5D5D" d="M21.5,20.6l-5.4-6.1c0.1-0.1,0.2-0.2,0.3-0.3l5.2,6.2C21.7,20.5,21.6,20.6,21.5,20.6L21.5,20.6z"></path>
</g>
<path fill="#5F5F5E" d="M21.3,20.8l-5.5-6c0.1-0.1,0.2-0.2,0.3-0.3l5.4,6.1C21.5,20.7,21.4,20.8,21.3,20.8z"></path>
<path fill="#5F5F5E" d="M21.2,21l-5.7-5.8c0.1-0.1,0.2-0.2,0.3-0.3l5.5,6C21.3,20.9,21.2,20.9,21.2,21z"></path>
<g>
	<path fill="#626261" d="M21,21.2l-5.8-5.7c0.1-0.1,0.2-0.2,0.3-0.3l5.7,5.8C21.1,21,21,21.1,21,21.2L21,21.2z"></path>
	<path fill="#626261" d="M20.8,21.3l-6-5.5c0.1-0.1,0.2-0.2,0.3-0.3l5.8,5.7C20.9,21.2,20.9,21.3,20.8,21.3z"></path>
	<path fill="#626261" d="M20.6,21.5l-6.1-5.4c0.1-0.1,0.2-0.2,0.3-0.3l6,5.5C20.8,21.4,20.7,21.5,20.6,21.5z"></path>
</g>
<path fill="#646463" d="M20.5,21.7l-6.2-5.2c0.1-0.1,0.2-0.2,0.3-0.3l6.1,5.4C20.6,21.6,20.5,21.7,20.5,21.7L20.5,21.7z"></path>
<path fill="#646463" d="M20.3,21.9L14,16.8c0.1-0.1,0.2-0.2,0.3-0.4l6.2,5.2C20.4,21.8,20.4,21.9,20.3,21.9L20.3,21.9z"></path>
<g>
	<path fill="#676766" d="M20.2,22.1l-6.5-4.9c0.1-0.1,0.2-0.2,0.3-0.4l6.4,5.1C20.3,22,20.2,22.1,20.2,22.1L20.2,22.1z"></path>
	<path fill="#676766" d="M20,22.3l-6.6-4.8c0.1-0.1,0.2-0.2,0.3-0.4l6.5,4.9C20.1,22.2,20.1,22.3,20,22.3L20,22.3z"></path>
	<path fill="#676766" d="M19.9,22.5l-6.7-4.6c0.1-0.1,0.2-0.2,0.3-0.4l6.6,4.8C20,22.4,19.9,22.5,19.9,22.5z"></path>
</g>
<path fill="#6A6A6A" d="M19.7,22.7l-6.8-4.4c0.1-0.1,0.2-0.3,0.3-0.4l6.7,4.6C19.8,22.6,19.8,22.7,19.7,22.7z"></path>
<path fill="#6A6A6A" d="M19.6,23l-6.9-4.3c0.1-0.1,0.2-0.3,0.2-0.4l6.8,4.4C19.7,22.8,19.6,22.9,19.6,23z"></path>
<g>
	<path fill="#6C6C6C" d="M19.5,23.2l-7-4.1c0.1-0.1,0.2-0.3,0.2-0.4l6.9,4.3C19.5,23,19.5,23.1,19.5,23.2L19.5,23.2z"></path>
	<path fill="#6C6C6C" d="M19.3,23.4l-7.1-3.9c0.1-0.1,0.1-0.3,0.2-0.4l7,4.1C19.4,23.2,19.4,23.3,19.3,23.4z"></path>
	<path fill="#6C6C6C" d="M19.2,23.6L12,19.9c0.1-0.1,0.1-0.3,0.2-0.4l7.1,3.9C19.3,23.5,19.3,23.5,19.2,23.6z"></path>
</g>
<path fill="#6E6E6E" d="M19.1,23.8l-7.3-3.6c0.1-0.1,0.1-0.3,0.2-0.4l7.2,3.8C19.2,23.7,19.1,23.8,19.1,23.8L19.1,23.8z"></path>
<path fill="#6E6E6E" d="M19,24.1l-7.4-3.4c0.1-0.1,0.1-0.3,0.2-0.4l7.3,3.6C19.1,23.9,19,24,19,24.1L19,24.1z"></path>
<g>
	<path fill="#717070" d="M18.9,24.3l-7.5-3.2c0.1-0.1,0.1-0.3,0.2-0.4l7.4,3.4C19,24.1,18.9,24.2,18.9,24.3L18.9,24.3z"></path>
	<path fill="#717070" d="M18.8,24.5l-7.6-3c0.1-0.1,0.1-0.3,0.2-0.4l7.5,3.2C18.9,24.4,18.8,24.4,18.8,24.5L18.8,24.5z"></path>
	<path fill="#717070" d="M18.7,24.8l-7.6-2.8c0.1-0.1,0.1-0.3,0.2-0.4l7.6,3C18.8,24.6,18.7,24.7,18.7,24.8L18.7,24.8z"></path>
</g>
<g>
	<path fill="#737373" d="M18.6,25l-7.7-2.6c0-0.1,0.1-0.3,0.2-0.4l7.6,2.8C18.7,24.8,18.6,24.9,18.6,25z"></path>
	<path fill="#737373" d="M18.5,25.2l-7.8-2.5c0-0.1,0.1-0.3,0.1-0.4l7.7,2.6C18.6,25.1,18.6,25.2,18.5,25.2L18.5,25.2z"></path>
	<path fill="#737373" d="M18.5,25.5l-7.8-2.3c0-0.1,0.1-0.3,0.1-0.4l7.8,2.5C18.5,25.3,18.5,25.4,18.5,25.5L18.5,25.5z"></path>
</g>
<path fill="#757575" d="M18.4,25.7l-7.9-2.1c0-0.1,0.1-0.3,0.1-0.4l7.8,2.3C18.4,25.6,18.4,25.6,18.4,25.7z"></path>
<path fill="#757575" d="M18.3,26l-7.9-1.9c0-0.1,0.1-0.3,0.1-0.4l7.9,2.1C18.4,25.8,18.4,25.9,18.3,26z"></path>
<g>
	<path fill="#787878" d="M18.3,26.2l-8-1.7c0-0.1,0.1-0.3,0.1-0.4l7.9,1.9C18.3,26.1,18.3,26.1,18.3,26.2L18.3,26.2z"></path>
	<path fill="#787878" d="M18.2,26.5l-8-1.5c0-0.1,0.1-0.3,0.1-0.4l8,1.7C18.3,26.3,18.3,26.4,18.2,26.5L18.2,26.5z"></path>
	<path fill="#787878" d="M18.2,26.7l-8-1.3c0-0.1,0-0.3,0.1-0.4l8,1.5C18.2,26.5,18.2,26.6,18.2,26.7z"></path>
</g>
<path fill="#7A7A7A" d="M18.2,27l-8.1-1.1c0-0.1,0-0.3,0.1-0.4l8,1.3C18.2,26.8,18.2,26.9,18.2,27z"></path>
<path fill="#7A7A7A" d="M18.1,27.2L10,26.3c0-0.2,0-0.3,0.1-0.4l8.1,1.1C18.1,27,18.1,27.1,18.1,27.2L18.1,27.2z"></path>
<g>
	<path fill="#7D7D7D" d="M18.1,27.5L10,26.8c0-0.2,0-0.3,0-0.5l8.1,0.9C18.1,27.3,18.1,27.4,18.1,27.5L18.1,27.5z"></path>
	<path fill="#7D7D7D" d="M18.1,27.7L10,27.2c0-0.2,0-0.3,0-0.4l8.1,0.7C18.1,27.5,18.1,27.6,18.1,27.7L18.1,27.7z"></path>
	<path fill="#7D7D7D" d="M18.1,28l-8.1-0.3c0-0.2,0-0.3,0-0.5l8.1,0.5C18.1,27.8,18.1,27.9,18.1,28L18.1,28z"></path>
</g>
<path fill="#808080" d="M18.1,28.2l-8.1-0.1c0-0.2,0-0.3,0-0.5l8.1,0.3C18.1,28.1,18.1,28.1,18.1,28.2L18.1,28.2z"></path>
<path fill="#808080" d="M18.1,28.3c0,0,0,0.1,0,0.1l-8.1,0.1c0-0.1,0-0.2,0-0.2c0-0.1,0-0.2,0-0.2l8.1,0.1  C18.1,28.3,18.1,28.3,18.1,28.3z"></path>
<g>
	<path fill="#828282" d="M18.1,28.7L9.9,29c0-0.1,0-0.3,0-0.5l8.1-0.1C18.1,28.6,18.1,28.6,18.1,28.7L18.1,28.7z"></path>
	<path fill="#828282" d="M18.1,29L10,29.5c0-0.2,0-0.3,0-0.5l8.1-0.3C18.1,28.8,18.1,28.9,18.1,29z"></path>
	<path fill="#828282" d="M18.1,29.2L10,29.9c0-0.1,0-0.3,0-0.4l8.1-0.5C18.1,29.1,18.1,29.1,18.1,29.2L18.1,29.2z"></path>
</g>
<path fill="#858585" d="M18.1,29.5L10,30.4c0-0.1,0-0.3,0-0.5l8.1-0.7C18.1,29.3,18.1,29.4,18.1,29.5L18.1,29.5z"></path>
<path fill="#858585" d="M18.2,29.7l-8.1,1.1c0-0.1,0-0.3-0.1-0.4l8.1-0.9C18.1,29.6,18.1,29.6,18.2,29.7z"></path>
<g>
	<path fill="#878787" d="M18.2,30l-8,1.3c0-0.1,0-0.3-0.1-0.4l8.1-1.1C18.2,29.8,18.2,29.9,18.2,30z"></path>
	<path fill="#878787" d="M18.2,30.2l-8,1.5c0-0.1-0.1-0.3-0.1-0.4l8-1.3C18.2,30.1,18.2,30.1,18.2,30.2L18.2,30.2z"></path>
	<path fill="#878787" d="M18.3,30.5l-8,1.7c0-0.1-0.1-0.3-0.1-0.4l8-1.5C18.3,30.3,18.3,30.4,18.3,30.5L18.3,30.5z"></path>
</g>
<path fill="#8A8A8A" d="M18.3,30.7l-7.9,1.9c0-0.1-0.1-0.3-0.1-0.4l8-1.7C18.3,30.6,18.3,30.6,18.3,30.7z"></path>
<path fill="#8A8A8A" d="M18.4,31L10.5,33c0-0.1-0.1-0.3-0.1-0.4l7.9-1.9C18.4,30.8,18.4,30.9,18.4,31z"></path>
<g>
	<path fill="#8B8B8C" d="M18.5,31.2l-7.8,2.3c0-0.1-0.1-0.3-0.1-0.4l7.9-2.1C18.4,31,18.4,31.1,18.5,31.2z"></path>
	<path fill="#8B8B8C" d="M18.5,31.5l-7.8,2.5c0-0.1-0.1-0.3-0.1-0.4l7.8-2.3C18.5,31.3,18.5,31.4,18.5,31.5L18.5,31.5z"></path>
	<path fill="#8B8B8C" d="M18.6,31.7l-7.7,2.6c0-0.1-0.1-0.3-0.1-0.4l7.8-2.5C18.6,31.5,18.6,31.6,18.6,31.7L18.6,31.7z"></path>
</g>
<g>
	<path fill="#8F8F8F" d="M18.7,31.9l-7.6,2.8c-0.1-0.1-0.1-0.3-0.2-0.4l7.7-2.6C18.6,31.8,18.7,31.9,18.7,31.9z"></path>
	<path fill="#8F8F8F" d="M18.8,32.2l-7.6,3c-0.1-0.1-0.1-0.3-0.2-0.4l7.6-2.8C18.7,32,18.8,32.1,18.8,32.2L18.8,32.2z"></path>
	<path fill="#8F8F8F" d="M18.9,32.4l-7.5,3.2c-0.1-0.1-0.1-0.3-0.2-0.4l7.6-3C18.8,32.2,18.9,32.3,18.9,32.4z"></path>
</g>
<path fill="#909090" d="M19,32.6L11.6,36c-0.1-0.1-0.1-0.3-0.2-0.4l7.5-3.2C18.9,32.5,19,32.6,19,32.6z"></path>
<path fill="#909090" d="M19.1,32.9l-7.3,3.6c-0.1-0.1-0.1-0.3-0.2-0.4l7.4-3.4C19,32.7,19.1,32.8,19.1,32.9L19.1,32.9z"></path>
<g>
	<path fill="#949494" d="M19.2,33.1L12,36.8c-0.1-0.1-0.1-0.3-0.2-0.4l7.3-3.6C19.1,32.9,19.2,33,19.2,33.1z"></path>
	<path fill="#949494" d="M19.3,33.3l-7.1,3.9c-0.1-0.1-0.1-0.3-0.2-0.4l7.2-3.8C19.3,33.2,19.3,33.2,19.3,33.3L19.3,33.3z"></path>
	<path fill="#949494" d="M19.5,33.5l-7,4.1c-0.1-0.1-0.2-0.3-0.2-0.4l7.1-3.9C19.4,33.4,19.4,33.5,19.5,33.5L19.5,33.5z"></path>
</g>
<path fill="#969696" d="M19.6,33.7L12.7,38c-0.1-0.1-0.2-0.3-0.2-0.4l7-4.1C19.5,33.6,19.5,33.7,19.6,33.7L19.6,33.7z"></path>
<path fill="#969696" d="M19.7,34l-6.8,4.4c-0.1-0.1-0.2-0.3-0.2-0.4l6.9-4.3C19.6,33.8,19.7,33.9,19.7,34L19.7,34z"></path>
<g>
	<path fill="#9A9999" d="M19.9,34.2l-6.7,4.6c-0.1-0.1-0.2-0.2-0.3-0.4l6.8-4.4C19.8,34,19.8,34.1,19.9,34.2L19.9,34.2z"></path>
	<path fill="#9A9999" d="M20,34.4l-6.6,4.8c-0.1-0.1-0.2-0.2-0.3-0.4l6.7-4.6C19.9,34.2,20,34.3,20,34.4L20,34.4z"></path>
	<path fill="#9A9999" d="M20.2,34.6l-6.5,4.9c-0.1-0.1-0.2-0.2-0.3-0.4l6.6-4.8C20.1,34.4,20.1,34.5,20.2,34.6z"></path>
</g>
<path fill="#9C9C9C" d="M20.3,34.8L14,39.9c-0.1-0.1-0.2-0.2-0.3-0.4l6.5-4.9C20.2,34.6,20.3,34.7,20.3,34.8L20.3,34.8z"></path>
<path fill="#9C9C9C" d="M20.5,35l-6.2,5.2c-0.1-0.1-0.2-0.2-0.3-0.4l6.4-5.1C20.4,34.8,20.4,34.9,20.5,35z"></path>
<g>
	<path fill="#9E9E9D" d="M20.6,35.2l-6.1,5.4c-0.1-0.1-0.2-0.2-0.3-0.3l6.2-5.2C20.5,35,20.6,35.1,20.6,35.2L20.6,35.2z"></path>
	<path fill="#9E9E9D" d="M20.8,35.3l-6,5.5c-0.1-0.1-0.2-0.2-0.3-0.3l6.1-5.4C20.7,35.2,20.8,35.3,20.8,35.3L20.8,35.3z"></path>
	<path fill="#9E9E9D" d="M21,35.5l-5.8,5.7c-0.1-0.1-0.2-0.2-0.3-0.3l6-5.5C20.9,35.4,20.9,35.5,21,35.5L21,35.5z"></path>
</g>
<path fill="#A1A0A0" d="M21.2,35.7l-5.7,5.8c-0.1-0.1-0.2-0.2-0.3-0.3l5.8-5.7C21,35.6,21.1,35.6,21.2,35.7L21.2,35.7z"></path>
<path fill="#A1A0A0" d="M21.3,35.9l-5.5,6c-0.1-0.1-0.2-0.2-0.3-0.3l5.7-5.8C21.2,35.8,21.3,35.8,21.3,35.9L21.3,35.9z"></path>
<g>
	<path fill="#A3A2A2" d="M21.5,36.1l-5.4,6.1c-0.1-0.1-0.2-0.2-0.3-0.3l5.5-6C21.4,35.9,21.5,36,21.5,36.1z"></path>
	<path fill="#A3A2A2" d="M21.7,36.2l-5.2,6.2c-0.1-0.1-0.2-0.2-0.3-0.3l5.4-6.1C21.6,36.1,21.7,36.2,21.7,36.2L21.7,36.2z"></path>
	<path fill="#A3A2A2" d="M21.9,36.4l-5.1,6.4c-0.1-0.1-0.2-0.2-0.3-0.3l5.2-6.2C21.8,36.3,21.9,36.3,21.9,36.4z"></path>
</g>
<g>
	<path fill="#A6A5A5" d="M22.1,36.5L17.2,43c-0.1-0.1-0.2-0.2-0.4-0.3l5.1-6.4C22,36.4,22.1,36.5,22.1,36.5z"></path>
	<path fill="#A6A5A5" d="M22.3,36.7l-4.8,6.6c-0.1-0.1-0.2-0.2-0.4-0.3l4.9-6.5C22.2,36.6,22.3,36.6,22.3,36.7z"></path>
	<path fill="#A6A5A5" d="M22.5,36.8l-4.6,6.7c-0.1-0.1-0.2-0.2-0.4-0.3l4.8-6.6C22.4,36.7,22.5,36.8,22.5,36.8z"></path>
</g>
<path fill="#A7A7A7" d="M22.7,37l-4.4,6.8c-0.1-0.1-0.3-0.2-0.4-0.3l4.6-6.7C22.6,36.9,22.7,36.9,22.7,37z"></path>
<path fill="#A7A7A7" d="M23,37.1L18.7,44c-0.1-0.1-0.3-0.2-0.4-0.2l4.4-6.8C22.8,37,22.9,37.1,23,37.1z"></path>
<g>
	<path fill="#ABABAB" d="M23.2,37.2l-4.1,7c-0.1-0.1-0.3-0.2-0.4-0.2l4.3-6.9C23,37.1,23.1,37.2,23.2,37.2L23.2,37.2z"></path>
	<path fill="#ABABAB" d="M23.4,37.4l-3.9,7.1c-0.1-0.1-0.3-0.1-0.4-0.2l4.1-7C23.2,37.3,23.3,37.3,23.4,37.4L23.4,37.4z"></path>
	<path fill="#ABABAB" d="M23.6,37.5l-3.7,7.2c-0.1-0.1-0.3-0.1-0.4-0.2l3.9-7.1C23.5,37.4,23.5,37.4,23.6,37.5L23.6,37.5z"></path>
</g>
<path fill="#ADADAD" d="M23.8,37.6l-3.6,7.3c-0.1-0.1-0.3-0.1-0.4-0.2l3.7-7.2C23.7,37.5,23.8,37.6,23.8,37.6z"></path>
<path fill="#ADADAD" d="M24.1,37.7l-3.4,7.4c-0.1-0.1-0.3-0.1-0.4-0.2l3.6-7.3C23.9,37.6,24,37.7,24.1,37.7L24.1,37.7z"></path>
<g>
	<path fill="#B1B0B0" d="M24.3,37.8l-3.2,7.5c-0.1-0.1-0.3-0.1-0.4-0.2l3.4-7.4C24.1,37.7,24.2,37.8,24.3,37.8L24.3,37.8z"></path>
	<path fill="#B1B0B0" d="M24.5,37.9l-3,7.6c-0.1-0.1-0.3-0.1-0.4-0.2l3.2-7.5C24.4,37.8,24.4,37.9,24.5,37.9z"></path>
	<path fill="#B1B0B0" d="M24.8,38l-2.8,7.6c-0.1-0.1-0.3-0.1-0.4-0.2l3-7.6C24.6,37.9,24.7,38,24.8,38z"></path>
</g>
<path fill="#B3B3B3" d="M25,38.1l-2.6,7.7c-0.1,0-0.3-0.1-0.4-0.2l2.8-7.6C24.8,38,24.9,38,25,38.1L25,38.1z"></path>
<path fill="#B3B3B3" d="M25.2,38.2l-2.5,7.8c-0.1,0-0.3-0.1-0.4-0.1l2.6-7.7C25.1,38.1,25.2,38.1,25.2,38.2z"></path>
<g>
	<path fill="#B5B5B5" d="M25.5,38.2L23.2,46c-0.1,0-0.3-0.1-0.4-0.1l2.5-7.8C25.3,38.2,25.4,38.2,25.5,38.2L25.5,38.2z"></path>
	<path fill="#B5B5B5" d="M25.7,38.3l-2.1,7.9c-0.1,0-0.3-0.1-0.4-0.1l2.3-7.8C25.6,38.2,25.6,38.3,25.7,38.3z"></path>
	<path fill="#B5B5B5" d="M26,38.4l-1.9,7.9c-0.1,0-0.3-0.1-0.4-0.1l2.1-7.9C25.8,38.3,25.9,38.3,26,38.4L26,38.4z"></path>
</g>
<path fill="#B8B8B8" d="M26.2,38.4l-1.7,8c-0.1,0-0.3-0.1-0.4-0.1l1.9-7.9C26.1,38.4,26.1,38.4,26.2,38.4L26.2,38.4z"></path>
<path fill="#B8B8B8" d="M26.5,38.5l-1.5,8c-0.1,0-0.3-0.1-0.4-0.1l1.7-8C26.3,38.4,26.4,38.4,26.5,38.5L26.5,38.5z"></path>
<g>
	<path fill="#BABAB9" d="M26.7,38.5l-1.3,8c-0.1,0-0.3,0-0.4-0.1l1.5-8C26.5,38.5,26.6,38.5,26.7,38.5z"></path>
	<path fill="#BABAB9" d="M27,38.5l-1.1,8.1c-0.1,0-0.3,0-0.4-0.1l1.3-8C26.8,38.5,26.9,38.5,27,38.5z"></path>
	<path fill="#BABAB9" d="M27.2,38.6l-0.9,8.1c-0.2,0-0.3,0-0.4-0.1l1.1-8.1C27,38.5,27.1,38.6,27.2,38.6z"></path>
</g>
<path fill="#BDBCBC" d="M27.5,38.6l-0.7,8.1c-0.2,0-0.3,0-0.5,0l0.9-8.1C27.3,38.6,27.4,38.6,27.5,38.6z"></path>
<path fill="#BDBCBC" d="M27.7,38.6l-0.5,8.1c-0.2,0-0.3,0-0.4,0l0.7-8.1C27.5,38.6,27.6,38.6,27.7,38.6L27.7,38.6z"></path>
<g>
	<path fill="#BFBFBF" d="M28,38.6l-0.3,8.1c-0.2,0-0.3,0-0.5,0l0.5-8.1C27.8,38.6,27.9,38.6,28,38.6L28,38.6z"></path>
	<path fill="#BFBFBF" d="M28.2,38.6l-0.1,8.1c-0.2,0-0.3,0-0.5,0l0.3-8.1C28.1,38.6,28.1,38.6,28.2,38.6L28.2,38.6z"></path>
	<path fill="#BFBFBF" d="M28.3,38.6c0,0,0.1,0,0.1,0l0.1,8.1c-0.1,0-0.2,0-0.2,0c-0.1,0-0.2,0-0.2,0l0.1-8.1   C28.3,38.6,28.3,38.6,28.3,38.6z"></path>
</g>
<g>
	<path fill="#C2C2C2" d="M28.7,38.6l0.3,8.1c-0.2,0-0.3,0-0.5,0l-0.1-8.1C28.6,38.6,28.6,38.6,28.7,38.6L28.7,38.6z"></path>
	<path fill="#C2C2C2" d="M29,38.6l0.5,8.1c-0.2,0-0.3,0-0.5,0l-0.3-8.1C28.8,38.6,28.9,38.6,29,38.6L29,38.6z"></path>
	<path fill="#C2C2C2" d="M29.2,38.6l0.7,8.1c-0.1,0-0.3,0-0.4,0L29,38.6C29.1,38.6,29.1,38.6,29.2,38.6L29.2,38.6z"></path>
</g>
<path fill="#C5C4C4" d="M29.5,38.6l0.9,8.1c-0.2,0-0.3,0-0.5,0l-0.7-8.1C29.3,38.6,29.4,38.6,29.5,38.6z"></path>
<path fill="#C5C4C4" d="M29.7,38.5l1.1,8.1c-0.1,0-0.3,0-0.4,0.1l-0.9-8.1C29.6,38.6,29.6,38.5,29.7,38.5z"></path>
<g>
	<path fill="#C8C7C7" d="M30,38.5l1.3,8c-0.1,0-0.3,0-0.4,0.1l-1.1-8.1C29.8,38.5,29.9,38.5,30,38.5z"></path>
	<path fill="#C8C7C7" d="M30.2,38.5l1.5,8c-0.1,0-0.3,0.1-0.4,0.1l-1.3-8C30.1,38.5,30.1,38.5,30.2,38.5L30.2,38.5z"></path>
	<path fill="#C8C7C7" d="M30.5,38.4l1.7,8c-0.1,0-0.3,0.1-0.4,0.1l-1.5-8C30.3,38.4,30.4,38.4,30.5,38.4z"></path>
</g>
<path fill="#CAC9C9" d="M30.7,38.4l1.9,7.9c-0.1,0-0.3,0.1-0.4,0.1l-1.7-8C30.6,38.4,30.6,38.4,30.7,38.4L30.7,38.4z"></path>
<path fill="#CAC9C9" d="M31,38.3l2.1,7.9c-0.1,0-0.3,0.1-0.4,0.1l-1.9-7.9C30.8,38.3,30.9,38.3,31,38.3z"></path>
<g>
	<path fill="#CCCCCC" d="M31.2,38.2l2.3,7.8c-0.1,0-0.3,0.1-0.4,0.1L31,38.3C31,38.3,31.1,38.2,31.2,38.2L31.2,38.2z"></path>
	<path fill="#CCCCCC" d="M31.5,38.2l2.5,7.8c-0.1,0-0.3,0.1-0.4,0.1l-2.3-7.8C31.3,38.2,31.4,38.2,31.5,38.2L31.5,38.2z"></path>
	<path fill="#CCCCCC" d="M31.7,38.1l2.6,7.7c-0.1,0-0.3,0.1-0.4,0.1l-2.5-7.8C31.5,38.1,31.6,38.1,31.7,38.1z"></path>
</g>
<path fill="#CFCECF" d="M31.9,38l2.8,7.6c-0.1,0.1-0.3,0.1-0.4,0.2l-2.6-7.7C31.8,38,31.8,38,31.9,38z"></path>
<path fill="#CFCECF" d="M32.2,37.9l3,7.6c-0.1,0.1-0.3,0.1-0.4,0.2L31.9,38C32,38,32.1,37.9,32.2,37.9L32.2,37.9z"></path>
<g>
	<path fill="#D1D1D1" d="M32.4,37.8l3.2,7.5c-0.1,0.1-0.3,0.1-0.4,0.2l-3-7.6C32.2,37.9,32.3,37.8,32.4,37.8z"></path>
	<path fill="#D1D1D1" d="M32.6,37.7l3.4,7.4c-0.1,0.1-0.3,0.1-0.4,0.2l-3.2-7.5C32.5,37.8,32.6,37.7,32.6,37.7L32.6,37.7z"></path>
	<path fill="#D1D1D1" d="M32.9,37.6l3.6,7.3C36.3,45,36.2,45,36,45.1l-3.4-7.4C32.7,37.7,32.8,37.6,32.9,37.6z"></path>
</g>
<path fill="#D5D5D5" d="M33.1,37.5l3.7,7.2c-0.1,0.1-0.3,0.1-0.4,0.2l-3.6-7.3C32.9,37.6,33,37.5,33.1,37.5z"></path>
<path fill="#D5D5D5" d="M33.3,37.4l3.9,7.1c-0.1,0.1-0.3,0.1-0.4,0.2l-3.7-7.2C33.2,37.4,33.2,37.4,33.3,37.4L33.3,37.4z"></path>
<g>
	<path fill="#D6D7D6" d="M33.5,37.2l4.1,7c-0.1,0.1-0.3,0.1-0.4,0.2l-3.9-7.1C33.4,37.3,33.5,37.3,33.5,37.2L33.5,37.2z"></path>
	<path fill="#D6D7D6" d="M33.7,37.1L38,44c-0.1,0.1-0.3,0.2-0.4,0.2l-4.1-7C33.6,37.2,33.7,37.1,33.7,37.1L33.7,37.1z"></path>
	<path fill="#D6D7D6" d="M34,37l4.4,6.8C38.3,43.9,38.1,44,38,44l-4.3-6.9C33.8,37.1,33.9,37,34,37L34,37z"></path>
</g>
<g>
	<path fill="#D9D9D9" d="M34.2,36.8l4.6,6.7c-0.1,0.1-0.2,0.2-0.4,0.3L34,37C34,36.9,34.1,36.9,34.2,36.8L34.2,36.8z"></path>
	<path fill="#D9D9D9" d="M34.4,36.7l4.8,6.6c-0.1,0.1-0.2,0.2-0.4,0.3l-4.6-6.7C34.2,36.8,34.3,36.7,34.4,36.7L34.4,36.7z"></path>
	<path fill="#D9D9D9" d="M34.6,36.5l4.9,6.5c-0.1,0.1-0.2,0.2-0.4,0.3l-4.8-6.6C34.4,36.6,34.5,36.6,34.6,36.5z"></path>
</g>
<path fill="#DBDBDB" d="M34.8,36.4l5.1,6.4c-0.1,0.1-0.2,0.2-0.4,0.3l-4.9-6.5C34.6,36.5,34.7,36.4,34.8,36.4z"></path>
<path fill="#DBDBDB" d="M35,36.2l5.2,6.2c-0.1,0.1-0.2,0.2-0.3,0.3l-5.1-6.4C34.8,36.3,34.9,36.3,35,36.2L35,36.2z"></path>
<g>
	<path fill="#DEDEDD" d="M35.2,36.1l5.4,6.1c-0.1,0.1-0.2,0.2-0.3,0.3L35,36.2C35,36.2,35.1,36.1,35.2,36.1L35.2,36.1z"></path>
	<path fill="#DEDEDD" d="M35.3,35.9l5.5,6c-0.1,0.1-0.2,0.2-0.3,0.3l-5.4-6.1C35.2,36,35.3,35.9,35.3,35.9L35.3,35.9z"></path>
	<path fill="#DEDEDD" d="M35.5,35.7l5.7,5.8c-0.1,0.1-0.2,0.2-0.3,0.3l-5.5-6C35.4,35.8,35.5,35.8,35.5,35.7L35.5,35.7z"></path>
</g>
<path fill="#E0E0DF" d="M35.7,35.5l5.8,5.7c-0.1,0.1-0.2,0.2-0.3,0.3l-5.7-5.8C35.6,35.6,35.6,35.6,35.7,35.5L35.7,35.5z"></path>
<path fill="#E0E0DF" d="M35.9,35.3l6,5.5c-0.1,0.1-0.2,0.2-0.3,0.3l-5.8-5.7C35.8,35.5,35.8,35.4,35.9,35.3L35.9,35.3z"></path>
<g>
	<path fill="#E3E2E2" d="M36,35.2l6.1,5.4c-0.1,0.1-0.2,0.2-0.3,0.3l-6-5.5C35.9,35.3,36,35.2,36,35.2z"></path>
	<path fill="#E3E2E2" d="M36.2,35l6.2,5.2c-0.1,0.1-0.2,0.2-0.3,0.3L36,35.2C36.1,35.1,36.2,35,36.2,35z"></path>
	<path fill="#E3E2E2" d="M36.4,34.8l6.4,5.1c-0.1,0.1-0.2,0.2-0.3,0.4L36.2,35C36.3,34.9,36.3,34.8,36.4,34.8L36.4,34.8z"></path>
</g>
<path fill="#E7E6E6" d="M36.5,34.6l6.5,4.9c-0.1,0.1-0.2,0.2-0.3,0.4l-6.4-5.1C36.4,34.7,36.5,34.6,36.5,34.6L36.5,34.6z"></path>
<path fill="#E7E6E6" d="M36.7,34.4l6.6,4.8c-0.1,0.1-0.2,0.2-0.3,0.4l-6.5-4.9C36.6,34.5,36.6,34.4,36.7,34.4L36.7,34.4z"></path>
<g>
	<path fill="#E8E8E8" d="M36.8,34.2l6.7,4.6c-0.1,0.1-0.2,0.2-0.3,0.4l-6.6-4.8C36.7,34.3,36.8,34.2,36.8,34.2L36.8,34.2z"></path>
	<path fill="#E8E8E8" d="M37,34l6.8,4.4c-0.1,0.1-0.2,0.3-0.3,0.4l-6.7-4.6C36.9,34.1,36.9,34,37,34z"></path>
	<path fill="#E8E8E8" d="M37.1,33.7L44,38c-0.1,0.1-0.2,0.3-0.2,0.4L37,34C37,33.9,37.1,33.8,37.1,33.7L37.1,33.7z"></path>
</g>
<path fill="#EBEBEB" d="M37.2,33.5l7,4.1c-0.1,0.1-0.2,0.3-0.2,0.4l-6.9-4.3C37.1,33.7,37.2,33.6,37.2,33.5L37.2,33.5z"></path>
<path fill="#EBEBEB" d="M37.4,33.3l7.1,3.9c-0.1,0.1-0.1,0.3-0.2,0.4l-7-4.1C37.3,33.5,37.3,33.4,37.4,33.3z"></path>
<g>
	<path fill="#EDEDED" d="M37.5,33.1l7.2,3.8c-0.1,0.1-0.1,0.3-0.2,0.4l-7.1-3.9C37.4,33.2,37.4,33.2,37.5,33.1z"></path>
	<path fill="#EDEDED" d="M37.6,32.9l7.3,3.6c-0.1,0.1-0.1,0.3-0.2,0.4l-7.2-3.8C37.5,33,37.6,32.9,37.6,32.9L37.6,32.9z"></path>
	<path fill="#EDEDED" d="M37.7,32.6l7.4,3.4c-0.1,0.1-0.1,0.3-0.2,0.4l-7.3-3.6C37.6,32.8,37.7,32.7,37.7,32.6z"></path>
</g>
<path fill="#F0F0F0" d="M37.8,32.4l7.5,3.2c-0.1,0.1-0.1,0.3-0.2,0.4l-7.4-3.4C37.7,32.6,37.8,32.5,37.8,32.4z"></path>
<path fill="#F0F0F0" d="M37.9,32.2l7.6,3c-0.1,0.1-0.1,0.3-0.2,0.4l-7.5-3.2C37.8,32.3,37.9,32.2,37.9,32.2L37.9,32.2z"></path>
<g>
	<path fill="#F2F2F2" d="M38,31.9l7.6,2.8c-0.1,0.1-0.1,0.3-0.2,0.4l-7.6-3C37.9,32.1,38,32,38,31.9z"></path>
	<path fill="#F2F2F2" d="M38.1,31.7l7.7,2.6c0,0.1-0.1,0.3-0.2,0.4L38,31.9C38,31.9,38,31.8,38.1,31.7z"></path>
	<path fill="#F2F2F2" d="M38.2,31.5l7.8,2.5c0,0.1-0.1,0.3-0.1,0.4l-7.7-2.6C38.1,31.6,38.1,31.5,38.2,31.5L38.2,31.5z"></path>
</g>
<g>
	<path fill="#F5F4F4" d="M38.2,31.2l7.8,2.3c0,0.1-0.1,0.3-0.1,0.4l-7.8-2.5C38.2,31.4,38.2,31.3,38.2,31.2z"></path>
	<path fill="#F5F4F4" d="M38.3,31l7.9,2.1c0,0.1-0.1,0.3-0.1,0.4l-7.8-2.3C38.2,31.1,38.3,31,38.3,31z"></path>
	<path fill="#F5F4F4" d="M38.4,30.7l7.9,1.9c0,0.1-0.1,0.3-0.1,0.4L38.3,31C38.3,30.9,38.3,30.8,38.4,30.7z"></path>
</g>
<path fill="#F8F8F7" d="M38.4,30.5l8,1.7c0,0.1-0.1,0.3-0.1,0.4l-7.9-1.9C38.4,30.6,38.4,30.6,38.4,30.5z"></path>
<path fill="#F8F8F7" d="M38.5,30.2l8,1.5c0,0.1-0.1,0.3-0.1,0.4l-8-1.7C38.4,30.4,38.4,30.3,38.5,30.2L38.5,30.2z"></path>
<g>
	<path fill="#FBFBFB" d="M38.5,30l8,1.3c0,0.1,0,0.3-0.1,0.4l-8-1.5C38.5,30.1,38.5,30.1,38.5,30L38.5,30z"></path>
	<path fill="#FBFBFB" d="M38.5,29.7l8.1,1.1c0,0.1,0,0.3-0.1,0.4l-8-1.3C38.5,29.9,38.5,29.8,38.5,29.7z"></path>
	<path fill="#FBFBFB" d="M38.6,29.5l8.1,0.9c0,0.2,0,0.3-0.1,0.4l-8.1-1.1C38.5,29.6,38.6,29.6,38.6,29.5L38.6,29.5z"></path>
</g>
<path fill="#FDFDFD" d="M38.6,29.2l8.1,0.7c0,0.2,0,0.3,0,0.5l-8.1-0.9C38.6,29.4,38.6,29.3,38.6,29.2L38.6,29.2z"></path>
<path fill="#FDFDFD" d="M38.6,29l8.1,0.5c0,0.2,0,0.3,0,0.4l-8.1-0.7C38.6,29.1,38.6,29.1,38.6,29L38.6,29z"></path>
<path fill="#FFFFFF" d="M38.6,28.7l8.1,0.3c0,0.2,0,0.3,0,0.5L38.6,29C38.6,28.9,38.6,28.8,38.6,28.7L38.6,28.7z"></path>
<path fill="#FFFFFF" d="M38.6,28.5l8.1,0.1c0,0.2,0,0.3,0,0.5l-8.1-0.3C38.6,28.6,38.6,28.6,38.6,28.5L38.6,28.5z"></path>
<path fill="#070809" d="M38.6,28.3c0,0,0-0.1,0-0.1l8.1-0.1c0,0.1,0,0.2,0,0.2c0,0.1,0,0.2,0,0.2l-8.1-0.1  C38.6,28.4,38.6,28.4,38.6,28.3z"></path>
</svg>