<?xml version='1.0' encoding='utf-8'?>
<!-- Generator: Adobe Illustrator 16.0.3, SVG Export Plug-In . SVG Version: 6.00 Build 0)  --><svg xmlns="http://www.w3.org/2000/svg" xmlns:cc="http://creativecommons.org/ns#" xmlns:dc="http://purl.org/dc/elements/1.1/" xmlns:rdf="http://www.w3.org/1999/02/22-rdf-syntax-ns#" width="311.81px" height="425.2px" enable-background="new 0 0 311.812 425.197" version="1.1" viewBox="0 0 311.81 425.2" xml:space="preserve"><metadata><rdf:RDF><cc:Work rdf:about=""><dc:format>image/svg+xml</dc:format><dc:type rdf:resource="http://purl.org/dc/dcmitype/StillImage"></dc:type><dc:title></dc:title></cc:Work></rdf:RDF></metadata>
<path d="m155.91 340.16c-78.151 0-141.73-63.58-141.73-141.73 0-78.151 63.581-141.73 141.73-141.73 78.152 0 141.73 63.581 141.73 141.73 0 78.152-63.581 141.73-141.73 141.73zm0-279.52c-75.976 0-137.79 61.812-137.79 137.79s61.812 137.79 137.79 137.79 137.79-61.813 137.79-137.79-61.812-137.79-137.79-137.79z" fill="#000000"></path>
<path d="m240.49 148.13v-16.366h-4.828v16.366h-12.823v-16.366h-4.827v16.366h-5.199v19.21c0 7.649 5.193 14.156 12.495 15.951v47.001c0 6.021-2.4 10.385-6.766 12.295-1.495 0.656-3.179 1.004-4.878 1.004h-0.027c-1.708-2e-3 -3.414-0.354-4.94-1.025-2.572-1.125-6.887-4.215-6.887-12.273v-33.729c0-6.638-2.087-12.175-6-15.975-4.664-4.657-10.002-7.098-15.462-7.05v-49.561c0-3.142-2.547-5.688-5.688-5.688h-69.849c-3.13 0.023-5.665 2.56-5.665 5.688l-0.011 130.4h-11.193v12.393h103.57v-12.393h-11.164v-72.956c3.364-0.077 6.688 1.551 9.927 4.785 2.42 2.351 3.646 5.835 3.646 10.354v33.729c0 9.031 4.343 16.32 11.606 19.498 2.548 1.119 5.273 1.689 8.099 1.689h0.044c2.778 0 5.561-0.578 8.039-1.668 7.193-3.145 11.487-10.441 11.487-19.52v-47c7.303-1.792 12.498-8.3 12.498-15.952v-19.21h-5.204zm-70.388 23.373h-60.771l0.01-42.97h60.761v42.97z" fill="#000000"></path>
</svg>