<?xml version='1.0' encoding='utf-8'?>
<!-- Generator: Adobe Illustrator 22.1.0, SVG Export Plug-In . SVG Version: 6.00 Build 0)  --><svg xmlns="http://www.w3.org/2000/svg" xmlns:cc="http://creativecommons.org/ns#" xmlns:dc="http://purl.org/dc/elements/1.1/" xmlns:rdf="http://www.w3.org/1999/02/22-rdf-syntax-ns#" version="1.2" viewBox="0 0 465.5 425.2" xml:space="preserve" width="437.91156" height="400.0"><metadata><rdf:RDF><cc:Work rdf:about=""><dc:format>image/svg+xml</dc:format><dc:type rdf:resource="http://purl.org/dc/dcmitype/StillImage"></dc:type><dc:title></dc:title></cc:Work></rdf:RDF></metadata>
<path d="m213.3 257.2c6 12.6 8.9 26.2 8.9 40.6 0 18.1-4.6 34.6-13.8 49.7s-21.6 27-37.2 35.7c-15.6 8.8-32.7 13.1-51.3 13.1-9.7 0-19.2-1.3-28.3-3.8s-17.6-6.1-25.6-10.8l-9 11.4-16.3-11.4 9.2-11.9c-10.3-9-18.3-19.7-24-32.1s-8.5-25.7-8.5-39.9c0-18.2 4.6-34.9 13.8-50s21.7-26.9 37.4-35.6 32.8-13 51.2-13c9.6 0 18.7 1.2 27.5 3.5s17 5.7 24.8 10l8.1-10.3 16.6 11.5-8.2 10.4c10.5 9.3 18.7 20.3 24.7 32.9zm-149.2 62.6c2.5 6.9 6.1 12.9 10.8 18.1l72.8-93.7c-8.7-4.5-18-6.8-27.9-6.8-10.8 0-20.8 2.6-29.9 7.9-9.1 5.2-16.3 12.5-21.7 21.7-5.3 9.2-8 19.5-8 30.9 0.1 7.7 1.3 15 3.9 21.9zm85.7 30.6c9.1-5.2 16.3-12.5 21.7-21.7 5.3-9.2 8-19.5 8-30.9 0-8.1-1.4-15.7-4.1-22.7s-6.6-13.3-11.6-18.7l-73.4 94.2c9 5.1 18.9 7.6 29.5 7.6 10.8 0 20.8-2.6 29.9-7.8z" fill="#000000"></path>
	<path d="m425.5 90.9v-46h-15.5v45.9h-31.2v-45.9h-15.6v45.9h-22.4v46.8c0 26.5 19.3 48.6 44.6 52.9v106.2c0 15-7.3 24.5-16.8 28.5-3.8 1.6-7.9 2.4-12 2.4s-8.2-0.8-12-2.4c-9.5-4.1-17-13.6-17-28.5v-73.9c0-15.3-4.4-28.6-14.3-37.9-6.9-6.6-16.3-11-28.5-12.6v-116.6c0-6-4.8-10.8-10.8-10.8h-161c-5.9 0-10.8 4.9-10.8 10.8v136.8c16.4-5.6 34.4-7.1 52.4-3.5 56.9 11.2 93.5 68.2 81.9 127.2-5.8 29.2-22.2 53.4-44.3 69.1h108.6v-31h-15.8v-163.9c7 1.3 12.3 3.8 16.1 7.4 6 5.7 8.6 14.4 8.6 24.9v73.9c0 23.2 12.3 38.3 27.9 45 6 2.6 12.5 3.8 19 3.8s13-1.3 19-3.8c15.6-6.7 27.7-21.7 27.7-45v-106.1c25.3-4.3 44.6-26.3 44.6-52.9v-46.7h-22.4zm-162.1 80.9h-139.7v-105.3h139.6v105.3z" fill="#000000"></path>
</svg>