<?xml version='1.0' encoding='utf-8'?>
<!-- Generator: Adobe Illustrator 16.0.0, SVG Export Plug-In . SVG Version: 6.00 Build 0)  --><svg xmlns="http://www.w3.org/2000/svg" xmlns:cc="http://creativecommons.org/ns#" xmlns:ns="&amp;ns_sfw;" xmlns:rdf="http://www.w3.org/1999/02/22-rdf-syntax-ns#" xmlns:dc="http://purl.org/dc/elements/1.1/" width="487px" height="426px" enable-background="new 0 0 487 426" version="1.1" viewBox="0 0 487 426" xml:space="preserve">
<metadata>
	<ns:sfw>
		<ns:slices></ns:slices>
		<ns:sliceSourceBounds x="218.942" y="147.092" width="404.251" height="314.188" bottomLeftOrigin="true"></ns:sliceSourceBounds>
	</ns:sfw>
<rdf:RDF><cc:Work rdf:about=""><dc:format>image/svg+xml</dc:format><dc:type rdf:resource="http://purl.org/dc/dcmitype/StillImage"></dc:type><dc:title></dc:title></cc:Work></rdf:RDF></metadata>
	<path d="m200.08 363.41c-14.243 0-28.065-1.854-41.472-5.551-13.405-3.703-25.94-8.974-37.598-15.814-11.661-6.84-22.345-15.01-32.049-24.506-9.707-9.496-18.049-20.004-25.028-31.523-6.984-11.521-12.396-23.912-16.233-37.18-3.842-13.264-5.76-27.021-5.76-41.262 0-14.664 1.918-28.766 5.76-42.313 3.839-13.543 9.249-26.182 16.233-37.912 6.979-11.729 15.321-22.412 25.028-32.047 9.704-9.635 20.388-17.836 32.049-24.611 11.655-6.771 24.19-12.044 37.598-15.814 13.405-3.771 27.229-5.656 41.472-5.656 14.662 0 28.696 1.885 42.103 5.656 13.405 3.77 25.898 9.042 37.492 15.814 11.589 6.774 22.063 14.976 31.419 24.611 9.354 9.635 17.385 20.317 24.088 32.047 6.702 11.73 11.867 24.369 15.5 37.912 3.629 13.547 5.445 27.648 5.445 42.313 0 14.239-1.816 27.998-5.445 41.262-3.633 13.268-8.798 25.658-15.5 37.18-6.703 11.521-14.734 22.027-24.088 31.523-9.356 9.496-19.83 17.666-31.419 24.506-11.594 6.844-24.087 12.111-37.492 15.813-13.408 3.698-27.441 5.552-42.103 5.552zm-90.067-164.64h-32.885c-3.351 0-6.042 1.016-8.063 3.036-2.026 2.025-3.037 4.646-3.037 7.854 0 10.055 1.08 19.898 3.247 29.535 2.163 9.635 15.009 33.129 17.175 34.455 2.163 1.328 4.922 1.987 8.273 1.987l26.182-26.391c-3.214-5.584-5.832-12.008-7.854-19.271-2.026-7.261-3.037-14.73-3.037-22.41l-1e-3 -8.795zm90.067-127.56c-13.687 0-26.776 1.957-39.271 5.865-12.499 3.911-24.021 9.357-34.563 16.338-10.545 6.984-20.003 15.326-28.381 25.03-8.378 9.707-15.291 20.285-20.736 31.732 0 2.235 0.907 4.398 2.725 6.493 1.813 2.095 3.839 3.702 6.074 4.817h228.52c2.231-1.116 4.258-2.723 6.074-4.817 1.813-2.095 2.723-4.258 2.723-6.493-5.443-11.447-12.355-22.025-20.734-31.732-8.378-9.704-17.876-18.046-28.486-25.03-10.613-6.981-22.169-12.427-34.665-16.338-12.504-3.908-25.595-5.865-39.278-5.865zm-52.784 208.83s-25.554 22.518-26.392 23.982c-0.838 1.467-1.257 3.036-1.257 4.713 0 1.957 1.257 8.588 1.257 8.588 11.029 7.682 23.387 13.615 37.074 17.805 13.683 4.189 27.717 6.283 42.101 6.283 14.38 0 28.102-2.094 41.158-6.283 13.057-4.188 25.659-10.123 37.809-17.805 0 0 1.047-5.726 1.047-7.121 0-1.953-0.523-3.803-1.57-5.551-1.048-1.744-25.868-24.611-25.868-24.611-7.681 4.471-15.85 8.484-24.506 12.045-8.66 3.562-18.013 5.34-28.067 5.34s-19.445-1.778-28.172-5.34c-8.731-3.56-16.935-7.574-24.614-12.045zm52.784-105.77c-6.563 0-12.672 1.293-18.328 3.875-5.653 2.584-10.544 6.073-14.662 10.473-4.119 4.398-7.329 9.565-9.635 15.5-2.304 5.938-3.456 12.186-3.456 18.746 0 6.563 1.152 12.774 3.456 18.643 2.306 5.865 5.517 10.996 9.635 15.396 4.117 4.396 9.008 7.891 14.662 10.473 5.656 2.584 11.765 3.875 18.328 3.875 6.703 0 12.848-1.291 18.434-3.875 5.583-2.582 10.437-6.074 14.558-10.473 4.117-4.4 7.331-9.531 9.636-15.396s3.455-12.076 3.455-18.643c0-6.563-1.15-12.812-3.455-18.746s-5.519-11.102-9.636-15.5c-4.121-4.399-8.974-7.889-14.558-10.473-5.589-2.582-11.732-3.875-18.434-3.875zm78.967 77.079 26.601 24.297c3.211 0 5.898-0.659 8.064-1.987 2.161-1.326 14.836-24.82 17.069-34.455 2.231-9.637 3.353-19.48 3.353-29.535 0-3.209-1.017-5.828-3.037-7.854-2.025-2.021-4.646-3.036-7.854-3.036h-32.885v8.799c0 7.68-1.015 15.221-3.037 22.621-2.026 7.398-4.788 14.447-8.274 21.15zm118.76 46.08c0-3.209 0.661-6.283 1.99-9.215 1.325-2.934 3.068-5.479 5.234-7.646 2.163-2.162 4.713-3.906 7.646-5.236 2.933-1.324 6.074-1.988 9.426-1.988 3.353 0 6.457 0.664 9.32 1.988 2.858 1.33 5.41 3.074 7.646 5.236 2.231 2.168 3.979 4.713 5.236 7.646 1.257 2.932 1.885 6.006 1.885 9.215 0 3.354-0.628 6.494-1.885 9.426-1.257 2.935-3.005 5.482-5.236 7.646-2.233 2.166-4.784 3.91-7.646 5.236-2.863 1.327-5.97 1.987-9.32 1.987-3.352 0-6.493-0.66-9.426-1.987-2.935-1.326-5.482-3.07-7.646-5.236-2.166-2.164-3.909-4.713-5.234-7.646-1.329-2.932-1.99-6.074-1.99-9.426zm46.081-180.13c0-6.703-1.957-12.044-5.865-16.023-3.911-3.979-9.216-5.97-15.918-5.97-2.796 0-5.519 0.524-8.169 1.571-2.654 1.047-4.994 2.549-7.018 4.503-2.025 1.958-3.665 4.261-4.924 6.912-1.257 2.653-1.885 5.655-1.885 9.007v114.36c0 2.795 0.628 5.481 1.885 8.063 1.259 2.584 2.896 4.922 4.924 7.019 2.021 2.094 4.361 3.77 7.018 5.024 2.65 1.259 5.373 1.888 8.169 1.888 3.352 0 6.352-0.629 9.006-1.888 2.651-1.256 4.923-2.932 6.81-5.024 1.885-2.097 3.352-4.435 4.396-7.019 1.048-2.582 1.571-5.27 1.571-8.063v-114.36z" fill="#FFCE63"></path>
</svg>