<?xml version='1.0' encoding='utf-8'?>
<!-- Generator: Adobe Illustrator 16.0.3, SVG Export Plug-In . SVG Version: 6.00 Build 0)  --><svg xmlns="http://www.w3.org/2000/svg" xmlns:cc="http://creativecommons.org/ns#" xmlns:dc="http://purl.org/dc/elements/1.1/" xmlns:rdf="http://www.w3.org/1999/02/22-rdf-syntax-ns#" width="353.76px" height="425.2px" version="1.2" viewBox="0 0 353.76 425.2" xml:space="preserve"><metadata><rdf:RDF><cc:Work rdf:about=""><dc:format>image/svg+xml</dc:format><dc:type rdf:resource="http://purl.org/dc/dcmitype/StillImage"></dc:type><dc:title></dc:title></cc:Work></rdf:RDF></metadata>
<path d="m207.86 114.25c11.594 25.681 5.772 61.297-7.179 75.986-8.39 9.513-11.752 18.489-9.226 24.626 2.528 6.14 10.906 9.856 24.228 10.749 28.342 1.894 46.372 12.15 56.74 32.28 6.593 12.802 10.276 29.302 11.726 53.942h55.439c0-70.701-10.193-108.28-66.865-112.07-32.713-2.194-33.233-20.814-16.71-39.549 20.308-23.032 23.722-103.52-43.986-103.52-24.063 0-39.729 10.892-48.271 26.359 25.848 2.89 38.221 18.17 44.104 31.201z" fill-rule="evenodd" fill="#000000"></path>
<path d="m14.174 340.16c0-47.803 0-106.57 65.541-110.11 28.241-1.522 37.08-14.954 20.996-36.666-27.226-36.76-20.718-108.32 41.021-108.32 67.77 0 64.356 80.491 44.048 103.52-16.538 18.735-16.017 37.332 16.71 39.522 56.672 3.786 66.865 41.348 66.865 112.05h-255.18z" fill-rule="evenodd" fill="#000000"></path>
</svg>