<?xml version='1.0' encoding='utf-8'?>
<!-- Generator: Adobe Illustrator 16.0.3, SVG Export Plug-In . SVG Version: 6.00 Build 0)  --><svg xmlns="http://www.w3.org/2000/svg" xmlns:cc="http://creativecommons.org/ns#" xmlns:dc="http://purl.org/dc/elements/1.1/" xmlns:rdf="http://www.w3.org/1999/02/22-rdf-syntax-ns#" width="326.24px" height="425.2px" version="1.2" viewBox="0 0 326.24 425.2" xml:space="preserve"><metadata><rdf:RDF><cc:Work rdf:about=""><dc:format>image/svg+xml</dc:format><dc:type rdf:resource="http://purl.org/dc/dcmitype/StillImage"></dc:type><dc:title></dc:title></cc:Work></rdf:RDF></metadata>
<path d="m253.76 210.61v-12.247h-13.947v12.247c0 33.741-27.463 61.192-61.219 61.192-33.755 0-61.216-27.451-61.216-61.192v-12.247h-13.948v12.247c0 39.081 30.004 71.275 68.192 74.804v40.796h-46.577v13.947h107.1v-13.947h-46.575v-40.797c38.186-3.53 68.19-35.725 68.19-74.803z" fill="#000000"></path>
<path d="m156.11 91.986v80.885h44.959v-80.885c-1e-3 -12.415-10.064-22.479-22.479-22.479-12.413-1e-3 -22.48 10.064-22.48 22.479zm22.479 153.91c-19.5 0-35.313-15.813-35.313-35.289v-118.6c0-19.493 15.813-35.314 35.313-35.314 19.516 0 35.315 15.822 35.315 35.314v118.6c0 19.477-15.8 35.289-35.315 35.289z" fill="#000000"></path>
<path d="m246.79 153.84c-2.977 0-5.887-1.48-7.593-4.184-2.642-4.188-1.388-9.726 2.8-12.368l56.323-35.527c4.19-2.641 9.726-1.388 12.368 2.8s1.389 9.726-2.8 12.368l-56.323 35.528c-1.486 0.936-3.14 1.383-4.775 1.383z" fill="#000000"></path>
<path d="m23.149 294.91c-2.976 0-5.887-1.479-7.592-4.184-2.642-4.188-1.388-9.726 2.8-12.368l54.155-34.161c4.188-2.642 9.725-1.389 12.368 2.801 2.642 4.188 1.389 9.725-2.8 12.367l-54.156 34.161c-1.485 0.938-3.14 1.384-4.775 1.384z" fill="#000000"></path>
</svg>