<?xml version='1.0' encoding='utf-8'?>
<!-- Generator: Adobe Illustrator 16.0.3, SVG Export Plug-In . SVG Version: 6.00 Build 0)  --><svg xmlns="http://www.w3.org/2000/svg" xmlns:cc="http://creativecommons.org/ns#" xmlns:dc="http://purl.org/dc/elements/1.1/" xmlns:rdf="http://www.w3.org/1999/02/22-rdf-syntax-ns#" width="336.57px" height="425.2px" version="1.2" viewBox="0 0 336.57 425.2" xml:space="preserve"><metadata><rdf:RDF><cc:Work rdf:about=""><dc:format>image/svg+xml</dc:format><dc:type rdf:resource="http://purl.org/dc/dcmitype/StillImage"></dc:type><dc:title></dc:title></cc:Work></rdf:RDF></metadata>
<path d="m321.91 189.53c-5.99 67.108-65.247 116.65-132.35 110.67-23.096-2.064-44.108-10.432-61.494-23.259l-71.757 59.994c-2.934 2.453-6.583 3.484-10.114 3.17-3.529-0.314-6.94-1.979-9.394-4.911l-19.4-23.206c-2.355-2.82-3.496-6.459-3.169-10.117 0.327-3.66 2.093-7.037 4.911-9.395l71.755-59.993c-9.543-19.382-14.059-41.549-11.998-64.638 5.99-67.104 65.243-116.65 132.35-110.66 67.105 5.989 116.65 65.243 110.66 132.35zm-114.45-89.893c-43.659-3.896-82.209 28.335-86.105 71.994s28.334 82.212 71.995 86.109c43.653 3.896 82.207-28.341 86.104-71.999 3.895-43.659-28.342-82.207-71.994-86.104z" fill="#000000"></path>
</svg>