<?xml version='1.0' encoding='utf-8'?>
<!-- Generator: Adobe Illustrator 16.0.0, SVG Export Plug-In . SVG Version: 6.00 Build 0)  --><svg xmlns="http://www.w3.org/2000/svg" xmlns:cc="http://creativecommons.org/ns#" xmlns:dc="http://purl.org/dc/elements/1.1/" xmlns:rdf="http://www.w3.org/1999/02/22-rdf-syntax-ns#" width="512px" height="425.2px" version="1.2" viewBox="258.44 85.042 512 425.2" xml:space="preserve"><metadata><rdf:RDF><cc:Work rdf:about=""><dc:format>image/svg+xml</dc:format><dc:type rdf:resource="http://purl.org/dc/dcmitype/StillImage"></dc:type><dc:title></dc:title></cc:Work></rdf:RDF></metadata>

	<path d="m673.86 353.93h-110.8c-58.505 0-106.1-47.591-106.1-106.09 0-58.506 47.599-106.1 106.1-106.1h110.8v212.2zm-110.8-174.69c-37.824 0-68.598 30.772-68.598 68.597 0 37.818 30.773 68.585 68.598 68.585h73.297v-137.18h-73.297z"></path>
	<path d="m347.35 441.06h-77.988v-37.506h77.988c25.461 0 42.865-5.692 47.746-15.618 5.108-10.385-1.064-29.383-15.723-48.4-22.192-28.809-28.657-58.058-17.738-80.253 5.549-11.278 20.516-30.197 58.421-30.197h55.642v37.506h-55.642c-12.849 0-21.876 3.371-24.765 9.248-3.172 6.447-1.463 21 13.791 40.803 24.392 31.646 31.562 63.666 19.67 87.847-8.204 16.682-28.988 36.57-81.402 36.57z"></path>
	<rect x="655.1" y="279.09" width="104.91" height="37.507"></rect>
	<rect x="655.1" y="179.14" width="104.91" height="37.507"></rect>

</svg>