<?xml version='1.0' encoding='utf-8'?>
<!-- Generator: Adobe Illustrator 16.0.0, SVG Export Plug-In . SVG Version: 6.00 Build 0)  --><svg xmlns="http://www.w3.org/2000/svg" xmlns:cc="http://creativecommons.org/ns#" xmlns:dc="http://purl.org/dc/elements/1.1/" xmlns:ns="&amp;ns_sfw;" xmlns:rdf="http://www.w3.org/1999/02/22-rdf-syntax-ns#" width="209px" height="425.2px" version="1.2" viewBox="0 0 209 425.2" xml:space="preserve">
<metadata>
	<ns:sfw>
		<ns:slices></ns:slices>
		<ns:sliceSourceBounds x="328.1" y="160.406" width="184.801" height="291.196" bottomLeftOrigin="true"></ns:sliceSourceBounds>
	</ns:sfw>
<rdf:RDF><cc:Work rdf:about=""><dc:format>image/svg+xml</dc:format><dc:type rdf:resource="http://purl.org/dc/dcmitype/StillImage"></dc:type><dc:title></dc:title></cc:Work></rdf:RDF></metadata>
	<path d="m12.1 204.09c0-92.799 37.201-145.6 92.4-145.6 55.201 0 92.4 52.799 92.4 145.6 0 92.8-37.199 145.6-92.4 145.6-55.199-1e-3 -92.4-52.799-92.4-145.6zm130.8 0c0-57.599-14.398-81.599-38.399-81.599-21.601 0-38.399 24-38.399 81.599 0 55.999 16.799 81.601 38.399 81.601 24.001-1e-3 38.399-25.602 38.399-81.601z" fill="#000000"></path>
</svg>