<?xml version='1.0' encoding='utf-8'?>
<!-- Generator: Adobe Illustrator 16.0.0, SVG Export Plug-In . SVG Version: 6.00 Build 0)  --><svg xmlns="http://www.w3.org/2000/svg" xmlns:cc="http://creativecommons.org/ns#" xmlns:dc="http://purl.org/dc/elements/1.1/" xmlns:rdf="http://www.w3.org/1999/02/22-rdf-syntax-ns#" width="594px" height="425.2px" version="1.2" viewBox="0 0 594 425.2" xml:space="preserve"><metadata><rdf:RDF><cc:Work rdf:about=""><dc:format>image/svg+xml</dc:format><dc:type rdf:resource="http://purl.org/dc/dcmitype/StillImage"></dc:type><dc:title></dc:title></cc:Work></rdf:RDF></metadata>

	<path d="m181.49 77.625c17.199 12.537 30.899 29.6 41.1 51.2s15.301 45.2 15.301 70.8c0 25.869-5.1 49.538-15.301 71-10.199 21.469-23.899 38.469-41.1 51-17.203 12.537-36 18.8-56.4 18.8h-81.6v-281.6h81.6c20.4 0 39.197 6.269 56.4 18.8zm-27.15 190.4c9.3-6.662 16.546-15.932 21.75-27.801 5.199-11.861 7.801-25.399 7.801-40.6s-2.602-28.73-7.801-40.6c-5.203-11.863-12.449-21.131-21.75-27.801-9.3-6.662-19.852-10-31.649-10h-27.601v156.8h27.601c11.798 2e-3 22.349-3.33 31.649-9.998z" fill="#000000"></path>
	<path d="m209.69 360.02 106.8-323.2h51.602l-106.8 323.2h-51.6z" fill="#000000"></path>
	<path d="m541.19 214.02c5.4 11.469 8.103 24.27 8.103 38.399 0 18.138-3.15 33.8-9.451 47-6.299 13.2-15.051 23.339-26.25 30.4-11.203 7.067-24.104 10.6-38.699 10.6h-103.2v-281.6h102c11.4 0 22.148 3.138 32.25 9.4 10.099 6.269 18.25 15.338 24.451 27.2 6.197 11.869 9.299 25.8 9.299 41.8 0 19.2-7.002 35.601-21 49.2 9.602 6.937 17.102 16.139 22.5 27.601zm-117.9-96v54.4h43.199c6.397 0 11.598-2.462 15.6-7.399 3.998-4.932 6-11.531 6-19.801 0-4.8-0.9-9.33-2.699-13.6-1.801-4.263-4.35-7.6-7.649-10-3.302-2.4-7.052-3.6-11.25-3.6h-43.201zm65.549 155.8c4.299-4.932 6.451-11.531 6.451-19.801 0-4.801-1.004-9.262-3-13.399-2.002-4.132-4.754-7.463-8.25-10-3.502-2.53-7.353-3.8-11.551-3.8h-49.199v54.398h49.199c6.6 1e-3 12.047-2.46 16.35-7.398z" fill="#000000"></path>

</svg>