<?xml version='1.0' encoding='utf-8'?>
<!-- Generator: Adobe Illustrator 16.0.0, SVG Export Plug-In . SVG Version: 6.00 Build 0)  --><svg xmlns="http://www.w3.org/2000/svg" xmlns:cc="http://creativecommons.org/ns#" xmlns:dc="http://purl.org/dc/elements/1.1/" xmlns:rdf="http://www.w3.org/1999/02/22-rdf-syntax-ns#" width="394px" height="425.2px" version="1.2" viewBox="258.44 85.042 394 425.2" xml:space="preserve"><metadata><rdf:RDF><cc:Work rdf:about=""><dc:format>image/svg+xml</dc:format><dc:type rdf:resource="http://purl.org/dc/dcmitype/StillImage"></dc:type><dc:title></dc:title></cc:Work></rdf:RDF></metadata>

	<path d="m623.48 437.79c-5e-3 -1e-3 -0.013-1e-3 -0.02 0h-337.35c-4.529 0-8.709-2.433-10.948-6.369-2.239-3.938-2.191-8.773 0.125-12.666l168.67-283.46c2.271-3.816 6.383-6.154 10.823-6.154s8.553 2.338 10.823 6.154l168.34 282.89c1.349 2.006 2.135 4.42 2.135 7.018-1e-3 6.956-5.64 12.594-12.596 12.594zm-315.22-25.189h293.05l-146.53-246.24-146.52 246.24z"></path>
	
		<path d="m476.02 374.16c0 11.994-9.522 21.664-21.24 21.664-11.699 0-21.24-9.67-21.24-21.664 0-11.718 9.541-21.222 21.24-21.222 11.718 0 21.24 9.504 21.24 21.222z"></path>
		<path d="m454.78 396.32c-11.987 0-21.74-9.942-21.74-22.164 0-11.978 9.753-21.722 21.74-21.722s21.74 9.744 21.74 21.722c0 12.221-9.753 22.164-21.74 22.164zm0-42.886c-11.437 0-20.74 9.296-20.74 20.722 0 11.67 9.304 21.164 20.74 21.164s20.74-9.494 20.74-21.164c0-11.426-9.303-20.722-20.74-20.722z"></path>
	
	
		<path d="m479.06 232.93c0-13.406-10.887-24.266-24.284-24.266-13.379 0-24.267 10.86-24.267 24.266 0 1.449 10.63 97.481 10.63 97.481 0.94 6.827 6.55 12.151 13.637 12.151 7.104 0 12.715-5.324 13.655-12.151 0 0 10.629-96.033 10.629-97.481z"></path>
		<path d="m454.78 343.06c-7.185 0-13.128-5.292-14.132-12.583-0.436-3.936-10.635-96.09-10.635-97.549 0-13.656 11.11-24.766 24.767-24.766 13.666 0 24.784 11.11 24.784 24.766 0 1.459-10.198 93.614-10.632 97.536-1.005 7.304-6.957 12.596-14.152 12.596zm0-133.9c-13.104 0-23.767 10.662-23.767 23.766 0.024 1.342 6.962 64.315 10.627 97.426 0.934 6.777 6.46 11.706 13.14 11.706 6.69 0 12.225-4.929 13.16-11.72 3.663-33.097 10.6-96.071 10.624-97.415 0-13.102-10.67-23.763-23.784-23.763z"></path>
	

</svg>