<?xml version='1.0' encoding='utf-8'?>
<!-- Generator: Adobe Illustrator 16.0.0, SVG Export Plug-In . SVG Version: 6.00 Build 0)  --><svg xmlns="http://www.w3.org/2000/svg" xmlns:cc="http://creativecommons.org/ns#" xmlns:dc="http://purl.org/dc/elements/1.1/" xmlns:ns="&amp;ns_sfw;" xmlns:rdf="http://www.w3.org/1999/02/22-rdf-syntax-ns#" width="448px" height="507.14px" version="1.2" viewBox="0 0 448 507.14" xml:space="preserve">
<metadata>
	<ns:sfw>
		<ns:slices></ns:slices>
		<ns:sliceSourceBounds x="214.555" y="213.658" width="411.4" height="215.53" bottomLeftOrigin="true"></ns:sliceSourceBounds>
	</ns:sfw>
<rdf:RDF><cc:Work rdf:about=""><dc:format>image/svg+xml</dc:format><dc:type rdf:resource="http://purl.org/dc/dcmitype/StillImage"></dc:type><dc:title></dc:title></cc:Work></rdf:RDF></metadata>
	<path d="m377.82 175.07c10.286 4.426 19.252 10.461 26.897 18.104 7.644 7.646 13.679 16.612 18.104 26.898 4.424 10.289 6.639 21.238 6.639 32.847 0 11.726-2.215 22.703-6.639 32.935-4.426 10.229-10.461 19.168-18.104 26.811-7.646 7.646-16.611 13.682-26.897 18.105-10.289 4.426-21.238 6.639-32.847 6.639h-139.14v-22.588h139.15c8.505 0 16.521-1.609 24.053-4.828 7.527-3.217 14.079-7.646 19.656-13.277 5.573-5.631 10.001-12.211 13.274-19.742 3.276-7.524 4.914-15.545 4.914-24.053 0-8.506-1.638-16.521-4.914-24.053-3.273-7.527-7.701-14.08-13.274-19.657-5.577-5.573-12.129-9.971-19.656-13.19-7.53-3.217-15.548-4.828-24.053-4.828h-255.88v47.071l-71.037-58.105 71.383-58.279v46.554h255.53c11.607-2e-3 22.556 2.212 32.845 6.636z" fill="#000000"></path>
</svg>