<?xml version='1.0' encoding='utf-8'?>
<!-- Generator: Adobe Illustrator 16.0.0, SVG Export Plug-In . SVG Version: 6.00 Build 0)  --><svg xmlns="http://www.w3.org/2000/svg" xmlns:cc="http://creativecommons.org/ns#" xmlns:dc="http://purl.org/dc/elements/1.1/" xmlns:rdf="http://www.w3.org/1999/02/22-rdf-syntax-ns#" width="419px" height="425.2px" version="1.2" viewBox="0 0 419 425.2" xml:space="preserve"><metadata><rdf:RDF><cc:Work rdf:about=""><dc:format>image/svg+xml</dc:format><dc:type rdf:resource="http://purl.org/dc/dcmitype/StillImage"></dc:type><dc:title></dc:title></cc:Work></rdf:RDF></metadata>
<g fill="#1D1D1B">
	<path d="m135.44 263.72 8.487 7.614c7.265 6.583 15.403 11.997 24.205 16.103 38.77 18.092 85.884 8.485 114.49-23.297 14.635-16.276 23.366-36.777 24.938-58.449l-44.672 0.052 64.371-84.924 70.938 84.854-46.803 0.019c-1.711 32.586-14.424 63.443-36.255 87.648-41.353 45.999-109.42 59.865-165.55 33.705-12.678-5.938-24.448-13.727-34.891-23.189l-6.252-5.66 22.701-25.217 4.297-9.259z" fill="#000000"></path>
	<path d="m67.925 191.11c1.642-32.551 14.32-63.41 36.254-87.667 41.354-45.964 109.39-59.777 165.48-33.635 12.679 5.92 24.449 13.691 34.892 23.122l6.287 5.658-29.164 32.377-6.286-5.623c-7.229-6.532-15.367-11.91-24.1-15.997-38.839-18.091-85.99-8.521-114.7 23.26-14.6 16.277-23.297 36.813-24.869 58.521l44.672-0.087-64.369 84.959-70.902-84.855 46.802-0.033z" fill="#000000"></path>
</g>
</svg>