<?xml version='1.0' encoding='utf-8'?>
<!-- Generator: Adobe Illustrator 26.0.1, SVG Export Plug-In . SVG Version: 6.00 Build 0)  --><svg xmlns="http://www.w3.org/2000/svg" xmlns:xlink="http://www.w3.org/1999/xlink" version="1.1" id="Layer_1" x="0px" y="0px" viewBox="0 0 374.6 425.2" style="enable-background:new 0 0 374.6 425.2;" xml:space="preserve" width="352.39886" height="400.0">
<path d="M157.6,339.3c0,39.6-32.1,71.7-71.7,71.7s-71.7-32.1-71.7-71.7s32.1-71.7,71.7-71.7S157.6,299.7,157.6,339.3z M124.8,292.1  c-10.6-8.7-24.2-14-39-14v61.2L124.8,292.1z"></path>
<path d="M139.2,181.7c2.9,4.9,4.8,8.1,4.8,18.4c0,16-4.9,20.7-11.6,27.3c-6.2,6-13.6,13.3-15.6,27.4c8.4,3.1,16.2,7.4,23.3,12.7  c-0.2-1.5-0.3-3.1-0.3-4.9c0-9.5,3.2-12.7,9.1-18.4c7.9-7.7,18.7-18.3,18.7-44.1c0-16.7-4.5-24.3-8-30.3c-2.4-4-4.3-7.4-4.9-15.1  h27.2l-39.2-89.5l-39.2,89.5H131C131.8,169.1,135.9,176,139.2,181.7z"></path>
<path d="M238.1,244.2c7.9-7.7,18.7-18.3,18.7-44.1c0-16.7-4.5-24.3-8-30.3c-2.4-4-4.3-7.4-4.9-15.1h27.2l-39.2-89.5l-39.2,89.5h27.6  c0.8,14.4,4.9,21.4,8.2,27c2.9,4.9,4.8,8.1,4.8,18.4c0,16-4.9,20.7-11.6,27.3c-7.2,7-16.2,15.8-16.2,35.2c0,20.3,9.2,30.3,16.5,38.3  c6.5,7.1,11.2,12.2,11.2,25.5c0,11.4-9.9,22.8-21.8,32.2h33.3c7.2-9.4,12-20.2,12-32.2c0-22.5-9.7-33-17.4-41.4  c-6.2-6.8-10.3-11.2-10.3-22.4C229,253,232.2,249.9,238.1,244.2z"></path>
<path d="M327.4,244.2c7.9-7.7,18.7-18.3,18.7-44.1c0-16.7-4.5-24.3-8-30.3c-2.4-4-4.3-7.4-4.9-15.1h27.2l-39.2-89.5l-39.2,89.5h27.6  c0.8,14.4,4.9,21.4,8.2,27c2.9,4.9,4.8,8.1,4.8,18.4c0,16-4.9,20.7-11.6,27.3c-7.2,7-16.2,15.8-16.2,35.2c0,20.3,9.2,30.3,16.5,38.3  c6.5,7.1,11.2,12.2,11.2,25.5c0,11.4-9.9,22.8-21.8,32.2h33.3c7.2-9.4,12-20.2,12-32.2c0-22.5-9.7-33-17.4-41.4  c-6.2-6.8-10.3-11.2-10.3-22.4C318.4,253,321.6,249.9,327.4,244.2z"></path>
</svg>