<?xml version='1.0' encoding='utf-8'?>
<!-- Generator: Adobe Illustrator 16.0.0, SVG Export Plug-In . SVG Version: 6.00 Build 0)  --><svg xmlns="http://www.w3.org/2000/svg" xmlns:cc="http://creativecommons.org/ns#" xmlns:ns="&amp;ns_sfw;" xmlns:rdf="http://www.w3.org/1999/02/22-rdf-syntax-ns#" xmlns:dc="http://purl.org/dc/elements/1.1/" width="336px" height="369px" version="1.2" viewBox="0 0 336 369" xml:space="preserve">
<metadata>
	<ns:sfw>
		<ns:slices></ns:slices>
		<ns:sliceSourceBounds x="278.769" y="141.837" width="283.463" height="311.325" bottomLeftOrigin="true"></ns:sliceSourceBounds>
	</ns:sfw>
<rdf:RDF><cc:Work rdf:about=""><dc:format>image/svg+xml</dc:format><dc:type rdf:resource="http://purl.org/dc/dcmitype/StillImage"></dc:type><dc:title></dc:title></cc:Work></rdf:RDF></metadata>
	<path d="m296.68 273.3-34.131-19.152v37.957h-26.289v-52.932l-56.24-32.561v63.9l44.924 23.682-12.189 23.506-32.732-18.631v41.092h-26.292v-41.092l-32.909 18.631-11.666-23.506 44.575-22.463v-63.727l-54.151 31.168v50.318h-25.596v-35.346l-34.476 19.152-13.234-22.113 35.52-20.721-33.084-18.629 11.842-24.029 47.709 27.512 53.105-30.993-54.326-31.69-44.4 25.946-13.931-21.07 33.084-18.979-35.52-20.719 13.582-23.158 34.129 20.196v-37.607h25.595v52.584l54.151 30.816v-63.204l-42.138-22.635 11.664-23.682 30.474 16.367v-38.652h26.292v38.655l32.732-16.367 14.275 21.592-47.01 24.725v64.946l56.24-32.212v-50.842h26.289v35.519l33.779-20.196 13.408 23.158-35.346 20.72 32.732 18.979-13.756 21.069-43.877-25.944-54.326 31.69 53.459 30.644 44.744-24.549 11.49 21.416-30.469 18.629 35.348 20.721-13.054 22.111z" fill="#53A7F5"></path>
</svg>