<?xml version='1.0' encoding='utf-8'?>
<!-- Generator: Adobe Illustrator 16.0.3, SVG Export Plug-In . SVG Version: 6.00 Build 0)  --><svg xmlns="http://www.w3.org/2000/svg" xmlns:cc="http://creativecommons.org/ns#" xmlns:dc="http://purl.org/dc/elements/1.1/" xmlns:rdf="http://www.w3.org/1999/02/22-rdf-syntax-ns#" width="361.18px" height="425.2px" version="1.2" viewBox="0 0 361.18 425.2" xml:space="preserve"><metadata><rdf:RDF><cc:Work rdf:about=""><dc:format>image/svg+xml</dc:format><dc:type rdf:resource="http://purl.org/dc/dcmitype/StillImage"></dc:type><dc:title></dc:title></cc:Work></rdf:RDF></metadata>
	<rect x="56.304" y="326.14" width="113.56" height="14.021" fill="#000000"></rect>
	<rect x="56.304" y="283.76" width="113.56" height="14.021" fill="#000000"></rect>
	<rect x="56.304" y="241.42" width="113.56" height="14.021" fill="#000000"></rect>
	<rect x="14.173" y="241.42" width="14.021" height="14.021" fill="#000000"></rect>
	<rect x="14.173" y="326.14" width="14.021" height="14.021" fill="#000000"></rect>
	<rect x="14.173" y="283.78" width="14.021" height="14.021" fill="#000000"></rect>
<path d="m304.6 213.6c0 27.441-22.326 49.768-49.77 49.768s-49.771-22.326-49.771-49.768v-7.634h-14.021v7.634c0 32.803 24.894 59.893 56.781 63.396v27.858h-35.576v14.021h85.173v-14.021h-35.576v-27.858c31.887-3.502 56.781-30.593 56.781-63.396v-7.634h-14.021v7.634z" fill="#000000"></path>
<path d="m276.12 222.43v-81.409c0-11.753-9.532-21.293-21.292-21.293-11.762 0-21.294 9.54-21.294 21.293v81.409c0 11.754 9.532 21.293 21.294 21.293 11.76 0 21.292-9.539 21.292-21.293zm-35.574-73.176h28.563v56.702h-28.563v-56.702z" fill="#000000"></path>
	<path d="m254.83 85.082c-35.176 0-63.793 28.615-63.793 63.789v7.634h14.021v-7.634c0-27.441 22.328-49.767 49.771-49.767s49.77 22.326 49.77 49.767v7.634h14.021v-7.634c1e-3 -35.174-28.616-63.789-63.79-63.789z" fill="#000000"></path>
	<path d="m254.83 56.693c-50.83 0-92.184 41.351-92.184 92.177v7.634h14.022v-7.634c0-43.095 35.063-78.155 78.161-78.155s78.16 35.061 78.16 78.155v7.634h14.021v-7.634c2e-3 -50.827-41.351-92.177-92.18-92.177z" fill="#000000"></path>
</svg>