<?xml version='1.0' encoding='utf-8'?>
<!-- Generator: Adobe Illustrator 16.0.0, SVG Export Plug-In . SVG Version: 6.00 Build 0)  --><svg xmlns="http://www.w3.org/2000/svg" xmlns:cc="http://creativecommons.org/ns#" xmlns:dc="http://purl.org/dc/elements/1.1/" xmlns:rdf="http://www.w3.org/1999/02/22-rdf-syntax-ns#" width="1742px" height="425.2px" version="1.2" viewBox="0 0 1742 425.2" xml:space="preserve"><metadata><rdf:RDF><cc:Work rdf:about=""><dc:format>image/svg+xml</dc:format><dc:type rdf:resource="http://purl.org/dc/dcmitype/StillImage"></dc:type><dc:title></dc:title></cc:Work></rdf:RDF></metadata>

	<path d="m184.89 335.48-12.85-40.493h-91.114l-12.85 40.493h-51.397l91.114-274.12h40.884l89.946 274.12h-53.733zm-86.442-95.005h56.069l-28.035-88.388-28.034 88.388z" fill="#808080"></path>


	<path d="m282.28 326.33c-13.922-9.211-24.777-22.255-32.562-39.132-7.79-16.871-11.681-36.602-11.681-59.186v-166.65h50.229v168.21c0 10.385 1.753 19.34 5.257 26.865 3.504 7.531 8.419 13.24 14.748 17.134 6.323 3.894 13.675 5.841 22.048 5.841 7.98 0 15.04-1.947 21.172-5.841 6.133-3.894 10.951-9.603 14.456-17.134 3.504-7.525 5.256-16.48 5.256-26.865v-168.21h50.23v166.65c0 22.584-3.897 42.313-11.683 59.186-7.789 16.877-18.544 29.921-32.27 39.132-13.727 9.211-29.449 13.823-47.163 13.823-18.103 0-34.12-4.612-48.037-13.823z" fill="#808080"></path>


	<path d="m615.34 61.365v60.742h-64.247v213.38h-50.23v-213.38h-65.414v-60.742h179.89z" fill="#808080"></path>


	<path d="m668.48 321.47c-17.134-12.46-30.81-29.524-41.03-51.202-10.221-21.672-15.332-45.617-15.332-71.839 0-25.955 5.111-49.773 15.332-71.451 10.222-21.671 23.896-38.803 41.03-51.397 17.13-12.587 35.725-18.884 55.778-18.884 20.049 0 38.644 6.23 55.776 18.689 17.131 12.46 30.811 29.532 41.031 51.203 10.221 21.678 15.331 45.624 15.331 71.84 0 26.222-5.11 50.167-15.331 71.839-10.222 21.678-23.9 38.742-41.031 51.202-17.134 12.462-35.729 18.69-55.776 18.69-20.053 0-38.648-6.228-55.778-18.69zm85.274-54.318c9.147-7.138 16.448-16.743 21.901-28.813 5.447-12.071 8.178-25.37 8.178-39.911 0-14.535-2.729-27.841-8.178-39.911-5.453-12.07-12.754-21.671-21.901-28.813-9.153-7.137-18.982-10.708-29.495-10.708s-20.347 3.571-29.495 10.708c-9.153 7.143-16.454 16.811-21.902 29.009-5.453 12.204-8.177 25.442-8.177 39.716 0 14.541 2.724 27.839 8.177 39.911 5.448 12.07 12.749 21.678 21.902 28.813 9.148 7.144 18.982 10.707 29.495 10.707s20.341-3.565 29.495-10.708z" fill="#808080"></path>


	<path d="m1064.2 61.365h50.229v274.12h-50.229v-107.47h-81.77v107.47h-50.229v-274.12h50.229v105.91h81.77v-105.91z" fill="#808080"></path>


	<path d="m1190.6 321.47c-17.135-12.46-30.811-29.524-41.03-51.202-10.222-21.672-15.332-45.617-15.332-71.839 0-25.955 5.11-49.773 15.332-71.451 10.221-21.671 23.896-38.803 41.03-51.397 17.13-12.587 35.724-18.884 55.777-18.884 20.049 0 38.645 6.23 55.777 18.689 17.129 12.46 30.81 29.532 41.031 51.203 10.221 21.678 15.331 45.624 15.331 71.84 0 26.222-5.11 50.167-15.331 71.839-10.223 21.678-23.902 38.742-41.031 51.202-17.134 12.462-35.729 18.69-55.777 18.69-20.054 0-38.647-6.228-55.777-18.69zm85.272-54.318c9.149-7.138 16.45-16.743 21.902-28.813 5.448-12.071 8.178-25.37 8.178-39.911 0-14.535-2.729-27.841-8.178-39.911-5.452-12.07-12.753-21.671-21.902-28.813-9.153-7.137-18.98-10.708-29.494-10.708s-20.347 3.571-29.495 10.708c-9.152 7.143-16.453 16.811-21.901 29.009-5.453 12.204-8.179 25.442-8.179 39.716 0 14.541 2.726 27.839 8.179 39.911 5.448 12.07 12.749 21.678 21.901 28.813 9.148 7.144 18.981 10.707 29.495 10.707 10.513-1e-3 20.341-3.565 29.494-10.708z" fill="#808080"></path>


	<path d="m1428.6 274.74h87.608v60.741h-137.84v-274.12h50.23l2e-3 213.38z" fill="#808080"></path>


	<path d="m1668.1 79.666c16.743 12.204 30.08 28.813 40.01 49.84 9.929 21.026 14.893 43.999 14.893 68.919 0 25.18-4.964 48.221-14.893 69.114-9.93 20.897-23.267 37.446-40.01 49.646-16.746 12.205-35.043 18.301-54.9 18.301h-79.434v-274.12h79.434c19.857 0 38.154 6.103 54.9 18.301zm-26.429 185.34c9.054-6.485 16.107-15.508 21.173-27.062 5.061-11.549 7.593-24.725 7.593-39.521s-2.532-27.968-7.593-39.522c-5.064-11.547-12.119-20.569-21.173-27.061-9.053-6.485-19.323-9.734-30.81-9.734h-26.866v152.64h26.866c11.487-1e-3 21.758-3.244 30.81-9.735z" fill="#808080"></path>

</svg>