<?xml version='1.0' encoding='utf-8'?>
<!-- Generator: Adobe Illustrator 16.0.0, SVG Export Plug-In . SVG Version: 6.00 Build 0)  --><svg xmlns="http://www.w3.org/2000/svg" xmlns:cc="http://creativecommons.org/ns#" xmlns:dc="http://purl.org/dc/elements/1.1/" xmlns:rdf="http://www.w3.org/1999/02/22-rdf-syntax-ns#" width="514px" height="425.2px" enable-background="new 0 0 514 425.2" version="1.1" viewBox="0 0 514 425.2" xml:space="preserve"><metadata><rdf:RDF><cc:Work rdf:about=""><dc:format>image/svg+xml</dc:format><dc:type rdf:resource="http://purl.org/dc/dcmitype/StillImage"></dc:type><dc:title></dc:title></cc:Work></rdf:RDF></metadata>
<path d="m138.55 418.94c-7.16 0-13.992-0.362-20.498-1.076-6.506-0.717-12.186-1.696-17.042-2.938-1.059-0.313-1.495-0.998-1.307-2.055l3.549-18.582c0.187-1.123 0.841-1.59 1.962-1.402 3.236 0.498 6.225 0.921 8.965 1.262 2.738 0.342 5.369 0.622 7.891 0.84 2.52 0.219 5.01 0.372 7.47 0.469 2.458 0.09 5.057 0.14 7.796 0.14 6.972 0 12.513-0.327 16.621-0.984 4.108-0.649 7.251-1.646 9.433-2.985 2.178-1.338 3.595-3.049 4.248-5.137 0.654-2.084 0.98-4.527 0.98-7.33 0-2.242-0.312-4.17-0.934-5.789-0.623-1.617-1.852-3.176-3.689-4.67s-4.42-3.082-7.75-4.764-7.704-3.702-13.121-6.07l-14.754-6.723c-6.163-2.801-11.251-5.604-15.268-8.402-4.015-2.805-7.207-5.744-9.571-8.826-2.366-3.08-4.017-6.352-4.951-9.807s-1.4-7.173-1.4-11.156c0-6.787 1.057-12.527 3.174-17.23 2.116-4.699 5.417-8.512 9.899-11.438 4.482-2.928 10.209-5.029 17.182-6.307 6.972-1.271 15.315-1.913 25.027-1.913 6.163 0 12.123 0.298 17.883 0.888 5.756 0.592 10.972 1.51 15.641 2.756 1.057 0.313 1.495 0.996 1.306 2.053l-3.455 17.93c-0.186 1.12-0.841 1.589-1.96 1.4-2.242-0.312-4.592-0.592-7.052-0.84-2.458-0.246-4.872-0.453-7.236-0.608-2.367-0.151-4.623-0.265-6.77-0.326-2.148-0.06-4.062-0.094-5.743-0.094-5.789 0-10.738 0.188-14.847 0.562-4.109 0.375-7.458 1.059-10.038 2.057-2.584 0.996-4.468 2.351-5.649 4.063-1.184 1.711-1.775 3.904-1.775 6.581 0 2.49 0.387 4.595 1.167 6.306 0.777 1.711 2.116 3.313 4.016 4.808 1.898 1.493 4.404 2.958 7.517 4.389 3.112 1.433 7.003 3.115 11.673 5.043l16.995 7.191c5.977 2.491 10.909 5.011 14.801 7.563 3.891 2.555 6.972 5.34 9.245 8.356 2.273 3.021 3.858 6.351 4.762 9.993 0.902 3.644 1.354 7.828 1.354 12.56 0 6.476-0.779 12.222-2.334 17.229-1.558 5.013-4.405 9.216-8.545 12.607-4.14 3.393-9.821 5.977-17.042 7.748-7.22 1.768-16.495 2.658-27.826 2.658z" fill="#000000"></path>
<path d="m209.39 416.31c-1.12 0-1.68-0.562-1.68-1.681v-134.38c0-1.119 0.561-1.68 1.68-1.68h83.483c1.118 0 1.679 0.561 1.679 1.68v20.172c0 1.117-0.561 1.679-1.679 1.679h-60.326v31.188h48.466c1.119 0 1.678 0.562 1.678 1.683v20.078c0 1.12-0.559 1.681-1.678 1.681h-48.466v36.043h60.326c1.118 0 1.679 0.561 1.679 1.684v20.168c0 1.119-0.561 1.682-1.679 1.682h-83.483z" fill="#000000"></path>
<path d="m340.36 416.31c-1.12 0-1.683-0.562-1.683-1.681v-112.53h-39.313c-1.12 0-1.683-0.562-1.683-1.679v-20.172c0-1.119 0.563-1.68 1.683-1.68h103.37c1.119 0 1.68 0.561 1.68 1.68v20.172c0 1.117-0.561 1.679-1.68 1.679h-39.312v112.53c0 1.119-0.563 1.681-1.681 1.681h-21.385z" fill="#000000"></path>
<path d="m385.34 194.23c-19.945 0-36.978-12.541-43.291-30.54h-197.77c-6.314 17.997-23.345 30.54-43.292 30.54-20.089 0-37.22-12.718-43.426-30.923-30.022-3.123-43.569-24.758-43.569-46.213 0-13.105 4.758-31.397 27.425-44.118 18.116-10.169 44.393-15.112 80.329-15.112 8.062 0 18.599-3.304 28.188-8.841l46.146-26.642c8.178-4.721 30.071-14.469 45.553-14.469h93.244c15.111 0 42.43 6.215 54.135 12.316l44.718 23.312c5.945 3.098 15.431 6.847 22.592 7.205 16.291 0.815 34.715 10.373 36.675 29.43l5.233 50.902c0.825 8.036-1.58 15.633-6.781 21.394-6.718 7.445-17.376 11.22-31.679 11.22h-31.144c-6.313 17.998-23.345 30.539-43.29 30.539zm-261.77-54.8h239.18l1.048 10.98c1.063 11.151 10.322 19.558 21.543 19.558 11.219 0 20.479-8.407 21.54-19.558l1.049-10.98h51.844c7.938 0 12.268-1.659 13.668-3.211 0.555-0.615 0.771-1.508 0.658-2.657l-5.233-50.904c-0.51-4.965-9.21-7.452-13.754-7.678-13.919-0.697-28.468-7.771-32.594-9.923l-44.72-23.31c-8.234-4.292-31.898-9.57-42.915-9.57h-93.247c-8.539 0-25.497 6.646-33.421 11.221l-46.145 26.64c-13.31 7.685-28.005 12.091-40.32 12.091-38.088 0-83.492 6.067-83.492 34.967 0 6.715 2.625 22.334 26.93 22.334h13.213l1.045 10.982c1.06 11.149 10.322 19.556 21.542 19.556s20.481-8.407 21.542-19.556l1.046-10.982h-3e-3z" fill="#000000"></path>
</svg>