<?xml version='1.0' encoding='utf-8'?>
<!-- Generator: Adobe Illustrator 16.0.0, SVG Export Plug-In . SVG Version: 6.00 Build 0)  --><svg xmlns="http://www.w3.org/2000/svg" xmlns:cc="http://creativecommons.org/ns#" xmlns:dc="http://purl.org/dc/elements/1.1/" xmlns:ns="&amp;ns_sfw;" xmlns:rdf="http://www.w3.org/1999/02/22-rdf-syntax-ns#" width="742px" height="425.2px" enable-background="new 0 0 742 425.2" version="1.1" viewBox="0 0 742 425.2" xml:space="preserve">
<metadata>
	<ns:sfw>
		<ns:slices></ns:slices>
		<ns:sliceSourceBounds x="59.904" y="151.901" width="721.192" height="291.196" bottomLeftOrigin="true"></ns:sliceSourceBounds>
	</ns:sfw>
	<rdf:RDF>
		<cc:Work rdf:about="">
			<dc:format>image/svg+xml</dc:format>
			<dc:type rdf:resource="http://purl.org/dc/dcmitype/StillImage"></dc:type>
			<dc:title></dc:title>
		</cc:Work>
	</rdf:RDF>
	<ns:sfw>
		<ns:slices></ns:slices>
		<ns:sliceSourceBounds x="69.487" y="169.941" width="702.035" height="283.464" bottomLeftOrigin="true"></ns:sliceSourceBounds>
	</ns:sfw>
	<ns:sfw>
		<ns:slices></ns:slices>
		<ns:sliceSourceBounds x="69.711" y="169.945" width="702.029" height="283.459" bottomLeftOrigin="true"></ns:sliceSourceBounds>
	</ns:sfw>
</metadata>
<path d="M202.44,61.37v274.12h-50.231V228.02H70.441v107.47h-50.23V61.37h50.231v105.91h81.769V61.37H202.44z" fill="#000000"></path>
<path d="M232.81,61.37h50.229v274.12H232.81V61.37z" fill="#000000"></path>
<path d="m511.98 335.48h-33.876l-11.391-25.695c-12.556 17.133-32.414 30.369-59.866 30.369-55.778 0-103.96-56.848-103.96-141.73 0-77.873 44.68-141.73 108.64-141.73 50.231 0 86.735 33.875 100.46 90.333h-54.026c-10.806-19.08-27.45-28.034-46.434-28.034-31.539 0-56.07 29.591-56.07 77.874 0 52.565 26.868 82.545 57.237 82.545 21.319 0 39.134-8.955 50.231-26.866v-16.741h-58.407v-56.07h107.47v155.75h4e-3l-0.012-6e-3z" fill="#000000"></path>
<path d="M722.24,61.37v274.12h-50.229V228.02h-81.77v107.47h-50.23V61.37h50.23v105.91h81.77V61.37H722.24z" fill="#000000"></path>
</svg>