<?xml version='1.0' encoding='utf-8'?>
<!-- Generator: Adobe Illustrator 16.0.0, SVG Export Plug-In . SVG Version: 6.00 Build 0)  --><svg xmlns="http://www.w3.org/2000/svg" xmlns:cc="http://creativecommons.org/ns#" xmlns:dc="http://purl.org/dc/elements/1.1/" xmlns:ns="&amp;ns_sfw;" xmlns:rdf="http://www.w3.org/1999/02/22-rdf-syntax-ns#" width="463px" height="434px" enable-background="new 0 0 463 434" version="1.1" viewBox="0 0 463 434" xml:space="preserve">
<metadata>
	<ns:sfw>
		<ns:slices></ns:slices>
		<ns:sliceSourceBounds x="215.233" y="149.92" width="408.051" height="301.969" bottomLeftOrigin="true"></ns:sliceSourceBounds>
	</ns:sfw>
<rdf:RDF><cc:Work rdf:about=""><dc:format>image/svg+xml</dc:format><dc:type rdf:resource="http://purl.org/dc/dcmitype/StillImage"></dc:type><dc:title></dc:title></cc:Work></rdf:RDF></metadata>
	<path d="m207.54 338.65c-14.571 6.856-32.647 10.284-54.221 10.284-17.146 0-33.4-1.961-48.757-5.893-15.36-3.928-28.825-9.18-40.398-15.752-11.573-6.57-20.789-14.178-27.646-22.824-6.858-8.645-10.287-17.682-10.287-27.111 0-8.854 2.25-16.534 6.75-23.036 4.501-6.5 10.894-12.754 19.181-18.754l12.859 11.786c-5.287 3.146-9.396 6.75-12.323 10.822-2.93 4.072-4.394 8.396-4.394 12.967 0 5.002 2.282 9.965 6.856 14.896 4.571 4.93 10.786 9.322 18.646 13.182 7.854 3.857 17.069 6.965 27.646 9.322 10.572 2.356 21.86 3.537 33.862 3.537 13.716 0 25.825-0.822 36.326-2.465 10.501-1.644 19.68-4.32 27.54-8.037l-6.216-25.935 58.509 33.222-34.505 55.721-9.428-25.932zm86.155-91.299c-9.002 0-18.79 0.107-29.359 0.322-10.575 0.215-21.434 0.322-32.576 0.322-11.573 0-23.075-0.144-34.506-0.431-11.432-0.284-22.396-0.891-32.896-1.821-10.501-0.929-20.29-2.213-29.361-3.857-9.075-1.641-16.967-3.75-23.682-6.319-6-1.57-10.752-3.285-14.252-5.146-3.502-1.854-6.146-3.928-7.932-6.215-1.786-2.285-2.93-4.822-3.429-7.609-0.502-2.785-0.75-5.893-0.75-9.319 0-8.146 0.284-16.397 0.857-24.756 0.567-8.357 1.317-16.608 2.25-24.752 0.928-8.145 1.962-16.037 3.105-23.683 1.144-7.642 2.213-14.751 3.215-21.325 0.569-3.857 1.68-7.213 3.322-10.073 1.643-2.856 3.893-5.357 6.751-7.501 2.856-2.143 6.463-4.035 10.823-5.679 4.355-1.641 9.606-3.248 15.752-4.822 5.572-2.144 13.396-4.179 23.468-6.108 10.073-1.929 21.25-3.713 33.54-5.357 12.286-1.641 25.184-3.108 38.686-4.394s26.538-2.391 39.112-3.322c12.569-0.927 24.181-1.641 34.824-2.143 10.645-0.499 19.184-0.75 25.61-0.75 6.858 0 12.785 0.251 17.788 0.75 5 0.502 9.464 1.607 13.395 3.322 3.931 1.714 7.467 4.179 10.609 7.394 3.141 3.215 6.285 7.468 9.43 12.752 3.143 6 5.681 12.966 7.607 20.896 1.93 7.93 3.5 16.646 4.716 26.146 1.212 9.503 2.145 19.717 2.786 30.646 0.642 10.931 1.249 22.396 1.821 34.397 0.998 8.143 3 14.645 6.001 19.502 3 4.859 6.429 8.861 10.287 12.002 3.855 3.146 7.893 5.68 12.106 7.607 4.213 1.93 8.037 3.965 11.466 6.106l-53.793 61.724-22.073-22.074c-7.858-9.431-15.322-16.787-22.396-22.074-7.072-5.283-14.61-8.713-22.61-10.287l-19.712-4.071zm-120.66-24.217c6.57 0.428 13.609 0.787 21.11 1.072 7.501 0.287 15.107 0.502 22.825 0.643 7.715 0.146 15.354 0.215 22.932 0.215h21.003c18.145 0 34.218-0.354 48.223-1.071 14-0.713 25.751-2.105 35.255-4.181 9.5-2.067 16.68-5.034 21.538-8.895 4.854-3.857 7.287-8.926 7.287-15.215 0-11.573-0.573-22.001-1.717-31.29-1.146-9.286-2.287-18.432-3.429-27.432-1.574-12.571-3.252-22.252-5.037-29.041-1.788-6.785-4.179-11.75-7.18-14.895-3-3.141-6.824-4.962-11.465-5.465-4.646-0.499-10.471-0.75-17.469-0.75-8.717 0-18.432 0.214-29.146 0.643-10.715 0.429-21.859 1.001-33.433 1.715-11.573 0.716-23.29 1.644-35.147 2.786-11.861 1.145-23.327 2.394-34.397 3.75-11.074 1.359-21.432 2.823-31.076 4.393-9.644 1.574-18.074 3.289-25.287 5.144-7.218 1.859-12.896 3.75-17.038 5.68-4.146 1.929-6.217 3.965-6.217 6.108-2.002 12.574-3.608 26.682-4.82 42.327-1.215 15.646-2.396 31.61-3.536 47.899 0 0.717 0.75 1.965 2.25 3.75 1.5 1.786 4.571 3.571 9.215 5.356 4.641 1.789 11.322 3.359 20.039 4.715 8.711 1.364 20.284 2.039 34.717 2.039z" fill="#000000"></path>
</svg>