<?xml version='1.0' encoding='utf-8'?>
<!-- Generator: Adobe Illustrator 22.1.0, SVG Export Plug-In . SVG Version: 6.00 Build 0)  --><svg xmlns="http://www.w3.org/2000/svg" xmlns:cc="http://creativecommons.org/ns#" xmlns:rdf="http://www.w3.org/1999/02/22-rdf-syntax-ns#" xmlns:dc="http://purl.org/dc/elements/1.1/" version="1.2" viewBox="0 0 329.6 425.2" xml:space="preserve" width="310.06586" height="400.0"><metadata><rdf:RDF><cc:Work rdf:about=""><dc:format>image/svg+xml</dc:format><dc:type rdf:resource="http://purl.org/dc/dcmitype/StillImage"></dc:type><dc:title></dc:title></cc:Work></rdf:RDF></metadata>
	<path d="m14.2 314.4h13.3v-248.7c0-4.9 4-9 9-9h134.2c5 0 9 4 9 9v97c10.1 1.3 17.9 5 23.7 10.5 8.2 7.8 11.9 18.8 11.9 31.6v61.6c0 12.4 6.2 20.3 14.1 23.7 3.2 1.3 6.6 2 10 2s6.8-0.7 10-2c7.8-3.4 14-11.2 14-23.7v-88.4c-21.1-3.6-37.2-21.9-37.2-44v-39h18.7v-38.3h13v38.2h26v-38.2h13v38.2h18.7v39c0 22.1-16.1 40.5-37.2 44v88.4c0 19.5-10.1 32-23.1 37.5-5 2.1-10.4 3.2-15.8 3.2s-10.8-1.1-15.8-3.2c-13.1-5.6-23.3-18.1-23.3-37.5v-61.6c0-8.8-2.2-16-7.2-20.8-3.1-3-7.6-5.1-13.4-6.2v136.5h13.2v25.8h-178.8v-25.6zm31.2-152h116.3v-87.7h-116.3v87.7z" fill="#51F093"></path>
</svg>