<?xml version='1.0' encoding='utf-8'?>
<!-- Generator: Adobe Illustrator 16.0.3, SVG Export Plug-In . SVG Version: 6.00 Build 0)  --><svg xmlns="http://www.w3.org/2000/svg" xmlns:cc="http://creativecommons.org/ns#" xmlns:dc="http://purl.org/dc/elements/1.1/" xmlns:rdf="http://www.w3.org/1999/02/22-rdf-syntax-ns#" width="425.15px" height="425.2px" version="1.2" viewBox="0 0 425.15 425.2" xml:space="preserve"><metadata><rdf:RDF><cc:Work rdf:about=""><dc:format>image/svg+xml</dc:format><dc:type rdf:resource="http://purl.org/dc/dcmitype/StillImage"></dc:type><dc:title></dc:title></cc:Work></rdf:RDF></metadata>
	<path d="m232.27 320.61c0 10.882-8.82 19.7-19.688 19.7-10.879 0-19.701-8.818-19.701-19.7 0-10.88 8.822-19.699 19.701-19.699 10.867 0 19.688 8.82 19.688 19.699z" fill="#000000"></path>
	<path d="m387.11 169.93-11.932-11.931c-89.704-89.697-235.6-89.772-325.21-0.164l-11.932 11.931-23.861-23.865 11.932-11.931c49.744-49.739 115.92-77.129 186.32-77.129h0.087c70.456 0.022 136.7 27.473 186.52 77.293l11.933 11.931-23.863 23.865z" fill="#000000"></path>
	<path d="m333.41 223.64-11.933-11.931c-60.078-60.072-157.79-60.122-217.81-0.112l-11.933 11.931-23.861-23.865 11.932-11.931c73.176-73.164 192.29-73.116 265.53 0.113l11.932 11.931-23.86 23.864z" fill="#000000"></path>
	<path d="m278.71 278.33-11.934-11.93c-29.903-29.898-78.539-29.924-108.41-0.059l-11.933 11.931-23.859-23.866 11.933-11.931c43.031-43.019 113.07-42.991 156.13 0.059l11.934 11.93-23.862 23.866z" fill="#000000"></path>
</svg>