<?xml version='1.0' encoding='utf-8'?>
<!-- Generator: Adobe Illustrator 16.0.0, SVG Export Plug-In . SVG Version: 6.00 Build 0)  --><svg xmlns="http://www.w3.org/2000/svg" xmlns:cc="http://creativecommons.org/ns#" xmlns:ns="&amp;ns_sfw;" xmlns:rdf="http://www.w3.org/1999/02/22-rdf-syntax-ns#" xmlns:dc="http://purl.org/dc/elements/1.1/" width="451px" height="304px" enable-background="new 0 0 451 304" version="1.1" viewBox="0 0 451 304" xml:space="preserve">
<metadata>
	<ns:sfw>
		<ns:slices></ns:slices>
		<ns:sliceSourceBounds x="217.427" y="190.961" width="406.146" height="213.077" bottomLeftOrigin="true"></ns:sliceSourceBounds>
	</ns:sfw>
<rdf:RDF><cc:Work rdf:about=""><dc:format>image/svg+xml</dc:format><dc:type rdf:resource="http://purl.org/dc/dcmitype/StillImage"></dc:type><dc:title></dc:title></cc:Work></rdf:RDF></metadata>
	<path d="m22.427 164.39v-24.777h74.141v24.779h-74.141v-2e-3zm13.341-98.725 6.861-20.202 73.948 26.873c-3.43 2.287-11.054 18.934-11.054 20.202l-69.755-26.873zm6.862 192.88-6.861-22.49 69.757-24.586s3.049 7.117 4.953 10.293c1.906 3.178 3.938 6.416 6.101 9.721l-73.95 27.062zm109.97-177.25c7.242 2.287 13.977 5.717 20.202 10.292 6.226 4.574 11.688 9.943 16.393 16.105 4.697 6.163 8.386 12.93 11.054 20.297 2.668 7.369 4.002 15.057 4.002 23.061 0 8.387-1.334 16.295-4.002 23.729s-6.355 14.17-11.054 20.203c-4.702 6.037-10.167 11.215-16.393 15.533-6.227 4.32-12.96 7.561-20.202 9.721-3.431 1.27-6.513 1.557-9.242 0.855-2.734-0.695-5.213-1.777-7.435-3.238-2.225-1.459-4.002-3.24-5.336-5.336-1.334-2.098-2.257-3.971-2.763-5.623-2.162-9.021-4.193-18.074-6.101-27.158-1.904-9.084-2.857-18.646-2.857-28.686 0-10.416 0.953-20.104 2.857-29.063 1.906-8.957 3.938-18.01 6.101-27.158 0.506-1.906 1.429-3.842 2.763-5.813 1.334-1.969 3.112-3.717 5.336-5.241 2.222-1.525 4.699-2.603 7.435-3.24 2.729-0.637 5.811-0.383 9.242 0.76zm-4.573 112.26c0 1.02 0.57 1.904 1.715 2.668 1.143 0.764 2.857 0.572 5.146-0.57 7.876-4.574 14.294-10.643 19.249-18.201 4.956-7.561 7.435-16.359 7.435-26.396 0-4.573-0.639-9.084-1.906-13.53-1.271-4.447-3.115-8.607-5.527-12.484-2.415-3.873-5.272-7.433-8.576-10.672-3.306-3.24-6.859-5.938-10.673-8.101-1.523-1.015-2.796-1.238-3.812-0.666-1.021 0.571-1.781 1.144-2.287 1.715-0.509 0.572-0.762 0.923-0.762 1.048-2.162 6.608-3.465 13.374-3.907 20.297-0.447 6.926-0.667 14.389-0.667 22.395 0 7.879 0.22 15.217 0.667 22.014 0.44 6.793 1.743 13.622 3.905 20.483zm150.37-112.26c3.303-1.144 6.352-1.396 9.146-0.763 2.793 0.638 5.207 1.715 7.242 3.239 2.031 1.525 3.779 3.273 5.24 5.242 1.459 1.971 2.508 3.906 3.145 5.813 2.287 9.148 3.973 18.201 5.053 27.158 1.078 8.959 1.621 18.647 1.621 29.063 0 10.04-0.543 19.602-1.621 28.686-1.08 9.084-2.766 18.139-5.053 27.156-0.637 1.654-1.686 3.527-3.145 5.623-1.461 2.098-3.209 3.877-5.24 5.336-2.035 1.463-4.449 2.545-7.242 3.24-2.797 0.699-5.846 0.414-9.146-0.855-7.371-2.16-14.232-5.4-20.584-9.723-6.355-4.316-11.816-9.496-16.393-15.531-4.572-6.033-8.166-12.77-10.768-20.203-2.605-7.434-3.908-15.342-3.908-23.729 0-8.004 1.303-15.688 3.908-23.061 2.602-7.367 6.193-14.134 10.768-20.298 4.574-6.162 10.035-11.531 16.393-16.105 6.352-4.57 13.213-8.001 20.584-10.288zm4.574 112.26c1.016-6.861 1.969-13.689 2.857-20.488 0.889-6.795 1.334-14.135 1.334-22.014 0-8.004-0.445-15.467-1.334-22.395-0.891-6.924-1.844-13.688-2.857-20.296 0-0.125-0.258-0.477-0.764-1.049-0.51-0.571-1.271-1.144-2.287-1.715-1.02-0.571-2.225-0.348-3.621 0.668-4.066 2.162-7.752 4.859-11.055 8.1-3.305 3.24-6.164 6.798-8.576 10.673-2.416 3.877-4.289 8.037-5.623 12.482-1.334 4.448-2 8.959-2 13.53 0 10.039 2.572 18.839 7.721 26.396 5.145 7.561 11.652 13.627 19.533 18.201 2.158 1.145 3.813 1.334 4.955 0.57 1.143-0.759 1.717-1.646 1.717-2.663zm112.26-127.88-69.754 26.873c0-1.269-3.211-9.306-5.053-12.293-1.844-2.983-3.973-5.623-6.385-7.909l74.328-26.873 6.864 20.202zm-6.863 192.88-74.328-27.063c2.412-3.307 4.541-6.543 6.385-9.723 1.842-3.176 5.053-10.293 5.053-10.293l69.754 24.586-6.864 22.493zm20.205-94.15h-76.426v-24.777h76.426v24.777z" fill="#51F093"></path>
</svg>