<?xml version='1.0' encoding='utf-8'?>
<!-- Generator: Adobe Illustrator 16.0.0, SVG Export Plug-In . SVG Version: 6.00 Build 0)  --><svg xmlns="http://www.w3.org/2000/svg" xmlns:cc="http://creativecommons.org/ns#" xmlns:ns="&amp;ns_sfw;" xmlns:rdf="http://www.w3.org/1999/02/22-rdf-syntax-ns#" xmlns:dc="http://purl.org/dc/elements/1.1/" width="477px" height="431px" enable-background="new 0 0 477 431" version="1.1" viewBox="0 0 477 431" xml:space="preserve">
<metadata>
	<ns:sfw>
		<ns:slices></ns:slices>
		<ns:sliceSourceBounds x="215.526" y="132.18" width="409.898" height="342.188" bottomLeftOrigin="true"></ns:sliceSourceBounds>
	</ns:sfw>
<rdf:RDF><cc:Work rdf:about=""><dc:format>image/svg+xml</dc:format><dc:type rdf:resource="http://purl.org/dc/dcmitype/StillImage"></dc:type><dc:title></dc:title></cc:Work></rdf:RDF></metadata>
	<path d="m443.42 180.36-111.71 175.01-10.139-3.634c-11.477-4.082-23.019-7.271-34.619-9.563-11.604-2.295-23.209-3.889-34.813-4.78v29.839c0 3.695-1.339 6.886-4.017 9.563-2.68 2.677-5.866 4.019-9.563 4.019-3.7 0-6.919-1.34-9.658-4.019-2.744-2.678-4.112-5.866-4.112-9.563v-29.84c-11.604 0.64-23.145 2.198-34.62 4.687-11.477 2.486-23.02 5.705-34.62 9.659l-10.521 3.634-111.51-175.02 14.347-6.503c28.181-13.133 57.028-23.239 86.551-30.316 29.52-7.077 59.645-11.061 90.376-11.955v-13.771c-0.129-0.383-0.19-0.827-0.19-1.338 0-7.011-1.31-13.58-3.921-19.701-2.615-6.121-6.188-11.444-10.711-15.972-4.528-4.524-9.852-8.096-15.972-10.711-6.12-2.612-12.689-3.921-19.7-3.921-7.016 0-13.581 1.309-19.701 3.921-6.121 2.615-11.445 6.187-15.972 10.711-4.527 4.528-8.099 9.851-10.711 15.972-2.616 6.12-3.922 12.688-3.922 19.7 0 3.7-1.404 6.886-4.208 9.564-2.808 2.679-6.059 4.017-9.755 4.017-3.7 0-6.887-1.338-9.563-4.017-2.679-2.678-4.018-5.864-4.018-9.564 0-10.711 2.038-20.783 6.121-30.221 4.08-9.436 9.659-17.693 16.735-24.77 7.077-7.077 15.332-12.654 24.771-16.736 9.436-4.08 19.511-6.121 30.222-6.121 13.389 0 25.659 3.06 36.819 9.181 11.157 6.121 20.306 14.345 27.447 24.674 3.443-5.099 7.489-9.722 12.146-13.867 4.651-4.142 9.688-7.713 15.108-10.711 5.419-2.994 11.222-5.29 17.406-6.886 6.186-1.593 12.591-2.391 19.223-2.391 10.839 0 20.977 2.041 30.413 6.121 9.437 4.083 17.692 9.659 24.771 16.736 7.078 7.077 12.653 15.334 16.736 24.77 4.077 9.438 6.119 19.51 6.119 30.221 0 3.7-1.339 6.886-4.018 9.564-2.678 2.679-5.929 4.017-9.755 4.017-3.699 0-6.886-1.338-9.563-4.017-2.677-2.678-4.017-5.864-4.017-9.564 0-7.011-1.339-13.58-4.018-19.701s-6.313-11.444-10.901-15.972c-4.591-4.524-9.946-8.096-16.067-10.711-6.12-2.612-12.688-3.921-19.701-3.921-6.886 0-13.389 1.309-19.51 3.921-6.12 2.615-11.477 6.187-16.064 10.711-4.593 4.528-8.195 9.851-10.81 15.972-2.614 6.121-3.921 12.689-3.921 19.701v15.111c30.858 0.894 61.019 4.877 90.473 11.955 29.457 7.078 58.4 17.185 86.84 30.315l13.964 6.503zm-312.92 91.046c4.716 0 9.085-0.923 13.104-2.773 4.018-1.847 7.364-4.429 10.042-7.746l5.931-7.269 5.165 8.033c2.167 3.315 5.098 5.963 8.798 7.938 3.696 1.979 7.714 2.965 12.05 2.965 4.208 0 8.159-0.984 11.858-2.965 3.697-1.976 6.63-4.621 8.799-7.938l6.121-9.563 5.547 9.755c1.913 3.317 4.59 5.807 8.032 7.46-0.765-1.528-1.146-3.123-1.146-4.78v-105.39c-26.143 0.895-51.772 4.178-76.893 9.852-25.123 5.676-49.86 13.613-74.215 23.813 1.913 2.936 4.687 7.206 8.32 12.816s7.681 11.954 12.146 19.029c4.462 7.077 9.243 14.604 14.346 22.57 5.1 7.971 10.072 15.846 14.92 23.622 0.765 0.128 1.529 0.224 2.295 0.287 0.765 0.065 1.529 0.096 2.295 0.096l2.485 0.192zm189.55 51.835c1.399-2.549 4.304-7.298 8.703-14.249 4.396-6.949 9.593-15.016 15.588-24.196-4.85-0.383-9.469-1.53-13.867-3.441-4.399-1.912-8.448-4.398-12.146-7.459-3.569 3.697-7.556 6.728-11.952 9.085-4.399 2.359-9.277 3.537-14.635 3.537-5.354 0-10.329-1.146-14.919-3.441-4.591-2.295-8.545-5.29-11.857-8.989-3.954 3.317-8.26 6.091-12.911 8.32-4.656 2.23-9.597 3.347-14.823 3.347-5.354 0-10.17-1.019-14.44-3.061-4.273-2.038-7.875-4.718-10.808-8.033-3.57 3.316-7.555 6.121-11.955 8.416-4.398 2.296-9.214 3.441-14.44 3.441-5.483 0-10.458-1.178-14.919-3.537-4.465-2.357-8.544-5.388-12.24-9.085-3.572 3.061-7.525 5.547-11.859 7.459-4.336 1.911-9.055 3.061-14.153 3.441 6.121 9.183 11.349 17.247 15.685 24.196 4.333 6.951 7.331 11.7 8.989 14.249 13.645-4.208 27.19-7.489 40.646-9.853 13.452-2.355 27.064-3.537 40.837-3.537 13.517 0 27.096 1.182 40.741 3.537 13.636 2.363 27.217 5.645 40.735 9.853zm33.282-52.409c4.974-7.776 9.977-15.651 15.016-23.622 5.036-7.968 9.785-15.493 14.25-22.57 4.462-7.075 8.512-13.419 12.146-19.029 3.637-5.61 6.408-9.882 8.32-12.816-24.229-10.2-48.936-18.138-74.118-23.813-25.185-5.672-50.782-8.957-76.796-9.851v105.39 1.722c0 0.512-0.128 1.085-0.382 1.722 2.803-1.53 5.418-3.825 7.842-6.886l5.932-7.651 5.354 8.227c2.167 3.315 5.003 5.963 8.512 7.938 3.506 1.979 7.618 2.965 12.337 2.965 4.208 0 8.159-0.984 11.859-2.965 3.696-1.976 6.628-4.621 8.798-7.938l4.976-8.033 5.929 7.269c2.55 3.317 5.896 5.899 10.042 7.746 4.143 1.853 8.512 2.773 13.103 2.773 2.414-7e-3 4.709-0.198 6.88-0.581z" fill="#FFCE63"></path>
</svg>