<?xml version='1.0' encoding='utf-8'?>
<!-- Generator: Adobe Illustrator 16.0.3, SVG Export Plug-In . SVG Version: 6.00 Build 0)  --><svg xmlns="http://www.w3.org/2000/svg" xmlns:cc="http://creativecommons.org/ns#" xmlns:dc="http://purl.org/dc/elements/1.1/" xmlns:rdf="http://www.w3.org/1999/02/22-rdf-syntax-ns#" width="315.37px" height="425.2px" version="1.2" viewBox="0 0 315.37 425.2" xml:space="preserve"><metadata><rdf:RDF><cc:Work rdf:about=""><dc:format>image/svg+xml</dc:format><dc:type rdf:resource="http://purl.org/dc/dcmitype/StillImage"></dc:type><dc:title></dc:title></cc:Work></rdf:RDF></metadata>
<path d="m102.44 297.86h-88.27v-241.17h195.6v143.31h-162.77v12.989h91.159v19.926h71.613v58.721h-32.315v-39.551l-75.018 45.776zm74.813-201.81h-130.25v12.989h130.25v-12.989zm-45.585 52.153h-84.667v12.989h84.667v-12.989zm-26.076 104.11h-58.59v12.989h58.59v-12.989z" fill="#000000"></path>
<path d="m245.72 317.72h-75.009v22.441l-46.322-32.096 46.322-32.101v22.442h75.009c19.938 0 36.154-16.211 36.154-36.141 0-19.933-16.216-36.137-36.154-36.137h-87.768v-19.314h87.768c30.592 0 55.473 24.867 55.473 55.453-1e-3 30.577-24.882 55.453-55.473 55.453z" fill="#000000"></path>
</svg>