<?xml version='1.0' encoding='utf-8'?>
<!-- Generator: Adobe Illustrator 27.2.0, SVG Export Plug-In . SVG Version: 6.00 Build 0)  --><svg xmlns="http://www.w3.org/2000/svg" xmlns:xlink="http://www.w3.org/1999/xlink" version="1.2" baseProfile="tiny" id="Vrstva_1" x="0px" y="0px" viewBox="0 0 400 425.2" overflow="visible" xml:space="preserve" width="376.2935" height="400.0">
<path d="M51.9,211.1v41.1h62.6v29.3H19.7V115.3h92.9v29.3H51.9v39.1h54.7v27.4L51.9,211.1L51.9,211.1z" fill="#FFCE63"></path>
<path d="M341.2,283.5c-15.6,0-28.3-3.9-39.1-10.8c-10.8-7.8-19.5-17.6-25.4-30.3s-8.8-27.4-8.8-44s2.9-31.3,8.8-44  c5.9-12.7,14.7-23.5,25.4-30.3c11.7-7.8,25.4-10.8,41.1-10.8c12.7,0,25.4,2.9,37.1,8.8l-5.9,29.3c-3.9-2.9-8.8-4.9-13.7-5.9  c-4.9-1-10.8-2-16.6-2c-12.7,0-23.5,4.9-30.3,14.7c-6.8,9.8-9.8,23.5-9.8,40.1s2.9,30.3,9.8,40.1c6.8,9.8,16.6,14.7,29.3,14.7  c5.9,0,11.7-1,16.6-2c4.9-1,9.8-2.9,14.7-5.9l4.9,28.3C367.6,280.5,355.9,283.5,341.2,283.5z" fill="#FFCE63"></path>
<path d="M204.4,115.3c10.8,0,20.5,2,28.3,6.8s13.7,10.8,17.6,19.5c3.9,7.8,5.9,17.6,5.9,27.4s-2,19.5-5.9,27.4  c-3.9,7.8-9.8,14.7-17.6,19.5c-7.8,4.9-17.6,6.8-28.3,6.8h-22.5v57.7h-32.3V115.3H204.4z M200.5,195.5c7.8,0,12.7-2,16.6-6.8  c3.9-4.9,5.9-10.8,5.9-19.5c0-7.8-2-14.7-5.9-18.6c-3.9-4.9-8.8-6.8-16.6-6.8h-18.6v51.8L200.5,195.5L200.5,195.5z" fill="#FFCE63"></path>
<path d="M51.9,211.1v41.1h62.6v29.3H19.7V115.3h92.9v29.3H51.9v39.1h54.7v27.4L51.9,211.1L51.9,211.1z" fill="#FFCE63"></path>
</svg>