<?xml version='1.0' encoding='utf-8'?>
<!-- Generator: Adobe Illustrator 16.0.3, SVG Export Plug-In . SVG Version: 6.00 Build 0)  --><svg xmlns="http://www.w3.org/2000/svg" xmlns:cc="http://creativecommons.org/ns#" xmlns:dc="http://purl.org/dc/elements/1.1/" xmlns:rdf="http://www.w3.org/1999/02/22-rdf-syntax-ns#" width="507.34px" height="425.2px" enable-background="new 0 0 507.345 425.197" version="1.1" viewBox="0 0 507.34 425.2" xml:space="preserve"><metadata><rdf:RDF><cc:Work rdf:about=""><dc:format>image/svg+xml</dc:format><dc:type rdf:resource="http://purl.org/dc/dcmitype/StillImage"></dc:type><dc:title></dc:title></cc:Work></rdf:RDF></metadata>
<path d="m490.75 259.22c-0.323-1.425-0.765-3.526-1.293-6.036-6.645-31.563-9.146-38.788-14.866-42.949-3.673-2.669-8.982-4.01-25.218-7.841-9.909-2.339-21.14-4.99-28.129-7.442-9.022-3.166-28.695-13.048-46.053-21.767-21.429-10.763-33.854-16.936-40.031-18.653-0.181-0.05-0.384-0.097-0.572-0.146-2.101 7.532-3.638 15.549-4.776 25.036 5.884 2.261 21.971 10.342 34.014 16.391 18.917 9.503 38.48 19.33 49.034 23.033 8.252 2.896 20.176 5.709 30.697 8.193 4.746 1.121 10.769 2.541 14.513 3.573 2.222 6.949 5.436 22.216 6.607 27.789 0.564 2.672 1.037 4.913 1.382 6.434 1.711 7.517 1.904 11.917 1.732 14.352-0.095 1.381-1.5 2.836-2.926 3.014-1.261 0.159-3.07 0.279-5.66 0.279h-34.826v2.226c0 16.612-13.517 30.13-30.13 30.13-16.612 0-30.13-13.518-30.13-30.13v-2.226h-226.94v2.226c0 16.612-13.516 30.13-30.129 30.13s-30.13-13.518-30.13-30.13v-2.191h-35.688c-0.817 0-1.577-1.482-1.629-2.325-0.459-7.435 0.796-19.742 6.347-26.679 0.949-0.893 8.925-7.189 52.183-15.924 23.917-4.829 46.351-7.878 46.575-7.908l3.991-0.54 38.307-35.701c4.422-4.12 19.675-17.288 34.529-18.052 0.861-8.995 1.958-17.371 3.346-25.361-0.713 1e-3 -1.392 2e-3 -2.01 2e-3 -23.847 0-45.098 17.403-53.128 24.886l-32.448 30.236c-7.853 1.139-26.079 3.921-45.471 7.877-48.18 9.83-60.12 17.856-65.445 24.41-13.35 16.43-13.635 41.383-10.679 53.249 1.802 7.237 5.301 12 10.4 14.157 6.147 2.603 14.367 3.125 19.999 3.125 2.432 0 4.382-0.098 5.474-0.168h5.082c8.777 19.075 28.058 32.355 50.393 32.355s41.615-13.28 50.393-32.355h186.42c8.777 19.075 28.057 32.355 50.392 32.355 22.336 0 41.614-13.28 50.393-32.355h14.563c6.409 0 19.743 0 27.92-10.243 6.644-8.323 7.762-20.145 3.626-38.336z" fill="#000000"></path>
<path d="m336.39 129.19-13.148-72.498-70.375 23.719 21.66 12.649c-17.219 36.221-23.11 63.435-25.245 112.24l48.65 2.128c1.864-42.621 6.81-63.732 18.801-89.724l19.657 11.481z" clip-rule="evenodd" fill-rule="evenodd" fill="#000000"></path>
</svg>