<?xml version='1.0' encoding='utf-8'?>
<!-- Generator: Adobe Illustrator 16.0.0, SVG Export Plug-In . SVG Version: 6.00 Build 0)  --><svg xmlns="http://www.w3.org/2000/svg" xmlns:cc="http://creativecommons.org/ns#" xmlns:dc="http://purl.org/dc/elements/1.1/" xmlns:rdf="http://www.w3.org/1999/02/22-rdf-syntax-ns#" width="393px" height="425.2px" version="1.2" viewBox="102.14 208.35 393 425.2" xml:space="preserve"><metadata><rdf:RDF><cc:Work rdf:about=""><dc:format>image/svg+xml</dc:format><dc:type rdf:resource="http://purl.org/dc/dcmitype/StillImage"></dc:type><dc:title></dc:title></cc:Work></rdf:RDF></metadata>
<path d="m439.81 568.16h-283.46c-18.388 0-33.347-14.959-33.347-33.348v-226.77c0-18.388 14.959-33.347 33.347-33.347h283.46c18.387 0 33.348 14.959 33.348 33.347l-2e-3 226.77c0 18.388-14.959 33.347-33.346 33.347zm-283.46-283.46c-12.874 0-23.347 10.474-23.347 23.347v226.77c0 12.873 10.474 23.348 23.347 23.348h283.46c12.873 0 23.346-10.475 23.346-23.348l2e-3 -226.77c0-12.874-10.475-23.347-23.348-23.347h-283.46z" fill="#000000"></path>
<path d="m453.39 377.59h-72.175l-21.243-62.8h-126.54l-20.779 62.8h-71.078v68.423h48.438l-26.567 80.296h268.07l-27.162-80.296h49.032v-68.423h5e-3zm-162.16-47.803h12.496v41.554h-12.496v-41.554zm-1.875 62.174h16.246v45.303h-16.246v-45.303zm17.966 122.48h-19.685v-55.301h19.685v55.301z" fill="#000000"></path>
</svg>