<?xml version='1.0' encoding='utf-8'?>
<!-- Generator: Adobe Illustrator 26.0.1, SVG Export Plug-In . SVG Version: 6.00 Build 0)  --><svg xmlns="http://www.w3.org/2000/svg" xmlns:xlink="http://www.w3.org/1999/xlink" version="1.1" id="Vrstva_2" x="0px" y="0px" viewBox="0 0 419.5 425.2" style="enable-background:new 0 0 419.5 425.2;" xml:space="preserve" width="394.63782" height="400.0">
<path d="M136.2,71.8c17.2,0,182.2,0,193.1,0c32.9,0,43.2,20.4,36.4,41.5c-5.7,17.7-64.1,197.9-69.3,214.2  c-6.5,20.4-17.5,26.9-35.8,26.9s-191.8,0-203.4,0c-23.1,0-14.6,29,14.1,29c14.2,0,198,0,212.5,0s29.1-11.4,34.6-29.3l69.7-213.6  c16.2,7.4,20.6,20.7,14.7,40.7c-5.5,18.5-49.5,160.9-56,181.2c-9.5,29.6-24.9,48.6-55.4,48.6s-190.4,0-218.3,0  c-33.5,0-59-25.5-59-54.8c0-18.4,8.1-19.1,3-38c13-9.7,29.9-48.5,26.3-66.8c14.2-9.7,29.6-47.7,25.7-66.4  c15.7-8.4,29.1-44.1,24.8-64.5C110,111.3,114.9,71.8,136.2,71.8z M200.2,129.3c-8.2,28.4-2.1,76.4-13.2,113.2  c-2.7,8.8,5.7,9.8,9,0.9c13.8-37.9,47.7-78.9,55.1-108.7c4.5-18-4.5-31.1-21.3-31.1C215.6,103.6,205.9,109.8,200.2,129.3z   M177.3,267.6c-13.3,0-25,11.9-26,26.5c-1,14.6,9,26.5,22.3,26.5s25-11.9,26-26.5C200.7,279.4,190.7,267.6,177.3,267.6z"></path>
</svg>