<?xml version='1.0' encoding='utf-8'?>
<!-- Generator: Adobe Illustrator 16.0.0, SVG Export Plug-In . SVG Version: 6.00 Build 0)  --><svg xmlns="http://www.w3.org/2000/svg" xmlns:cc="http://creativecommons.org/ns#" xmlns:dc="http://purl.org/dc/elements/1.1/" xmlns:rdf="http://www.w3.org/1999/02/22-rdf-syntax-ns#" width="424px" height="425.2px" version="1.2" viewBox="0 0 424 425.2" xml:space="preserve"><metadata><rdf:RDF><cc:Work rdf:about=""><dc:format>image/svg+xml</dc:format><dc:type rdf:resource="http://purl.org/dc/dcmitype/StillImage"></dc:type><dc:title></dc:title></cc:Work></rdf:RDF></metadata><g fill="#1D1D1B">
<path d="m143.83 272.28c0.205-4.271 4.353-16.54 4.353-16.54s0.819-1.191 1.26-1.241c0.646-0.1 2.272 1.241 2.272 1.241s3.979 12.219 4.539 16.465c0.068 0.521 0.329 1.565 0.254 2.087-0.149 1.043-0.943 3.104-1.645 3.898-0.695 0.795-2.614 1.913-3.651 2.087-1.037 0.198-3.234-0.225-4.16-0.721-0.931-0.497-2.471-2.111-2.899-3.08-0.428-0.968-0.373-3.153-0.323-4.196z" fill="#000000"></path>
<path d="m241.83 230.41c-0.087 1.044-0.05 3.254 0.385 4.222 0.423 0.944 1.912 2.583 2.831 3.08 0.932 0.521 3.129 0.894 4.172 0.72 1.031-0.198 2.943-1.315 3.639-2.11 0.708-0.795 1.478-2.831 1.639-3.899 0.075-0.521-0.086-1.564-0.174-2.062-0.732-4.222-4.606-16.465-4.606-16.465s-1.564-1.409-2.21-1.328c-0.472 0.056-1.329 1.328-1.329 1.328s-3.999 12.242-4.347 16.514z" fill="#000000"></path>
<path d="m249.71 253.66s-1.626-1.391-2.272-1.291c-0.447 0.049-1.267 1.291-1.267 1.291s-3.948 12.293-4.346 16.54c-0.1 1.067-0.1 3.253 0.323 4.222 0.422 0.943 1.912 2.582 2.831 3.079 0.931 0.497 3.129 0.895 4.172 0.695 1.043-0.174 3.005-1.267 3.7-2.062 0.695-0.794 1.428-2.881 1.577-3.924 0.074-0.521-0.087-1.564-0.174-2.061-0.732-4.222-4.606-16.49-4.606-16.49" fill="#000000"></path>
<path d="m143.9 302.95c0.187-4.271 4.346-16.489 4.346-16.489s0.857-1.292 1.329-1.342c0.633-0.1 2.204 1.267 2.204 1.267s4.072 12.269 4.594 16.515c0.063 0.521 0.28 1.564 0.199 2.086-0.162 1.044-0.925 3.13-1.64 3.924-0.695 0.771-2.626 1.813-3.65 1.987-1.037 0.198-3.229-0.124-4.16-0.621-0.925-0.497-2.421-2.16-2.85-3.104-0.427-0.969-0.415-3.18-0.372-4.223z" fill="#000000"></path>
<path d="m188.9 299.87s-0.137 0.05-0.187 0.074c-1.043 0.199-3.253-0.248-4.166-0.795-0.894-0.521-2.297-2.21-2.645-3.203-0.354-0.993-0.367-3.203 0-4.197 0.36-0.993 2.707-3.203 2.707-3.203h29.254l4.967 3.327-29.999 7.997" fill="#000000"></path>
<path d="m225.77 296.59-3.911-2.632-19.73 5.265s-2.931 1.341-3.589 2.16c-0.664 0.819-1.416 2.905-1.391 3.974 0.024 1.043 0.875 3.079 1.583 3.85 0.702 0.77 2.682 1.738 3.713 1.887 0.975 0.125 2.968-0.372 3.843-0.819l19.482-13.685z" fill="#000000"></path>
<path d="m217.32 269.47 1.838 0.447 16.366 2.731-16.366-2.731-1.838-0.447h-42.473c-1.067 0.149-3.241 0.597-4.16 1.167-0.925 0.547-2.465 2.186-2.956 3.154-0.484 0.943-0.9 3.129-0.819 4.197 0.081 1.067 0.826 3.154 1.44 4.023 0.627 0.894 2.372 2.284 3.347 2.731 0.727 0.348 2.347 0.546 3.147 0.646h40.213l29.242 20.414s1.503 1.49 1.701 2.136c0.298 0.968 0.236 3.153-0.261 4.022-0.496 0.895-2.396 1.963-3.34 2.359-2.855 1.168-9.176 1.292-12.169 2.062-1.067 0.273-3.191 0.919-4.147 1.44-0.98 0.521-2.756 1.888-3.526 2.657-0.782 0.795-2.086 2.607-2.583 3.601-0.496 0.969-1.217 3.055-1.391 4.147-0.186 1.093-0.049 4.421-0.049 4.421s-0.013 0.05 0 0.074c0.348 0.77 1.787 1.888 2.57 2.186 0.111 0.025 0.434 0 0.434 0l18.465-3.203 4.408-0.895 4.296-1.143 4.271-1.365 4.173-1.564 3.638-1.664 14.516-6.929 42.777-19.743-19.296-33.452-18.639 10.653-2.77 1.316-4.283 1.143h-4.421l0.646 0.943s1.131 3.08 1.131 4.173c0 1.067-0.584 3.203-1.131 4.147-0.546 0.918-2.16 2.508-3.104 3.029s-3.067 1.043-4.147 1.043c-1.081 0-3.229-0.546-4.16-1.093-0.943-0.571-2.495-2.21-3.029-3.179-0.521-0.943-1.068-4.147-1.068-4.147l-0.062 0.124 0.062-0.124s-1.999 0.919-2.72 1.068c-1.067 0.248-3.253 0.422-4.346 0.323-1.105-0.125-3.29-0.721-4.283-1.192-0.981-0.472-2.782-1.813-3.539-2.608-0.745-0.77-1.962-2.656-2.385-3.65-0.435-0.993-1.018-4.271-1.018-4.271" fill="#000000"></path>
<path d="m214.31 238.56c-0.546-0.943-2.086-2.582-2.98-3.203s-4.036-1.664-4.036-1.664-0.472-0.05-0.627-0.05c-12.46-1.142-49.78-5.19-49.78-5.19s-1.148-2.483-1.956-2.632c-0.801-0.161-2.781 1.714-2.781 1.714l-0.124 0.422-2.074 19.098s1.149 2.508 1.956 2.657c0.795 0.148 2.77-1.714 2.77-1.714l0.13-0.422 49.719 5.786s3.266-0.1 4.296-0.447c1.031-0.348 2.918-1.515 3.713-2.26 0.782-0.745 2.062-2.583 2.446-3.601 0.397-1.019 0.671-3.254 0.571-4.347-0.075-1.067-0.709-3.202-1.243-4.147zm-59.199 5.812 1.396-12.641 49.78 5.314s1.366 0.224 1.776 0.447c0.931 0.472 2.669 1.813 3.216 2.707 0.534 0.919 0.807 4.172 0.807 4.172h-56.975z" fill="#000000"></path>
<path d="m409.98 358.8c-0.708-2.359-2.894-6.755-4.098-8.891-0.05-0.074-0.149-0.248-0.199-0.322-23.059-36.582-88.459-148.67-88.459-148.67l-55.27-92.7-20.376-34.185s-6.606-11.138-8.816-14.851c-0.671-1.13-2.036-3.409-2.707-4.533-0.298-0.491-0.906-1.471-1.192-1.968-0.099-0.174-0.26-0.527-0.372-0.689-1.503-2.08-4.719-6.246-6.879-7.618-1.912-1.211-6.383-2.596-8.643-2.596-2.248 0-6.724 1.385-8.63 2.596-2.161 1.372-5.296 5.594-6.867 7.618-0.056 0.068-0.136 0.236-0.186 0.311-23.084 36.599-88.615 148.68-88.615 148.68l-55.275 92.756-20.29 34.172s-6.668 11.175-8.891 14.9c-0.677 1.117-2.03 3.402-2.713 4.52-0.298 0.497-0.913 1.466-1.198 1.962-0.1 0.174-0.286 0.521-0.373 0.695-1.074 2.161-3.346 6.482-4.035 8.816-0.565 1.888-1.167 5.886-1.192 7.873-0.019 1.365 0.316 4.098 0.689 5.413 0.248 0.869 0.968 2.608 1.515 3.328 1.037 1.415 3.731 3.75 5.234 4.644 1.626 0.944 5.265 2.111 7.109 2.509 2.602 0.571 10.592 0.919 10.592 0.919h337.86 5.228 2.322c0.186 0 0.584 0.024 0.77 0 3.663-0.248 11.126-0.795 14.565-2.062 2.073-0.77 5.948-3.153 7.426-4.793 1.043-1.143 2.334-4.073 2.781-5.563 0.235-0.771 0.323-2.385 0.372-3.179 0.013-0.299 0.025-0.919 0-1.217-0.149-1.985-0.62-5.983-1.192-7.871zm-351.86-10.654 154.85-263.7 154.78 263.7h-309.63z" fill="#000000"></path>
<path d="m246.11 202.44-4.334-18.731s-1.838-1.98-2.645-1.881c-0.819 0.1-2.148 2.509-2.148 2.509l0.063 0.447-48.843 10.709s-3.062 1.167-3.912 1.832c-0.856 0.664-2.266 2.378-2.763 3.34-0.503 0.975-1.099 3.129-1.142 4.222s0.391 3.291 0.826 4.297c0.435 0.999 1.751 2.806 2.577 3.52 0.826 0.713 2.793 1.782 3.849 2.074 1.049 0.286 3.26 0.273 4.346 0.192 0.162-0.013 0.633-0.118 0.633-0.118l48.787-11.337s1.825 1.98 2.632 1.882c0.82-0.106 2.136-2.521 2.136-2.521l-0.062-0.436zm-18.824 0.938h-43.175s0.801-1.863 1.254-2.341c0.721-0.763 3.589-2.191 3.589-2.191l48.898-10.915 2.77 12.361-13.336 3.086z" fill="#000000"></path>
<polygon points="159.48 318.99 157.52 320.16 153.6 321.4 152.53 322.57 150.83 324.21 146.74 324.83 143.4 322.42 139.43 316.06 137.78 315.14 98.515 315.14 98.515 334.91 187.32 334.91 187.32 314.92 164.76 314.92 163.06 315.19 161.92 315.57 161.23 315.96 160.41 316.81" fill="#000000"></polygon>
</g></svg>