<?xml version='1.0' encoding='utf-8'?>
<!-- Generator: Adobe Illustrator 16.0.3, SVG Export Plug-In . SVG Version: 6.00 Build 0)  --><svg xmlns="http://www.w3.org/2000/svg" xmlns:cc="http://creativecommons.org/ns#" xmlns:dc="http://purl.org/dc/elements/1.1/" xmlns:rdf="http://www.w3.org/1999/02/22-rdf-syntax-ns#" width="352.77px" height="425.2px" enable-background="new 0 0 352.769 425.197" version="1.1" viewBox="0 0 352.77 425.2" xml:space="preserve"><metadata><rdf:RDF><cc:Work rdf:about=""><dc:format>image/svg+xml</dc:format><dc:type rdf:resource="http://purl.org/dc/dcmitype/StillImage"></dc:type><dc:title></dc:title></cc:Work></rdf:RDF></metadata>
<path d="m183.1 223.48c-6.551 1.223-13.396 1.479-20.363 0.609-36.283-4.514-62.019-37.569-57.501-73.835 4.52-36.273 37.586-62.014 73.866-57.498 15.74 1.96 29.491 9.301 39.653 19.939 10.558-6.541 22.59-10.958 35.484-12.639-15.929-22.718-41.034-38.873-70.741-42.571-55.764-6.943-106.59 32.624-113.53 88.374-2.391 19.182 0.727 37.792 8.119 54.221l-59.451 45.788c-2.418 1.886-3.991 4.648-4.368 7.694-0.378 3.038 0.467 6.1 2.347 8.525l15.492 19.898c1.96 2.521 4.754 4.006 7.687 4.37 2.934 0.365 6.005-0.386 8.522-2.347l59.456-45.812c14.111 11.193 31.38 18.773 50.569 21.171 13.084 1.627 25.895 0.693 37.932-2.405-5.193-11.147-9.769-22.476-13.169-33.482z" fill="#000000"></path>
<path d="m337.78 198.12 6e-3 -5e-3c-7.879 57.354-71.834 142.04-71.834 142.04s-63.949-84.688-71.84-142.04l9e-3 6e-3c-0.542-3.497-0.813-7.076-0.813-10.726 0-39.561 32.52-71.613 72.645-71.613 40.107 0 72.643 32.053 72.643 71.613-1e-3 3.65-0.288 7.229-0.816 10.725zm-71.828-43.342c-18.384 0-33.282 14.904-33.282 33.292 0 18.372 14.898 33.283 33.282 33.283 18.383 0 33.279-14.911 33.279-33.283 0-18.388-14.896-33.292-33.279-33.292z" fill="#000000"></path>
</svg>