<?xml version='1.0' encoding='utf-8'?>
<!-- Generator: Adobe Illustrator 16.0.0, SVG Export Plug-In . SVG Version: 6.00 Build 0)  --><svg xmlns="http://www.w3.org/2000/svg" xmlns:cc="http://creativecommons.org/ns#" xmlns:ns="&amp;ns_sfw;" xmlns:rdf="http://www.w3.org/1999/02/22-rdf-syntax-ns#" xmlns:dc="http://purl.org/dc/elements/1.1/" width="470px" height="400px" enable-background="new 0 0 470 400" version="1.1" viewBox="0 0 470 400" xml:space="preserve">
<metadata>
	<ns:sfw>
		<ns:slices></ns:slices>
		<ns:sliceSourceBounds x="218.468" y="149.98" width="404.272" height="295.04" bottomLeftOrigin="true"></ns:sliceSourceBounds>
	</ns:sfw>
<rdf:RDF><cc:Work rdf:about=""><dc:format>image/svg+xml</dc:format><dc:type rdf:resource="http://purl.org/dc/dcmitype/StillImage"></dc:type><dc:title></dc:title></cc:Work></rdf:RDF></metadata>
	<path d="m120.43 316.77-26.156 28.459c-9.348-9.207-17.786-19.32-25.319-30.344-7.533-11.02-13.985-22.67-19.354-34.943-5.372-12.273-9.488-25.039-12.348-38.293-2.859-13.252-4.29-26.785-4.29-40.596 0-14.088 1.431-27.795 4.29-41.119 2.856-13.32 6.869-26.016 12.032-38.084 5.158-12.064 11.403-23.364 18.729-33.898 7.322-10.531 15.309-20.193 23.959-28.981l28.458 26.366c-15.349 15.347-27.203 32.714-35.573 52.104-8.369 19.392-12.555 40.595-12.555 63.611 0 11.581 1.149 22.775 3.453 33.586 2.302 10.813 5.612 21.135 9.938 30.971 4.322 9.834 9.417 19.076 15.275 27.725 5.859 8.65 12.346 16.46 19.461 23.436zm-30.551-115.72c0-13.813 1.743-27.063 5.23-39.758 3.485-12.693 8.37-24.551 14.647-35.572 6.276-11.02 13.879-21.03 22.809-30.028 8.927-8.998 18.833-16.668 29.714-23.018 10.881-6.346 22.563-11.3 35.05-14.857 12.482-3.557 25.493-5.336 39.025-5.336 13.395 0 26.293 1.779 38.711 5.336 12.415 3.557 24.064 8.511 34.945 14.857 10.881 6.35 20.784 14.02 29.714 23.018 8.926 8.998 16.53 19.009 22.808 30.028 6.278 11.021 11.195 22.879 14.753 35.572 3.56 12.695 5.337 25.947 5.337 39.758 0 13.531-1.777 26.543-5.337 39.023-3.558 12.486-8.475 24.135-14.753 34.945-6.274 10.813-13.882 20.684-22.808 29.605-8.93 8.932-18.833 16.566-29.714 22.914-10.881 6.352-22.53 11.27-34.945 14.752-12.418 3.488-25.316 5.23-38.711 5.23-13.532 0-26.542-1.742-39.025-5.23-12.484-3.482-24.168-8.4-35.05-14.752-10.882-6.348-20.788-13.982-29.714-22.914-8.929-8.926-16.53-18.797-22.809-29.605-6.278-10.812-11.162-22.459-14.647-34.945-3.488-12.48-5.23-25.491-5.23-39.023zm146.48-124.5c-11.719 0-22.948 1.465-33.689 4.394-10.743 2.93-20.716 7.082-29.923 12.451-9.207 5.373-17.577 11.791-25.108 19.251-7.533 7.464-13.987 15.799-19.355 25.006-5.371 9.207-9.487 19.146-12.346 29.818-2.86 10.672-4.29 21.867-4.29 33.584 0 11.301 1.429 22.217 4.29 32.746 2.856 10.533 6.975 20.402 12.346 29.609 5.368 9.207 11.822 17.648 19.355 25.318 7.531 7.674 15.901 14.193 25.108 19.563 9.207 5.371 19.18 9.594 29.923 12.66 10.741 3.07 21.973 4.604 33.689 4.604 11.158 0 22.004-1.533 32.538-4.604 10.531-3.066 20.402-7.289 29.609-12.66 9.207-5.369 17.646-11.891 25.316-19.563 7.67-7.67 14.229-16.111 19.67-25.318s9.658-19.076 12.659-29.609c2.998-10.529 4.499-21.445 4.499-32.746 0-17.438-3.313-33.758-9.938-48.965-6.627-15.203-15.625-28.387-26.993-39.549-11.372-11.158-24.557-19.948-39.549-26.366-14.993-6.413-30.934-9.624-47.811-9.624zm-96.256 69.891c1.113-1.675 2.511-3.662 4.186-5.964 1.674-2.303 3.978-4.149 6.904-5.545 2.931-1.394 6.521-1.883 10.777-1.465 4.253 0.418 9.38 2.51 15.38 6.276 14.088 8.233 27.518 14.476 40.279 18.728 12.767 4.258 23.961 7.396 33.587 9.418 9.626 2.023 17.397 3.42 23.331 4.185 5.928 0.769 9.172 1.71 9.729 2.825 2.23 6.977 5.719 13.464 10.463 19.46 4.741 6 9.73 11.334 14.961 16.006 5.231 4.676 10.322 8.615 15.275 11.824 4.95 3.211 8.821 5.646 11.614 7.32 0.693 0.699 0.658 2.271-0.105 4.709-0.768 2.441-2.092 5.338-3.976 8.686-1.883 3.348-4.188 6.906-6.905 10.672-2.72 3.768-5.581 7.291-8.579 10.568-3.001 3.275-5.964 6.139-8.894 8.577-2.932 2.44-5.725 4.013-8.37 4.706-0.699 0-1.226 0.389-1.569 1.152-0.35 0.77-0.559 1.5-0.627 2.195-0.072 0.701-0.104 1.119-0.104 1.256l-10.884 13.184-50.22-46.242 6.486-8.578c-3.629-3.627-7.188-6.697-10.672-9.207-3.488-2.516-7.675-4.951-12.557-7.324-4.886-2.371-10.254-4.113-16.112-5.232-1.537-0.418-2.302-1.184-2.302-2.301l-71.98-63.194 4.185-4.394 2.303 2.092c0-1.114 0.451-1.847 1.359-2.196 0.909-0.347 1.919-1.079 3.037-2.197zm297.14 54.614c0 27.619-5.127 53.5-15.38 77.633-10.253 24.137-24.728 45.549-43.42 64.238l-28.667-28.25c15.344-14.363 27.202-31.387 35.572-51.057s12.556-40.521 12.556-62.566c0-23.018-4.081-44.221-12.241-63.61-8.161-19.388-19.354-36.757-33.585-52.104l28.458-26.366c8.789 9.348 16.668 19.428 23.646 30.237 6.974 10.813 12.938 22.252 17.891 34.317 4.95 12.067 8.717 24.623 11.3 37.665 2.578 13.046 3.87 26.334 3.87 39.863z" fill="#F54C4C"></path>
</svg>