<?xml version='1.0' encoding='utf-8'?>
<!-- Generator: Adobe Illustrator 16.0.0, SVG Export Plug-In . SVG Version: 6.00 Build 0)  --><svg xmlns="http://www.w3.org/2000/svg" xmlns:cc="http://creativecommons.org/ns#" xmlns:dc="http://purl.org/dc/elements/1.1/" xmlns:ns="&amp;ns_sfw;" xmlns:rdf="http://www.w3.org/1999/02/22-rdf-syntax-ns#" width="720px" height="425.2px" enable-background="new 0 0 720 425.2" version="1.1" viewBox="0 0 720 425.2" xml:space="preserve">
<metadata>
	<ns:sfw>
		<ns:slices></ns:slices>
		<ns:sliceSourceBounds x="83.545" y="147.56" width="687.905" height="291.196" bottomLeftOrigin="true"></ns:sliceSourceBounds>
	</ns:sfw>
	<rdf:RDF>
		<cc:Work rdf:about="">
			<dc:format>image/svg+xml</dc:format>
			<dc:type rdf:resource="http://purl.org/dc/dcmitype/StillImage"></dc:type>
			<dc:title></dc:title>
		</cc:Work>
	</rdf:RDF>
	<ns:sfw>
		<ns:slices></ns:slices>
		<ns:sliceSourceBounds x="92.687" y="169.941" width="669.627" height="283.464" bottomLeftOrigin="true"></ns:sliceSourceBounds>
	</ns:sfw>
	<ns:sfw>
		<ns:slices></ns:slices>
		<ns:sliceSourceBounds x="86.88" y="169.945" width="669.62" height="283.459" bottomLeftOrigin="true"></ns:sliceSourceBounds>
	</ns:sfw>
</metadata>
<path d="m164.22 274.74v60.739h-137.84v-274.12h50.231v213.38l87.608 2e-3v3e-3 -3e-3z" fill="#000000"></path>
<path d="m161 198.43c0-79.821 51.397-141.73 112.14-141.73s112.14 61.52 112.14 141.73c0 80.213-51.397 141.73-112.14 141.73-60.741 0-112.14-61.518-112.14-141.73zm171.71 0c0-44.387-27.451-79.431-59.575-79.431s-59.573 35.821-59.573 79.431c0 44.388 27.449 79.432 59.573 79.432s59.575-35.044 59.575-79.432z" fill="#000000"></path>
<path d="m696 61.367-78.262 274.12h-37.381l-43.806-155.36-46.142 155.36h-36.211l-79.435-274.12h54.901l42.93 161.98 47.019-161.98h31.538l47.019 158.86 44.099-158.86h53.731z" fill="#000000"></path>
</svg>