<?xml version='1.0' encoding='utf-8'?>
<!-- Generator: Adobe Illustrator 16.0.3, SVG Export Plug-In . SVG Version: 6.00 Build 0)  --><svg xmlns="http://www.w3.org/2000/svg" xmlns:cc="http://creativecommons.org/ns#" xmlns:dc="http://purl.org/dc/elements/1.1/" xmlns:rdf="http://www.w3.org/1999/02/22-rdf-syntax-ns#" width="534.75px" height="425.2px" enable-background="new 0 0 534.747 425.197" version="1.1" viewBox="0 0 534.75 425.2" xml:space="preserve"><metadata><rdf:RDF><cc:Work rdf:about=""><dc:format>image/svg+xml</dc:format><dc:type rdf:resource="http://purl.org/dc/dcmitype/StillImage"></dc:type><dc:title></dc:title></cc:Work></rdf:RDF></metadata>
<path d="m451.68 183.46c-8.794 0-17.161 1.958-24.923 5.412-2.314-73.452-55.187-132.18-120.34-132.18-50.933 0-94.369 35.96-112.03 86.714-12.64-17.09-31.527-27.949-52.677-27.949-38.062 0-68.859 35.106-68.859 78.33 0 10.931 1.959 21.363 5.483 30.798-3.987-1.14-8.153-1.959-12.462-1.959-28.555 0-51.697 26.313-51.697 58.801 0 30.887 21.078 55.953 47.746 58.303l-0.107 0.427h389.87c38.062 0 68.895-35.106 68.895-78.329-1e-3 -43.295-30.834-78.366-68.895-78.366z" fill="#000000"></path>
</svg>