<?xml version='1.0' encoding='utf-8'?>
<!-- Generator: Adobe Illustrator 16.0.3, SVG Export Plug-In . SVG Version: 6.00 Build 0)  --><svg xmlns="http://www.w3.org/2000/svg" xmlns:cc="http://creativecommons.org/ns#" xmlns:dc="http://purl.org/dc/elements/1.1/" xmlns:rdf="http://www.w3.org/1999/02/22-rdf-syntax-ns#" width="309.51px" height="425.2px" enable-background="new 0 0 309.512 425.197" version="1.1" viewBox="0 0 309.51 425.2" xml:space="preserve"><metadata><rdf:RDF><cc:Work rdf:about=""><dc:format>image/svg+xml</dc:format><dc:type rdf:resource="http://purl.org/dc/dcmitype/StillImage"></dc:type><dc:title></dc:title></cc:Work></rdf:RDF></metadata>
<path d="m285.17 142.42h-215.63l208.37-70.634-5.492-15.09-251.5 86.298 0.02 0.04c-3.946 1.408-6.762 5.096-6.762 9.518v177.48c0 5.592 4.541 10.133 10.173 10.133h260.82c5.611 0 10.172-4.541 10.172-10.133v-177.48c-1e-3 -5.611-4.561-10.132-10.173-10.132zm-70.217 167.34c-27.781 0-50.249-22.487-50.249-50.209 0-27.743 22.468-50.249 50.249-50.249 27.702 0 50.189 22.505 50.189 50.249 0 27.721-22.487 50.209-50.189 50.209zm64.525-126.65h-249.44v-14.357h249.44v14.357z" fill="#000000"></path>
</svg>