<?xml version='1.0' encoding='utf-8'?>
<!-- Generator: Adobe Illustrator 16.0.0, SVG Export Plug-In . SVG Version: 6.00 Build 0)  --><svg xmlns="http://www.w3.org/2000/svg" xmlns:cc="http://creativecommons.org/ns#" xmlns:dc="http://purl.org/dc/elements/1.1/" xmlns:ns="&amp;ns_sfw;" xmlns:rdf="http://www.w3.org/1999/02/22-rdf-syntax-ns#" width="444px" height="388px" version="1.2" viewBox="0 0 444 388" xml:space="preserve">
<metadata>
	<ns:sfw>
		<ns:slices></ns:slices>
		<ns:sliceSourceBounds x="214.095" y="220.247" width="411.943" height="168.124" bottomLeftOrigin="true"></ns:sliceSourceBounds>
	</ns:sfw>
<rdf:RDF><cc:Work rdf:about=""><dc:format>image/svg+xml</dc:format><dc:type rdf:resource="http://purl.org/dc/dcmitype/StillImage"></dc:type><dc:title></dc:title></cc:Work></rdf:RDF></metadata>
	<path d="m141.32 242.6c-2.979 6.295-7.18 11.847-12.589 16.648-5.412 4.803-11.76 8.256-19.048 10.352-3.755 1.105-7.731 1.656-11.926 1.656-4.64 0-9.141-0.688-13.5-2.07-4.364-1.379-8.448-3.256-12.257-5.631-3.812-2.373-7.265-5.219-10.354-8.528-3.093-3.314-5.632-6.957-7.62-10.935-0.772 0-2.927-0.137-6.46-0.414-3.536-0.272-9.001-0.635-16.396-1.078-3.204 0-5.799-0.77-7.785-2.315-1.988-1.545-3.563-3.451-4.723-5.715-1.158-2.265-1.962-4.693-2.4-7.289-0.442-2.595-0.663-4.888-0.663-6.873 0-9.277 0.854-16.674 2.566-22.197 1.712-5.521 3.34-9.219 4.888-11.098 1.765-2.429 3.727-4.664 5.88-6.707s4.83-3.978 8.034-5.8c3.202-1.821 7.177-3.53 11.926-5.135 4.747-1.6 10.655-3.174 17.724-4.721 1.987-0.439 4.25-0.912 6.791-1.408 2.539-0.498 5.272-0.994 8.199-1.49 2.925-0.498 5.906-0.993 8.945-1.489 3.036-0.498 5.988-1.021 8.859-1.574 6.848-1.213 13.914-2.373 21.202-3.479 0.771-0.332 1.353-0.521 1.739-0.58 0.386-0.055 0.8-0.084 1.242-0.084 0.771-0.438 1.434-1.018 1.987-1.737 0.552-0.717 1.601-1.629 3.146-2.733 3.864-3.313 7.922-7.011 12.175-11.098 4.25-4.085 8.75-8.116 13.5-12.093 4.747-3.975 9.799-7.619 15.156-10.932 5.354-3.313 11.181-5.852 17.475-7.619 6.625-1.877 14.022-3.23 22.196-4.059 8.17-0.828 16.619-1.242 25.345-1.242 11.371 0 22.497 0.607 33.376 1.822 10.876 1.216 20.398 2.761 28.571 4.638 6.848 1.656 14.022 4.335 21.533 8.034 7.508 3.701 14.879 7.593 22.113 11.678 7.229 4.086 14.162 7.896 20.788 11.43 6.625 3.535 12.53 5.963 17.723 7.287 6.295 1.656 11.678 2.707 16.15 3.147 4.473 0.442 8.254 1.077 11.347 1.905 3.09 0.828 5.632 2.266 7.619 4.307 1.987 2.045 3.644 5.549 4.969 10.52 0.883 3.313 1.822 7.205 2.816 11.679 0.994 4.473 1.931 9.305 2.813 14.494 0.883 5.188 1.628 10.629 2.236 16.313 0.604 5.688 0.911 11.512 0.911 17.478 0 2.979-0.994 5.354-2.981 7.12-1.985 1.769-4.418 3.121-7.288 4.06-2.872 0.938-5.938 1.549-9.191 1.822-3.258 0.274-6.211 0.414-8.861 0.414-1.548 0-2.898-0.025-4.059-0.082-1.159-0.058-2.018-0.084-2.567-0.084h-0.662c-2.542 6.735-6.487 12.532-11.844 17.393s-11.734 8.34-19.131 10.436c-2.211 0.662-4.418 1.136-6.626 1.408-2.21 0.277-4.418 0.414-6.626 0.414-4.86 0-9.498-0.688-13.913-2.069-4.418-1.382-8.505-3.313-12.258-5.8-3.757-2.481-7.123-5.465-10.104-8.942-2.979-3.479-5.466-7.261-7.453-11.349h-162.66v-6e-3zm261.05-22.195c1.103-0.33 1.877-0.744 2.317-1.242 0.44-0.496 0.663-1.297 0.663-2.402-0.441-7.395-1.271-14.713-2.484-21.947-1.217-7.229-2.375-13.497-3.479-18.799-0.662-1.434-1.382-2.151-2.153-2.151-3.424-0.441-7.014-1.134-10.767-2.07-3.755-0.939-8.063-1.961-12.92-3.064-3.646-1.104-7.205-2.401-10.686-3.893-3.479-1.492-6.931-3.008-10.353-4.557l-1.987-0.992c-3.313-1.545-6.683-3.396-10.104-5.549-3.425-2.154-7.122-4.391-11.1-6.71-7.511-4.307-14.521-7.811-21.035-10.518-6.519-2.705-12.368-4.664-17.56-5.88-3.644-0.882-7.646-1.683-12.009-2.401-4.363-0.717-8.944-1.324-13.748-1.822-4.804-0.496-9.747-0.881-14.824-1.159-5.081-0.274-10.161-0.414-15.239-0.414-7.949 0-15.516 0.36-22.69 1.077-7.182 0.72-13.583 1.851-19.217 3.396-4.418 1.216-8.587 3.093-12.506 5.632-3.921 2.541-8.09 5.631-12.506 9.275-4.529 3.755-8.836 7.564-12.92 11.428-4.086 3.867-8.116 7.513-12.092 10.935-3.424 2.873-5.826 4.832-7.205 5.881-1.382 1.051-2.236 1.738-2.567 2.067-0.772 0-1.382 0.029-1.82 0.084-0.442 0.058-0.828 0.308-1.16 0.744-0.331 0-0.887 0.029-1.656 0.084-0.774 0.06-1.933 0.248-3.479 0.58-5.189 0.773-9.553 1.438-13.085 1.986-3.533 0.555-6.791 1.078-9.771 1.574-2.981 0.498-5.938 0.994-8.862 1.489-2.927 0.496-6.434 1.021-10.518 1.574-7.73 1.547-14.576 3.203-20.539 4.97-5.963 1.768-11.155 3.59-15.57 5.467-0.442 0-0.855 0.139-1.242 0.414-0.389 0.274-0.968 0.637-1.737 1.075-0.443 0.33-0.97 0.691-1.574 1.076-0.608 0.39-1.077 0.746-1.408 1.076-0.662 0.994-1.271 2.293-1.822 3.896-0.554 1.602-1.051 3.313-1.49 5.135-0.442 1.822-0.773 3.701-0.993 5.631-0.224 1.934-0.331 3.674-0.331 5.219l0.166 2.318c0 0.772 0.303 1.383 0.91 1.822 0.604 0.44 1.298 0.825 2.069 1.157 1.545 0 3.587 0.142 6.129 0.414 2.539 0.277 4.912 0.414 7.123 0.414h14.908v0.662c0 4.088 0.771 7.926 2.319 11.512 1.545 3.593 3.696 6.738 6.46 9.441 2.759 2.709 5.963 4.832 9.605 6.379 3.646 1.547 7.62 2.318 11.927 2.318 3.863 0 7.536-0.746 11.016-2.236 3.479-1.49 6.568-3.504 9.274-6.047 2.705-2.537 4.858-5.521 6.461-8.943 1.601-3.422 2.511-7.063 2.732-10.932v-2.982h190.82l0.663 4.474c0.22 3.645 1.159 7.098 2.813 10.354 1.656 3.258 3.812 6.104 6.461 8.529 2.649 2.432 5.656 4.336 9.026 5.715 3.367 1.383 6.929 2.07 10.686 2.07 3.862 0 7.563-0.688 11.098-2.07 3.533-1.379 6.681-3.313 9.442-5.797 2.759-2.484 4.938-5.41 6.542-8.779 1.6-3.367 2.4-6.979 2.4-10.85v-4.308c1.876 0 5.218-0.024 10.021-0.084 4.804-0.055 9.857-0.303 15.159-0.746zm-109.49-26.668 5.964 13.418 14.741-35.447-36.938-11.926 6.626 13.25v0.828c-3.313 2.541-8.446 4.639-15.403 6.295-6.956 1.653-15.132 2.483-24.517 2.483-5.963 0-11.54-0.387-16.729-1.16-5.191-0.771-9.719-1.793-13.582-3.063-3.867-1.268-6.933-2.732-9.193-4.389-2.265-1.656-3.396-3.423-3.396-5.302 0-1.987 1.133-3.862 3.396-5.633 2.262-1.766 5.326-3.256 9.193-4.473 3.863-1.213 8.391-2.178 13.582-2.898 5.188-0.717 10.767-1.076 16.729-1.076h13.252l6.791-8.116c-3.424-0.771-6.818-1.213-10.188-1.324-3.369-0.109-6.874-0.166-10.52-0.166-9.274 0-17.972 0.745-26.089 2.236-8.116 1.49-15.156 3.535-21.119 6.129-5.963 2.596-10.684 5.631-14.163 9.108-3.478 3.48-5.217 7.265-5.217 11.349 0 3.864 1.739 7.534 5.217 11.016 3.479 3.479 8.199 6.543 14.163 9.193 5.963 2.647 13.002 4.748 21.119 6.293 8.117 1.549 16.813 2.317 26.089 2.317 10.047 0 19.354-0.854 27.91-2.565 8.559-1.711 15.984-4.06 22.278-7.039v0.662h4e-3z" fill="#000000"></path>
</svg>