<?xml version='1.0' encoding='utf-8'?>
<!-- Generator: Adobe Illustrator 16.0.0, SVG Export Plug-In . SVG Version: 6.00 Build 0)  --><svg xmlns="http://www.w3.org/2000/svg" xmlns:cc="http://creativecommons.org/ns#" xmlns:dc="http://purl.org/dc/elements/1.1/" xmlns:ns0="&amp;ns_sfw;" xmlns:rdf="http://www.w3.org/1999/02/22-rdf-syntax-ns#" width="841.89px" height="277px" enable-background="new 0 0 841.891 277" version="1.1" viewBox="0 0 841.89 277" xml:space="preserve">
<metadata>
	<rdf:RDF>
		<cc:Work rdf:about="">
			<dc:format>image/svg+xml</dc:format>
			<dc:type rdf:resource="http://purl.org/dc/dcmitype/StillImage"></dc:type>
			<dc:title></dc:title>
		</cc:Work>
	</rdf:RDF>
	<ns0:sfw>
		<ns0:slices></ns0:slices>
		<ns0:sliceSourceBounds x="5.807" y="201.214" width="829.387" height="202.888" bottomLeftOrigin="true"></ns0:sliceSourceBounds>
	</ns0:sfw>
</metadata>
<path d="m61.434 166.78h-19.23v64.656h-35.952v-196.2h68.561c30.31 0 51.002 28.427 51.002 65.771 0 25.641-10.241 46.541-27.591 56.855l36.788 73.571h-42.643l-30.936-64.655v3e-3zm-19.23-41.247h26.756c11.287 0 19.229-9.755 19.229-24.525s-8.57-23.411-19.229-23.411h-26.756v47.936z" fill="#000000"></path>
<path d="m250.39 187.97v43.478h-105.35v-196.2h103.68v43.477h-67.724v34.557h60.198v40.132h-60.198v34.559h69.396-2e-3z" fill="#000000"></path>
<path d="m260.84 167.9h37.416c0 17.836 7.523 23.409 24.874 23.409 19.438 0 25.083-5.295 25.083-16.721 0-10.033-7.732-14.492-22.574-17.836l-14.213-3.346c-29.264-6.967-49.329-22.574-49.329-60.197 0-36.787 18.603-61.312 61.034-61.312 47.03 0 59.989 29.819 59.989 65.771h-36.37c0-14.771-6.479-22.295-22.783-22.295-19.229 0-23.41 4.181-23.41 15.606 0 9.477 5.645 14.213 25.082 18.951l13.378 3.344c27.591 6.969 48.493 20.066 48.493 59.085 0 39.295-19.229 62.426-64.379 62.426-47.241 2e-3 -62.082-27.588-62.291-66.885z" fill="#000000"></path>
<path d="m400.05 154.52v-119.28h35.953v120.4c0 22.854 12.33 35.673 30.099 35.673 16.931 0 29.264-12.818 29.264-35.673v-120.4h35.952v119.28c0 49.052-27.174 80.267-65.216 80.267-38.879 0-66.052-31.215-66.052-80.266z" fill="#000000"></path>
<path d="m708.56 231.44h-33.444v-92.248l-34.277 92.248h-23.41l-33.444-90.021v90.021h-33.444v-196.2h30.101l50.375 133.21 46.612-133.21h30.936v196.2h-5e-3z" fill="#000000"></path>
<path d="m835.64 187.97v43.478h-105.35v-196.2h103.68v43.477h-67.725v34.557h60.198v40.132h-60.198v34.559h69.396-1e-3z" fill="#000000"></path>
</svg>