<?xml version='1.0' encoding='utf-8'?>
<!-- Generator: Adobe Illustrator 16.0.0, SVG Export Plug-In . SVG Version: 6.00 Build 0)  --><svg xmlns="http://www.w3.org/2000/svg" xmlns:cc="http://creativecommons.org/ns#" xmlns:ns="&amp;ns_sfw;" xmlns:rdf="http://www.w3.org/1999/02/22-rdf-syntax-ns#" xmlns:dc="http://purl.org/dc/elements/1.1/" width="470px" height="464px" enable-background="new 0 0 470 464" version="1.1" viewBox="0 0 470 464" xml:space="preserve">
<metadata>
	<ns:sfw>
		<ns:slices></ns:slices>
		<ns:sliceSourceBounds x="219.581" y="130.5" width="403.501" height="366.185" bottomLeftOrigin="true"></ns:sliceSourceBounds>
	</ns:sfw>
<rdf:RDF><cc:Work rdf:about=""><dc:format>image/svg+xml</dc:format><dc:type rdf:resource="http://purl.org/dc/dcmitype/StillImage"></dc:type><dc:title></dc:title></cc:Work></rdf:RDF></metadata>
	<path d="m258.18 149.96h47.509v19.958h-47.509v29.938h47.509v19.741h-47.509l0.197 50.189c3.904 3.617 7.179 5.67 10.216 11.527 3.037 5.856 4.556 11.821 4.556 17.896 0 5.644-1.014 10.775-3.037 15.402-2.027 4.631-4.771 8.567-8.244 11.824-3.471 3.254-7.45 5.748-11.932 7.481-4.484 1.736-9.188 2.604-14.103 2.604-5.64 0-10.847-0.867-15.619-2.604-4.771-1.733-8.969-4.229-12.582-7.481-3.615-3.257-6.437-7.193-8.461-11.824-2.025-4.627-3.037-9.762-3.037-15.402 0-3.037 0.436-6.074 1.304-9.109 0.868-3.036 2.061-5.856 3.58-8.463 1.519-2.602 3.323-4.95 5.423-7.049 2.095-2.096 4.446-3.797 7.05-5.1v-214.11c0-3.037 0.576-5.928 1.735-8.677 1.154-2.746 2.745-5.169 4.771-7.268 2.023-2.095 4.41-3.722 7.159-4.881 2.746-1.156 5.64-1.735 8.677-1.735 6.362 0 11.68 2.169 15.945 6.508s6.399 9.691 6.399 16.053v47.075h47.509v19.958h-47.509l3e-3 27.551zm-17.357-14.968v-79.616c0-2.458-0.542-4.301-1.627-5.532-1.084-1.227-2.206-1.844-3.362-1.844-2.46 0-4.738 0.617-6.833 1.844-2.099 1.23-3.146 3.074-3.146 5.532v79.616h14.968z" fill="#F54C4C"></path>
	<path d="m174.78 295.92c-1.899 0.148-3.943 0.234-6.206 0.234-13.912 0-20.178-2.979-28.111-6.752-9.104-4.328-19.424-9.236-39.135-9.236-19.712 0-30.031 4.908-39.135 9.236-7.934 3.771-14.2 6.752-28.113 6.752v25c19.712 0 30.031-4.906 39.136-9.236 7.936-3.771 14.2-6.752 28.112-6.752s20.178 2.98 28.111 6.752c9.104 4.33 19.423 9.236 39.135 9.236 2.332 0 4.522-0.072 6.605-0.201-0.979-4.332-1.515-8.832-1.515-13.459 2e-3 -3.958 0.393-7.826 1.116-11.574z" fill="#F54C4C"></path>
	<path d="m409.47 289.4c-9.106-4.33-19.428-9.236-39.141-9.236-19.712 0-30.031 4.906-39.138 9.236-7.935 3.771-14.201 6.752-28.115 6.752-3.382 0-6.305-0.178-8.917-0.5 0.756 3.832 1.161 7.787 1.161 11.84 0 4.555-0.517 8.986-1.466 13.256 2.838 0.254 5.886 0.404 9.222 0.404 19.713 0 30.031-4.906 39.14-9.234 7.934-3.772 14.2-6.754 28.113-6.754 13.914 0 20.183 2.98 28.116 6.754 9.104 4.328 19.425 9.234 39.139 9.234v-25c-13.913 0-20.184-2.979-28.114-6.752z" fill="#F54C4C"></path>
<path d="m400.27 362.84c-5.777-3.178-13.32-5.846-24.024-5.846-16.807 0-25.842 6.574-32.438 11.373-5.157 3.752-7.746 5.635-14.317 5.635-6.566 0-9.156-1.883-14.313-5.635-6.599-4.799-15.632-11.373-32.438-11.373-16.808 0-25.841 6.574-32.438 11.373-5.156 3.752-7.744 5.635-14.313 5.635-6.568 0-9.156-1.883-14.313-5.635-6.597-4.799-15.632-11.373-32.438-11.373s-25.839 6.574-32.437 11.373c-5.155 3.752-7.743 5.635-14.313 5.635-6.566 0-9.154-1.883-14.308-5.633-6.598-4.801-15.631-11.375-32.436-11.375-10.912 0-18.535 2.775-24.354 6.031v30.983c4.042-2.024 7.264-4.358 10.043-6.381 5.153-3.752 7.742-5.635 14.311-5.635 6.566 0 9.153 1.883 14.31 5.633 6.596 4.801 15.63 11.375 32.435 11.375 16.806 0 25.84-6.574 32.438-11.373 5.153-3.752 7.741-5.635 14.311-5.635s9.157 1.883 14.313 5.635c6.599 4.799 15.633 11.373 32.438 11.373 16.809 0 25.841-6.574 32.438-11.373 5.155-3.752 7.743-5.635 14.313-5.635 6.568 0 9.155 1.883 14.313 5.633 6.598 4.802 15.632 11.376 32.438 11.376 16.81 0 25.843-6.574 32.439-11.373 5.158-3.752 7.746-5.635 14.315-5.635 6.57 0 9.159 1.883 14.316 5.635 2.701 1.965 5.823 4.223 9.708 6.209v-30.997h1e-3z" fill="#F54C4C"></path>
</svg>