<?xml version='1.0' encoding='utf-8'?>
<!-- Generator: Adobe Illustrator 16.0.3, SVG Export Plug-In . SVG Version: 6.00 Build 0)  --><svg xmlns="http://www.w3.org/2000/svg" xmlns:cc="http://creativecommons.org/ns#" xmlns:dc="http://purl.org/dc/elements/1.1/" xmlns:rdf="http://www.w3.org/1999/02/22-rdf-syntax-ns#" width="326.45px" height="425.2px" version="1.2" viewBox="0 0 326.45 425.2" xml:space="preserve"><metadata><rdf:RDF><cc:Work rdf:about=""><dc:format>image/svg+xml</dc:format><dc:type rdf:resource="http://purl.org/dc/dcmitype/StillImage"></dc:type><dc:title></dc:title></cc:Work></rdf:RDF></metadata>
<path d="m108.14 340.16h-75.021c-2.617 0-5.125-1.038-6.976-2.888l-9.072-9.054c-1.855-1.853-2.898-4.365-2.898-6.989v-81.976c0-2.618 1.041-5.133 2.893-6.984l168.74-172.51 13.965 13.965-165.85 169.62v73.791l3.282 3.276h66.896l188.42-185.33v-26.725l-31.893-31.907h-25.515l-134.23 137.29v36.817l3.282 3.279h29.075l130.73-128.86 13.966 13.965-133.62 131.76c-1.851 1.852-4.362 2.892-6.982 2.892h-37.25c-2.615 0-5.125-1.037-6.976-2.886l-9.07-9.054c-1.855-1.853-2.899-4.368-2.899-6.991v-44.936c0-2.58 1.011-5.06 2.815-6.904l139.95-143.14c1.857-1.9 4.402-2.971 7.057-2.971h33.765c2.62 0 5.132 1.042 6.983 2.895l37.677 37.692c1.85 1.851 2.892 4.361 2.892 6.98v34.952c0 2.646-1.065 5.183-2.951 7.039l-194.26 191.07c-1.846 1.814-4.333 2.833-6.924 2.833z" fill="#000000"></path>
</svg>