<?xml version='1.0' encoding='utf-8'?>
<!-- Generator: Adobe Illustrator 16.0.3, SVG Export Plug-In . SVG Version: 6.00 Build 0)  --><svg xmlns="http://www.w3.org/2000/svg" xmlns:cc="http://creativecommons.org/ns#" xmlns:dc="http://purl.org/dc/elements/1.1/" xmlns:rdf="http://www.w3.org/1999/02/22-rdf-syntax-ns#" width="420.02px" height="425.2px" enable-background="new 0 0 420.015 425.197" version="1.1" viewBox="0 0 420.02 425.2" xml:space="preserve"><metadata><rdf:RDF><cc:Work rdf:about=""><dc:format>image/svg+xml</dc:format><dc:type rdf:resource="http://purl.org/dc/dcmitype/StillImage"></dc:type><dc:title></dc:title></cc:Work></rdf:RDF></metadata>
<g clip-rule="evenodd" fill-rule="evenodd">
	<polygon points="336.33 56.693 27.319 56.693 181.83 202.79" fill="#000000"></polygon>
	<polygon points="275.86 294.03 275.86 252.45 287.21 252.45 233.68 209.1 247.49 196.48 316.61 252.45 318.14 252.45 318.14 210.17 349.48 210.17 349.48 69.637 181.83 227.93 14.173 69.637 14.173 279.07 116.16 196.48 129.97 209.1 25.106 294.03" fill="#000000"></polygon>
</g>
<polygon points="405.84 271.71 363.56 271.71 363.56 229.43 337.4 229.43 337.4 271.71 295.11 271.71 295.11 297.88 337.4 297.88 337.4 340.16 363.56 340.16 363.56 297.88 405.84 297.88" clip-rule="evenodd" fill-rule="evenodd" fill="#000000"></polygon>
</svg>