<?xml version='1.0' encoding='utf-8'?>
<!-- Generator: Adobe Illustrator 16.0.3, SVG Export Plug-In . SVG Version: 6.00 Build 0)  --><svg xmlns="http://www.w3.org/2000/svg" xmlns:cc="http://creativecommons.org/ns#" xmlns:dc="http://purl.org/dc/elements/1.1/" xmlns:rdf="http://www.w3.org/1999/02/22-rdf-syntax-ns#" width="311.81px" height="425.2px" version="1.2" viewBox="0 0 311.81 425.2" xml:space="preserve"><metadata><rdf:RDF><cc:Work rdf:about=""><dc:format>image/svg+xml</dc:format><dc:type rdf:resource="http://purl.org/dc/dcmitype/StillImage"></dc:type><dc:title></dc:title></cc:Work></rdf:RDF></metadata>
<path d="m295.94 287.46c-11.882 0-22.477-5.495-29.396-14.076-13.429 2.995-25.762 4.495-37.136 4.496-17.677 1e-3 -33.044-3.609-46.666-10.814-26.114-13.811-39.968-37.81-53.365-61.018-17.858-30.937-32.665-56.585-73.995-55.647-4.01 16.54-18.906 28.827-36.68 28.827-1.535 0-3.045-0.103-4.532-0.28v135.91c0 13.945 11.368 25.3 25.352 25.3h232.82c13.953 0 25.296-11.354 25.296-25.3v-27.443c-0.561 0.023-1.124 0.041-1.693 0.041z" fill="#000000"></path>
<path d="m18.706 103.72c13.553 0 25.432 7.146 32.09 17.872 22.954-1.207 42.265 3.497 58.463 14.177 21.054 13.881 33.348 35.178 45.237 55.773 21.576 37.374 39.221 67.917 103.94 53.966 2.088-18.873 18.083-33.554 37.513-33.554 0.568 0 1.132 0.018 1.693 0.043v-129.96c0-13.982-11.343-25.35-25.296-25.35h-232.82c-13.984 0-25.352 11.368-25.352 25.35v21.961c1.487-0.178 2.997-0.28 4.533-0.28z" fill="#000000"></path>
</svg>