<?xml version='1.0' encoding='utf-8'?>
<!-- Generator: Adobe Illustrator 16.0.0, SVG Export Plug-In . SVG Version: 6.00 Build 0)  --><svg xmlns="http://www.w3.org/2000/svg" xmlns:cc="http://creativecommons.org/ns#" xmlns:dc="http://purl.org/dc/elements/1.1/" xmlns:rdf="http://www.w3.org/1999/02/22-rdf-syntax-ns#" width="377px" height="425.2px" version="1.2" viewBox="0 0 377 425.2" xml:space="preserve"><metadata><rdf:RDF><cc:Work rdf:about=""><dc:format>image/svg+xml</dc:format><dc:type rdf:resource="http://purl.org/dc/dcmitype/StillImage"></dc:type><dc:title></dc:title></cc:Work></rdf:RDF></metadata>

	<path d="m199.16 252.58v14.398h-77.628v-8.764l29.424-29.423c8.554-8.556 14.868-15.832 18.937-21.833 4.069-5.998 6.104-11.66 6.104-16.982 0-3.545-0.757-6.833-2.27-9.859-1.514-3.025-3.862-5.477-7.042-7.356-3.185-1.877-7.174-2.816-11.974-2.816-4.279 0-8.294 1.095-12.05 3.286-3.756 2.19-7.148 5.375-10.172 9.547l-13.147-7.982c4.069-6.363 9.363-11.269 15.886-14.712 6.519-3.444 13.224-5.165 20.11-5.165 8.242 0 15.181 1.591 20.815 4.772 5.634 3.185 9.833 7.384 12.598 12.598 2.764 5.22 4.148 10.906 4.148 17.06 0 5.219-1.148 10.251-3.443 15.104-2.297 4.851-5.61 9.757-9.939 14.712-4.33 4.956-10.304 11.086-17.919 18.389l-15.024 15.024 52.586 2e-3z" fill="#000000"></path>
	<path d="m271.23 198.9c5.793 3.027 10.459 7.354 14.008 12.99 3.547 5.633 5.32 12.104 5.32 19.406 0 7.198-1.773 13.644-5.32 19.328-3.549 5.687-8.4 10.147-14.557 13.38-6.156 3.234-12.889 4.854-20.188 4.854-8.141 0-15.314-1.463-21.521-4.381-6.209-2.92-11.66-7.67-16.355-14.242l11.584-9.077c3.129 4.593 6.676 7.956 10.639 10.095 3.967 2.141 8.768 3.206 14.4 3.206 4.172 0 8.111-0.911 11.816-2.737 3.703-1.824 6.73-4.434 9.076-7.826 2.35-3.39 3.521-7.381 3.521-11.973 0-4.484-1.096-8.475-3.289-11.973-2.189-3.495-5.24-6.233-9.154-8.217-3.91-1.98-8.32-2.973-13.225-2.973-4.381 0-8.451 1.044-12.207 3.13-3.756 2.089-6.99 5.114-9.703 9.077l-10.643-10.016 8.139-54.151h59.473v14.397h-46.639l-4.383 29.579c2.398-2.191 5.27-3.807 8.607-4.851 3.338-1.042 7.459-1.565 12.363-1.565 6.37 1e-3 12.449 1.514 18.238 4.54z" fill="#000000"></path>


	<path d="m356.44 271.66-17.311 10.232-0.104-136.66 17.412 10.296 8.014-13.554-17.338-10.25 15.938-9.11-7.814-13.67-16.229 9.28-0.018-20.189-15.748 0.012 0.02 19.573-119.02-70.368 17.311-10.234-8.012-13.555-16.765 9.912-0.032-18.378-15.747 0.029 0.035 18.504-17.026-10.07-8.014 13.554 17.313 10.235-120.9 71.483-0.017-20.698-15.747 0.012 0.016 20.991-15.633-8.936-7.813 13.67 15.594 8.914-15.71 9.288 8.014 13.554 15.569-9.206 0.102 134.6-15.671-9.266-8.014 13.555 16.95 10.019-17.043 10.897 8.484 13.265 15.316-9.795 0.015 21.313 15.747-0.012-0.017-22.367 120.76 71.396-17.311 10.232 8.013 13.555 17.032-10.069 0.034 18.203 15.747-0.029-0.035-18.01 16.76 9.907 8.012-13.554-17.311-10.234 119.16-70.451 0.018 21.433 15.746-0.013-0.018-20.129 14.992 9.588 8.484-13.266-16.904-10.811 18.73-11.072-8.013-13.55zm-167.67 99.128-136.24-80.55-0.117-153.22 136.36-80.62 134.5 79.521 0.117 155.27-134.62 79.593z" fill="#000000"></path>
	<rect transform="matrix(.0012 -1 1 .0012 -111.16 317.66)" x="95.573" y="194.71" width="15.748" height="39.531" fill="#000000"></rect>

</svg>