<?xml version='1.0' encoding='utf-8'?>
<!-- Generator: Adobe Illustrator 27.2.0, SVG Export Plug-In . SVG Version: 6.00 Build 0)  --><svg xmlns:cc="http://creativecommons.org/ns#" xmlns="http://www.w3.org/2000/svg" xmlns:ns="http://ns.adobe.com/SaveForWeb/1.0/" xmlns:rdf="http://www.w3.org/1999/02/22-rdf-syntax-ns#" xmlns:dc="http://purl.org/dc/elements/1.1/" xmlns:xlink="http://www.w3.org/1999/xlink" version="1.1" id="Layer_1" x="0px" y="0px" viewBox="0 0 368.5 425.2" style="enable-background:new 0 0 368.5 425.2;" xml:space="preserve" width="346.6604" height="400.0">
<g>
	<g>
		<path d="M81.8,259.6c-12.4-17.9-19-38.8-19-60.7c0-21.7,6.6-42.7,19-60.7l22.5,15.6c-9.2,13.2-14.1,28.8-14.1,45.1    s4.9,31.8,14.1,45.1L81.8,259.6z" fill="#FFCE63"></path>
		<path d="M48,282.8c-17.2-24.6-26.2-53.7-26.2-83.9s9-59.1,26.2-83.9l22.5,15.6c-13.9,20.1-21.4,43.7-21.4,68.2S56.5,247,70.5,267    L48,282.8z" fill="#FFCE63"></path>
	</g>
	<g>
		<path d="M316.4,27.7c-14.7-8.9-35.2-13.6-61-13.6s-46.5,4.6-61,13.6c-15.8,9.7-24.6,24.9-24.6,42.5V146l24,53.6v35.2h-24V336    c0,41.1,43.2,46.7,85.7,46.7S341,377.1,341,336V70.1C340.9,52.4,332.2,37.3,316.4,27.7z M313.5,336c0,6.3-1.1,8.6-5.3,11.3    c-6,3.6-19.9,8.1-53,8.1s-47-4.3-53-8.1c-4.2-2.5-5.3-5-5.3-11.3V262h24v-68.4l-24-53.6v-70c0-25.8,40.7-28.7,58.3-28.7    c17.6,0,58.3,2.8,58.3,28.7V336z" fill="#FFCE63"></path>
		<rect x="101.6" y="176.1" transform="matrix(0.6556 -0.7551 0.7551 0.6556 -96.3291 172.5922)" width="78.9" height="31.5" fill="#FFCE63"></rect>
		<g>
			<path d="M302.1,101.8c-7.8-2.6-22.7-5.2-46.9-5.2c-24.1,0-39,2.5-46.9,5.2c-4,1.2-7.1,6.1-5.9,11.4c1.6,6.1,8.4,31,10.2,37.5     c1.2,4.4,5.2,8.9,10.5,7.7c6.1-1.4,17.2-2.3,32.1-2.3c14.9,0,25.9,0.8,32.1,2.3c5.4,1.2,9.2-3.2,10.5-7.7     c1.8-6.4,8.6-31.4,10.2-37.5C309.2,107.9,306.1,103,302.1,101.8z" fill="#FFCE63"></path>
			<path d="M298.4,327.6c-7.2,2.5-20.9,5-43.2,5c-22.2,0-35.9-2.5-43.2-5c-3.6-1.2-6.6-6-5.3-11.2c1.4-6,7.7-30.3,9.4-36.5     c1.1-4.4,4.7-8.8,9.6-7.6c5.8,1.4,15.7,2.1,29.6,2.1c13.8,0,23.9-0.7,29.6-2.1c5-1.2,8.5,3.1,9.6,7.6c1.7,6.3,7.9,30.6,9.4,36.5     C305.1,321.6,302,326.4,298.4,327.6z" fill="#FFCE63"></path>
			<path d="M306.3,164.7v122.5c0,0-15.7-36.3-15.7-70.8S306.3,164.7,306.3,164.7z" fill="#FFCE63"></path>
		</g>
	</g>
</g>
</svg>