<?xml version='1.0' encoding='utf-8'?>
<!-- Generator: Adobe Illustrator 16.0.0, SVG Export Plug-In . SVG Version: 6.00 Build 0)  --><svg xmlns="http://www.w3.org/2000/svg" xmlns:cc="http://creativecommons.org/ns#" xmlns:dc="http://purl.org/dc/elements/1.1/" xmlns:rdf="http://www.w3.org/1999/02/22-rdf-syntax-ns#" width="325px" height="425.2px" version="1.2" viewBox="0 0 325 425.2" xml:space="preserve"><metadata><rdf:RDF><cc:Work rdf:about=""><dc:format>image/svg+xml</dc:format><dc:type rdf:resource="http://purl.org/dc/dcmitype/StillImage"></dc:type><dc:title></dc:title></cc:Work></rdf:RDF></metadata>
<path d="m161.74 412.29c-75.696 0-137.28-58.248-137.28-129.84v-267h274.56v267c-2e-3 71.597-61.586 129.84-137.28 129.84zm-121.09-380.66v250.82c0 62.67 54.319 113.66 121.09 113.66 66.771 0 121.09-50.985 121.09-113.66v-250.82h-242.18z" fill="#000000"></path>
<path d="m161.74 298.95-115.55-115.56 115.56-115.55 115.55 115.55-115.56 115.56zm-92.657-115.56 92.657 92.66 92.665-92.66-92.659-92.656-92.663 92.656z" fill="#000000"></path>

	<path d="m154.15 131.96c1.983 1.122 3.545 2.618 4.685 4.492s1.709 3.933 1.709 6.174-0.551 4.31-1.654 6.2c-1.103 1.893-2.646 3.391-4.63 4.492-1.983 1.103-4.226 1.654-6.724 1.654h-8.158v14.109h-5.731v-38.804h13.89c2.423 2e-3 4.628 0.563 6.613 1.683zm-2.977 16.949c1.065-0.662 1.902-1.543 2.508-2.646 0.606-1.104 0.91-2.315 0.91-3.639 0-1.322-0.303-2.536-0.91-3.638-0.605-1.103-1.441-1.984-2.508-2.646-1.065-0.662-2.278-0.992-3.638-0.992h-8.158v14.551h8.158c1.36 2e-3 2.572-0.329 3.638-0.99z" fill="#000000"></path>
	<path d="m172.01 164.01h19.843v5.071h-25.574v-38.804h25.133v5.07h-19.4v11.465h16.535v5.07h-16.535l-2e-3 12.128z" fill="#000000"></path>

<polygon points="147.36 224.11 121.26 224.11 121.26 212.24 143.4 212.24 179.71 185 186.83 194.5" fill="#000000"></polygon>
<rect x="183.27" y="212.24" width="17.225" height="11.872" fill="#000000"></rect>
</svg>