<?xml version='1.0' encoding='utf-8'?>
<!-- Generator: Adobe Illustrator 16.0.0, SVG Export Plug-In . SVG Version: 6.00 Build 0)  --><svg xmlns="http://www.w3.org/2000/svg" xmlns:cc="http://creativecommons.org/ns#" xmlns:ns="&amp;ns_sfw;" xmlns:rdf="http://www.w3.org/1999/02/22-rdf-syntax-ns#" xmlns:dc="http://purl.org/dc/elements/1.1/" width="322.67px" height="425.2px" version="1.2" viewBox="0 0 322.67 425.2" xml:space="preserve">
<metadata>
	<ns:sfw>
		<ns:slices></ns:slices>
		<ns:sliceSourceBounds x="273.999" y="159.665" width="291.835" height="304.018" bottomLeftOrigin="true"></ns:sliceSourceBounds>
	</ns:sfw>
<rdf:RDF><cc:Work rdf:about=""><dc:format>image/svg+xml</dc:format><dc:type rdf:resource="http://purl.org/dc/dcmitype/StillImage"></dc:type><dc:title></dc:title></cc:Work></rdf:RDF></metadata>
<path d="m178.13 197.94-0.907 4.371c-0.011 0.048-1.093 4.938-4.508 9.789-4.435 6.3-10.661 9.498-18.505 9.498-19.686 0-23.814-16.768-23.975-17.446l-0.953-4.353-4.457-0.043c-9.664-0.091-21.337-0.569-24.661-1.204-1.505-2.229-1.802-10.938-0.442-15.267 1.875-5.97 4.99-11.763 6.419-12.764 8.141-5.702 33.241-8.877 46.727-10.583 7.598-0.962 11.344-1.453 13.467-2.123 4.72-1.487 8.115-6.218 12.412-12.208 5.399-7.528 12.123-16.897 22.787-21.963 6.076-2.886 23.998-5.412 28.664-5.982-2.65-3.641-4.822-7.142-8.002-10.315-5.625 0.948-20.229 3.713-25.459 6.197-13.271 6.305-21.252 17.425-27.076 25.545-2.269 3.161-5.371 7.487-6.688 8.062-1.258 0.397-6.705 1.085-11.51 1.693-20.913 2.646-42.135 5.792-51.737 12.519-5.902 4.136-9.926 16.196-10.672 18.571-1.505 4.79-3.806 23.359 5.78 28.562 1.049 0.569 3.742 2.03 25.839 2.393 3.733 9.313 13.794 21.892 33.536 21.892 19.217 0 29.072-13.779 32.701-23.815l42.822-0.661c1.896-3.619 5.133-7.417 6.502-11.317l-58.104 0.952z" fill="#FFCE63"></path>
	<path d="m128.63 79.375c0.123-0.046 0.246-0.089 0.369-0.134l19.479-21.667c-10.195 1.103-19.953 3.596-29.27 7.496-1.553 0.65-3.084 1.333-4.592 2.043l14.014 12.262z" fill="#FFCE63"></path>
	<path d="m303.57 133.04c-2.066-9.566-4.984-18.73-8.763-27.492-3.776-8.76-8.334-17.093-13.67-25-5.339-7.904-11.382-15.229-18.127-21.978l-18.429 20.089c10.974 10.978 19.586 23.489 25.83 37.537 6.243 14.048 9.364 29.482 9.364 46.299 0 16.919-3.122 32.401-9.364 46.45-6.244 14.048-14.854 26.509-25.83 37.385l18.429 20.089c6.743-6.646 12.786-13.92 18.127-21.824 5.336-7.906 9.896-16.265 13.67-25.076 3.778-8.813 6.698-17.999 8.763-27.567 2.061-9.565 3.096-19.386 3.096-29.455-1e-3 -10.072-1.033-19.89-3.096-29.457z" fill="#FFCE63"></path>
	<path d="m262.56 190.67c2.516-9.01 3.773-18.401 3.773-28.168 0-14.702-2.744-28.448-8.23-41.24-5.49-12.787-12.988-23.992-22.508-33.61-9.514-9.615-20.692-17.145-33.531-22.583-11.854-5.02-24.5-7.716-37.939-8.103l-5.196 16.593c0.606-0.011 1.212-0.029 1.821-0.029 12.184 0 23.664 2.393 34.44 7.175 10.772 4.785 20.216 11.179 28.323 19.184 8.104 8.007 14.475 17.424 19.107 28.249 4.631 10.826 6.948 22.281 6.948 34.365 0 8.056-1.034 15.886-3.097 23.487-2.064 7.604-5.061 14.679-8.987 21.223-3.929 6.546-8.612 12.537-14.05 17.975-5.438 5.437-11.455 10.096-18.051 13.972-6.596 3.877-13.669 6.87-21.223 8.985s-15.357 3.174-23.414 3.174c-12.59 0-24.373-2.34-35.348-7.022-10.977-4.685-20.569-11.051-28.775-19.108-8.208-8.054-14.678-17.496-19.411-28.321-4.734-10.825-7.098-22.281-7.098-34.364 0-8.157 1.106-15.986 3.326-23.488 1.948-6.601 4.543-12.851 7.779-18.751l-17.847-2.069c-0.483 1.014-0.958 2.035-1.415 3.07-5.643 12.791-8.459 26.535-8.459 41.239 0 9.769 1.257 19.159 3.779 28.169 2.515 9.014 6.168 17.421 10.952 25.227 4.781 7.805 10.421 14.927 16.917 21.371 6.497 6.447 13.721 11.961 21.678 16.541 7.953 4.584 16.487 8.135 25.604 10.648 9.111 2.518 18.553 3.777 28.322 3.777 9.869 0 19.283-1.26 28.248-3.777 8.963-2.516 17.371-6.064 25.227-10.648 7.854-4.58 14.979-10.094 21.372-16.541 6.394-6.441 11.858-13.564 16.39-21.371 4.53-7.806 8.055-16.217 10.573-25.231z" fill="#FFCE63"></path>
	<path d="m51.008 208.95c-6.193-14.047-9.291-29.532-9.291-46.448 0-16.819 3.097-32.452 9.291-46.904 6.193-14.449 14.879-26.759 26.058-36.933l-20.242-20.09c-13.495 13.495-23.864 29.153-31.116 46.978-7.251 17.826-10.876 36.809-10.876 56.949 0 20.343 3.626 39.375 10.876 57.098 7.249 17.726 17.62 33.332 31.116 46.826l20.242-20.089c-11.181-10.876-19.865-23.338-26.058-37.387z" fill="#FFCE63"></path>
	<path d="m101.98 93.652-1.547-18.515c-5.497 3.682-10.617 7.851-15.354 12.515-5.244 5.162-9.886 10.785-13.938 16.859l30.839-10.859z" fill="#FFCE63"></path>
<path d="m163.52 46.416-34.438 38.308-26.021-22.768 2.863 34.256-49.483 17.424 49.873 5.783-1.083 34.333 28.912-31.442 38.35 1.837-26.063-23.16 17.09-54.571z" fill="#FFCE63"></path>
	<path d="m64.349 314.03c0-20.602 17.101-36.402 37.802-36.402 20.802 0 37.802 15.801 37.802 36.402 0 20.4-17 36.401-37.802 36.401-20.701 2e-3 -37.802-15.999-37.802-36.401zm59.804 0c0-13.001-10-22.303-22.001-22.303-12.101 0-22.001 9.401-22.001 22.303 0 12.9 9.901 22.302 22.001 22.302 12.001 0 22.001-9.401 22.001-22.302z" fill="#FFCE63"></path>
	<path d="m163.35 292.53v16.399h31.201v13.103h-31.201v27.201h-15.102v-70.404h49.903v13.7l-34.801 1e-3z" fill="#FFCE63"></path>
	<path d="m220.95 292.53v16.399h31.201v13.103h-31.201v27.201h-15.102v-70.404h49.902v13.7l-34.8 1e-3z" fill="#FFCE63"></path>
</svg>