<?xml version='1.0' encoding='utf-8'?>
<!-- Generator: Adobe Illustrator 16.0.3, SVG Export Plug-In . SVG Version: 6.00 Build 0)  --><svg xmlns="http://www.w3.org/2000/svg" xmlns:cc="http://creativecommons.org/ns#" xmlns:dc="http://purl.org/dc/elements/1.1/" xmlns:ns="&amp;ns_sfw;" xmlns:rdf="http://www.w3.org/1999/02/22-rdf-syntax-ns#" width="488.78px" height="425.2px" enable-background="new -172.5 510.1 488.778 425.199" version="1.1" viewBox="-172.5 510.1 488.78 425.2" xml:space="preserve">
<metadata>
	<rdf:RDF>
		<cc:Work rdf:about="">
			<dc:format>image/svg+xml</dc:format>
			<dc:type rdf:resource="http://purl.org/dc/dcmitype/StillImage"></dc:type>
			<dc:title></dc:title>
		</cc:Work>
	</rdf:RDF>
	<ns:sfw>
		<ns:slices></ns:slices>
		<ns:sliceSourceBounds x="14.172" y="-411.023" width="460.431" height="396.849" bottomLeftOrigin="true"></ns:sliceSourceBounds>
	</ns:sfw>
</metadata><g fill="#222221">
<path d="m300.7 892.44 7e-3 -6e-3 2e-3 -2e-3c-0.822-2.74-3.361-7.846-4.76-10.325-0.06-0.085-0.174-0.29-0.23-0.375-7.114-11.284-17.695-28.755-29.403-48.33l-31.81 17.415 17.163 29.244h-359.57l179.83-306.24 6.627 11.291c1.661-0.046 3.325-0.074 4.987-0.074 12.697 0 25.37 1.349 37.859 3.958l-16.255-27.271s-7.671-12.935-10.237-17.247c-0.779-1.313-2.362-3.959-3.145-5.264-0.346-0.571-1.053-1.708-1.384-2.285-0.116-0.203-0.304-0.613-0.432-0.8-1.746-2.416-5.481-7.253-7.99-8.847-2.222-1.406-7.413-3.015-10.04-3.015-2.609 0-7.806 1.609-10.02 3.015-2.509 1.594-6.15 6.497-7.974 8.847-0.065 0.08-0.158 0.274-0.216 0.36-26.804 42.503-102.9 172.67-102.9 172.67l-64.192 107.72-23.563 39.687s-7.743 12.978-10.325 17.303c-0.786 1.297-2.357 3.951-3.15 5.25-0.347 0.574-1.061 1.701-1.391 2.275-0.116 0.202-0.332 0.607-0.433 0.807-1.249 2.512-3.886 7.529-4.686 10.24-0.656 2.192-1.355 6.835-1.384 9.143-0.022 1.589 0.367 4.761 0.8 6.284 0.288 1.012 1.124 3.029 1.76 3.866 1.203 1.646 4.333 4.355 6.077 5.392 1.889 1.1 6.115 2.453 8.256 2.915 3.022 0.665 12.3 1.069 12.3 1.069h401.12c0.215 0 0.679 0.027 0.895 0 4.255-0.29 12.923-0.924 16.916-2.398 2.406-0.894 6.905-3.658 8.623-5.566 1.211-1.324 2.711-4.729 3.229-6.459 0.271-0.895 0.377-2.77 0.433-3.688 0.017-0.351 0.03-1.069 0-1.414-0.173-2.307-0.72-6.951-1.385-9.145z" fill="#000000"></path>
<path d="m155.97 795.7c16.058 28.008-6.505 73.962-37.12 73.962-14.604 0-22.046-10.834-22.046-23.674 0-17.479-2.839-31.396-8.496-43.53-1.286-2.765-2.898-3.93-5.436-3.369-1.256 0.234-2.631 0.627-3.849 1.29-1.928 1.067-3.375 2.967-2.673 5.609 1.417 5.328 12.61 38.784-17.219 55.884-28.007 16.059-73.959-6.505-73.959-37.121 0-14.603 10.833-22.046 23.67-22.046 17.477 0 31.398-2.837 43.531-8.495 2.762-1.285 3.927-2.896 3.368-5.435-0.179-1.163-0.612-2.577-1.289-3.852-1.07-1.927-2.966-3.371-5.609-2.672-5.329 1.418-38.785 12.612-55.886-17.215-16.057-28.007 6.506-73.943 37.122-73.943 14.604 0 22.045 10.833 22.045 23.671 0 17.462 2.838 31.379 8.495 43.514 1.292 2.774 2.909 3.938 5.461 3.362 1.23-0.318 2.601-0.752 3.8-1.269 1.938-1.068 3.403-2.97 2.699-5.623-1.423-5.328-12.615-38.768 17.217-55.869 28.007-16.058 73.959 6.506 73.959 37.105 0 14.603-10.832 22.046-23.673 22.046-17.477 0-31.395 2.837-43.529 8.496-2.766 1.287-3.93 2.899-3.365 5.443 0.295 1.455 0.688 2.635 1.285 3.84 1.068 1.928 2.967 3.374 5.611 2.674 5.33-1.417 38.785-12.611 55.886 17.217zm-81.505-25.779c-5.776 0-10.454 4.679-10.454 10.449 0 5.773 4.678 10.452 10.454 10.452 5.772 0 10.453-4.679 10.453-10.452 0-5.77-4.681-10.449-10.453-10.449z" fill="#000000"></path>
<path d="m248.51 803.51c7.671-37.986 2.023-77.115-16.404-111.77-21.059-39.605-56.291-68.643-99.207-81.763-23.211-7.096-47.158-9.067-70.52-6.061l-34.313 58.429c28.363-14.611 60.723-17.544 91.326-8.188 31.116 9.513 56.658 30.563 71.923 59.272 12.715 23.913 17.003 50.761 12.593 77.041l-24.063-7.038 32.589 59.527 59.528-32.592-23.452-6.853z" fill="#000000"></path>
</g></svg>