<?xml version='1.0' encoding='utf-8'?>
<!-- Generator: Adobe Illustrator 16.0.3, SVG Export Plug-In . SVG Version: 6.00 Build 0)  --><svg xmlns="http://www.w3.org/2000/svg" xmlns:cc="http://creativecommons.org/ns#" xmlns:dc="http://purl.org/dc/elements/1.1/" xmlns:rdf="http://www.w3.org/1999/02/22-rdf-syntax-ns#" width="237.83px" height="425.2px" version="1.2" viewBox="0 0 237.83 425.2" xml:space="preserve"><metadata><rdf:RDF><cc:Work rdf:about=""><dc:format>image/svg+xml</dc:format><dc:type rdf:resource="http://purl.org/dc/dcmitype/StillImage"></dc:type><dc:title></dc:title></cc:Work></rdf:RDF></metadata>
<path d="m118.92 340.16c-21.252 0-37.131-50.791-37.131-96.201 0-23.881 14.575-39.311 37.131-39.311s37.131 15.43 37.131 39.311c0 45.41-15.88 96.201-37.131 96.201zm0-118.48c-16.609 0-20.096 12.114-20.096 22.275 0 19.546 2.97 39.334 8.361 55.723 4.466 13.574 9.268 20.62 11.734 22.884 2.466-2.264 7.27-9.31 11.734-22.884 5.393-16.389 8.361-36.177 8.361-55.723 2e-3 -10.161-3.485-22.275-20.094-22.275z" fill="#000000"></path>
<path d="m118.92 56.693c-57.755 0-104.74 46.988-104.74 104.74 0 36.071 18.307 67.943 46.111 86.806-0.026-1.429-0.044-2.857-0.044-4.286 0-5.563 0.583-10.864 1.695-15.853-18.795-16.11-30.727-40.019-30.727-66.667 0-48.362 39.345-87.707 87.707-87.707 48.361 0 87.706 39.345 87.706 87.707 0 26.647-11.931 50.556-30.725 66.666 1.112 4.989 1.695 10.291 1.695 15.854 0 1.428-0.018 2.856-0.044 4.285 27.803-18.863 46.109-50.735 46.109-86.805 2e-3 -57.755-46.985-104.74-104.74-104.74z" fill="#000000"></path>
<path d="m81.438 195.69c-8.257-9.039-13.302-21.063-13.302-34.246 0-28 22.78-50.78 50.78-50.78 27.999 0 50.778 22.78 50.778 50.78 0 13.181-5.044 25.205-13.3 34.244 4.421 3.586 8.249 7.858 11.387 12.727 11.721-12.201 18.948-28.752 18.948-46.971 0-37.394-30.421-67.816-67.813-67.816-37.394 0-67.816 30.422-67.816 67.816 0 18.22 7.229 34.772 18.951 46.973 3.138-4.868 6.967-9.14 11.387-12.727z" fill="#000000"></path>
<path d="m141.64 161.46c0 12.562-10.178 22.731-22.724 22.731-12.553 0-22.726-10.169-22.726-22.731 0-12.556 10.173-22.727 22.726-22.727 12.546 0 22.724 10.171 22.724 22.727z" fill="#000000"></path>
</svg>