<?xml version='1.0' encoding='utf-8'?>
<!-- Generator: Adobe Illustrator 27.2.0, SVG Export Plug-In . SVG Version: 6.00 Build 0)  --><svg xmlns:cc="http://creativecommons.org/ns#" xmlns="http://www.w3.org/2000/svg" xmlns:rdf="http://www.w3.org/1999/02/22-rdf-syntax-ns#" xmlns:dc="http://purl.org/dc/elements/1.1/" xmlns:xlink="http://www.w3.org/1999/xlink" version="1.1" id="Vrstva_1" x="0px" y="0px" viewBox="0 0 524.4 425.2" style="enable-background:new 0 0 524.4 425.2;" xml:space="preserve" width="493.3208" height="400.0">
<style type="text/css">
	.st0{fill:#C73B26;}
	.st1{fill:#9FC7A3;}
</style>
<path class="st0" d="M516.6,197.7c0,70.3-56.6,126.9-126.9,126.9H134.6C64.3,324.6,7.9,268,7.9,197.7S64.3,70.8,134.6,70.8h253.7  C460.1,70.8,516.6,128.8,516.6,197.7L516.6,197.7z"></path>
<path class="st1" d="M351.2,326H134.6C64.3,326,7.9,269.5,7.9,199.1S64.3,72.3,134.6,72.3h216.4V326H351.2L351.2,326z"></path>
<g>
	<path d="M174.7,199.1c2.8,4.2,4.2,9.7,4.2,15.2c0,5.5-1.3,11-4.2,15.2s-6.9,8.3-12.4,11c-5.5,2.8-12.4,4.2-19.3,4.2   c-8.3,0-15.2-1.3-22-4.2c-5.5-2.8-11-6.9-15.2-12.4l12.4-6.9c6.9,6.9,15.2,11,24.9,11c4.2,0,8.3-1.3,12.4-2.8   c2.8-1.3,5.5-4.2,6.9-6.9c1.3-2.7,2.8-5.5,2.8-8.3c0-5.5-2.8-9.7-6.9-12.4c-4.2-2.8-11-4.2-20.7-4.2h-8.3v-13.8h11   c6.9,0,12.4-1.3,15.2-4.2c4.2-2.8,5.5-6.9,5.5-12.4c0-4.2-1.3-8.3-5.5-11c-4.2-2.8-8.3-4.2-13.8-4.2c-4.2,0-8.3,1.3-12.4,2.8   c-4,1.5-6.9,4.2-9.7,8.3l-12.4-6.9c4.2-5.5,8.3-9.7,15.2-12.4c5.5-2.8,12.4-4.2,19.3-4.2s13.8,1.3,19.3,4.2   c5.5,2.8,9.7,5.5,12.4,9.7c2.8,4.2,4.2,8.3,4.2,13.8c0,5.5-1.3,9.7-4.2,13.8s-5.5,6.9-11,9.7C166.4,190.9,171.9,195,174.7,199.1   L174.7,199.1z"></path>
	<path d="M254.7,241.8h-16.5l-19.3-24.7l-16.5,24.7h-16.5l26.2-35.9l-26.2-35.9h16.5l17.9,24.9l17.9-24.9h16.5l-26.2,35.9   L254.7,241.8z"></path>
</g>
<g>
	<path d="M396.6,141.3h11v100.6h-15.1v-84.1l-27.6,11l-6.9-11L396.6,141.3L396.6,141.3z"></path>
	<path d="M501.5,241.8h-16.5l-19.3-24.7l-17.9,24.7h-16.5l26.2-35.9l-26.2-35.9h16.5l17.9,24.9l17.9-24.9H500l-26.2,35.9   L501.5,241.8z"></path>
</g>
</svg>