<?xml version='1.0' encoding='utf-8'?>
<!-- Generator: Adobe Illustrator 16.0.0, SVG Export Plug-In . SVG Version: 6.00 Build 0)  --><svg xmlns="http://www.w3.org/2000/svg" xmlns:cc="http://creativecommons.org/ns#" xmlns:dc="http://purl.org/dc/elements/1.1/" xmlns:rdf="http://www.w3.org/1999/02/22-rdf-syntax-ns#" width="424px" height="425.2px" version="1.2" viewBox="0 0 424 425.2" xml:space="preserve"><metadata><rdf:RDF><cc:Work rdf:about=""><dc:format>image/svg+xml</dc:format><dc:type rdf:resource="http://purl.org/dc/dcmitype/StillImage"></dc:type><dc:title></dc:title></cc:Work></rdf:RDF></metadata>
<path d="m408.59 180.5c-1.254-7.76-5.028-23.082-7.512-30.544-2.435-7.332-8.505-21.61-12.056-28.47-3.516-6.786-11.572-19.797-16.08-25.962-4.494-6.14-14.429-17.706-19.805-23.088-5.376-5.383-16.96-15.315-23.094-19.81-6.159-4.513-19.184-12.59-25.975-16.098-6.88-3.551-21.157-9.604-28.495-12.043-7.438-2.471-22.71-6.233-30.445-7.487-7.971-1.291-24.111-2.589-32.184-2.589-8.063 0-24.192 1.304-32.151 2.589-7.748 1.254-23.044 5.01-30.494 7.487-7.319 2.434-21.567 8.492-28.421 12.043-6.786 3.514-19.81 11.59-25.975 16.098-6.152 4.495-17.774 14.427-23.168 19.81-5.383 5.376-15.315 16.948-19.811 23.088-4.513 6.165-12.571 19.177-16.079 25.962-3.551 6.86-9.616 21.139-12.056 28.47-2.483 7.462-6.233 22.784-7.487 30.544-1.285 7.959-2.589 24.075-2.589 32.133 0 8.065 1.298 24.181 2.589 32.125 1.254 7.748 5.01 23.07 7.487 30.521 2.439 7.351 8.499 21.604 12.056 28.481 3.514 6.779 11.566 19.816 16.079 25.977 4.495 6.135 14.428 17.705 19.811 23.094 5.395 5.39 17.016 15.297 23.168 19.793 6.165 4.52 19.189 12.59 25.975 16.115 6.854 3.551 21.095 9.61 28.421 12.045 7.45 2.457 22.747 6.207 30.494 7.475 7.965 1.266 24.082 2.607 32.151 2.607 8.07 0 24.213-1.316 32.184-2.607 7.735-1.268 23.008-5.018 30.445-7.475 7.338-2.435 21.615-8.494 28.495-12.045 6.778-3.525 19.814-11.597 25.975-16.115 6.134-4.496 17.718-14.429 23.094-19.793 5.376-5.389 15.311-16.959 19.805-23.094 4.508-6.158 12.564-19.195 16.08-25.977 3.551-6.877 9.608-21.131 12.056-28.481 2.471-7.448 6.258-22.771 7.512-30.521 1.291-7.944 2.583-24.063 2.583-32.125 0-8.057-1.292-24.179-2.583-32.133zm-115.36 170.79c-5.924 3.453-18.363 9.338-24.795 11.697-6.557 2.408-20.078 6.083-26.957 7.325-7.052 1.267-21.381 2.558-28.531 2.558-7.232-0.024-21.685-1.341-28.793-2.633-6.922-1.24-20.555-4.966-27.148-7.424-6.469-2.385-18.953-8.395-24.907-11.871-5.91-3.451-17.153-11.348-22.393-15.742-5.233-4.396-14.937-14.105-19.344-19.32-4.42-5.239-12.36-16.488-15.818-22.424-3.483-5.959-9.431-18.426-11.827-24.906-2.445-6.582-6.17-20.188-7.418-27.092-1.285-7.127-2.576-21.594-2.583-28.826-6e-3 -7.164 1.254-21.517 2.515-28.57 1.229-6.872 4.941-20.394 7.356-26.943 2.371-6.425 8.238-18.86 11.677-24.782 3.415-5.879 15.62-22.263 15.62-22.263l225.58 225.6s-16.365 12.193-22.237 15.619l3e-3 -3e-3zm77.478-110.6c-1.18 6.73-4.756 19.967-7.077 26.396-2.284 6.332-7.946 18.625-11.273 24.484-3.29 5.813-15.036 21.979-15.036 21.979s-1.526-1.516-2.036-2.037c-27.65-27.663-82.94-82.99-110.59-110.64-17.551-17.544-52.651-52.62-70.202-70.164-6.457-6.45-19.37-19.344-25.82-25.801-2.812-2.813-8.399-8.455-11.212-11.274-0.856-0.857-2.57-2.583-3.433-3.433-0.503-0.497-2.036-1.956-2.036-1.956s16.185-11.752 21.977-15.036c5.86-3.321 18.159-8.989 24.497-11.28 6.444-2.328 19.717-5.886 26.465-7.071 6.922-1.217 20.983-2.458 28.016-2.452 7.228 6e-3 21.705 1.297 28.818 2.583 6.903 1.248 20.512 4.973 27.092 7.418 6.481 2.415 19.021 8.418 24.994 11.914 5.897 3.452 17.098 11.348 22.324 15.75 5.229 4.395 14.925 14.08 19.319 19.307 4.408 5.24 12.367 16.482 15.817 22.399 3.478 5.96 9.412 18.457 11.82 24.919 2.459 6.605 6.258 20.245 7.5 27.179 1.278 7.102 2.508 21.542 2.508 28.756 2e-3 7.046-1.215 21.126-2.432 28.055v5e-3z" fill="#000000"></path>
<g fill="#1D1D1B">
	<path d="m215.28 241.49c-1.381 1.711-3.406 4.1-4.438 5.46-2.161 2.855-6.37 8.617-8.264 11.646-1.781 2.83-6.443 11.746-6.443 11.746s-4.39-18.625-6.295-24.709c-0.031-0.1-0.112-0.322-0.149-0.422-1.726-4.992-4.842-15.147-6.357-20.238-1.272-4.26-4.346-12.714-4.836-17.141-0.1-0.908-0.03-1.287 0.17-2.645l-40.818-41.483c-1.374 0.894-2.674 1.917-3.528 2.546-2.8 2.067-7.704 7.059-9.921 9.734-1.533 1.85-4.141 5.898-5.333 7.984-1.167 2.042-3.209 6.295-4.104 8.468-1.142 2.775-3.117 8.449-3.88 11.348-1.198 4.526-3.309 13.72-3.495 18.407-0.068 1.765 0.025 5.463 0.782 7.054 0.397 0.844 1.794 2.159 2.583 2.606 0.329 0.198 1.092 0.372 1.471 0.422 0.615 0.05 1.875 0 2.452-0.224 0.906-0.349 2.558-1.564 3.085-2.385 0.851-1.316 1.161-4.543 1.471-6.084 0.491-2.384 1-7.281 1.608-9.652 0.553-2.154 2.055-6.351 2.93-8.395 0.789-1.831 2.614-5.37 3.644-7.077 1.378-2.285 4.451-6.643 6.097-8.741 0.242-0.311 0.646-1.161 1.043-1.192 0.764-0.062 2.073 1.242 2.365 1.95 1.726 4.172-0.993 13.527-1.67 17.991-0.497 3.272-1.757 9.786-2.719 12.958-0.907 2.955-3.123 8.791-4.637 11.473-0.646 1.143-2.229 3.253-3.129 4.195-1.348 1.44-4.414 3.924-6.028 5.041-3.402 2.336-10.709 6.258-14.409 8.097-2.663 1.315-8.17 3.601-10.933 4.718-0.428 0.174-1.328 0.422-1.738 0.621-1.428 0.77-4.134 2.559-5.252 3.725-0.782 0.795-2.03 2.731-2.452 3.774-0.348 0.845-0.72 2.707-0.708 3.626 0.012 1.143 0.509 3.428 0.975 4.471 0.646 1.465 2.483 4.172 3.712 5.189 0.919 0.77 3.191 1.713 4.352 1.986 0.882 0.197 2.726 0.174 3.632 0.123 0.392-0.023 1.167-0.174 1.54-0.272 5.283-1.64 15.247-6.63 20.021-9.411 5.003-2.904 14.428-9.66 18.897-13.335 2.632-2.161 7.63-6.829 9.871-9.388 1.18-1.365 3.253-4.295 4.191-5.811 1.832-3.005 2.868-12.416 6.375-12.541 2.198-0.074 3.532 5.588 4.495 7.574 1.999 4.122 5.264 12.665 6.636 17.012 1.292 4.12 3.241 12.514 4.06 16.735 0.851 4.371 1.925 13.261 2.583 17.681 0.224 1.541 0.552 4.596 0.913 6.109 0.224 0.919 0.795 2.779 1.211 3.625 0.571 1.191 1.831 3.576 2.849 4.421 1.807 1.465 6.364 3.327 8.691 3.353 1.664 0.024 4.973-1.144 6.295-2.16 1.359-1.043 3.185-4.098 3.843-5.662 0.254-0.621 0.465-1.938 0.496-2.582 0.174-3.627-1.341-14.379-1.341-14.379s3.874 2.98 5.395 3.502c1.421 0.496 4.526 0.818 6.016 0.57 0.695-0.123 2.011-0.72 2.583-1.143 0.596-0.445 1.515-1.639 1.913-2.283 0.224-0.349 0.483-1.117 0.694-1.49 1.366-2.385 4.507-7.004 6.308-9.113 2.187-2.584 7.238-7.178 9.785-9.438 0.187-0.174 0.582-0.472 0.781-0.619 0.205-0.168 0.475-0.393 0.783-0.649l-16.72-17.277z" fill="#000000"></path>
	<path d="m336.39 197.1c-0.224-0.913-1.18-2.57-1.764-3.303-0.819-1.024-2.867-2.713-3.973-3.427-1.838-1.198-5.849-3.154-7.959-3.787-0.087-0.024-0.285-0.037-0.373-0.062-0.781-0.223-2.297-0.894-2.992-1.329-2.646-1.676-7.399-5.823-9.522-8.12-4.357-4.706-11.262-15.595-15.109-20.723-2.111-2.813-6.098-8.667-8.605-11.125-1.662-1.633-5.426-4.457-7.486-5.538-1.688-0.881-5.377-1.912-7.2-2.446-0.497-0.143-1.788-0.019-1.976-0.497-0.1-0.273 0.397-0.782 0.621-0.956 0.161-0.13 0.583-0.198 0.782-0.285 0.62-0.279 1.912-0.838 2.435-1.279 0.496-0.416 1.267-1.465 1.563-2.023 0.931-1.726 2.233-5.494 2.646-7.413 0.781-3.657 1.129-11.174 1.191-14.912 0-0.261-0.014-0.801-0.063-1.056-0.285-1.552-1.217-4.612-1.963-6.01-0.496-0.937-1.8-2.65-2.595-3.364-0.882-0.801-2.942-2.111-4.062-2.521-1.401-0.516-4.407-0.95-5.896-0.895-2.918 0.106-8.841 1.18-11.398 2.583-2.086 1.148-5.586 4.65-6.767 6.717-1.364 2.391-2.459 7.947-2.682 10.69-0.187 2.365-0.013 7.22 0.771 9.461 0.483 1.372 2.209 3.855 3.289 4.83 0.809 0.727 2.918 1.397 3.801 2.024 0.211 0.148 0.621 0.472 0.744 0.695 0.1 0.192 0.148 0.651 0.137 0.869-0.024 0.285-0.211 0.851-0.336 1.104-0.234 0.472-0.744 1.459-1.19 1.738-0.919 0.584-3.29 0.435-4.347 0.708-1.315 0.335-3.873 1.248-5.104 1.813-2.855 1.31-8.331 4.464-10.926 6.246-2.781 1.912-8.021 6.233-10.505 8.53-3.253 3.018-9.635 9.294-12.242 12.876-0.174 0.229-0.459 0.714-0.552 0.98-0.254 0.764-0.472 2.359-0.484 3.166-0.034 1.85-0.279 2.034 0.035 4.789l60.985 60.833c3.562-0.443 5.427-1.315 7.637-0.194 2.109 1.066 5.314 7.771 5.314 7.771l1.866 7.308 28.652 28.996-5.104-11.819-5.115-20.213s-4.434-11.921-3.985-16.019c0.025-0.224 0.311-0.597 0.422-0.794 0.809-1.44 2.446-4.321 3.191-5.786 0.063-0.149 0.198-0.423 0.235-0.571v-0.074c-0.013-0.074-0.063-0.199-0.088-0.272-0.174-0.423-0.521-1.315-0.694-1.738-1.255-3.017-3.961-8.952-5.178-11.976-1.738-4.314-5.065-13.006-6.494-17.432-0.707-2.21-2.012-6.68-2.434-8.964-0.546-2.895-3.961-10.641-1.217-11.696 2.434-0.938 4.396 6.487 6.146 8.418 2.258 2.489 7.313 6.953 10.02 8.94 2.817 2.067 8.938 5.513 12.031 7.139 2.223 1.173 6.767 3.358 9.126 4.222 1.801 0.658 5.513 1.807 7.411 2.023 1.031 0.118 3.18 0.081 4.197-0.148 0.422-0.1 1.268-0.41 1.603-0.683 0.509-0.404 1.278-1.496 1.478-2.111 0.299-0.928 0.287-2.958 0.051-3.908zm-99.802-26.272c-0.224 3.34-1.268 9.964-1.949 13.235-0.621 2.931-2.26 8.698-3.166 11.547-0.435 1.347 0.085 2.1-1.306 2.324-1.577 0.248-4.459-2.369-5.167-3.802-0.571-1.167-0.432-1.985-0.654-3.264-0.621-3.657-2.73-11.28-1.49-14.775 1.104-3.092 6.692-7.276 9.264-9.3 1.006-0.789 3.277-3.291 4.396-2.67 1.463 0.813 0.183 5.035 0.072 6.705z" fill="#000000"></path>
	<path d="m184.5 149.96c0.646-2.471 1.154-7.648 0.912-10.193-0.229-2.446-1.465-7.338-2.719-9.449-1.019-1.707-3.936-4.594-5.662-5.587-1.527-0.875-5.047-1.751-6.81-1.825-1.701-0.074-5.084 0.658-6.705 1.192-0.987 0.323-2.85 1.248-3.713 1.825-0.606 0.404-1.124 0.828-2.083 1.675l25.977 25.907c0.362-1.282 0.595-2.754 0.803-3.545z" fill="#000000"></path>
</g>
</svg>