<?xml version='1.0' encoding='utf-8'?>
<!-- Generator: Adobe Illustrator 16.0.0, SVG Export Plug-In . SVG Version: 6.00 Build 0)  --><svg xmlns="http://www.w3.org/2000/svg" xmlns:cc="http://creativecommons.org/ns#" xmlns:dc="http://purl.org/dc/elements/1.1/" xmlns:ns="&amp;ns_sfw;" xmlns:rdf="http://www.w3.org/1999/02/22-rdf-syntax-ns#" width="312px" height="369px" enable-background="new 0 0 312 369" version="1.1" viewBox="0 0 312 369" xml:space="preserve">
<metadata>
	<rdf:RDF>
		<cc:Work rdf:about="">
			<dc:format>image/svg+xml</dc:format>
			<dc:type rdf:resource="http://purl.org/dc/dcmitype/StillImage"></dc:type>
			<dc:title></dc:title>
		</cc:Work>
	</rdf:RDF>
	<ns:sfw>
		<ns:slices></ns:slices>
		<ns:sliceSourceBounds x="279.769" y="201.274" width="283.462" height="238.179" bottomLeftOrigin="true"></ns:sliceSourceBounds>
	</ns:sfw>
</metadata>
<path d="m75.683 103.6h-3e-3 3e-3l58.655-53.699c0.99-0.768 1.738-1.798 1.738-3.153 0-2.307-1.881-4.206-4.188-4.206-1.07 0-1.979 0.484-2.708 1.131l-84.736 59.927h-29.175v177.12h283.46v-177.12h-223.05zm149.36 153.67c-24.932 0-45.168-20.222-45.168-45.128 0-24.95 20.236-45.172 45.168-45.172 24.93 0 45.146 20.222 45.146 45.172 2e-3 24.907-20.216 45.128-45.146 45.128zm54.633-116.44h-245.33v-19.793h245.33v19.793z" fill="#000000"></path>
</svg>