<?xml version='1.0' encoding='utf-8'?>
<svg xmlns="http://www.w3.org/2000/svg" xmlns:cc="http://creativecommons.org/ns#" xmlns:dc="http://purl.org/dc/elements/1.1/" xmlns:rdf="http://www.w3.org/1999/02/22-rdf-syntax-ns#" enable-background="new 0 0 416.57 425.2" version="1.1" viewBox="0 0 416.57 425.2" xml:space="preserve" width="391.88147" height="400.0"><metadata><rdf:RDF><cc:Work rdf:about=""><dc:format>image/svg+xml</dc:format><dc:type rdf:resource="http://purl.org/dc/dcmitype/StillImage"></dc:type><dc:title></dc:title></cc:Work></rdf:RDF></metadata>

	<path d="m190.14 186.66v68.11h95.82v-68.11h-95.82zm112.59 71.69h3.37c17.29 0 29.13 15.33 29.13 30.53v58.13c0 14.73 9.33 21.45 18.03 21.45 9.21 0 18.51-7.36 18.51-21.45 0-10.82-0.65-22.73-1.41-36.53-0.96-17.29-2.95-37.16-3.27-60.62-13.6-2.62-23.15-11.04-23.15-19.25v-30.62h8.88v-30.06h10.78v30.06h19.15v-30.06h10.78v30.06h8.87v30.62c0 8.13-9.44 16.41-22.81 19.14 0.32 25.48 2.44 47.29 3.41 64.72 0.72 12.72 1.32 23.65 1.32 32.55 0 20.96-15.69 33.47-30.86 33.47-8 0-15.49-3.06-21.12-8.61-3.54-3.42-9.53-11.18-9.53-24.86v-58.13c0-8.97-8.68-17.18-16.5-17.18h-3.57v122.6h17.38v16.72h-164.17v-16.73h17.5v-224.37h129.28v88.42z"></path>
	<path d="m155.56 152.04 77.19 0.28c0-0.16 0.12-0.31 0.12-0.47 0-60.39-48.95-109.33-109.37-109.33-52.17 0-95.63 36.56-106.53 85.46-0.08 0.04-0.16 0.08-0.24 0.16-1.67 7.65-2.56 15.56-2.56 23.71 0 28.92 11.41 54.99 29.73 74.56h111.66v-74.37zm-22.04 14.09c-2.29 0.81-4.7 1.47-7.26 1.47-11.72 0-21.19-9.51-21.19-21.19 0-2.95 0.58-5.74 1.67-8.31l-49.57-51.84 5.48-5.47 51.19 48.9c3.53-2.64 7.69-4.47 12.42-4.47 11.68 0 21.19 9.47 21.19 21.19 0 4.35-1.67 8.23-3.96 11.6l10.75 10.25-9.55 9.55-11.17-11.68z"></path>

</svg>