<?xml version='1.0' encoding='utf-8'?>
<!-- Generator: Adobe Illustrator 27.2.0, SVG Export Plug-In . SVG Version: 6.00 Build 0)  --><svg xmlns:cc="http://creativecommons.org/ns#" xmlns="http://www.w3.org/2000/svg" xmlns:rdf="http://www.w3.org/1999/02/22-rdf-syntax-ns#" xmlns:dc="http://purl.org/dc/elements/1.1/" xmlns:xlink="http://www.w3.org/1999/xlink" version="1.2" baseProfile="tiny" id="Vrstva_1" x="0px" y="0px" viewBox="0 0 850.4 425.2" overflow="visible" xml:space="preserve" width="800.0" height="400.0">
<path d="M247.1,132.7c-56-56-147-56-203,0s-56,147,0,203l7.3,7.3l7.3-7.3h0L81,313.5l-14.7-14.7l-8.8,8.8l-9.5,0.9  c-14.5-19-22.7-41.3-24.6-64h20.5v-20.7H23.3c1.9-22.7,10.1-45,24.6-64l25.7,2.4l-2.4-25.7c19-14.5,41.3-22.7,64-24.6v20.5H156  v-20.5c22.7,1.9,45,10.1,64,24.6l-2.4,25.7l25.7-2.4c14.5,19,22.7,41.3,24.6,64h-20.5v20.7h20.5c-1.9,22.7-10.1,45-24.6,64l-9.5-0.9  l-8.8-8.8l-14.7,14.7l29.5,29.5l7.3-7.3C303.1,279.7,303.1,188.6,247.1,132.7L247.1,132.7L247.1,132.7z"></path>
<path d="M138.4,211.8l-37.7-37.7l-22.4-7.2l7.2,22.3l37.7,37.7c-2.6,8.1-0.7,17.4,5.7,23.8c9.2,9.2,24.1,9.2,33.2,0  c9.2-9.2,9.2-24.1,0-33.2C155.8,211.1,146.5,209.2,138.4,211.8L138.4,211.8z"></path>
<polygon points="301.8,100.8 325.9,76.7 303,53.9 278.9,78 265,64.1 265,114.8 315.7,114.8 "></polygon>
<path d="M397.2,323.9c-15-11.6-26.9-27.5-35.6-47.5c-8.7-20-13.1-42-13.1-66c0-24.5,4.4-46.7,13.1-66.7c8.7-20,20.5-35.7,35.5-47.1  c14.9-11.4,31.5-17.1,49.6-17.1c18.3,0,35,5.8,50,17.3c15,11.5,26.8,27.3,35.3,47.3c8.5,20,12.8,42.1,12.8,66.4  c0,23.7-4.3,45.6-12.8,65.6c-8.5,20-20.3,35.9-35.3,47.7c-15,11.8-31.7,17.6-50,17.6C428.7,341.4,412.2,335.5,397.2,323.9  L397.2,323.9z M481.9,294.8c10.5-8,18.8-19.4,24.8-34c6-14.6,9-31.4,9-50.4c0-19.7-3-36.7-9-51.3c-6-14.5-14.3-25.7-24.8-33.4  c-10.5-7.8-22.3-11.7-35.2-11.7c-12.9,0-24.7,4-35.2,11.9c-10.5,7.9-18.8,19.2-24.8,33.8c-6,14.6-9,31.5-9,50.7  c0,19.2,3,36.1,9,50.7c6,14.6,14.3,25.9,24.8,33.8c10.5,7.9,22.3,11.9,35.2,11.9C459.6,306.8,471.4,302.8,481.9,294.8L481.9,294.8z"></path>
<path d="M698.1,116.9h-93.9v76.3H683v33.1h-78.8V337h-28.1V83.8h121.9L698.1,116.9L698.1,116.9z"></path>
<path d="M845.9,116.9H752v76.3h78.8v33.1H752V337H724V83.8h121.9V116.9L845.9,116.9z"></path>
</svg>