<?xml version='1.0' encoding='utf-8'?>
<!-- Generator: Adobe Illustrator 16.0.0, SVG Export Plug-In . SVG Version: 6.00 Build 0)  --><svg xmlns="http://www.w3.org/2000/svg" xmlns:cc="http://creativecommons.org/ns#" xmlns:dc="http://purl.org/dc/elements/1.1/" xmlns:ns="&amp;ns_sfw;" xmlns:rdf="http://www.w3.org/1999/02/22-rdf-syntax-ns#" width="472px" height="392px" enable-background="new 0 0 472 392" version="1.1" viewBox="0 0 472 392" xml:space="preserve">
<metadata>
	<ns:sfw>
		<ns:slices></ns:slices>
		<ns:sliceSourceBounds x="215.175" y="174.154" width="409.325" height="242.691" bottomLeftOrigin="true"></ns:sliceSourceBounds>
	</ns:sfw>
<rdf:RDF><cc:Work rdf:about=""><dc:format>image/svg+xml</dc:format><dc:type rdf:resource="http://purl.org/dc/dcmitype/StillImage"></dc:type><dc:title></dc:title></cc:Work></rdf:RDF></metadata>
	<path d="m331.36 216.92c0.13 1.059 0.198 2.082 0.198 3.076v2.875c0 5.821-0.53 9.985-1.591 12.5-1.062 2.514-2.117 4.299-3.178 5.354-5.958 5.951-13.539 10.578-22.739 13.888-9.202 3.309-19.033 4.959-29.491 4.959h-47.666c-2.118 4.237-4.733 8.045-7.845 11.42-3.113 3.377-6.653 6.323-10.625 8.838-3.972 2.518-8.275 4.438-12.909 5.76-4.636 1.324-9.4 1.986-14.299 1.986-10.327 0-19.596-2.646-27.804-7.943-8.211-5.295-14.435-12.246-18.668-20.854h-104.07v-18.074h98.904c-0.134-0.793-0.233-1.588-0.298-2.383-0.068-0.795-0.101-1.521-0.101-2.187 0-7.147 1.356-13.867 4.071-20.158 2.712-6.284 6.42-11.78 11.122-16.481 4.698-4.699 10.228-8.406 16.583-11.121 6.354-2.713 13.108-4.072 20.257-4.072 7.15 0 13.834 1.359 20.061 4.072 6.222 2.715 11.683 6.422 16.384 11.121 4.696 4.701 8.407 10.195 11.122 16.481 2.712 6.291 4.071 13.011 4.071 20.158 0 0.928-0.034 1.822-0.102 2.683-0.066 0.862-0.167 1.821-0.298 2.881h42.104c3.045 0 6.285-0.23 9.729-0.695 3.441-0.463 6.883-1.223 10.328-2.283 3.441-1.059 6.752-2.385 9.93-3.973 3.18-1.59 6.023-3.574 8.54-5.959 0.266-0.66 0.397-1.455 0.397-2.383v-3.179c0-1.721-0.068-3.674-0.199-5.858-0.133-2.187-0.332-4.271-0.596-6.256-0.269-1.984-0.564-3.806-0.896-5.461-0.332-1.654-0.693-2.882-1.093-3.677-1.458-2.91-2.551-6.649-3.276-11.221-0.729-4.566-1.291-9.035-1.688-13.404s-0.63-8.174-0.695-11.42c-0.066-3.244-0.099-4.996-0.099-5.264 0-1.986-1.161-3.805-3.478-5.461-2.316-1.654-5.164-3.146-8.54-4.469-3.376-1.322-6.949-2.414-10.725-3.277-3.773-0.859-7.051-1.488-9.831-1.887-4.369-0.795-8.341-1.589-11.916-2.386-3.575-0.793-7.547-2.184-11.916-4.17-4.369-1.983-9.666-4.732-15.888-8.24-6.228-3.508-14.235-8.308-24.031-14.399-7.814-4.896-16.852-8.804-27.109-11.718-10.262-2.91-21.12-5.129-32.571-6.652-11.452-1.521-23.171-2.514-35.15-2.979-11.984-0.463-23.534-0.695-34.656-0.695-9.269 0-17.908 0.1-25.917 0.298-8.012 0.198-15.525 0.298-22.542 0.298v-17.874c6.883 0 14.464-0.064 22.74-0.197 8.271-0.131 17.109-0.199 26.513-0.199 11.649 0 23.764 0.267 36.344 0.793 12.577 0.527 24.956 1.654 37.141 3.373 12.18 1.72 23.832 4.199 34.954 7.438 11.122 3.24 21.052 7.572 29.79 12.993 9.397 5.952 16.979 10.582 22.74 13.891 5.76 3.308 10.558 5.787 14.397 7.438 3.838 1.654 7.182 2.813 10.029 3.472 2.846 0.661 6.122 1.257 9.83 1.785 1.456 0.267 3.604 0.63 6.455 1.093 2.846 0.461 6.058 1.188 9.632 2.18 3.575 0.994 7.215 2.315 10.924 3.97 3.705 1.654 7.081 3.636 10.128 5.953 3.045 2.313 5.563 5.123 7.547 8.432 1.986 3.308 2.979 7.074 2.979 11.308 0 3.04 0.1 6.28 0.298 9.721 0.198 3.438 0.462 6.713 0.794 9.82 0.329 3.108 0.761 5.918 1.291 8.432 0.526 2.514 1.124 4.363 1.788 5.555 0.794 1.721 1.489 3.705 2.085 5.953 0.596 2.25 1.022 4.465 1.291 6.646 0.264 2.184 0.496 4.165 0.695 5.948 0.207 1.785 0.308 3.143 0.308 4.067zm-150.14 50.994c4.369 0 8.472-0.824 12.313-2.482 3.838-1.651 7.181-3.938 10.027-6.852 2.848-2.91 5.097-6.287 6.752-10.129 1.654-3.838 2.482-7.943 2.482-12.313s-0.829-8.506-2.482-12.414c-1.655-3.901-3.905-7.313-6.752-10.227-2.849-2.912-6.189-5.195-10.027-6.854-3.844-1.651-7.944-2.481-12.313-2.481-4.502 0-8.708 0.83-12.611 2.481-3.905 1.656-7.281 3.941-10.128 6.854-2.849 2.914-5.099 6.324-6.752 10.227-1.655 3.908-2.481 8.045-2.481 12.414s0.826 8.476 2.481 12.313c1.654 3.842 3.904 7.219 6.752 10.129 2.848 2.914 6.224 5.197 10.128 6.852 3.904 1.657 8.11 2.482 12.611 2.482zm142.6-4.17c5.688-1.191 10.954-3.244 15.788-6.156 4.832-2.912 9.035-6.521 12.609-10.824 3.575-4.301 6.355-9.137 8.342-14.498 1.987-5.36 2.979-11.021 2.979-16.979 0-5.691-1.062-11.388-3.178-17.08h15.293c1.455 5.828 2.185 11.52 2.185 17.08 0 6.887-1.025 13.438-3.078 19.662-2.055 6.225-4.898 11.916-8.54 17.077-3.644 5.164-7.979 9.701-13.009 13.605-5.033 3.906-10.523 6.984-16.481 9.234l-12.91-11.121zm26.015 23.037c6.485-3.31 12.412-7.414 17.774-12.313 5.36-4.896 9.995-10.428 13.9-16.584 3.904-6.156 6.917-12.84 9.036-20.059 2.117-7.215 3.178-14.729 3.178-22.541 0-2.646-0.133-5.328-0.396-8.043-0.27-2.713-0.664-5.396-1.192-8.045l14.498-0.992c0.528 2.778 0.925 5.596 1.192 8.438 0.264 2.851 0.396 5.729 0.396 8.642 0 8.735-1.126 17.146-3.376 25.223-2.253 8.076-5.462 15.623-9.632 22.641-4.171 7.021-9.17 13.404-14.995 19.164-5.827 5.763-12.313 10.691-19.463 14.798l-10.92-10.329zm24.427 22.441c7.68-4.897 14.663-10.69 20.953-17.377 6.287-6.684 11.685-14.065 16.188-22.145 4.5-8.074 7.976-16.685 10.427-25.818 2.448-9.135 3.674-18.668 3.674-28.598 0-5.824-0.396-11.521-1.19-17.08h14.498c0.795 5.561 1.19 11.256 1.19 17.08 0 10.856-1.325 21.315-3.972 31.379-2.65 10.063-6.355 19.531-11.122 28.397-4.769 8.873-10.525 17.047-17.278 24.527-6.752 7.48-14.299 14.066-22.641 19.762l-10.727-10.127z" fill="#000000"></path>
</svg>