<?xml version='1.0' encoding='utf-8'?>
<!-- Generator: Adobe Illustrator 16.0.0, SVG Export Plug-In . SVG Version: 6.00 Build 0)  --><svg xmlns="http://www.w3.org/2000/svg" xmlns:cc="http://creativecommons.org/ns#" xmlns:dc="http://purl.org/dc/elements/1.1/" xmlns:rdf="http://www.w3.org/1999/02/22-rdf-syntax-ns#" width="268.67px" height="466px" version="1.2" viewBox="0 0 268.67 466" xml:space="preserve"><metadata><rdf:RDF><cc:Work rdf:about=""><dc:format>image/svg+xml</dc:format><dc:type rdf:resource="http://purl.org/dc/dcmitype/StillImage"></dc:type><dc:title></dc:title></cc:Work></rdf:RDF></metadata>
<path d="m190.28 434.38h-111.22c-51.959 0-66.798-57.196-67.385-87.438-0.061-3.164 1.152-6.217 3.367-8.476 2.215-2.258 5.245-3.53 8.408-3.53h222.44c3.162 0 6.192 1.272 8.406 3.53 2.217 2.259 3.43 5.312 3.368 8.476-0.587 30.242-15.427 87.438-67.384 87.438zm-153.96-75.894c2.676 18.658 11.794 52.341 42.733 52.341h111.22c30.629 0 39.887-33.72 42.661-52.341h-196.62 6e-3z" fill="#000000"></path>
<path d="m219.89 316.3h-170.43c-1.69 0-3.362-0.364-4.899-1.067-9.208-4.213-22.649-18.702-25.21-29.605-2.558-10.876-1.055-81.544-0.241-88.879 6.011-54.108 30.695-90.458 49.977-90.458h131.18c19.281 0 43.967 36.349 49.977 90.458 0.814 7.339 2.315 78.012-0.238 88.881-2.563 10.901-16.004 25.391-25.211 29.604-1.538 0.703-3.209 1.067-4.9 1.067h-5e-3zm-167.23-23.553h164.02c3.798-2.866 9.567-9.644 10.396-12.547 1.4-7.623 0.671-72.563-0.252-80.854-4.881-43.941-22.375-66.018-27.95-69.504h-128.41c-5.574 3.486-23.07 25.563-27.952 69.504-0.921 8.288-1.652 73.227-0.21 81.031 0.793 2.754 6.557 9.509 10.353 12.37h6e-3z" fill="#000000"></path>
<path d="m161.99 86.167h-54.628c-14.002 0-34.835-10.061-34.838-37.781-1e-3 -8.597 4.312-16.056 11.831-20.464 6.431-3.769 13.659-4.561 18.591-4.561h63.462c4.931 0 12.158 0.792 18.589 4.561 7.522 4.409 11.835 11.868 11.833 20.466-4e-3 27.718-20.836 37.779-34.84 37.779zm-65.914-37.817v0.034c2e-3 13.205 8.639 14.231 11.286 14.231h54.501c5.221-0.196 11.414-2.832 11.414-14.231v-0.034c-0.771-0.539-3.131-1.438-6.869-1.438h-63.462c-3.741 1e-3 -6.101 0.899-6.87 1.438z" fill="#000000"></path>
</svg>