<?xml version='1.0' encoding='utf-8'?>
<!-- Generator: Adobe Illustrator 16.0.0, SVG Export Plug-In . SVG Version: 6.00 Build 0)  --><svg xmlns="http://www.w3.org/2000/svg" xmlns:cc="http://creativecommons.org/ns#" xmlns:dc="http://purl.org/dc/elements/1.1/" xmlns:ns0="&amp;ns_sfw;" xmlns:rdf="http://www.w3.org/1999/02/22-rdf-syntax-ns#" width="311.81px" height="425.2px" enable-background="new 0 0 311.811 425.2" version="1.1" viewBox="0 0 311.81 425.2" xml:space="preserve">
<metadata>
	<rdf:RDF>
		<cc:Work rdf:about="">
			<dc:format>image/svg+xml</dc:format>
			<dc:type rdf:resource="http://purl.org/dc/dcmitype/StillImage"></dc:type>
			<dc:title></dc:title>
		</cc:Work>
	</rdf:RDF>
	<ns0:sfw>
		<ns0:slices></ns0:slices>
		<ns0:sliceSourceBounds x="280.193" y="192.04" width="280.616" height="283.465" bottomLeftOrigin="true">
			</ns0:sliceSourceBounds>
	</ns0:sfw>
	<ns0:sfw>
		<ns0:slices></ns0:slices>
		<ns0:sliceSourceBounds x="280.785" y="169.945" width="280.62" height="283.459" bottomLeftOrigin="true"></ns0:sliceSourceBounds>
	</ns0:sfw>
</metadata>
<path d="m296.81 340.16h-280.62v-283.46h280.61v283.46h0.01zm-270.48-273.33v262.87h260.34v-262.87h-260.34zm169.54 152.91 31.85 10.139c-4.859 17.644-12.992 30.952-24.398 39.933-5.709 4.434-12.205 7.658-19.491 9.664-7.288 2.008-15.269 3.065-23.927 3.17-10.773 0-20.678-1.9-29.709-5.705-9.031-3.803-16.852-9.27-23.45-16.398-6.604-7.131-11.756-15.816-15.452-26.066-3.697-10.244-5.546-21.756-5.546-34.539 0-13.521 1.849-25.592 5.546-36.208 3.696-10.615 8.874-19.568 15.531-26.857 6.656-7.288 14.657-12.859 24.002-16.717 9.354-3.854 19.73-5.783 31.139-5.783 20.068 0 36.284 5.862 48.644 17.59 7.289 7.076 12.888 17.111 16.802 30.104l-32.646 7.764c-2.115-8.558-6.261-15.264-12.438-20.125-6.175-4.855-13.548-7.288-22.104-7.288-6.021 0-11.516 1.057-16.479 3.171-4.966 2.113-9.242 5.414-12.834 9.901-3.594 4.49-6.366 10.195-8.318 17.112-1.955 6.92-2.929 15.186-2.929 24.799 0 10.457 0.974 19.331 2.929 26.62 1.953 7.289 4.725 13.181 8.318 17.67 3.592 4.488 7.815 7.765 12.676 9.824s10.248 3.09 16.163 3.09c8.556 0 16.002-2.746 22.34-8.241 6.333-5.498 10.932-14.372 13.781-26.624z" fill="#000000"></path>
</svg>