<?xml version='1.0' encoding='utf-8'?>
<!-- Generator: Adobe Illustrator 16.0.0, SVG Export Plug-In . SVG Version: 6.00 Build 0)  --><svg xmlns="http://www.w3.org/2000/svg" xmlns:cc="http://creativecommons.org/ns#" xmlns:dc="http://purl.org/dc/elements/1.1/" xmlns:ns="&amp;ns_sfw;" xmlns:rdf="http://www.w3.org/1999/02/22-rdf-syntax-ns#" width="673px" height="595.28px" enable-background="new 0 0 673 595.281" version="1.1" viewBox="0 0 673 595.28" xml:space="preserve">
<metadata>
	<ns:sfw>
		<ns:slices></ns:slices>
		<ns:sliceSourceBounds x="247.247" y="173" width="282.474" height="282" bottomLeftOrigin="true"></ns:sliceSourceBounds>
	</ns:sfw>
	<rdf:RDF>
		<cc:Work rdf:about="">
			<dc:format>image/svg+xml</dc:format>
			<dc:type rdf:resource="http://purl.org/dc/dcmitype/StillImage"></dc:type>
			<dc:title></dc:title>
		</cc:Work>
	</rdf:RDF>
	<ns:sfw>
		<ns:slices></ns:slices>
		<ns:sliceSourceBounds x="166.4" y="42.382" width="511.091" height="510.236" bottomLeftOrigin="true"></ns:sliceSourceBounds>
	</ns:sfw>
</metadata>
<path d="m82.4 297.78c0-23.413 3.037-46.015 9.135-67.812 6.089-21.796 14.653-42.119 25.698-60.961 11.04-18.843 24.365-36.069 39.975-51.68 15.602-15.605 32.837-28.93 51.681-39.97 18.848-11.04 39.115-19.604 60.819-25.698 21.699-6.089 44.252-9.136 67.666-9.136 23.409 0 46.021 3.047 67.818 9.136 21.791 6.094 42.152 14.658 61.098 25.698 18.94 11.04 36.212 24.365 51.821 39.97 15.61 15.61 28.989 32.837 40.126 51.68 11.133 18.843 19.785 39.165 25.978 60.961 6.182 21.797 9.276 44.399 9.276 67.812 0 23.415-3.096 45.972-9.276 67.671-6.191 21.699-14.845 41.973-25.978 60.819-11.137 18.843-24.516 36.021-40.126 51.527-15.609 15.519-32.881 28.848-51.821 39.98-18.944 11.133-39.307 19.745-61.098 25.84-21.802 6.084-44.409 9.141-67.818 9.141-23.413 0-45.967-3.057-67.666-9.141-21.704-6.095-41.972-14.707-60.819-25.84-18.844-11.134-36.074-24.464-51.681-39.98-15.609-15.508-28.936-32.686-39.975-51.527-11.045-18.848-19.604-39.121-25.698-60.819-6.098-21.703-9.135-44.257-9.135-67.671zm40.258 0c0 19.61 2.568 38.594 7.705 56.963 5.142 18.369 12.378 35.503 21.704 51.396 9.326 15.896 20.562 30.41 33.69 43.54 13.141 13.135 27.651 24.409 43.546 33.833 15.894 9.424 32.978 16.709 51.25 21.847 18.275 5.137 37.309 7.704 57.108 7.704 19.986 0 39.166-2.567 57.535-7.704 18.368-5.138 35.546-12.423 51.532-21.847 15.991-9.424 30.503-20.698 43.54-33.833 13.042-13.135 24.229-27.646 33.555-43.54 9.321-15.893 16.559-32.978 21.699-51.254 5.137-18.271 7.71-37.305 7.71-57.105 0-19.79-2.573-38.925-7.71-57.392-5.142-18.457-12.378-35.644-21.699-51.538-9.326-15.894-20.513-30.405-33.555-43.54-13.037-13.14-27.549-24.365-43.54-33.696-15.986-9.321-33.164-16.557-51.532-21.694-18.369-5.142-37.549-7.71-57.535-7.71-19.8 0-38.833 2.568-57.108 7.71-18.271 5.137-35.356 12.373-51.25 21.694-15.895 9.331-30.405 20.557-43.546 33.696-13.13 13.135-24.364 27.646-33.69 43.54s-16.563 33.081-21.704 51.538c-5.137 18.467-7.705 37.597-7.705 57.392zm382.6 19.991h-334.64v-40.546h334.64v40.546z" fill="#000000"></path>
</svg>