<?xml version='1.0' encoding='utf-8'?>
<!-- Generator: Adobe Illustrator 16.0.0, SVG Export Plug-In . SVG Version: 6.00 Build 0)  --><svg xmlns="http://www.w3.org/2000/svg" xmlns:cc="http://creativecommons.org/ns#" xmlns:dc="http://purl.org/dc/elements/1.1/" xmlns:ns0="&amp;ns_sfw;" xmlns:rdf="http://www.w3.org/1999/02/22-rdf-syntax-ns#" width="343px" height="364px" enable-background="new 0 0 343 364" version="1.1" viewBox="0 0 343 364" xml:space="preserve">
<metadata>
	<rdf:RDF>
		<cc:Work rdf:about="">
			<dc:format>image/svg+xml</dc:format>
			<dc:type rdf:resource="http://purl.org/dc/dcmitype/StillImage"></dc:type>
			<dc:title></dc:title>
		</cc:Work>
	</rdf:RDF>
	<ns0:sfw>
		<ns0:slices></ns0:slices>
		<ns0:sliceSourceBounds x="280.857" y="162.094" width="284.041" height="291.373" bottomLeftOrigin="true"></ns0:sliceSourceBounds>
	</ns0:sfw>
</metadata>
<path d="m127.77 44.99v2.431c-1.029 4.738-1.965 9.039-2.806 12.901-0.841 3.865-1.683 8.227-2.522 13.088l-90.588 37.768v-23.559l95.916-42.629zm-12.48 82.64-83.436 35.524v-23.559l86.94-37.768c-0.841 3.49-1.427 7.479-1.753 11.966-0.326 4.489-0.909 9.102-1.751 13.837zm1.684 49.548-85.117 37.954v-25.988l83.437-35.337c0 4.613 0.28 8.789 0.841 12.527 0.557 3.739 0.839 7.355 0.839 10.844zm7.15 49.921-92.27 37.769v-23.56l86.94-37.954c0.841 3.616 1.729 7.571 2.664 11.872s1.826 8.26 2.666 11.873zm-92.27 90.307v-24.308l97.6-42.44c0.467 0.625 1.072 2.057 1.822 4.299 0.748 2.244 1.519 4.615 2.313 7.105 0.793 2.493 1.752 5.797 2.875 9.909l-104.61 45.435z" fill="#000000"></path>
<path d="m191.73 267.08c-8.139 0-15.539-1.199-22.004-3.568-16.492-6.043-27.554-25.783-33.813-60.35-4.395-24.271-5.5-51.1-5.069-68.112 0.334-13.213 2.479-35.831 7.417-56.091 6.955-28.527 17.333-44.776 31.729-49.677 6.332-2.156 13.562-3.249 21.484-3.249 51.951 0 124.42 45.574 124.42 119.8 2e-3 33.997-15.584 65.727-43.891 89.346-23.584 19.683-54.342 31.906-80.273 31.906v-5e-3zm-0.254-217.05c-5.287 0-9.916 0.663-13.753 1.969-4.116 1.402-10.815 10.792-16.144 32.642-4.489 18.414-6.438 38.988-6.742 51.014-0.383 15.1 0.617 40.719 4.693 63.229 5.051 27.9 12.844 40.037 18.453 42.092 3.811 1.396 8.436 2.104 13.746 2.104 20.256 0 45.729-10.334 64.896-26.33 16.088-13.428 35.27-36.629 35.268-70.919-2e-3 -34.352-19.186-57.17-35.275-70.264-19.059-15.515-44.632-25.537-65.142-25.537z" fill="#000000"></path>
</svg>