<?xml version='1.0' encoding='utf-8'?>
<!-- Generator: Adobe Illustrator 16.0.0, SVG Export Plug-In . SVG Version: 6.00 Build 0)  --><svg xmlns="http://www.w3.org/2000/svg" xmlns:cc="http://creativecommons.org/ns#" xmlns:dc="http://purl.org/dc/elements/1.1/" xmlns:ns="&amp;ns_sfw;" xmlns:rdf="http://www.w3.org/1999/02/22-rdf-syntax-ns#" width="191px" height="425.2px" version="1.2" viewBox="0 0 191 425.2" xml:space="preserve">
<metadata>
	<ns:sfw>
		<ns:slices></ns:slices>
		<ns:sliceSourceBounds x="335.899" y="160.406" width="169.201" height="291.195" bottomLeftOrigin="true"></ns:sliceSourceBounds>
	</ns:sfw>
<rdf:RDF><cc:Work rdf:about=""><dc:format>image/svg+xml</dc:format><dc:type rdf:resource="http://purl.org/dc/dcmitype/StillImage"></dc:type><dc:title></dc:title></cc:Work></rdf:RDF></metadata>
	<path d="m180.1 252.09c0 51.199-30 97.6-80.4 97.6-52.801 0-88.801-44.801-88.801-144 0-89.6 27.601-147.2 87.602-147.2 35.102 0 67.801 20 78.9 84.799h-50.101c-6-18.399-16.2-24-28.801-24-20.7 0-33.601 16-35.7 61.999 10.5-15.6 25.5-23.6 42.9-23.6 48.002-1e-3 74.401 39.999 74.401 94.397zm-51.6-1.599c0-22.4-13.199-36.8-30-36.8-12.6 0-27.9 7.199-35.4 22.8 2.7 34.398 16.2 52.398 35.4 52.398 16.801 1e-3 30-15.999 30-38.398z" fill="#000000"></path>
</svg>