<?xml version='1.0' encoding='utf-8'?>
<!-- Generator: Adobe Illustrator 16.0.0, SVG Export Plug-In . SVG Version: 6.00 Build 0)  --><svg xmlns="http://www.w3.org/2000/svg" xmlns:cc="http://creativecommons.org/ns#" xmlns:dc="http://purl.org/dc/elements/1.1/" xmlns:rdf="http://www.w3.org/1999/02/22-rdf-syntax-ns#" width="595.33px" height="425.2px" version="1.2" viewBox="0 0 595.33 425.2" xml:space="preserve"><metadata><rdf:RDF><cc:Work rdf:about=""><dc:format>image/svg+xml</dc:format><dc:type rdf:resource="http://purl.org/dc/dcmitype/StillImage"></dc:type><dc:title></dc:title></cc:Work></rdf:RDF></metadata>

	
		<rect transform="matrix(-.7071 .7071 -.7071 -.7071 659.95 152.93)" x="22.589" y="208.25" width="551.43" height="9.786" fill="#000000"></rect>
	
		<rect transform="matrix(.7071 .7071 -.7071 .7071 238.09 -148.51)" x="22.591" y="208.25" width="551.43" height="9.786" fill="#000000"></rect>


	<path d="m527.14 231.33v0.061c-12.336 0.487-22.456 15.967-24.291 36.106h-61.181c17.497-8.836 28.428-20.402 28.428-34.624 0-5.756-1.792-11.07-5.073-15.952 3.234-4.771 5.021-9.963 5.069-15.582 0.245-28.493-43.327-46.754-96.167-53.682l-17.422 17.421c58.565 5.056 94.486 23.249 94.375 36.093-7e-3 0.698-0.154 1.413-0.378 2.138-23.171-15.211-63.993-23.892-106.56-25.67l-18.878 18.878c0.813-5e-3 1.621-0.014 2.441-0.014 50.226 0 88.303 9.578 108.12 20.361-19.278 10.317-55.832 19.457-103.85 19.618l18.692 18.692c39.953-2.09 77.924-10.447 99.982-24.745 0.271 0.831 0.438 1.647 0.438 2.444 0 12.309-33.135 29.227-87.461 34.624h-0.636l19.214 19.214h121.66c3.136 17.07 12.429 29.527 23.479 29.968v0.052h55.837v-85.402h-55.835z" fill="#000000"></path>
	<path d="m270.58 251c17.895 2.941 37.194 4.522 56.448 4.689l3.459 0.014c0.083 0 0.165-1e-3 0.248-1e-3l-19.709-19.709c-8.217-0.42-16.046-1.094-23.458-1.981l-16.988 16.988z" fill="#000000"></path>
	<path d="m327.5 269.24c-26.473 0-49.571-2.663-68.407-6.758l-15.986 15.985c24.695 6.615 54.619 9.986 84.392 9.986 11.565 0 23.136-0.539 34.432-1.552l-18.022-18.023c-5.314 0.233-10.779 0.362-16.409 0.362z" fill="#000000"></path>
	<path d="m204.12 232.87c0-1.201 0.347-2.449 0.967-3.721 12.19 7.928 29.114 14.134 48.535 18.546l16.317-16.317c-21.091-3.814-37.776-9.375-49.07-15.314 12.24-6.331 30.815-12.167 54.44-15.788l-16.608-16.607c-21.526 4.294-40.339 10.73-53.58 19.243-0.651-1.328-1.006-2.622-0.997-3.865 0.073-8.365 15.978-18.922 43.649-26.306l-26.45-26.451h-89.511c-2.805-15.811-12.327-27.537-23.753-27.937v-0.055h-55.835v10.957h-25.217v0.014c-13.644 0.079-15.009 3.063-15.009 6.739 0 3.678 1.365 6.663 15.009 6.75v4e-3h25.217v25.216h-25.217v0.016c-13.644 0.079-15.009 3.063-15.009 6.739 0 3.678 1.365 6.66 15.009 6.749v6e-3h25.217v12.01h55.835v-0.047c11.429-0.397 20.953-12.129 23.755-27.946h80.14c-16.577 8.581-26.925 19.73-27.042 33.374-0.054 6.196 2.01 11.9 5.748 17.115-3.693 5.136-5.752 10.756-5.752 16.877 0 17.795 17.065 31.449 42.766 40.772l15.307-15.308c-24.807-7.474-38.861-17.449-38.861-25.465z" fill="#000000"></path>
	<path d="m288.62 165.51h1.353v-0.136c10.716-1.044 22.25-1.646 34.542-1.646l3.297 0.014c3.241 0.028 6.427 0.098 9.564 0.202l18.206-18.206c-9.106-0.725-18.36-1.132-27.604-1.212l-3.461-0.014c-12.325 0-24.68 0.606-36.667 1.782h-46.275l22.717 22.717c7.517-1.42 15.635-2.614 24.328-3.501z" fill="#000000"></path>
	<path d="m293.35 198.06c3.497-0.329 7.085-0.606 10.751-0.835l19.915-19.916c-16.307 0.144-32.588 1.3-47.972 3.445l17.306 17.306z" fill="#000000"></path>

</svg>