<?xml version='1.0' encoding='utf-8'?>
<!-- Generator: Adobe Illustrator 22.1.0, SVG Export Plug-In . SVG Version: 6.00 Build 0)  --><svg xmlns="http://www.w3.org/2000/svg" xmlns:cc="http://creativecommons.org/ns#" xmlns:dc="http://purl.org/dc/elements/1.1/" xmlns:rdf="http://www.w3.org/1999/02/22-rdf-syntax-ns#" version="1.2" viewBox="258.44 85.042 325 425.2" xml:space="preserve" width="305.73846" height="400.0"><metadata><rdf:RDF><cc:Work rdf:about=""><dc:format>image/svg+xml</dc:format><dc:type rdf:resource="http://purl.org/dc/dcmitype/StillImage"></dc:type><dc:title></dc:title></cc:Work></rdf:RDF></metadata>
	<path d="m550.01 305.91c-10.714 62.995-64.402 109.23-129.06 109.23-28.131 0-55.649-9.4-78.545-26.666l22.725-22.725c16.703 11.515 35.829 17.558 55.82 17.558 46.339 0 86.541-32.709 96.89-77.395h32.173m11.422-10.056h-51.945c-6.106 43.607-43.272 77.395-88.538 77.395-21.629 0-41.231-8.006-56.748-20.795l-36.761 36.761c25.001 22.122 57.502 35.98 93.508 35.98 74.034 0 134.11-56.966 140.48-129.34z" fill="#000000"></path>
	<path d="m525.96 204.92c15.761 20.899 24.967 45.638 26.435 71.112h-31.884c-1.314-17.293-7.199-33.768-17.276-48.386l22.725-22.726m0.744-14.964-36.757 36.757c12.789 15.52 20.788 35.122 20.788 56.755 0 0.895-0.238 1.726-0.261 2.617h51.942c0.017-0.895 0.265-1.723 0.265-2.617 0-36.01-13.855-68.511-35.977-93.512z" fill="#000000"></path>
	<path d="m331.16 283.47c0-49.509 40.276-89.789 89.785-89.789 24.193 0 46.091 9.722 62.254 25.333l36.761-36.761c-25.557-25.004-60.438-40.517-99.015-40.517-78.277 0-141.73 63.457-141.73 141.73 0 38.574 15.517 73.454 40.517 99.011l36.757-36.761c-15.609-16.16-25.328-38.06-25.328-62.25z" fill="#000000"></path>
</svg>