<?xml version='1.0' encoding='utf-8'?>
<!-- Generator: Adobe Illustrator 27.2.0, SVG Export Plug-In . SVG Version: 6.00 Build 0)  --><svg xmlns="http://www.w3.org/2000/svg" xmlns:xlink="http://www.w3.org/1999/xlink" version="1.2" baseProfile="tiny" id="Vrstva_1" x="0px" y="0px" viewBox="0 0 793.7 400" overflow="visible" xml:space="preserve" width="793.7" height="400.0">
<g>
	<path fill="#009641" d="M1.8,363.8l54.5-119.5h80.8L98.3,363.8C98.3,363.8,1.8,363.8,1.8,363.8z M116.8,112.4h63.6l-28.2,85.7H77.3   L116.8,112.4z M215.3,5.3l-22,67.8h-58.7l30.8-67.8H215.3z"></path>
	<path fill="#009641" d="M695.4,363.8l-38.8-119.5h80.8l54.5,119.5H695.4L695.4,363.8z M628.4,5.3l30.8,67.8h-58.7l-22-67.8H628.4   L628.4,5.3z"></path>
</g>
<path fill="#B2B2B2" d="M485.2,368.1c-3.5,0-6.9-0.6-10.2-1.8c-3.3-1.3-6.4-3.3-9.1-6.1c-2.8-2.7-4.9-5.8-6.3-9.3  c-1.3-3.5-1.9-7-1.9-10.5c0-1.3,0.1-2.7,0.3-4c0-0.4,0.1-0.8,0.3-1.2l-50.8-51.8l-10.6-31.9l32.4,10.9l0.6,0.6  c16.5,16.1,46.8,45.8,51.6,50.4c0.4,0,1-0.1,1.5-0.1c0.8-0.1,1.5-0.1,2.3-0.1c4.2-0.1,7.8,0.5,11.1,1.8c3.5,1.4,6.5,3.3,9,5.8  c2.6,2.4,4.5,5.4,6,8.6c1.5,3.3,2.3,7,2.3,11c0,3.8-0.8,7.6-2.3,11c-1.5,3.3-3.5,6.3-6,8.8c-2.6,2.6-5.5,4.5-9,5.9  C492.8,367.3,489.1,368.1,485.2,368.1L485.2,368.1z M414.8,278.8l50.9,51.7l0.1,0.1c1.5,2,1.2,4.4,0.8,5.9c0,0.3-0.1,0.5-0.1,0.8  c-0.1,1-0.3,2-0.3,2.9c0,2.4,0.5,5,1.4,7.6c0.9,2.4,2.3,4.5,4.2,6.3l0.3,0.3c1.8,1.9,3.7,3.2,5.9,4.1c2.3,0.9,4.7,1.3,7.3,1.3  c2.8,0,5.4-0.5,7.8-1.5s4.5-2.3,6.3-4.1s3.2-3.8,4.2-6.3c1-2.3,1.5-4.9,1.5-7.6s-0.5-5.2-1.5-7.4c-1-2.3-2.4-4.4-4.2-6  s-3.8-3.1-6.3-4c-2.2-0.9-4.7-1.3-7.8-1.3c-0.4,0-1,0.1-1.5,0.1c-2.3,0.3-5.4,0.6-7.7-1.5c-0.9-0.9-45.2-44.2-51.6-50.4l-14.5-4.9  L414.8,278.8L414.8,278.8z M615.4,355.8h-4.2v-31.1h27.3c-1.7-15.6-5.4-30.5-11.3-44.3c-5.8-13.7-13.3-26.2-22.5-37.4l-20.3,18.7  l-21.1-21.4l19.3-18.8c-11.1-9.5-23.8-17.1-37.5-23c-13.8-5.9-28.7-9.7-44.3-11.3v27h-30.2v-27.1c-15.7,1.5-30.7,5.2-44.7,11.1  c-13.8,5.8-26.5,13.4-37.8,22.8l19.3,19.3L386,262.1l-19.3-19.1c-9.1,11.1-16.6,23.8-22.5,37.6c-6,13.8-9.7,28.7-11.4,44.4h27.3  v30.8h-58.4v-15.6c0-16.9,2.2-33.3,6.5-49c4.2-15.6,10.5-30.5,18.4-44c7.9-13.6,17.5-26.1,28.7-37.2c11.1-11.1,23.5-20.7,37-28.7  c13.4-7.9,28.2-14.2,43.8-18.4c15.6-4.4,32-6.5,48.9-6.5c16.8,0,33.3,2.2,49,6.5c15.6,4.4,30.5,10.5,44.2,18.4  c13.6,7.9,26.1,17.5,37.4,28.7c11.1,11.1,21,23.7,28.9,37.2c8.1,13.6,14.3,28.4,18.7,44c4.4,15.6,6.7,32.1,6.7,49  c0,1.8,0,3.6-0.1,5.5c-0.1,2-0.3,4.2-0.6,6.5l-0.5,3.6L615.4,355.8L615.4,355.8z M310.4,347.4h41.5v-14h-28l0.4-4.5  c1.3-18.2,5.5-35.6,12.4-51.6c6.9-16,15.9-30.6,26.7-43.3l2.9-3.5l19.8,19.6l9.6-9.7l-19.8-19.8l3.5-2.9  c12.8-11.3,27.5-20.3,43.5-27.1c16-6.8,33.4-10.9,51.8-12.2l4.5-0.3V206h13.3v-27.8l4.5,0.4c18.2,1.3,35.6,5.4,51.4,12.3  c16,6.8,30.5,16.1,43.1,27.5l3.3,3.1l-19.7,19.3l9.5,9.6l20.7-19.1l2.8,3.2c11.1,12.5,20.1,27,26.7,42.9  c6.7,15.9,10.8,33.3,12.3,51.4l0.4,4.6h-28v14h41.7c0-0.6,0.1-1.4,0.1-2c0.1-1.8,0.1-3.6,0.1-5.2c0-16.1-2.2-31.9-6.3-46.7  c-4.2-15-10.1-29.1-17.8-42.1c-7.7-12.9-16.9-25-27.6-35.6c-10.6-10.6-22.7-19.8-35.7-27.4c-13.1-7.6-27.1-13.4-42.1-17.5  c-15-4.1-30.7-6.1-46.7-6.1c-16.1,0-31.7,2-46.6,6.1c-14.8,4.1-28.9,10-41.7,17.5c-12.8,7.6-24.7,16.8-35.3,27.4  c-10.6,10.6-19.8,22.5-27.4,35.6c-7.6,13.1-13.6,27.1-17.5,42.1c-4.1,15-6.1,30.7-6.1,46.7v7.3L310.4,347.4z M266.4,223.9h-32.9  c-3.7,0-6.8-1.2-9.1-3.5c-2.4-2.3-3.7-5.2-3.7-8.7v-41.9l-0.4-2.3c-0.1-0.9-0.3-1.8-0.5-2.6c-1.7-9.6-2.4-18.3-2.4-25.9  c0-7.6,0.4-14.2,1.3-19.7c0.9-5.8,1.9-10.4,3.2-14c0.3-0.6,0.4-1.2,0.6-1.8h-12.3c-3.3,0-6.3-1.2-8.8-3.5c-2.3-2-5-6.5-3.7-9.9  l0.6-1.5c2.4-6.5,5.2-14.1,5.6-15l0.1-0.4c0.5-1.5,1.8-5,5.2-7c3.1-1.9,6.3-2.9,9.5-2.9h24.7c1.2-1.7,2.3-3.5,3.7-5.2  c1.8-2.6,3.8-5,6-7.3c2.2-2.6,4.4-5.2,6.4-7.8c1.8-2.3,3.7-4.7,5.8-7c1.9-2.3,3.5-4.4,4.7-6l0.1-0.3c1.5-1.9,3.1-3.7,4.4-5.6  c1.7-2.3,3.8-4.4,6.3-6c2.4-1.8,5.6-3.3,9.3-4.5c3.7-1.3,8.3-2,14.3-2.6c13.6-1.3,25.7-2,36.2-2.3c10.6-0.3,18-0.4,22.9-0.4  c5,0,12.8,0.1,23.3,0.4c10.5,0.3,22.8,1,36.3,2.3c5.8,0.5,10.4,1.4,14.1,2.6c3.7,1.3,6.9,2.8,9.3,4.5c2.6,1.8,4.6,3.8,6.3,6  c1.4,1.9,2.8,3.7,4.4,5.6c1.4,1.8,3.2,3.8,5.2,6.1c2,2.4,4.1,4.9,5.9,7.2c2.2,2.8,4.2,5.5,6.4,8.1c1.8,2.3,3.6,4.7,5.4,7.2  c1.3,1.7,2.6,3.5,4,5.2h24.7c1.5,0,3.2,0.3,4.9,0.8c1.8,0.5,3.3,1.3,4.9,2.2c1.7,1.2,2.9,2.3,3.8,3.7c0.8,1.2,1.5,2.9,1.8,3.7  l0.5,1.3c3.7,10.2,5.4,14.7,5.5,15.4c1,3.2-1.5,7.7-3.6,9.6c-2.4,2.3-5.4,3.6-8.7,3.6h-12.8c1,2.4,1.9,5.4,2.8,8.8  c0.9,3.7,1.7,8.1,2,12.9c0.4,4.9,0.5,10.4,0.1,16.5l-0.3,4.4l-4.4-0.4c-3.1-0.3-6.3-0.5-9.3-0.5H476l0.3-4.5c0.1-2,0.1-4,0.1-5.5  c0-0.4,0-0.8-0.1-1.3h-49.7V99.6h38.3c-0.8-1.5-1.7-3.2-2.6-5h-197c-1.2,1.8-2,3.5-2.9,5h38.8v34.7h-49.4c-0.1,2.3,0,4.7,0.1,7.4  c0.1,3.3,0.5,6.9,1,10.8h175.6l-18.9,8.1c-16,6.8-30.6,15.4-43.5,25.5l-1.2,0.9h-86.3v25c0,3.3-1.3,6.4-3.7,8.7  C272.6,222.7,269.7,223.9,266.4,223.9L266.4,223.9z M205.7,92.4c0.3,0.5,0.6,1.2,1.2,1.7c1,0.9,1.9,1.3,3.1,1.3h25.5l-3.1,6.1  c-0.8,1.4-1.7,3.7-2.8,6.9c-1.2,3.1-2,7.2-2.8,12.3c-0.8,5.1-1.2,11.4-1.2,18.4c0,7,0.8,15.2,2.3,24.3c0.1,0.8,0.3,1.7,0.5,2.7  c0.1,0.9,0.3,1.8,0.5,2.6l0.1,0.4v42.6c0,1,0.4,1.8,1,2.6c0.5,0.5,1.4,1.2,3.3,1.2h32.9c1.2,0,2-0.4,2.8-1.2s1-1.5,1-2.6v-33.3h91.8  c8.4-6.5,17.5-12.4,27.3-17.5H245.3l-0.5-3.6c-0.8-5.5-1.4-10.5-1.5-15.1c-0.3-4.6-0.3-8.7,0.1-12.4l0.4-3.8h48.8V108h-44l2.9-6  c0.9-1.7,1.9-3.7,3.2-6c1.3-2.3,2.8-4.9,4.6-7.7l1.3-1.9h206.4l1.2,2c1.7,2.9,3.1,5.5,4.2,7.8c1,2,2,3.8,3.1,5.2l4.5,6.7h-45.6V126  h48.5l0.6,3.5c0.4,1.9,0.5,4,0.6,5.8v1.9h11.4c1.9,0,3.8,0,5.8,0.1c0.1-4,0-7.7-0.3-11c-0.4-4.4-1-8.3-1.8-11.6s-1.7-6-2.6-8.1  c-0.9-2.3-1.7-4-2.3-5.1l-3.1-6.1h26.1c1.2,0,2-0.4,2.9-1.3c0.5-0.5,0.9-1.2,1.2-1.7c-0.6-1.8-2.4-6.7-5.1-14.3l-0.5-1.3  c-0.1-0.4-0.6-1.5-1-1.9c-0.3-0.4-0.6-0.8-1.4-1.3c-0.8-0.5-1.7-0.9-2.6-1.2c-1-0.3-1.8-0.4-2.6-0.4h-28.8l-1.3-1.7  c-1.9-2.4-3.6-4.7-5.4-7c-1.7-2.3-3.5-4.6-5.1-6.8c-2.2-2.6-4.4-5.4-6.5-8.2c-1.7-2.2-3.6-4.5-5.5-6.8c-2-2.4-3.8-4.6-5.4-6.3  c-1.5-1.9-3.2-4-4.6-5.9c-1.2-1.5-2.7-2.9-4.5-4.2c-1.8-1.3-4.2-2.4-7.2-3.5c-3.1-1-7.2-1.8-12.2-2.2c-13.4-1.3-25.5-2-35.8-2.3  c-10.4-0.3-18.2-0.4-23-0.4c-4.7,0-12.2,0.1-22.7,0.4c-10.2,0.3-22.3,1-35.6,2.3c-5.2,0.5-9.5,1.2-12.4,2.2c-2.9,1-5.4,2.2-7.2,3.5  c-1.8,1.3-3.3,2.7-4.5,4.2c-1.4,1.9-2.9,3.8-4.6,5.8c-1.3,1.8-2.9,4-5,6.4c-1.9,2.3-3.8,4.6-5.5,6.9c-2,2.8-4.4,5.6-6.8,8.3  c-2,2.2-3.8,4.4-5.5,6.7c-1.7,2.3-3.2,4.6-4.6,6.8l-1.3,1.9h-29.3c-1.5,0-3.3,0.5-5.1,1.7c-1,0.6-1.4,1.9-1.8,2.8l-0.1,0.5  c-0.4,0.9-4.2,11-5.6,14.8L205.7,92.4L205.7,92.4z M708.8,210.6h-92.4v-92.4l25.2,25.2l28.7-28.7l41.5,42.4L683.3,185L708.8,210.6  L708.8,210.6z M625,202.1h63.7l-17.1-17.3l28.4-27.9l-29.7-30.2l-28.7,28.7l-16.8-16.8v63.5L625,202.1z M458,72.3H270.2l5-6.7  c2.7-3.7,5.6-7.6,8.8-11.5c3.2-4.1,6.8-8.4,10.8-13.1l1.3-1.4h1.4c0.5-0.1,1.3-0.4,2.7-0.9c1.9-0.6,4.4-1,6.9-1  c12.8-1.3,24.4-2,34.3-2.4c10-0.3,17.4-0.5,22.3-0.5c5,0,12.5,0.1,22.7,0.5c10.1,0.4,21.9,1.2,34.8,2.4c4.1,0,6.9,0.5,8.8,1.4  l0.6,0.4l0.5,0.5c4.2,4.5,8.2,9,11.9,13.1c3.6,4.1,7,8.3,10.1,12.5L458,72.3L458,72.3z M287,63.9h154.1c-1.4-1.8-2.9-3.6-4.5-5.2  c-3.5-3.8-7.2-7.9-11-12.2c-0.6-0.1-2-0.4-4.7-0.4h-0.4c-12.9-1.3-24.4-2-34.4-2.4c-10-0.3-17.5-0.5-22.4-0.5  c-4.7,0-12,0.1-21.9,0.5c-9.9,0.3-21.2,1.2-33.9,2.4h-0.4c-1.8,0-3.2,0.3-4.4,0.6c-1,0.4-1.9,0.6-2.7,0.9c-3.6,4.1-6.8,8.1-9.6,11.8  C289.4,60.8,288.1,62.4,287,63.9L287,63.9z"></path>
</svg>