<?xml version='1.0' encoding='utf-8'?>
<!-- Generator: Adobe Illustrator 16.0.3, SVG Export Plug-In . SVG Version: 6.00 Build 0)  --><svg xmlns="http://www.w3.org/2000/svg" xmlns:cc="http://creativecommons.org/ns#" xmlns:dc="http://purl.org/dc/elements/1.1/" xmlns:rdf="http://www.w3.org/1999/02/22-rdf-syntax-ns#" width="367.52px" height="425.2px" enable-background="new 0 0 367.517 425.197" version="1.1" viewBox="0 0 367.52 425.2" xml:space="preserve"><metadata><rdf:RDF><cc:Work rdf:about=""><dc:format>image/svg+xml</dc:format><dc:type rdf:resource="http://purl.org/dc/dcmitype/StillImage"></dc:type><dc:title></dc:title></cc:Work></rdf:RDF></metadata>

	<path d="m270.92 262.13h-174.32c-3.154 0-5.715-2.559-5.715-5.713v-115.99c0-3.154 2.561-5.773 5.715-5.773h174.32c3.215 0 5.773 2.619 5.773 5.773v115.99c0 3.154-2.559 5.713-5.773 5.713z" fill="#000000"></path>
	
		<polygon points="353.34 56.693 296.98 56.693 317.04 76.689 272.7 121.03 288.95 137.28 333.29 92.937 353.34 112.99" fill="#000000"></polygon>
		<polygon points="14.174 56.693 70.533 56.693 50.477 76.689 94.814 121.03 78.568 137.28 34.23 92.937 14.174 112.99" fill="#000000"></polygon>
		<polygon points="353.34 340.16 296.98 340.16 317.04 320.1 272.7 275.82 288.95 259.58 333.29 303.85 353.34 283.86" fill="#000000"></polygon>
		<polygon points="14.174 340.16 70.533 340.16 50.477 320.1 94.814 275.82 78.568 259.58 34.23 303.85 14.174 283.86" fill="#000000"></polygon>
	

</svg>