<?xml version='1.0' encoding='utf-8'?>
<!-- Generator: Adobe Illustrator 26.0.1, SVG Export Plug-In . SVG Version: 6.00 Build 0)  --><svg xmlns="http://www.w3.org/2000/svg" xmlns:xlink="http://www.w3.org/1999/xlink" version="1.1" id="Vrstva_2" x="0px" y="0px" viewBox="0 0 445.6 425.2" style="enable-background:new 0 0 445.6 425.2;" xml:space="preserve" width="419.19095" height="400.0">
<path d="M174,331.1c0,44.1-35.8,79.9-79.9,79.9s-79.9-35.8-79.9-79.9s35.8-79.9,79.9-79.9S174,287,174,331.1z M137.5,278.4  c-11.8-9.7-26.9-15.6-43.4-15.6v68.2L137.5,278.4z"></path>
<path d="M338.2,75.4c-35.2,0-55.5,29.1-60.6,86.5c-2.6-0.3-5.4-0.4-8.3-0.5c4.7-14.5,9.7-33,9.7-64.2c0-28.3-3.5-45.5-11.3-55.9  C259,29.8,247,29.8,239.8,29.8h-0.1c-30.6,0-87.1,38.5-87.1,93.3c0,35.2,29.1,55.6,86.5,60.6c-0.3,2.5-0.5,5.1-0.5,7.9v0.4  c-14.5-4.7-33-9.7-64.2-9.7c-28.3,0-45.5,3.5-55.9,11.3c-11.6,8.8-11.6,20.8-11.6,28c0,3.2,0.5,6.6,1.3,10.3  c9.8,1.4,19.2,4.2,27.9,8.2c-3.8-7.4-5.8-14.1-5.8-18.6c0-6.5,0.3-7.8,2.3-9.3c3.2-2.5,13-6.6,41.8-6.6c31.5,0,47.9,5.5,62.3,10.4  c0.4,0.1,0.7,0.2,1.1,0.4c-2.6,35.5-11.8,69-37.6,69c-6.6,0-12.8-1.2-18.6-3.2c4.5,8.1,7.9,16.8,10.1,26.1c2.8,0.3,5.6,0.5,8.5,0.5  c35.2,0,55.6-29.1,60.6-86.5c2.6,0.3,5.4,0.5,8.3,0.5c-4.7,14.5-9.7,33-9.7,64.3c0,28.3,3.5,45.5,11.3,55.9  c8.8,11.6,20.7,11.6,27.9,11.6h0.1c30.6,0,87.1-38.5,87.1-93.3c0-35.2-29.1-55.6-86.5-60.6c0.3-2.5,0.5-5.1,0.5-7.9v-0.4  c14.5,4.7,33,9.7,64.2,9.7c28.3,0,45.5-3.5,55.9-11.3c11.6-8.8,11.6-20.8,11.6-28C431.5,131.9,393,75.4,338.2,75.4z M245.3,159.6  c-0.1,0.4-0.2,0.7-0.4,1.1c-35.5-2.6-69-11.8-69-37.6c0-42.4,47.3-69.9,63.8-69.9c6.5,0,7.8,0.3,9.3,2.3c2.5,3.2,6.6,13,6.6,41.8  C255.7,128.8,250.2,145.1,245.3,159.6z M276.4,192.6c0,2.3-0.2,4.5-0.5,6.7c-4.6-0.1-9.4,0.1-13.9-0.6c0-2.4,0.1-4.8,0.1-7.2  c0-2.3,0.2-4.5,0.5-6.7c4.6,0.1,9.4-0.1,13.9,0.6C276.4,187.7,276.4,190.1,276.4,192.6z M362.4,261c0,42.4-47.3,69.9-63.8,69.9  c-6.5,0-7.8-0.3-9.3-2.3c-2.5-3.2-6.6-13-6.6-41.8c0-31.5,5.5-47.9,10.4-62.3c0.1-0.4,0.2-0.7,0.4-1.1  C328.9,226,362.4,235.3,362.4,261z M405.7,171.9c-3.2,2.5-13,6.6-41.8,6.6c-31.5,0-47.9-5.5-62.3-10.4c-0.4-0.1-0.7-0.2-1.1-0.4  c2.6-35.5,11.8-69,37.6-69c42.4,0,69.9,47.3,69.9,63.8C408.1,169.1,407.8,170.4,405.7,171.9z"></path>
</svg>