<?xml version='1.0' encoding='utf-8'?>
<!-- Generator: Adobe Illustrator 16.0.0, SVG Export Plug-In . SVG Version: 6.00 Build 0)  --><svg xmlns="http://www.w3.org/2000/svg" xmlns:cc="http://creativecommons.org/ns#" xmlns:rdf="http://www.w3.org/1999/02/22-rdf-syntax-ns#" xmlns:dc="http://purl.org/dc/elements/1.1/" width="644px" height="425.2px" version="1.2" viewBox="0 0 644 425.2" xml:space="preserve"><metadata><rdf:RDF><cc:Work rdf:about=""><dc:format>image/svg+xml</dc:format><dc:type rdf:resource="http://purl.org/dc/dcmitype/StillImage"></dc:type><dc:title></dc:title></cc:Work></rdf:RDF></metadata>

	<path d="m10.4 338.66 43.16-94.54h63.871l-30.67 94.54h-76.361zm90.904-198.72h50.274l-22.292 67.822h-59.128l31.146-67.822zm77.942-84.74-17.391 53.594h-46.48l24.347-53.594h39.524z" fill="#1D1D1B"></path>


	<path d="m558.89 338.66-30.67-94.54h63.87l43.159 94.54h-76.359zm-52.961-283.46 24.349 53.594h-46.48l-17.394-53.594h39.525z" fill="#1D1D1B"></path>


	<path d="m330.84 174.39c-13.23 5.654-25.181 12.654-35.843 21.004h-71.878v23.51c0 1.801-0.645 3.31-1.927 4.526-1.286 1.225-2.827 1.832-4.624 1.832h-26.595c-2.057 0-3.727-0.607-5.01-1.832-1.285-1.219-1.928-2.728-1.928-4.526v-34.108c-0.129-0.642-0.259-1.349-0.385-2.12-0.131-0.771-0.261-1.476-0.387-2.119-1.286-7.578-1.927-14.322-1.927-20.233 0-5.907 0.318-11.046 0.963-15.416 0.644-4.366 1.445-7.9 2.41-10.599 0.963-2.697 1.764-4.688 2.408-5.974h-15.031c-1.801 0-3.404-0.641-4.817-1.926-1.414-1.283-2.119-2.698-2.119-4.239l5.011-13.297c0-1.667 0.993-3.113 2.987-4.336 1.988-1.219 3.948-1.83 5.877-1.83h21.774c1.156-1.807 2.439-3.676 3.854-5.613 1.412-1.936 2.955-3.809 4.625-5.616 1.928-2.192 3.725-4.386 5.396-6.582 1.413-1.807 2.921-3.677 4.528-5.613 1.604-1.936 2.922-3.613 3.951-5.034 1.282-1.547 2.505-3.095 3.662-4.643 1.154-1.548 2.602-2.936 4.334-4.165 1.733-1.226 3.95-2.291 6.647-3.195 2.699-0.903 6.293-1.547 10.792-1.936 10.918-1.026 20.587-1.638 29.001-1.83 8.413-0.193 14.55-0.29 18.403-0.29 3.979 0 10.214 0.097 18.689 0.29 8.48 0.192 18.181 0.804 29.101 1.83 4.366 0.389 7.899 1.033 10.6 1.936 2.697 0.904 4.914 1.969 6.648 3.195 1.732 1.229 3.18 2.617 4.335 4.165 1.156 1.547 2.376 3.095 3.661 4.643 1.155 1.421 2.567 3.098 4.238 5.034 1.668 1.936 3.209 3.806 4.625 5.613 1.668 2.195 3.402 4.39 5.203 6.582 1.412 1.807 2.823 3.68 4.239 5.616 1.412 1.937 2.824 3.806 4.239 5.613h21.582c0.896 0 1.895 0.162 2.985 0.482 1.092 0.322 2.089 0.771 2.986 1.348 0.897 0.579 1.669 1.253 2.313 2.024 0.641 0.771 0.964 1.542 0.964 2.312l4.814 13.297c0 1.541-0.675 2.957-2.021 4.239-1.352 1.285-2.924 1.926-4.723 1.926h-15.607c0.512 1.031 1.155 2.476 1.926 4.335 0.771 1.865 1.51 4.21 2.216 7.035 0.705 2.826 1.222 6.137 1.543 9.924 0.318 3.79 0.354 8.063 0.098 12.814-2.571-0.256-5.203-0.387-7.9-0.387h-8.479-4.238c0.127-1.797 0.16-3.401 0.097-4.815-0.065-1.413-0.227-2.825-0.48-4.24h-39.696v-21.196h33.723c-0.897-1.308-1.801-2.879-2.696-4.709-0.899-1.831-1.993-3.856-3.275-6.083h-162.83c-1.415 2.226-2.635 4.252-3.661 6.083-1.029 1.83-1.864 3.401-2.506 4.709h33.531v21.196h-39.697c-0.259 2.827-0.289 6.007-0.096 9.539 0.19 3.534 0.606 7.485 1.252 11.851h92.497l35.65-1e-3zm-88.836-91.149c-3.213 3.727-6.07 7.196-8.574 10.405-2.506 3.213-4.852 6.296-7.034 9.25h138.17c-2.44-3.339-5.105-6.648-7.995-9.924-2.894-3.275-6.071-6.774-9.539-10.502-1.03-0.512-2.956-0.771-5.781-0.771-10.535-1.026-19.881-1.668-28.038-1.927-8.16-0.256-14.23-0.385-18.211-0.385-3.854 0-9.798 0.129-17.824 0.385-8.03 0.259-17.247 0.901-27.653 1.927-1.8 0-3.342 0.226-4.624 0.675-1.289 0.452-2.253 0.74-2.894 0.867zm278.65 248.01h-22.354v-17.729h22.354c-1.157-14.385-4.37-27.875-9.638-40.467-5.269-12.589-12.27-23.828-21.005-33.723l-16.571 15.225-12.331-12.525 15.801-15.416c-10.021-8.991-21.327-16.188-33.915-21.582-12.592-5.396-26.082-8.605-40.468-9.636v22.16h-17.535v-22.16c-14.521 1.029-28.105 4.209-40.757 9.539-12.655 5.332-24.061 12.428-34.205 21.291l15.802 15.804-12.526 12.719-15.801-15.608c-8.607 10.021-15.642 21.359-21.101 34.014-5.464 12.654-8.705 26.177-9.732 40.563h22.354v18.113h-40.275v-9.249c0-13.358 1.703-26.237 5.107-38.638 3.401-12.396 8.253-23.991 14.549-34.781 6.293-10.792 13.842-20.586 22.643-29.389 8.798-8.797 18.53-16.347 29.194-22.643 10.662-6.293 22.161-11.144 34.495-14.549 12.332-3.402 25.177-5.106 38.539-5.106 13.358 0 26.236 1.704 38.638 5.106 12.396 3.405 23.991 8.256 34.782 14.549 10.792 6.296 20.619 13.845 29.481 22.643 8.864 8.803 16.479 18.597 22.835 29.389 6.359 10.79 11.273 22.386 14.742 34.781 3.469 12.398 5.203 25.277 5.203 38.638 0 1.286-0.033 2.731-0.096 4.335-0.067 1.609-0.229 3.246-0.483 4.914l-17.726-0.582zm-140.48 5.011c-1.927-1.802-3.342-3.922-4.239-6.359s-1.35-4.881-1.35-7.321c0-0.896 0.063-1.83 0.193-2.794 0.126-0.964 0.19-1.896 0.19-2.795l-43.355-43.938-6.167-18.498 18.885 6.357 43.937 42.975h5.012c2.696 0 5.231 0.48 7.61 1.443 2.375 0.964 4.435 2.282 6.167 3.95 1.734 1.672 3.112 3.632 4.145 5.878 1.025 2.249 1.542 4.721 1.542 7.419s-0.517 5.203-1.542 7.517c-1.03 2.313-2.408 4.336-4.145 6.069-1.733 1.733-3.792 3.083-6.167 4.046-2.379 0.964-4.914 1.445-7.61 1.445-2.441 0-4.787-0.417-7.034-1.252-2.251-0.836-4.275-2.215-6.072-4.142zm137.27-165.88 23.125-23.125 28.713 29.292-22.934 22.546 17.15 17.344h-63.014v-63.015l16.96 16.958z" fill="#1D1D1B"></path>

</svg>