<?xml version='1.0' encoding='utf-8'?>
<!-- Generator: Adobe Illustrator 16.0.0, SVG Export Plug-In . SVG Version: 6.00 Build 0)  --><svg xmlns="http://www.w3.org/2000/svg" xmlns:cc="http://creativecommons.org/ns#" xmlns:dc="http://purl.org/dc/elements/1.1/" xmlns:ns="&amp;ns_sfw;" xmlns:rdf="http://www.w3.org/1999/02/22-rdf-syntax-ns#" width="472px" height="305px" enable-background="new 0 0 472 305" version="1.1" viewBox="0 0 472 305" xml:space="preserve">
<metadata>
	<ns:sfw>
		<ns:slices></ns:slices>
		<ns:sliceSourceBounds x="213.423" y="222.248" width="413.152" height="160.504" bottomLeftOrigin="true"></ns:sliceSourceBounds>
	</ns:sfw>
<rdf:RDF><cc:Work rdf:about=""><dc:format>image/svg+xml</dc:format><dc:type rdf:resource="http://purl.org/dc/dcmitype/StillImage"></dc:type><dc:title></dc:title></cc:Work></rdf:RDF></metadata>
	<path d="m28.923 227.75 307.31-160.5h14.151l-281.86 160.5h-39.599zm233.23-29.509-30.414 29.51h-39.601l35.534-29.51h34.481zm51.643-50.138-27.854 27.252h-30.264l32.974-27.252h25.144zm38.695-37.643-18.67 18.068h-21.53l21.982-18.068h18.218zm28.157-27.402-14.304 14.002h-15.659l16.861-14.002h13.102zm-24.242 144.69 77.541-160.5h8.131l-46.826 160.5h-38.846zm19.123-151.32 10.991-9.186h10.236l-9.335 9.186h-11.892z" fill="#000000"></path>
</svg>