<?xml version='1.0' encoding='utf-8'?>
<!-- Generator: Adobe Illustrator 25.0.0, SVG Export Plug-In . SVG Version: 6.00 Build 0)  --><svg xmlns="http://www.w3.org/2000/svg" xmlns:cc="http://creativecommons.org/ns#" xmlns:dc="http://purl.org/dc/elements/1.1/" xmlns:rdf="http://www.w3.org/1999/02/22-rdf-syntax-ns#" overflow="visible" version="1.2" viewBox="0 0 488.22 425.2" xml:space="preserve" width="459.28503" height="400.0"><metadata><rdf:RDF><cc:Work rdf:about=""><dc:format>image/svg+xml</dc:format><dc:type rdf:resource="http://purl.org/dc/dcmitype/StillImage"></dc:type><dc:title></dc:title></cc:Work></rdf:RDF></metadata>
<g display="none">
	<g display="inline">
		<polygon points="338.53 19.842 -0.187 396.04 16.431 411.02 355.08 34.82" fill="#000000"></polygon>
			<path d="m167.89 313.01c-10.673 0-21.581-2.005-33.372-6.109-5.915-2.069-12.221 1.051-14.258 6.896-2.037 5.814 1.051 12.22 6.9 14.257 10.18 3.581 19.903 5.352 29.529 6.339v47.136h-60.275v22.403h142.91v-22.403h-60.235v-47.268c63.123-5.748 112.99-58.403 112.99-123.05h-22.403c0 56.137-45.656 101.8-101.78 101.8z" fill="#000000"></path>
			<path d="m49.445 248.1c4.039 12.646 10.05 24.669 18.001 35.673 2.199 3.055 5.618 4.663 9.099 4.663 2.264 0 4.566-0.689 6.534-2.1 5.029-3.647 6.176-10.642 2.565-15.636-6.634-9.197-11.694-19.184-15.013-29.695l-0.031-0.033c-2.926-9.59-4.501-19.576-4.501-29.759h-22.402c0 12.614 1.871 25.03 5.618 36.921l0.13-0.034z" fill="#000000"></path>
			<path d="m213.51 212.79c-0.786 21.647-16.682 39.221-38.624 42.735-6.11 0.985-10.28 6.733-9.295 12.843 0.885 5.52 5.648 9.427 11.07 9.427 0.588 0 1.182-0.032 1.771-0.131 32.647-5.255 56.292-31.566 57.475-64.019 0.265-6.21-4.597-11.399-10.771-11.629-6.436 0.329-11.395 4.599-11.626 10.774z" fill="#000000"></path>
			<path d="m115.53 245.18c1.509 0 3.054-0.295 4.532-0.952 5.648-2.497 8.212-9.1 5.717-14.781-2.595-5.88-3.912-11.989-3.912-18.231v-95.586c0-25.326 20.63-45.954 46.02-45.954 24.273 0 44.241 19.215 45.458 43.752 0.327 5.979 5.22 10.643 11.198 10.643h0.59c6.174-0.328 10.906-5.584 10.641-11.759-1.837-36.461-31.657-65.039-67.887-65.039-37.741 0-68.422 30.68-68.422 68.356v95.586c0 9.363 1.972 18.526 5.814 27.296 1.841 4.172 5.946 6.669 10.251 6.669z" fill="#000000"></path>
	</g>
</g>
<g display="none">
	<g display="inline">
			<rect x="344" y="275.56" width="22.824" height="135.46" fill="#000000"></rect>
			<rect x="396.02" y="275.56" width="22.824" height="135.46" fill="#000000"></rect>
		<path d="m165.71 367.66c-15.609 0-70.348-24.77-75.953-46.518-1.445-5.303-1.645-14.836 13.523-34.637 8.527-11.143 36.617-42.826 53.469-42.826 11.512 0.535 27.988 12.484 39.836 22.486l82.165-131.5c-14.098-6.176-32.02-15.574-37.321-25.172-9.031-16.514 11.777-61.488 12.652-63.367 12.016-25.777 21.313-30.342 27.254-31.551 0.738-0.133 3.422-0.402 4.16-0.402 21.984 0 66.555 35.443 71.926 50.479 2.352 6.646 21.012 68.201-48.801 180.03-70.684 113.04-133.78 122.17-140.76 122.84-0.335 0-1.781 0.133-2.148 0.133zm-9.5-101.16c-8.289 2.752-43.129 39.135-44.168 50.076 3.793 7.518 43.094 28.059 53.566 28.193 3.457-0.471 59.238-9.264 123.58-112.24 65.215-104.45 47.426-158.01 46.621-160.23-4.23-8.793-40.141-35.24-50.313-35.24-7.887 5.303-25.34 52.492-23.492 62.695 2.215 2.619 20.137 12.082 37.691 18.795 3.219 1.209 5.703 3.826 6.844 7.049 1.074 3.223 0.672 6.779-1.141 9.734l-96.594 154.46c-1.813 2.887-4.832 4.832-8.223 5.236-3.09 0.604-6.781-0.605-9.297-2.955-13.76-12.886-30.139-24.769-35.073-25.574z" fill="#000000"></path>
	</g>
</g>
<g display="none">
	<g display="inline">
		<path d="m134.79 172.61c-28.442 0-51.594-23.141-51.594-51.581 0-28.438 23.152-51.582 51.594-51.582 28.444 0 51.592 23.144 51.592 51.582 0 28.441-23.148 51.581-51.592 51.581zm0-79.741c-15.527 0-28.168 12.638-28.168 28.161 0 15.522 12.64 28.161 28.168 28.161 15.526 0 28.166-12.638 28.166-28.161 0-15.524-12.64-28.161-28.166-28.161z" fill="#000000"></path>
		<path d="m254.05 172.61c-28.477 0-51.635-23.141-51.635-51.581 0-28.438 23.158-51.582 51.635-51.582 28.447 0 51.526 23.144 51.526 51.582 0 28.441-23.079 51.581-51.526 51.581zm0-79.741c-15.564 0-28.204 12.638-28.204 28.161 0 15.522 12.639 28.161 28.204 28.161 15.523 0 28.165-12.638 28.165-28.161 0-15.524-12.642-28.161-28.165-28.161z" fill="#000000"></path>
		<path d="m373.18 172.61c-28.436 0-51.522-23.141-51.522-51.581 0-28.438 23.086-51.582 51.522-51.582 28.441 0 51.595 23.144 51.595 51.582-1e-3 28.441-23.154 51.581-51.595 51.581zm0-79.741c-15.525 0-28.167 12.638-28.167 28.161 0 15.522 12.642 28.161 28.167 28.161s28.233-12.638 28.233-28.161c0-15.524-12.708-28.161-28.233-28.161z" fill="#000000"></path>
		<path d="m134.82 411.02c-28.476 0-51.628-23.141-51.628-51.584 0-28.436 23.152-51.579 51.628-51.579 28.443 0 51.559 23.143 51.559 51.579-1e-3 28.444-23.116 51.584-51.559 51.584zm0-79.741c-15.561 0-28.201 12.63-28.201 28.157 0 15.525 12.64 28.161 28.201 28.161 15.526 0 28.132-12.636 28.132-28.161 0-15.527-12.606-28.157-28.132-28.157z" fill="#000000"></path>
		<path d="m134.82 291.79c-28.476 0-51.628-23.083-51.628-51.519 0-28.503 23.152-51.656 51.628-51.656 28.443 0 51.559 23.152 51.559 51.656-1e-3 28.436-23.116 51.519-51.559 51.519zm0-79.751c-15.561 0-28.201 12.637-28.201 28.233 0 15.525 12.64 28.092 28.201 28.092 15.526 0 28.132-12.566 28.132-28.092 0-15.596-12.606-28.233-28.132-28.233z" fill="#000000"></path>
		<path d="m373.24 411.02c-28.439 0-51.588-23.081-51.588-51.51 0-28.51 23.148-51.653 51.588-51.653 28.45 0 51.529 23.143 51.529 51.653 0 28.429-23.079 51.51-51.529 51.51zm0-79.741c-15.524 0-28.232 12.63-28.232 28.232 0 15.522 12.708 28.087 28.232 28.087 15.526 0 28.168-12.564 28.168-28.087 0-15.602-12.642-28.232-28.168-28.232z" fill="#000000"></path>
		<path d="m254.05 411.02c-28.477 0-51.635-23.081-51.635-51.51 0-28.51 23.158-51.653 51.635-51.653 28.447 0 51.526 23.143 51.526 51.653 0 28.429-23.079 51.51-51.526 51.51zm0-79.741c-15.564 0-28.204 12.63-28.204 28.232 0 15.522 12.639 28.087 28.204 28.087 15.523 0 28.165-12.564 28.165-28.087 0-15.602-12.642-28.232-28.165-28.232z" fill="#000000"></path>
		<path d="m373.24 291.86c-28.439 0-51.588-23.148-51.588-51.584s23.148-51.583 51.588-51.583c28.45 0 51.529 23.147 51.529 51.583s-23.079 51.584-51.529 51.584zm0-79.744c-15.524 0-28.232 12.638-28.232 28.16 0 15.525 12.708 28.162 28.232 28.162 15.526 0 28.168-12.637 28.168-28.162 0-15.522-12.642-28.16-28.168-28.16z" fill="#000000"></path>
		<path d="m254.05 291.79c-28.477 0-51.635-23.083-51.635-51.519 0-28.503 23.158-51.656 51.635-51.656 28.447 0 51.526 23.152 51.526 51.656 0 28.436-23.079 51.519-51.526 51.519zm0-79.751c-15.564 0-28.204 12.637-28.204 28.233 0 15.525 12.639 28.092 28.204 28.092 15.523 0 28.165-12.566 28.165-28.092 0-15.596-12.642-28.233-28.165-28.233z" fill="#000000"></path>
	</g>
</g>
<g display="none">
	<path d="m473.76 411.02c-25.729 0-94.954-11.701-106.82-33.264-7.707-13.089-5.193-42.625-1.989-64.288h-222.21c3.245 21.58 5.762 50.765-1.776 64.288-12.174 21.83-80.485 33.098-106.95 33.098-16.807 0-27.679-3.127-34.221-9.963-21.571-22.968-10.35-110.03 3.119-126.75 5.851-7.623 63.851-75.717 250.89-75.717 188.52 0 245.44 68.444 251.32 76.233 13.348 16.466 24.691 103.45 2.947 126.24-6.325 6.837-17.326 10.13-34.308 10.13zm-91.228-127.08c4.425 0 8.579 1.988 11.435 5.364 2.772 3.376 3.905 7.891 3.042 12.219-5.2 26.594-7.193 55.529-4.331 61.848 6.233 5.55 51.018 18.119 81.083 18.119 10.569 0 13.776-1.739 13.861-1.739 6.931-10.128 1.907-75.452-5.895-87.153-0.692-0.87-50.763-64.627-227.93-64.627-175.91 0-225.63 61.768-227.68 64.372-7.753 11.605-12.733 76.061-5.022 88.107 0.389-1.05 4.074 0.855 12.907 0.855 30.148 0 75.027-12.468 82.041-19.138 1.997-5.032-0.084-33.967-5.369-60.562-0.865-4.327 0.258-8.837 3.03-12.216 2.815-3.379 7.019-5.367 11.439-5.367l257.38-0.082z" display="inline" fill="#000000"></path>
</g>
<g display="none">
	<g display="inline">
		<path d="m328.76 22.677h-149.55c-19.86 0-36.039 16.113-36.039 35.974v316.4c0 19.859 16.179 35.974 36.039 35.974h149.55c19.862 0 36.04-16.114 36.04-35.974v-316.4c1e-3 -19.861-16.177-35.974-36.039-35.974zm-149.55 22.361h149.55c7.496 0 13.679 6.115 13.679 13.613v31.961h-176.84v-31.961c0-7.498 6.118-13.613 13.613-13.613zm163.23 67.935v204.66h-176.84v-204.66h176.84zm-13.678 275.69h-149.55c-7.496 0-13.613-6.114-13.613-13.612v-35.053h176.84v35.053c0 7.498-6.182 13.612-13.678 13.612z" fill="#000000"></path>
		<path d="m254.01 350.39c-7.365 0-13.417 5.984-13.417 13.351 0 7.365 6.052 13.352 13.417 13.352s13.283-5.986 13.283-13.352c1e-3 -7.367-5.917-13.351-13.283-13.351z" fill="#000000"></path>
		<rect x="222.18" y="60.23" width="63.596" height="14.994" fill="#000000"></rect>
	</g>
</g>
<g display="none">
	<g display="inline">
		<polygon points="445.94 318.86 377.06 318.86 377.06 249.71 354.06 249.71 354.06 318.86 285.01 318.86 285.01 341.87 354.06 341.87 354.06 411.02 377.06 411.02 377.06 341.87 445.94 341.87" fill="#000000"></polygon>
		<path d="m139.22 370.43c-15.734 0-70.914-24.9-76.563-46.891-1.457-5.346-1.66-14.887 13.633-34.848 8.594-11.232 36.91-43.238 53.895-43.238 11.605 0.609 28.215 12.654 40.16 22.736l82.855-132.56c-14.246-6.225-32.312-15.697-37.656-25.373-9.102-16.646 11.875-61.98 12.754-63.875 12.113-25.984 21.52-30.586 27.473-31.803 0.813-0.135 3.449-0.406 4.262-0.406 22.262 0 67.09 35.795 72.434 50.951 2.371 6.631 21.18 68.68-49.156 181.34-71.286 114.01-134.89 123.22-141.93 123.89-0.34 0-1.793 0.069-2.164 0.069zm-9.574-101.9c-8.359 2.773-43.477 39.447-44.523 50.41 3.82 7.647 43.438 28.352 53.996 28.418 3.484-0.406 59.711-9.27 124.57-113.07 65.733-105.28 47.804-159.28 46.991-161.51-4.266-8.932-40.43-35.523-50.648-35.523-7.985 5.344-25.61 52.912-23.751 63.197 2.234 2.639 20.301 12.18 38.094 18.945 3.184 1.219 5.684 3.857 6.836 7.105 1.082 3.248 0.676 6.834-1.152 9.812l-97.403 155.63c-1.824 2.977-4.871 4.871-8.289 5.346-3.211 0.541-6.832-0.678-9.371-2.979-13.871-12.988-30.379-25.033-35.351-25.778z" fill="#000000"></path>
	</g>
</g>
<g display="none">
	<path d="m351.16 38.92c-3.833 0-7.378 1.475-9.981 4.151l-235.19 235.26c-1.669 1.674-2.923 3.75-3.626 6.002l-32.822 106.16c-1.559 5.167-0.261 10.532 3.478 14.339 2.792 2.639 6.457 4.182 10.002 4.182h1e-3c1.402 0 2.772-0.236 4.073-0.701l106.65-32.774c2.301-0.718 4.385-1.927 6.018-3.494l235.14-235.22c2.646-2.716 4.173-6.398 4.173-10.083 0-3.684-1.527-7.365-4.191-10.1l-73.563-73.561c-2.791-2.724-6.31-4.172-10.161-4.172zm-246.47 334.28 24.603-77.913 17.296-17.385 53.439 53.434-18.926 18.402-76.412 23.462zm115.48-62.044-53.415-53.419 119.06-119.06 53.418 53.332-119.06 119.15zm139.23-139.23-53.408-53.496 45.165-45.086 53.415 53.414-45.172 45.168z" display="inline" fill="#000000"></path>
</g>
	<path d="m467.05 410.03h-445.88c-2.513 0-4.833-1.348-6.08-3.53-1.246-2.183-1.226-4.865 0.052-7.029l225.17-381.23c1.26-2.132 3.552-3.44 6.027-3.44h0.03c2.487 0.011 4.782 1.34 6.028 3.493l220.71 381.23c1.254 2.165 1.257 4.835 7e-3 7.003s-3.561 3.503-6.063 3.503zm-433.62-14h421.47l-208.63-360.36-212.84 360.36z" fill="#000000"></path>
	<polygon points="77.517 376.71 176.32 197.48 198.16 228.5 214.24 198.63 239.52 287.1 248.07 239.22 257.77 212.42 273.6 237.18 299.64 166.71 415.56 376.71" fill="#000000"></polygon>
<g display="none">
	<path d="m469.42 411.02h-430.87v-287.28h430.87m-369.98 212.92c1.082 0 1.623-0.54 1.623-1.623v-69.082h55.997c1.081 0 1.623-0.543 1.623-1.623v-14.508c0-1.08-0.542-1.623-1.623-1.623h-55.997v-43.317h70.706c1.082 0 1.623-0.54 1.623-1.623v-14.608c0-1.081-0.541-1.622-1.623-1.622h-87.342c-1.083 0-1.624 0.542-1.624 1.622v146.38c0 1.083 0.541 1.623 1.624 1.623h15.013zm103.81 0c1.082 0 1.623-0.54 1.623-1.623v-162.11c0-1.082-0.541-1.522-1.623-1.319l-14.1 2.232c-1.082 0.203-1.623 0.846-1.623 1.927v159.27c0 1.083 0.541 1.623 1.623 1.623h14.1zm78.554-94.597c3.519 0.71 6.257 1.946 8.22 3.704 1.959 1.76 3.295 4.141 4.006 7.151 0.708 3.01 1.066 6.812 1.066 11.413v7.1h-13.391c-7.849 0-14.712 0.22-20.598 0.659-5.885 0.441-10.958 1.184-15.218 2.232-4.262 1.049-7.796 2.419-10.602 4.107-2.807 1.692-5.038 3.806-6.695 6.341-1.658 2.537-2.823 5.496-3.5 8.876-0.677 3.383-1.015 7.271-1.015 11.667 0 6.694 0.964 12.208 2.891 16.534 1.928 4.33 4.868 7.779 8.826 10.348 3.956 2.571 8.978 4.362 15.064 5.376 6.087 1.016 13.256 1.522 21.51 1.522 2.298 0 4.988-0.068 8.067-0.203 3.076-0.137 6.306-0.339 9.687-0.608 3.381-0.271 6.848-0.593 10.396-0.963 3.553-0.373 6.916-0.795 10.094-1.268 1.084-0.065 1.623-0.675 1.623-1.825v-67.054c0-7.508-0.42-13.915-1.266-19.224-0.848-5.31-2.74-9.62-5.68-12.936-2.942-3.313-7.237-5.729-12.885-7.252-5.647-1.523-13.238-2.282-22.777-2.282-2.164 0-4.615 0.067-7.354 0.202-2.74 0.137-5.6 0.34-8.575 0.609-2.978 0.271-5.952 0.575-8.927 0.913-2.977 0.338-5.818 0.744-8.521 1.217-1.083 0.202-1.623 0.846-1.623 1.928v11.563c0 1.016 0.54 1.489 1.623 1.42 5.138-0.744 10.347-1.318 15.622-1.724 5.276-0.406 10.654-0.609 16.132-0.609 5.683 1e-3 10.285 0.355 13.8 1.066zm-22.623 82.017c-3.926-0.404-7.29-1.282-10.097-2.637-2.807-1.352-4.988-3.348-6.543-5.985-1.557-2.638-2.333-6.152-2.333-10.55 0-3.921 0.523-7.101 1.571-9.536 1.05-2.435 3.044-4.326 5.987-5.68 2.941-1.353 7.052-2.284 12.328-2.79 5.276-0.508 12.175-0.761 20.699-0.761h14.303v37.026c-3.384 0.542-7.034 0.931-10.957 1.166-3.923 0.238-7.911 0.355-11.972 0.355-4.738 1e-3 -9.066-0.202-12.986-0.608zm134.4 58.787c6.66-1.319 12.189-3.788 16.585-7.406 4.398-3.617 7.692-8.588 9.892-14.911 2.197-6.324 3.296-14.491 3.296-24.498v-105.6c0-1.081-0.541-1.724-1.624-1.928-6.355-1.013-12.899-1.739-19.627-2.181-6.73-0.439-13.071-0.659-19.021-0.659-9.739 0-17.84 0.829-24.295 2.485-6.46 1.657-11.652 4.447-15.572 8.369-3.923 3.923-6.696 9.08-8.319 15.471-1.623 6.39-2.434 14.32-2.434 23.788v12.781c0 9.269 0.811 17.077 2.434 23.434 1.623 6.358 4.378 11.515 8.269 15.471 3.889 3.956 9.061 6.814 15.521 8.572 6.457 1.758 14.521 2.638 24.193 2.638 4.328 0 8.486-0.222 12.477-0.66 3.99-0.44 7.508-1.032 10.549-1.775 0 7.034-0.624 12.732-1.874 17.094-1.253 4.362-3.333 7.76-6.239 10.194-2.908 2.436-6.763 4.075-11.563 4.92-4.804 0.845-10.721 1.269-17.754 1.269-3.854 0-8.015-0.152-12.479-0.456-4.463-0.305-8.555-0.83-12.275-1.573-0.606-0.137-1.029-0.102-1.265 0.102-0.238 0.201-0.424 0.573-0.559 1.114l-1.115 11.261c-0.205 1.083 0.267 1.759 1.418 2.029 2.029 0.473 4.262 0.879 6.695 1.217 2.436 0.338 4.886 0.609 7.356 0.813 2.467 0.203 4.901 0.355 7.304 0.457 2.398 0.1 4.614 0.152 6.644 0.152 8.925-1e-3 16.72-0.662 23.382-1.98zm1.218-141.52c3.954 0.239 7.657 0.559 11.104 0.964v78.519c-1.486 0.34-3.178 0.643-5.07 0.913-1.894 0.27-3.838 0.491-5.832 0.659-1.996 0.169-3.991 0.304-5.986 0.406-1.995 0.101-3.805 0.151-5.428 0.151-7.1 0-12.882-0.607-17.346-1.825-4.463-1.218-7.945-3.245-10.448-6.087-2.502-2.841-4.194-6.609-5.073-11.311-0.878-4.698-1.317-10.565-1.317-17.6v-7.608c0-7.101 0.44-13.052 1.317-17.854 0.879-4.801 2.538-8.657 4.972-11.565 2.435-2.906 5.833-4.984 10.194-6.239 4.362-1.25 9.991-1.876 16.89-1.876 4.058-1e-3 8.066 0.118 12.023 0.353z" display="inline" fill="#000000"></path>
</g>
<g display="none">
	<path d="m314.27 411.02h163.65s-0.959-29.566-12.036-56.732c-10.169-24.922-31.089-65.383-52.256-99.697-5.892-9.56-1.846-15.7 7.094-15.7 26.813 0 35.197-8.367 39.657-37.936 0.821-5.44 8.945 0.343 8.945-8.253 0-37.475-1.031-92.141-58.792-92.141-34.037 0-48.966 26.817-48.966 53.98 0 20.282 11.889 34.379 11.889 48.817 0 30.256-59.184 48.135-59.184 126.18v81.485z" display="inline" fill="#000000"></path>
		<path d="m230.08 411.02h161.67s-0.943-29.566-11.883-56.732c-10.051-24.922-30.714-65.383-51.626-99.697-5.819-9.56-1.825-15.7 7.006-15.7 26.493 0 34.766-8.367 39.18-37.936 0.812-5.44 8.833 0.343 8.833-8.253 0-37.475-1.02-92.141-58.082-92.141-33.619 0-48.37 26.817-48.37 53.98 0 20.282 11.753 34.379 11.753 48.817 0 30.256-58.48 48.135-58.48 126.18-1e-3 26.481-1e-3 81.485-1e-3 81.485z" display="inline" fill="none" stroke="#fff" stroke-linecap="round" stroke-linejoin="round" stroke-miterlimit="10" stroke-width="10"></path>
	<path d="m230.08 411.02h161.67s-0.943-29.566-11.883-56.732c-10.051-24.922-30.714-65.383-51.626-99.697-5.819-9.56-1.825-15.7 7.006-15.7 26.493 0 34.766-8.367 39.18-37.936 0.812-5.44 8.833 0.343 8.833-8.253 0-37.475-1.02-92.141-58.082-92.141-33.619 0-48.37 26.817-48.37 53.98 0 20.282 11.753 34.379 11.753 48.817 0 30.256-58.48 48.135-58.48 126.18-1e-3 26.481-1e-3 81.485-1e-3 81.485z" display="inline" fill="#000000"></path>
	<polygon points="257.59 165.69 225.12 165.69 225.12 133.22 200.22 133.22 200.22 165.69 167.75 165.69 167.75 190.59 200.22 190.59 200.22 223.06 225.12 223.06 225.12 190.59 257.59 190.59" display="inline" fill="#000000"></polygon>
	<path d="m-3.97 411.02h163.65s-0.96-29.566-12.038-56.732c-10.167-24.922-31.088-65.383-52.254-99.697-5.893-9.56-1.849-15.7 7.092-15.7 26.817 0 35.196-8.367 39.657-37.936 0.822-5.44 8.946 0.343 8.946-8.253 0-37.475-1.03-92.141-58.791-92.141-34.037 0-48.968 26.817-48.968 53.98 0 20.282 11.894 34.379 11.894 48.817 0 30.256-59.191 48.135-59.191 126.18v81.485z" display="inline" fill="#000000"></path>
</g>
<g display="none">
	<path d="m211.77 226.9h-99.645c-13.217 0-23.971-10.715-23.971-23.905v-99.658c0-13.213 10.754-23.967 23.971-23.967h99.645c13.198 0 23.923 10.754 23.923 23.967v99.659c0 13.19-10.725 23.904-23.923 23.904z" display="inline" fill="#000000"></path>
	<path d="m211.77 411.02h-99.645c-13.217 0-23.971-10.727-23.971-23.905v-99.661c0-13.211 10.754-23.963 23.971-23.963h99.645c13.198 0 23.923 10.752 23.923 23.963v99.661c0 13.179-10.725 23.905-23.923 23.905z" display="inline" fill="#000000"></path>
	<path d="m395.89 411.02h-99.644c-13.219 0-23.972-10.727-23.972-23.905v-99.661c0-13.211 10.753-23.963 23.972-23.963h99.644c13.204 0 23.917 10.752 23.917 23.963v99.661c0 13.179-10.713 23.905-23.917 23.905z" display="inline" fill="#000000"></path>
</g>
<g display="none">
	<path d="m298.12 411.02c-10.234 0-18.57-8.302-18.57-18.502v-173.06c0-10.221 8.336-18.531 18.57-18.531h251.97c10.216 0 18.532 8.308 18.532 18.499v173.06c0 10.229-8.316 18.533-18.532 18.533h-251.97zm251.1-78.394-114.72-25.589c-2.314-5.772-4.84-11.239-7.641-16.429 11.944-26.797 33.205-44.852 95.012-52.052 4.965-0.585 8.507-5.092 7.926-10.043-0.564-4.977-5.084-8.531-10.022-7.956-55.422 6.477-86.244 21.616-104.18 52.41-13.008-17.427-30.385-32.305-53.668-46.044-4.322-2.552-9.855-1.127-12.407 3.194-2.524 4.291-1.097 9.855 3.192 12.378 28.521 16.848 47.331 34.847 59.859 59.658l-109.63-24.475c-4.905-1.07-9.737 1.988-10.814 6.858-1.109 4.904 1.99 9.739 6.857 10.815l121.96 27.204c5.139 15.457 8.656 33.302 11.111 54.438 0.539 4.614 4.46 8.016 8.984 8.016 0.355 0 0.706-0.017 1.045-0.085 4.975-0.577 8.542-5.063 7.965-10.038-2.132-18.212-5.01-33.902-8.848-47.795l104.07 23.208c0.678 0.156 1.34 0.217 1.987 0.217 4.154 0 7.879-2.86 8.828-7.076 1.085-4.87-1.986-9.706-6.857-10.814z" display="inline" fill="#000000"></path>
	<path d="m432.46 158.57-12.501-67.359-18.933 19.114c-16.809-16.987-39.032-27.383-64.494-30.152-23.788-2.572-48.784 1.934-70.999 12.712l-13.402-24.754-34.645 63.928 68.504-1.364-12.391-22.93c40.467-19.352 87.735-13.44 115.53 14.572l-20.645 20.841 63.972 15.392z" display="inline" fill="#000000"></path>
	<path d="m243.18 296.96h-190.96c-30.435 0-46.659-13.376-54.909-24.582-13.817-18.799-16.426-46.601-7.158-76.278 20.086-64.344 68.556-98.436 157.16-110.54l2.291 16.734c-82.347 11.255-125.21 40.813-143.32 98.843-7.65 24.493-5.962 46.81 4.637 61.225 8.517 11.596 22.796 17.704 41.297 17.704h190.96v16.895z" display="inline" fill="#000000"></path>
	<path d="m153.26 132.34c-38.163 0-69.217 31.057-69.217 69.227 0 38.163 31.054 69.222 69.217 69.222 38.174 0 69.218-31.06 69.218-69.222 0-38.17-31.043-69.227-69.218-69.227zm46.041 85.106c-0.949-15.136-7.294-29.446-17.68-37.349-12.27-9.34-28.254-9.879-40.72-1.386-13.912 9.483-19.669 26.989-14.676 44.602l19.736-5.608c-3.09-10.887 1.566-18.684 6.496-22.043 2.499-1.7 9.132-5.041 16.745 0.753 8.476 6.45 12.174 24.274 7.754 37.375-3.693 10.929-11.66 16.482-23.696 16.482-26.855 0-48.703-21.861-48.703-48.706 0-26.864 21.848-48.711 48.703-48.711s48.707 21.847 48.707 48.711c0 5.549-0.947 10.893-2.666 15.88z" display="inline" fill="#000000"></path>
</g>
<g display="none">
	<polygon points="159.56 308.21 137.64 286.68 204.12 219 137.64 151.34 159.56 129.78 247.27 219" display="inline" fill="#000000"></polygon>
	<path d="m489.89 283.93c-7.625-7.121-12.292-16.008 8.211-17.929 20.512-1.893 28.009-6.003 28.009-53.826 0-47.838-14.345-79.27-48.512-79.27-23.915 0-48.508 21.874-48.508 44.421 0 41.68 16.397 36.21 16.397 62.761 0 11.363-27.001 24.545-42.035 56.95 14.909 24.219 25.955 65.664 25.955 92.556v21.434h96.702v-21.434c1e-3 -32.773-16.384-87.215-36.219-105.66z" display="inline" fill="#000000"></path>
	<path d="m270.26 411.02h132.49v-21.434c0-32.772-16.417-87.215-36.208-105.66-7.644-7.121-12.304-16.008 8.199-17.929 20.49-1.893 28.009-6.003 28.009-53.826 0-47.838-14.347-79.27-48.512-79.27-23.924 0-48.528 21.874-48.528 44.421 0 41.68 16.388 36.21 16.388 62.761 0 15.73-51.842 34.962-51.842 103.96v66.98z" display="inline" fill="#000000"></path>
	<path d="m-54.994 411.02h132.48v-21.434c0-32.772-16.41-87.215-36.225-105.66-7.634-7.121-12.302-16.008 8.195-17.929 20.505-1.893 28.03-6.003 28.03-53.826 0-47.838-14.365-79.27-48.527-79.27-23.912 0-48.514 21.874-48.514 44.421 0 41.68 16.394 36.21 16.394 62.761 0 15.73-51.835 34.962-51.835 103.96 1e-3 47.85 1e-3 66.98 1e-3 66.98z" display="inline" fill="#000000"></path>
</g>
<g display="none">
	<path d="m438.12 411.02h-368.23c-15.724 0-28.506-12.756-28.506-28.444v-244.68c0-15.723 12.783-28.508 28.506-28.508h368.23c15.693 0 28.459 12.785 28.459 28.508v244.68c0 15.689-12.766 28.444-28.459 28.444zm-368.23-284.1c-6.054 0-10.976 4.925-10.976 10.975v244.68c0 6.023 4.922 10.913 10.976 10.913h368.23c6.022 0 10.93-4.89 10.93-10.913v-244.68c0-6.049-4.907-10.975-10.93-10.975h-368.23z" display="inline" fill="#000000"></path>
	<path d="m106.18 173.27c-6.359-0.921-6.971-1.43-14.568-2.598-7.597-1.167-22.239-7.015-27.469 2.63-5.23 9.644 1.259 20.747 3.552 13.733 2.295-7.012 13.982-8.073 13.982 3.032 0 11.1 5.258 12.747-1.17 15.67-6.427 2.922-6.427 14.61-4.091 21.623 2.337 7.016 16.369 15.2 19.289 21.044 2.92 5.845 11.1 8.423 16.361 11.808 5.262 3.384 14.615-1.286 15.199 4.554 0.583 5.845-0.584 10.516-5.845 16.358-5.259 5.853-7.014 18.123 2.337 23.965 9.351 5.854 18.704 15.787 16.364 32.146-2.34 16.363 5.256 26.885 8.181 30.979 2.923 4.094 8.185 4.094 7.014-2.922-1.17-7.014-0.58-18.123 6.43-26.886 7.011-8.773 20.456-18.118 21.039-28.051 0.583-9.936 7.014-11.108 7.597-16.95 0.584-5.848-0.017-9.578-4.09-9.936-26.298-2.322-11.692-16.738-26.885-14.056-7.711 1.364-9.938-10.251-16.365-9.202-6.428 1.048-10.561 2.457-16.676 0-6.116-2.457-4.949-8.3-10.793-7.717-5.844 0.584-15.777-1.172-11.688-9.938 4.09-8.766 8.184-10.521 12.275-10.521 4.089 0 5.216 7.602 10.205 7.016s2.652-4.677 2.652-11.692c0-7.013 5.134-8.768 10.396-8.768 5.258 0 15.319-8.18 17.073-11.686 1.753-3.507 5.256-5.844 8.763-5.844s10.521-2.34 5.26-7.015c-5.26-4.674-11.103-18.118-14.609-15.778-3.507 2.339-8.769 19.873-14.612 15.195-5.843-4.677-11.103-9.937-5.843-11.689s8.183-8.178 12.273-8.765c4.091-0.586-6.43-6.817-10.521-5.164-4.089 1.657-12.27-5.132-15.777-0.276-3.506 4.857-10.899 6.332-15.24 5.701z" display="inline" fill="#000000"></path>
	<path d="m161.75 157.81c-5.482 3.792-10.521 15.782-4.676 15.782 5.843 0 16.362 5.261 16.362 5.261s6.755-7.599 0-5.261c-6.753 2.338-13.841-6.261-8.087-7.806 5.751-1.545 26.005-4.879 25.228 0-0.773 4.883-10.252 6.052-6.161 13.067 4.091 7.013 7.724 5.841 11.812 2.92 4.09-2.92 5.847-12.316 11.691-10.833 5.845 1.482 18.114-3.609 14.024-5.155-4.088-1.545 6.9-9.145 0.821-12.064-6.079-2.92-17.768-0.584-25.366 0-7.595 0.583-12.275 7.014-19.287 2.923-7.01-4.092-12.637-1.409-16.361 1.166z" display="inline" fill="#000000"></path>
	<path d="m132.53 246.65c-2.924 2.337-4.674 5.258 0 4.674 4.673-0.583 2.923-7.011 0-4.674z" display="inline" fill="#000000"></path>
	<path d="m211.42 248.77c-5.686 3.491 4.808 21.84 13.213 23.009 8.408 1.17 19.497-8.768 22.413 0 2.921 8.766 6.73 13.688 8.044 22.778 1.229 8.538-5.1 16.968 5.109 28.652 6.031 6.89 6.732 22.8 13.162 15.198 6.434-7.602 11.109-10.518 14.03-25.13 2.921-14.615 17.539-14.615 8.19-21.631-9.357-7.014-3.186-9.349 3.079-13.442 6.27-4.087 15.04-13.779 3.935-17.991-11.108-4.209-7.602-5.813-11.108-14.071-3.508-8.258-1.749-11.769-13.445-12.935-11.696-1.169-15.775-3.509-21.62-9.354-5.845-5.84-22.211-12.268-28.056-4.089-5.842 8.18-9.931 24.7-16.946 29.006z" display="inline" fill="#000000"></path>
	<path d="m230.12 189.96c-3.043 1.525-3.507 10.521 0 7.598 3.507-2.924 12.891 1.17 7.63 5.262-5.257 4.089-4.947 9.352 3.645 10.519 8.595 1.166 8.974-4.094 12.583-4.677 3.614-0.582 7.122 5.689 12.368 7.23 5.267 1.539 6.429-10.152 11.108-10.152 4.683 0 16.373 6.857 9.938 10.152-6.43 3.291-10.48 14.287-5.02 16.596 5.461 2.311 12.827 6.137 14.957 16.283 2.122 10.149 9.473 14.45 10.581 10.235 1.115-4.212 9.877-5.775 9.298-12.863-0.581-7.088-9.298-10.575 0.028-11.745 9.322-1.17 12.204 1.733 15.704 6.994 3.503 5.262 7.401 15.347 7.643 20.248 0.652 13.058 7.015 6.294 11.102-1.426 4.089-7.717 2.926-12.241 11.103-14.071 8.188-1.83 12.273 4.599 16.947 11.028 4.68 6.427 12.862 9.008 14.025 3.043 1.173-5.963-13.438-9.903-5.254-14.071 8.175-4.167 21.641-5.918 21.054-12.349-0.581-6.432-18.095-8.186-11.08-14.029 7.011-5.843 21.587-8.766 19.832-14.609-1.754-5.845-5.256-7.601-9.936-12.276-4.68-4.673-4.68-12.269 2.922-12.269 7.601 0 4.913 3.503 7.136 11.686 2.214 8.185 12.732 8.185 12.732-0.583 0-8.767 14.615-13.439 6.436-18.701-8.18-5.261-23.383 2.34-28.057 0-4.675-2.339-15.22-13.776-29.25-6.606-14.017 7.169-26.899-6.273-42.09-5.69-15.203 0.585-33.525 13.258-38.798 11.566-18.714-6.001-11.426 12.997-17.269 5.989-5.849-7.013-16.944-5.573-18.704-10.091-1.747-4.52-7.221-17.378-9.455-12.702s2.049 2.509 4.873 10.312c2.835 7.806-4.975 7.22-4.873 12.482 0.102 5.258 5.361 5.752 10.626 5.799 5.248 0.045-0.978 1.215-5.754 5.889-4.771 4.674-9.423 12.25-11.761 6.407-2.336-5.845-8.785-10.497-16.97-6.408z" display="inline" fill="#000000"></path>
	<path d="m300.84 312.69c0 7.599 3.045 15.776 7.073 2.923 4.035-12.857-7.073-10.518-7.073-2.923z" display="inline" fill="#000000"></path>
	<path d="m400.19 314.4c-9.061 0.603-11.102 21.654-3.507 21.654 7.601 0 21.631-10.521 22.217 0 0.587 10.522 9.935 15.201 15.194 7.014 5.261-8.176 9.585-2.297 12.273-12.25 2.682-9.949 4.086-11.771-4.091-16.418-8.183-4.639-4.681-15.746-12.275-15.746-7.593 0-15.782 2.198-19.29 7.816-3.505 5.627-1.165 7.315-10.521 7.93z" display="inline" fill="#000000"></path>
	<path d="m429.11 281.06c-5.695 0-3.605 4.675 0 4.675 3.603 0-0.04 11.69 7.854 11.69s16.427-4.681 7.376-8.186c-9.046-3.505-9.046-8.179-15.23-8.179z" display="inline" fill="#000000"></path>
	<path d="m401.36 271.77c-9.056-1.292-5.842 20.454 0 18.701 5.843-1.753 12.857-6.429 6.429-8.182-6.429-1.753 1.758-9.352-6.429-10.519z" display="inline" fill="#000000"></path>
	<path d="m379.74 275.28c-1.856 4.957 5.266 16.404 5.266 5.866 0-10.537-1.758-15.214-5.266-5.866z" display="inline" fill="#000000"></path>
	<path d="m410.36 263.01c1.057 5.225 15.901 4.676 9.891 0-6.024-4.675-5.579-16.213-9.891-11.616-4.315 4.605-0.949 6.945 0 11.616z" display="inline" fill="#000000"></path>
	<path d="m421.68 213.92c-3.305 2.758 3.823 16.947 5.489 4.092 1.671-12.858 0.792-9.352-5.489-4.092z" display="inline" fill="#000000"></path>
</g>
<g display="none">
	<path d="m170.29 374.31v36.712l68.649-58.936-68.649-58.935v36.71c-52.178 0-66.444-16.292-66.444-44.42h-33.428c0 57.889 28.536 88.869 99.872 88.869z" display="inline" fill="#000000"></path>
	<path d="m213.09 197.8c-16.326-11.218-29.579-12.249-47.151-24.34-10.235-7.038-7.072-18.767-3.755-22.886 2.701-3.361 5.72-8.04 7.329-11.298 4.815-1.117 8.745-23.37 2.959-24.789 2.041-20.066-10.893-50.121-36.576-50.121-25.681 0-41.514 30.055-39.471 50.121-5.784 1.419-1.279 23.965 3.538 25.084 1.61 3.251 4.874 7.119 6.751 11.003 2.395 4.957 6.192 17.003-4.048 24.047-17.566 12.083-25.901 16.59-42.227 27.816-27.991 19.242-24.593 52.081-24.593 52.081h201.86c1e-3 1e-3 3.381-37.473-24.613-56.718z" display="inline" fill="#000000"></path>
	<path d="m447.53 354.3c-16.329-11.232-29.591-12.272-47.155-24.347-10.245-7.044-7.074-18.772-3.756-22.88 2.701-3.382 5.723-8.056 7.323-11.295 4.815-1.133 8.745-23.388 2.971-24.796 2.036-20.078-10.897-50.125-36.571-50.125-25.688 0-41.513 30.047-39.484 50.125-5.771 1.408-1.265 23.956 3.549 25.076 1.594 3.249 4.861 7.122 6.752 11.015 2.387 4.956 6.187 17-4.048 24.047-17.571 12.078-25.918 16.585-42.226 27.819-27.946 19.237-24.543 52.077-24.543 52.077h201.78c0 1e-3 3.398-37.472-24.588-56.716z" display="inline" fill="#000000"></path>
	<path d="m293.44 109.38v-36.717l-68.638 58.931 68.638 58.935v-36.719c52.18 0 66.45 16.308 66.45 44.432h33.436c0-57.883-28.531-88.862-99.886-88.862z" display="inline" fill="#000000"></path>
</g>
<g display="none">
	<path d="m357.89 222.7c0 63.899 34.835 110.48 75.214 109.68 6.435-0.129 11.414-3.115 10.74-5.583-0.704-2.433-3.234-3.164-9.232-5.426-20.85-7.94-38.358-46.549-38.358-98.666 0-52.128 17.614-90.734 38.467-98.667 6.001-2.277 8.337-2.582 9.053-4.988 0.744-2.411-4.235-5.64-10.67-5.771-39.877-0.813-75.214 45.511-75.214 109.43m-71.184 0c0 85.355 44.657 147.24 102.7 146.16 8.815-0.191 16.137-2.844 14.697-6.958-1.438-4.146-4.362-2.144-12.602-5.146-33.369-12.127-59.494-64.432-59.494-134.06 0-69.626 26.125-121.92 59.494-134.08 8.239-3.001 11.164-0.68 12.602-4.813 1.439-4.134-5.884-7.101-14.697-7.271-58.043-1.089-102.7 60.792-102.7 146.16zm-83.999-47.631c12.747-80.612 62.938-130.69 132.52-137.55 11.639-1.149 19.995 2.079 19.825 5.726-0.142 3.647-4.866 2.805-15.049 8.292-40.482 21.839-80.8 82.224-80.8 171.16 0 88.951 39.296 149.22 79.813 171.06 10.149 5.486 15.708 4.659 15.852 8.278 0.419 3.263-2.003 5.19-5.869 6.251-2.508 1.151-5.665 1.739-9.136 1.149-5.391 0.154-11.299-0.262-16.019-0.675-82.23-7.374-174.62-77.028-193.01-186.06-1.441-8.546-0.19-14.309-3.197-14.304-3.008 9e-3 -3.113 3.863-3.547 14.304-3.255 78.538 32.803 135.24 80.813 171.97 9.174 7.03 14.229 9.018 14.065 12.412-0.171 3.394-7.606 5.558-18.856 2.404-64.197-17.982-136.05-77.751-136.05-186.79 0-109.04 75.948-183.47 162.41-193.37 11.6-1.33 17.959-0.356 18.623 4.213 0.665 4.567-3.552 3.95-10.105 12.455-29.843 38.695-59.717 87.767-44.729 176.7 4.124 24.48 8.367 28.559 11.255 27.716 2.889-0.873-0.878-13.172-1.571-27.664-0.738-15.767 0.247-31.735 2.763-47.684z" display="inline" fill-rule="evenodd" fill="#000000"></path>
</g>
<g display="none">
	<path d="m211.66 248.09h-59.72c-13.375 0-24.28-10.903-24.28-24.291v-59.698c0-13.39 10.905-24.288 24.28-24.288h59.72c13.374 0 24.276 10.898 24.276 24.288v59.698c1e-3 13.387-10.902 24.291-24.276 24.291z" display="inline" fill="#000000"></path>
	<path d="m67.274 248.09h-59.718c-13.377 0-24.283-10.903-24.283-24.291v-59.698c0-13.39 10.905-24.288 24.283-24.288h59.718c13.377 0 24.275 10.898 24.275 24.288v59.698c0 13.387-10.898 24.291-24.275 24.291z" display="inline" fill="#000000"></path>
	<path d="m356.04 248.09h-59.72c-13.374 0-24.283-10.903-24.283-24.291v-59.698c0-13.39 10.909-24.288 24.283-24.288h59.72c13.374 0 24.276 10.898 24.276 24.288v59.698c0 13.387-10.902 24.291-24.276 24.291z" display="inline" fill="#000000"></path>
	<path d="m500.42 248.09h-59.72c-13.374 0-24.283-10.903-24.283-24.291v-59.698c0-13.39 10.909-24.288 24.283-24.288h59.72c13.374 0 24.273 10.898 24.273 24.288v59.698c0 13.387-10.899 24.291-24.273 24.291z" display="inline" fill="#000000"></path>
	<path d="m211.66 410.5h-59.72c-13.375 0-24.28-10.902-24.28-24.291v-59.697c0-13.389 10.905-24.285 24.28-24.285h59.72c13.374 0 24.276 10.897 24.276 24.285v59.697c1e-3 13.389-10.902 24.291-24.276 24.291z" display="inline" fill="#000000"></path>
	<path d="m67.274 410.5h-59.718c-13.377 0-24.283-10.902-24.283-24.291v-59.697c0-13.389 10.905-24.285 24.283-24.285h59.718c13.377 0 24.275 10.897 24.275 24.285v59.697c0 13.389-10.898 24.291-24.275 24.291z" display="inline" fill="#000000"></path>
	<path d="m356.04 410.5h-59.72c-13.374 0-24.283-10.902-24.283-24.291v-59.697c0-13.389 10.909-24.285 24.283-24.285h59.72c13.374 0 24.276 10.897 24.276 24.285v59.697c0 13.389-10.902 24.291-24.276 24.291z" display="inline" fill="#000000"></path>
	<path d="m500.42 410.5h-59.72c-13.374 0-24.283-10.902-24.283-24.291v-59.697c0-13.389 10.909-24.285 24.283-24.285h59.72c13.374 0 24.273 10.897 24.273 24.285v59.697c0 13.389-10.899 24.291-24.273 24.291z" display="inline" fill="#000000"></path>
</g>
<g display="none">
	<path d="m200.15 169.41c-2.555 0-5.12-0.912-7.161-2.76-13.14-11.896-20.682-30.147-20.682-50.068 0-19.923 7.542-38.173 20.682-50.071 4.369-3.954 11.118-3.62 15.072 0.747 3.956 4.369 3.619 11.116-0.752 15.072-8.553 7.744-13.661 20.547-13.661 34.252 0 13.701 5.108 26.504 13.661 34.248 4.371 3.955 4.708 10.704 0.752 15.071-2.109 2.327-5.006 3.509-7.911 3.509z" display="inline" fill="#000000"></path>
	<path d="m149.96 193.47c-2.933 0-5.849-1.199-7.956-3.556-18.071-20.194-28.019-46.239-28.019-73.333 0-27.099 9.947-53.144 28.019-73.338 3.924-4.394 10.67-4.768 15.061-0.84 4.392 3.93 4.769 10.674 0.842 15.065-14.564 16.281-22.588 37.272-22.588 59.113 0 21.836 8.024 42.83 22.588 59.108 3.927 4.391 3.55 11.133-0.842 15.067-2.032 1.821-4.577 2.714-7.105 2.714z" display="inline" fill="#000000"></path>
	<path d="m307.82 169.41c-2.906 0-5.802-1.183-7.912-3.509-3.953-4.37-3.612-11.116 0.755-15.071 8.553-7.743 13.659-20.546 13.659-34.248 0-13.705-5.107-26.508-13.659-34.252-4.367-3.955-4.708-10.702-0.755-15.072 3.955-4.367 10.703-4.702 15.064-0.747 13.153 11.896 20.694 30.146 20.694 50.071 0 19.923-7.541 38.174-20.694 50.068-2.038 1.849-4.592 2.76-7.152 2.76z" display="inline" fill="#000000"></path>
	<path d="m358 193.47c-2.536 0-5.072-0.893-7.115-2.715-4.393-3.932-4.771-10.676-0.836-15.065 14.565-16.278 22.58-37.27 22.58-59.108 0-21.842-8.016-42.833-22.58-59.11-3.935-4.393-3.557-11.137 0.836-15.067 4.385-3.924 11.133-3.556 15.072 0.838 18.061 20.195 28.016 46.241 28.016 73.339 0 27.095-9.955 53.141-28.016 73.334-2.114 2.355-5.025 3.554-7.957 3.554z" display="inline" fill="#000000"></path>
	<path d="m286.38 104.58c0-16.226-14.524-29.379-32.397-29.379-17.893 0-32.406 13.154-32.406 29.379 0 12.311 8.366 22.835 20.204 27.208l-16.799 259.85h58l-16.784-259.86c11.813-4.372 20.182-14.897 20.182-27.207z" display="inline" fill="#000000"></path>
	<g display="inline">
		<path d="m183.58 365.1c0 1.096-0.551 1.654-1.654 1.654h-14.205c-1.035 0-1.59-0.51-1.658-1.552-0.072-0.69-0.141-1.538-0.207-2.533-0.07-1.017-0.138-2.024-0.208-3.064-0.069-1.042-0.12-2.037-0.155-3.005-0.037-0.964-0.053-1.768-0.053-2.389 0-3.31 0.139-6.246 0.417-8.766 0.275-2.518 0.915-4.992 1.916-7.417 1.001-2.414 2.471-4.874 4.409-7.404 1.933-2.525 4.56-5.441 7.875-8.753l6.945-6.744c2.764-2.694 5.151-5.171 7.153-7.413 2.005-2.238 3.663-4.352 4.981-6.324 1.311-1.969 2.279-3.902 2.902-5.81 0.622-1.897 0.93-3.853 0.93-5.854v-1.555c0-5.186-2.125-8.882-6.375-11.092-4.248-2.214-10.66-3.316-19.23-3.316-3.803 0-7.656 0.146-11.56 0.47-3.907 0.305-8.24 0.838-13.009 1.597-0.622 0.072-1.076 0-1.348-0.2-0.276-0.211-0.483-0.621-0.623-1.245l-2.387-13.686c-0.205-1.109 0.242-1.794 1.349-2.073 4.357-0.969 9.229-1.712 14.616-2.229 5.393-0.525 10.681-0.777 15.863-0.777 6.495 0 12.389 0.473 17.677 1.396 5.289 0.935 9.813 2.525 13.585 4.776 3.766 2.241 6.667 5.215 8.704 8.904 2.035 3.712 3.064 8.316 3.064 13.85v1.553c0 3.108-0.356 6.049-1.042 8.805-0.688 2.775-1.818 5.559-3.37 8.359-1.553 2.797-3.59 5.697-6.116 8.703-2.523 2.998-5.615 6.371-9.277 10.112l-7.774 8.09c-2.904 3.03-5.167 5.547-6.792 7.557-1.623 2.011-2.837 3.942-3.625 5.8-0.798 1.881-1.284 3.932-1.453 6.172-0.175 2.247-0.263 5.073-0.263 8.459v6.944zm-15.858 45.922c-1.107 0-1.658-0.559-1.658-1.654v-23.638c0-1.17 0.551-1.805 1.658-1.878l15.239-2.472c0.62-0.073 1.052 0 1.294 0.205 0.244 0.202 0.367 0.612 0.367 1.245v26.537c0 1.096-0.559 1.654-1.661 1.654h-15.239z" fill="#000000"></path>
	</g>
</g>
<g display="none">
	<path d="m304.02 361c0 27.646-22.393 50.025-50.035 50.025-27.631 0-50.031-22.38-50.031-50.025 0-27.642 22.4-50.026 50.031-50.026 27.643 0 50.035 22.384 50.035 50.026z" display="inline" fill="#000000"></path>
	<path d="m304.02 212.6c0 27.643-22.393 50.025-50.035 50.025-27.631 0-50.031-22.383-50.031-50.025s22.4-50.028 50.031-50.028c27.643-1e-3 50.035 22.386 50.035 50.028z" display="inline" fill="#000000"></path>
	<path d="m304.02 64.199c0 27.64-22.393 50.026-50.035 50.026-27.631 0-50.031-22.386-50.031-50.026 0-27.639 22.4-50.026 50.031-50.026 27.643 0 50.035 22.387 50.035 50.026z" display="inline" fill="#000000"></path>
</g>
<g display="none">
	<path d="m-187.74 203.83c-62.255 16.074-81.083 36.364-82.049 91.206l-2.052 115.99 263.6-28.428 18.129-73.28c4.878-19.722 22.767-33.039 44.318-33.992 133.19-5.978 266.36-5.978 399.56 0 21.534 0.953 39.444 14.279 44.288 33.992l18.131 73.281 263.62 28.428-2.064-115.99c-0.958-54.842-19.786-75.132-82.034-91.206-248.68-64.237-634.78-64.237-883.45-1e-3z" display="inline" fill-rule="evenodd" fill="#000000"></path>
</g>
<g display="none">
	<path d="m356.51 109.88c15.174-25.738 14.693-38.591-3.01-56.929l-37.435-38.784-77.276 95.953 18.124 30.038c4.875 8.081 3.375 18.336-3.39 25.732-41.801 45.725-85.558 89.482-131.29 131.28-7.392 6.763-17.654 8.266-25.723 3.385l-30.04-18.125-95.956 77.279 38.785 37.434c18.338 17.704 31.19 18.185 56.926 3.013 102.82-60.605 229.68-187.47 290.28-290.28z" display="inline" fill-rule="evenodd" fill="#000000"></path>
</g>
<g display="none">
	<path d="m48.722 220.81c-28.929 7.471-37.678 16.899-38.126 42.383l-0.954 53.896 122.49-13.206 8.424-34.056c2.268-9.162 10.579-15.352 20.592-15.799 61.89-2.773 123.77-2.774 185.67 2e-3 10.008 0.444 18.328 6.639 20.582 15.796l8.424 34.056 122.5 13.207-0.957-53.896c-0.447-25.485-9.195-34.912-38.121-42.383-115.56-29.847-294.97-29.848-410.52 0z" display="inline" fill-rule="evenodd" fill="#000000"></path>
</g>
<g display="none">
	<path d="m488.84 202.72c10.495-17.803 10.156-26.693-2.085-39.376l-25.895-26.831-53.45 66.371 12.528 20.778c3.378 5.594 2.339 12.686-2.333 17.802-28.919 31.629-59.183 61.896-90.822 90.816-5.111 4.67-12.205 5.707-17.795 2.33l-20.778-12.53-66.367 53.45 26.825 25.896c12.683 12.24 21.576 12.579 39.377 2.084 71.126-41.913 158.88-129.68 200.8-200.79z" display="inline" fill-rule="evenodd" fill="#000000"></path>
	<path d="m384.19 216.89 7.597 12.597c-24.6 26.572-50.436 52.406-76.979 76.973l-12.595-7.593c-9.753-5.883-22.14-5.044-31.01 2.099l-64.446 51.904v-200.39h-15.746v210.98h6.564c-1.667 3.349-2.645 7.042-2.816 10.865-0.202 4.518 0.733 8.955 2.647 12.944h-162.61c-12.781 0-23.174-10.391-23.174-23.134v-212.32c0-12.778 10.393-23.171 23.174-23.171h356.11c12.633 0 22.918 10.195 23.115 22.804l-27.734 34.44c-7.144 8.868-7.983 21.256-2.102 31.008zm-216.7 83.957h-124.84v15.745h124.84v-15.745zm0-54.637h-124.84v15.748h124.84v-15.748zm0-54.637h-124.84v15.748h124.84v-15.748z" display="inline" fill="#000000"></path>
</g>
<g display="none">
	<path d="m464.32 255.6c6.775 3.689 11.949 8.772 15.52 15.244 3.565 6.472 5.352 13.823 5.352 22.048 0 7.867-1.904 15.152-5.715 21.868-3.814 6.714-9.346 12.128-16.605 16.239-7.26 4.114-15.728 6.171-25.406 6.171-10.646 0-19.906-2.329-27.767-6.987-7.867-4.655-14.002-11.795-18.418-21.411-4.418-9.62-6.627-21.688-6.627-36.203 0-14.156 2.025-26.286 6.084-36.388 4.051-10.101 10.006-17.811 17.873-23.138 7.861-5.322 17.422-7.984 28.672-7.984 11.131 0 20.748 2.57 28.855 7.712 8.106 5.143 13.912 13.155 17.422 24.045l-26.131 3.086c-4.113-6.899-10.709-10.346-19.783-10.346-7.256 0-13.098 2.514-17.51 7.532-4.418 5.023-6.986 13.402-7.715 25.134 3.266-3.99 7.289-7.016 12.07-9.073 4.777-2.058 10.07-3.085 15.877-3.085 9.192 1e-3 17.177 1.846 23.952 5.536zm-16.785 54.442c3.086-1.75 5.506-4.175 7.26-7.257 1.754-3.089 2.633-6.503 2.633-10.254 0-3.75-0.908-7.107-2.721-10.072-1.816-2.966-4.268-5.264-7.352-6.896-3.086-1.633-6.568-2.449-10.436-2.449-4.717 0-9.348 1.028-13.883 3.083-4.535 2.06-8.076 4.962-10.617 8.712 0.848 9.196 3.449 16.124 7.805 20.779 4.353 4.658 9.98 6.984 16.877 6.984 3.869 0 7.352-0.874 10.434-2.63z" display="inline" fill="#000000"></path>
	<path d="m463.61 411.02h-58.254c-31.699 0-57.49-25.789-57.49-57.489v-168.49c0-31.701 25.791-57.489 57.49-57.489h58.254c31.697 0 57.49 25.789 57.49 57.489v168.49c0 31.7-25.793 57.489-57.49 57.489zm-58.254-264.02c-20.977 0-38.047 17.067-38.047 38.045v168.49c0 20.978 17.07 38.046 38.047 38.046h58.254c20.977 0 38.047-17.067 38.047-38.046v-168.49c0-20.979-17.07-38.045-38.047-38.045h-58.254z" display="inline" fill="#000000"></path>
	<path d="m198.11 293.81v-22.864h82.021v22.864h-82.021z" display="inline" fill="#000000"></path>
	<path d="m86.089 411.02h-41.732c-31.7 0-57.489-25.789-57.489-57.489v-168.49c0-31.701 25.789-57.489 57.489-57.489h41.732c31.701 0 57.49 25.789 57.49 57.489v168.49c0 31.7-25.789 57.489-57.49 57.489zm-41.732-264.02c-20.979 0-38.046 17.067-38.046 38.045v168.49c0 20.978 17.067 38.046 38.046 38.046h41.732c20.979 0 38.046-17.067 38.046-38.046v-168.49c0-20.979-17.067-38.045-38.046-38.045h-41.732z" display="inline" fill="#000000"></path>
	<path d="m69.448 207.24h18.148v127.76h-27.583v-95.455l-32.303 16.694-2.359-24.862 44.097-24.134z" display="inline" fill="#000000"></path>
</g>
<g display="none">
		<rect transform="matrix(.5935 -.8048 .8048 .5935 -247.68 224.18)" x="75.498" y="297.45" width="45.205" height="119.7" display="inline" fill="#000000"></rect>
	<path d="m-51.144 162.54c46.667 0 84.635 37.968 84.635 84.629 0 13.181-3.027 25.67-8.423 36.795l14.93 11.017-18.579 25.165-14.962-11.03c-15.125 14.064-35.375 22.683-57.601 22.683-46.672 0-84.639-37.973-84.639-84.63 0-46.661 37.967-84.629 84.639-84.629zm0 157.29c40.058 0 72.655-32.596 72.655-72.661 0-40.056-32.597-72.648-72.655-72.648-40.065 0-72.651 32.592-72.651 72.648 0 40.065 32.586 72.661 72.651 72.661z" display="inline" fill="#000000"></path>
	<path d="m-24.287 281.35-7.608-18.538h-38.853l-7.727 18.538h-12.828l36.122-83.654h8.077l36.12 83.654h-13.303zm-41.829-29.465h29.706l-14.73-35.891-14.976 35.891z" display="inline" fill="#000000"></path>
	<path d="m63.362 215.04c1.522 5.429 2.667 11.025 3.402 16.735h203.19v41.574h-178.14l22.686 16.714h529.24v-75.024h-580.38zm555.77 58.31h-174.64v-41.574h174.64v41.574z" display="inline" fill="#000000"></path>
</g>
<g display="none" fill-rule="evenodd">
	<rect x="66.895" y="153.02" width="41.736" height="133.08" display="inline" fill="#000000"></rect>
	<rect x="133.38" y="86.001" width="41.731" height="267.11" display="inline" fill="#000000"></rect>
	<rect x="199.87" y="28.078" width="41.737" height="382.94" display="inline" fill="#000000"></rect>
	<rect x="266.36" y="153.02" width="41.744" height="133.08" display="inline" fill="#000000"></rect>
	<rect x="332.85" y="153.02" width="41.734" height="133.08" display="inline" fill="#000000"></rect>
	<rect x="399.34" y="107.06" width="41.731" height="224.97" display="inline" fill="#000000"></rect>
</g>
<g display="none">
	<g display="inline">
		<rect x="78.244" y="296.25" width="45.988" height="13.675" fill-rule="evenodd" fill="#000000"></rect>
		<path d="m224.04 272.1v-32.481h-6.814v32.481h-18.629v-32.481h-6.757v32.481h-9.231v26.117c0 12.047 8.389 22.347 20.15 24.769v36.641c0 7.04-2.755 12.219-7.881 14.413-1.743 0.792-3.771 1.129-5.741 1.129-1.969 0-3.997-0.337-5.796-1.183-5.124-2.252-8.053-7.374-8.053-14.359v-33.148c0-8.107-2.532-14.863-7.316-19.48-5.687-5.631-12.158-8.612-18.913-8.556v-52.012c0-3.827-3.04-6.811-6.812-6.811h-82.017c-3.77 0-6.753 3.038-6.753 6.811l-0.059 148.27h-13.45v16.325h122.54v-16.325h-13.454v-85.96h0.227c3.881 0 7.71 1.804 11.482 5.576 2.816 2.813 4.221 6.869 4.221 12.162v33.148c0 11.095 5.348 19.873 14.127 23.817 3.268 1.35 6.589 2.081 9.967 2.081h0.054c3.435 0 6.87-0.731 9.908-2.027 8.781-3.883 14.017-12.722 14.017-23.871v-36.641c11.764-2.422 20.208-12.722 20.208-24.769v-26.117h-9.23zm-88.604 122.6h-68.335v-141.46h68.335v141.46z" fill="#000000"></path>
		<path d="m459.72 345.39h-203.54l8.495-16.607h186.83v-194.77h-293.04v81.229h-16.549v-89.503c0-4.616 3.771-8.274 8.274-8.274h309.54c4.675 0 8.276 3.659 8.276 8.274v211.32c0 4.674-3.602 8.334-8.277 8.334z" fill="#000000"></path>
		<path d="m278.64 313.19c-4.444 0-8.053-3.489-8.216-7.936-0.164-4.561 3.381-8.446 7.938-8.67 12.942-0.45 19.64-4.674 28.196-9.906 11.372-7.038 24.313-15.087 53.252-15.087h1.467c11.255 0.112 25.773-2.084 31.408-13.227 4.729-9.401 1.911-22.403-3.549-29.496-16.156-21.391-45.316-47.682-64.905-58.769-10.357-5.858-29.158-10.135-50.655-4.222-16.211 4.389-39.348 15.93-58.372 46.381-2.422 3.773-7.491 5.068-11.428 2.593-3.827-2.424-5.068-7.491-2.646-11.374 38.785-61.976 100.03-65.297 131.21-47.735 21.62 12.16 52.352 39.855 69.974 63.104 8.557 11.257 13.06 31.017 5.179 46.947-5.179 10.245-17.228 22.349-45.483 22.349-0.227 0-0.563 0-0.846-0.061-25.163-0.167-35.352 6.025-45.936 12.667-9.287 5.799-18.909 11.766-36.247 12.442h-0.337z" fill="#000000"></path>
		<path d="m277.85 265.34c-4.332 0-8.106-3.489-8.221-7.993-0.167-4.56 3.438-8.335 7.997-8.502 5.285-0.221 8.884-1.745 13.504-3.829 6.583-2.866 14.802-6.357 29.211-6.245 2.646 0.054 7.603-0.396 9.121-2.927 1.687-2.646 0.847-8.051-0.846-11.539-4.333-8.839-15.761-15.707-28.989-17.396-13.446-1.8-25.547 1.802-32.589 9.854-2.976 3.377-8.214 3.714-11.531 0.733-3.44-2.987-3.832-8.281-0.852-11.711 10.697-12.103 28.256-17.788 47.171-15.313 18.798 2.533 34.842 12.723 41.65 26.512 3.494 7.206 5.629 18.799 0.055 27.696-3.093 4.843-9.51 10.524-22.961 10.524h-0.961c-10.524 0-16.039 2.424-21.896 4.957-5.175 2.249-11.082 4.842-19.582 5.178-0.114 1e-3 -0.229 1e-3 -0.281 1e-3z" fill="#000000"></path>
	</g>
</g>
<g display="none">
	<path d="m161.91 296.6c-2.362-2.271-5.138-3.408-8.621-3.408-2.294-0.179-4.176-0.336-5.625-0.729-1.469-0.297-2.785-0.83-3.972-1.711-1.391-0.719-2.22-1.866-2.634-3.236v-0.172c-0.84-2.405-1.674-4.708-2.578-6.907-0.978-2.333-2.089-4.679-3.332-7.027-0.284-0.428-0.491-0.853-0.634-1.204-0.269-0.481-0.346-0.895-0.488-1.367l-0.272-0.245c-0.771-1.171-0.978-2.504-0.629-3.892 0.424-1.286 1.043-2.614 1.739-3.858 0.974-1.357 2.222-2.864 3.616-4.485 2.503-2.324 3.688-5.182 3.688-8.59 0-3.363-1.185-6.17-3.688-8.369l-6.191-6.342c-2.636-2.356-5.349-3.6-8.208-3.6-1.525 0-3.196 0.315-4.724 0.829-1.526 0.558-2.918 1.528-3.966 2.771-1.18 1.051-2.226 2.021-3.262 2.792-1.052 0.828-2.087 1.489-3.2 1.986-1.186 0.592-2.295 0.828-3.405 0.828-1.394 0-2.233-0.315-2.648-0.955h-0.212c-2.29-1.243-4.444-2.333-6.883-3.174-2.359-0.899-4.729-1.67-7.232-2.5-1.247-0.221-2.084-0.491-2.574-0.636l-0.27-0.273c-1.535-0.282-2.784-1.112-3.48-2.498-0.621-1.301-1.111-2.672-1.461-4.113-0.488-1.726-0.697-3.567-0.697-5.714 0-3.155-1.179-5.969-3.472-8.363-2.23-2.333-5.007-3.516-8.208-3.516h-8.972c-3.333 0-6.187 1.183-8.482 3.516-2.432 2.395-3.614 5.208-3.614 8.363 0 2.146-0.21 3.988-0.627 5.714-0.35 1.683-0.837 3.068-1.527 4.413-0.697 1.265-1.88 2.094-3.201 2.472-2.502 0.829-4.868 1.658-7.235 2.567-2.222 0.984-4.587 2.026-6.814 3.328-0.554 0.304-0.905 0.541-1.319 0.638-0.418 0.201-0.903 0.417-1.392 0.732v0.315c-0.625 0.276-1.46 0.42-2.574 0.42-1.249 0-2.434-0.26-3.619-0.735-1.181-0.474-2.22-1.065-3.198-1.844-1.039-0.827-2.153-1.742-3.264-2.854-2.229-2.346-5.075-3.412-8.484-3.412-3.336 0-6.115 1.066-8.486 3.412l-6.257 6.361c-2.281 2.15-3.341 4.906-3.341 8.346 0 3.347 1.06 6.084 3.341 8.465 1.402 1.373 2.57 2.786 3.474 4.362 0.695 1.333 1.4 2.601 1.879 4.031 0.489 1.469 0.29 2.742-0.479 4.068v0.175c-1.246 2.264-2.304 4.544-3.275 6.972-0.96 2.406-1.864 4.778-2.56 7.17-0.152 0.274-0.362 0.664-0.417 1.185-0.073 0.415-0.223 0.903-0.561 1.372v0.229c-0.343 1.221-1.051 2.258-2.098 3.142-1.102 0.679-2.296 1.279-3.671 1.694-1.389 0.414-2.504 0.65-3.755 0.65-0.988 0.141-1.807 0.268-2.234 0.268-3.435 0-6.357 1.117-8.755 3.406-2.361 2.186-3.438 5.088-3.438 8.494v8.71c0 3.249 1.077 6.094 3.438 8.472 2.397 2.37 5.32 3.609 8.755 3.609 1.888 0 3.655 0.154 5.423 0.627 1.402 0.299 2.781 0.916 4.103 1.688 1.247 0.742 2.152 1.806 2.503 3.05 0.764 2.578 1.667 4.931 2.571 7.233 0.906 2.427 1.89 4.74 3.003 6.871 0.484 0.415 0.834 0.846 0.968 1.275 0.2 0.472 0.351 0.886 0.694 1.3h0.274c0.764 1.334 0.974 2.582 0.415 4.18-0.415 1.451-1.103 2.785-1.867 4.028-0.916 1.598-2.084 2.992-3.487 4.326-2.354 2.429-3.537 5.42-3.537 8.62 0 3.316 1.183 6.101 3.537 8.471l6.34 6.133c2.081 2.224 4.924 3.316 8.266 3.316 3.473 0 6.537-1.093 8.622-3.316 1.112-0.918 2.294-1.748 3.338-2.578 0.974-0.62 2.014-1.125 3.199-1.746 1.11-0.623 2.362-0.83 3.544-0.83s1.877 0.146 2.366 0.415l0.277 0.272c2.155 1.268 4.448 2.246 6.885 3.076 2.36 0.771 4.797 1.51 7.301 2.37 0.347 0.118 0.832 0.266 1.178 0.324 0.487 0.091 0.905 0.208 1.391 0.354h0.145c1.454 0.355 2.503 1.128 3.336 2.518 0.765 1.246 1.319 2.639 1.599 4.089 0.488 1.747 0.695 3.673 0.488 5.631 0 3.404 1.182 6.25 3.614 8.769 2.295 2.279 5.144 3.407 8.484 3.407h8.828c3.2 0 5.984-1.128 8.345-3.407 2.502-2.519 3.756-5.364 3.756-8.769 0-1.958 0.207-3.884 0.696-5.631 0.345-1.45 0.697-2.843 1.462-4.089 0.691-1.391 1.738-2.163 3.194-2.518 4.799-1.449 9.596-3.256 14.185-5.776 0.418-0.206 0.837-0.473 1.258-0.621 0.341-0.208 0.904-0.357 1.247-0.681 0.974-0.416 1.953-0.713 2.855-0.713 1.246 0 2.43 0.356 3.539 0.92 1.047 0.474 2.164 1.095 2.994 1.865 1.109 0.83 2.088 1.75 3.063 2.638 2.714 2.222 5.631 3.199 8.757 3.199 1.466 0 2.785-0.207 4.31-0.771 1.468-0.474 2.859-1.304 3.971-2.429l6.325-6.103c2.294-2.519 3.612-5.364 3.612-8.713 0-3.312-1.318-6.19-3.612-8.469-1.395-1.392-2.572-2.845-3.545-4.445-0.767-1.272-1.325-2.661-1.813-4.176-0.552-1.393-0.347-2.843 0.488-4.027h0.145c1.244-2.224 2.427-4.592 3.262-7.17 0.903-2.429 1.6-5.006 2.367-7.44l0.771-2.158v-0.212c0.414-1.446 1.243-2.428 2.503-3.253 1.109-0.568 2.427-1.186 3.612-1.541 1.318-0.492 2.503-0.63 3.613-0.717 1.25-0.114 1.952-0.198 2.296-0.198h0.207c3.483 0 6.259-1.048 8.621-3.411 2.243-2.232 3.369-5.066 3.369-8.324v-8.66c0-3.515-1.126-6.357-3.369-8.621zm-47.766 34.312c-2.648 6.736-6.539 12.506-11.687 17.601-5.077 5.008-10.918 8.827-17.593 11.522-3.337 1.185-6.744 2.31-10.08 3.081-3.34 0.828-6.957 1.187-10.436 1.187-5.493 0-10.772-0.861-15.922-2.373-5.144-1.598-9.806-3.82-14.184-6.811-4.242-3.082-8.067-6.605-11.337-10.781-3.545-4.12-6.255-8.771-8.271-13.781-2.783-6.75-4.174-13.623-4.104-20.912 0.065-7.189 1.528-13.942 4.104-20.342 2.71-6.306 6.464-12.092 11.401-17.367 4.939-5.089 10.919-9.091 17.798-11.897 6.68-2.617 13.495-4.003 20.242-4.003 5.63 0 11.127 0.798 16.198 2.324 5.149 1.621 9.947 3.899 14.258 6.888 4.382 2.945 8.205 6.479 11.612 10.658 3.407 4.117 6.255 8.871 8.276 14.019 2.78 6.549 4.314 13.36 4.314 20.382 2e-3 6.833-1.597 13.789-4.589 20.605z" display="inline" fill="#000000"></path>
	<g display="inline">
		<path d="m163.52 249.77c0 7.285-2.267 14.122-6.489 19.766 0.393 0.891 0.772 1.746 1.141 2.602l7e-3 0.02c7 0.973 13.328 4.064 18.522 9.032l0.34 0.337c6.027 6.041 9.307 13.841 9.568 22.605 10.018-82.456 37.833-159.18 90.704-230.52h-26.926c-38.467 44.856-70.463 96.456-92.413 157.83 3.612 5.3 5.546 11.598 5.546 18.327z" fill="#000000"></path>
		<path d="m184.36 326.08c-1.632 4.199-4.116 8.03-7.365 11.27-5.069 5.043-11.329 8.197-18.348 9.24-0.171 0.53-0.357 1.035-0.552 1.579-0.148 0.435-0.299 0.862-0.456 1.31 4.365 5.76 6.726 12.705 6.726 19.945 0 7.758-2.643 15.041-7.633 21.248h25.552c-0.343-21.899 0.324-43.447 2.076-64.592z" fill="#000000"></path>
	</g>
	<g display="inline">
		<path d="m322.17 101.12c5.55-9.329 11.688-18.499 18.353-27.503h-17.156c-6.752 9.105-12.972 18.266-18.684 27.503h17.487z" fill="#000000"></path>
			<path d="m282.77 218.97c2.492-28.007 9.649-55.607 21.159-82.289h-18.407c-12.445 26.846-20.571 54.263-24.379 82.289h21.627z" fill="#000000"></path>
			<path d="m284.92 281.47h-25.161c3.126 35.414 12.796 71.769 29.084 109.2h38.648c-22.753-35.702-36.729-72.49-42.571-109.2z" fill="#000000"></path>
	</g>
	<path d="m376.14 73.613c-66.334 95.717-33.52 209.46 84.699 317.06h83.695c-124.01-92.695-207.54-198.8-146.26-317.06h-22.134z" display="inline" fill="#000000"></path>
</g>
<g display="none">
	<g display="inline">
		<path d="m243.13 62.72c22.396 0.521 42.108 5.858 63.696 16.881 20.308 10.438 47.787 16.933 72.719 18.326v116.58c-20.076-0.399-37.799-4.29-52.411-11.191-25.643-12.229-56.986-23.946-83.542-24.529l-0.462-116.06m-4.162-20.474c-5.234 0-10.672 0.231-16.245 0.695v288.52h20.407v-130.52c23.677 0.468 51.983 10.34 75.401 21.337 19.276 9.286 41.774 12.78 65.431 12.78 5.096 0 10.432-0.238 16.007-0.478v-157.18c-3.466 0.289-7.087 0.349-10.669 0.349-23.216 0-51.734-5.278-73.079-16.301-25.285-12.993-49.656-19.199-77.253-19.199z" fill="#000000"></path>
			<polygon points="284.67 110.92 253.68 105.47 253.68 78.383 284.67 84.995" fill="#000000"></polygon>
			<polygon points="284.67 171.82 253.68 166.37 253.68 138.12 284.67 144.16" fill="#000000"></polygon>
			<polygon points="346.25 136.44 315.3 126.64 315.3 102.45 346.25 111.62" fill="#000000"></polygon>
			<polygon points="346.25 196.7 315.3 184.59 315.3 160.46 346.25 172.52" fill="#000000"></polygon>
			<polygon points="313.67 155.58 284.67 139.46 284.67 116.95 313.67 129.71" fill="#000000"></polygon>
			<polygon points="368.76 171.24 346.96 167.65 346.96 139.46 368.76 143.05" fill="#000000"></polygon>
		<path d="m253.22 301v21.745c24.369 7.084 40.14 19.15 40.14 30.861 0 17.522-33.527 36.994-81.771 36.994-48.26 0-82.012-19.472-82.012-36.994 0-17.525 33.752-36.996 82.012-36.996 0.222 0 0.46 0.038 0.799 0.038v-20.465c-0.22 0-0.577-0.046-0.799-0.046-57.419 0-103.59 25.213-103.59 57.469 0 32.252 46.173 57.422 103.59 57.422 57.405 0 102.88-25.17 102.88-57.422-2e-3 -23.777-25.171-43.727-61.25-52.606z" fill="#000000"></path>
		<path d="m154.39 342.57c-3.943 3.823-6.033 7.085-6.033 11.028 0 6.772 6.73 13.977 18.218 19.472l45.352-33.728-57.537 3.228z" fill="#000000"></path>
	</g>
</g>
<g display="none">
	<path d="m495.4 205.78c-11.53 0-22.492 2.556-32.643 7.09-3.062-96.228-72.312-173.15-157.63-173.15-66.716 0-123.61 47.096-146.76 113.58-16.555-22.387-41.284-36.607-68.994-36.607-49.854 0-90.193 45.979-90.193 102.6 0 14.335 2.564 27.975 7.183 40.332-5.224-1.484-10.681-2.574-16.323-2.574-37.41 0-67.716 34.476-67.716 77.018 0 40.454 27.608 73.305 62.534 76.411l-0.137 0.535h510.68c49.85 0 90.233-45.972 90.233-102.6 0-56.702-40.383-102.64-90.233-102.64z" display="inline" fill="#000000"></path>
</g>
<g display="none">
	<path d="m573.34 411.02h-638.68c-9.941 0-18-8.104-18-17.926v-209.36c0-9.912 8.059-17.945 18-17.945h638.68c9.919 0 17.971 8.033 17.971 17.945v209.36c0 9.823-8.052 17.926-17.971 17.926zm-592.63-182.02h-18.338v109.53h18.337v-109.53zm54.67 27.252h-18.353v64.166h18.353v-64.166zm54.631-27.252h-18.354v109.53h18.354v-109.53zm54.63 27.252h-18.34v64.166h18.34v-64.166zm73.084-45.348h-36.742v154.99h36.742v-154.99zm54.63 45.348h-18.355v64.166h18.355v-64.166zm54.63-27.252h-18.353v109.53h18.354v-109.53zm54.628 27.252h-18.353v64.166h18.353v-64.166zm54.63-27.252h-18.27v109.53h18.27v-109.53zm54.719 27.252h-18.333v64.166h18.333v-64.166zm54.636-27.252h-18.318v109.53h18.318v-109.53z" display="inline" fill="#000000"></path>
</g>
<g display="none">
	<path d="m154.96 295.08c-31.866 0-57.772-25.916-57.772-57.672v-49.545c0-31.85 25.906-57.757 57.772-57.757h212.36c31.824 0 43.438 31.464 43.438 63.231v38.399c0 31.871-11.613 63.345-43.438 63.345h-212.36zm66.053-148.54h-24.926v132.11h24.926v-132.11zm132.07 0h-24.907v132.11h24.907v-132.11z" display="inline" fill="#000000"></path>
	<polygon points="-1.931 235.62 -1.931 189.56 67.203 212.61" display="inline" fill="#000000"></polygon>
	<polygon points="509.9 235.62 509.9 189.56 440.74 212.61" display="inline" fill="#000000"></polygon>
	<polygon points="273.04 411.02 226.98 411.02 250.01 341.89" display="inline" fill="#000000"></polygon>
	<polygon points="273.04 14.173 226.98 14.173 250.01 83.321" display="inline" fill="#000000"></polygon>
</g>
<g display="none">
	<g display="inline">
		<path d="m131.58 83.302c-15.534 16.144-25.112 38.052-25.112 62.169h31.307c0-15.707 6.239-29.976 16.354-40.481l-22.549-21.688z" fill="#000000"></path>
		<path d="m196.21 55.727c-15.795 0-30.637 4.116-43.542 11.306l15.189 27.363c8.4-4.685 18.061-7.363 28.352-7.363 11.247 0 21.761 3.204 30.681 8.735l16.438-26.626c-13.696-8.497-29.843-13.415-47.118-13.415z" fill="#000000"></path>
		<path d="m409.01 83.302c15.531 16.144 25.109 38.052 25.109 62.169h-31.313c0-15.707-6.236-29.976-16.354-40.481l22.558-21.688z" fill="#000000"></path>
		<path d="m344.38 55.727c15.795 0 30.639 4.116 43.54 11.306l-15.2 27.363c-8.387-4.685-18.06-7.363-28.34-7.363-11.247 0-21.764 3.204-30.683 8.735l-16.449-26.626c13.712-8.497 29.843-13.415 47.132-13.415z" fill="#000000"></path>
		<path d="m276.43 86.961c-2.196 2.539-4.241 5.219-6.123 7.995-1.907-2.776-3.954-5.456-6.15-7.995l-23.695 20.407c8.823 10.242 14.189 23.555 14.189 38.103h31.285c0-14.547 5.365-27.86 14.202-38.103l-23.708-20.407z" fill="#000000"></path>
		<rect x="254.65" y="176.48" width="31.285" height="65.454" fill="#000000"></rect>
		<rect x="254.65" y="272.94" width="31.285" height="65.452" fill="#000000"></rect>
		<rect x="254.65" y="369.41" width="31.285" height="41.613" fill="#000000"></rect>
	</g>
	<g display="inline">
		<path d="m246.05 206.04c-12.192-4.352-26.307-9.626-42.688-16.056-13.233-5.194-44.736-13.503-60.807-13.503h-89.832v161.91h97.188c-0.423-2.783-0.642-5.62-0.642-8.524 0-31.023 25.135-56.156 56.157-56.156 15.976 0 30.391 6.682 40.624 17.391v-85.061z" fill="#000000"></path>
		<path d="m244.37 329.86c0 21.506-17.434 38.949-38.94 38.949-21.517 0-38.951-17.443-38.951-38.949 0-21.514 17.434-38.951 38.951-38.951 21.506 0 38.94 17.438 38.94 38.951z" fill="#000000"></path>
		<path d="m335.51 248.25c-0.535-16.048-14.881-20.932-26.659-23.317-2.83-0.567-6.143-1.318-10.059-2.299v115.76h7.132c29.148 0 37.897-17.717 37.896-36.72-1e-3 -28.455-6.863-9.182-8.31-53.422z" fill="#000000"></path>
	</g>
	<g display="inline">
		<path d="m435.21 300.42c0 38.059-15.173 72.62-39.785 97.991l15.764 12.5c27.293-28.843 44.054-67.731 44.054-110.49 0-3.572-0.125-7.133-0.357-10.661h-20.08c0.266 3.523 0.404 7.081 0.404 10.661z" fill="#000000"></path>
		<path d="m399.72 300.42c0 29.74-12.4 56.621-32.285 75.785l15.821 12.542c22.552-22.666 36.496-53.89 36.496-88.327 0-3.591-0.167-7.141-0.461-10.661h-20.113c0.356 3.513 0.542 7.061 0.542 10.661z" fill="#000000"></path>
		<path d="m366 300.42c0 21.845-9.839 41.415-25.315 54.567l15.931 12.633c18.078-16.758 29.407-40.663 29.407-67.2 0-3.607-0.224-7.153-0.629-10.661h-20.198c0.528 3.491 0.804 7.032 0.804 10.661z" fill="#000000"></path>
	</g>
</g>
<g display="none">
	<g display="inline" fill-rule="evenodd">
		<path d="m-219.51 410.48h-43.827l31.463-69.489h38.412l-26.048 69.489zm1.635-100.39 21.645-47.778h32.278l-17.912 47.778h-36.011zm36.279-80.069 17.333-38.275h26.785l-14.359 38.275h-29.759z" fill="#000000"></path>
		<path d="m199.61 410.48h43.825l-31.43-69.489h-38.444l26.049 69.489zm-1.637-100.39-21.618-47.778h-32.282l17.888 47.778h36.012zm-36.259-80.069-17.351-38.275h-26.781l14.377 38.275h29.755z" fill="#000000"></path>
	</g>
	<path d="m116.34 281.5v-8.977h-25.148l-14.08-51.882h-174.1l-14.087 51.882h-25.189v8.977h-24.778v16.349h24.778v113.17h36.784v-45.117h179.08v45.117h36.746v-113.17h24.808v-16.349h-24.808zm-199.62-44.564h146.66l9.647 35.587h-165.96l9.653-35.587zm182.02 112.61h-217.38v-28.195h49.131v-16.354h-49.131v-16.198h217.38v16.198h-49.114v16.354h49.113v28.195z" display="inline" fill-rule="evenodd" fill="#000000"></path>
	<g display="inline">
		<path d="m369.8 409.37c-13.247 0-24.98-1.659-35.212-4.873-10.232-3.212-18.907-8.622-25.925-16.185-7.099-7.643-12.433-17.729-16.101-30.218-3.719-12.488-5.585-28.154-5.585-46.852v-19.822c0-18.524 1.866-34.123 5.585-46.665 3.668-12.566 9.002-22.641 16.101-30.203 7.017-7.558 15.693-12.984 25.925-16.228 10.231-3.26 21.965-4.898 35.212-4.898s24.98 1.61 35.212 4.83c10.27 3.212 18.879 8.622 25.932 16.231 6.957 7.598 12.265 17.701 15.927 30.268 3.657 12.542 5.464 28.159 5.464 46.749v19.895c0 18.564-1.807 34.22-5.464 46.736-3.662 12.595-8.97 22.68-15.927 30.259-7.053 7.49-15.662 12.89-25.932 16.102-10.232 3.215-21.965 4.874-35.212 4.874zm0-190.28c-9.139 0-17.263 1.112-24.38 3.318-7.12 2.244-13.078 6.051-17.908 11.5-4.902 5.443-8.553 12.689-11.061 21.854-2.509 9.09-3.807 20.502-3.807 34.241v22.652c0 13.774 1.298 25.246 3.807 34.392 2.509 9.118 6.159 16.395 10.972 21.79 4.801 5.466 10.797 9.293 17.873 11.597 7.08 2.256 15.241 3.357 24.505 3.357 9.139 0 17.302-1.102 24.336-3.357 7.018-2.304 12.942-6.131 17.787-11.597 4.793-5.395 8.461-12.708 10.964-21.847 2.507-9.207 3.789-20.646 3.789-34.512v-22.383c0-13.656-1.282-25.066-3.789-34.243-2.503-9.08-6.171-16.386-10.964-21.804-4.845-5.425-10.77-9.291-17.787-11.553-7.036-2.275-15.199-3.405-24.337-3.405z" fill="#000000"></path>
		<path d="m494.12 405.91c-1.504 0-2.23-0.77-2.23-2.205v-204.62c0-1.499 0.727-2.255 2.23-2.255h122.1c1.484 0 2.241 0.756 2.241 2.255v20.421c0 1.512-0.757 2.275-2.241 2.275h-98.833v60.522h78.249c1.499 0 2.269 0.771 2.269 2.304v20.267c0 1.524-0.77 2.252-2.269 2.252h-78.249v96.578c0 1.435-0.769 2.205-2.284 2.205h-20.988z" fill="#000000"></path>
		<path d="m646.96 405.91c-1.48 0-2.236-0.77-2.236-2.205v-204.62c0-1.499 0.756-2.255 2.236-2.255h122.07c1.516 0 2.27 0.756 2.27 2.255v20.421c0 1.512-0.754 2.275-2.27 2.275h-98.828v60.522h78.281c1.494 0 2.24 0.771 2.24 2.304v20.267c0 1.524-0.746 2.252-2.24 2.252h-78.281v96.578c0 1.435-0.758 2.205-2.246 2.205h-20.998z" fill="#000000"></path>
	</g>
</g>
<g display="none">
	<path d="m59.868 364.48c-29.676-46.976-24.629-101.67 22.43-109.95 76.953-13.588 61.814-8.338 116.31-72.024 12.526-14.627 32.15-11.758 23.064 9.531-7.079 16.632-10.201 29.822-8.933 52.288l162.66-100.3 2.381-15.056 73.936-14.661c15.235-3.016 21.233 22.533 6.032 22.147l-18.135-0.452-31.931 26.241-19.037-0.682-171.33 119.82c4.716 23.757 13.086 34.618 37.56 33.723 23.232-0.844 4.833 21.085-9.876 22.222-78.974 5.924-51.364 23.872-88.638 60.365-27.909 27.288-68.576 10.984-96.484-33.203zm76.405-19.68-28.081-40.109-22.218 15.531 28.086 40.129 22.213-15.551zm45.269-33.81-22.925-32.724-12.405 8.672 22.932 32.734 12.398-8.682z" display="inline" fill-rule="evenodd" fill="#000000"></path>
</g>
<g display="none">
	<path d="m410.43 173.79h-258.69l249.99-84.744-6.589-18.104-301.74 103.54 0.023 0.046c-4.734 1.69-8.11 6.114-8.11 11.421v212.92c0 6.712 5.447 12.163 12.203 12.163h312.91c6.734 0 12.211-5.451 12.211-12.163v-212.92c-1e-3 -6.732-5.477-12.154-12.212-12.154zm-84.234 200.76c-33.325 0-60.283-26.979-60.283-60.231 0-33.289 26.958-60.288 60.283-60.288 33.238 0 60.212 26.999 60.212 60.288 0 33.252-26.974 60.231-60.212 60.231zm77.412-151.95h-299.26v-17.224h299.26v17.224z" display="inline" fill="#000000"></path>
</g>
</svg>