<?xml version='1.0' encoding='utf-8'?>
<!-- Generator: Adobe Illustrator 16.0.0, SVG Export Plug-In . SVG Version: 6.00 Build 0)  --><svg xmlns="http://www.w3.org/2000/svg" xmlns:cc="http://creativecommons.org/ns#" xmlns:dc="http://purl.org/dc/elements/1.1/" xmlns:ns="&amp;ns_sfw;" xmlns:rdf="http://www.w3.org/1999/02/22-rdf-syntax-ns#" width="325px" height="425.2px" enable-background="new 0 0 325 425.2" version="1.1" viewBox="0 0 325 425.2" xml:space="preserve">
<metadata>
	<ns:sfw>
		<ns:slices></ns:slices>
		<ns:sliceSourceBounds x="279.121" y="169.941" width="283.465" height="283.464" bottomLeftOrigin="true">
			</ns:sliceSourceBounds>
	</ns:sfw>
	<rdf:RDF>
		<cc:Work rdf:about="">
			<dc:format>image/svg+xml</dc:format>
			<dc:type rdf:resource="http://purl.org/dc/dcmitype/StillImage"></dc:type>
			<dc:title></dc:title>
		</cc:Work>
	</rdf:RDF>
	<ns:sfw>
		<ns:slices></ns:slices>
		<ns:sliceSourceBounds x="278.768" y="169.943" width="283.465" height="283.463" bottomLeftOrigin="true">
			</ns:sliceSourceBounds>
	</ns:sfw>
	<ns:sfw>
		<ns:slices></ns:slices>
		<ns:sliceSourceBounds x="279.827" y="169.943" width="283.464" height="283.464" bottomLeftOrigin="true"></ns:sliceSourceBounds>
	</ns:sfw>
</metadata>
<path d="m90.189 211.83-4.125 6.385v9.921h-12.674v-69.15h12.673v38.504l10.903-18.074h14.441l-13.041 19.94 14.515 28.78h-15.031l-7.661-16.306z" fill="#000000"></path>
<path d="m175.37 199.85v28.288h-12.673v-27.503c0-4.715-2.356-7.465-5.6-7.465-2.431 0-4.493 1.671-5.6 3.536v31.434h-12.672v-27.11c0-4.715-2.063-7.858-5.6-7.858-2.652 0-4.642 2.063-5.6 3.929v31.04h-12.672v-48.721h8.841l2.505 5.697c2.137-3.831 5.305-6.875 10.167-6.875 5.306 0 9.431 2.75 12.01 7.268 2.8-4.321 5.673-7.268 11.567-7.268 10.392-1e-3 15.327 9.428 15.327 21.608z" fill="#000000"></path>
<path d="m201.29 158.99h12.673l-26.228 79.365h-12.674l26.229-79.365z" fill="#000000"></path>
<path d="m251.97 198.27v29.861h-12.674v-27.111c0-4.716-2.062-7.858-5.598-7.858-2.653 0-4.644 2.063-5.602 3.929v31.039h-12.671v-69.15h12.671v24.065c2.063-2.751 4.864-4.813 8.843-4.813 9.359-1e-3 15.031 8.643 15.031 20.038z" fill="#000000"></path>
<path d="m163.56 340.16c-78.151 0-141.73-63.581-141.73-141.73s63.581-141.73 141.73-141.73 141.73 63.581 141.73 141.73-63.581 141.73-141.73 141.73zm0-253.64c-61.705 0-111.91 50.201-111.91 111.91s50.201 111.91 111.91 111.91 111.91-50.201 111.91-111.91-50.201-111.91-111.91-111.91z" fill="#000000"></path>
</svg>