<?xml version='1.0' encoding='utf-8'?>
<!-- Generator: Adobe Illustrator 16.0.0, SVG Export Plug-In . SVG Version: 6.00 Build 0)  --><svg xmlns="http://www.w3.org/2000/svg" xmlns:cc="http://creativecommons.org/ns#" xmlns:dc="http://purl.org/dc/elements/1.1/" xmlns:ns="&amp;ns_sfw;" xmlns:rdf="http://www.w3.org/1999/02/22-rdf-syntax-ns#" width="474px" height="455px" enable-background="new 0 0 474 455" version="1.1" viewBox="0 0 474 455" xml:space="preserve">
<metadata>
	<ns:sfw>
		<ns:slices></ns:slices>
		<ns:sliceSourceBounds x="218.65" y="127.775" width="403.698" height="357.244" bottomLeftOrigin="true"></ns:sliceSourceBounds>
	</ns:sfw>
<rdf:RDF><cc:Work rdf:about=""><dc:format>image/svg+xml</dc:format><dc:type rdf:resource="http://purl.org/dc/dcmitype/StillImage"></dc:type><dc:title></dc:title></cc:Work></rdf:RDF></metadata>
	<path d="m46.335 166.88 30.756-31.455-41.941-42.011 53.124-53.43 42.37 42.226 30.971-31.021v115.69h-115.28zm55.274-31.458-44.306-42.098 30.971-30.971 42.37 44.356 13.334-13.385v57.641l-55.705 0.215 13.336-15.758zm255.08 37.911-17.636 28.605-15.485-6.668 17.853-30.971c-15.774-8.889-32.766-13.335-50.973-13.335v29.036h-18.066v-29.036c-18.211 0-35.202 4.446-50.975 13.335l13.334 24.52c-2.148 1.148-4.338 2.617-6.56 4.408-2.225 1.795-4.483 3.264-6.775 4.409l-15.484-24.304c-7.889 4.445-14.984 9.859-21.292 16.238-6.313 6.382-11.758 13.516-16.348 21.399l24.306 13.334c-1.005 3.441-2.117 6.347-3.334 8.711-1.222 2.365-2.332 4.623-3.333 6.775l-26.455-15.486c-4.446 8.894-7.779 17.459-10.001 25.701-2.227 8.248-3.333 17.389-3.333 27.422h28.818v17.854h-28.818c0 18.211 4.44 35.201 13.334 50.973l26.455-15.486c1.001 2.152 2.149 4.699 3.439 7.638 1.291 2.938 3.082 5.559 5.377 7.852l-26.455 15.699c2.151 3.301 4.731 6.561 7.743 9.787 3.013 3.225 5.592 6.559 7.743 10l-15.485 15.483c-14.625-14.612-26.022-31.409-34.195-50.395-8.173-18.98-12.259-39.146-12.259-60.498 0-14.756 1.86-28.939 5.592-42.551 3.727-13.609 9.033-26.322 15.916-38.143 6.882-11.82 15.163-22.566 24.841-32.238s20.432-17.945 32.261-24.821c11.829-6.875 24.589-12.212 38.284-16.009 13.69-3.798 27.923-5.696 42.692-5.696 14.479 0 28.424 1.898 41.832 5.696 13.405 3.797 25.917 9.134 37.531 16.009 11.612 6.876 22.224 15.149 31.831 24.821 9.604 9.672 17.852 20.418 24.732 32.238 6.882 11.817 12.186 24.53 15.915 38.143 3.729 13.608 5.592 27.795 5.592 42.551 0 22.352-4.086 42.768-12.259 61.25-8.173 18.484-19.572 35.027-34.197 49.643l-15.7-15.483c3.44-3.441 6.416-6.775 8.927-10 2.508-3.229 5.482-6.486 8.926-9.787l-26.669-15.699c2.292-2.293 4.086-4.91 5.377-7.852 1.29-2.938 2.437-5.484 3.44-7.638l24.52 15.486c4.442-7.885 7.884-16.094 10.323-24.627 2.437-8.529 4.087-17.313 4.946-26.346h-30.758c1.002-2.15 1.613-3.871 1.829-5.162 0.215-1.291 0.322-2.582 0.322-3.871 0-1.002-0.107-2.438-0.322-4.303-0.216-1.861-0.827-3.367-1.829-4.519h30.758c0-4.873-0.359-9.57-1.075-14.086-0.721-4.518-1.688-8.926-2.903-13.229-1.22-4.304-2.618-8.566-4.193-12.798-1.58-4.229-3.227-8.565-4.945-13.014l-26.67 15.486c-1.006-2.15-2.15-4.408-3.44-6.775-1.291-2.365-3.085-5.27-5.377-8.711l26.669-13.334c-5.592-7.883-11.328-15.02-17.206-21.398-5.885-6.374-12.767-11.788-20.653-16.233zm-101.94 112.92v-11.186l-42.155-41.938v-20.002l17.852 4.518 41.94 41.939c1.29 0 2.581-0.355 3.871-1.076 1.291-0.715 3.011-1.074 5.162-1.074 4.013 0 7.635 0.789 10.859 2.365 3.228 1.58 6.022 3.693 8.39 6.346 2.364 2.654 4.192 5.699 5.482 9.142 1.291 3.44 1.938 7.098 1.938 10.969 0 3.44-0.646 6.742-1.938 9.895-1.29 3.154-3.118 5.988-5.482 8.494-2.365 2.513-5.162 4.484-8.39 5.916-3.227 1.437-6.849 2.15-10.859 2.15-3.871 0-7.457-0.717-10.754-2.15-3.302-1.432-6.132-3.403-8.495-5.916-2.366-2.506-4.194-5.34-5.485-8.494-1.292-3.156-1.936-6.456-1.936-9.898z" fill="#000000"></path>
</svg>