<?xml version='1.0' encoding='utf-8'?>
<!-- Generator: Adobe Illustrator 16.0.0, SVG Export Plug-In . SVG Version: 6.00 Build 0)  --><svg xmlns="http://www.w3.org/2000/svg" xmlns:cc="http://creativecommons.org/ns#" xmlns:dc="http://purl.org/dc/elements/1.1/" xmlns:ns="&amp;ns_sfw;" xmlns:rdf="http://www.w3.org/1999/02/22-rdf-syntax-ns#" width="507px" height="425.2px" enable-background="new 0 0 507 425.2" version="1.1" viewBox="0 0 507 425.2" xml:space="preserve">
<metadata>
	<ns:sfw>
		<ns:slices></ns:slices>
		<ns:sliceSourceBounds x="209.9" y="175.462" width="422.121" height="255.255" bottomLeftOrigin="true"></ns:sliceSourceBounds>
	</ns:sfw>
	<rdf:RDF>
		<cc:Work rdf:about="">
			<dc:format>image/svg+xml</dc:format>
			<dc:type rdf:resource="http://purl.org/dc/dcmitype/StillImage"></dc:type>
			<dc:title></dc:title>
		</cc:Work>
	</rdf:RDF>
	<ns:sfw>
		<ns:slices></ns:slices>
		<ns:sliceSourceBounds x="186.58" y="169.941" width="468.764" height="283.464" bottomLeftOrigin="true"></ns:sliceSourceBounds>
	</ns:sfw>
	<ns:sfw>
		<ns:slices></ns:slices>
		<ns:sliceSourceBounds x="186.578" y="169.945" width="468.766" height="283.459" bottomLeftOrigin="true"></ns:sliceSourceBounds>
	</ns:sfw>
</metadata>
<path d="m248.24 177.19v34.3h-103.78v-154.79h37.819v120.49h65.963v3e-3l-2e-3 -3e-3zm13.193-120.49h37.819v154.79h-37.819v-154.79zm226.91 154.79h-35.182v-72.778l-36.061 72.778h-24.626l-35.182-71.02v71.02h-35.183v-154.79h31.666l52.99 105.1 49.029-105.1h32.545l4e-3 154.79zm-417.24 34.139c0 14.229-11.535 25.764-25.76 25.764-14.229 0-25.765-11.534-25.765-25.764v-163.16c0-14.229 11.535-25.764 25.765-25.764 14.229 0 25.76 11.535 25.76 25.764v163.16zm-25.761 43.004c14.229 0 25.76 11.533 25.76 25.762 0 14.228-11.535 25.764-25.76 25.764-14.229 0-25.764-11.536-25.764-25.764-1e-3 -14.228 11.534-25.762 25.764-25.762z" fill="#000000"></path>
</svg>