<?xml version='1.0' encoding='utf-8'?>
<!-- Generator: Adobe Illustrator 16.0.0, SVG Export Plug-In . SVG Version: 6.00 Build 0)  --><svg xmlns="http://www.w3.org/2000/svg" xmlns:cc="http://creativecommons.org/ns#" xmlns:ns="&amp;ns_sfw;" xmlns:rdf="http://www.w3.org/1999/02/22-rdf-syntax-ns#" xmlns:dc="http://purl.org/dc/elements/1.1/" width="502px" height="426px" enable-background="new 0 0 502 426" version="1.1" viewBox="0 0 502 426" xml:space="preserve">
<metadata>
	<ns:sfw>
		<ns:slices></ns:slices>
		<ns:sliceSourceBounds x="216.618" y="127.771" width="407.764" height="355.458" bottomLeftOrigin="true"></ns:sliceSourceBounds>
	</ns:sfw>
<rdf:RDF><cc:Work rdf:about=""><dc:format>image/svg+xml</dc:format><dc:type rdf:resource="http://purl.org/dc/dcmitype/StillImage"></dc:type><dc:title></dc:title></cc:Work></rdf:RDF></metadata>
	<path d="m73.269 314.52h41.845l-26.15 21.355h-41.846v-235.59h57.536v-26.153h41.844v26.153h177.84l-26.153 26.371h-224.92v187.86zm350.45-287.24 15.688 15.474-339.98 339.98-10.461-15.477 334.76-339.98zm-329.74 146.24h62.982v15.908h-62.982v-15.908zm360.91-73.228v235.59h-287.46l25.935-21.355h235.59v-187.87h-52.521l26.15-26.371 52.307 1e-3zm-88.703 89.136h-21.14v-15.908h21.14v-25.936h20.922v25.936h25.938v15.908h-25.938v25.937h-20.922v-25.937z" fill="#F54C4C"></path>
</svg>