<?xml version='1.0' encoding='utf-8'?>
<!-- Generator: Adobe Illustrator 16.0.0, SVG Export Plug-In . SVG Version: 6.00 Build 0)  --><svg xmlns="http://www.w3.org/2000/svg" xmlns:cc="http://creativecommons.org/ns#" xmlns:ns="&amp;ns_sfw;" xmlns:rdf="http://www.w3.org/1999/02/22-rdf-syntax-ns#" xmlns:dc="http://purl.org/dc/elements/1.1/" width="488px" height="534px" enable-background="new 0 0 488 534" version="1.1" viewBox="0 0 488 534" xml:space="preserve">
<metadata>
	<ns:sfw>
		<ns:slices></ns:slices>
		<ns:sliceSourceBounds x="221.84" y="81.426" width="400.459" height="442.782" bottomLeftOrigin="true"></ns:sliceSourceBounds>
	</ns:sfw>
<rdf:RDF><cc:Work rdf:about=""><dc:format>image/svg+xml</dc:format><dc:type rdf:resource="http://purl.org/dc/dcmitype/StillImage"></dc:type><dc:title></dc:title></cc:Work></rdf:RDF></metadata>
	<path d="m428.97 384.32-70.786-39.355v45.047h-30.938v-45.047l-50.734 28.217 36.878 19.555-14.355 28.215-39.353-22.275v84.398h-31.188v-84.398l-39.354 22.275-14.108-28.215 39.601-19.555-50.736-28.217v42.076h-30.938v-42.076l-70.788 39.355-16.83-25.246 73.263-42.322-39.354-22.523 14.107-28.215 39.601 22.523v-56.184l-36.878 22.274-16.83-25.245 39.354-22.77-73.263-42.074 16.83-28.215 70.786 42.323v-45.046h30.938v45.045l50.736-28.215-36.877-19.8 14.354-28.215 36.384 19.8v-81.923h31.188v81.923l39.353-19.8 17.077 25.493-39.6 22.522 50.734 28.215v-42.323h30.938v42.323l70.786-42.323 16.83 28.215-73.264 42.075 39.354 22.77-16.83 25.245-36.878-22.275v56.184l36.878-19.801 13.86 25.49-36.386 22.523 73.264 42.322-16.826 25.25zm-183.4-30.94 81.675-45.045v-93.061l-81.675-47.768-81.676 47.768v93.061l81.676 45.045z" fill="#FFCE63"></path>
</svg>