<?xml version='1.0' encoding='utf-8'?>
<!-- Generator: Adobe Illustrator 16.0.3, SVG Export Plug-In . SVG Version: 6.00 Build 0)  --><svg xmlns="http://www.w3.org/2000/svg" xmlns:cc="http://creativecommons.org/ns#" xmlns:dc="http://purl.org/dc/elements/1.1/" xmlns:rdf="http://www.w3.org/1999/02/22-rdf-syntax-ns#" width="355.42px" height="425.2px" enable-background="new 0 0 355.425 425.197" version="1.1" viewBox="0 0 355.42 425.2" xml:space="preserve"><metadata><rdf:RDF><cc:Work rdf:about=""><dc:format>image/svg+xml</dc:format><dc:type rdf:resource="http://purl.org/dc/dcmitype/StillImage"></dc:type><dc:title></dc:title></cc:Work></rdf:RDF></metadata>

	<path d="m210.81 306.68c-59.694 18.249-123.11-15.469-141.36-75.161-8.35-27.314-5.929-56.632 6.181-81.993l35.074 16.384-17.735-82.01-78.8 36.915 35.627 16.643c-15.057 31.686-18.041 68.289-7.614 102.4 18.643 60.977 74.923 100.3 135.61 100.3 13.685 0 27.601-2.002 41.353-6.205 7.53-2.303 11.768-10.272 9.466-17.802-2.3-7.531-10.272-11.761-17.8-9.466z" fill="#000000"></path>
	<path d="m305.62 259.39c15.066-31.678 18.057-68.243 7.615-102.4-22.847-74.729-102.23-116.94-176.96-94.091-7.53 2.302-11.767 10.272-9.465 17.801s10.272 11.767 17.801 9.465c59.692-18.251 123.11 15.466 141.36 75.16 8.364 27.353 5.942 56.644-6.176 81.999l-35.077-16.386 17.74 82.011 78.795-36.918-35.628-16.643z" fill="#000000"></path>

</svg>