<?xml version='1.0' encoding='utf-8'?>
<!-- Generator: Adobe Illustrator 16.0.3, SVG Export Plug-In . SVG Version: 6.00 Build 0)  --><svg xmlns="http://www.w3.org/2000/svg" xmlns:cc="http://creativecommons.org/ns#" xmlns:dc="http://purl.org/dc/elements/1.1/" xmlns:rdf="http://www.w3.org/1999/02/22-rdf-syntax-ns#" width="425.2px" height="425.2px" version="1.2" viewBox="0 0 425.2 425.2" xml:space="preserve"><metadata><rdf:RDF><cc:Work rdf:about=""><dc:format>image/svg+xml</dc:format><dc:type rdf:resource="http://purl.org/dc/dcmitype/StillImage"></dc:type><dc:title></dc:title></cc:Work></rdf:RDF></metadata>
<path d="m320.78 95.286c-19.567 0-37.686 6.279-52.487 16.9-25.934-33.719-66.666-55.493-112.39-55.493-78.15 0-141.73 63.582-141.73 141.73 0 78.15 63.58 141.73 141.73 141.73 53.615 0 100.37-29.926 124.44-73.947 12.171 6.126 25.908 9.578 40.437 9.578 49.762 0 90.245-40.49 90.245-90.258-1e-3 -49.761-40.484-90.244-90.246-90.244zm-164.88 225.74c-67.6 0-122.6-54.996-122.6-122.6 0-67.602 54.997-122.6 122.6-122.6 67.602 0 122.6 54.999 122.6 122.6 0 67.6-54.998 122.6-122.6 122.6zm164.88-57.319c-12.617 0-24.536-3.02-35.097-8.352 7.677-17.433 11.949-36.688 11.949-56.925 0-28.098-8.22-54.313-22.379-76.366 12.831-9.23 28.548-14.69 45.526-14.69 43.098 0 78.16 35.062 78.16 78.159 1e-3 43.106-35.061 78.174-78.159 78.174z" fill="#000000"></path>
<path d="m153.48 181.7c-4.875-5.537-11.752-13.296-14.63-16.394-1.916-2.074-2.727-7.338-2.209-13.521 2.425-29.169-15.461-45.468-44.428-49.843-31.28 20.691-51.916 56.177-51.916 96.49 0 35.467 15.979 67.201 41.125 88.407 4.6-2.397 10.016-7.083 10.016-15.88 0-15.282 6.65-19.05 18.396-19.05 24.371 0 32.221-15.718 32.221-25.473 0-5.317-1.655-8.199-1.655-11.291 0-5.749 0.444-7.313 10.858-14.398 7.795-5.298 7.083-13.513 2.222-19.047z" fill="none" stroke="#000" stroke-linecap="round" stroke-linejoin="round" stroke-miterlimit="10" stroke-width="2"></path>
<g fill="none" stroke="#000" stroke-linecap="round" stroke-linejoin="round" stroke-miterlimit="10" stroke-width="2">
	<path d="m228.82 277.13c-1.398 0-2.798-0.526-3.876-1.582-2.185-2.141-2.222-5.647-0.08-7.832 11.819-12.067 18.329-27.327 18.329-42.97 0-15.759-6.609-31.111-18.609-43.228-2.152-2.173-2.136-5.68 0.038-7.833 2.173-2.152 5.679-2.136 7.833 0.038 14.067 14.205 21.815 32.325 21.815 51.023 0 18.557-7.633 36.57-21.494 50.721-1.085 1.107-2.519 1.663-3.956 1.663z" fill="#000000"></path>
	<path d="m203.43 262.12c-1.519 0-3.03-0.621-4.124-1.839-2.043-2.277-1.854-5.779 0.423-7.822 8.466-7.598 13.129-17.44 13.129-27.713 0-10.451-4.809-20.419-13.54-28.07-2.3-2.016-2.531-5.516-0.515-7.816 2.017-2.3 5.516-2.53 7.816-0.515 11.166 9.786 17.315 22.713 17.315 36.401 0 13.46-5.97 26.23-16.808 35.958-1.057 0.948-2.379 1.416-3.696 1.416z" fill="#000000"></path>
</g>
	<rect x="112.08" y="134.21" width="21.233" height="123.46" fill="#000000"></rect>
	<rect x="171.63" y="134.21" width="21.233" height="123.46" fill="#000000"></rect>
<g fill="none" fill-rule="evenodd" stroke="#000" stroke-linecap="round" stroke-linejoin="round" stroke-miterlimit="10" stroke-width="2">
		<path d="m355.75 171.16c0.344 0.073 0.744 0.116 1.213 0.116 2.534 0 4.599-1.19 4.599-2.65 0-1.468-2.064-2.655-4.599-2.655-2.544 0-3.083 1.188-3.083 2.655 0 0.156 3e-3 0.309 0.021 0.461l-0.078-0.082-11.051-15.847h-43.762l-11.058 15.847-0.065 0.074c0.011-0.146 0.018-0.302 0.018-0.453 0-1.468-0.538-2.655-3.082-2.655-0.263 0-0.517 0.021-0.768 0.044 0.437 1.734 0.84 3.48 1.208 5.24 0.277-0.018 0.537-0.047 0.761-0.094l-0.63 0.703c0.485 2.381 0.9 4.785 1.257 7.21l9.372 0.923 0.779 5.993-9.552-2.234c0.533 4.819 0.815 9.714 0.815 14.675 0 4.016-0.19 7.985-0.54 11.909h3.421v-7.86h59.883v7.86h12.307v-30.927l-7.386-8.253z" fill="#000000"></path>
		<polygon points="339.04 190.11 302.75 190.11 299.19 179.72 315.11 180.17 316.8 181.96 324.99 181.96 326.67 180.17 342.59 179.72" fill="#000000"></polygon>
		<polygon points="359.24 182.65 344.98 185.99 345.76 179.99 359.24 178.67" fill="#000000"></polygon>
</g>
<polyline points="290.87 169 299.78 155.42 342.01 155.42 350.92 169" fill="none" fill-rule="evenodd" stroke="#000" stroke-linecap="round" stroke-linejoin="round" stroke-miterlimit="10"></polyline>
<line x1="350.38" x2="291.4" y1="169" y2="169" fill="none" fill-rule="evenodd" stroke="#000" stroke-linecap="round" stroke-linejoin="round" stroke-miterlimit="10" stroke-width="2"></line>
</svg>