<?xml version='1.0' encoding='utf-8'?>
<!-- Generator: Adobe Illustrator 16.0.3, SVG Export Plug-In . SVG Version: 6.00 Build 0)  --><svg xmlns="http://www.w3.org/2000/svg" xmlns:cc="http://creativecommons.org/ns#" xmlns:rdf="http://www.w3.org/1999/02/22-rdf-syntax-ns#" xmlns:dc="http://purl.org/dc/elements/1.1/" width="311.81px" height="425.2px" enable-background="new 0 0 311.812 425.197" version="1.1" viewBox="0 0 311.81 425.2" xml:space="preserve"><metadata><rdf:RDF><cc:Work rdf:about=""><dc:format>image/svg+xml</dc:format><dc:type rdf:resource="http://purl.org/dc/dcmitype/StillImage"></dc:type><dc:title></dc:title></cc:Work></rdf:RDF></metadata>
<path d="m155.91 340.16c-78.151 0-141.73-63.581-141.73-141.73 0-78.151 63.582-141.73 141.73-141.73 78.152 0 141.73 63.58 141.73 141.73 0 78.152-63.58 141.73-141.73 141.73zm0-269.77c-70.602 0-128.04 57.438-128.04 128.04 0 70.601 57.438 128.04 128.04 128.04 70.6 0 128.04-57.438 128.04-128.04-1e-3 -70.6-57.439-128.04-128.04-128.04z" fill="#F54C4C"></path>
<path d="m53.014 168.54c5.625 0.122 13.918 2.761 18.075 2.639 2.569-0.076 8.243-2.271 12.889-0.437 4.646 1.833 4.367 5.929 7.304 8.802 3.668 3.586 8.677 9.407 17.566 10.474 12.226 1.467 17.933-33.907 68.792-33.907 43.689 0 59.664 32.767 63.902 45.318 4.062 12.03 9.047 10.856 9.047 10.856s-2.072 4.672-6.963 4.183c-4.963-0.497-5.996 8.803 0.115 9.912 10.761 1.951 10.54 6.039 3.626 11.083-14.181 10.352-26.641 6.404-24.409-0.821 3.424-11.085-0.44-10.107-0.44-10.107h-98.347s2.935 12.997-6.847 15.807-17.605-0.123-20.866-2.733c-3.261-2.607-6.521-13.251 1.956-12.273 8.478 0.979 10.204-0.473 9.878-5.036-0.326-4.566-4.212-7.079-14.768-10.598-28.366-9.455-47.602-26.245-48.253-32.114-0.652-5.872 2.119-11.17 7.743-11.048z" fill="#F54C4C"></path>
<path d="m60.525 181.09s-1.586 0.685-3.564 1.105v1.056c0 0.051-0.253-0.507-0.456-0.965-0.357 0.066-0.724 0.121-1.094 0.16l-0.337 1.402-0.324-1.348c-0.371 0.019-0.739 0.016-1.102-8e-3l-0.427 1.151-0.156-1.211c-2.966-0.412-5.276-2.34-5.276-2.34s2.261 2.262 5.087 2.802l0.219 1.421 0.583-1.316c0.318 0.021 0.641 0.015 0.966-7e-3l0.433 1.506 0.463-1.611c0.292-0.048 0.578-0.108 0.861-0.177 0.182 0.346 0.694 1.316 0.694 1.253 0-1.04-2e-3 -0.351-2e-3 -1.439 1.917-0.57 3.432-1.434 3.432-1.434z" fill="#F54C4C"></path>
</svg>