<?xml version='1.0' encoding='utf-8'?>
<!-- Generator: Adobe Illustrator 16.0.0, SVG Export Plug-In . SVG Version: 6.00 Build 0)  --><svg xmlns="http://www.w3.org/2000/svg" xmlns:cc="http://creativecommons.org/ns#" xmlns:dc="http://purl.org/dc/elements/1.1/" xmlns:rdf="http://www.w3.org/1999/02/22-rdf-syntax-ns#" width="629.78px" height="425.2px" enable-background="new 0 0 629.775 425.2" version="1.1" viewBox="0 0 629.78 425.2" xml:space="preserve"><metadata><rdf:RDF><cc:Work rdf:about=""><dc:format>image/svg+xml</dc:format><dc:type rdf:resource="http://purl.org/dc/dcmitype/StillImage"></dc:type><dc:title></dc:title></cc:Work></rdf:RDF></metadata>
<path d="m225.49 302.61c-37.385-1.436-67.363-32.277-67.363-70.005 0-38.64 31.437-70.076 70.079-70.076 30.78 0 56.969 19.955 66.362 47.6h32.419c-10.259-45.082-50.638-78.843-98.781-78.843-55.87 0-101.32 45.453-101.32 101.32 0 54.956 43.991 99.8 98.605 101.25l1e-3 -31.241z" fill="#000000"></path>
<rect transform="matrix(.7071 .7071 -.7071 .7071 179.16 -219.12)" x="338.46" y="70.734" width="31.241" height="71.957" fill="#000000"></rect>
<rect transform="matrix(.7071 .7071 -.7071 .7071 283.47 32.665)" x="86.683" y="322.53" width="31.243" height="71.963" fill="#000000"></rect>
<rect x="14.172" y="216.99" width="71.959" height="31.244" fill="#000000"></rect>
<rect transform="matrix(.7071 .7071 -.7071 .7071 105.42 -41.083)" x="66.322" y="91.088" width="71.957" height="31.242" fill="#000000"></rect>
<rect x="212.58" y="18.581" width="31.242" height="71.963" fill="#000000"></rect>
<rect x="254.12" y="374.58" width="333.26" height="21.687" fill="#000000"></rect>
<rect x="254.12" y="329.31" width="333.26" height="21.688" fill="#000000"></rect>
<polygon points="375.05 284.04 254.12 284.04 254.12 305.72 396.14 305.72" fill="#000000"></polygon>
<polygon points="472.31 284.04 451.24 305.72 587.38 305.72 587.38 284.04" fill="#000000"></polygon>
<polygon points="331.04 238.77 254.12 238.77 254.12 260.46 352.12 260.46" fill="#000000"></polygon>
<polygon points="516.32 238.77 495.24 260.46 587.38 260.46 587.38 238.77" fill="#000000"></polygon>
<polygon points="459.8 182.94 488.25 182.94 423.68 116.52 359.11 182.94 387.56 182.94 387.56 237.76 359.11 237.76 423.68 304.18 488.25 237.76 459.8 237.76" fill="#000000"></polygon>
</svg>