<?xml version='1.0' encoding='utf-8'?>
<!-- Generator: Adobe Illustrator 22.1.0, SVG Export Plug-In . SVG Version: 6.00 Build 0)  --><svg xmlns="http://www.w3.org/2000/svg" xmlns:cc="http://creativecommons.org/ns#" xmlns:dc="http://purl.org/dc/elements/1.1/" xmlns:rdf="http://www.w3.org/1999/02/22-rdf-syntax-ns#" version="1.2" viewBox="205.44 85.042 432 425.2" xml:space="preserve" width="406.39697" height="400.0"><metadata><rdf:RDF><cc:Work rdf:about=""><dc:format>image/svg+xml</dc:format><dc:type rdf:resource="http://purl.org/dc/dcmitype/StillImage"></dc:type><dc:title></dc:title></cc:Work></rdf:RDF></metadata>
	<path d="m302.95 247.03c-7.93 0-16.696-0.302-26.702-0.947-14.772-0.957-45.141-2.932-50.885-24.052-3.154-11.618 0.655-19.78 4.403-24.596 9.059-11.598 27.236-15.769 40.829-17.23-1.29-7.809 0.403-16.696 8.101-24.747 12.938-13.563 38.531-17.492 56.82-15.407 15.145 1.723 31.065 11.537 37.433 25.896 13.532-2.469 28.496 2.761 36.556 14.258 5.159 7.376 7.043 16.978 5.149 26.329-1.914 9.482-7.477 17.734-15.265 22.641-6.932 4.363-29.856 9.472-34.38 10.449-20.031 4.332-36.627 7.406-62.059 7.406zm-57.676-30.42c0.705 2.58 5.814 7.154 32.133 8.867 42.542 2.751 61.415-1.3 83.23-6.026 10.479-2.267 24.918-6.157 27.841-7.789 2.952-1.854 5.149-5.24 5.955-9.21 0.776-3.849 0.111-7.648-1.834-10.419-4.282-6.106-15.024-7.96-21.261-3.648-3.194 2.176-7.346 2.398-10.731 0.564-3.396-1.834-5.492-5.411-5.421-9.27 0.191-9.774-11.447-17.926-21.996-19.135-13.311-1.451-32.304 1.572-39.579 9.169-5.623 5.885-1.27 11.437 0.202 12.998 2.841 3.023 3.597 7.456 1.914 11.255-1.693 3.789-4.544 6.449-9.633 6.136-12.787-0.464-34.42 2.781-40.063 10.036-0.919 1.192-1.735 2.884-0.757 6.472z" fill="#000000"></path>
	<path d="m497.68 377.86c-0.272 0-0.524-0.01-0.766-0.01-5.915-0.121-15.658-3.587-20.193-8.373-6.167-6.529-22.037-37.645-24.727-76.025-2.459-34.854 6.408-65.979 11.85-72.881 4.907-6.247 15.931-9.683 20.213-10.288 8.807-1.26 75.864-2.408 111.9 28.889 14.429 12.535 21.745 28.385 21.745 47.106 0 20.173-7.728 37.987-22.984 52.961-30.37 29.794-80.832 38.611-97.034 38.621zm-2.57-147.53c-3.708 0-6.529 0.151-8.162 0.383h-0.01c-1.834 0.262-6.106 2.045-7.255 3.033-1.501 2.821-9.25 27.851-7.114 58.251 2.318 33.02 15.82 59.299 19.246 63.4 0.615 0.383 4.172 1.703 5.592 1.824 14.762 0.343 58.442-8.766 82.847-32.717 11.316-11.094 16.807-23.598 16.807-38.229 0-12.656-4.786-22.964-14.641-31.518-23.144-20.104-67.641-24.427-87.31-24.427z" fill="#000000"></path>
		<polygon points="427.03 292.72 293.86 422.7 294.14 422.99 323.1 422.99 433.74 315.01" fill="#000000"></polygon>
		<polygon points="439.79 335.14 349.77 422.99 379.32 422.99 446.5 357.42" fill="#000000"></polygon>
		<polygon points="458.21 396.35 451.51 374.06 401.37 422.99 430.92 422.99 458.21 396.35" fill="#000000"></polygon>
	<path d="m300.42 293.37c-3.013 0-6.005-1.31-8.041-3.839l-11.386-14.117c-3.577-4.434-2.882-10.933 1.552-14.51 4.434-3.597 10.953-2.872 14.51 1.552l11.386 14.117c3.577 4.434 2.882 10.933-1.552 14.51-1.905 1.542-4.202 2.287-6.469 2.287z" fill="#000000"></path>
	<path d="m341.7 286.31c-3.013 0-6.005-1.31-8.041-3.839l-11.386-14.117c-3.577-4.434-2.882-10.933 1.552-14.51 4.434-3.597 10.933-2.872 14.51 1.552l11.386 14.117c3.577 4.434 2.882 10.933-1.552 14.51-1.905 1.541-4.202 2.287-6.469 2.287z" fill="#000000"></path>
	<path d="m386.34 286.31c-3.013 0-6.005-1.31-8.041-3.839l-11.386-14.117c-3.577-4.434-2.882-10.933 1.552-14.51 4.434-3.597 10.933-2.872 14.51 1.552l11.386 14.117c3.577 4.434 2.882 10.933-1.552 14.51-1.905 1.541-4.202 2.287-6.469 2.287z" fill="#000000"></path>
	<path d="m336 331.05c-3.013 0-6.005-1.31-8.041-3.839l-11.386-14.117c-3.577-4.434-2.882-10.933 1.552-14.51 4.423-3.577 10.943-2.882 14.51 1.552l11.386 14.117c3.577 4.434 2.882 10.933-1.552 14.51-1.905 1.541-4.202 2.287-6.469 2.287z" fill="#000000"></path>
	<path d="m377.96 328.08c-3.013 0-6.005-1.31-8.041-3.839l-11.386-14.117c-3.577-4.434-2.882-10.933 1.552-14.51 4.423-3.587 10.943-2.882 14.51 1.552l11.386 14.117c3.577 4.434 2.882 10.933-1.552 14.51-1.904 1.541-4.202 2.287-6.469 2.287z" fill="#000000"></path>
</svg>