<?xml version='1.0' encoding='utf-8'?>
<!-- Generator: Adobe Illustrator 16.0.3, SVG Export Plug-In . SVG Version: 6.00 Build 0)  --><svg xmlns="http://www.w3.org/2000/svg" xmlns:cc="http://creativecommons.org/ns#" xmlns:dc="http://purl.org/dc/elements/1.1/" xmlns:rdf="http://www.w3.org/1999/02/22-rdf-syntax-ns#" width="307.51px" height="425.2px" enable-background="new 0 0 307.513 425.197" version="1.1" viewBox="0 0 307.51 425.2" xml:space="preserve"><metadata><rdf:RDF><cc:Work rdf:about=""><dc:format>image/svg+xml</dc:format><dc:type rdf:resource="http://purl.org/dc/dcmitype/StillImage"></dc:type><dc:title></dc:title></cc:Work></rdf:RDF></metadata>

	<polygon points="229.45 143.54 293.34 81.282 279.84 67.446 249.62 96.889" fill="#000000"></polygon>
	<polygon points="55.539 294.27 47.085 294.27 14.173 326.29 27.677 340.17 66.447 302.39" fill="#000000"></polygon>
	<path d="m152.25 285.44-32.063-97.816-97.889-32.11 228.93-98.832-98.974 228.76zm75.363-205.08-92.41 92.269 22.619 68.989 69.791-161.26z" fill="#000000"></path>
	<path d="m94.732 203.28-34.377 25.617h-20.211c-4.91 0-8.877 3.967-8.877 8.83v33.22c0 4.863 3.967 8.83 8.877 8.83h20.211l34.377 25.617h9.727v-102.11h-9.727z" clip-rule="evenodd" fill-rule="evenodd" fill="#000000"></path>

</svg>