<?xml version='1.0' encoding='utf-8'?>
<!-- Generator: Adobe Illustrator 16.0.0, SVG Export Plug-In . SVG Version: 6.00 Build 0)  --><svg xmlns="http://www.w3.org/2000/svg" xmlns:cc="http://creativecommons.org/ns#" xmlns:rdf="http://www.w3.org/1999/02/22-rdf-syntax-ns#" xmlns:dc="http://purl.org/dc/elements/1.1/" width="682.9px" height="425.2px" version="1.2" viewBox="0 0 682.9 425.2" xml:space="preserve"><metadata><rdf:RDF><cc:Work rdf:about=""><dc:format>image/svg+xml</dc:format><dc:type rdf:resource="http://purl.org/dc/dcmitype/StillImage"></dc:type><dc:title></dc:title></cc:Work></rdf:RDF></metadata>

	<path d="m70.832 339.4h-56.658l40.662-89.743h49.661l-33.665 89.743zm2.106-129.71 27.979-61.76h41.728l-23.158 61.76h-46.549zm46.901-103.54 22.41-49.462h34.614l-18.554 49.462h-38.47z" fill="#FFCE63"></path>
	<path d="m612.62 339.4h56.659l-40.662-89.743h-49.661l33.664 89.743zm-2.105-129.71-27.979-61.76h-41.725l23.154 61.76h46.55zm-46.901-103.54-22.411-49.462h-34.611l18.556 49.462h38.466z" fill="#FFCE63"></path>

<path d="m504.99 172.77v-11.676h-32.527l-18.203-67.022h-225.07l-18.21 67.021h-32.55v11.676h-32.03v21.068h32.03v146.32h47.54v-58.365h231.49v58.365h47.525v-146.32h32.06v-21.068h-32.06 5e-3zm-258.07-57.631h189.6l12.488 45.955h-214.56l12.472-45.955zm235.3 145.6h-281.01v-36.537h63.518v-21.056h-63.518v-20.993h281.01v20.993h-63.503v21.056h63.503v36.537z" fill="#FFCE63"></path>
</svg>