<?xml version='1.0' encoding='utf-8'?>
<!-- Generator: Adobe Illustrator 16.0.0, SVG Export Plug-In . SVG Version: 6.00 Build 0)  --><svg xmlns="http://www.w3.org/2000/svg" xmlns:cc="http://creativecommons.org/ns#" xmlns:dc="http://purl.org/dc/elements/1.1/" xmlns:ns="&amp;ns_sfw;" xmlns:rdf="http://www.w3.org/1999/02/22-rdf-syntax-ns#" width="841.89px" height="440px" version="1.2" viewBox="0 0 841.89 440" xml:space="preserve">
<metadata>
	<ns:sfw>
		<ns:slices></ns:slices>
		<ns:sliceSourceBounds x="14.6" y="160.559" width="813.3" height="291.197" bottomLeftOrigin="true"></ns:sliceSourceBounds>
	</ns:sfw>
<rdf:RDF><cc:Work rdf:about=""><dc:format>image/svg+xml</dc:format><dc:type rdf:resource="http://purl.org/dc/dcmitype/StillImage"></dc:type><dc:title></dc:title></cc:Work></rdf:RDF></metadata>
	<path d="m15.045 260.94h53.701c0 25.6 10.8 33.6 35.698 33.6 27.9 0 36-7.6 36-23.999 0-14.399-11.1-20.8-32.398-25.6l-20.399-4.802c-42.001-10-70.801-32.398-70.801-86.397 0-52.799 26.701-87.999 87.601-87.999 67.501 0 86.103 42.799 86.103 94.398h-52.2c0-21.201-9.3-32-32.7-32-27.601 0-33.601 6-33.601 22.4 0 13.601 8.1 20.399 36 27.199l19.2 4.8c39.601 10 69.602 28.8 69.602 84.799 0 56.399-27.601 89.601-92.4 89.601-67.806-1e-3 -89.106-39.6-89.406-96z" fill="#000000"></path>
	<path d="m403.25 70.544-80.401 176v105.6h-51.601v-105.6l-80.4-176h58.801l48.603 105.2 46.2-105.2 58.798-1e-3z" fill="#000000"></path>
	<path d="m596.45 70.544v281.6h-31.2l-100.8-150.4v150.4h-51.6v-281.6h30l102 152v-152h51.6z" fill="#000000"></path>
	<path d="m616.84 211.34c0-82.399 43.2-145.6 105.6-145.6 62.4 0 98.103 53.199 105.3 113.6h-54.001c-6.3-25.6-23.1-49.599-50.1-49.599-34.801 0-52.801 36.399-52.801 81.599s17.7 81.601 52.801 81.601c29.399 0 44.1-20.399 51.3-51.199h53.4c-6.3 59.199-41.7 115.2-107.1 115.2-62.398-2e-3 -104.4-63.2-104.4-145.6z" fill="#000000"></path>
</svg>