<?xml version='1.0' encoding='utf-8'?>
<!-- Generator: Adobe Illustrator 27.2.0, SVG Export Plug-In . SVG Version: 6.00 Build 0)  --><svg xmlns:cc="http://creativecommons.org/ns#" xmlns="http://www.w3.org/2000/svg" xmlns:rdf="http://www.w3.org/1999/02/22-rdf-syntax-ns#" xmlns:ns="http://ns.adobe.com/SaveForWeb/1.0/" xmlns:dc="http://purl.org/dc/elements/1.1/" xmlns:xlink="http://www.w3.org/1999/xlink" version="1.2" baseProfile="tiny" id="Layer_1" x="0px" y="0px" viewBox="0 0 467.7 425.2" overflow="visible" xml:space="preserve" width="439.98117" height="400.0">
<g>
	<g>
		<g>
			<path d="M169.4,303.5v-12.8c8.5,0,16.6-1.4,24.4-4.3c7.7-2.9,14.6-6.8,20.9-11.9s11.6-11,15.9-18c4.3-7,7.4-14.5,9.1-22.7     l12.4,2.5c-2,9.6-5.4,18.5-10.6,26.9c-5.2,8.2-11.3,15.3-18.7,21.3c-7.4,6-15.6,10.6-24.7,13.9     C189,301.8,179.5,303.5,169.4,303.5z" fill="#FFCE63"></path>
			<path d="M170.3,279.8V267c5.4,0,10.7-1,15.9-2.8c5.2-2,9.8-4.5,13.8-7.8c4-3.3,7.5-7.3,10.5-11.9s4.9-9.6,6-15.1l12.4,2.5     c-1.4,7-3.9,13.4-7.5,19.2c-3.6,5.9-8.1,10.9-13.2,15.1c-5.2,4.3-11,7.5-17.4,10C184.1,278.7,177.2,279.8,170.3,279.8z" fill="#FFCE63"></path>
			<path d="M170.3,256.9v-12.8c5.7,0,10.9-1.8,15.2-5.4c4.5-3.6,7.1-8.2,8.2-13.8l12.4,2.5c-0.8,4.3-2.4,8.4-4.6,12     c-2.2,3.6-4.9,6.7-8.1,9.3c-3.2,2.6-6.7,4.6-10.7,6.1C178.8,256.2,174.6,256.9,170.3,256.9z" fill="#FFCE63"></path>
		</g>
		<g>
			<path d="M92.6,303.5c-9.9,0-19.4-1.7-28.4-5c-9.1-3.3-17.1-7.9-24.5-13.9c-7.4-6-13.5-13.1-18.7-21.3     c-5.2-8.2-8.6-17.1-10.9-26.9l12.5-2.5c1.7,8.2,4.7,15.9,9.1,22.7c4.3,7,9.6,13,15.8,18c6.1,5,13.1,8.9,20.9,11.9     c7.8,2.9,15.9,4.3,24.3,4.3V303.5z" fill="#FFCE63"></path>
			<path d="M92.1,279.8c-7.1,0-13.9-1.3-20.4-3.6c-6.4-2.4-12.3-5.7-17.4-10s-9.6-9.3-13.1-15.1c-3.6-5.9-6-12.3-7.4-19.2l12.4-2.5     c1.1,5.4,3.1,10.5,5.9,15.1s6.3,8.5,10.5,11.9c4.2,3.3,8.6,5.9,13.8,7.8c5,2,10.3,2.8,15.9,2.8v13H92.1z" fill="#FFCE63"></path>
			<path d="M92.1,256.9c-4.3,0-8.5-0.7-12.5-2.2s-7.5-3.5-10.9-6.1c-3.2-2.6-6-5.7-8.2-9.3c-2.2-3.6-3.8-7.7-4.6-12l12.5-2.5     c1.1,5.6,3.9,10.2,8.2,13.8c4.5,3.6,9.5,5.4,15.2,5.4v13H92.1z" fill="#FFCE63"></path>
		</g>
	</g>
	<g>
		<path d="M304,381.4c-8.6-0.1-16.3-0.4-22.9-0.7s-11-0.6-13.4-0.8c-2.6-0.4-5.2-1.1-7.7-2.1c-2.5-1-4.7-2.4-6.8-4.2    c-2-1.3-3.6-3.2-5-6c-1.4-2.8-2.6-5.7-3.6-9.1c-1.1-3.8-2-7.7-2.5-11.7c-0.6-4-0.8-8.1-0.8-12.3c0-4,0.3-8.1,0.8-12.1    c0.6-4,1.4-7.8,2.5-11.7c1-3.3,2.2-6.4,3.6-9.1c1.4-2.8,3.1-4.7,5-6c2.1-1.5,4.3-2.9,6.8-4c2.5-1.3,5-2.1,7.7-2.6    c1.3-0.1,3.1-0.3,5.6-0.3c2.5-0.1,5.4-0.1,8.9-0.3c3.5-0.1,7.3-0.3,11.4-0.3c4.2-0.1,8.5-0.1,13.1-0.1h4.2l65.1-0.7    c2.5,0,6,0,10.5-0.1c4.5-0.1,8.8-0.1,13.2-0.3c4.5-0.1,8.4-0.3,11.7-0.3c3.5-0.1,5.4-0.1,6.1-0.1c4.5,0,8.9,0.6,13.2,1.5    c4.3,1,8.5,2.4,12.5,4c2,0.8,3.8,2.1,5.6,3.6c1.8,1.7,3.2,3.8,4.3,6.4c1.1,3.5,2,7.1,2.6,10.9c0.7,3.8,1.1,7.3,1.4,10.5    c0.3,3.8,0.4,7.5,0.3,11.2c0.1,3.8,0.1,7.5-0.3,11.3c-0.3,3.2-0.7,6.7-1.4,10.6c-0.7,3.9-1.5,7.4-2.6,10.9    c-1.1,2.6-2.5,4.7-4.3,6.4c-1.8,1.7-3.6,2.8-5.6,3.6c-8.5,3.5-17.1,5.3-25.8,5.3h-8.4l-7.4-0.1l-7.9-0.3c-3.5-0.1-6.8-0.3-10-0.3    h-7.8l-65.1-0.7h-7V381.4z M393.9,371.4c5.4,0.1,10.6,0.3,15.2,0.4c4.7,0.1,7.5,0.3,8.5,0.3c3.8,0,7.4-0.4,11-1.3    c3.6-0.8,7-2,10.2-3.3c1.1-0.6,2-1.1,2.6-1.7c0.7-0.6,1.1-1.3,1.5-2.1c1-2.8,1.8-5.9,2.4-9.2c0.6-3.3,1-6.4,1.1-9.3    c0.1-2.9,0.3-5.3,0.3-7.3v-6.1l-0.3-7.3l-1.1-9.3L443,306c-0.4-0.8-1-1.5-1.5-2.2c-0.6-0.7-1.4-1.1-2.5-1.5    c-3.2-1.5-6.7-2.6-10.3-3.5c-3.6-0.8-7.4-1.1-11.2-1.1c-0.7,0-2.8,0-6.1,0.1c-3.5,0.1-7.4,0.1-11.7,0.3c-4.5,0.1-8.8,0.3-13.2,0.3    c-4.5,0-7.8,0.1-10.5,0.1l-64.7,0.4l-4,0.3c-8.9,0-16.9,0.1-23.8,0.4s-11.6,0.7-13.8,1.1c-3.8,0.7-7,2.1-9.6,4    c-0.7,0.3-1.5,1.3-2.4,2.8c-0.8,1.5-1.8,3.8-2.8,6.7c-1.8,6.3-2.8,13.2-2.8,20.8c0,7.5,1,14.6,2.8,21.5c1,2.8,2,4.9,2.8,6.3    c0.8,1.4,1.7,2.2,2.4,2.5c1.3,1.1,2.8,2.1,4.5,2.8c1.7,0.7,3.3,1.3,5,1.5c2.2,0.4,6.6,0.7,13,0.8c6.4,0.1,13.8,0.4,22.2,0.7h2.8    l4,0.3l64.7,0.4c2.1,0,4.7,0,7.8,0.1C387.1,371.2,390.4,371.4,393.9,371.4z" fill="#FFCE63"></path>
		<path d="M410.1,334.6c0,4.2-0.1,8.1-0.3,11.9c-0.3,3.8-0.4,7-0.7,9.8l19.5,4.5c1.1-3.2,2.1-7,2.8-11.4c0.7-4.5,1.1-9.2,1.1-14.6    c0-5.3-0.4-10.2-1.1-14.6c-0.7-4.5-1.7-8.1-2.8-11.3l-19.5,4c0.3,3.1,0.6,6.4,0.7,10.2C409.9,326.6,410.1,330.5,410.1,334.6z" fill="#FFCE63"></path>
		<path d="M288.6,334.6c0,6.3,0.6,12.1,1.5,17.3c1,5.3,2.4,9.3,4,12.3l31.2-5.9c-1-3.1-1.8-6.7-2.4-10.7c-0.6-4-0.8-8.4-0.8-13    c0-4.5,0.3-8.8,0.8-12.8c0.6-4,1.4-7.7,2.4-10.7l-31.2-6.1c-1.7,3.2-3.1,7.4-4,12.5C289.2,322.6,288.6,328.3,288.6,334.6z" fill="#FFCE63"></path>
	</g>
	<g>
		<polygon points="116.2,240.3 116.2,264.4 103.2,264.4 131.1,313.5 159.1,264.4 146.2,264.4 146.2,240.3   " fill="#FFCE63"></polygon>
		<polygon points="227.4,319.7 203.5,319.7 203.5,306.7 154.4,334.9 203.5,362.7 203.5,349.6 227.4,349.6   " fill="#FFCE63"></polygon>
	</g>
	<g>
		<path d="M84.2,76.8c0.1-8.5,0.4-16.2,0.7-22.7c0.3-6.7,0.7-11.2,1.1-13.4c0.3-2.6,1-5.2,2-7.7c1-2.5,2.5-4.7,4.5-6.8    c1.1-2.1,3.1-3.8,5.9-5.2s5.9-2.5,9.1-3.5c3.8-1.1,7.7-2,11.7-2.5c4-0.6,8.2-0.8,12.4-0.8c4,0,8.1,0.3,12,0.8    c3.9,0.6,7.8,1.4,11.6,2.5c3.3,1,6.4,2.1,9.1,3.5c2.8,1.4,4.7,3.1,6,5.2c1.5,2.1,2.9,4.3,4,6.8c1.3,2.5,2.1,5,2.6,7.7    c0.3,2.4,0.6,7.1,0.7,14.4c0.1,7.3,0.3,15.5,0.4,24.7v4.2l0.7,64.8c0,2.6,0.1,6.1,0.3,10.6c0.1,4.5,0.3,8.8,0.3,13.2    c0.1,4.5,0.1,8.4,0.3,11.7c0.1,3.5,0.3,5.4,0.3,6.1c0,4.5-0.6,8.8-1.5,13.1c-1,4.3-2.4,8.4-4.2,12.5c-0.8,2-2.1,3.9-3.6,5.7    c-1.7,1.8-3.8,3.3-6.4,4.5c-3.3,1.1-7,2-10.7,2.5c-3.8,0.6-7.3,1-10.5,1.3c-3.8,0.3-7.5,0.4-11.2,0.4c-3.8,0-7.5-0.1-11.3-0.4    c-3.2-0.3-6.7-0.7-10.6-1.3c-3.9-0.6-7.4-1.4-10.9-2.5c-2.6-1.1-4.7-2.6-6.4-4.5c-1.7-1.8-2.9-3.8-3.9-5.7    c-1.5-4-2.8-8.2-3.8-12.5c-1-4.3-1.5-8.6-1.5-13.1v-8.5l0.4-15.5c0.1-3.3,0.3-6.7,0.3-9.9v-7.9l0.7-64.8v-7H84.2z M94.6,166.7    c-0.1,5.6-0.3,10.7-0.4,15.5c-0.1,4.7-0.3,7.5-0.3,8.5c0,3.8,0.4,7.4,1.3,11c0.8,3.6,2,7,3.3,10.2c0.8,1.8,2.1,3.2,3.8,4.2    c2.8,1.1,5.9,2,9.2,2.4c3.3,0.4,6.4,0.7,9.3,1c2.9,0.3,5.3,0.3,7.3,0.3c2-0.1,3.1-0.1,3.2-0.1l2.9,0.1l7.3-0.3l9.3-1l9.2-2.4    c0.8-0.6,1.5-1.1,2.2-1.7c0.7-0.6,1.1-1.4,1.5-2.5c1.5-3.2,2.6-6.6,3.5-10.2c0.8-3.6,1.1-7.3,1.1-11c0-0.7,0-2.8-0.1-6.1    c-0.1-3.5-0.1-7.4-0.3-11.7c-0.1-4.5-0.3-8.8-0.3-13.2c-0.1-4.5-0.1-7.9-0.1-10.6l-0.4-64.7l-0.1-3.9c0-8.9-0.1-16.9-0.4-23.8    c-0.3-7-0.7-11.6-1.1-13.8c-0.6-3.8-2-7-4-9.6c-0.7-1.5-3.9-3.2-9.5-5c-6.7-2-13.7-2.9-20.8-2.9c-3.8,0-7.4,0.3-10.9,0.7    c-3.5,0.6-7,1.3-10.5,2.2c-5.2,1.8-8.1,3.5-8.8,5c-2.1,2.5-3.5,5.7-4.2,9.5c-0.4,2.2-0.7,6.6-0.8,12.8s-0.4,13.7-0.7,22v2.9    L95,84.2l-0.4,64.7c0,2.1,0,4.7-0.1,7.9C94.6,160,94.6,163.2,94.6,166.7z" fill="#FFCE63"></path>
		<path d="M131.2,183c-4.2,0-8.1-0.1-11.9-0.3c-3.8-0.3-7-0.4-9.8-0.7l-4.5,19.4c3.2,1.1,7,2.1,11.4,2.8c4.5,0.8,9.2,1.1,14.6,1.1    s10.2-0.4,14.6-1.1s8.1-1.7,11.3-2.8l-4-19.4c-3.1,0.3-6.4,0.6-10.2,0.7C139.2,182.9,135.3,183,131.2,183z" fill="#FFCE63"></path>
		<path d="M131.2,61.7c-6.3,0-12.1,0.6-17.4,1.5c-5.3,1-9.3,2.2-12.1,3.8l5.7,31.5c3.1-1,6.7-1.8,10.7-2.4c4-0.6,8.5-0.8,13.2-0.8    c4.5,0,8.6,0.3,12.7,0.8s7.5,1.4,10.6,2.4l6.1-31.5c-3.2-1.5-7.4-2.8-12.4-3.8C143.2,62.1,137.5,61.7,131.2,61.7z" fill="#FFCE63"></path>
	</g>
</g>
</svg>