<?xml version='1.0' encoding='utf-8'?>
<!-- Generator: Adobe Illustrator 16.0.0, SVG Export Plug-In . SVG Version: 6.00 Build 0)  --><svg xmlns="http://www.w3.org/2000/svg" xmlns:cc="http://creativecommons.org/ns#" xmlns:dc="http://purl.org/dc/elements/1.1/" xmlns:rdf="http://www.w3.org/1999/02/22-rdf-syntax-ns#" width="588px" height="553.14px" enable-background="new 0 0 588 553.14" version="1.1" viewBox="0 0 588 553.14" xml:space="preserve"><metadata><rdf:RDF><cc:Work rdf:about=""><dc:format>image/svg+xml</dc:format><dc:type rdf:resource="http://purl.org/dc/dcmitype/StillImage"></dc:type><dc:title></dc:title></cc:Work></rdf:RDF></metadata>
<path d="m73.162 53.889h439.37c7.17 0 13.916 1.23 20.243 3.681 6.322 2.456 11.89 5.9 16.705 10.333 4.813 4.437 8.68 9.625 11.603 15.571 2.929 5.945 4.389 12.506 4.389 19.675v221.1c0 6.988-1.464 13.498-4.389 19.535-2.926 6.041-6.788 11.324-11.603 15.854-4.815 4.531-10.383 8.025-16.705 10.476-6.327 2.457-13.072 3.681-20.243 3.681h-238.94l24.347 59.447c7.172 1.703 13.113 5.055 17.837 10.049 4.718 5 7.075 11.184 7.075 18.545 0 4.156-0.805 8.166-2.405 12.035-1.605 3.865-3.728 7.266-6.37 10.189-2.646 2.926-5.617 5.189-8.915 6.793-3.31 1.596-6.842 2.408-10.617 2.408-4.156 0-8.167-0.813-12.034-2.408-3.873-1.604-7.219-3.873-10.05-6.793-2.831-2.928-5.055-6.326-6.652-10.189-1.605-3.873-2.405-7.881-2.405-12.035 0-1.885 0.705-4.291 2.124-7.223 1.415-2.924 2.875-5.334 4.385-7.221l-31.425-73.604h-165.33c-6.984 0-13.448-1.226-19.393-3.682-5.948-2.448-11.186-5.945-15.715-10.471-4.529-4.532-8.024-9.813-10.472-15.854-2.455-6.036-3.68-12.544-3.68-19.532v-221.1c0-7.171 1.225-13.731 3.68-19.677 2.449-5.946 5.946-11.134 10.472-15.571 4.53-4.432 9.768-7.878 15.715-10.334 5.945-2.45 12.408-3.679 19.393-3.679l5e-3 3e-3 -5e-3 -1e-3zm439.37 35.106h-439.37c-3.587 0-6.842 1.415-9.768 4.246-2.931 2.83-4.388 6.136-4.388 9.908v221.1c0 5.478 1.459 9.817 4.388 13.024 2.925 3.211 6.18 4.813 9.768 4.813h147.5l-87.48-214.59 31.423-10.474 94.842 225.06h253.09c5.662 0 10-1.6 13.021-4.813 3.019-3.211 4.531-7.547 4.531-13.025v-221.1c0-3.772-1.514-7.078-4.531-9.908-3.019-2.83-7.359-4.248-13.019-4.248l-3e-3 -5e-3 -3e-3 7e-3z" fill="#000000"></path>
</svg>