<?xml version='1.0' encoding='utf-8'?>
<!-- Generator: Adobe Illustrator 16.0.3, SVG Export Plug-In . SVG Version: 6.00 Build 0)  --><svg xmlns="http://www.w3.org/2000/svg" xmlns:cc="http://creativecommons.org/ns#" xmlns:dc="http://purl.org/dc/elements/1.1/" xmlns:rdf="http://www.w3.org/1999/02/22-rdf-syntax-ns#" width="265.18px" height="425.2px" version="1.2" viewBox="0 0 265.18 425.2" xml:space="preserve"><metadata><rdf:RDF><cc:Work rdf:about=""><dc:format>image/svg+xml</dc:format><dc:type rdf:resource="http://purl.org/dc/dcmitype/StillImage"></dc:type><dc:title></dc:title></cc:Work></rdf:RDF></metadata>
<path d="m220.5 269.5c7.628 0 13.834-6.197 13.834-13.816v-168.47c0-7.626-6.206-13.832-13.834-13.832h-75.809c-7.627 0-13.833 6.205-13.833 13.832v107.02h-16.681v-107.02c0-16.825 13.688-30.512 30.513-30.512h75.809c16.826 0 30.515 13.687 30.515 30.512v168.47c0 16.814-13.688 30.496-30.515 30.496" fill="#000000"></path>
<path d="m140.1 194.22v-105.4c0-3.522 2.856-6.378 6.378-6.378h72.665c3.522 0 6.378 2.856 6.378 6.378v145.82c0 3.522-2.855 6.379-6.378 6.379h-6.378v-145.82h-59.909v99.021h-12.756z" fill="#000000"></path>
<path d="m101.57 207.93-54.217 33.206h-33.182v65.818h33.181l54.217 33.206h11.517v-132.23h-11.516zm-74.643 45.961h20.383v40.308h-20.383v-40.308zm73.404 70.551-40.265-24.66v-51.476l40.265-24.659v100.8z" fill="#000000"></path>
<path d="m167.29 337.5c-1.754 0-3.501-0.72-4.762-2.131-2.346-2.629-2.115-6.66 0.512-9.006 14.906-13.301 23.454-32.373 23.454-52.323 0-19.951-8.548-39.022-23.454-52.323-2.627-2.346-2.857-6.377-0.512-9.005 2.348-2.628 6.378-2.856 9.006-0.511 17.614 15.717 27.715 38.257 27.715 61.839s-10.101 46.121-27.715 61.84c-1.216 1.086-2.734 1.62-4.244 1.62z" fill="#000000"></path>
<path d="m140.26 312.8c-1.566 0-3.137-0.573-4.368-1.731-2.566-2.414-2.689-6.449-0.276-9.016 7.165-7.617 11.111-17.564 11.111-28.009 0-10.443-3.946-20.392-11.111-28.009-2.413-2.565-2.29-6.603 0.276-9.015 2.565-2.413 6.602-2.29 9.016 0.276 9.398 9.993 14.575 23.042 14.575 36.747 0 13.703-5.177 26.755-14.575 36.747-1.256 1.337-2.951 2.01-4.648 2.01z" fill="#000000"></path>
</svg>