<?xml version='1.0' encoding='utf-8'?>
<!-- Generator: Adobe Illustrator 16.0.0, SVG Export Plug-In . SVG Version: 6.00 Build 0)  --><svg xmlns="http://www.w3.org/2000/svg" xmlns:cc="http://creativecommons.org/ns#" xmlns:dc="http://purl.org/dc/elements/1.1/" xmlns:ns="&amp;ns_sfw;" xmlns:rdf="http://www.w3.org/1999/02/22-rdf-syntax-ns#" width="459px" height="592px" enable-background="new 0 0 459 592" version="1.1" viewBox="0 0 459 592" xml:space="preserve">
<metadata>
	<ns:sfw>
		<ns:slices></ns:slices>
		<ns:sliceSourceBounds x="217.569" y="53.753" width="402.683" height="503.987" bottomLeftOrigin="true"></ns:sliceSourceBounds>
	</ns:sfw>
<rdf:RDF><cc:Work rdf:about=""><dc:format>image/svg+xml</dc:format><dc:type rdf:resource="http://purl.org/dc/dcmitype/StillImage"></dc:type><dc:title></dc:title></cc:Work></rdf:RDF></metadata>
	<path d="m221.58 194.47c-1.688 0-3.333-0.044-4.924-0.141-1.596-0.092-3.144-0.141-4.643-0.141-16.139 0-31.614 2.348-46.434 7.035-14.822 4.691-28.518 11.164-41.084 19.417-12.571 8.257-23.778 18.15-33.627 29.688s-17.966 24.25-24.341 38.13c-1.503 2.813-1.363 5.395 0.422 7.738 1.781 2.348 5.017 3.518 9.708 3.518h312.64c2.625 8.631 4.595 17.494 5.907 26.592 1.313 9.104 1.972 18.435 1.972 28 0 17.072-2.207 33.486-6.612 49.244-4.41 15.76-10.649 30.488-18.714 44.183-8.068 13.694-17.729 26.219-28.984 37.565-11.256 11.349-23.776 21.058-37.564 29.125-13.789 8.064-28.563 14.303-44.321 18.713-15.758 4.406-32.177 6.613-49.245 6.613-25.704 0-49.765-4.881-72.18-14.633-22.421-9.758-42.025-23.031-58.813-39.818-16.792-16.787-30.018-36.44-39.678-58.953-9.664-22.514-14.492-46.522-14.492-72.039 0-17.067 2.203-33.528 6.613-49.387 4.404-15.85 10.596-30.623 18.57-44.32 7.974-13.692 17.633-26.214 28.984-37.567 11.349-11.349 23.871-21.057 37.567-29.125 13.69-8.064 28.422-14.352 44.18-18.854s32.172-6.753 49.245-6.753h4.925c1.591 0 3.236 0.097 4.924 0.281l2e-3 25.889zm-113.4 150.83-41.084 0.281c-1.688 0-3.283 0.049-4.782 0.141-1.504 0.101-2.862 0.521-4.081 1.269-1.224 0.752-2.159 1.971-2.814 3.658-0.66 1.688-0.983 4.034-0.983 7.034 0.373 12.382 1.97 24.248 4.782 35.599 2.814 11.354 6.848 22.188 12.103 32.502l0.563 1.406c1.873 4.317 4.223 7.225 7.035 8.725 2.814 1.504 5.813 1.223 9.005-0.844l33.201-29.269c-4.128-7.502-7.314-15.52-9.565-24.061-2.251-8.533-3.379-17.308-3.379-26.312l-1e-3 -10.129zm105.24 168c17.26 0 33.674-2.533 49.245-7.598 15.569-5.066 29.829-12.197 42.773-21.39 0.563-0.563 1.028-0.936 1.406-1.125 2.063-2.063 2.999-4.596 2.813-7.598-0.188-3-3.003-7.316-8.44-12.945l-25.326-22.512c-9.005 6.568-18.713 11.586-29.125 15.055-10.411 3.476-21.527 5.207-33.348 5.207-11.634 0-22.75-1.731-33.346-5.207-10.601-3.469-20.217-8.483-28.843-15.055l-25.608 22.512c-2.813 2.814-4.924 5.257-6.332 7.316-1.407 2.066-2.251 3.896-2.532 5.488-0.28 1.596-0.097 3.002 0.563 4.221 0.655 1.223 1.548 2.393 2.673 3.518 0.374 0.189 0.563 0.33 0.563 0.423 0 0.098 0.279 0.329 0.844 0.702 12.943 9.189 27.199 16.322 42.771 21.39 15.573 5.065 31.987 7.598 49.249 7.598zm0-71.757c8.627 0 16.743-1.689 24.343-5.066 7.599-3.375 14.211-7.971 19.839-13.787 5.628-5.813 10.082-12.661 13.367-20.543 3.278-7.879 4.924-16.225 4.924-25.045 0-8.627-1.646-16.836-4.924-24.623-3.285-7.78-7.739-14.534-13.367-20.26-5.628-5.721-12.24-10.313-19.839-13.789-7.6-3.469-15.716-5.205-24.343-5.205-8.631 0-16.697 1.736-24.199 5.205-7.507 3.476-14.07 8.068-19.698 13.789-5.628 5.726-10.086 12.479-13.367 20.26-3.285 7.787-4.924 15.996-4.924 24.623 0 8.82 1.591 17.166 4.784 25.045 3.188 7.882 7.598 14.73 13.226 20.543 5.628 5.816 12.241 10.412 19.839 13.787 7.596 3.376 15.708 5.066 24.339 5.066zm48.966-274.65c-5.817 7.505-8.82 14.492-9.005 20.964-0.189 6.472 2.436 12.993 7.879 19.558 9.005 10.508 12.663 23.171 10.975 37.989-0.751 6.191-2.488 12.338-5.205 18.432-2.722 6.098-6.239 11.677-10.553 16.744l-5.628 6.754-13.229-11.256 5.349-6.473c2.813-3.563 5.25-7.549 7.314-11.959 2.063-4.406 3.377-8.864 3.939-13.367 0.563-4.502 0.374-8.957-0.563-13.366-0.938-4.406-2.91-8.486-5.907-12.241-8.068-9.568-12.059-19.742-11.962-30.532 0.095-10.785 4.362-21.43 12.806-31.939 4.125-5.065 5.954-9.941 5.485-14.633-0.47-4.687-2.018-10.504-4.643-17.447-1.504-3.75-2.862-7.923-4.08-12.522-1.223-4.595-1.645-9.33-1.267-14.21h-18.854l29.268-61.627 29.266 61.627h-22.23c-0.379 3.003-0.142 6.146 0.703 9.427 0.846 3.284 2.016 7.083 3.52 11.396 1.311 3.377 2.625 6.991 3.938 10.834 1.313 3.848 2.016 7.835 2.11 11.96 0.093 4.128-0.521 8.35-1.829 12.663-1.316 4.315-3.847 8.721-7.597 13.224zm72.599 0c-5.628 7.505-8.583 14.492-8.864 20.964-0.279 6.472 2.295 12.993 7.738 19.558 8.816 10.508 12.382 23.171 10.693 37.989-0.752 6.191-2.44 12.338-5.065 18.432-2.629 6.098-6.098 11.677-10.411 16.744l-5.347 6.754-13.789-11.256 5.628-6.473c2.999-3.563 5.487-7.549 7.457-11.959 1.97-4.406 3.28-8.864 3.94-13.367 0.652-4.502 0.514-8.957-0.425-13.366-0.938-4.406-2.908-8.486-5.907-12.241-8.26-9.568-12.289-19.742-12.103-30.532 0.187-10.785 4.503-21.43 12.944-31.939 3.938-5.065 5.673-9.941 5.206-14.633-0.47-4.687-1.926-10.504-4.361-17.447-1.504-3.75-2.911-7.923-4.221-12.522-1.315-4.595-1.785-9.33-1.407-14.21h-18.85l29.266-61.627 29.266 61.627h-22.23c-0.378 3.003-0.097 6.146 0.845 9.427 0.938 3.284 2.251 7.083 3.939 11.396 1.126 3.377 2.251 6.991 3.377 10.834 1.126 3.848 1.78 7.835 1.97 11.96 0.185 4.128-0.422 8.35-1.829 12.663-1.41 4.315-3.896 8.721-7.46 13.224zm-16.6 178.41 0.279 10.131c0 9.006-1.174 17.777-3.518 26.313-2.348 8.539-5.487 16.559-9.427 24.061l33.484 29.267c2.814 2.065 5.628 2.348 8.442 0.844 2.813-1.498 5.25-4.404 7.316-8.723l0.563-1.406c5.25-10.316 9.33-21.15 12.241-32.502 2.906-11.351 4.547-23.217 4.925-35.601 0-2.998-0.378-5.346-1.126-7.032-0.752-1.689-1.736-2.906-2.955-3.658-1.222-0.748-2.629-1.17-4.221-1.269-1.598-0.092-3.236-0.141-4.925-0.141l-41.078-0.284zm89.764-178.41c-6.006 7.505-9.102 14.492-9.286 20.964-0.188 6.472 2.532 12.993 8.161 19.558 8.626 10.693 12.1 23.356 10.411 37.989-0.752 6.191-2.44 12.338-5.064 18.432-2.63 6.098-6.099 11.677-10.411 16.744l-5.629 6.754-13.508-11.256 5.628-6.473c2.814-3.563 5.25-7.549 7.316-11.959 2.063-4.406 3.377-8.864 3.938-13.367 0.563-4.502 0.373-8.957-0.563-13.366-0.94-4.406-2.91-8.486-5.909-12.241-8.068-9.568-12.057-19.742-11.96-30.532 0.093-10.785 4.362-21.43 12.804-31.939 3.94-5.065 5.675-9.941 5.206-14.633-0.47-4.687-1.926-10.504-4.359-17.447-1.504-3.75-2.862-7.923-4.08-12.522-1.225-4.595-1.646-9.33-1.269-14.21h-18.854l28.982-61.627 29.548 61.627h-21.948c-0.378 3.003-0.099 6.146 0.844 9.427 0.938 3.284 2.154 7.083 3.658 11.396 1.126 3.377 2.295 6.991 3.518 10.834 1.219 3.848 1.873 7.835 1.972 11.96 0.093 4.128-0.521 8.35-1.829 12.663-1.315 4.315-3.753 8.721-7.317 13.224z" fill="#000000"></path>
</svg>