<?xml version='1.0' encoding='utf-8'?>
<!-- Generator: Adobe Illustrator 16.0.3, SVG Export Plug-In . SVG Version: 6.00 Build 0)  --><svg xmlns="http://www.w3.org/2000/svg" xmlns:cc="http://creativecommons.org/ns#" xmlns:dc="http://purl.org/dc/elements/1.1/" xmlns:rdf="http://www.w3.org/1999/02/22-rdf-syntax-ns#" width="303.55px" height="425.2px" version="1.2" viewBox="0 0 303.55 425.2" xml:space="preserve"><metadata><rdf:RDF><cc:Work rdf:about=""><dc:format>image/svg+xml</dc:format><dc:type rdf:resource="http://purl.org/dc/dcmitype/StillImage"></dc:type><dc:title></dc:title></cc:Work></rdf:RDF></metadata>
<path d="m21.434 258.12c-10.148 17.215-9.82 25.811 2.015 38.076l25.042 25.943 51.686-64.18-12.116-20.092c-3.266-5.41-2.262-12.266 2.255-17.217 27.965-30.581 57.233-59.849 87.839-87.815 4.939-4.516 11.801-5.519 17.207-2.254l20.092 12.117 64.182-51.688-25.946-25.041c-12.266-11.835-20.861-12.163-38.077-2.015-68.79 40.534-153.65 125.4-194.18 194.17z" fill-rule="evenodd" fill="#000000"></path>
<path d="m256.53 261.36c14.083-11.535 28.868-25.59 28.868-43.545v-22.509h-77.182v22.509c0 17.955 14.784 32.01 28.863 43.545-16.706 13.406-32.839 27.502-32.839 46.006v32.793h85.133v-32.793c1e-3 -18.504-16.133-32.599-32.843-46.006zm-36.14-43.544v-10.338h52.832v10.338c0 12.496-11.637 23.713-26.414 35.748-14.781-12.036-26.418-23.252-26.418-35.748zm-3.978 90.755v-1.205c0-13.549 14.569-25.563 30.392-38.191l4e-3 2e-3 4e-3 -2e-3c15.822 12.629 30.39 24.643 30.39 38.191v1.205h-60.79z" fill="#000000"></path>
</svg>