<?xml version='1.0' encoding='utf-8'?>
<!-- Generator: Adobe Illustrator 16.0.0, SVG Export Plug-In . SVG Version: 6.00 Build 0)  --><svg xmlns="http://www.w3.org/2000/svg" xmlns:cc="http://creativecommons.org/ns#" xmlns:dc="http://purl.org/dc/elements/1.1/" xmlns:ns0="&amp;ns_sfw;" xmlns:rdf="http://www.w3.org/1999/02/22-rdf-syntax-ns#" width="435px" height="348px" enable-background="new 0 0 435 348" version="1.1" viewBox="0 0 435 348" xml:space="preserve">
<metadata>
	<rdf:RDF>
		<cc:Work rdf:about="">
			<dc:format>image/svg+xml</dc:format>
			<dc:type rdf:resource="http://purl.org/dc/dcmitype/StillImage"></dc:type>
			<dc:title></dc:title>
		</cc:Work>
	</rdf:RDF>
	<ns0:sfw>
		<ns0:slices></ns0:slices>
		<ns0:sliceSourceBounds x="235.19" y="160.927" width="365.512" height="291.883" bottomLeftOrigin="true"></ns0:sliceSourceBounds>
	</ns0:sfw>
</metadata>
<path d="m293.42 107.45c-9.278-6.858-19.396-12.336-30.354-16.439-10.964-4.101-22.562-6.556-34.796-7.362v20.978h-17.35v-20.979c-13.852 1.078-26.824 4.136-38.929 9.178-12.103 5.043-22.994 11.8-32.677 20.271l14.927 15.125-12.305 12.307-14.926-15.127c-8.475 10.084-15.267 21.109-20.373 33.08-5.111 11.969-8.067 24.879-8.875 38.727h20.773v17.146h-20.773c0.808 13.852 3.764 26.823 8.875 38.93 5.106 12.102 11.898 23.061 20.373 32.877l15.328-15.33 12.306 12.104-27.633 27.638c-7.265-6.455-13.786-13.584-19.564-21.381-5.784-7.806-10.761-16.142-14.927-25.017-4.17-8.875-7.361-18.219-9.581-28.037-2.219-9.813-3.327-19.969-3.327-30.457 0-12.905 1.68-25.313 5.042-37.215 3.359-11.9 8.067-23.025 14.119-33.383 6.052-10.352 13.345-19.797 21.886-28.338 8.538-8.538 18.021-15.834 28.439-21.885s21.611-10.723 33.584-14.02c11.968-3.293 24.404-4.941 37.314-4.941 15.599 0 30.488 2.421 44.679 7.262 14.188 4.841 27.193 11.699 39.028 20.574l-10.283 13.714zm-86.935 111.54c-1.887-1.883-3.264-3.965-4.137-6.254-0.876-2.285-1.313-4.644-1.313-7.063 0-1.881 0.271-3.561 0.81-5.043l-42.156-42.153-6.051-18.56 18.557 6.252 41.753 42.159c0.672-0.271 1.579-0.471 2.726-0.604 1.143-0.135 2.25-0.2 3.328-0.2 2.42 0 4.703 0.504 6.855 1.512 2.147 1.01 4.064 2.354 5.749 4.035 1.68 1.684 2.989 3.631 3.934 5.85 0.938 2.221 1.411 4.607 1.411 7.16 0 5.111-1.781 9.414-5.345 12.91-3.563 3.498-7.901 5.244-13.012 5.244-4.976-1e-3 -9.348-1.747-13.109-5.245zm136.55 52.24c0-3.767 0.706-7.293 2.118-10.591 1.412-3.293 3.396-6.186 5.95-8.676 2.553-2.481 5.479-4.438 8.771-5.85 3.294-1.412 6.893-2.117 10.791-2.117 3.632 0 7.063 0.705 10.286 2.117 3.229 1.412 6.083 3.362 8.572 5.85 2.486 2.49 4.438 5.383 5.851 8.676 1.411 3.298 2.117 6.824 2.117 10.591 0 3.764-0.706 7.293-2.117 10.59-1.411 3.293-3.36 6.184-5.851 8.674-2.489 2.486-5.345 4.438-8.572 5.85s-6.654 2.117-10.286 2.117c-3.898 0-7.497-0.705-10.791-2.117-3.298-1.41-6.223-3.358-8.771-5.85-2.558-2.49-4.538-5.381-5.95-8.674-1.412-3.297-2.118-6.826-2.118-10.59zm27.635-252.54c3.631 0 7.092 0.807 10.388 2.42 3.296 1.614 6.186 3.833 8.676 6.656 2.484 2.824 4.438 6.121 5.851 9.883 1.411 3.767 2.116 7.8 2.116 12.103v131.11c0 4.307-0.705 8.34-2.116 12.104-1.411 3.771-3.362 7.027-5.851 9.783-2.49 2.756-5.38 4.941-8.676 6.555s-6.757 2.422-10.388 2.422c-3.768 0-7.331-0.809-10.688-2.422-3.362-1.61-6.287-3.799-8.772-6.555-2.489-2.756-4.438-6.018-5.851-9.783-1.412-3.764-2.118-7.797-2.118-12.104v-131.11c0-4.302 0.706-8.336 2.118-12.103 1.411-3.763 3.357-7.06 5.851-9.883 2.485-2.824 5.41-5.042 8.772-6.656 3.357-1.615 6.922-2.421 10.688-2.42z" fill="#000000"></path>
<polygon points="38.76 96.08 56.83 77.609 32.19 52.93 63.4 21.54 88.28 46.35 106.48 28.12 106.48 96.08" fill="#000000"></polygon>
<polygon points="71.23 77.6 45.2 52.88 63.4 34.68 88.28 60.74 96.12 52.88 96.12 86.74 63.4 86.859" fill="#000000"></polygon>
</svg>