<?xml version='1.0' encoding='utf-8'?>
<!-- Generator: Adobe Illustrator 16.0.0, SVG Export Plug-In . SVG Version: 6.00 Build 0)  --><svg xmlns="http://www.w3.org/2000/svg" xmlns:cc="http://creativecommons.org/ns#" xmlns:dc="http://purl.org/dc/elements/1.1/" xmlns:rdf="http://www.w3.org/1999/02/22-rdf-syntax-ns#" width="440px" height="425.2px" enable-background="new 0 0 440 425.2" version="1.1" viewBox="0 0 440 425.2" xml:space="preserve"><metadata><rdf:RDF><cc:Work rdf:about=""><dc:format>image/svg+xml</dc:format><dc:type rdf:resource="http://purl.org/dc/dcmitype/StillImage"></dc:type><dc:title></dc:title></cc:Work></rdf:RDF></metadata>
<path d="m84.752 288.04c-3.67 0-7.338 1.465-10.121 4.401l-14.817 15.279c-3.084 3.233-4.627 7.7-4.15 12.286 0.592 4.531 2.961 8.566 6.757 10.908l31.651 20.453-70.862 26.245c-9.158 3.42-14.553 13.094-12.921 23.041 1.627 9.793 9.927 17.496 19.53 17.496h164.07c7.587 0 14.224-5.236 16.298-12.846 2.017-7.547-1.005-15.616-7.466-19.744l-109.84-70.018 1.955-2.063c5.574-5.76 5.635-15.249 0.058-21.04-2.787-2.928-6.469-4.397-10.147-4.397h4e-3v-1e-3z" fill="#000000"></path>
<path d="m356.53 288.04c-3.656 0-7.308 1.474-10.068 4.401-5.57 5.792-5.57 15.279 0 21.038l1.957 2.064-109.84 70.017c-6.456 4.128-9.423 12.198-7.464 19.746 2.074 7.608 8.65 12.845 16.241 12.845h164.07c9.721 0 18.021-7.701 19.8-17.497 1.776-9.948-3.973-19.618-13.159-23.038l-70.889-26.246 31.767-20.455c3.676-2.338 6.165-6.375 6.641-10.904 0.532-4.588-1.012-9.055-4.032-12.289l-14.937-15.279c-2.785-2.939-6.436-4.403-10.087-4.403z" fill="#000000"></path>
<path d="m292.4 186.82c-21.419 0-39.521 12.589-48.599 30.471-8.362-6.014-15.709-8.431-23.057-8.431-7.345 0-14.69 2.417-23.052 8.431-9.082-17.882-27.117-30.471-48.54-30.471-30.44 0-55.117 24.708-55.117 55.115 0 30.287 24.677 55.021 55.117 55.021 30.375 0 55.117-24.733 55.117-55.021 0-1.657 1-4.757 1.752-5.446 5.324-5.322 10.021-7.396 14.729-7.396s9.42 2.073 14.777 7.396c0.69 0.689 1.754 3.789 1.754 5.446 0 30.287 24.68 55.021 55.114 55.021 30.379 0 55.119-24.733 55.119-55.021 5e-3 -30.406-24.736-55.115-55.114-55.115z" fill="#000000"></path>
<path d="m220.77 172.94c-60.698 0-136.12-4.242-150.74-24.454-2.673-3.698-3.331-7.936-1.903-12.254 6.544-19.05 48.973-23.157 60.553-23.927 1.42-11.375 7.829-59.596 17.021-82.214 7.592-18.618 20.468-21.397 27.466-21.397 6.585 0 12.218 2.348 15.293 4.544 1.229 0.858 2.45 1.798 3.743 2.795 6.432 4.957 13.723 10.573 28.555 10.573 14.991 0 22.288-5.648 28.725-10.631 1.259-0.972 2.445-1.892 3.662-2.747 4.042-2.84 9.779-4.532 15.348-4.532 6.994 0 19.865 2.779 27.453 21.395 9.193 22.62 15.604 70.842 17.024 82.217 11.581 0.77 53.986 4.876 60.412 23.91 1.454 4.329 0.813 8.573-1.852 12.277-14.532 20.204-90.014 24.445-150.78 24.445h0.013zm46.496-137.17c-0.381 0.268-0.77 0.547-1.168 0.833-8.264 5.924-20.754 16.947-45.472 16.947-24.5 0-36.971-10.955-45.231-16.841-0.467-0.333-0.925-0.659-1.364-0.969-0.283-0.094-0.78-0.215-1.294-0.215-1.395 0-2.773 2.669-3.688 4.909-6.506 16.012-12.963 56.132-15.5 77.652l-2.425 20.559-22.431 0.979c-0.03 1e-3 -2.574 0.139-6.471 0.569 2.348 0.36 4.852 0.714 7.521 1.059 23.769 3.07 54.347 4.625 90.887 4.625 36.569 0 67.161-1.553 90.928-4.617 2.771-0.356 5.366-0.724 7.786-1.097-2.26-0.246-4.495-0.431-6.658-0.539l-22.424-0.975-2.416-20.567c-2.538-21.516-8.991-61.634-15.513-77.673-0.899-2.213-2.279-4.881-3.665-4.881-0.561-2e-3 -1.105 0.137-1.402 0.242z" fill="#000000"></path>
</svg>