<?xml version='1.0' encoding='utf-8'?>
<!-- Generator: Adobe Illustrator 16.0.0, SVG Export Plug-In . SVG Version: 6.00 Build 0)  --><svg xmlns="http://www.w3.org/2000/svg" xmlns:cc="http://creativecommons.org/ns#" xmlns:dc="http://purl.org/dc/elements/1.1/" xmlns:ns="&amp;ns_sfw;" xmlns:rdf="http://www.w3.org/1999/02/22-rdf-syntax-ns#" width="841.89px" height="429px" enable-background="new 0 0 841.891 429" version="1.1" viewBox="0 0 841.89 429" xml:space="preserve">
<metadata>
	<ns:sfw>
		<ns:slices></ns:slices>
		<ns:sliceSourceBounds x="39.604" y="136.26" width="761.689" height="328" bottomLeftOrigin="true"></ns:sliceSourceBounds>
	</ns:sfw>
<rdf:RDF><cc:Work rdf:about=""><dc:format>image/svg+xml</dc:format><dc:type rdf:resource="http://purl.org/dc/dcmitype/StillImage"></dc:type><dc:title></dc:title></cc:Work></rdf:RDF></metadata>
	<path d="m40.05 242.94h53.7c0 25.6 10.8 33.6 35.7 33.6 27.899 0 36-7.6 36-24 0-14.4-11.101-20.801-32.4-25.6l-20.399-4.802c-42-10-70.8-32.399-70.8-86.399 0-52.8 26.699-88 87.601-88 67.5 0 86.1 42.8 86.1 94.4h-52.202c0-21.201-9.301-32-32.7-32-27.601 0-33.601 6-33.601 22.4 0 13.601 8.101 20.399 36 27.2l19.2 4.8c39.601 10 69.601 28.8 69.601 84.799 0 56.4-27.601 89.603-92.399 89.603-67.801-1e-3 -89.111-39.603-89.401-96.001z" fill="#000000"></path>
	<path d="m394.65 271.74v62.399h-151.2v-281.6h148.8v62.4h-97.2v49.6h86.4v57.6h-86.4v49.601h99.6z" fill="#000000"></path>
	<path d="m590.25 114.94h-66v219.2h-51.6v-219.2h-67.199v-62.4h184.8v62.4z" fill="#000000"></path>
	<path d="m658.95 52.54h51.602l-106.8 323.2h-51.6l106.8-323.2z" fill="#000000"></path>
	<path d="m710.54 190.14h91.2v55.999h-91.2v-55.999z" fill="#000000"></path>
</svg>