<?xml version='1.0' encoding='utf-8'?>
<!-- Generator: Adobe Illustrator 16.0.0, SVG Export Plug-In . SVG Version: 6.00 Build 0)  --><svg xmlns="http://www.w3.org/2000/svg" xmlns:cc="http://creativecommons.org/ns#" xmlns:dc="http://purl.org/dc/elements/1.1/" xmlns:rdf="http://www.w3.org/1999/02/22-rdf-syntax-ns#" width="575px" height="595.28px" enable-background="new 0 0 575 595.281" version="1.1" viewBox="0 0 575 595.28" xml:space="preserve"><metadata><rdf:RDF><cc:Work rdf:about=""><dc:format>image/svg+xml</dc:format><dc:type rdf:resource="http://purl.org/dc/dcmitype/StillImage"></dc:type><dc:title></dc:title></cc:Work></rdf:RDF></metadata>
<path d="m259.6 550.08c0-1.697 0.158-3.973 0.476-6.824 0.317-2.863 1.32-5.141 3.016-6.828l-30.801-71.449h-156.23c-6.986 0-13.496-1.16-19.529-3.494-6.033-2.326-11.432-5.658-16.195-10-4.764-4.34-8.528-9.42-11.272-15.244-2.756-5.818-4.132-12.121-4.132-18.896v-214.03c0-6.773 1.374-13.069 4.132-18.893 2.747-5.82 6.509-10.845 11.272-15.083 4.761-4.233 10.159-7.566 16.195-10.003 6.034-2.431 12.543-3.651 19.529-3.651h424.87c6.772 0 13.072 1.221 18.896 3.651 5.815 2.437 10.902 5.771 15.244 10.003 4.334 4.238 7.669 9.263 10.001 15.083 2.328 5.825 3.493 12.121 3.493 18.893v214.03c0 6.776-1.165 13.073-3.493 18.894-2.332 5.826-5.667 10.908-10.001 15.244-4.342 4.34-9.423 7.674-15.244 10.002-5.824 2.334-12.124 3.494-18.896 3.494h-231.18l23.815 58.109c6.986 1.48 14.527 5.289 17.81 10.162 3.279 4.865 5.638 11.076 5.638 17.854 0 8.467-2.941 13.611-7.705 19.541-4.761 5.926-11.138 9.396-19.81 9.396-3.392 0-10.67-0.842-13.847-2.432-3.177-1.584-5.001-3.189-7.644-5.934-2.649-2.754-4.713-5.984-6.195-9.689-1.484-3.711-2.226-7.682-2.226-11.91l6e-3 6e-3 7e-3 -2e-3zm-40.644-115.59-88.596-207.36 30.803-10.162 91.771 217.52h248c3.384 0 6.515-1.529 9.367-4.605 2.861-3.063 4.288-7.246 4.288-12.539v-214.03c0-3.384-1.425-6.509-4.288-9.367-2.857-2.858-5.983-4.286-9.367-4.286h-424.88c-5.297 0-9.421 1.429-12.386 4.286-2.969 2.856-4.445 5.981-4.445 9.367v214.03c0 5.295 1.476 9.477 4.445 12.539 2.963 3.076 7.088 4.605 12.386 4.605h142.9l2e-3 2e-3zm-129.24-316.27c0-10.161 1.479-20.213 4.445-30.167 2.965-9.948 7.09-19.158 12.384-27.627l27.31 20.64c-3.389 5.295-5.93 11.116-7.622 17.466-1.696 6.351-2.54 12.916-2.54 19.688v6.985h-33.977v-6.985zm33.979-74.625c16.935-16.935 37.256-27.095 60.969-30.484v33.66c-6.778 0-13.338 1.588-19.688 4.763-6.351 3.176-12.176 7.304-17.466 12.385l-23.815-20.324zm85.102-30.484c13.545 1.483 25.508 4.763 35.883 9.844 10.367 5.081 19.896 11.963 28.58 20.64l-27.306 20.324c-5.297-5.082-11.117-9.209-17.468-12.385-6.353-3.175-12.916-4.763-19.688-4.763l-1e-3 -33.66zm77.797 47.315 27.309 20.64c-3.387 5.295-5.928 11.116-7.621 17.466-1.694 6.351-2.537 12.916-2.537 19.688v6.985h-33.978v-6.985c0-6.773-0.849-13.337-2.541-19.688-1.694-6.35-4.238-12.171-7.621-17.466l26.989-20.64zm-16.828 156.55h33.978v44.139h-33.978v-44.139zm0 71.129h33.978v44.458h-33.978v-44.458zm0 71.447h33.978v47.635h-33.978v-47.635zm95.261-346.44v33.66c-6.777 0-13.391 1.588-19.846 4.762-6.462 3.176-12.228 7.304-17.306 12.385l-24.134-20.324c16.935-16.932 37.363-27.094 61.286-30.483zm88.281 30.483-27.308 20.324c-5.084-5.081-10.427-9.209-16.034-12.385-5.613-3.174-12.65-4.762-21.118-4.762v-33.66c12.066 1.484 23.708 4.763 34.931 9.843 11.216 5.082 21.061 11.964 29.529 20.64zm30.803 74.626v6.984h-33.979v-6.984c0-6.774-0.744-13.338-2.222-19.688-1.485-6.351-3.072-12.171-4.766-17.466l23.815-20.64c5.082 8.47 9.209 17.679 12.384 27.627 3.178 9.953 4.768 20.005 4.768 30.167z" fill="#000000"></path>
</svg>