<?xml version='1.0' encoding='utf-8'?>
<!-- Generator: Adobe Illustrator 27.2.0, SVG Export Plug-In . SVG Version: 6.00 Build 0)  --><svg xmlns:cc="http://creativecommons.org/ns#" xmlns="http://www.w3.org/2000/svg" xmlns:rdf="http://www.w3.org/1999/02/22-rdf-syntax-ns#" xmlns:dc="http://purl.org/dc/elements/1.1/" xmlns:xlink="http://www.w3.org/1999/xlink" version="1.2" baseProfile="tiny" id="Vrstva_1" x="0px" y="0px" viewBox="0 0 340.2 425.2" overflow="visible" xml:space="preserve" width="320.03763" height="400.0">
<path fill="#7F8483" d="M307.2,155c0,33-18,61.9-42.9,78.9V75.1C289.2,93.1,307.2,121,307.2,155z M243.3,64.1v275.6l-37-29v-56.9  c-52.9-1-96.9-43.9-96.9-97.9s43.9-97.9,97.9-97.9C221.3,57.1,232.3,59.1,243.3,64.1L243.3,64.1z M207.3,215.9V94.1  c-33,1-59.9,28-59.9,60.9C147.4,187.9,174.4,214.9,207.3,215.9z M263.3,14.2c-11,0-19,9-19,19c0,11,9,19,19,19c10,0,19-9,19-19  C282.2,23.2,274.2,14.2,263.3,14.2z"></path>
<path fill="#C73B24" d="M120.4,315.8l42.9-39.9c6-5,6-14,1-20c-5-6-14-6-20-1l-42.9,39.9l-40.9-42.9c-5-6-14-6-20,0c-6,6-6,14,0,20  l40.9,42.9l-42.9,39.9c-6,5-6,14-1,20c3,3,7,5,10,5s7-1,10-4l42.9-39.9l40.9,42.9c3,3,6,4,10,4c4,0,7-1,10-4c6-5,6-14,0-20  L120.4,315.8z"></path>
</svg>