<?xml version='1.0' encoding='utf-8'?>
<!-- Generator: Adobe Illustrator 16.0.3, SVG Export Plug-In . SVG Version: 6.00 Build 0)  --><svg xmlns="http://www.w3.org/2000/svg" xmlns:cc="http://creativecommons.org/ns#" xmlns:dc="http://purl.org/dc/elements/1.1/" xmlns:rdf="http://www.w3.org/1999/02/22-rdf-syntax-ns#" width="347.39px" height="425.2px" enable-background="new 0 0 347.386 425.197" version="1.1" viewBox="0 0 347.39 425.2" xml:space="preserve"><metadata><rdf:RDF><cc:Work rdf:about=""><dc:format>image/svg+xml</dc:format><dc:type rdf:resource="http://purl.org/dc/dcmitype/StillImage"></dc:type><dc:title></dc:title></cc:Work></rdf:RDF></metadata>
<path d="m170.06 214.69c-2.598-1.03-5.206-1.01-8.004 0.147-1.853 0.601-3.434 1.084-4.642 1.253-1.273 0.255-2.503 0.257-3.75-0.059-1.32-0.116-2.356-0.741-3.144-1.689l-0.058-0.142c-1.444-1.621-2.872-3.198-4.311-4.655-1.577-1.519-3.19-3.012-4.981-4.497-0.368-0.23-0.699-0.486-0.915-0.734-0.343-0.297-0.575-0.594-0.825-0.93l-0.318-0.094c-1.005-0.694-1.587-1.676-1.746-2.885-0.103-1.178-0.058-2.42 0.093-3.652 0.311-1.403 0.82-3 1.418-4.752 1.231-2.673 1.238-5.346 0.116-8.048-1.116-2.701-2.991-4.537-5.713-5.463l-7.002-2.988c-2.857-0.981-5.445-1.075-7.726-0.129-1.228 0.506-2.414 1.276-3.47 2.212-1.057 0.939-1.831 2.147-2.275 3.498-0.545 1.226-1.088 2.34-1.633 3.286-0.581 1.023-1.169 1.874-1.915 2.627-0.751 0.866-1.572 1.427-2.426 1.782-1.138 0.471-1.903 0.512-2.45 0.126l-0.143 0.059c-2.208-0.25-4.321-0.374-6.487-0.257-2.195 0.08-4.353 0.25-6.616 0.409-1.076 0.222-1.82 0.308-2.253 0.323l-0.264-0.109c-1.333 0.27-2.608 0.021-3.631-0.832-0.9-0.849-1.781-1.762-2.489-2.805-0.946-1.216-1.747-2.607-2.456-4.316-1.038-2.512-2.913-4.345-5.5-5.498-2.568-1.099-5.141-1.146-7.704-0.086l-7.107 2.947c-2.655 1.097-4.539 2.99-5.575 5.584-1.158 2.702-1.185 5.324-0.14 7.836 0.706 1.708 1.12 3.255 1.356 4.769 0.317 1.424 0.339 2.697 0.276 3.999-0.159 1.232-0.832 2.292-1.761 3.008-1.716 1.487-3.339 2.939-4.889 4.413-1.473 1.554-2.985 3.123-4.359 4.917-0.324 0.409-0.533 0.718-0.826 0.949-0.271 0.28-0.571 0.625-0.854 1.019l0.101 0.233c-0.375 0.434-1.05 0.823-1.902 1.175-0.997 0.415-2.025 0.617-3.13 0.628-1.104 0.017-2.103-0.125-3.12-0.43-1.126-0.311-2.325-0.64-3.546-1.188-2.572-1.101-5.153-1.034-7.902 0.103-2.61 1.079-4.481 2.854-5.618 5.493l-2.876 7.134c-1.092 2.453-1.048 4.983 0.091 7.736 1.102 2.659 2.863 4.485 5.446 5.635 1.594 0.619 2.962 1.381 4.187 2.324 1 0.807 2.006 1.611 2.853 2.59 0.852 0.991 1.141 2.089 0.961 3.393l0.058 0.133c-0.251 2.217-0.362 4.377-0.312 6.628 0.026 2.213 0.099 4.4 0.317 6.54-0.045 0.294-0.069 0.637 0.063 1.086 0.087 0.35 0.1 0.792 0.024 1.263l0.078 0.187c0.106 1.07-0.107 2.158-0.688 3.18-0.617 0.919-1.369 1.783-2.324 2.568-0.953 0.789-1.772 1.355-2.77 1.766-0.768 0.422-1.345 0.783-1.721 0.93-2.705 1.125-4.654 2.991-5.806 5.574-1.17 2.533-1.061 5.211 0.058 7.923l2.869 6.917c1.061 2.564 2.856 4.488 5.539 5.594 2.683 1.108 5.396 1.095 8.101-0.018 1.517-0.629 2.998-1.076 4.534-1.273 1.231-0.235 2.518-0.205 3.814-0.023 1.253 0.209 2.299 0.723 2.995 1.595 1.464 1.78 2.957 3.381 4.436 4.936 1.495 1.611 3.072 3.119 4.678 4.45 0.515 0.179 0.939 0.389 1.173 0.679 0.295 0.326 0.573 0.603 0.998 0.818l0.191-0.087c1.047 0.792 1.62 1.775 1.701 3.185 0.163 1.321 0.074 2.58-0.128 3.832-0.25 1.546-0.679 3.063-1.387 4.574-1.04 2.712-1.007 5.473 0.052 8.033 1.082 2.612 2.95 4.447 5.587 5.579l7.077 2.735c2.403 1.11 4.987 1.041 7.645-0.057 2.795-1.166 4.86-3.015 5.772-5.51 0.612-1.086 1.229-2.119 1.814-3.14 0.557-0.785 1.258-1.513 1.987-2.43 0.654-0.831 1.577-1.432 2.526-1.82 0.947-0.393 1.551-0.539 2.033-0.453l0.283 0.157c2.169 0.266 4.294 0.274 6.505 0.138 2.104-0.151 4.305-0.34 6.567-0.5 0.33-0.02 0.764-0.043 1.071-0.113 0.399-0.107 0.771-0.147 1.185-0.207l0.15-0.064c1.25-0.187 2.359 0.082 3.474 0.893 1.05 0.79 1.931 1.703 2.639 2.742 0.95 1.215 1.738 2.728 2.249 4.346 1.119 2.708 2.952 4.607 5.726 5.798 2.597 1.032 5.195 1.012 7.848-0.094l7.066-2.923c2.511-1.038 4.374-2.861 5.522-5.455 1.109-2.799 1.218-5.501 0.104-8.2-0.654-1.572-1.164-3.188-1.354-4.723-0.183-1.256-0.352-2.464-0.168-3.767 0.067-1.304 0.671-2.275 1.691-3.026 3.372-2.732 6.569-5.723 9.388-9.23 0.263-0.331 0.51-0.648 0.785-0.931 0.228-0.268 0.588-0.576 0.788-0.938 0.593-0.695 1.327-1.218 2.027-1.51 1.005-0.409 2.077-0.52 3.107-0.45 0.997 0.028 2.121 0.174 3.041 0.516 1.129 0.317 2.226 0.687 3.286 1.085 2.858 0.867 5.508 0.722 8.02-0.329 1.139-0.47 2.157-1.107 3.165-2.024 1.037-0.868 1.829-2.036 2.369-3.257l3.008-6.966c0.977-2.74 1.08-5.453-0.026-8.103-1.074-2.609-3.061-4.452-5.629-5.563-1.592-0.62-2.989-1.432-4.325-2.369-1.01-0.703-1.887-1.604-2.782-2.681-0.883-0.964-1.219-2.161-0.945-3.393l0.138-0.059c0.221-2.138 0.387-4.427 0.209-6.746-0.1-2.236-0.377-4.513-0.563-6.718l-0.095-1.957-0.073-0.184c-0.139-1.284 0.186-2.368 0.927-3.396 0.664-0.82 1.512-1.729 2.333-2.408 0.896-0.809 1.775-1.337 2.613-1.752 0.961-0.497 1.552-0.809 1.789-0.896l0.146-0.058c2.8-1.168 4.676-2.942 5.758-5.561 1.052-2.546 1.034-5.153-0.044-7.753l-2.852-6.88c-1.156-2.8-3.007-4.698-5.551-5.754zm-30.189 42.814c0.071 5.764-0.992 11.237-3.215 16.529-2.205 5.226-5.379 9.826-9.472 13.829-2.038 1.867-4.256 3.71-6.474 5.294-2.202 1.634-4.717 2.987-7.302 4.059-4.034 1.671-8.141 2.649-12.431 3.096-4.233 0.419-8.342 0.168-12.448-0.692-4.083-0.937-7.96-2.358-11.634-4.424-3.839-1.952-7.223-4.559-10.254-7.66-4.101-4.051-7.208-8.725-9.379-14.092-2.153-5.309-3.151-10.703-3.164-16.191 0.047-5.454 1.048-10.846 3.084-16.209 2.08-5.277 5.243-10.026 9.427-14.178 4.105-3.958 8.733-7.053 13.687-9.099 4.113-1.703 8.381-2.804 12.627-3.228 4.253-0.375 8.446-0.161 12.556 0.705 4.097 0.864 7.973 2.287 11.743 4.313 3.796 1.973 7.304 4.619 10.351 7.776 4.06 3.96 7.219 8.502 9.364 13.676 2.089 5.041 3.051 10.592 2.934 16.496z" fill="#000000"></path>
<polygon points="333.21 234.29 299.26 234.29 208.5 56.693 225.77 56.693" fill="#000000"></polygon>
<polygon points="131.49 168.5 188.66 56.693 171.39 56.693 103.72 168.5" fill="#000000"></polygon>
</svg>