<?xml version='1.0' encoding='utf-8'?>
<!-- Generator: Adobe Illustrator 16.0.0, SVG Export Plug-In . SVG Version: 6.00 Build 0)  --><svg xmlns="http://www.w3.org/2000/svg" xmlns:cc="http://creativecommons.org/ns#" xmlns:ns="&amp;ns_sfw;" xmlns:rdf="http://www.w3.org/1999/02/22-rdf-syntax-ns#" xmlns:dc="http://purl.org/dc/elements/1.1/" width="467px" height="416px" enable-background="new 0 0 467 416" version="1.1" viewBox="0 0 467 416" xml:space="preserve">
<metadata>
	<ns:sfw>
		<ns:slices></ns:slices>
		<ns:sliceSourceBounds x="218.302" y="153.639" width="404.396" height="291.026" bottomLeftOrigin="true"></ns:sliceSourceBounds>
	</ns:sfw>
<rdf:RDF><cc:Work rdf:about=""><dc:format>image/svg+xml</dc:format><dc:type rdf:resource="http://purl.org/dc/dcmitype/StillImage"></dc:type><dc:title></dc:title></cc:Work></rdf:RDF></metadata>
	<path d="m31.302 206.24c0-8.182 0.483-15.774 1.457-22.778 0.968-7.001 2.008-14.042 3.119-21.114l37.028 9.361c-1.112 5.688-2.116 11.441-3.018 17.266s-1.354 11.581-1.354 17.268c0 5.965 0.449 11.686 1.354 17.162 0.899 5.479 1.903 10.572 3.018 15.289l-37.028 9.15c-1.111-6.934-2.151-13.867-3.119-20.803-0.973-6.932-1.457-13.864-1.457-20.801zm9.153-62.406c4.713-15.113 11.51-29.468 20.387-43.061 8.874-13.59 19.066-26.139 30.579-37.652l25.379 27.667c-9.434 8.044-17.475 17.649-24.131 28.812-6.656 11.164-11.721 23.193-15.188 36.09l-37.026-11.856zm37.027 111.08c3.467 12.762 8.529 24.754 15.188 35.988 6.657 11.23 14.698 21.498 24.131 30.787l-25.379 27.666c-11.514-11.512-21.706-24.162-30.58-37.964-8.876-13.8-15.674-28.813-20.387-45.036l37.027-11.441zm9.362-48.677c0-13.45 1.696-26.348 5.097-38.692 3.396-12.341 8.249-23.955 14.563-34.844 6.31-10.886 13.901-20.729 22.778-29.539 8.873-8.805 18.687-16.33 29.436-22.57 10.745-6.241 22.325-11.093 34.738-14.562 12.41-3.465 25.344-5.2 38.796-5.2 20.387 0 39.385 3.78 56.998 11.337 17.61 7.561 33.004 17.89 46.182 30.995 13.176 13.104 23.538 28.499 31.102 46.181 7.557 17.682 11.337 36.647 11.337 56.895 0 13.453-1.735 26.387-5.2 38.797-3.468 12.412-8.354 23.994-14.666 34.74-6.312 10.748-13.869 20.594-22.674 29.539-8.81 8.941-18.618 16.57-29.438 22.881-10.814 6.313-22.435 11.166-34.845 14.563-12.413 3.4-25.346 5.1-38.796 5.1-13.452 0-26.386-1.697-38.796-5.1-12.413-3.396-23.994-8.25-34.738-14.563-10.749-6.311-20.563-13.938-29.436-22.881-8.877-8.945-16.472-18.791-22.778-29.539-6.313-10.746-11.165-22.328-14.563-34.74-3.401-12.412-5.097-25.345-5.097-38.798zm23.089 0c0 11.098 1.456 21.811 4.369 32.141 2.912 10.332 7.072 20.109 12.48 29.33 5.409 9.229 11.82 17.545 19.242 24.963 7.417 7.42 15.704 13.801 24.856 19.141s18.896 9.502 29.229 12.479c10.328 2.984 21.043 4.473 32.139 4.473 11.233 0 22.051-1.486 32.452-4.473 10.4-2.979 20.142-7.141 29.227-12.479 9.081-5.34 17.334-11.721 24.758-19.141 7.417-7.418 13.833-15.734 19.239-24.963 5.408-9.221 9.568-18.998 12.48-29.33 2.913-10.33 4.369-21.043 4.369-32.141 0-16.778-3.228-32.588-9.675-47.43-6.447-14.838-15.223-27.803-26.313-38.899-11.097-11.094-24.13-19.899-39.107-26.419-14.978-6.517-30.785-9.777-47.43-9.777-16.644 0-32.418 3.26-47.324 9.777-14.909 6.52-27.875 15.325-38.9 26.419-11.023 11.097-19.798 24.062-26.313 38.899-6.521 14.842-9.778 30.652-9.778 47.43zm265.64-143.12c11.51 11.513 21.322 24.062 29.436 37.652 8.112 13.593 14.457 27.947 19.033 43.061l-34.531 9.569c-4.716-11.786-10.505-23.159-17.367-34.115-6.864-10.954-15.016-20.455-24.442-28.499l27.871-27.668zm50.548 203.24c-5.548 16.225-12.479 31.236-20.802 45.035-8.32 13.803-18.237 26.453-29.747 37.965l-27.875-27.666c9.43-9.289 17.578-19.482 24.442-30.58 6.862-11.094 12.651-22.396 17.367-33.906l36.615 9.152zm2.497-104.01c2.356 7.073 4.124 14.113 5.305 21.114 1.179 7.004 1.771 14.597 1.771 22.778 0 6.938-0.592 13.869-1.771 20.803-1.181 6.938-2.945 13.869-5.305 20.803l-34.532-9.15c0-4.713 0.348-9.813 1.04-15.289 0.692-5.479 1.04-11.197 1.04-17.162 0-5.688-0.451-11.441-1.352-17.268-0.903-5.824-1.979-11.578-3.228-17.266l37.032-9.363z" fill="#FFCE63"></path>
</svg>