<?xml version='1.0' encoding='utf-8'?>
<!-- Generator: Adobe Illustrator 16.0.0, SVG Export Plug-In . SVG Version: 6.00 Build 0)  --><svg xmlns="http://www.w3.org/2000/svg" xmlns:cc="http://creativecommons.org/ns#" xmlns:ns="&amp;ns_sfw;" xmlns:rdf="http://www.w3.org/1999/02/22-rdf-syntax-ns#" xmlns:dc="http://purl.org/dc/elements/1.1/" width="359px" height="443px" enable-background="new 0 0 359 443" version="1.1" viewBox="0 0 359 443" xml:space="preserve">
<metadata>
	<ns:sfw>
		<ns:slices></ns:slices>
		<ns:sliceSourceBounds x="283.387" y="110.865" width="276.104" height="381.284" bottomLeftOrigin="true"></ns:sliceSourceBounds>
	</ns:sfw>
<rdf:RDF><cc:Work rdf:about=""><dc:format>image/svg+xml</dc:format><dc:type rdf:resource="http://purl.org/dc/dcmitype/StillImage"></dc:type><dc:title></dc:title></cc:Work></rdf:RDF></metadata>
	<path d="m84.369 264.62c1.713 1.285 4.391 3.074 8.031 5.354 3.643 2.285 7.315 4.498 11.031 6.643 4.283 2.568 8.924 5.215 13.924 7.926h-35.985c-0.288-0.141-1.431-0.713-3.429-1.713-2-0.998-4.428-2.32-7.281-3.963-2.857-1.645-5.928-3.498-9.21-5.57-3.287-2.068-6.354-4.246-9.212-6.533-2.857-2.283-5.215-4.564-7.068-6.854-1.855-2.283-2.783-4.424-2.783-6.43 0-2.141 0.781-4.139 2.354-5.994 1.569-1.854 3.567-3.568 5.997-5.145 2.428-1.568 5.212-3.031 8.354-4.391 3.141-1.355 6.354-2.604 9.641-3.748 2.57-0.857 5.892-1.82 9.959-2.895 4.07-1.071 8.39-2.25 12.959-3.531 4.57-1.285 9.176-2.645 13.815-4.07s8.816-2.963 12.531-4.605c3.712-1.641 6.748-3.354 9.104-5.141 2.354-1.785 3.535-3.605 3.535-5.462 0-2.142-1.039-4.318-3.105-6.533-2.072-2.212-4.535-4.425-7.391-6.642-2.857-2.211-5.713-4.424-8.567-6.639-2.858-2.213-5.142-4.318-6.854-6.32h28.274c0.142 0 1.069 0.466 2.784 1.394 1.715 0.931 3.818 2.142 6.318 3.642 2.498 1.5 5.174 3.25 8.032 5.248 2.854 2.002 5.496 4.07 7.927 6.213 2.426 2.142 4.461 4.356 6.104 6.64 1.641 2.286 2.463 4.427 2.463 6.425 0 2.57-0.964 4.787-2.893 6.645-1.929 1.854-4.429 3.531-7.498 5.031-3.07 1.498-6.64 2.967-10.709 4.393-4.069 1.43-8.248 3-12.53 4.713-5.142 2.002-10.854 4-17.138 5.998-6.285 2.002-13.494 4.213-21.635 6.641-10.142 3.287-15.207 7.068-15.207 11.354 3e-3 2.565 1.787 5.208 5.358 7.919zm-12.21 48.625c2.711-2.855 5.567-5.211 8.567-7.068 2.998-1.854 6.029-3.283 9.104-4.285 3.068-0.996 6.029-1.676 8.891-2.031 2.854-0.355 5.495-0.535 7.926-0.535 14.564 0 26.061 4.498 34.485 13.494 8.425 8.994 12.64 22.352 12.64 40.057 0 6.854-0.787 13.602-2.355 20.242-1.573 6.641-4.214 12.527-7.928 17.672-3.715 5.141-8.641 9.314-14.778 12.531-6.144 3.213-13.782 4.816-22.92 4.816-8.854 0-16.28-1.467-22.276-4.391-5.998-2.93-10.816-6.855-14.459-11.781-3.642-4.928-6.248-10.641-7.818-17.137-1.571-6.5-2.354-13.314-2.354-20.457 0-2.855 0.142-6.031 0.431-9.531 0.283-3.498 0.926-7.068 1.928-10.711 0.998-3.641 2.354-7.283 4.07-10.924 1.707-3.643 3.988-6.963 6.846-9.961zm10.527 73.043c3.006 3.713 6.625 6.246 10.853 7.604 4.229 1.355 8.349 2.035 12.358 2.035 7.309 0 13.109-1.643 17.408-4.926 4.297-3.287 7.555-7.25 9.775-11.889 2.223-4.645 3.689-9.428 4.406-14.354 0.719-4.926 1.074-9.029 1.074-12.313 0-5.711-0.539-11.104-1.613-16.176-1.072-5.064-2.863-9.426-5.37-13.064-2.511-3.645-5.771-6.533-9.78-8.674-4.01-2.146-8.951-3.216-14.826-3.216-6.594 0-12.039 1.218-16.337 3.644-4.297 2.43-7.7 5.604-10.208 9.531-2.507 3.93-4.261 8.461-5.265 13.604-1.005 5.143-1.505 10.355-1.505 15.638 0 5.567 0.645 11.28 1.937 17.138 1.289 5.849 3.652 10.99 7.093 15.418zm50.736-243.98v19.064c0 3.57-1.788 5.355-5.354 5.355h-23.135c-3.57 0-5.354-1.785-5.354-5.355v-31.274c-1.001-4.425-1.605-8.388-1.821-11.888-0.214-3.498-0.319-6.674-0.319-9.532 0-6.995 0.676-12.28 2.035-15.851 1.354-3.568 2.176-6.138 2.463-7.711h-11.996c-1.713 0-3.071-0.75-4.068-2.249-1-1.5-1.499-2.604-1.499-3.32l3.642-12.638c0-0.713 0.891-1.392 2.678-2.035 1.785-0.643 3.393-0.964 4.82-0.964h19.063c0.429-1.142 1.248-2.463 2.464-3.963 1.211-1.5 2.532-3.106 3.963-4.82 1.427-1.713 2.817-3.46 4.177-5.248 1.355-1.784 7.283-9.639 8.783-11.567 1.499-1.928 3.032-3.604 4.604-5.034 1.569-1.426 3.535-2.571 5.893-3.427 2.355-0.857 5.531-1.426 9.531-1.714 8.568-0.569 16.563-0.927 23.99-1.071 7.424-0.141 12.994-0.214 16.709-0.214h3.213c4.141 0 9.281 0.107 15.422 0.321s12.494 0.536 19.064 0.964c2.998 0.288 5.566 0.75 7.711 1.393 2.143 0.643 4.068 1.536 5.783 2.677 1.715 1.145 3.354 2.537 4.928 4.177 1.568 1.643 3.283 3.534 5.141 5.676 0.285 0.428 0.605 0.857 0.963 1.285 0.355 0.429 0.75 0.857 1.182 1.285 1.285 1.573 2.678 3.25 4.178 5.034 1.498 1.787 2.924 3.571 4.283 5.355 1.354 1.787 2.533 3.464 3.535 5.034 0.996 1.573 1.641 2.858 1.928 3.856h19.277c2.428 0 4.281 0.465 5.566 1.392 1.285 0.931 1.928 1.466 1.928 1.606l3.645 12.638c0 0.716-0.535 1.821-1.605 3.32-1.068 1.499-2.393 2.249-3.963 2.249h-11.996c0.145 0.857 0.463 1.895 0.965 3.106 0.498 1.215 0.996 2.751 1.498 4.605 0.5 1.857 0.969 4.07 1.396 6.64 0.428 2.57 0.643 5.643 0.643 9.211 0 2.858-0.104 6.105-0.318 9.746-0.217 3.642-0.896 7.534-2.035 11.674v31.274c0 3.57-1.857 5.355-5.57 5.355h-22.496c-3.568 0-5.354-1.785-5.354-5.355v-19.064h-120.18v2e-3zm-17.779-17.779h155.51v-18.208h-33.417v-17.35h27.85l-4.93-8.568h-134.31l-5.354 8.568h28.062v17.351h-33.416l-3e-3 18.207zm133.45-60.834c-2.002-4.425-4.787-7.959-8.355-10.603-3.568-2.641-7.678-4.605-12.313-5.891-4.646-1.285-9.607-2.105-14.891-2.463-5.285-0.355-10.641-0.536-16.063-0.536h-11.998c-5 0-9.929 0.181-14.781 0.536-4.854 0.358-9.498 1.215-13.922 2.57-4.43 1.359-8.604 3.32-12.531 5.891-3.93 2.57-7.533 6.071-10.816 10.496h115.67zm-80.971 238.19h61.689v12.211h-47.125v32.348h44.34v12.209h-44.34v46.91h-14.565l1e-3 -103.68zm70.26-34.914c1.566 1.432 4.068 3.105 7.498 5.033 3.428 1.928 6.854 3.822 10.279 5.676 3.996 2.146 8.209 4.432 12.641 6.855h-38.346c-0.57-0.285-1.895-0.965-3.963-2.035s-4.465-2.389-7.176-3.963c-2.715-1.57-5.604-3.354-8.676-5.355-3.072-1.998-5.891-4.104-8.461-6.316-2.57-2.211-4.68-4.424-6.318-6.643-1.645-2.213-2.463-4.391-2.463-6.529 0-1.855 0.535-3.605 1.605-5.248 1.068-1.645 2.463-3.143 4.178-4.5 1.713-1.355 3.674-2.57 5.891-3.643 2.211-1.068 4.461-1.963 6.746-2.678 3.283-0.713 7.676-1.963 13.174-3.75 5.496-1.783 11.355-3.711 17.564-5.783 6.213-2.064 12.316-4.176 18.313-6.316 5.998-2.145 11.066-3.996 15.209-5.568 4.428-1.57 6.645-3.713 6.645-6.426 0-1.999-1.002-4.142-3-6.427-2.002-2.283-4.395-4.605-7.176-6.961-2.785-2.356-5.605-4.64-8.461-6.854-2.857-2.212-5.217-4.317-7.068-6.319h27.203c-0.146 0 0.566 0.465 2.143 1.394 1.57 0.93 3.645 2.108 6.211 3.534 2.572 1.429 5.355 3.072 8.355 4.927 2.998 1.856 5.813 3.784 8.461 5.784 2.641 2 4.818 3.962 6.533 5.891 1.713 1.928 2.566 3.749 2.566 5.461 0 1.43-0.395 3.035-1.178 4.82-0.787 1.787-2.105 3.604-3.963 5.461-1.857 1.855-4.391 3.68-7.604 5.463-3.215 1.787-7.178 3.395-11.891 4.82-0.572 0.143-2.105 0.643-4.604 1.498-2.5 0.855-5.498 1.818-8.996 2.893-3.502 1.07-7.213 2.248-11.143 3.535-3.93 1.285-7.678 2.5-11.246 3.641-3.566 1.146-6.676 2.145-9.314 2.998-2.646 0.857-4.395 1.434-5.248 1.715-8.428 2.713-12.637 5.93-12.637 9.641 6e-3 2.991 2.574 6.419 7.717 10.274zm4.713 34.914h61.688v12.211h-47.34v32.348h44.559v12.209h-44.559v46.91h-14.352l4e-3 -103.68z" fill="#FFCE63"></path>
</svg>