<?xml version='1.0' encoding='utf-8'?>
<!-- Generator: Adobe Illustrator 16.0.3, SVG Export Plug-In . SVG Version: 6.00 Build 0)  --><svg xmlns="http://www.w3.org/2000/svg" xmlns:cc="http://creativecommons.org/ns#" xmlns:dc="http://purl.org/dc/elements/1.1/" xmlns:rdf="http://www.w3.org/1999/02/22-rdf-syntax-ns#" width="422.45px" height="425.2px" version="1.2" viewBox="0 0 422.45 425.2" xml:space="preserve"><metadata><rdf:RDF><cc:Work rdf:about=""><dc:format>image/svg+xml</dc:format><dc:type rdf:resource="http://purl.org/dc/dcmitype/StillImage"></dc:type><dc:title></dc:title></cc:Work></rdf:RDF></metadata>
<path d="m318.65 95.286c-19.432 0-37.423 6.279-52.122 16.9-25.752-33.719-66.201-55.493-111.61-55.493-77.605 0-140.74 63.582-140.74 141.73 0 78.15 63.137 141.73 140.74 141.73 53.241 0 99.67-29.926 123.58-73.947 12.086 6.126 25.728 9.578 40.155 9.578 49.414 0 89.615-40.49 89.615-90.258 0-49.761-40.201-90.244-89.615-90.244zm-163.73 225.74c-67.129 0-121.74-54.996-121.74-122.6 0-67.602 54.613-122.6 121.74-122.6 67.131 0 121.75 54.999 121.75 122.6-1e-3 67.6-54.616 122.6-121.75 122.6zm137.68-152.02c-0.293-1.394-0.611-2.778-0.945-4.156l6.144-9.423h41.934l8.848 13.579h-55.981zm64.243 9.666v3.985l-14.162 3.334 0.778-5.993 13.384-1.326zm-16.531 1.051-3.528 10.39h-36.042l-3.53-10.39 15.813 0.448 1.672 1.791h8.139l1.667-1.791 15.809-0.448zm-21.657 83.986c-12.529 0-24.365-3.02-34.853-8.352 7.113-16.267 11.28-34.12 11.807-52.876h52.886v7.86h12.221v-30.926l-7.335-8.253c0.342 0.073 0.739 0.116 1.204 0.116 2.517 0 4.567-1.19 4.567-2.65 0-1.467-2.051-2.655-4.567-2.655-2.526 0-3.062 1.188-3.062 2.655 0 0.157 3e-3 0.309 0.021 0.461l-0.077-0.082-10.974-15.847h-43.457l-6.104 8.808c-3.786-14.309-9.734-27.74-17.487-39.901 12.741-9.23 28.349-14.69 45.209-14.69 42.797 0 77.615 35.062 77.615 78.159 1e-3 43.105-34.817 78.173-77.614 78.173z" fill-rule="evenodd" fill="#000000"></path>
<path d="m152.51 181.7c-4.841-5.537-11.67-13.296-14.528-16.394-1.902-2.074-2.708-7.338-2.194-13.521 2.408-29.169-15.354-45.468-44.118-49.843-31.062 20.691-51.554 56.177-51.554 96.49 0 35.467 15.867 67.201 40.838 88.407 4.568-2.397 9.946-7.083 9.946-15.88 0-15.282 6.604-19.05 18.268-19.05 24.201 0 31.997-15.718 31.997-25.473 0-5.317-1.644-8.199-1.644-11.291 0-5.749 0.441-7.313 10.783-14.398 7.74-5.298 7.033-13.513 2.206-19.047z" fill="#000000"></path>
	<path d="m227.33 277.13c-1.389 0-2.778-0.526-3.849-1.582-2.17-2.141-2.206-5.647-0.08-7.832 11.737-12.067 18.202-27.327 18.202-42.97 0-15.759-6.563-31.111-18.48-43.228-2.137-2.173-2.12-5.68 0.038-7.833 2.158-2.152 5.64-2.136 7.778 0.038 13.97 14.205 21.664 32.325 21.664 51.023 0 18.557-7.58 36.57-21.345 50.721-1.077 1.107-2.502 1.663-3.928 1.663z" fill="#000000"></path>
	<path d="m202.12 262.12c-1.508 0-3.009-0.621-4.095-1.839-2.029-2.277-1.841-5.779 0.42-7.822 8.407-7.598 13.038-17.44 13.038-27.713 0-10.451-4.775-20.419-13.445-28.07-2.284-2.016-2.514-5.516-0.512-7.816 2.003-2.3 5.477-2.53 7.762-0.515 11.089 9.786 17.196 22.713 17.196 36.401 0 13.46-5.928 26.23-16.691 35.958-1.052 0.948-2.365 1.416-3.673 1.416z" fill="#000000"></path>
	<path d="m178.99 248.36c-1.569 0-3.128-0.672-4.216-1.978-1.953-2.343-1.65-5.836 0.677-7.803 4.188-3.54 6.589-8.581 6.589-13.83 0-5.473-2.58-10.651-7.079-14.21-2.389-1.889-2.804-5.371-0.928-7.777 1.876-2.405 5.332-2.825 7.723-0.934 7.171 5.672 11.284 14.025 11.284 22.921 0 8.532-3.833 16.665-10.517 22.314-1.031 0.873-2.286 1.297-3.533 1.297z" fill="#000000"></path>
</svg>