<?xml version='1.0' encoding='utf-8'?>
<!-- Generator: Adobe Illustrator 16.0.0, SVG Export Plug-In . SVG Version: 6.00 Build 0)  --><svg xmlns="http://www.w3.org/2000/svg" xmlns:cc="http://creativecommons.org/ns#" xmlns:dc="http://purl.org/dc/elements/1.1/" xmlns:ns="&amp;ns_sfw;" xmlns:rdf="http://www.w3.org/1999/02/22-rdf-syntax-ns#" width="331px" height="395px" enable-background="new 0 0 331 395" version="1.1" viewBox="0 0 331 395" xml:space="preserve">
<metadata>
	<rdf:RDF>
		<cc:Work rdf:about="">
			<dc:format>image/svg+xml</dc:format>
			<dc:type rdf:resource="http://purl.org/dc/dcmitype/StillImage"></dc:type>
			<dc:title></dc:title>
		</cc:Work>
	</rdf:RDF>
	<ns:sfw>
		<ns:slices></ns:slices>
		<ns:sliceSourceBounds x="277.766" y="189.991" width="283.468" height="238.749" bottomLeftOrigin="true"></ns:sliceSourceBounds>
	</ns:sfw>
</metadata>
<polygon points="73.016 142.21 22.766 142.21 22.766 229.06 73.016 229.06 182.12 305.01 182.12 66.26" fill="#000000"></polygon>
<path d="m238.05 258.39-9.217-13.161c19.424-13.601 31.021-35.875 31.021-59.586s-11.6-45.986-31.021-59.586l9.217-13.162c23.713 16.604 37.869 43.799 37.869 72.748 0 28.946-14.156 56.142-37.869 72.747z" fill="#000000"></path>
<path d="m255.44 283.22-9.217-13.162c27.52-19.268 43.945-50.823 43.945-84.417 0-33.593-16.428-65.15-43.945-84.42l9.217-13.16c31.807 22.271 50.797 58.75 50.797 97.58-1e-3 38.829-18.991 75.308-50.797 97.579z" fill="#000000"></path>
</svg>