<?xml version='1.0' encoding='utf-8'?>
<!-- Generator: Adobe Illustrator 16.0.3, SVG Export Plug-In . SVG Version: 6.00 Build 0)  --><svg xmlns="http://www.w3.org/2000/svg" xmlns:cc="http://creativecommons.org/ns#" xmlns:dc="http://purl.org/dc/elements/1.1/" xmlns:rdf="http://www.w3.org/1999/02/22-rdf-syntax-ns#" width="432.58px" height="425.2px" version="1.2" viewBox="0 0 432.58 425.2" xml:space="preserve"><metadata><rdf:RDF><cc:Work rdf:about=""><dc:format>image/svg+xml</dc:format><dc:type rdf:resource="http://purl.org/dc/dcmitype/StillImage"></dc:type><dc:title></dc:title></cc:Work></rdf:RDF></metadata>
<path d="m363.24 340.16s12.061-15.176 22.151-25.268c10.092-10.09 33.013-28.027 33.013-28.027s-44.334-28.581-56.148-38.427c-11.814-9.845-11.757-30.928-21.465-44.98-7.693-11.136-27.021-28.365-33.422-32.057-6.398-3.692-16.982 1.969-27.319 0-10.338-1.969-12.799 3.2-20.922 3.2-8.122 0-13.29 17.229-21.412 4.43s-39.134-48.487-52.179-61.04c-13.045-12.552-23.067 0.717-16.302 11.814 24.309 39.875 47.259 74.084 62.985 95.265 12.172 16.392 8.448 41.505-13.211 22.8-21.659-18.706-36.918-18.875-45.908-15.798-5.761 1.974-9.974 11.394 5.79 21.535 31.75 20.429 57.36 41.59 74.888 49.721 19.625 9.104 72.472-0.175 85.81 10.813 8.968 7.386 23.651 26.019 23.651 26.019z" fill="#000000"></path>
<polygon points="193.9 218.59 14.174 218.59 14.174 56.693 265.81 56.693 265.81 146.54 248.09 146.54 248.09 74.414 31.895 74.414 31.895 200.87 193.9 200.87" fill="#000000"></polygon>
</svg>