<?xml version='1.0' encoding='utf-8'?>
<!-- Generator: Adobe Illustrator 16.0.0, SVG Export Plug-In . SVG Version: 6.00 Build 0)  --><svg xmlns="http://www.w3.org/2000/svg" xmlns:cc="http://creativecommons.org/ns#" xmlns:dc="http://purl.org/dc/elements/1.1/" xmlns:ns="&amp;ns_sfw;" xmlns:rdf="http://www.w3.org/1999/02/22-rdf-syntax-ns#" width="841.89px" height="411px" version="1.2" viewBox="0 0 841.89 411" xml:space="preserve">
<metadata>
	<ns:sfw>
		<ns:slices></ns:slices>
		<ns:sliceSourceBounds x="4.56" y="173" width="834.505" height="280.098" bottomLeftOrigin="true"></ns:sliceSourceBounds>
	</ns:sfw>
<rdf:RDF><cc:Work rdf:about=""><dc:format>image/svg+xml</dc:format><dc:type rdf:resource="http://purl.org/dc/dcmitype/StillImage"></dc:type><dc:title></dc:title></cc:Work></rdf:RDF></metadata>
	<path d="M185.066,54.518v270.864h-49.632V219.19H54.637v106.191H5.005V54.518h49.632V159.17h80.796V54.518H185.066z" fill="#000000"></path>
	<path d="m204.69 189.95c0-78.875 50.786-140.05 110.81-140.05 60.02 0 110.81 60.791 110.81 140.05s-50.787 140.05-110.81 140.05c-60.023 0-110.81-60.791-110.81-140.05zm169.67 0c0-43.861-27.125-78.489-58.864-78.489-31.742 0-58.866 35.396-58.866 78.489 0 43.861 27.125 78.488 58.866 78.488 31.739-1e-3 58.864-34.627 58.864-78.488z" fill="#000000"></path>
	<path d="m664.07 325.38h-46.169v-127.35l-47.324 127.35h-32.317l-46.17-124.28v124.27h-46.17v-270.86h41.553l69.543 183.91 64.349-183.91h42.706l-1e-3 270.86z" fill="#000000"></path>
	<path d="M839.51,265.36v60.021H694.075V54.518H837.2v60.021h-93.492v47.709h83.104v55.403h-83.104v47.709H839.51z" fill="#000000"></path>
</svg>