<?xml version='1.0' encoding='utf-8'?>
<!-- Generator: Adobe Illustrator 16.0.3, SVG Export Plug-In . SVG Version: 6.00 Build 0)  --><svg xmlns="http://www.w3.org/2000/svg" xmlns:cc="http://creativecommons.org/ns#" xmlns:dc="http://purl.org/dc/elements/1.1/" xmlns:rdf="http://www.w3.org/1999/02/22-rdf-syntax-ns#" width="428.97px" height="425.2px" version="1.2" viewBox="0 0 428.97 425.2" xml:space="preserve"><metadata><rdf:RDF><cc:Work rdf:about=""><dc:format>image/svg+xml</dc:format><dc:type rdf:resource="http://purl.org/dc/dcmitype/StillImage"></dc:type><dc:title></dc:title></cc:Work></rdf:RDF></metadata>
<path d="m379.92 340.16h-330.87c-19.259 0-34.874-15.616-34.874-34.873v-213.72c0-19.26 15.614-34.874 34.874-34.874h330.87c19.262 0 34.875 15.614 34.875 34.874v213.72c0 19.257-15.613 34.873-34.875 34.873zm-2.924-105.21-145.42-32.527c-3.718-10.404-8.017-19.982-12.972-28.871 16.798-31.118 45.604-52.031 127.43-60.188 5.71-0.568 9.883-5.663 9.315-11.378-0.567-5.714-5.671-9.879-11.383-9.315-73.206 7.297-113.78 25.01-137.97 61.584-16.667-21.889-38.85-39.237-68.227-54.805-5.076-2.689-11.366-0.755-14.056 4.319s-0.756 11.369 4.317 14.058c38.819 20.571 63.419 44.031 78.99 79.103l-140.88-31.506c-5.604-1.254-11.164 2.275-12.416 7.878-1.254 5.606 2.271 11.166 7.877 12.419l153.93 34.429c5.629 18.786 9.528 40.496 12.214 66.02 0.563 5.343 5.076 9.314 10.331 9.314 0.364 0 0.73-0.017 1.101-0.057 5.706-0.605 9.854-5.718 9.253-11.43-2.308-21.911-5.534-41.336-9.949-58.717l133.97 29.961c0.765 0.175 1.531 0.258 2.279 0.258 4.763 0 9.057-3.292 10.141-8.133 1.252-5.598-2.277-11.161-7.88-12.416z" fill="#000000"></path>
</svg>