<?xml version='1.0' encoding='utf-8'?>
<!-- Generator: Adobe Illustrator 16.0.3, SVG Export Plug-In . SVG Version: 6.00 Build 0)  --><svg xmlns="http://www.w3.org/2000/svg" xmlns:cc="http://creativecommons.org/ns#" xmlns:dc="http://purl.org/dc/elements/1.1/" xmlns:rdf="http://www.w3.org/1999/02/22-rdf-syntax-ns#" width="311.81px" height="425.2px" version="1.2" viewBox="0 0 311.81 425.2" xml:space="preserve"><metadata><rdf:RDF><cc:Work rdf:about=""><dc:format>image/svg+xml</dc:format><dc:type rdf:resource="http://purl.org/dc/dcmitype/StillImage"></dc:type><dc:title></dc:title></cc:Work></rdf:RDF></metadata>
<path d="m237.4 340.16h-162.86c-33.277 0-60.36-27.008-60.36-60.214v-162.89c0-33.273 27.083-60.356 60.36-60.356h162.86c33.236 0 60.243 27.083 60.243 60.356v162.9c1e-3 33.205-27.006 60.213-60.242 60.213zm-13.869-89.65-9.502-7.33c-14.023 18.18-35.203 28.606-58.107 28.606-40.462 0-73.381-32.911-73.381-73.365 0-40.446 32.918-73.351 73.381-73.351 22.905 0 44.085 10.426 58.108 28.604l9.502-7.329c-16.313-21.147-40.956-33.275-67.61-33.275-47.079 0-85.381 38.289-85.381 85.351 0 47.07 38.302 85.365 85.381 85.365 26.653 0 51.296-12.129 67.609-33.276zm-87.955-86.101v68.038l55.804-34.019-55.804-34.019z" fill="#000000"></path>
</svg>