<?xml version='1.0' encoding='utf-8'?>
<!-- Generator: Adobe Illustrator 27.2.0, SVG Export Plug-In . SVG Version: 6.00 Build 0)  --><svg xmlns="http://www.w3.org/2000/svg" xmlns:xlink="http://www.w3.org/1999/xlink" version="1.1" id="Vrstva_1" x="0px" y="0px" viewBox="0 0 453.5 425.2" style="enable-background:new 0 0 453.5 425.2;" xml:space="preserve" width="426.62274" height="400.0">
<style type="text/css">
	.st0{fill:#222221;}
	.st1{fill-rule:evenodd;clip-rule:evenodd;fill:#222221;}
</style>
<g>
	<path class="st0" d="M26.1,395.8c-7.3-4.9-13.5-11-17.1-19.5c-3.7-8.6-6.2-17.1-6.2-26.8c0-9.8,2.4-19.5,6.2-26.8   c3.7-8.6,9.8-14.6,17.1-19.5c7.3-4.9,17.1-7.3,26.8-7.3s18.3,2.4,25.7,6.2c7.3,4.9,13.5,11,18.3,18.3l-12.2,7.3   c-3.7-6.2-7.3-9.8-13.5-13.5c-4.9-3.7-11-4.9-18.3-4.9s-13.5,1.3-18.3,4.9c-4.9,3.7-9.8,8.6-12.2,14.6c-2.4,6.2-4.9,13.5-4.9,20.8   c0,7.3,1.3,14.6,4.9,20.8c2.4,6.2,7.3,11,12.2,14.6c4.9,3.7,11,4.9,18.3,4.9s12.2-1.3,18.3-4.9c4.9-3.7,9.8-7.3,13.5-13.5l13.5,7.3   c-4.9,8.6-11,14.6-18.3,18.3c-7.3,4.9-15.9,6.2-25.7,6.2C42,403.1,33.4,400.7,26.1,395.8z"></path>
	<path class="st0" d="M127.3,388.5H176v13.5h-63.5V297h15.9v91.5H127.3z"></path>
	<path class="st0" d="M189.5,297h15.9v104.9h-15.9V297z"></path>
	<path class="st0" d="M337.2,297v104.9h-14.6v-67.1l-34.1,67.1h-9.8l-34.1-67.1v67.1h-14.6V297h12.2l41.4,84.2L325,297H337.2z"></path>
	<path class="st0" d="M434.8,401.9l-9.8-23.2h-48.8l-9.8,23.2h-15.9L395.8,297h9.8l45.2,104.9H434.8L434.8,401.9z M382.3,365.4h37.8   l-19.5-45.2L382.3,365.4z"></path>
</g>
<g>
	<path class="st1" d="M149.3,85.8v37.8h4.9c18.3,0,33-14.6,33-33c0-8.6-3.7-17.1-9.8-23.2h37.7v-4.9c0-18.3-14.6-33-33-33   c-8.6,0-17.1,3.7-23.2,9.8V1.7h-4.9c-18.3,0-33,14.6-33,33c0,8.6,3.7,17.1,9.8,23.2H93.2v4.9c0,18.3,14.6,33,33,33   C134.6,94.4,143.2,90.7,149.3,85.8z"></path>
	<path class="st1" d="M328.7,13.9c-17.1,0-30.5,13.5-30.5,30.5s13.5,30.5,30.5,30.5c17.1,0,30.5-13.5,30.5-30.5   S346.9,13.9,328.7,13.9z M328.7,62.7c-11,0-18.3-8.6-18.3-18.3c0-11,8.6-18.3,18.3-18.3c11,0,18.3,8.6,18.3,18.3   C348.2,55.4,339.6,62.7,328.7,62.7z"></path>
	<path class="st1" d="M336,92c-12.2-7.3-26.8-3.7-34.1,8.6L262.8,164L214,145.6c-8.6-3.7-19.5-1.3-25.7,6.2L120,220.1   c-9.8,9.8-9.8,25.7,0,35.4c9.8,9.8,25.7,9.8,35.4,0l57.3-57.3l53.7,19.5c11,3.7,23.2,0,29.3-9.8l50-80.6   C350.6,113.9,346.9,99.3,336,92z M333.6,118.8l-50,80.6c-3.7,4.9-9.8,7.3-14.6,4.9l-57.3-20.8c-2.4-1.3-4.9,0-6.2,1.3l-59.8,59.8   c-4.9,4.9-12.2,4.9-17.1,0s-4.9-12.2,0-17.1l68.4-68.4c3.7-3.7,8.6-4.9,13.5-2.4l53.7,19.5c2.4,1.3,6.2,0,7.3-2.4l41.4-67.1   c3.7-6.2,11-7.3,17.1-3.7C334.7,105.4,337.2,112.8,333.6,118.8z"></path>
</g>
</svg>