<?xml version='1.0' encoding='utf-8'?>
<!-- Generator: Adobe Illustrator 16.0.0, SVG Export Plug-In . SVG Version: 6.00 Build 0)  --><svg xmlns="http://www.w3.org/2000/svg" xmlns:cc="http://creativecommons.org/ns#" xmlns:dc="http://purl.org/dc/elements/1.1/" xmlns:rdf="http://www.w3.org/1999/02/22-rdf-syntax-ns#" width="598.9px" height="425.2px" version="1.2" viewBox="0 0 598.9 425.2" xml:space="preserve"><metadata><rdf:RDF><cc:Work rdf:about=""><dc:format>image/svg+xml</dc:format><dc:type rdf:resource="http://purl.org/dc/dcmitype/StillImage"></dc:type><dc:title></dc:title></cc:Work></rdf:RDF></metadata>
<path d="m254.04 197.17c0 24.879-3.156 46.334-9.462 64.366-6.309 18.031-14.974 32.85-25.993 44.449-11.022 11.604-23.94 20.2-38.761 25.788-14.82 5.589-30.667 8.388-47.539 8.388-39.217 0-68.708-11.984-88.467-35.957-19.762-23.972-29.641-58.812-29.641-104.52 0-24.878 3.153-46.335 9.462-64.367 6.306-18.031 14.97-32.845 25.993-44.449 11.019-11.6 23.941-20.196 38.761-25.789 14.821-5.589 30.667-8.386 47.54-8.386 39.217 0 68.705 11.951 88.467 35.853 19.757 23.902 29.64 58.778 29.64 104.62v5e-3zm-59.282 2.516c0-32.426-4.713-56.609-14.136-72.543-9.427-15.935-24.931-23.901-46.514-23.901-10.794 0-19.989 2.063-27.589 6.185-7.603 4.125-13.873 10.168-18.811 18.136-4.941 7.967-8.55 17.789-10.83 29.458-2.28 11.673-3.42 25.055-3.42 40.151 0 32.428 4.749 56.61 14.25 72.542 9.498 15.936 24.967 23.902 46.399 23.902 10.791 0 20.025-2.063 27.703-6.185 7.674-4.122 13.944-10.171 18.811-18.138 4.863-7.967 8.436-17.785 10.716-29.457 2.282-11.669 3.421-25.054 3.421-40.15z" fill="#000000"></path>
<path d="m291.47 272.19c5.165 0 9.96 0.876 14.388 2.63 4.428 1.755 8.27 4.128 11.529 7.121 3.256 2.998 5.811 6.531 7.654 10.603 1.845 4.074 2.768 8.43 2.768 13.062 0 4.524-0.923 8.792-2.768 12.808-1.845 4.018-4.398 7.521-7.654 10.519-3.261 2.995-7.103 5.368-11.529 7.122s-9.224 2.629-14.388 2.629c-4.92 0-9.53-0.875-13.833-2.629-4.307-1.754-8.057-4.127-11.253-7.122-3.198-2.996-5.718-6.501-7.562-10.519-1.845-4.016-2.767-8.283-2.767-12.808 0-4.632 0.921-8.987 2.767-13.062 1.844-4.07 4.364-7.604 7.562-10.603 3.196-2.993 6.946-5.366 11.253-7.121 4.303-1.754 8.913-2.63 13.833-2.63z" fill="#000000"></path>
<path d="m584.26 197.17c0 24.879-3.155 46.334-9.462 64.366-6.309 18.031-14.974 32.85-25.993 44.449-11.021 11.604-23.939 20.2-38.761 25.788-14.82 5.589-30.667 8.388-47.539 8.388-39.217 0-68.708-11.984-88.467-35.957-19.762-23.972-29.641-58.812-29.641-104.52 0-24.878 3.152-46.335 9.462-64.367 6.306-18.031 14.97-32.845 25.993-44.449 11.019-11.6 23.94-20.196 38.761-25.789 14.821-5.589 30.667-8.386 47.54-8.386 39.217 0 68.705 11.951 88.467 35.853 19.757 23.902 29.64 58.778 29.64 104.62v5e-3zm-59.282 2.516c0-32.426-4.713-56.609-14.136-72.543-9.427-15.935-24.931-23.901-46.514-23.901-10.794 0-19.989 2.063-27.588 6.185-7.604 4.125-13.873 10.168-18.812 18.136-4.94 7.967-8.55 17.789-10.83 29.458-2.279 11.673-3.42 25.055-3.42 40.151 0 32.428 4.749 56.61 14.25 72.542 9.498 15.936 24.968 23.902 46.399 23.902 10.791 0 20.024-2.063 27.703-6.185 7.674-4.122 13.943-10.171 18.811-18.138 4.863-7.967 8.437-17.785 10.716-29.457 2.281-11.669 3.421-25.054 3.421-40.15z" fill="#000000"></path>
</svg>