<?xml version='1.0' encoding='utf-8'?>
<!-- Generator: Adobe Illustrator 16.0.0, SVG Export Plug-In . SVG Version: 6.00 Build 0)  --><svg xmlns="http://www.w3.org/2000/svg" xmlns:cc="http://creativecommons.org/ns#" xmlns:dc="http://purl.org/dc/elements/1.1/" xmlns:rdf="http://www.w3.org/1999/02/22-rdf-syntax-ns#" width="404px" height="425.2px" enable-background="new 0 0 404 425.2" version="1.1" viewBox="0 0 404 425.2" xml:space="preserve"><metadata><rdf:RDF><cc:Work rdf:about=""><dc:format>image/svg+xml</dc:format><dc:type rdf:resource="http://purl.org/dc/dcmitype/StillImage"></dc:type><dc:title></dc:title></cc:Work></rdf:RDF></metadata>
<rect x="17.949" y="348.37" width="69.569" height="69.569" fill="#000000"></rect>
<rect x="117.69" y="348.37" width="69.569" height="69.569" fill="#000000"></rect>
<rect x="217.42" y="348.37" width="69.57" height="69.569" fill="#000000"></rect>
<rect x="317.15" y="348.37" width="69.567" height="69.569" fill="#000000"></rect>
<path d="m211.4 41.701v103.08h-18.154v-103.08c0-5.015 4.062-9.084 9.082-9.084 5.018-1e-3 9.072 4.069 9.072 9.084zm71.018 106.7c5.357 0 9.701-4.343 9.701-9.699 0-5.357-4.344-9.699-9.701-9.699h-45.307v-30.425h45.307c5.357 0 9.701-4.343 9.701-9.699 0-5.358-4.344-9.699-9.701-9.699h-45.307v-37.479c0-19.211-15.572-34.787-34.782-34.787-19.212 0-34.786 15.576-34.786 34.787v196.32c-9.157 9.003-14.841 21.526-14.841 35.382 0 27.407 22.219 49.628 49.626 49.628 27.406 0 49.627-22.218 49.627-49.628 0-13.855-5.688-26.379-14.843-35.382v-39.787h45.308c5.358 0 9.699-4.343 9.699-9.699 0-5.358-4.341-9.7-9.699-9.7h-45.308v-30.424c-3e-3 -4e-3 42.271-4e-3 45.305-4e-3l1e-3 -3e-3z" fill="#000000"></path>
</svg>