<?xml version='1.0' encoding='utf-8'?>
<!-- Generator: Adobe Illustrator 16.0.3, SVG Export Plug-In . SVG Version: 6.00 Build 0)  --><svg xmlns="http://www.w3.org/2000/svg" xmlns:cc="http://creativecommons.org/ns#" xmlns:dc="http://purl.org/dc/elements/1.1/" xmlns:rdf="http://www.w3.org/1999/02/22-rdf-syntax-ns#" width="311.84px" height="425.2px" enable-background="new 0 0 311.842 425.197" version="1.1" viewBox="0 0 311.84 425.2" xml:space="preserve"><metadata><rdf:RDF><cc:Work rdf:about=""><dc:format>image/svg+xml</dc:format><dc:type rdf:resource="http://purl.org/dc/dcmitype/StillImage"></dc:type><dc:title></dc:title></cc:Work></rdf:RDF></metadata>

	<path d="m265.13 56.893c-12.631 2.2-32.784 26.911-40.067 34.239-7.287 7.327 2.284 13.448-5.472 21.206-7.763 7.76-45.376 45.38-53.11 53.138-7.741 7.759-22.434 9.927-32.799 5.616-10.324-4.268-22.901-9.086-33.245 6.389-10.346 15.474-11.42 23.018-32.779 28.879-43.965 12.017-79.451 57.192-28.157 108.44 51.293 51.337 96.423 15.841 108.51-28.084 5.862-21.378 13.37-22.492 28.886-32.797 15.519-10.344 10.709-22.942 6.397-33.29-4.309-10.328-2.142-25.026 5.621-32.741 7.756-7.802 45.324-45.336 53.087-53.096 7.757-7.759 13.92 1.812 21.205-5.472 7.329-7.372 32.063-27.492 34.26-40.079 1.445-8.275-5.123-14.106-11.297-20.429-6.371-6.522-12.504-13.387-21.043-11.921z" fill="#000000"></path>

</svg>