<?xml version='1.0' encoding='utf-8'?>
<!-- Generator: Adobe Illustrator 16.0.0, SVG Export Plug-In . SVG Version: 6.00 Build 0)  --><svg xmlns="http://www.w3.org/2000/svg" xmlns:cc="http://creativecommons.org/ns#" xmlns:dc="http://purl.org/dc/elements/1.1/" xmlns:rdf="http://www.w3.org/1999/02/22-rdf-syntax-ns#" width="446.33px" height="425.2px" version="1.2" viewBox="0 0 446.33 425.2" xml:space="preserve"><metadata><rdf:RDF><cc:Work rdf:about=""><dc:format>image/svg+xml</dc:format><dc:type rdf:resource="http://purl.org/dc/dcmitype/StillImage"></dc:type><dc:title></dc:title></cc:Work></rdf:RDF></metadata>
<rect transform="matrix(-.7071 .7071 -.7071 -.7071 514.9 219.01)" x="-63.629" y="211.25" width="551.44" height="9.786" fill="#000000"></rect>

	<polygon points="116.62 81.094 109.7 81.094 111.46 105.39 118.92 112.85" fill="#000000"></polygon>
	<polygon points="120.5 134.68 113.04 127.22 125.06 293.05 131.51 286.6" fill="#000000"></polygon>
	<path d="m233.04 380.44c-0.825-2.225-1.485-4.521-1.928-6.899v-1e-3h7.072c-0.565-2.508-0.918-5.088-0.918-7.766 0-19.504 15.864-35.368 35.368-35.368 6.43 0 12.381 1.853 17.58 4.858l0.377-7.694c-1e-3 0-1e-3 -1e-3 -2e-3 -1e-3v-3e-3c-5.458-2.579-11.529-4.062-17.955-4.062-23.31 0-42.271 18.967-42.271 42.271 0 2.654 0.275 5.244 0.748 7.765h-93.296v-1e-3l-4.932-68.058-6.448 6.448 4.965 68.512h101.64s-1e-3 0 0-1e-3z" fill="#000000"></path>
	<path d="m300.96 117.15 7.27-7.27 0.356-7.221h6.865l6.902-6.902h-13.428l0.723-14.666h-6.912l-1.776 36.059zm5.319-21.393v6.902h-2e-3v-6.902h2e-3z" fill="#000000"></path>
	<path d="m291.66 305.84-1.071 21.73c1e-3 1e-3 1e-3 1e-3 2e-3 1e-3v3e-3 -1e-3c2.368 1.111 4.612 2.438 6.715 3.954v-1e-3l0.941-19.1-6.587-6.586z" fill="#000000"></path>
	<path d="m116.62 81.094h218.12v-12.94h-2.27c-1.898 2.912-4.848 5.095-8.327 6.005 3.479-0.91 6.427-3.093 8.324-6.004h-8.079l8e-3 -1e-3h-8e-3l3.393-0.633c-0.132-0.711-2.04-9.201-16.316-17.657-1.796 1.47-3.244 3.323-4.137 5.486 9.172 5.294 12.307 10.347 13.269 12.429-0.962-2.082-4.097-7.134-13.269-12.429-0.668 1.624-1.055 3.397-1.055 5.256 0 2.784 0.848 5.365 2.27 7.549 2.375 3.64 6.388 6.142 11.027 6.44-4.641-0.298-8.654-2.8-11.027-6.44h-155.83v-26.122l-20.703 7.325v-2.092l-1e-3 20.888h-25.435l-0.012 1e-3h-3.889v-1e-3h-12.935v12.94h26.876z" fill="#000000"></path>
	<path d="m186.36 50.038h57.799v-9.785c-2.234-0.162-4.535-0.31-6.899-0.432v3.315h-43.997v-3.396c-2.379 0.101-4.657 0.229-6.902 0.364v9.934z" fill="#000000"></path>
	<path d="m193.26 28.471h43.997v4.448c2.354 0.122 4.666 0.259 6.899 0.418v-11.767h-57.799v11.615c2.248-0.131 4.533-0.256 6.902-0.357v-4.357z" fill="#000000"></path>
	<path d="m152.72 31.06h-20.704v10.972c5.728-1.908 12.562-3.64 20.704-5.099v-5.873z" fill="#000000"></path>
	<path d="m106.58 68.154h2.983c-7e-3 -0.134-0.184-3.699 3.833-8.013 2.925-3.14 8.464-7.13 18.618-10.783v-7.325c-12.819 4.258-20.137 9.353-24.255 14.058-4.945 5.641-5.163 10.518-5.081 12.063h3.902z" fill="#000000"></path>
	<path d="m311.46 49.863c-11.85-7.022-32.266-14.015-67.305-16.525-2.234-0.159-4.545-0.297-6.899-0.418v6.9c2.364 0.122 4.665 0.27 6.899 0.432v1e-3c33.405 2.413 52.441 8.902 63.168 15.096 0.893-2.164 2.342-4.017 4.137-5.486z" fill="#000000"></path>
	<path d="m132.02 49.357c5.452-1.962 12.212-3.821 20.703-5.405 9.109-1.691 20.239-3.039 33.644-3.848v-1e-3c2.244-0.134 4.523-0.262 6.902-0.363v-6.911c-2.369 0.101-4.654 0.225-6.902 0.357-13.122 0.782-24.292 2.069-33.644 3.747-8.142 1.46-14.975 3.191-20.704 5.099h1e-3v7.325z" fill="#000000"></path>
	<polygon points="132.01 49.358 132.02 49.357 132.02 49.357" fill="#000000"></polygon>
	<path d="m327.78 67.52h-2e-3l-3.385 0.633h8.072l-1e-3 1e-3h1e-3c1.422-2.184 2.271-4.765 2.271-7.549 0-7.743-6.371-14.018-14.234-14.018-3.453 0-6.576 1.26-9.041 3.275 1e-3 0 1e-3 -1e-3 2e-3 -1e-3 14.278 8.46 16.186 16.951 16.317 17.659z" fill="#000000"></path>
	<rect x="138.05" y="381.3" width="20.704" height="23.293" fill="#000000"></rect>
	<path d="m297.3 331.52-0.424 8.635c6.813 6.451 11.119 15.515 11.119 25.615 0 19.506-15.865 35.371-35.369 35.371-14.258 0-26.5-8.526-32.092-20.705h2e-3c-1.008-2.197-1.817-4.494-2.359-6.9h-1e-3v1e-3h-7.072c0.442 2.379 1.103 4.676 1.929 6.899h-1e-3c1e-3 1e-3 1e-3 1e-3 1e-3 2e-3h-1e-3c5.981 16.087 21.448 27.603 39.595 27.603 23.31 0 42.271-18.965 42.271-42.271 0-14.094-6.963-26.567-17.6-34.252v1e-3c1e-3 0 1e-3 1e-3 2e-3 1e-3z" fill="#000000"></path>
	<path d="m296.88 340.16-2e-3 -2e-3 0.424-8.633c-2.104-1.516-4.347-2.843-6.715-3.954l-0.377 7.696c2.407 1.395 4.665 2.992 6.67 4.893z" fill="#000000"></path>
	<rect x="297.3" y="331.52" width=".001" height="0" fill="#000000"></rect>
	<path d="m272.63 385.19c4.826 0 9.187-1.826 12.584-4.744h-25.168c3.398 2.915 7.759 4.744 12.584 4.744z" fill="#000000"></path>
	<path d="m288.32 373.54 0.872-17.746c-3.397-5.627-9.513-9.428-16.565-9.428-10.719 0-19.41 8.693-19.41 19.408 0 2.765 0.598 5.386 1.638 7.766h-1e-3c1.18 2.689 2.99 5.014 5.189 6.9h25.168c4.145-3.559 6.826-8.774 6.826-14.666 0-3.666-1.076-7.057-2.845-9.98l-0.872 17.746z" fill="#000000"></path>
	<polygon points="331.29 130.27 308.09 130.27 299.9 138.46 292.61 286.53 299.19 293.12 306.88 137.17 306.27 137.17 306.27 137.17 306.88 137.17 338.19 137.17 338.19 100.17 331.29 107.07" fill="#000000"></polygon>
	<polygon points="186.36 165.64 186.36 148.38 253.65 148.38 253.65 164.46 260.55 157.56 260.55 141.48 179.46 141.48 179.46 172.54 245.57 172.54 252.47 165.64" fill="#000000"></polygon>

<rect transform="matrix(.7071 .7071 -.7071 .7071 214.96 -86.664)" x="-63.628" y="211.25" width="551.44" height="9.786" fill="#000000"></rect>
</svg>