<?xml version='1.0' encoding='utf-8'?>
<!-- Generator: Adobe Illustrator 16.0.0, SVG Export Plug-In . SVG Version: 6.00 Build 0)  --><svg xmlns="http://www.w3.org/2000/svg" xmlns:cc="http://creativecommons.org/ns#" xmlns:dc="http://purl.org/dc/elements/1.1/" xmlns:ns0="&amp;ns_sfw;" xmlns:rdf="http://www.w3.org/1999/02/22-rdf-syntax-ns#" width="841.89px" height="275px" enable-background="new 0 0 841.891 275" version="1.1" viewBox="0 0 841.89 275" xml:space="preserve">
<metadata>
	<rdf:RDF>
		<cc:Work rdf:about="">
			<dc:format>image/svg+xml</dc:format>
			<dc:type rdf:resource="http://purl.org/dc/dcmitype/StillImage"></dc:type>
			<dc:title></dc:title>
		</cc:Work>
	</rdf:RDF>
	<ns0:sfw>
		<ns0:slices></ns0:slices>
		<ns0:sliceSourceBounds x="3.702" y="202.313" width="833.596" height="202.687" bottomLeftOrigin="true"></ns0:sliceSourceBounds>
	</ns0:sfw>
</metadata>
<path d="m4.148 131.34c0-57.354 30.069-101.34 73.505-101.34 43.435 0 68.283 37.029 73.295 79.07h-37.587c-4.386-17.818-16.079-34.523-34.873-34.523-24.224 0-36.752 25.336-36.752 56.797 0 31.46 12.319 56.796 36.752 56.796 20.464 0 30.695-14.196 35.708-35.637h37.169c-4.385 41.205-29.025 80.184-74.548 80.184-43.435 0-72.669-43.987-72.669-101.34v-8e-3z" fill="#000000"></path>
<path d="m256.4 200.39h-65.151l-9.188 28.955h-36.752l65.15-196.01h29.233l64.316 196.01h-38.421l-9.187-28.955zm-12.531-38.978-20.047-63.202-20.047 63.202h40.094z" fill="#000000"></path>
<path d="m440.15 33.34v196.01h-21.716l-70.163-104.68v104.68h-35.917v-196.01h20.882l70.999 105.8v-105.8h35.915z" fill="#000000"></path>
<path d="m454.35 131.34c0-57.354 30.07-101.34 73.505-101.34 43.437 0 68.283 37.029 73.295 79.07h-37.587c-4.386-17.818-16.077-34.523-34.872-34.523-24.224 0-36.753 25.336-36.753 56.797 0 31.46 12.32 56.796 36.753 56.796 20.465 0 30.695-14.196 35.707-35.637h37.172c-4.388 41.205-29.026 80.184-74.55 80.184-43.435 0-72.67-43.987-72.67-101.34v-8e-3z" fill="#000000"></path>
<path d="m722.47 185.91v43.434h-105.24v-196.01h103.57v43.434h-67.657v34.523h60.142v40.092h-60.142v34.523h69.328l-1e-3 4e-3z" fill="#000000"></path>
<path d="m837.74 185.91v43.434h-98.563v-196.01h35.917v152.57h62.646v5e-3z" fill="#000000"></path>
</svg>