<?xml version='1.0' encoding='utf-8'?>
<!-- Generator: Adobe Illustrator 16.0.0, SVG Export Plug-In . SVG Version: 6.00 Build 0)  --><svg xmlns="http://www.w3.org/2000/svg" xmlns:cc="http://creativecommons.org/ns#" xmlns:ns="&amp;ns_sfw;" xmlns:rdf="http://www.w3.org/1999/02/22-rdf-syntax-ns#" xmlns:dc="http://purl.org/dc/elements/1.1/" width="494px" height="443px" enable-background="new 0 0 494 443" version="1.1" viewBox="0 0 494 443" xml:space="preserve">
<metadata>
	<ns:sfw>
		<ns:slices></ns:slices>
		<ns:sliceSourceBounds x="217.85" y="123.514" width="403.748" height="353.973" bottomLeftOrigin="true"></ns:sliceSourceBounds>
	</ns:sfw>
<rdf:RDF><cc:Work rdf:about=""><dc:format>image/svg+xml</dc:format><dc:type rdf:resource="http://purl.org/dc/dcmitype/StillImage"></dc:type><dc:title></dc:title></cc:Work></rdf:RDF></metadata>
	<path d="m45.206 354.08-0.856-61.354 2.146-61.143 2.789-16.305 6.221-14.16 9.227-13.086 42.263-44.622 44.192-42.906 45.693-40.332 12.872-8.152 14.588-6.222 15.66-2.36 82.165-1.931 82.381 1.716 9.011 1.073 8.581 3.432 7.723 4.935 6.438 6.221 4.72 7.294 3.003 9.01 1.287 9.01 2.789 135.15-3.004 135.15-1.501 10.729-4.507 10.082-6.438 8.15-8.796 6.438-10.083 4.289-10.729 1.287h-315.57l-10.727-1.287-10.083-4.289-8.367-6.438-7.08-8.363-4.291-10.084-1.714-10.938zm357.83 13.086 6.865-1.93 5.148-4.938 1.932-6.648 1.716-46.123 1.072-46.34-2.357-5.148-4.937-1.93h-129.14v42.262h28.529l-55.134 56.637-54.92-56.637h28.531v-42.262h-149.95l-5.148 1.93-1.932 4.721-0.857 46.555 0.857 46.125 1.716 6.861 5.578 4.938 6.863 1.932h315.57v-5e-3zm-317.29-160.25-2.573 4.505-0.216 4.72 2.146 4.938 3.861 3.217 5.361 1.287h22.313l49.983-51.917 53.418-49.342 7.725-5.363 8.796-3.647 9.653-1.716 86.024-1.287 86.026 1.931-0.43-14.802-0.646-14.159-1.287-5.363-3.003-4.291-4.076-3.003-5.146-1.287-81.521-1.287-80.877 1.501-13.945 3.003-12.229 7.08-44.837 39.902-42.905 41.619-41.615 43.761zm197.58-9.438h28.529l-55.134-56.636-54.92 56.636h28.531v49.559h52.989l5e-3 -49.559z" fill="#FFCE63"></path>
</svg>