<?xml version='1.0' encoding='utf-8'?>
<!-- Generator: Adobe Illustrator 16.0.3, SVG Export Plug-In . SVG Version: 6.00 Build 0)  --><svg xmlns="http://www.w3.org/2000/svg" xmlns:cc="http://creativecommons.org/ns#" xmlns:dc="http://purl.org/dc/elements/1.1/" xmlns:rdf="http://www.w3.org/1999/02/22-rdf-syntax-ns#" width="712.6px" height="425.2px" enable-background="new 0 0 712.602 425.197" version="1.1" viewBox="0 0 712.6 425.2" xml:space="preserve"><metadata><rdf:RDF><cc:Work rdf:about=""><dc:format>image/svg+xml</dc:format><dc:type rdf:resource="http://purl.org/dc/dcmitype/StillImage"></dc:type><dc:title></dc:title></cc:Work></rdf:RDF></metadata>
<g clip-rule="evenodd" fill-rule="evenodd">
	<polygon points="176.12 340.16 176.12 56.693 14.171 198.47" fill="#000000"></polygon>
	<polygon points="342.54 340.16 342.54 56.693 180.59 198.47" fill="#000000"></polygon>
</g>

	<path d="m513.14 105.69v207.51h-21.195v-181.29l-56.621 29.191-9.48-14.781 74.094-40.629h13.202z" fill="#000000"></path>
	<path d="m698.43 249.6c0 35.887-27.984 67.123-75.492 67.123-28.355 0-49.832-9.109-66.379-28.82l13.016-15.061c13.293 15.619 29.75 24.451 52.805 24.451 30.309 0 53.645-18.502 53.645-47.508 0-28.541-21.848-48.902-55.129-48.902-16.27 0-33.656 4.742-47.789 18.593l-10.598-12.642 13.203-101.15h111.19v19.432h-94.086l-9.391 67.775c10.598-7.346 23.336-11.529 39.512-11.529 45.089 1e-3 75.492 29.009 75.492 68.24z" fill="#000000"></path>

</svg>