<?xml version='1.0' encoding='utf-8'?>
<!-- Generator: Adobe Illustrator 16.0.0, SVG Export Plug-In . SVG Version: 6.00 Build 0)  --><svg xmlns="http://www.w3.org/2000/svg" xmlns:cc="http://creativecommons.org/ns#" xmlns:dc="http://purl.org/dc/elements/1.1/" xmlns:ns0="&amp;ns_sfw;" xmlns:rdf="http://www.w3.org/1999/02/22-rdf-syntax-ns#" width="336px" height="429px" enable-background="new 0 0 336 429" version="1.1" viewBox="0 0 336 429" xml:space="preserve">
<metadata>
	<rdf:RDF>
		<cc:Work rdf:about="">
			<dc:format>image/svg+xml</dc:format>
			<dc:type rdf:resource="http://purl.org/dc/dcmitype/StillImage"></dc:type>
			<dc:title></dc:title>
		</cc:Work>
	</rdf:RDF>
	<ns0:sfw>
		<ns0:slices></ns0:slices>
		<ns0:sliceSourceBounds x="302.079" y="123.114" width="234.745" height="368.506" bottomLeftOrigin="true"></ns0:sliceSourceBounds>
	</ns0:sfw>
</metadata>
<path d="m67.3 119.72c0-13.737 2.609-26.618 7.832-38.644 5.222-12.021 12.331-22.532 21.331-31.533 8.998-8.997 19.544-16.108 31.637-21.331 12.09-5.22 25.006-7.832 38.748-7.832 13.736 0 26.654 2.612 38.746 7.832 12.09 5.223 22.672 12.334 31.738 21.331 9.068 9.001 16.213 19.512 21.436 31.533 5.221 12.025 7.832 24.906 7.832 38.644v63.684h3.092c4.123 0 7.59 1.443 10.408 4.328 2.813 2.887 4.225 6.254 4.225 10.1v73.578c0 16.213-3.162 31.465-9.479 45.754-6.322 14.291-14.84 26.725-25.559 37.303-10.717 10.58-23.186 18.961-37.404 25.146-14.223 6.182-29.234 9.272-45.033 9.272-16.076 0-31.226-3.129-45.445-9.379-14.221-6.252-26.657-14.735-37.303-25.453-10.65-10.717-19.064-23.186-25.248-37.405-6.185-14.222-9.274-29.3-9.274-45.238v-73.577c0-4.122 1.407-7.556 4.226-10.306 2.814-2.746 6.354-4.121 10.613-4.121h2.887v-63.686h-6e-3zm193.53 151.69v-64.508h-187.96v64.508c0 12.777 2.505 24.871 7.522 36.272 5.014 11.406 11.777 21.402 20.301 29.986 8.518 8.59 18.478 15.355 29.884 20.301 11.403 4.947 23.495 7.42 36.272 7.42 12.641 0 24.662-2.473 36.068-7.42 11.402-4.944 21.396-11.676 29.986-20.196 8.584-8.519 15.387-18.479 20.402-29.886 5.017-11.401 7.525-23.56 7.525-36.477zm-170.03-88.003h152.31v-63.685c0-10.44-1.992-20.265-5.977-29.472-3.986-9.203-9.447-17.276-16.387-24.216-6.938-6.937-15.045-12.398-24.316-16.385-9.275-3.984-19.135-5.977-29.576-5.977-10.443 0-20.271 1.993-29.474 5.977-9.207 3.987-17.278 9.448-24.217 16.385-6.938 6.94-12.399 15.013-16.386 24.216-3.986 9.207-5.978 19.032-5.978 29.472v63.685h1e-3z" fill="#000000"></path>
<path d="m166.95 338.81c-6.351 0-11.5-5.147-11.5-11.5v-76.334c0-6.352 5.149-11.5 11.5-11.5 6.353 0 11.499 5.148 11.499 11.5v76.334c0 6.352-5.146 11.5-11.499 11.5z" fill="#000000"></path>
</svg>