<?xml version='1.0' encoding='utf-8'?>
<!-- Generator: Adobe Illustrator 27.2.0, SVG Export Plug-In . SVG Version: 6.00 Build 0)  --><svg xmlns:cc="http://creativecommons.org/ns#" xmlns="http://www.w3.org/2000/svg" xmlns:rdf="http://www.w3.org/1999/02/22-rdf-syntax-ns#" xmlns:dc="http://purl.org/dc/elements/1.1/" xmlns:xlink="http://www.w3.org/1999/xlink" version="1.2" baseProfile="tiny" id="Vrstva_1" x="0px" y="0px" viewBox="0 0 400 425.2" overflow="visible" xml:space="preserve" width="376.2935" height="400.0">
<g>
	<path fill="#C73B24" d="M105.6,318.7l41.7-38.8c5.8-4.8,5.8-13.6,1-19.4s-13.6-5.8-19.4-1l-41.7,38.8l-39.7-40.7   c-4.8-5.8-13.6-5.8-19.4,0s-5.8,13.6,0,19.4l38.8,40.7l-41.7,38.8c-5.8,4.8-5.8,13.6-1,19.4c2.9,2.9,6.8,3.9,9.7,3.9s6.8-1,9.7-3.9   l41.7-38.8l39.7,41.7c2.9,2.9,5.8,3.9,9.7,3.9s6.8-1,9.7-3.9c5.8-4.8,5.8-13.6,0-19.4L105.6,318.7z"></path>
	<path d="M220.9,42.5c-87.2,0-157,70.7-157,157c0,22.3,4.8,43.6,13.6,63l29.1-15.5l6.8-8.7V215l-32-20.4   c2.9-68.8,54.3-124,121.1-132.8v16.5l-22.3,17.4l11.6,10.7H220l24.2,14.5l13.6,5.8l9.7,24.2l-8.7-12.6L200.6,122h-20.4l-32.9,35.9   v20.4l16.5,16.5h35.9l1,2.9h1v1l12.6,72.7l8.7,8.7l29.1-8.7l19.4-32v-32l22.3-22.3l-27.1-33.9l16.5,7.8l19.4,6.8v-10.7l-17.4-11.6   l23.3,1l29.1,22.3v14.5l20.4-9.7c1.9,9.7,3.9,20.4,3.9,30c0,77.5-63,139.6-139.6,139.6l0,0c-23.3,0-45.5-5.8-64-15.5l-5.8,16.5   c21.3,10.7,44.6,16.5,69.8,16.5c87.2,0,157-70.7,157-157C378.9,113.3,308.1,42.5,220.9,42.5L220.9,42.5z"></path>
	<polygon points="267.4,288.7 274.2,302.2 280,287.7 274.2,273.2  "></polygon>
</g>
</svg>