<?xml version='1.0' encoding='utf-8'?>
<!-- Generator: Adobe Illustrator 16.0.0, SVG Export Plug-In . SVG Version: 6.00 Build 0)  --><svg xmlns="http://www.w3.org/2000/svg" xmlns:cc="http://creativecommons.org/ns#" xmlns:rdf="http://www.w3.org/1999/02/22-rdf-syntax-ns#" xmlns:ns0="&amp;ns_sfw;" xmlns:dc="http://purl.org/dc/elements/1.1/" width="498px" height="425.2px" enable-background="new 0 0 498 425.2" version="1.1" viewBox="0 0 498 425.2" xml:space="preserve">
<metadata>
	<rdf:RDF>
		<cc:Work rdf:about="">
			<dc:format>image/svg+xml</dc:format>
			<dc:type rdf:resource="http://purl.org/dc/dcmitype/StillImage"></dc:type>
			<dc:title></dc:title>
		</cc:Work>
	</rdf:RDF>
	<ns0:sfw>
		<ns0:slices></ns0:slices>
		<ns0:sliceSourceBounds x="192.439" y="166.401" width="457.943" height="275.128" bottomLeftOrigin="true">
			</ns0:sliceSourceBounds>
	</ns0:sfw>
	<ns0:sfw>
		<ns0:slices></ns0:slices>
		<ns0:sliceSourceBounds x="185.503" y="169.941" width="471.819" height="283.464" bottomLeftOrigin="true">
			</ns0:sliceSourceBounds>
	</ns0:sfw>
	<ns0:sfw>
		<ns0:slices></ns0:slices>
		<ns0:sliceSourceBounds x="184.683" y="169.942" width="471.817" height="283.465" bottomLeftOrigin="true"></ns0:sliceSourceBounds>
	</ns0:sfw>
</metadata>
<path d="m219.66 191.44v-119.67h24.359v99.337h60.577v20.327h-84.936l-1e-3 4e-3v2e-3z" fill="#51F093"></path>
<path d="m321.22 191.44v-120.65h24.362v120.65h-24.362z" fill="#51F093"></path>
<path d="m368.46 191.44v-120.65h36.461l21.893 82.301 21.646-82.301h36.542v120.65h-22.634v-94.978l-23.949 94.977h-23.458l-23.868-94.977v94.977l-22.633 1e-3z" fill="#51F093"></path>
<path d="m196.27 199.43c-2.688-2.383-5.863-4.258-9.522-5.603-3.664-1.345-7.506-2.016-11.54-2.016h-1.122c-1.046 0-2.126 0.109-3.246 0.335-1.123 0.224-2.654 0.861-4.594 1.906l-34.4-39.281-22.744-2.171 4.706 20.841 36.302 36.529c0 1.19-0.374 2.684-1.121 4.481-0.751 1.793-1.122 3.288-1.122 4.479 0 4.033 0.786 7.733 2.354 11.095 1.566 3.36 3.621 6.274 6.161 8.735 2.539 2.469 5.451 4.37 8.737 5.715 3.284 1.349 6.645 2.017 10.083 2.017 4.033 0 7.877-0.668 11.54-2.017 3.66-1.345 6.835-3.246 9.521-5.715 2.689-2.464 4.854-5.377 6.501-8.735 1.645-3.364 2.467-7.062 2.467-11.097 0-4.032-0.822-7.69-2.467-10.977-1.64-3.288-3.804-6.126-6.494-8.521z" fill="#51F093"></path>
<path d="m175.2 56.693c-14.789 0-29.097 1.942-42.91 5.825-13.82 3.885-26.704 9.377-38.657 16.47-11.954 7.098-22.896 15.573-32.828 25.434-9.938 9.86-18.415 20.805-25.435 32.829-7.024 12.025-12.477 24.95-16.358 38.765-3.887 13.821-5.827 28.123-5.827 42.91 0 10.014 1.082 20.095 3.25 30.251 2.164 10.16 4.488 19.771 7.955 28.458 3.772 9.461 7.465 15.422 11.55 21.896 15.091 23.916 30.28 38.979 31.923 40.624l40.412-40.411-12.625-12.249-23.305 22.858c-10.308-11.653-18.676-24.164-25.095-37.537-6.424-13.37-10.236-28.195-11.43-44.479h36.524v-18.375h-36.524c1.191-16.287 5.002-31.598 11.43-45.94 6.418-14.342 14.79-27.113 25.095-38.318l23.305 24.648 13.444-11.427-25.094-24.875c11.351-10.307 24.198-18.297 38.541-23.976 14.344-5.676 29.652-9.111 45.938-10.308v34.283h15.907v-34.279c5.409 0.371 10.614 0.982 15.658 1.781v-23.04c-8.1-1.197-16.376-1.818-24.844-1.818z" fill="#51F093"></path>
<path d="m314.58 209.96h-34.281v18.375h34.281c0 16.283-3.139 31.481-9.412 45.602-6.274 14.117-14.565 27.002-24.876 38.654l-24.875-25.093-11.429 11.429 41.008 41.231c19.246-17.272 36-43.06 43.473-61.063 7.468-18 11.204-38.059 11.204-60.168 0-5.683-0.285-11.274-0.848-16.786h-24.507c0.17 2.568 0.262 5.176 0.262 7.819z" fill="#51F093"></path>
</svg>