<?xml version='1.0' encoding='utf-8'?>
<!-- Generator: Adobe Illustrator 16.0.0, SVG Export Plug-In . SVG Version: 6.00 Build 0)  --><svg xmlns="http://www.w3.org/2000/svg" xmlns:cc="http://creativecommons.org/ns#" xmlns:dc="http://purl.org/dc/elements/1.1/" xmlns:ns="&amp;ns_sfw;" xmlns:rdf="http://www.w3.org/1999/02/22-rdf-syntax-ns#" width="228px" height="425.2px" version="1.2" viewBox="0 0 228 425.2" xml:space="preserve">
<metadata>
	<ns:sfw>
		<ns:slices></ns:slices>
		<ns:sliceSourceBounds x="321.518" y="158.46" width="198.425" height="278.08" bottomLeftOrigin="true"></ns:sliceSourceBounds>
	</ns:sfw>
<rdf:RDF><cc:Work rdf:about=""><dc:format>image/svg+xml</dc:format><dc:type rdf:resource="http://purl.org/dc/dcmitype/StillImage"></dc:type><dc:title></dc:title></cc:Work></rdf:RDF></metadata>
<path d="m206.83 183.84c-4.388-12.763-10.841-25.713-19.356-38.809-4.483-6.903-9.488-13.663-14.99-20.258-5.503-6.594-11.362-12.88-17.602-18.858-6.238-5.954-12.763-11.552-19.595-16.818-6.806-5.218-13.782-9.987-20.898-14.28-1.685-0.854-3.368-1.258-5.028-1.258-1.899 0-3.629 0.474-5.196 1.424-5.976 3.772-11.883 8.136-17.766 13.118-5.859 4.958-11.577 10.366-17.127 16.178-5.574 5.812-10.841 11.956-15.894 18.455-5.028 6.5-9.582 13.142-13.663 19.949-2.941 4.935-5.882 10.319-8.8 16.178-2.941 5.859-5.599 12.098-7.948 18.693-2.372 6.594-4.269 13.498-5.741 20.661-1.47 7.212-2.205 14.566-2.205 22.108 0 2.372 0.096 4.839 0.237 7.305 0.167 2.42 0.45 4.887 0.854 7.259 0.638 4.648 1.706 9.44 3.225 14.374 1.52 4.982 3.677 10.011 6.429 15.087 2.799 5.125 6.238 10.105 10.391 15.087 4.127 4.982 9.203 9.821 15.229 14.471 6.026 4.648 13.021 9.014 20.992 13.095 7.948 4.078 17.104 7.827 27.468 11.147 0.215 5.884 0.429 11.387 0.642 16.605 0.212 5.171 0.569 9.962 1.09 14.374 0.096 1.044 0.427 1.708 0.948 2.041 0.521 0.283 1.209 0.473 2.041 0.473 1.684 0 3.7-0.283 6.072-0.806 2.35-0.521 4.271-0.76 5.74-0.76 1.141 0 2.23 0.049 3.298 0.238 1.044 0.143 1.993 0.237 2.822 0.237 1.163 0 1.97-0.237 2.443-0.665 0.475-0.428 0.713-1.28 0.713-2.656-0.521-4.271-0.997-8.918-1.424-13.9-0.402-4.981-0.83-10.295-1.257-15.941 12.904-3.652 24.1-7.923 33.588-12.81 9.49-4.886 17.601-10.105 24.314-15.704 6.714-5.598 12.194-11.384 16.439-17.363 4.246-5.978 7.542-11.908 9.914-17.838 2.349-5.93 3.962-11.671 4.888-17.175 0.878-5.598 1.328-10.721 1.328-15.419 3e-3 -12.047-2.225-24.43-6.615-37.239zm-37.384 40.138c-0.617 1.421-1.472 2.94-2.516 4.553-1.043 1.659-2.229 3.272-3.533 4.885-1.307 1.613-2.635 3.179-4.011 4.65-1.874 1.85-3.748 3.842-5.575 5.883-1.824 2.04-4.103 4.316-6.831 6.831s-6.072 5.409-10.058 8.729c-3.985 3.273-8.943 7.116-14.922 11.528-0.402 0.332-1.161 0.665-2.205 1.092 0.215 4.411 0.475 8.729 0.783 12.999 0.332 4.223 1.755 28.797 1.968 32.782h-21.773c0-4.175-1.163-28.988-1.163-33.447 0-4.46 0.048-9.014 0.167-13.758-5.978-3.747-11.008-7.068-15.087-9.868-4.079-2.847-7.543-5.361-10.391-7.543-2.799-2.183-5.217-4.175-7.21-5.978-1.995-1.804-3.987-3.56-5.98-5.362-1.565-1.327-3.083-2.799-4.555-4.363-1.469-1.565-2.799-3.131-3.985-4.649-1.234-1.519-2.157-2.942-2.845-4.318-0.688-1.374-1.021-2.607-1.021-3.747 0-1.992 0.381-3.511 1.115-4.507 0.713-0.996 1.661-1.472 2.824-1.472 1.351 0 2.846 0.476 4.482 1.424 1.613 0.901 3.156 1.944 4.627 3.131 4.175 3.321 7.756 6.168 10.674 8.492 2.918 2.276 5.741 4.317 8.398 6.12 2.679 1.756 5.48 3.416 8.421 4.935 2.918 1.517 6.547 3.226 10.841 5.123 0.212-4.744 0.332-9.441 0.379-14.139 0.048-4.744 0.142-9.535 0.237-14.469-5.338-3.131-9.796-5.834-13.354-8.113-3.56-2.23-6.595-4.271-9.111-6.121-2.514-1.802-4.648-3.463-6.428-4.933-1.778-1.472-3.51-2.943-5.194-4.413-1.257-1.044-2.539-2.184-3.842-3.463-1.305-1.233-2.491-2.467-3.535-3.701-1.044-1.186-1.899-2.348-2.516-3.439-0.64-1.09-0.949-2.112-0.949-3.06 0-1.588 0.332-2.799 1.02-3.7 0.688-0.878 1.542-1.329 2.586-1.329 1.163 0 2.466 0.38 3.938 1.091 1.47 0.736 2.774 1.565 3.913 2.514 3.583 2.728 6.643 5.052 9.205 6.997 2.562 1.946 5.053 3.631 7.473 5.101 2.395 1.472 4.957 2.847 7.685 4.129 2.729 1.232 5.979 2.514 9.751 3.89 0.188-5.028 0.332-10.057 0.427-15.087 0.094-5.028 0.238-10.105 0.427-15.228-3.345-1.993-6.167-3.724-8.469-5.194-2.301-1.472-4.246-2.775-5.812-3.915-1.565-1.162-2.943-2.207-4.081-3.155-1.161-0.949-2.253-1.827-3.295-2.657-1.59-1.589-3.06-3.132-4.484-4.625-1.423-1.542-2.111-2.872-2.111-4.033 0-2.087 0.713-3.131 2.184-3.131 0.734 0 1.518 0.261 2.347 0.782 0.854 0.523 1.685 1.044 2.539 1.566 2.276 1.779 4.246 3.251 5.882 4.389 1.615 1.162 3.179 2.206 4.721 3.154 1.52 0.95 3.108 1.803 4.792 2.587 1.662 0.783 3.7 1.659 6.12 2.609 0.214-5.978 0.404-11.884 0.546-17.672 0.167-5.835 0.356-11.719 0.546-17.697 0.119-2.609 0.665-4.839 1.659-6.665 0.973-1.827 2.751-2.752 5.267-2.752 2.703 0 4.507 0.878 5.336 2.609 0.832 1.708 1.257 3.89 1.257 6.5 0 5.977-0.094 11.86-0.237 17.671-0.165 5.812-0.235 11.719-0.235 17.672 2.086-1.138 3.985-2.348 5.645-3.604 1.684-1.259 3.581-2.872 5.67-4.863 1.138-1.044 2.42-2.278 3.843-3.701 1.422-1.4 2.846-2.111 4.317-2.111 0.64 0 1.186 0.332 1.659 1.02 0.474 0.665 0.688 1.424 0.688 2.277 0 2.087-1.826 5.006-5.479 8.706-3.675 3.724-9.134 8.255-16.342 13.592v15.085c0 4.934 0.094 9.893 0.307 14.92 2.94-1.472 5.525-2.799 7.78-4.08 2.254-1.234 4.342-2.515 6.285-3.843 1.922-1.28 3.866-2.728 5.812-4.246s4.105-3.32 6.523-5.409c0.83-0.736 1.756-1.637 2.752-2.68 0.974-1.043 2.065-2.064 3.227-3.06 1.138-0.997 2.276-1.85 3.439-2.585 1.163-0.76 2.303-1.115 3.464-1.115 1.042 0 1.92 0.498 2.655 1.493 0.736 0.996 1.117 2.229 1.117 3.701 0 1.351-0.309 2.491-0.879 3.462-0.569 0.925-1.424 2.088-2.587 3.439-2.087 2.729-4.031 5.148-5.812 7.235-1.779 2.089-3.985 4.365-6.595 6.833-2.609 2.467-6.001 5.265-10.128 8.397-4.15 3.132-9.679 7.069-16.582 11.813 0.215 5.123 0.404 10.104 0.546 14.991 0.167 4.887 0.356 9.678 0.569 14.375 3.867-1.992 7.214-3.844 10.036-5.503 2.822-1.66 5.455-3.369 7.853-5.125 2.418-1.707 4.814-3.559 7.162-5.503 2.349-1.897 4.958-4.222 7.758-6.974 0.948-1.043 1.99-2.229 3.153-3.511 1.141-1.327 2.397-2.562 3.7-3.699 1.305-1.14 2.657-2.135 4.081-2.942 1.422-0.759 2.752-1.14 4.009-1.14 1.138 0 2.111 0.521 2.893 1.613 0.784 1.14 1.187 2.563 1.187 4.365 0 1.049-0.333 2.236-0.949 3.662z" fill="#000000"></path>
</svg>