<?xml version='1.0' encoding='utf-8'?>
<!-- Generator: Adobe Illustrator 16.0.0, SVG Export Plug-In . SVG Version: 6.00 Build 0)  --><svg xmlns="http://www.w3.org/2000/svg" xmlns:cc="http://creativecommons.org/ns#" xmlns:dc="http://purl.org/dc/elements/1.1/" xmlns:ns0="&amp;ns_sfw;" xmlns:rdf="http://www.w3.org/1999/02/22-rdf-syntax-ns#" width="615px" height="595.28px" enable-background="new 0 0 615 595.281" version="1.1" viewBox="0 0 615 595.28" xml:space="preserve">
<metadata>
	<rdf:RDF>
		<cc:Work rdf:about="">
			<dc:format>image/svg+xml</dc:format>
			<dc:type rdf:resource="http://purl.org/dc/dcmitype/StillImage"></dc:type>
			<dc:title></dc:title>
		</cc:Work>
	</rdf:RDF>
	<ns0:sfw>
		<ns0:slices></ns0:slices>
		<ns0:sliceSourceBounds x="162.902" y="46.881" width="511.098" height="510.236" bottomLeftOrigin="true"></ns0:sliceSourceBounds>
	</ns0:sfw>
</metadata>
<path d="m49.902 293.28c0-23.414 3.041-46.016 9.138-67.811 6.091-21.796 14.654-42.119 25.698-60.961 11.038-18.845 24.364-36.071 39.976-51.683 15.603-15.602 32.835-28.928 51.68-39.97 18.848-11.039 39.119-19.603 60.818-25.697 21.7-6.089 44.255-9.137 67.669-9.137 23.409 0 46.018 3.049 67.817 9.137 21.792 6.094 42.151 14.658 61.1 25.697 18.938 11.042 36.21 24.368 51.823 39.97 15.607 15.612 28.983 32.838 40.122 51.683 11.137 18.842 19.789 39.165 25.979 60.961 6.18 21.795 9.278 44.397 9.278 67.811 0 23.415-3.1 45.972-9.278 67.67-6.189 21.701-14.843 41.972-25.979 60.822-11.139 18.843-24.515 36.021-40.122 51.53-15.613 15.518-32.885 28.841-51.823 39.976-18.947 11.136-39.308 19.748-61.1 25.841-21.801 6.088-44.408 9.138-67.817 9.138-23.414 0-45.969-3.05-67.669-9.138-21.7-6.093-41.971-14.705-60.818-25.841-18.844-11.135-36.076-24.458-51.68-39.976-15.611-15.511-28.938-32.688-39.976-51.53-11.043-18.852-19.605-39.121-25.698-60.822-6.097-21.702-9.138-44.255-9.138-67.67zm40.263 0c0 19.609 2.566 38.597 7.706 56.966s12.374 35.501 21.701 51.394c9.324 15.893 20.561 30.409 33.692 43.541 13.138 13.137 27.649 24.412 43.545 33.838 15.893 9.418 32.978 16.7 51.25 21.84 18.277 5.138 37.31 7.711 57.111 7.711 19.983 0 39.161-2.573 57.53-7.711 18.369-5.14 35.549-12.422 51.533-21.84 15.99-9.426 30.503-20.701 43.545-33.838 13.04-13.136 24.227-27.648 33.551-43.541 9.32-15.893 16.56-32.979 21.699-51.252 5.135-18.273 7.711-37.309 7.711-57.107 0-19.791-2.576-38.925-7.711-57.39-5.141-18.461-12.379-35.645-21.699-51.54-9.324-15.894-20.511-30.408-33.551-43.54-13.042-13.138-27.555-24.365-43.545-33.696-15.984-9.321-33.164-16.559-51.533-21.698-18.369-5.14-37.547-7.709-57.53-7.709-19.804 0-38.836 2.569-57.111 7.709-18.273 5.138-35.357 12.374-51.25 21.698-15.896 9.331-30.407 20.558-43.545 33.696-13.132 13.134-24.368 27.648-33.692 43.54-9.327 15.895-16.56 33.078-21.701 51.54-5.14 18.464-7.706 37.597-7.706 57.389zm382.6 19.99h-147.05v147.05h-40.542v-147.05h-147.05v-40.546h147.05v-147.05h40.542v147.05h147.05v40.546z" fill="#000000"></path>
</svg>