<?xml version='1.0' encoding='utf-8'?>
<!-- Generator: Adobe Illustrator 16.0.3, SVG Export Plug-In . SVG Version: 6.00 Build 0)  --><svg xmlns="http://www.w3.org/2000/svg" xmlns:cc="http://creativecommons.org/ns#" xmlns:dc="http://purl.org/dc/elements/1.1/" xmlns:rdf="http://www.w3.org/1999/02/22-rdf-syntax-ns#" width="598.57px" height="425.2px" version="1.2" viewBox="0 0 598.57 425.2" xml:space="preserve"><metadata><rdf:RDF><cc:Work rdf:about=""><dc:format>image/svg+xml</dc:format><dc:type rdf:resource="http://purl.org/dc/dcmitype/StillImage"></dc:type><dc:title></dc:title></cc:Work></rdf:RDF></metadata>
<g fill-rule="evenodd">
	<polygon points="310.29 122 26.257 122 168.28 256.29" fill="#000000"></polygon>
	<polygon points="322.38 326.4 322.38 133.9 168.28 279.4 14.173 133.9 14.173 326.4 107.91 250.49 120.61 262.1 24.223 340.16 312.32 340.16 215.93 262.1 228.63 250.5" fill="#000000"></polygon>
</g>
<path d="m581.78 129.2c-1.242-30.913-10.898-42.117-42.127-50.41-124.7-33.194-316.98-28.495-439.96 10.752-13.496 4.301-22.821 8.959-29.018 15.441h261.04v16.696c29.467-0.553 58.95-0.449 88.444 0.322 10.754 0.28 19.836 7.595 22.55 18.648l10.037 41.153 131.66 12.819-2.617-65.421z" fill-rule="evenodd" fill="#000000"></path>
</svg>