<?xml version='1.0' encoding='utf-8'?>
<!-- Generator: Adobe Illustrator 16.0.0, SVG Export Plug-In . SVG Version: 6.00 Build 0)  --><svg xmlns="http://www.w3.org/2000/svg" xmlns:cc="http://creativecommons.org/ns#" xmlns:dc="http://purl.org/dc/elements/1.1/" xmlns:ns="&amp;ns_sfw;" xmlns:rdf="http://www.w3.org/1999/02/22-rdf-syntax-ns#" width="326px" height="439px" version="1.2" viewBox="0 0 326 439" xml:space="preserve">
<metadata>
	<rdf:RDF>
		<cc:Work rdf:about="">
			<dc:format>image/svg+xml</dc:format>
			<dc:type rdf:resource="http://purl.org/dc/dcmitype/StillImage"></dc:type>
			<dc:title></dc:title>
		</cc:Work>
	</rdf:RDF>
	<ns:sfw>
		<ns:slices></ns:slices>
		<ns:sliceSourceBounds x="278.849" y="181.631" width="283.303" height="283.467" bottomLeftOrigin="true"></ns:sliceSourceBounds>
	</ns:sfw>
</metadata>
<path d="m204.89 115.4c0-19.976 16.293-36.268 36.27-36.268s36.268 16.292 36.268 36.268c0 19.975-16.291 36.267-36.268 36.267s-36.27-16.292-36.27-36.267zm99.765 7.193v-14.386l-12.951-1.768c-1.328-7.485-4.283-14.417-8.49-20.417l7.934-10.436-10.178-10.173-10.434 7.93c-6-4.208-12.932-7.161-20.418-8.489l-1.768-12.952h-14.386l-1.77 12.953c-7.484 1.328-14.416 4.281-20.416 8.488l-10.438-7.931-10.174 10.172 7.932 10.438c-4.207 6-7.158 12.931-8.486 20.416l-12.955 1.768v14.386l12.955 1.768c1.328 7.484 4.279 14.416 8.486 20.416l-7.932 10.438 10.174 10.173 10.438-7.932c6 4.207 12.932 7.161 20.416 8.488l1.77 12.955h14.387l1.768-12.955c7.486-1.328 14.418-4.282 20.418-8.489l10.434 7.93 10.178-10.172-7.934-10.437c4.207-6 7.164-12.932 8.49-20.416l12.95-1.766z" fill="#000000"></path>
<path d="m100.26 177.82c30.713-12.723 65.925 1.863 78.646 32.576 12.723 30.715-1.861 65.926-32.576 78.646-30.715 12.723-65.924-1.863-78.646-32.576s1.862-65.924 32.576-78.646zm106.24 37.243 18.732-10.933-9.141-22.06-20.975 5.514c-6.795-10.669-15.721-19.439-25.98-25.975l5.518-20.978-22.063-9.137-10.934 18.731c-11.875-2.633-24.39-2.744-36.736-2e-3l-10.93-18.729-22.061 9.137 5.514 20.974c-10.669 6.793-19.438 15.721-25.974 25.978l-20.979-5.517-9.139 22.062 18.736 10.937c-2.633 11.873-2.743 24.389-2e-3 36.733l-18.731 10.934 9.138 22.061 20.979-5.516c6.793 10.668 15.72 19.438 25.977 25.973l-5.516 20.98 22.062 9.139 10.934-18.736c11.873 2.631 24.387 2.742 36.734 2e-3l10.935 18.734 22.062-9.139-5.518-20.978c10.668-6.793 19.439-15.721 25.977-25.979l20.977 5.516 9.141-22.061-18.734-10.933c2.626-11.87 2.739-24.385-3e-3 -36.732z" fill="#000000"></path>
</svg>