<?xml version='1.0' encoding='utf-8'?>
<!-- Generator: Adobe Illustrator 27.2.0, SVG Export Plug-In . SVG Version: 6.00 Build 0)  --><svg xmlns="http://www.w3.org/2000/svg" xmlns:xlink="http://www.w3.org/1999/xlink" version="1.2" baseProfile="tiny" id="Vrstva_1" x="0px" y="0px" viewBox="0 0 793.7 400" overflow="visible" xml:space="preserve" width="793.7" height="400.0">
<g>
	<path fill="#BCB9B8" d="M107.1,366.7H2.9l57.4-125.6h87.6L107.1,366.7z M15.8,358.3H101l35.3-109H65.6L15.8,358.3z M159.8,204.3   H76.9l42.4-92.4h70.9L159.8,204.3z M90,195.9h63.7l24.9-75.8h-53.8L90,195.9z M200.2,81.5H133l34-74.8h57.5L200.2,81.5z M146,73.1   h48.1L213,14.9h-40.6L146,73.1z"></path>
	<path fill="#BCB9B8" d="M790.9,366.7H686.7l-40.8-125.6h87.6L790.9,366.7L790.9,366.7z M692.6,358.3h85.2l-49.8-109h-70.7   L692.6,358.3L692.6,358.3z M660.6,81.5h-67.2L569.2,6.7h57.5L660.6,81.5z M599.6,73.1h48.1l-26.4-58.2h-40.6L599.6,73.1z"></path>
</g>
<path fill="#289548" d="M408.1,159.3c-16.1,6.9-30.7,15.5-43.7,25.7h-87.6v28.7c0,2.2-0.8,4.1-2.4,5.5c-1.5,1.5-3.4,2.3-5.6,2.3  h-32.5c-2.5,0-4.6-0.8-6.1-2.3s-2.4-3.3-2.4-5.5V172c-0.1-0.8-0.3-1.7-0.5-2.5c-0.1-0.9-0.4-1.8-0.5-2.5c-1.5-9.3-2.4-17.5-2.4-24.6  c0-7.2,0.4-13.5,1.1-18.8c0.8-5.3,1.8-9.7,2.9-13s2.2-5.7,2.9-7.2H213c-2.2,0-4.2-0.8-5.8-2.3c-1.8-1.5-3-3.9-2.5-5.2  c0.5-1.1,5.3-14.2,6.1-16.3c0.9-2.3,1.8-3.8,3.7-5.3c1.7-1.3,4.8-2.3,7.1-2.3h26.5c1.4-2.2,2.9-4.4,4.7-6.9c1.8-2.4,3.6-4.7,5.6-6.9  c2.4-2.7,4.6-5.3,6.6-8c1.8-2.2,3.6-4.4,5.5-6.9s3.6-4.4,4.8-6.1c1.5-1.9,3-3.8,4.4-5.7c1.4-1.9,3.2-3.6,5.3-5.1s4.8-2.8,8.1-3.9  s7.6-1.9,13.2-2.4c13.3-1.3,25.1-2,35.4-2.3s17.8-0.4,22.5-0.4c4.8,0,12.4,0.1,22.9,0.4c10.3,0.3,22.2,1,35.6,2.3  c5.3,0.5,9.7,1.3,13,2.4s6,2.4,8.1,3.9c2.2,1.5,3.9,3.2,5.3,5.1c1.4,1.9,2.9,3.8,4.4,5.7c1.4,1.8,3.2,3.8,5.2,6.1  c2,2.4,3.9,4.7,5.6,6.9c2,2.7,4.2,5.3,6.3,8c1.8,2.2,3.4,4.4,5.2,6.9c1.8,2.4,3.4,4.7,5.2,6.9h26.3c1.1,0,2.3,0.3,3.7,0.6  c1.3,0.4,2.5,0.9,3.7,1.7c1.1,0.8,1.9,1.4,2.3,2c0.5,0.6,1.3,2,1.7,3.3c0.4,1.1,5.6,15.2,5.8,16.3c0.4,0.9-0.8,3.6-2.4,5.2  c-1.7,1.5-3.6,2.3-5.7,2.3h-19c0.6,1.3,1.4,3,2.4,5.3c0.9,2.3,1.8,5.1,2.7,8.6c0.9,3.4,1.5,7.5,1.9,12.1c0.4,4.6,0.4,9.8,0.1,15.6  c-3.2-0.3-6.3-0.5-9.7-0.5h-15.5c0.1-2.2,0.3-4.2,0.1-5.8c-0.1-1.8-0.3-3.4-0.6-5.2h-48.4v-25.9h41.1c-1.1-1.7-2.2-3.6-3.3-5.7  c-1.1-2.3-2.4-4.7-3.9-7.4H265.5c-1.8,2.7-3.2,5.2-4.4,7.4c-1.3,2.3-2.3,4.2-3,5.7H299v25.9h-48.4c-0.3,3.4-0.4,7.4-0.1,11.7  c0.3,4.3,0.8,9.1,1.5,14.5h112.9L408.1,159.3L408.1,159.3z M299.8,48.1c-3.9,4.6-7.4,8.8-10.4,12.7s-6,7.6-8.6,11.3h168.5  c-3-4.1-6.3-8.1-9.9-12.1c-3.6-3.9-7.4-8.3-11.7-12.8c-1.3-0.6-3.6-0.9-7.1-0.9c-12.8-1.3-24.3-2-34.2-2.4  c-9.9-0.3-17.4-0.5-22.2-0.5c-4.7,0-11.9,0.1-21.7,0.5c-9.8,0.3-21.1,1.1-33.8,2.4c-2.2,0-4.1,0.3-5.6,0.8  C301.8,47.6,300.5,48,299.8,48.1L299.8,48.1z M612.4,351.3V329h27.3c-1.4-17.5-5.3-34-11.8-49.4s-15-29.1-25.7-41.1L582,257  l-15-15.2l19.3-18.8c-12.2-10.9-26-19.7-41.4-26.3s-31.9-10.5-49.4-11.8v27h-21.3v-27c-17.8,1.3-34.3,5.1-49.8,11.7  c-15.5,6.5-29.3,15.1-41.8,26l19.3,19.3l-15.2,15.5l-19.3-19c-10.5,12.2-19,26-25.8,41.5c-6.6,15.5-10.7,31.9-11.8,49.5h27.3v22.1  H308v-11.3c0-16.3,2-32,6.2-47.1s10-29.2,17.8-42.4c7.6-13.2,16.9-25.1,27.7-35.8c10.8-10.8,22.6-19.9,35.6-27.7  c13-7.6,27-13.6,42-17.8s30.7-6.2,47-6.2s32,2,47.1,6.2s29.2,10,42.4,17.8c13.2,7.6,25.1,16.9,35.9,27.7  c10.8,10.8,20.1,22.7,27.8,35.8c7.7,13.2,13.7,27.3,18,42.4c4.2,15.1,6.3,30.9,6.3,47.1c0,1.5,0,3.3-0.1,5.3c-0.1,1.9-0.3,3.9-0.6,6  L612.4,351.3L612.4,351.3z M468.3,356.7c-2.4-2.2-4.1-4.8-5.2-7.7c-1.1-2.9-1.7-6-1.7-8.9c0-1.1,0.1-2.3,0.3-3.4  c0.1-1.1,0.9-2.8,0.3-3.4l-52.8-53.6l-7.5-22.6l23,7.7c0,0,52.8,51.8,53.6,52.4c0.8,0.6,3.2,0,6.1,0s6.3,0.6,9.3,1.8  c2.9,1.1,5.5,2.8,7.5,4.8c2.2,2,3.8,4.4,5.1,7.1c1.3,2.8,1.9,5.7,1.9,9s-0.6,6.3-1.9,9.1s-2.9,5.3-5.1,7.4c-2.2,2.2-4.6,3.8-7.5,5  c-2.9,1.1-6,1.8-9.3,1.8c-2.9,0-5.8-0.5-8.6-1.5C473,360.7,470.5,359.1,468.3,356.7L468.3,356.7z M635.8,154.4l28.2-28.2l35,35.7  l-27.9,27.6l21,21.2h-76.8v-76.8L635.8,154.4z"></path>
</svg>