<?xml version='1.0' encoding='utf-8'?>
<!-- Generator: Adobe Illustrator 16.0.0, SVG Export Plug-In . SVG Version: 6.00 Build 0)  --><svg xmlns="http://www.w3.org/2000/svg" xmlns:cc="http://creativecommons.org/ns#" xmlns:dc="http://purl.org/dc/elements/1.1/" xmlns:ns="&amp;ns_sfw;" xmlns:rdf="http://www.w3.org/1999/02/22-rdf-syntax-ns#" width="359px" height="425.2px" enable-background="new 0 0 359 425.2" version="1.1" viewBox="0 0 359 425.2" xml:space="preserve">
<metadata>
	<ns:sfw>
		<ns:slices></ns:slices>
		<ns:sliceSourceBounds x="217.004" y="115.109" width="406.993" height="405.264" bottomLeftOrigin="true">
			</ns:sliceSourceBounds>
	</ns:sfw>
	<rdf:RDF>
		<cc:Work rdf:about="">
			<dc:format>image/svg+xml</dc:format>
			<dc:type rdf:resource="http://purl.org/dc/dcmitype/StillImage"></dc:type>
			<dc:title></dc:title>
		</cc:Work>
	</rdf:RDF>
	<ns:sfw>
		<ns:slices></ns:slices>
		<ns:sliceSourceBounds x="249.693" y="141.594" width="341.608" height="340.158" bottomLeftOrigin="true">
			</ns:sliceSourceBounds>
	</ns:sfw>
	<ns:sfw>
		<ns:slices></ns:slices>
		<ns:sliceSourceBounds x="249.699" y="141.595" width="341.602" height="340.16" bottomLeftOrigin="true"></ns:sliceSourceBounds>
	</ns:sfw>
</metadata>
<path d="m168.91 123.22c1.013 0 1.996 0.128 2.947 0.38 0.951 0.255 1.933 0.571 2.949 0.95l10.457 4.183c3.928 1.649 6.717 4.406 8.365 8.271 1.646 3.867 1.646 7.829 0 11.883-1.016 2.41-1.711 4.691-2.092 6.845-0.377 1.901-0.441 3.803-0.189 5.705 0.252 1.9 1.142 3.422 2.662 4.563h0.192c0.505 0.38 0.95 0.761 1.33 1.141 0.379 0.381 0.821 0.76 1.331 1.141 2.535 1.9 4.943 3.992 7.224 6.274s4.435 4.69 6.464 7.226l0.192 0.19c0.759 1.015 1.739 1.711 2.946 2.093 1.205 0.379 2.44 0.57 3.709 0.57 1.266 0 2.535-0.125 3.803-0.38 1.266-0.252 2.402-0.505 3.42-0.761 1.141-0.379 2.219-0.76 3.234-1.141 1.9-0.761 3.863-1.14 5.893-1.14 3.042 0 5.861 0.856 8.461 2.565 2.6 1.711 4.53 4.025 5.799 6.942l4.374 10.457c1.646 3.933 1.679 7.86 0.097 11.789-1.592 3.931-4.406 6.655-8.463 8.175-2.408 1.018-4.5 2.154-6.276 3.421-1.521 1.142-2.886 2.472-4.085 3.996-1.209 1.521-1.619 3.166-1.238 4.94v0.191c0.125 0.639 0.191 1.237 0.191 1.807 0 0.568 0.061 1.175 0.19 1.808 0.253 3.296 0.409 6.558 0.476 9.792 0.06 3.23-0.096 6.494-0.476 9.791-0.256 1.775 0.222 3.453 1.427 5.037 1.203 1.588 2.565 2.887 4.088 3.898 1.771 1.396 3.863 2.537 6.273 3.424 3.932 1.648 6.717 4.438 8.366 8.365 1.646 3.932 1.646 7.795 0 11.598l-4.374 10.457c-1.268 3.043-3.23 5.389-5.893 7.035-2.662 1.648-5.451 2.471-8.365 2.471-2.028 0-3.995-0.379-5.895-1.139-1.016-0.381-2.092-0.762-3.232-1.139-1.016-0.256-2.125-0.506-3.326-0.762-1.209-0.254-2.441-0.381-3.711-0.381s-2.502 0.191-3.705 0.57c-1.207 0.381-2.255 1.08-3.137 2.092v0.193c-0.258 0.375-0.573 0.756-0.951 1.137-0.379 0.381-0.698 0.762-0.952 1.141-2.155 2.535-4.374 5.041-6.655 7.51-2.281 2.473-4.691 4.787-7.224 6.941l-0.192 0.189c-1.396 1.018-2.186 2.473-2.375 4.375-0.191 1.902-0.158 3.734 0.094 5.514 0.381 2.152 1.015 4.436 1.9 6.844 1.646 4.057 1.68 8.018 0.096 11.885-1.586 3.861-4.404 6.621-8.459 8.27l-10.459 4.375c-1.776 0.76-3.74 1.141-5.894 1.141-2.917 0-5.704-0.826-8.366-2.473-2.662-1.648-4.563-3.992-5.703-7.035-1.017-2.156-2.092-4.121-3.232-5.895-1.016-1.396-2.186-2.727-3.518-3.992-1.33-1.27-2.822-1.902-4.468-1.902-0.506 0-0.823 0.064-0.951 0.191h-0.19c-0.637 0.125-1.27 0.191-1.902 0.191-0.635 0-1.268 0.061-1.9 0.189-1.777 0.125-3.586 0.219-5.42 0.285-1.839 0.063-3.707 0.096-5.61 0.096h-4.182c-1.397 0-2.853-0.129-4.373-0.381h-0.951c-1.648 0-3.17 0.633-4.565 1.9-1.396 1.27-2.599 2.602-3.612 3.996-1.268 1.771-2.347 3.736-3.233 5.895-1.27 3.041-3.202 5.385-5.798 7.035-2.602 1.646-5.419 2.471-8.461 2.471-1.903 0-3.803-0.381-5.704-1.141l-10.458-4.373c-4.058-1.648-6.877-4.406-8.461-8.271-1.588-3.867-1.556-7.828 0.093-11.883 0.888-2.281 1.586-4.502 2.092-6.656 0.252-1.773 0.285-3.613 0.095-5.514-0.191-1.9-1.046-3.422-2.567-4.563h-0.189l-2.85-2.283c-2.538-2.152-4.946-4.373-7.226-6.654-2.279-2.283-4.438-4.688-6.465-7.227l-0.19-0.189c-0.76-1.014-1.711-1.711-2.852-2.092-1.139-0.379-2.41-0.568-3.803-0.568-1.396 0-2.662 0.127-3.8 0.379-1.141 0.256-2.222 0.508-3.234 0.762-1.139 0.377-2.219 0.758-3.232 1.139-1.903 0.76-3.868 1.141-5.894 1.141-3.042 0-5.862-0.822-8.46-2.473-2.599-1.645-4.531-3.994-5.798-7.035l-4.373-10.455c-0.76-1.902-1.14-3.834-1.14-5.801 0-1.963 0.38-3.865 1.14-5.703 0.759-1.838 1.87-3.484 3.328-4.943 1.453-1.457 3.135-2.633 5.039-3.518 2.406-0.885 4.496-1.965 6.275-3.232 1.521-1.014 2.852-2.283 3.993-3.803 1.141-1.523 1.586-3.234 1.331-5.133v-0.189c0-0.635-0.033-1.24-0.093-1.809-0.065-0.57-0.161-1.17-0.286-1.807-0.257-3.295-0.38-6.557-0.38-9.791 0-3.232 0.123-6.492 0.38-9.793v-0.189c0.253-1.773-0.225-3.422-1.426-4.944-1.207-1.522-2.569-2.784-4.088-3.801-1.777-1.267-3.869-2.406-6.277-3.423-4.058-1.646-6.875-4.438-8.46-8.366-1.587-3.929-1.554-7.858 0.095-11.789l4.373-10.458c1.266-2.916 3.201-5.229 5.799-6.941 2.596-1.711 5.418-2.566 8.461-2.566 2.154 0 4.118 0.445 5.893 1.33 0.886 0.381 1.903 0.762 3.043 1.142 1.011 0.255 2.09 0.507 3.232 0.761 1.141 0.256 2.407 0.379 3.803 0.379 1.393 0 2.662-0.191 3.8-0.57 1.142-0.381 2.092-1.075 2.853-2.092v-0.381c0.504-0.506 0.951-0.979 1.331-1.425 0.381-0.442 0.823-0.919 1.331-1.426 2.026-2.407 4.15-4.783 6.37-7.132 2.218-2.342 4.594-4.467 7.13-6.368l0.191-0.19c1.393-1.013 2.218-2.5 2.471-4.469 0.252-1.963 0.252-3.896 0-5.799-0.381-2.282-1.079-4.563-2.092-6.844-1.648-3.928-1.682-7.859-0.093-11.789 1.583-3.928 4.403-6.717 8.461-8.365l10.458-4.183c1.9-0.761 3.8-1.142 5.704-1.142 2.914 0 5.703 0.827 8.365 2.473 2.662 1.648 4.625 3.993 5.894 7.034 0.887 2.282 1.902 4.249 3.042 5.894 1.013 1.397 2.186 2.694 3.518 3.897 1.33 1.207 2.881 1.807 4.658 1.807h1.143c0.633-0.125 1.266-0.19 1.901-0.19 0.633 0 1.267-0.062 1.903-0.19 1.771-0.125 3.58-0.22 5.419-0.286 1.836-0.062 3.707-0.095 5.609-0.095h4.182c1.391 0 2.85 0.128 4.373 0.38h0.951c1.521 0 2.978-0.601 4.373-1.807 1.394-1.204 2.596-2.567 3.611-4.088 1.266-1.773 2.406-3.802 3.424-6.084 1.141-2.915 3.043-5.228 5.703-6.94 2.661-1.71 5.443-2.566 8.36-2.566zm0 13.881c-0.76 0-1.27 0.317-1.521 0.95-0.127 0.38-0.57 1.396-1.33 3.042-0.762 1.648-1.84 3.488-3.234 5.514-3.424 4.944-6.875 8.175-10.362 9.697s-6.498 2.282-9.03 2.282c-0.509 0-0.982-0.031-1.427-0.095-0.446-0.063-0.856-0.096-1.235-0.096-1.016-0.125-2.092-0.22-3.234-0.285-1.139-0.063-2.348-0.096-3.612-0.096-2.79 0-6.084 0.189-9.886 0.571h-1.807c-0.572 0-1.111 0.065-1.618 0.19-0.507 0.127-1.397 0.189-2.662 0.189-2.535 0-5.609-0.76-9.219-2.282-3.615-1.521-7.07-4.753-10.365-9.697-1.268-1.901-2.282-3.612-3.043-5.133-0.76-1.522-1.268-2.597-1.521-3.232-0.127-0.38-0.318-0.633-0.573-0.761-0.255-0.124-0.506-0.19-0.758-0.19-0.128 0-0.226 0.033-0.287 0.095-0.064 0.065-0.159 0.095-0.286 0.095l-10.457 4.184c-0.888 0.38-1.139 1.14-0.758 2.281 0.252 0.38 0.692 1.491 1.33 3.327 0.633 1.839 1.204 4.026 1.711 6.56 0.505 3.298 0.571 6.212 0.19 8.747-0.38 2.537-0.984 4.753-1.806 6.654-0.824 1.901-1.804 3.455-2.947 4.658-1.142 1.207-2.158 2.187-3.043 2.946v0.19c-2.41 1.777-4.596 3.74-6.557 5.895-1.969 2.157-3.708 4.122-5.229 5.893v0.192c-0.38 0.378-0.76 0.759-1.141 1.138-0.378 0.381-0.699 0.826-0.951 1.332-4.181 5.325-10.077 7.988-17.68 7.988-3.681 0-6.942-0.441-9.792-1.331-2.853-0.888-4.786-1.521-5.8-1.901h-0.38c-0.761 0-1.269 0.315-1.522 0.949l-4.181 10.269c-0.257 0.378-0.257 0.759 0 1.138 0.252 0.508 0.505 0.826 0.761 0.952 0.378 0.126 1.454 0.636 3.232 1.521 1.774 0.893 3.738 2.092 5.895 3.615 2.661 1.902 4.781 3.866 6.37 5.893 1.583 2.031 2.725 3.994 3.422 5.896 0.694 1.901 1.105 3.679 1.236 5.324 0.122 1.647 0.122 3.106 0 4.373-0.256 2.917-0.351 5.862-0.285 8.841 0.06 2.98 0.22 5.607 0.473 7.889v0.381c0 0.508 0.029 0.984 0.095 1.426 0.063 0.445 0.096 0.982 0.096 1.615 0.504 3.299 0.22 6.34-0.858 9.127-1.079 2.789-2.599 5.324-4.563 7.607-1.966 2.281-4.216 4.279-6.75 5.99-2.537 1.711-5.134 3.072-7.796 4.086-1.016 0.258-1.268 0.891-0.761 1.902l4.183 10.457c0.38 0.637 0.885 0.951 1.521 0.951 0.125 0 0.22-0.029 0.285-0.094 0.063-0.063 0.158-0.094 0.286-0.094 0.255-0.127 0.857-0.381 1.806-0.762 0.951-0.381 2.154-0.76 3.612-1.141 1.456-0.379 3.043-0.729 4.753-1.045 1.711-0.314 3.518-0.477 5.418-0.477 4.946 0 8.776 0.951 11.504 2.854 2.725 1.9 4.72 3.613 5.989 5.131h0.191c1.773 2.41 3.738 4.6 5.893 6.561 2.154 1.967 4.184 3.707 6.084 5.229 0.761 1.016 1.522 1.775 2.283 2.283h0.19c2.662 2.029 4.593 4.406 5.799 7.131 1.204 2.725 1.901 5.578 2.092 8.555 0.19 2.977 0 5.988-0.573 9.031-0.569 3.041-1.424 5.83-2.566 8.367-0.38 0.377-0.38 0.691 0 0.951 0.125 0.252 0.252 0.439 0.38 0.57 0.123 0.125 0.252 0.252 0.381 0.381l10.265 4.371c0.125 0.125 0.314 0.193 0.573 0.193 0.633 0 1.139-0.32 1.521-0.953 0.125-0.506 0.57-1.586 1.332-3.23 0.76-1.65 1.837-3.424 3.234-5.324 3.42-4.818 6.906-8.021 10.457-9.604 3.546-1.586 6.589-2.377 9.126-2.377 0.505 0 0.951 0.063 1.331 0.191 0.379 0.123 0.822 0.191 1.331 0.191 1.013 0.123 2.09 0.221 3.232 0.285 1.141 0.063 2.343 0.096 3.613 0.096 1.521 0 3.071-0.033 4.661-0.096 1.584-0.064 3.326-0.16 5.228-0.285 1.141-0.381 2.28-0.568 3.423-0.568 0.506-0.129 1.395-0.193 2.662-0.193 2.535 0 5.576 0.791 9.126 2.379 3.547 1.584 7.035 4.783 10.457 9.6 1.142 1.771 2.092 3.424 2.853 4.945 0.758 1.521 1.266 2.596 1.521 3.232 0.125 0.758 0.57 1.139 1.331 1.139 0.253 0 0.442-0.064 0.571-0.188l10.459-4.373c1.138-0.381 1.453-1.08 0.949-2.092-0.128-0.256-0.543-1.332-1.238-3.234-0.697-1.902-1.234-4.061-1.614-6.465-0.636-3.422-0.761-6.398-0.38-8.938 0.38-2.535 0.979-4.752 1.806-6.654 0.823-1.902 1.772-3.482 2.853-4.754 1.074-1.266 2.117-2.279 3.136-3.041 2.284-1.902 4.53-3.994 6.75-6.275 2.219-2.283 4.021-4.375 5.419-6.275 0.252-0.381 0.54-0.727 0.855-1.047 0.315-0.313 0.601-0.664 0.855-1.045 2.154-2.533 4.688-4.529 7.607-5.99 2.914-1.455 6.207-2.186 9.883-2.186 3.678 0 6.974 0.508 9.889 1.521 2.914 1.018 4.814 1.711 5.704 2.092 0.124 0 0.192 0.033 0.192 0.092 0 0.064 0.06 0.096 0.188 0.096h0.19c0.636 0 1.141-0.314 1.521-0.951l4.184-10.457c0.123-0.379 0.123-0.76 0-1.141-0.258-0.504-0.508-0.82-0.76-0.949-0.381-0.123-1.459-0.604-3.234-1.426-1.774-0.822-3.74-1.996-5.894-3.518-2.79-2.023-4.976-4.086-6.562-6.178-1.584-2.092-2.756-4.09-3.514-5.99-0.761-1.902-1.174-3.707-1.238-5.418-0.063-1.713-0.032-3.139 0.095-4.277 0.254-2.918 0.349-5.863 0.286-8.844-0.065-2.975-0.223-5.609-0.475-7.891v-1.615c0-0.442-0.064-0.98-0.19-1.617-0.382-3.294-0.066-6.336 0.95-9.125 1.014-2.787 2.535-5.324 4.564-7.607 2.026-2.281 4.307-4.277 6.846-5.99 2.532-1.711 5.131-3.072 7.793-4.088 1.013-0.252 1.267-0.886 0.76-1.9l-4.182-10.457c-0.127-0.633-0.639-0.951-1.521-0.951-0.256 0-0.445 0.063-0.569 0.189-0.762 0.256-2.661 0.857-5.704 1.807-3.041 0.949-6.402 1.424-10.076 1.424-4.818 0-8.59-0.918-11.314-2.755-2.727-1.837-4.725-3.519-5.988-5.04v-0.191h-0.192c-1.774-2.281-3.773-4.467-5.989-6.559-2.22-2.091-4.214-3.898-5.989-5.418-0.381-0.253-0.794-0.57-1.236-0.951-0.445-0.38-0.855-0.695-1.238-0.951-2.661-2.025-4.627-4.402-5.893-7.129-1.271-2.725-2-5.578-2.187-8.557-0.192-2.977 0.028-5.957 0.665-8.937 0.633-2.977 1.521-5.799 2.66-8.461 0.127-0.505 0.127-0.95 0-1.33-0.125-0.38-0.379-0.633-0.758-0.761l-10.459-4.182c-0.124-0.124-0.317-0.188-0.568-0.188zm-37.646 178.16h-0.193c-9.505 0-18.443-1.838-26.806-5.516-8.366-3.674-15.624-8.65-21.771-14.926-6.149-6.275-11.028-13.623-14.638-22.053-3.615-8.43-5.419-17.398-5.419-26.908 0-9.504 1.836-18.44 5.512-26.806 3.675-8.366 8.62-15.687 14.831-21.959 6.208-6.276 13.468-11.25 21.771-14.927 8.3-3.676 17.207-5.514 26.714-5.514h0.19c9.507 0 18.473 1.871 26.906 5.609 8.43 3.74 15.781 8.745 22.054 15.021 6.276 6.274 11.218 13.625 14.83 22.054 3.616 8.433 5.419 17.399 5.419 26.905s-1.836 18.445-5.512 26.809c-3.678 8.365-8.653 15.686-14.926 21.961-6.276 6.273-13.627 11.215-22.056 14.83-8.434 3.612-17.4 5.42-26.906 5.42zm0-124.73c-7.608 0-14.737 1.459-21.39 4.373-6.655 2.92-12.486 6.879-17.492 11.883-5.009 5.011-8.969 10.904-11.884 17.683-2.917 6.784-4.373 13.976-4.373 21.581s1.427 14.77 4.281 21.484c2.85 6.723 6.75 12.551 11.693 17.494 4.943 4.945 10.772 8.873 17.492 11.787 6.717 2.922 13.88 4.373 21.486 4.373h0.192c7.605 0 14.797-1.422 21.581-4.275 6.779-2.854 12.674-6.752 17.682-11.693 5.006-4.945 8.998-10.771 11.978-17.496 2.978-6.719 4.47-13.877 4.47-21.484 0-7.605-1.459-14.799-4.373-21.58-2.92-6.78-6.879-12.709-11.885-17.778-5.009-5.069-10.904-9.063-17.682-11.979-6.783-2.914-13.975-4.373-21.582-4.373h-0.191-3e-3zm140.7-162.19c2.661 0 4.914 0.95 6.75 2.852 1.839 1.901 2.757 4.183 2.757 6.845 0 1.648 0.19 3.17 0.57 4.563 0.253 1.141 0.665 2.252 1.238 3.328 0.57 1.079 1.486 1.745 2.754 1.996l0.193 0.19c0.379 0.128 1.074 0.318 2.092 0.571 2.025 0.635 3.992 1.301 5.893 1.996 1.903 0.698 3.737 1.554 5.514 2.567h0.19c0.254 0.507 0.951 0.76 2.091 0.76 0.885 0 1.807-0.22 2.758-0.666 0.95-0.442 1.807-0.98 2.566-1.615 0.887-0.633 1.771-1.394 2.662-2.282 0.888-1.013 1.967-1.741 3.234-2.187 1.266-0.441 2.533-0.665 3.801-0.665 2.283 0 4.496 0.951 6.656 2.852l4.943 5.133c2.025 1.777 3.042 4.025 3.042 6.75 0 2.728-1.017 5.039-3.042 6.941-1.141 1.268-2.09 2.472-2.852 3.612-0.635 1.016-1.111 2.062-1.426 3.138-0.318 1.078-0.16 2.124 0.476 3.137l0.19 0.19c0.125 0.38 0.252 0.731 0.379 1.046 0.123 0.317 0.315 0.665 0.572 1.046 1.012 1.901 1.901 3.773 2.66 5.61 0.762 1.838 1.455 3.707 2.092 5.608v0.191c0.381 1.14 1.075 2.029 2.092 2.662 1.014 0.636 2.092 1.079 3.231 1.331 1.142 0.255 2.663 0.445 4.563 0.571 2.787 0 5.103 0.92 6.941 2.757 1.836 1.838 2.756 4.152 2.756 6.939v7.036c0 2.662-0.92 4.914-2.756 6.75-1.838 1.839-4.15 2.757-6.941 2.757h-0.19c-0.256 0-0.854 0.033-1.806 0.095-0.948 0.066-1.936 0.256-2.946 0.571-1.019 0.318-1.998 0.761-2.949 1.331-0.95 0.571-1.614 1.426-1.995 2.566v0.19l-0.57 1.712c-0.637 2.028-1.303 4.058-1.996 6.084-0.699 2.029-1.557 3.931-2.569 5.704h-0.19c-0.635 1.016-0.76 2.125-0.379 3.328 0.379 1.206 0.885 2.314 1.521 3.327 0.76 1.269 1.711 2.472 2.853 3.612 1.899 1.902 2.85 4.184 2.85 6.845s-0.951 5.009-2.85 7.035l-5.135 4.945c-0.889 0.889-1.934 1.554-3.136 1.996-1.207 0.445-2.377 0.664-3.519 0.664-2.535 0-4.881-0.885-7.033-2.66-0.762-0.76-1.588-1.455-2.473-2.092-0.761-0.633-1.587-1.172-2.471-1.617-0.889-0.441-1.837-0.666-2.852-0.666-0.76 0-1.521 0.191-2.281 0.572-0.379 0.256-0.729 0.444-1.045 0.571-0.317 0.126-0.666 0.317-1.045 0.569-3.68 1.902-7.481 3.423-11.41 4.564-1.141 0.256-1.995 0.92-2.568 1.994-0.568 1.079-0.982 2.188-1.234 3.328-0.381 1.396-0.57 2.917-0.57 4.564 0 2.789-0.985 5.133-2.948 7.033-1.968 1.903-4.216 2.853-6.752 2.853h-7.222c-2.664 0-4.945-0.951-6.848-2.853-1.9-1.9-2.85-4.246-2.85-7.033 0.123-1.646 0-3.168-0.379-4.564-0.26-1.141-0.698-2.249-1.332-3.328-0.637-1.074-1.521-1.738-2.662-1.994h-0.191c-0.381-0.125-0.73-0.221-1.047-0.285s-0.664-0.158-1.046-0.285c-2.028-0.635-3.993-1.268-5.894-1.902-1.9-0.633-3.739-1.455-5.514-2.473l-0.188-0.188c-0.382-0.254-1.019-0.38-1.904-0.38-1.017 0-1.995 0.223-2.946 0.665-0.951 0.446-1.806 0.922-2.567 1.426-0.89 0.636-1.774 1.33-2.663 2.093-1.773 1.776-4.119 2.66-7.034 2.66-2.663 0-4.879-0.886-6.655-2.66l-5.134-4.945c-1.901-1.901-2.851-4.184-2.851-6.846s0.951-5.005 2.851-7.036c1.142-1.013 2.091-2.154 2.851-3.422 0.634-1.013 1.142-2.121 1.522-3.328 0.38-1.203 0.253-2.312-0.38-3.327h-0.189c-0.256-0.38-0.447-0.728-0.572-1.046-0.127-0.315-0.381-0.665-0.76-1.046-0.89-1.773-1.711-3.612-2.472-5.514-0.76-1.901-1.458-3.865-2.091-5.894-0.256-1.013-0.921-1.836-1.996-2.471-1.079-0.633-2.186-1.075-3.329-1.33-1.396-0.381-2.85-0.571-4.372-0.571-2.789 0-5.133-0.951-7.035-2.852-1.9-1.901-2.852-4.184-2.852-6.845v-7.035c0-2.787 0.952-5.101 2.852-6.94 1.902-1.836 4.246-2.757 7.035-2.757 0.381 0 1.014-0.031 1.902-0.095 0.887-0.063 1.869-0.252 2.947-0.57 1.074-0.315 2.06-0.791 2.947-1.426 0.887-0.633 1.455-1.456 1.711-2.472v-0.19c0.252-0.38 0.41-0.761 0.477-1.14 0.061-0.38 0.156-0.696 0.285-0.952 0.633-1.901 1.33-3.832 2.09-5.798 0.76-1.965 1.646-3.833 2.663-5.61v-0.19c0.633-1.013 0.759-2.092 0.378-3.232-0.378-1.141-0.889-2.217-1.521-3.232-0.76-1.266-1.711-2.472-2.852-3.612-1.773-1.901-2.662-4.183-2.662-6.845 0-2.663 0.889-4.878 2.662-6.654l5.133-5.135c1.904-1.901 4.184-2.851 6.846-2.851 2.787 0 5.067 0.95 6.846 2.851 0.886 0.89 1.771 1.649 2.662 2.282 0.758 0.636 1.615 1.141 2.565 1.521 0.951 0.38 1.931 0.571 2.948 0.571 0.887 0 1.584-0.125 2.091-0.38v-0.19c0.38-0.252 0.728-0.442 1.045-0.57 0.315-0.125 0.666-0.315 1.046-0.57 1.902-1.013 3.771-1.901 5.609-2.663 1.838-0.76 3.77-1.455 5.799-2.092 1.141-0.252 1.998-0.917 2.568-1.996 0.57-1.075 0.982-2.248 1.236-3.518 0.381-1.393 0.569-2.914 0.569-4.563 0-2.662 0.953-4.944 2.853-6.845 1.901-1.902 4.183-2.852 6.846-2.852h7.222l2e-3 -4e-3zm-6.655 10.457c-0.127 4.059-1.045 7.985-2.756 11.788-1.712 3.803-4.724 6.212-9.033 7.225-1.774 0.635-3.453 1.301-5.037 1.996-1.59 0.699-3.074 1.364-4.469 1.996-0.761 0.508-1.33 0.826-1.711 0.951-2.408 1.397-4.818 2.092-7.225 2.092-1.775 0-3.42-0.252-4.944-0.76-1.521-0.506-2.946-1.142-4.276-1.901-1.332-0.761-2.474-1.552-3.424-2.377-0.949-0.823-1.742-1.488-2.375-1.996l-4.184 3.993c2.785 2.917 4.912 6.37 6.369 10.362 1.455 3.993 1.045 7.957-1.235 11.883-0.89 1.649-1.616 3.328-2.187 5.039-0.572 1.711-1.111 3.265-1.618 4.659-0.126 0.507-0.317 1.14-0.57 1.901-1.016 3.678-3.231 6.56-6.653 8.651-3.424 2.092-7.545 3.202-12.361 3.327v5.705c1.904 0.127 3.865 0.412 5.895 0.854 2.026 0.446 3.928 1.141 5.703 2.092 1.774 0.951 3.327 2.187 4.658 3.708 1.332 1.521 2.313 3.36 2.947 5.514 0.508 1.649 1.107 3.297 1.807 4.943 0.693 1.649 1.359 3.17 1.996 4.564 0.508 0.761 0.824 1.33 0.951 1.711 1.141 2.029 1.773 4.058 1.904 6.084 0.121 2.029-0.097 3.993-0.666 5.894-0.573 1.903-1.426 3.708-2.568 5.419-1.141 1.71-2.35 3.265-3.613 4.658l3.992 4.184c1.266-1.141 3.234-2.598 5.895-4.373 2.662-1.773 5.768-2.662 9.316-2.662 2.536 0 4.945 0.57 7.225 1.711 1.521 0.889 3.135 1.648 4.847 2.281 1.712 0.636 3.265 1.207 4.661 1.711h0.189l1.711 0.57c2.151 0.637 3.994 1.617 5.512 2.947 1.522 1.332 2.758 2.885 3.709 4.658 0.951 1.777 1.617 3.646 1.998 5.609 0.381 1.967 0.569 3.898 0.569 5.8h6.087c0-4.056 0.885-7.954 2.66-11.693 1.771-3.737 4.878-6.243 9.318-7.512 1.646-0.505 3.263-1.106 4.847-1.806 1.585-0.695 3.069-1.361 4.468-1.996h0.19v-0.19c0.254-0.125 0.541-0.253 0.856-0.38 0.314-0.125 0.601-0.252 0.855-0.38 2.025-1.267 4.436-1.901 7.227-1.901 3.422 0 6.463 0.855 9.125 2.566s4.563 3.138 5.705 4.277l3.991-4.182c-2.661-2.914-4.688-6.337-6.084-10.267-1.397-3.927-1.017-7.858 1.142-11.788 0.885-1.774 1.615-3.517 2.187-5.229 0.571-1.712 1.045-3.262 1.426-4.658 0.252-0.76 0.443-1.266 0.57-1.521 1.013-3.675 3.233-6.56 6.655-8.651s7.605-3.199 12.547-3.327v-5.894c-3.93-0.124-7.826-1.075-11.692-2.852-3.868-1.773-6.435-4.815-7.7-9.126-0.508-1.774-1.078-3.453-1.711-5.039-0.637-1.584-1.271-3.072-1.904-4.469-0.506-0.76-0.822-1.33-0.949-1.711-1.139-2.026-1.805-4.056-1.996-6.084-0.191-2.026 0-4.022 0.568-5.99 0.573-1.963 1.428-3.802 2.569-5.514 1.14-1.711 2.345-3.262 3.613-4.658l-3.804-4.182c-0.635 0.507-1.424 1.173-2.375 1.996-0.953 0.826-2.09 1.617-3.422 2.377-1.33 0.761-2.789 1.426-4.375 1.997-1.586 0.57-3.201 0.855-4.847 0.855-2.918 0-5.323-0.694-7.226-2.091-1.647-0.885-3.327-1.616-5.038-2.186-1.712-0.571-3.265-1.109-4.658-1.617l-1.711-0.57c-2.281-0.505-4.181-1.426-5.704-2.757-1.521-1.331-2.758-2.882-3.707-4.658-0.951-1.773-1.65-3.675-2.092-5.704-0.444-2.026-0.666-3.992-0.666-5.893h-5.893v-2e-3l-1e-3 -1e-3zm3.425 115.03c-4.439 0-8.721-0.633-12.836-1.901-4.121-1.266-7.922-3.104-11.41-5.514-3.485-2.406-6.592-5.292-9.316-8.651-2.729-3.357-4.913-7.065-6.557-11.123-2.284-5.449-3.395-11.09-3.329-16.922 0.062-5.828 1.172-11.313 3.329-16.447 2.15-5.133 5.228-9.792 9.219-13.974 3.993-4.184 8.775-7.416 14.355-9.697 5.447-2.154 10.897-3.233 16.351-3.233 4.563 0 8.937 0.637 13.119 1.902 4.182 1.269 8.017 3.108 11.503 5.514 3.482 2.41 6.624 5.294 9.41 8.651 2.787 3.36 5.007 7.13 6.658 11.313 2.281 5.324 3.422 10.808 3.422 16.447 0 5.643-1.207 11.189-3.615 16.637-2.153 5.451-5.293 10.205-9.411 14.259-4.12 4.059-8.905 7.163-14.354 9.317-2.664 1.015-5.356 1.838-8.082 2.472-2.723 0.635-5.543 0.95-8.456 0.95zm-0.192-79.097c-4.438 0-8.812 0.889-13.12 2.662-4.563 1.902-8.46 4.533-11.693 7.89-3.233 3.36-5.703 7.13-7.414 11.314-1.711 4.182-2.635 8.588-2.758 13.214-0.127 4.629 0.762 9.222 2.664 13.784 2.784 6.72 7.129 12.044 13.021 15.971 5.895 3.931 12.392 5.894 19.492 5.894 4.943 0 9.44-0.885 13.5-2.661 4.307-1.773 8.109-4.307 11.408-7.606 3.293-3.294 5.824-7.098 7.604-11.408 4.057-8.999 4.184-17.997 0.381-26.999-2.791-6.717-7.163-12.074-13.119-16.067-5.961-3.991-12.617-5.988-19.966-5.988z" fill="#000000"></path>
</svg>