<?xml version='1.0' encoding='utf-8'?>
<!-- Generator: Adobe Illustrator 16.0.0, SVG Export Plug-In . SVG Version: 6.00 Build 0)  --><svg xmlns="http://www.w3.org/2000/svg" xmlns:cc="http://creativecommons.org/ns#" xmlns:dc="http://purl.org/dc/elements/1.1/" xmlns:rdf="http://www.w3.org/1999/02/22-rdf-syntax-ns#" width="462px" height="425.2px" enable-background="new 0 0 462 425.2" version="1.1" viewBox="0 0 462 425.2" xml:space="preserve"><metadata><rdf:RDF><cc:Work rdf:about=""><dc:format>image/svg+xml</dc:format><dc:type rdf:resource="http://purl.org/dc/dcmitype/StillImage"></dc:type><dc:title></dc:title></cc:Work></rdf:RDF></metadata>
<g fill="#1D1D1B">
	<path d="m51.698 300.88c-5.268 6.793-7.996 13.137-8.06 18.978-0.253 5.839 2.159 11.743 7.109 17.707 8.187 9.456 11.487 21.008 9.901 34.397-0.635 5.586-2.159 11.107-4.634 16.691-2.475 5.459-5.711 10.537-9.584 15.105l-5.204 6.093-12.058-10.154 4.95-5.901c2.539-3.237 4.697-6.791 6.601-10.854 1.905-3.933 3.047-7.931 3.618-12.058 0.571-4.063 0.318-8.061-0.571-12.06-0.761-3.935-2.601-7.741-5.331-11.043-7.362-8.694-10.979-17.899-10.915-27.672 0.126-9.772 3.934-19.421 11.678-28.94 3.808-4.57 5.394-9.012 5.014-13.201-0.444-4.315-1.84-9.455-4.252-15.803-1.333-3.361-2.54-7.172-3.682-11.361-1.142-4.125-1.522-8.377-1.142-12.819h-17.136l26.529-55.785 26.657 55.785h-20.186c-0.318 2.666-0.126 5.586 0.635 8.505 0.762 3.047 1.777 6.473 3.173 10.346 1.205 3.109 2.411 6.283 3.553 9.838 1.268 3.426 1.904 6.979 1.968 10.789 0.063 3.682-0.507 7.555-1.714 11.424-1.141 3.934-3.426 7.934-6.917 11.993z" fill="#000000"></path>
	<path d="m117.77 300.88c-5.078 6.793-7.742 13.137-8.123 18.978-0.191 5.839 2.158 11.743 7.108 17.707 7.996 9.456 11.297 21.008 9.647 34.397-0.636 5.586-2.158 11.107-4.569 16.691-2.285 5.459-5.521 10.537-9.393 15.105l-4.886 6.093-12.504-10.154 5.078-5.901c2.729-3.237 4.95-6.791 6.792-10.854 1.84-3.933 2.981-7.931 3.616-12.058 0.572-4.063 0.38-8.061-0.38-12.06-0.889-3.935-2.729-7.741-5.458-11.043-7.49-8.694-11.169-17.899-10.917-27.672 0.126-9.772 4.062-19.421 11.677-28.94 3.618-4.57 5.205-9.012 4.824-13.201-0.507-4.315-1.84-9.455-4.062-15.803-1.333-3.361-2.602-7.172-3.808-11.361-1.207-4.125-1.587-8.377-1.27-12.819h-17.138l26.592-55.785 26.593 55.785h-20.18c-0.317 2.666-0.063 5.586 0.761 8.505 0.887 3.047 2.031 6.473 3.554 10.346 1.078 3.109 2.094 6.283 3.046 9.838 1.142 3.426 1.65 6.979 1.903 10.789 0.126 3.682-0.507 7.555-1.713 11.424-1.205 3.934-3.553 7.934-6.79 11.993z" fill="#000000"></path>
	<path d="m184.29 300.88c-5.458 6.793-8.25 13.137-8.377 18.978-0.19 5.839 2.285 11.743 7.363 17.707 7.868 9.647 11.043 21.135 9.456 34.397-0.635 5.586-2.223 11.107-4.569 16.691-2.475 5.459-5.522 10.537-9.458 15.105l-5.141 6.093-12.25-10.154 5.078-5.901c2.54-3.237 4.823-6.791 6.665-10.854 1.841-3.933 3.045-7.931 3.617-12.058 0.444-4.063 0.318-8.061-0.571-12.06-0.824-3.935-2.665-7.741-5.33-11.043-7.362-8.694-10.979-17.899-10.916-27.672 0.063-9.776 3.999-19.421 11.614-28.94 3.618-4.57 5.205-9.012 4.824-13.201-0.509-4.315-1.777-9.455-3.999-15.803-1.333-3.361-2.601-7.172-3.745-11.361-1.079-4.125-1.459-8.377-1.142-12.819h-17.136l26.338-55.785 26.846 55.785h-19.801c-0.507 2.666-0.126 5.586 0.635 8.505 0.888 3.047 2.031 6.473 3.3 10.346 1.079 3.109 2.159 6.283 3.236 9.838 1.142 3.426 1.713 6.979 1.777 10.789 0.063 3.682-0.444 7.555-1.586 11.424-1.206 3.934-3.428 7.934-6.728 11.993z" fill="#000000"></path>
	<path d="m110.59 155.63 66.259-121.28c10.408-21.355 52.043-9.71 41.698 18.087l-26.212 58.517 153.01-95.294c21.643-10.312 50.074 11.01 29.191 35.604l-103 63.752 5.076 9.139 126.94-78.191c22.342-9.138 40.936 22.34 24.688 34.526l-126.23 81.236 4.063 9.138 108.65-66.005c25.576-5.078 36.555 18.279 25.387 34.526l-108.65 71.051 4.061 9.137 67.402-40.998c26.021-14.82 44.361 19.42 23.355 34.397 0 0-123.95 94.44-177.07 110.18-7.044 2.159-23.545 5.205-31.479 5.076-7.933 0-31.479-4.061-31.479-4.061s-0.063-13.455 3.046-15.231c23.355-12.948 14.153-58.897 14.153-58.897l18.342-7.109-44.934-82.217-33.256 52.771-33.004-57.847h1e-3z" fill="#000000"></path>
	<path d="m150.25 250.04s12.947 16.502 13.645 22.977c0.571 5.84-7.806 22.975-7.806 22.975s-21.706-3.107-18.913-7.361c5.394-8.121-4.76-38.588-4.76-38.588h17.834v-3e-3z" fill="#000000"></path>
</g>
</svg>