<?xml version='1.0' encoding='utf-8'?>
<!-- Generator: Adobe Illustrator 16.0.3, SVG Export Plug-In . SVG Version: 6.00 Build 0)  --><svg xmlns="http://www.w3.org/2000/svg" xmlns:cc="http://creativecommons.org/ns#" xmlns:dc="http://purl.org/dc/elements/1.1/" xmlns:rdf="http://www.w3.org/1999/02/22-rdf-syntax-ns#" width="321.71px" height="425.2px" enable-background="new 0 0 321.707 425.197" version="1.1" viewBox="0 0 321.71 425.2" xml:space="preserve"><metadata><rdf:RDF><cc:Work rdf:about=""><dc:format>image/svg+xml</dc:format><dc:type rdf:resource="http://purl.org/dc/dcmitype/StillImage"></dc:type><dc:title></dc:title></cc:Work></rdf:RDF></metadata>
<path d="m296.71 340.16h-271.71c-6.004 0-10.824-4.82-10.824-10.824v-103.51c0-2.791 1.102-5.498 3.047-7.527l61.227-63.931c2.957-3.213 7.523-4.143 11.836-2.537 4.063 1.691 6.766 5.666 6.766 10.064v37.039l42.875-44.566c2.875-3.213 7.613-4.143 11.84-2.537 4.059 1.691 6.766 5.666 6.766 10.064v37.039l42.708-44.566c2.875-3.213 7.609-4.143 11.836-2.537 4.063 1.691 6.766 5.666 6.766 10.064v53.107h14.461l14.379-148.5c0.508-5.582 5.156-9.811 10.738-9.811h37.293c6.004 0 10.824 4.82 10.824 10.826v261.81c-2e-3 6.005-4.823 10.825-10.827 10.825zm-260.88-21.648h250.06v-240.17h-16.66l-14.375 148.5c-0.508 5.582-5.16 9.811-10.738 9.811h-35.098c-6.004 0-10.824-4.82-10.824-10.824v-37.041l-42.704 44.566c-3.047 3.045-7.695 4.061-11.84 2.537-4.059-1.691-6.766-5.666-6.766-10.063v-37.041l-42.875 44.566c-3.043 3.045-7.609 4.061-11.84 2.537-4.059-1.691-6.766-5.666-6.766-10.063v-36.955l-39.574 41.267v88.373z" fill="#000000"></path>
</svg>