<?xml version='1.0' encoding='utf-8'?>
<!-- Generator: Adobe Illustrator 25.0.0, SVG Export Plug-In . SVG Version: 6.00 Build 0)  --><svg xmlns="http://www.w3.org/2000/svg" xmlns:cc="http://creativecommons.org/ns#" xmlns:dc="http://purl.org/dc/elements/1.1/" xmlns:rdf="http://www.w3.org/1999/02/22-rdf-syntax-ns#" overflow="visible" version="1.2" viewBox="0 0 470 425.2" xml:space="preserve" width="442.14487" height="400.0"><metadata><rdf:RDF><cc:Work rdf:about=""><dc:format>image/svg+xml</dc:format><dc:type rdf:resource="http://purl.org/dc/dcmitype/StillImage"></dc:type><dc:title></dc:title></cc:Work></rdf:RDF></metadata>
<path d="m455.2 214.1c-4.5-10.2-10.5-18.9-18-26-7.4-7.1-15.9-12.8-25.4-17.2s-19.2-7.9-29.1-10.5-19.6-4.5-29.1-5.8c-9.5-1.2-18-2.2-25.4-2.9-0.9-0.1-1.8-0.2-2.5-0.3s-1.5-0.1-2.3-0.3h-32.1l-0.1 0.1c3.6 0.5 7.3 1.1 11.1 2 3.5 0.8 7.6 1.9 12 3.4 4.5 1.4 9 3.1 13.6 5.1l-16.6-0.9c-4.1-1.9-8.1-3.4-12.1-4.6-3.5-1.1-25.1-5.3-29.4-5.3l-34.8-0.6c29.8 4.7 47 15.5 47.1 15.6 4.5 2.7 8.2 5.5 10.9 8.6s4.1 6.5 4.1 10.3c0 4.1-1.9 8.8-5.8 13.9-3.8 5.1-10.2 11-19 17.5-8.9 6.6-20.6 13.9-35.1 22.1s-32.5 17.3-54 27.5c-21.4 10.2-46.6 21.4-75.5 33.7-6.5 2.8-13.2 5.6-20.2 8.5-23.8 10-50.3 20.7-79.5 32.2h44 387.1c8.1-18.3 14-34.8 17.6-49.5s5.4-28 5.4-39.8c-0.1-14.3-2.3-26.6-6.9-36.8zm-113.1-44.2c3.1 2.1 5.9 4.5 8.6 7.3 2.7 2.7 4.9 5.8 6.6 9.2h-18.4c-1.4-3.4-3.2-6.5-5.5-9.2-2.2-2.7-4.7-5.1-7.4-7.3h16.1zm-71.4 152.4c-7.4 5.7-15.4 11.6-23.9 17.9h-46.8c9.9-6.3 19.1-12.2 27.6-17.9s16.5-11.3 24.1-16.8h39.7c-6.4 5.5-13.3 11.1-20.7 16.8zm65.2-60.5c-4.4 5.3-9.5 10.8-15.2 16.7h-34.4c6.9-5.9 12.9-11.5 18.2-16.7 5.3-5.3 10-10.4 14.2-15.3h28.5c-3.1 4.9-6.9 10-11.3 15.3zm23-38.4h-24.4c4-7.9 6.2-15 6.6-21.3h21.3l0.2 3.2c-0.1 5.3-1.3 11.4-3.7 18.1z"></path>
<path d="m252.3 59.3c-3.3 0-6.4 0.7-9.2 2-0.9-27.2-20.4-49-44.6-49-18.9 0-34.9 13.3-41.5 32.1-4.7-6.3-11.7-10.4-19.5-10.4-14.1 0-25.5 13-25.5 29 0 4 0.7 7.9 2 11.4-1.5-0.4-3-0.7-4.6-0.7-10.6 0-19.1 9.7-19.1 21.8 0 11.4 7.8 20.7 17.7 21.6v0.1h144.4c14.1 0 25.5-13 25.5-29-0.1-15.9-11.5-28.9-25.6-28.9z"></path><g fill="none" stroke="#000" stroke-linecap="round" stroke-miterlimit="10" stroke-width="14">
<line x1="218.2" x2="201.2" y1="140.6" y2="204.5"></line>
<line x1="164.7" x2="154.9" y1="186.4" y2="223.4"></line>
<line x1="179.3" x2="174.8" y1="140.6" y2="157.9"></line>
</g><circle cx="132.3" cy="150.3" r="16.9"></circle>
<circle cx="110.3" cy="212.6" r="16.9"></circle>
</svg>