<?xml version='1.0' encoding='utf-8'?>
<!-- Generator: Adobe Illustrator 16.0.0, SVG Export Plug-In . SVG Version: 6.00 Build 0)  --><svg xmlns="http://www.w3.org/2000/svg" xmlns:cc="http://creativecommons.org/ns#" xmlns:dc="http://purl.org/dc/elements/1.1/" xmlns:ns="&amp;ns_sfw;" xmlns:rdf="http://www.w3.org/1999/02/22-rdf-syntax-ns#" width="330px" height="497px" enable-background="new 0 0 330 497" version="1.1" viewBox="0 0 330 497" xml:space="preserve">
<metadata>
	<ns:sfw>
		<ns:slices></ns:slices>
		<ns:sliceSourceBounds x="282.322" y="116.748" width="277.387" height="369.505" bottomLeftOrigin="true"></ns:sliceSourceBounds>
	</ns:sfw>
<rdf:RDF><cc:Work rdf:about=""><dc:format>image/svg+xml</dc:format><dc:type rdf:resource="http://purl.org/dc/dcmitype/StillImage"></dc:type><dc:title></dc:title></cc:Work></rdf:RDF></metadata>
	<path d="m86.585 158.71c0.856 6.854 2.144 14.211 3.854 22.063 1.715 7.855 3.855 15.851 6.427 23.991 3.427 13.854 7.354 26.528 11.78 38.021 4.426 11.498 8.998 22.169 13.709 32.023v17.992c0 4.145-1.5 7.711-4.498 10.711-3 2.998-6.57 4.498-10.711 4.498h-29.986c-2.999 0-5.82-0.783-8.461-2.355-2.645-1.57-4.68-3.643-6.104-6.211-5-9.428-9.783-21.025-14.354-34.811-4.572-13.779-8.568-28.596-11.995-44.447-2.999-13.85-5.321-26.99-6.962-39.414-1.643-12.424-2.463-23.776-2.463-34.058 0-2.283 0.498-4.532 1.498-6.748 0.998-2.212 2.32-4.14 3.964-5.783 1.64-1.64 3.534-2.962 5.676-3.963 2.144-0.998 4.427-1.5 6.854-1.5l11.781 0.857c3.996 0 7.78 0.75 11.352 2.249 3.568 1.5 6.711 3.571 9.426 6.212 2.711 2.644 4.854 5.75 6.426 9.318 1.572 3.575 2.499 7.359 2.787 11.355zm-4.284-51.193c0 2.57-0.964 4.786-2.892 6.64-1.929 1.857-4.392 2.785-7.39 2.785-0.289 0-1.285-0.141-3-0.428-1.713-0.285-3.93-0.643-6.641-1.071-2.714-0.428-5.75-0.89-9.104-1.392-3.357-0.499-6.748-0.964-10.176-1.393-2.143 0-4.106-1.034-5.892-3.106-1.787-2.068-2.679-4.177-2.679-6.319 0-7.423 0.928-13.886 2.785-19.385 1.854-5.496 4.392-10.031 7.604-13.602 3.213-3.568 7.069-6.212 11.567-7.926 4.498-1.713 9.388-2.57 14.673-2.57 3.427 0 6.138 0.964 8.14 2.892 1.999 1.928 2.999 4.391 2.999 7.39l6e-3 37.485zm17.993 166.44c-1.285-3-2.929-6.748-4.927-11.246-2.001-4.498-4.145-9.459-6.426-14.887-2.287-5.428-4.572-11.279-6.854-17.566-2.286-6.281-4.282-12.779-5.998-19.493-2.43-8.997-4.498-17.598-6.212-25.812-1.713-8.21-2.999-16.387-3.854-24.526 0-0.857-0.037-1.821-0.107-2.892-0.072-1.071-0.251-2.105-0.535-3.106-0.287-0.998-0.785-1.821-1.5-2.463-0.716-0.643-1.714-0.964-2.999-0.964h-8.354c-1.284 0-2.463 0.535-3.533 1.606-1.071 1.071-1.605 2.249-1.605 3.534 0 7.999 0.782 16.46 2.355 25.383 1.57 8.926 3.427 18.602 5.568 29.023l1.07 5.355c2.999 14.993 6.641 28.563 10.926 40.699 4.282 12.139 8.707 22.49 13.279 31.061h15.424c1.283 0 2.317-0.537 3.104-1.607 0.782-1.068 1.178-2.25 1.178-3.535v-8.564zm80.112 4.283c-0.57 0-0.855-0.285-0.855-0.857 0-1.141 0.285-1.998 0.855-2.57l16.279-38.341c0.428-0.428 0.713-0.676 0.854-0.75 0.143-0.067 0.432-0.104 0.857-0.104l0.857 0.854 17.137 38.341c0 0.572 0.141 1.002 0.428 1.285 0.143 0.289 0.285 0.432 0.428 0.432 0 0.717-0.143 1.215-0.428 1.496-0.145 0.146-0.287 0.219-0.428 0.219h-9.426l-5.998 28.061c4.713-0.857 9.352-1.5 13.924-1.928 4.568-0.43 9.854-0.646 15.852-0.646l5.998-25.486h-5.998c-1.145 0-1.715-0.713-1.715-2.146v-1.285l17.137-38.341c0.43-0.428 0.715-0.676 0.857-0.75 0.141-0.07 0.428-0.104 0.855-0.104l0.855 0.854 16.279 38.341c0.43 0.432 0.676 0.719 0.75 0.857 0.068 0.145 0.105 0.428 0.105 0.855 0 1.146-0.57 1.715-1.713 1.715h-7.713l-5.996 25.49c2.143-0.43 4.176-0.678 6.104-0.75 1.928-0.07 4.178-0.107 6.748-0.107 2.568 0 5.389 0.037 8.461 0.107 3.066 0.072 6.459 0.25 10.174 0.535 3.141 0.287 6.104 1.107 8.891 2.463 2.785 1.359 5.143 3.072 7.068 5.143 1.928 2.07 3.461 4.465 4.604 7.176 1.143 2.713 1.715 5.568 1.715 8.568l-6.854 40.055c-0.289 2.57-1.072 4.965-2.357 7.176-1.283 2.217-2.928 4.107-4.926 5.678-2.002 1.572-4.285 2.82-6.854 3.748-2.57 0.934-5.215 1.395-7.926 1.395h-20.564l-4.283 11.996v3.428c0 0.428 0.033 0.891 0.107 1.393 0.068 0.498 0.32 1.178 0.75 2.033l9.424 16.066-17.135 9.424-11.141-18.85c-0.717-1.285-1.18-2.717-1.393-4.283-0.215-1.574-0.322-3.213-0.322-4.928 0-1.285 0.033-2.537 0.107-3.748 0.068-1.217 0.32-2.25 0.75-3.105l3.428-9.426h-28.912l-4.283 11.996c-0.57 0.566-0.855 1.713-0.855 3.428l0.855 3.426 10.281 16.066-17.992 9.424-10.283-18.85c-0.854-1.285-1.643-2.717-2.354-4.283-0.717-1.574-1.07-3.213-1.07-4.928 0-1.285 0.18-2.537 0.535-3.748 0.355-1.217 0.75-2.248 1.178-3.105l3.43-8.568h-28.919l-4.282 11.139v2.57c0 0.43 0.032 1.143 0.105 2.143 0.07 0.998 0.32 1.715 0.75 2.143l9.425 16.064-17.137 9.426-11.138-18.85c-0.717-1.285-1.322-2.715-1.822-4.285-0.502-1.572-0.75-3.213-0.75-4.928 0-1.283 0.142-2.535 0.43-3.746 0.284-1.217 0.43-2.25 0.43-3.107l4.282-8.564h-19.707c-4.571 0-8.642-1.25-12.209-3.75-3.569-2.496-6.284-5.816-8.14-9.963l-16.277-36.631c-0.145 0-0.288-0.141-0.429-0.43-0.288-0.283-0.429-0.713-0.429-1.285 0-1.713 0.568-3.139 1.713-4.283 1.143-1.143 2.572-1.715 4.285-1.715 9.424 0 18.025-0.391 25.812-1.178 7.782-0.783 15.103-1.82 21.956-3.104h-0.855c-0.857-1.717-1.5-3.32-1.93-4.818-0.429-1.5-0.643-3.32-0.643-5.463 0-0.857 0.033-1.68 0.105-2.463 0.07-0.783 0.321-1.396 0.75-1.82l7.711-30.631h-7.711c-0.145 0-0.287-0.145-0.429-0.432-0.288-0.281-0.429-0.713-0.429-1.283-0.145 0-0.145-0.143 0-0.432 0-0.281 0.285-0.713 0.856-1.285l17.138-38.341c0-0.567 0.567-0.854 1.713-0.854-0.146 0.143-0.146 0.287 0 0.428 0 0.287 0.285 0.428 0.855 0.428l16.064 38.344c0.285 0.287 0.429 0.535 0.429 0.75s0.069 0.395 0.214 0.535c0 0.287 0.07 0.43 0.214 0.43 0 0.855-0.181 1.357-0.534 1.498-0.357 0.145-0.75 0.215-1.179 0.215h-7.497l-6.854 31.486c-0.572 0-0.857 0.572-0.857 1.715 0 0.717 0.143 1.5 0.43 2.355 0.141 0.428 0.283 0.787 0.428 1.07l2.57 4.285 25.49-7.711 8.566-33.201h-7.711v-8e-3h4e-3zm-34.915 64.905c-2.714 0.717-5.998 1.357-9.853 1.928-3.856 0.572-7.604 1.145-11.246 1.715-3.644 0.57-6.748 1.285-9.318 2.141-2.571 0.857-3.855 2.002-3.855 3.428 0 1.146 0.284 2.004 0.856 2.57l2.569 8.568c1.143 1.145 1.998 1.713 2.569 1.713h27.418l5.142-13.709c0-0.996-0.571-2.068-1.713-3.213l-2.569-5.141zm40.913-11.996c-3.428 1.285-7.25 2.645-11.461 4.07-4.213 1.43-7.748 2.355-10.604 2.785l1.5 3.426c1.715 2.57 2.57 5.715 2.57 9.426 0 1.145-0.182 2.355-0.536 3.643-0.356 1.285-0.75 2.568-1.179 3.854l-2.355 6.855h28.92l4.283-11.139v-2.57c0-0.285-0.037-0.783-0.107-1.5-0.074-0.713-0.32-1.285-0.75-1.713l-10.281-17.137zm27.418 33.201h28.916l4.285-10.279v-2.572c0-0.283-0.037-0.783-0.107-1.498-0.072-0.713-0.32-1.285-0.748-1.715l-13.709-24.848h-1.715c-4.283 0-8.318 0.32-12.104 0.965-3.785 0.643-7.389 1.178-10.816 1.605h-1.715l9.426 15.422c0.713 1.146 1.318 2.357 1.82 3.643 0.498 1.285 0.75 2.715 0.75 4.283 0 3.145-0.572 6.143-1.713 8.996l-2.57 6.855v-0.857zm50.338-22.92c0.996 1.432 1.678 3 2.033 4.713 0.355 1.715 0.537 3.502 0.537 5.355 0 1.145-0.182 2.285-0.537 3.428-0.355 1.145-0.748 2.285-1.178 3.426l-1.713 5.998h11.996c0.428 0 0.926-0.068 1.498-0.213 0.568-0.141 0.855-0.643 0.855-1.5l5.998-36.629c0-0.568-0.572-0.855-1.715-0.855l-1.713-0.857c-5.43-0.428-10.174-0.676-14.244-0.75-4.07-0.07-7.818-0.107-11.246-0.107l9.429 17.991z" fill="#000000"></path>
</svg>