<?xml version='1.0' encoding='utf-8'?>
<!-- Generator: Adobe Illustrator 16.0.0, SVG Export Plug-In . SVG Version: 6.00 Build 0)  --><svg xmlns="http://www.w3.org/2000/svg" xmlns:cc="http://creativecommons.org/ns#" xmlns:ns="&amp;ns_sfw;" xmlns:rdf="http://www.w3.org/1999/02/22-rdf-syntax-ns#" xmlns:dc="http://purl.org/dc/elements/1.1/" width="458px" height="461px" enable-background="new 0 0 458 461" version="1.1" viewBox="0 0 458 461" xml:space="preserve">
<metadata>
	<ns:sfw>
		<ns:slices></ns:slices>
		<ns:sliceSourceBounds x="219.352" y="129.077" width="403.287" height="356.847" bottomLeftOrigin="true"></ns:sliceSourceBounds>
	</ns:sfw>
<rdf:RDF><cc:Work rdf:about=""><dc:format>image/svg+xml</dc:format><dc:type rdf:resource="http://purl.org/dc/dcmitype/StillImage"></dc:type><dc:title></dc:title></cc:Work></rdf:RDF></metadata>
	<path d="m414.27 330.58 14.677 25.629c1.021 1.752 1.646 3.543 1.862 5.367 0.219 1.828 0.329 3.979 0.329 6.463v2.848c0 3.648-0.733 7.152-2.191 10.518-1.461 3.354-3.433 6.352-5.914 8.979-2.482 2.629-5.401 4.709-8.763 6.242s-6.938 2.301-10.733 2.301h-346.11c-3.799 0-7.446-0.768-10.951-2.301-3.507-1.533-6.646-3.613-9.42-6.242-2.775-2.629-5.005-5.625-6.682-8.979-1.682-3.361-2.52-6.867-2.52-10.518 0-3.211 0.51-6.313 1.531-9.311 1.021-2.992 2.644-6.561 5.115-10.322l169.48-294.5c2.188-4.234 5.656-7.739 10.403-10.515 4.744-2.772 9.748-4.162 15.007-4.162 5.398 0 10.549 1.39 15.44 4.162 4.895 2.776 8.944 6.281 12.158 10.515l157.29 273.82zm-6.351 33.953-169.99-297.26c-1.011-1.517-1.798-2.097-3.011-2.934-1.203-0.831-2.291-1.267-4.624-1.213-2.001 0.046-3.378 0.296-4.854 1.299-1.515 1.03-2.409 2.848-2.409 2.848l-171.96 297.26c-1.461 1.896-2.189 4.02-2.189 6.354 0 1.023 0.911 2.338 2.738 3.943 1.823 1.604 3.758 2.408 5.805 2.408h346.11c2.19 0 3.796-0.807 4.819-2.408 1.02-1.605 1.533-2.92 1.533-3.943 0-1.021-0.075-2.082-0.219-3.178-0.147-1.094-0.731-2.154-1.75-3.176zm-178.53-248.41c-3.801 0-7.34 0.767-10.625 2.3-3.286 1.533-6.173 3.689-8.653 6.462-2.484 2.776-4.456 6.134-5.915 10.077-1.461 3.943-2.189 8.252-2.189 12.925v114.79c0 4.236 0.729 8.289 2.189 12.158 1.458 3.871 3.431 7.266 5.915 10.186 2.48 2.922 5.367 5.227 8.653 6.9 3.284 1.68 6.823 2.52 10.625 2.52 4.231 0 8.177-0.84 11.829-2.52 3.646-1.678 6.822-3.98 9.526-6.9 2.7-2.92 4.819-6.313 6.354-10.186 1.533-3.869 2.3-7.922 2.3-12.158v-114.79c0-4.672-0.767-8.981-2.3-12.925-1.533-3.943-3.652-7.301-6.354-10.077-2.704-2.772-5.881-4.929-9.526-6.462-3.652-1.533-7.596-2.299-11.829-2.299zm-27.383 220.81c0 3.801 0.769 7.34 2.302 10.625 1.531 3.285 3.612 6.209 6.241 8.766 2.628 2.557 5.729 4.563 9.312 6.021 3.577 1.461 7.48 2.189 11.719 2.189 3.796 0 7.373-0.729 10.734-2.189 3.354-1.459 6.313-3.469 8.871-6.021 2.554-2.557 4.563-5.479 6.021-8.766 1.458-3.285 2.19-6.824 2.19-10.625 0-3.795-0.732-7.373-2.19-10.73-1.462-3.357-3.471-6.277-6.021-8.766-2.56-2.479-5.517-4.453-8.871-5.914-3.361-1.459-6.938-2.188-10.734-2.188-4.236 0-8.143 0.729-11.719 2.188-3.581 1.461-6.684 3.436-9.312 5.914-2.629 2.486-4.71 5.404-6.241 8.766-1.535 3.357-2.302 6.935-2.302 10.73z" fill="#FFCE63"></path>
</svg>