<?xml version='1.0' encoding='utf-8'?>
<!-- Generator: Adobe Illustrator 16.0.0, SVG Export Plug-In . SVG Version: 6.00 Build 0)  --><svg xmlns="http://www.w3.org/2000/svg" xmlns:cc="http://creativecommons.org/ns#" xmlns:dc="http://purl.org/dc/elements/1.1/" xmlns:rdf="http://www.w3.org/1999/02/22-rdf-syntax-ns#" width="539px" height="425.2px" version="1.2" viewBox="0 0 539 425.2" xml:space="preserve"><metadata><rdf:RDF><cc:Work rdf:about=""><dc:format>image/svg+xml</dc:format><dc:type rdf:resource="http://purl.org/dc/dcmitype/StillImage"></dc:type><dc:title></dc:title></cc:Work></rdf:RDF></metadata>
<path d="m394.49 409.16-86.999-106.03 10.092-29.152c-90.693-77.797-142.49-154.06-149.26-184.55-4.969-22.342-1.323-42.61 10.268-57.062 16.667-20.796 49.323-25.898 73.604-11.483 14.765 8.74 33.537 27.238 55.274 48.652 17.739 17.472 36.08 35.542 52.568 48.428 40.269 31.485 71.904 36.05 72.227 36.098l11.886 1.6 0.091 12.011c0 0.125 0.441 21.672 15.708 52.2 15.209 30.412 52.067 68.223 52.438 68.601l10.241 10.463-128.14 110.22v-2e-3zm-56.025-111.57 59.42 72.422 84.897-73.029c-13.012-14.406-35.443-40.939-47.4-64.836-11.475-22.94-15.875-41.904-17.552-53.208-14.657-3.949-42.452-14.131-74.711-39.351-17.73-13.852-36.631-32.486-54.928-50.494-19.598-19.321-38.123-37.56-50-44.594-12.823-7.596-29.856-5.327-38.196 5.041-6.362 7.944-8.051 19.669-4.888 33.932 3.79 17.016 55.8 96.776 148.14 177.72l5.711 6.051-10.496 30.341z" fill="#000000"></path>
<path d="m194.7 185.85-101.32-8.179 24.989 29.154c-27.963 22-87.465 78.187-103.66 168.27h74.873c15.841-61.715 60.348-100.32 76.471-112.63l23.415 27.309 5.232-103.92z" fill="#000000"></path>
</svg>