<?xml version='1.0' encoding='utf-8'?>
<!-- Generator: Adobe Illustrator 25.0.0, SVG Export Plug-In . SVG Version: 6.00 Build 0)  --><svg xmlns="http://www.w3.org/2000/svg" xmlns:cc="http://creativecommons.org/ns#" xmlns:dc="http://purl.org/dc/elements/1.1/" xmlns:rdf="http://www.w3.org/1999/02/22-rdf-syntax-ns#" overflow="visible" version="1.2" viewBox="0 0 407 425.2" xml:space="preserve" width="382.87863" height="400.0"><metadata><rdf:RDF><cc:Work rdf:about=""><dc:format>image/svg+xml</dc:format><dc:type rdf:resource="http://purl.org/dc/dcmitype/StillImage"></dc:type><dc:title></dc:title></cc:Work></rdf:RDF></metadata>
		<path d="m408.5 147.5h-366.8v86.5l7.3-3.1c14.1-6.3 28.7-8.9 43.8-8.9 61 0 110.5 49.5 110.5 110.5 0 13-2.1 25.5-6.8 38l-2.6 6.8h214.2v-229.8h0.4z" fill="#000000"></path>
		<path d="m89.1 38.6-3.1 0.5-49 6.8-8.3 1 4.7 6.8 37 54.2 2.1 2.6 3.1-0.5 48.5-6.8 8.3-1-4.7-6.8-37-54.2-1.6-2.6z" fill="#000000"></path>
		<path d="m180.3 25.5-3.1 0.5-48.5 6.8-8.3 1 4.7 6.8 37 54.2 2.1 2.6 3.1-0.5 48.5-6.8 8.3-1-4.7-6.8-37-54.2-2.1-2.6z" fill="#000000"></path>
		<path d="m272 12.5-3.1 0.5-49 6.8-8.3 1 4.7 6.8 37 54.7 2.1 2.6 3.1-0.5 48.5-6.8 8.3-1-4.7-6.8-37-54.2-1.6-3.1z" fill="#000000"></path>
		<path d="m363.2 0-3.1 0.5-48.5 6.8-8.3 1 4.7 6.8 37 54.2 2.1 2.6 3.1-0.5 48.5-6.8 8.3-1-4.7-6.8-37-54.2-2.1-2.6z" fill="#000000"></path>
	<path d="m92.8 239.7c-51.1 0-92.8 41.7-92.8 92.7s41.7 92.8 92.8 92.8 92.8-41.7 92.8-92.8c-0.1-51.5-41.8-92.7-92.8-92.7zm10.4 149h-20.9v-76.6h20.8v76.6zm-10.4-90.1c-7.8 0-14.1-6.3-14.1-14.1s6.3-14.1 14.1-14.1 14.1 6.3 14.1 14.1c-0.1 7.8-6.3 14.1-14.1 14.1z" fill="#000000"></path>
</svg>