<?xml version='1.0' encoding='utf-8'?>
<!-- Generator: Adobe Illustrator 16.0.0, SVG Export Plug-In . SVG Version: 6.00 Build 0)  --><svg xmlns="http://www.w3.org/2000/svg" xmlns:cc="http://creativecommons.org/ns#" xmlns:dc="http://purl.org/dc/elements/1.1/" xmlns:ns="&amp;ns_sfw;" xmlns:rdf="http://www.w3.org/1999/02/22-rdf-syntax-ns#" width="911px" height="455px" enable-background="new 0 0 911 455" version="1.1" viewBox="0 0 911 455" xml:space="preserve">
<metadata>
	<ns:sfw>
		<ns:slices></ns:slices>
		<ns:sliceSourceBounds x="2.25" y="141.26" width="839.391" height="328" bottomLeftOrigin="true"></ns:sliceSourceBounds>
	</ns:sfw>
<rdf:RDF><cc:Work rdf:about=""><dc:format>image/svg+xml</dc:format><dc:type rdf:resource="http://purl.org/dc/dcmitype/StillImage"></dc:type><dc:title></dc:title></cc:Work></rdf:RDF></metadata>
	<path d="m116.45 249.34h-27.6v92.801h-51.6v-281.6h98.4c43.5 0 73.2 40.8 73.2 94.399 0 36.801-14.7 66.801-39.602 81.602l52.8 105.6h-61.198l-44.4-92.802zm-27.6-59.198h38.399c16.2 0 27.602-14 27.602-35.201 0-21.199-12.302-33.6-27.602-33.6h-38.399v68.801z" fill="#000000"></path>
	<path d="m387.64 279.74v62.399h-151.2v-281.6h148.8v62.4h-97.2v49.6h86.4v57.6h-86.4v49.601h99.6z" fill="#000000"></path>
	<path d="m402.64 250.94h53.698c0 25.6 10.802 33.6 35.701 33.6 27.899 0 36-7.6 36-24 0-14.4-11.101-20.801-32.399-25.6l-20.4-4.802c-42-10-70.8-32.399-70.8-86.399 0-52.8 26.7-88 87.601-88 67.5 0 86.101 42.8 86.101 94.4h-52.2c0-21.201-9.3-32-32.7-32-27.6 0-33.6 6-33.6 22.4 0 13.601 8.1 20.399 36 27.2l19.2 4.8c39.6 10 69.6 28.8 69.6 84.799 0 56.4-27.6 89.603-92.398 89.603-67.804-1e-3 -89.104-39.603-89.404-96.001z" fill="#000000"></path>
	<path d="m676.24 60.54h51.602l-106.8 323.2h-51.6l106.8-323.2z" fill="#000000"></path>
	<path d="m876.64 228.54h-49.2v65.6h-44.4v-65.6h-50.4v-54.4h50.398v-65.6h44.4v65.6h49.2l2e-3 54.4z" fill="#000000"></path>
</svg>