<?xml version='1.0' encoding='utf-8'?>
<!-- Generator: Adobe Illustrator 27.2.0, SVG Export Plug-In . SVG Version: 6.00 Build 0)  --><svg xmlns="http://www.w3.org/2000/svg" xmlns:xlink="http://www.w3.org/1999/xlink" version="1.2" baseProfile="tiny" id="Vrstva_1" x="0px" y="0px" viewBox="0 0 56.7 56.7" overflow="visible" xml:space="preserve" width="400.0" height="400.0">
<g>
	<path d="M40.3,36h-5.6c-2.7,0-4.9,2-5.3,4.5c-0.3,0-0.7,0.1-1,0.1c-7.7,0-13.9-6.2-13.9-13.9c0-7.7,6.2-13.9,13.9-13.9   c7.7,0,13.9,6.2,13.9,13.9c0,2-0.4,3.9-1.2,5.6l2.6,1.2c1-2.1,1.4-4.4,1.4-6.8c0-9.2-7.5-16.8-16.8-16.8s-16.8,7.5-16.8,16.8   c0,9.2,7.5,16.8,16.8,16.8c0.4,0,0.9-0.1,1.3-0.1c0.8,2,2.7,3.4,5,3.4h5.6v-1.9h4.4V43h-4.4v-3.2h4.4v-1.9h-4.4V36z"></path>
	<polygon points="26.9,25.3 20.4,25.3 20.4,28.1 29.8,28.1 29.8,16.3 26.9,16.3  "></polygon>
</g>
<g>
</g>
<g>
</g>
<g>
</g>
<g>
</g>
<g>
</g>
<g>
</g>
</svg>