<?xml version='1.0' encoding='utf-8'?>
<!-- Generator: Adobe Illustrator 16.0.0, SVG Export Plug-In . SVG Version: 6.00 Build 0)  --><svg xmlns="http://www.w3.org/2000/svg" xmlns:cc="http://creativecommons.org/ns#" xmlns:dc="http://purl.org/dc/elements/1.1/" xmlns:rdf="http://www.w3.org/1999/02/22-rdf-syntax-ns#" width="424px" height="425.2px" version="1.2" viewBox="0 0 424 425.2" xml:space="preserve"><metadata><rdf:RDF><cc:Work rdf:about=""><dc:format>image/svg+xml</dc:format><dc:type rdf:resource="http://purl.org/dc/dcmitype/StillImage"></dc:type><dc:title></dc:title></cc:Work></rdf:RDF></metadata>
<g fill="#1D1D1B">
	<path d="m330 171.64c0.621-0.634 1.627-2.13 1.95-2.949 0.335-0.826 0.621-2.626 0.634-3.515 0-0.478-0.174-1.421-0.286-1.887-0.273-1.081-1.478-4.204-1.478-4.204s-1.267 1.224-1.689 1.621c-0.881 0.825-2.682 2.458-3.576 3.278-2.049 1.887-6.134 5.662-8.183 7.556-5.575 5.153-16.702 15.503-22.265 20.669-8.779 8.152-26.251 24.568-35.129 32.621-0.162 0.137-0.634 0.559-0.634 0.559l-1.465-1.478-2.087-2.086-1.191-1.192 1.688-1.688c0.895-0.876 2.72-2.583 3.626-3.446 2.049-1.962 6.135-5.88 8.184-7.835 5.6-5.339 16.813-16.006 22.413-21.333 8.842-8.406 26.524-25.183 35.341-33.607 0.161-0.155 0.633-0.627 0.633-0.627s-5.438-1.515-7.289-1.329c-1.515 0.155-4.383 1.428-5.662 2.254-0.46 0.298-1.217 1.148-1.614 1.527-0.832 0.776-2.521 2.303-3.353 3.079-1.9 1.77-5.676 5.358-7.563 7.141-5.153 4.861-15.51 14.541-20.676 19.396-8.146 7.662-24.499 22.873-32.521 30.659-0.137 0.137-0.57 0.546-0.57 0.546l-1.615-1.824-3.7-4.204-0.782-0.894s1.217-1.112 1.614-1.478c0.845-0.764 2.583-2.242 3.428-2.999 1.937-1.732 5.774-5.253 7.698-7.004 5.253-4.769 15.808-14.286 21.072-19.048 8.295-7.506 24.588-22.861 33.18-30.032 0.162-0.13 0.46-0.385 0.634-0.497 1.751-1.117 5.353-3.278 7.352-3.843 1.564-0.447 4.88-0.559 6.507-0.466 2.582 0.143 7.885 0.671 10.157 1.875 1.788 0.95 4.78 3.955 5.725 5.75 1.142 2.167 1.775 7.183 1.825 9.636 0.05 2.16-0.633 6.481-1.254 8.549-0.584 1.975-2.272 5.83-3.49 7.488-0.322 0.447-1.217 1.117-1.613 1.49-0.82 0.77-2.459 2.315-3.278 3.079-1.9 1.757-5.749 5.24-7.662 6.991-5.153 4.737-15.423 14.28-20.563 19.03-8.121 7.5-32.533 29.958-32.533 29.958l-0.646 0.546-1.478-1.862-2.024-2.583-1.191-1.614s1.143-1.043 1.527-1.391c0.832-0.771 2.483-2.26 3.315-3.03 1.875-1.713 5.612-5.141 7.487-6.854 5.092-4.65 15.273-13.951 20.365-18.613 8.021-7.352 23.556-22.631 32.063-29.424 0.146-0.127 0.506-0.319 0.642-0.462z" fill="#000000"></path>
	<path d="m234.93 269.83-1.626-2.583-1.056-1.614s-6.582 4.992-8.879 6.507c-2.694 1.764-8.232 5.116-11.113 6.557-2.931 1.49-12.051 5.141-12.051 5.141s1.366-1.416 1.825-1.888c0.702-0.745 2.099-2.21 2.8-2.955 1.925-1.987 5.774-5.985 7.699-7.972 2.632-2.732 7.885-8.146 10.505-10.878 0.447-0.472 1.813-1.862 1.813-1.862l-0.981-1.143-2.372-2.633-0.496-0.547s-1.59 1.168-2.111 1.59c-0.795 0.621-2.347 1.938-3.142 2.583-2.148 1.714-6.47 5.165-8.618 6.879-2.955 2.359-8.866 7.078-11.815 9.438-0.509 0.397-2.03 1.614-2.03 1.614s3.626-8.195 5.166-10.729c1.049-1.764 3.545-4.992 4.843-6.581 2.533-3.08 10.778-11.747 10.778-11.747l-1.043-1.093s-1.788-2.036-2.384-2.707c-0.124-0.124-0.497-0.547-0.497-0.547s-7.003 4.421-9.027 6.284c-2.167 2.011-5.824 6.68-7.488 9.113-1.856 2.732-5.123 8.469-6.445 11.475-1.204 2.756-2.663 8.593-3.707 11.424-0.478 1.291-1.44 3.824-2.098 5.041-0.932 1.714-3.005 5.042-4.415 6.383-1.341 1.292-4.557 3.254-6.302 3.899-2.173 0.819-6.86 1.217-9.17 1.391-0.329 0.024-1.323 0-1.323 0h-1.335s1.813-10.53 2.943-13.907c1.186-3.552 4.377-10.406 6.358-13.585 1.422-2.285 5.073-6.308 6.737-8.419 2.303-2.931 7.251-8.568 9.089-11.821 1.974-3.478 4.917-10.952 5.879-14.827 0.695-2.807 1.261-11.474 1.261-11.474s-1 0.993-1.335 1.341c-0.553 0.547-1.676 1.615-2.235 2.148-0.77 0.732-3.079 2.943-3.079 2.943l-0.491 0.496 0.428-2.445s0.59-3.055 0.776-4.073c0.254-1.379 0.975-5.532 0.975-5.532l0.199-0.98-1.465-1.54-2.937-3.148-6.861-7.202-18.558-19.682-29.188-31.056-0.552-0.559s-0.832 1.403-1.118 1.869c-0.472 0.776-1.428 2.31-1.9 3.08-0.652 1.068-1.9 3.229-2.583 4.272-0.118 0.18-0.491 0.701-0.491 0.701s-0.646-5.656-1.118-7.487c-0.516-1.987-2.018-5.837-2.875-7.705-0.819-1.776-2.384-5.477-3.774-6.854-0.187-0.187-0.677-0.379-0.913-0.497-0.348-0.174-1.049-0.472-1.403-0.633-0.789-0.36-2.366-1.081-3.148-1.453-0.478-0.23-1.894-0.932-1.894-0.932s2.856 8.041 3.508 10.804c0.329 1.391 0.819 4.234 0.845 5.662 0.031 1.993-0.609 5.948-0.919 7.916-0.851 5.427-3.434 16.118-4.266 21.551-0.615 3.986-1.825 11.995-1.757 16.031 0.031 1.943 0.621 5.823 1.117 7.705 0.479 1.813 2.732 6.99 2.732 6.99s-4.452-1.402-5.811-2.154c-2.949-1.626-8.357-5.78-10.71-8.195-1.118-1.148-3.775-5.19-3.775-5.19s0 1.273 0 1.695c0 0.44-0.031 1.31 0 1.751 0.205 2.887 0.925 8.654 1.608 11.467 0.764 3.143 2.856 9.282 4.272 12.188 1.267 2.595 4.414 7.463 6.227 9.723 0.41 0.497 1.36 1.366 1.826 1.813 0.72 0.695 2.21 2.036 2.937 2.731 1.962 1.862 5.824 5.662 7.767 7.55 2.676 2.607 8.003 7.823 10.71 10.381 0.465 0.422 1.887 1.738 1.887 1.738s-0.317 0.299-0.422 0.397c-0.124 0.124-0.478 0.497-0.478 0.497s-1.583-0.943-2.111-1.242c-0.782-0.472-2.359-1.415-3.142-1.887-3.521-2.137-10.512-6.457-14.082-8.494-0.249-0.148-1.031-0.547-1.031-0.547s3.415 9.487 5.383 12.17c1.851 2.533 6.699 6.655 9.382 8.27 2.868 1.738 9.381 3.626 12.529 4.769 2.887 1.043 8.947 2.459 11.61 3.974 2.428 1.416 6.768 5.116 8.475 7.352 0.895 1.167 2.117 3.874 2.583 5.265 0.509 1.515 1.205 6.283 1.205 6.283s-7.754 3.8-10.027 5.538c-0.895 0.695-2.502 2.359-3.136 3.304-0.975 1.44-2.415 4.693-2.875 6.382-0.571 2.111-1.093 6.508-0.919 8.668 0.205 2.558 1.416 7.649 2.676 9.885 1.278 2.26 5.06 6.01 7.202 7.475 1.13 0.795 3.725 1.788 5.047 2.161 1.428 0.372 4.402 0.894 5.874 0.77 2.123-0.198 6.352-1.391 8.121-2.583 1.155-0.77 2.825-3.079 3.57-4.271 1.825-2.855 4.296-9.264 5.749-12.318 1.143-2.408 3.204-7.4 4.619-9.66 1.993-3.18 6.569-9.239 9.369-11.747 3.049-2.732 10.282-6.78 13.864-8.767 4.042-2.235 12.61-5.737 16.658-7.973 1.949-1.093 5.774-3.427 7.562-4.769 2.447-1.837 9.152-8.12 9.152-8.12l-1.237-1.818zm-81.974 10.48c-0.056 0.124-0.218 0.497-0.218 0.497s-1.198-1.192-1.596-1.615c-0.633-0.646-1.887-1.937-2.526-2.582-1.708-1.714-5.141-5.141-6.854-6.854-2.359-2.359-7.091-7.078-9.444-9.438-0.404-0.423-1.248-1.192-1.621-1.64-2.452-2.831-6.947-8.891-9.027-12.02-1.093-1.64-3.129-5.017-3.986-6.78-1.192-2.483-3.924-10.231-3.924-10.231s1.36 0.794 1.813 1.067c0.683 0.397 2.049 1.192 2.732 1.589 1.856 1.094 5.575 3.254 7.432 4.347 2.515 1.466 7.55 4.421 10.071 5.861 0.454 0.272 1.819 1.067 1.819 1.067s0-1.217 0-1.614v-2.235c0-0.348 0.025-1.018 0-1.341-0.162-2.384-0.745-7.128-1.26-9.438-0.342-1.539-1.335-4.52-1.888-5.997-1.124-2.993-3.8-8.816-5.116-11.729-1.248-2.763-3.948-8.171-5.109-10.965-0.528-1.272-1.534-3.843-1.882-5.172-0.472-1.819-1.198-5.551-1.191-7.432 6e-3 -2.204 0.825-6.588 1.465-8.699 0.683-2.26 2.633-6.587 3.85-8.612 1.143-1.906 5.451-6.991 5.451-6.991s0 1.639 0 2.186v2.999c0 0.435 0.05 1.304 0 1.739-0.155 1.447-1.161 4.228-1.248 5.681-0.037 0.577 0.112 1.751 0.211 2.322 0.298 1.72 1.149 5.123 1.683 6.787 0.857 2.663 4.117 10.418 4.117 10.418l13.026-13.846s-1.285 4.147-1.322 5.582c-0.013 0.391 0.161 1.167 0.279 1.54 0.261 0.838 1.08 2.421 1.459 3.216 0.242 0.503 0.751 1.49 0.993 1.986 0.354 0.721 1.05 2.148 1.397 2.869 1.564 3.222 4.762 9.63 6.295 12.865 0.106 0.229 0.317 0.683 0.422 0.913 0.782 1.726 2.564 5.097 3.079 6.923 0.211 0.751 0.466 2.315 0.429 3.098-0.081 1.825-1.08 5.377-1.62 7.128-0.466 1.489-2.31 5.836-2.31 5.836s7.68-4.719 9.797-6.817c2.192-2.173 7.152-10.07 7.152-10.07v1.459 2.043c0 0.311 0.025 0.943 0 1.254-0.186 2.434-0.844 7.313-1.478 9.673-0.658 2.435-2.713 7.103-3.713 9.438-0.242 0.571-0.801 1.664-1.056 2.235-0.397 0.869-1.142 2.633-1.533 3.502-1.111 2.533-3.371 7.55-4.489 10.083-2.651 5.984-7.898 17.955-10.561 23.915z" fill="#000000"></path>
	<path d="m164.93 110.08c-0.031-0.149-0.31-0.311-0.416-0.416-0.105-0.105-0.273-0.404-0.422-0.41-0.564-0.024-1.322 1.087-1.751 1.453-0.708 0.603-2.098 1.844-2.806 2.452-0.969 0.832-2.98 2.409-3.918 3.278-0.162 0.155-0.621 0.652-0.621 0.652l-1.198-1.677-1.888-2.663-2.595-3.713-0.422-0.627s1.105-1.005 1.484-1.329c0.379-0.323 1.13-0.969 1.533-1.26 0.925-0.665 2.825-1.943 3.85-2.446 2.186-1.062 6.892-2.39 9.17-3.235 2.471-0.919 7.444-2.657 9.797-3.843 1.906-0.962 5.532-3.222 7.215-4.539 1.434-1.117 4.085-3.638 5.246-5.035 1.074-1.285 2.49-4.439 3.707-5.594 0.267-0.254 0.956-0.552 1.272-0.733 0.403-0.223 1.205-0.664 1.608-0.894 0.248-0.143 0.987-0.565 0.987-0.565s-1.435 9.319-2.322 12.325c-0.447 1.515-1.472 4.576-2.384 5.867-1.471 2.074-5.868 4.88-7.618 6.724-1.124 1.186-3.142 3.769-4.061 5.116-1.819 2.657-6.519 11.113-6.519 11.113l0.422 0.435 0.416 0.429s1.267-1.217 1.689-1.621c0.77-0.733 2.31-2.198 3.073-2.937 1.832-1.757 5.482-5.283 7.283-7.071 0.354-0.348 1.403-1.403 1.403-1.403s-0.478 1.428-0.633 1.9c-0.236 0.714-0.677 2.154-0.907 2.869-1.037 3.16-3.278 9.437-4.284 12.604-0.075 0.229-0.211 0.683-0.273 0.913-0.479 1.689-1.484 5.054-1.819 6.774-0.105 0.559-0.298 1.683-0.273 2.254 0.025 0.515 0.192 1.558 0.422 2.018 0.093 0.187 0.378 0.509 0.552 0.633 0.242 0.174 0.82 0.385 1.118 0.41 0.267 0.025 0.813-0.093 1.055-0.198 0.559-0.249 1.527-1.037 1.962-1.472 0.497-0.497 1.297-1.646 1.676-2.235 0.665-1.037 1.633-3.309 2.297-4.34 1.347-2.086 4.228-6.202 6.097-7.835 1.117-0.975 3.831-2.26 5.109-3.017 0.261-0.155 0.789-0.472 1.05-0.627 0.385-0.23 1.161-0.677 1.546-0.913 1.037-0.64 3.092-1.962 4.129-2.602 1.428-0.882 4.284-2.626 5.725-3.477 0.248-0.143 0.745-0.441 0.993-0.578 0.695-0.379 2.062-1.18 2.807-1.459 0.272-0.099 0.831-0.279 1.117-0.279 0.224 0 0.906 0.199 0.906 0.199s0.174 0.148 0.212 0.211c0.049 0.099 0.123 0.304 0.148 0.416v0.149c-0.025 0.093-0.1 0.267-0.148 0.348-0.225 0.391-0.771 1.111-1.044 1.478-1.639 2.173-5.24 6.24-6.805 8.462-1.391 1.981-3.974 6.085-5.035 8.264-0.565 1.155-1.484 3.576-1.813 4.818-0.497 1.888-1.217 5.768-1.192 7.724 0.024 2.173 1.242 6.383 1.546 8.531 0.534 3.812 1.341 11.474 1.533 15.316 0.019 0.373 0 1.118 0 1.49v1.527l-9.157-8.4s-2.056-3.21-2.465-4.402c-0.764-2.229-1.223-6.966-1.403-9.313-0.038-0.491 0-1.478 0-1.968v-1.887s-2.173 0.875-2.72 1.403c-0.49 0.472-1.186 1.726-1.335 2.39-0.167 0.745 0.459 2.341 0.199 3.062-0.056 0.161-0.348 0.378-0.472 0.496-0.105 0.1-0.422 0.397-0.422 0.397l-1.962-2.018-3.023-3.086-8.245-8.313-11.207-11.412-1.95-2.037s0.249-0.72 0.341-0.962c0.149-0.379 0.484-1.118 0.64-1.49 0.416-1.012 1.205-3.042 1.602-4.061 0.541-1.379 1.614-4.142 2.173-5.514 0.101-0.248 0.468-0.727 0.418-0.994z" fill="#000000"></path>
</g>
<path d="m408.59 180.52c-1.254-7.761-5.028-23.084-7.5-30.547-2.434-7.332-8.481-21.612-12.032-28.473-3.515-6.786-11.586-19.806-16.094-25.971-4.495-6.141-14.441-17.708-19.818-23.091s-16.949-15.316-23.084-19.812c-6.159-4.514-19.197-12.585-25.978-16.1-6.854-3.545-21.097-9.605-28.423-12.039-7.451-2.477-22.774-6.233-30.523-7.487-7.959-1.292-24.064-2.596-32.111-2.596-8.084 0-24.232 1.304-32.211 2.596-7.755 1.254-23.06 5.01-30.516 7.487-7.327 2.434-21.569 8.487-28.424 12.039-6.786 3.514-19.806 11.585-25.972 16.1-6.141 4.495-17.707 14.429-23.09 19.812s-15.311 16.957-19.813 23.091c-4.526 6.165-12.66 19.179-16.174 25.971-3.545 6.854-9.549 21.147-11.977 28.473-2.478 7.469-6.29 22.78-7.55 30.547-1.292 7.954-2.596 24.071-2.596 32.13s1.298 24.177 2.596 32.124c1.26 7.749 5.079 23.071 7.55 30.522 2.434 7.326 8.425 21.606 11.977 28.485 3.514 6.78 11.647 19.794 16.174 25.978 4.501 6.135 14.429 17.707 19.813 23.072 5.383 5.389 16.949 15.322 23.09 19.818 6.166 4.52 19.186 12.591 25.972 16.093 6.854 3.552 21.104 9.611 28.424 12.045 7.456 2.483 22.761 6.233 30.516 7.5 7.972 1.292 24.127 2.583 32.211 2.583 8.047 0 24.152-1.291 32.111-2.583 7.749-1.267 23.072-5.017 30.523-7.5 7.326-2.434 21.568-8.493 28.423-12.045 6.78-3.502 19.818-11.573 25.978-16.093 6.135-4.496 17.707-14.43 23.084-19.818 5.377-5.365 15.323-16.938 19.818-23.072 4.508-6.159 12.592-19.197 16.094-25.978 3.551-6.879 9.599-21.159 12.032-28.485 2.472-7.451 6.246-22.773 7.5-30.522 1.292-7.947 2.596-24.065 2.596-32.124s-1.304-24.177-2.596-32.13zm-115.35 170.8c-5.923 3.452-18.365 9.313-24.797 11.697-6.532 2.409-20.018 6.085-26.872 7.326-7.053 1.268-21.383 2.533-28.548 2.533-7.245 0-21.725-1.315-28.846-2.607-6.91-1.241-20.508-4.967-27.089-7.426-6.494-2.408-19.018-8.394-24.996-11.896-5.911-3.452-17.161-11.325-22.401-15.721-5.228-4.396-14.92-14.106-19.315-19.347-4.402-5.24-12.293-16.49-15.746-22.401-3.483-5.96-9.5-18.452-11.909-24.909-2.452-6.581-6.165-20.191-7.413-27.095-1.285-7.128-2.595-21.582-2.602-28.821-6e-3 -7.178 1.273-21.514 2.54-28.573 1.229-6.874 4.93-20.396 7.345-26.946 2.372-6.426 8.245-18.856 11.685-24.779 3.409-5.874 15.603-22.265 15.603-22.265l225.6 225.61c-1e-3 2e-3 -16.367 12.221-22.241 15.623zm77.535-110.62c-1.18 6.73-4.743 19.968-7.065 26.4-2.297 6.332-7.997 18.626-11.324 24.486-3.291 5.787-15.063 21.979-15.063 21.979l-1.962-2.036-110.66-110.64-70.203-70.165-25.748-25.804-11.287-11.281-3.421-3.427-2.03-1.956s16.249-11.753 22.054-15.044c5.855-3.315 18.099-8.99 24.425-11.275 6.438-2.328 19.713-5.892 26.456-7.078 6.941-1.223 21.029-2.453 28.082-2.446 7.215 6e-3 21.645 1.297 28.747 2.583 6.903 1.248 20.514 4.974 27.095 7.42 6.482 2.415 19.012 8.413 24.984 11.908 5.886 3.452 17.111 11.356 22.326 15.752 5.229 4.402 14.901 14.094 19.31 19.315 4.421 5.246 12.38 16.472 15.845 22.395 3.477 5.954 9.412 18.465 11.821 24.929 2.459 6.605 6.233 20.247 7.487 27.182 1.292 7.103 2.584 21.532 2.596 28.753 0.012 7.04-1.243 21.121-2.46 28.05z" fill="#000000"></path>
</svg>