<?xml version='1.0' encoding='utf-8'?>
<!-- Generator: Adobe Illustrator 16.0.0, SVG Export Plug-In . SVG Version: 6.00 Build 0)  --><svg xmlns="http://www.w3.org/2000/svg" xmlns:cc="http://creativecommons.org/ns#" xmlns:dc="http://purl.org/dc/elements/1.1/" xmlns:ns="&amp;ns_sfw;" xmlns:rdf="http://www.w3.org/1999/02/22-rdf-syntax-ns#" width="456px" height="474px" enable-background="new 0 0 456 474" version="1.1" viewBox="0 0 456 474" xml:space="preserve">
<metadata>
	<ns:sfw>
		<ns:slices></ns:slices>
		<ns:sliceSourceBounds x="219.28" y="104.965" width="402.438" height="395.07" bottomLeftOrigin="true"></ns:sliceSourceBounds>
	</ns:sfw>
<rdf:RDF><cc:Work rdf:about=""><dc:format>image/svg+xml</dc:format><dc:type rdf:resource="http://purl.org/dc/dcmitype/StillImage"></dc:type><dc:title></dc:title></cc:Work></rdf:RDF></metadata>
	<path d="m356.9 145.62c3.868 0.597 7.478 1.897 10.825 3.906 3.349 2.009 6.25 4.502 8.705 7.477 2.455 2.979 4.388 6.288 5.804 9.932 1.412 3.648 2.12 7.404 2.12 11.272 0 2.679-0.224 4.987-0.67 6.919l-33.48 124.99c-1.936 8.631-5.319 16.594-10.153 23.883-4.837 7.293-10.716 13.615-17.634 18.974-6.921 5.354-14.657 9.563-23.214 12.61-8.559 3.052-17.521 4.574-26.896 4.574-2.382 0-4.728-0.072-7.031-0.223-2.309-0.146-4.575-0.447-6.808-0.896l-69.641-13.391c-2.979-1.039-6.399-1.564-10.268-1.564-2.232 0-4.464 0.189-6.696 0.56-2.232 0.373-4.241 1.153-6.027 2.344l-55.8 33.48c-2.829 1.784-5.691 3.604-8.594 5.469-2.901 1.856-5.841 3.533-8.816 5.021-2.978 1.486-6.063 2.713-9.263 3.685-3.202 0.967-6.511 1.451-9.933 1.451-8.93 0-17.075-1.863-24.441-5.58-7.365-3.724-13.28-9.451-17.745-17.188-1.191-2.082-2.231-4.387-3.125-6.92-0.893-2.527-1.339-4.984-1.339-7.365 0-3.125 0.893-5.949 2.679-8.479 1.785-2.529 4.164-4.611 7.144-6.25l58.702-36.158 52.677-31.25c5.503-3.42 11.048-6.283 16.628-8.592 5.58-2.308 11.718-3.461 18.415-3.461h2.455c0.893 0 1.786 0.078 2.678 0.225l9.821 1.563 42.186 8.479c4.91 0 8.93-1.856 12.055-5.58l1.784-3.348 25.444-93.521c1.785-5.951 4.61-11.384 8.481-16.295 3.868-4.91 8.294-9.113 13.28-12.611 4.982-3.495 10.412-6.211 16.293-8.147 5.877-1.932 11.864-2.901 17.969-2.901 3.718 0 7.328 0.373 10.826 1.116 3.495 0.748 7.031 1.341 10.603 1.787zm-2.902 26.338c-3.272-0.446-6.473-1.004-9.598-1.674s-6.399-1.004-9.821-1.004c-3.272 0-6.473 0.558-9.598 1.674s-6.026 2.604-8.705 4.464c-2.678 1.862-5.061 4.094-7.143 6.696-2.087 2.604-3.647 5.396-4.688 8.37l-24.999 92.183c-3.425 9.373-8.37 16.48-14.843 21.314-6.474 4.838-13.95 7.254-22.434 7.254h-3.349c-1.043 0-2.158-0.146-3.348-0.445l-51.114-9.819c-1.042-0.298-2.009-0.445-2.901-0.445h-2.456c-4.764-0.146-9.078 0.854-12.946 3.012-3.869 2.16-7.812 4.43-11.828 6.809l-57.142 33.703-40.177 24.775c-1.489 1.34-2.232 2.756-2.232 4.24 0 3.426 1.638 6.139 4.911 8.146 3.271 2.01 6.842 3.015 10.713 3.015 1.638 0 3.198-0.146 4.688-0.445 1.486-0.297 2.825-0.816 4.018-1.564l81.022-48.881c3.421-1.635 7.104-2.899 11.049-3.795 3.941-0.893 7.923-1.338 11.941-1.338 1.783 0 3.531 0.111 5.243 0.334 1.71 0.223 3.385 0.484 5.022 0.781l69.416 13.393c1.786 0.299 3.533 0.56 5.245 0.781 1.709 0.223 3.46 0.334 5.245 0.334 5.356 0 10.638-0.816 15.848-2.455 5.207-1.635 10.006-3.979 14.396-7.031 4.388-3.047 8.294-6.655 11.719-10.823 3.421-4.164 6.026-8.853 7.813-14.063l12.499-44.863 22.544-86.156c0-1.338-0.373-2.64-1.116-3.905-0.739-1.268-1.704-2.125-2.894-2.572zm-62.942 231.24c0.893 2.229 1.339 4.609 1.339 7.143 0 2.681-0.522 5.168-1.563 7.479-1.043 2.305-2.421 4.313-4.13 6.024-1.712 1.709-3.721 3.087-6.024 4.13-2.311 1.038-4.801 1.563-7.479 1.563-2.531 0-4.948-0.522-7.254-1.563-2.309-1.043-4.317-2.455-6.026-4.24-1.712-1.785-3.09-3.832-4.129-6.14-1.043-2.309-1.563-4.727-1.563-7.254 0-5.061 1.818-9.485 5.468-13.278 3.645-3.795 8.221-5.693 13.729-5.693 3.866 0 7.364 1.078 10.489 3.236 3.124 2.153 5.503 5.02 7.143 8.593zm102.22-342.62c2.978 5.953 4.465 12.426 4.465 19.418 0 6.996-1.305 13.357-3.904 19.084-2.605 5.73-6.065 10.602-10.381 14.62s-9.229 7.143-14.729 9.375c-5.507 2.232-11.16 3.348-16.964 3.348-5.803 0-11.46-1.151-16.963-3.459-5.509-2.305-10.456-5.503-14.845-9.598-4.392-4.091-7.89-8.963-10.489-14.62-2.604-5.653-3.906-11.83-3.906-18.526 0-5.653 1.15-11.233 3.46-16.74 2.306-5.503 5.469-10.414 9.486-14.731 4.018-4.314 8.852-7.774 14.508-10.379 5.651-2.602 11.83-3.906 18.524-3.906 4.164 0 8.37 0.635 12.61 1.897 4.241 1.266 8.182 3.014 11.83 5.246 3.645 2.232 6.992 4.949 10.044 8.147 3.048 3.2 5.469 6.806 7.254 10.824zm-44.417 326.32c2.232 3.422 3.348 7.217 3.348 11.385 0 5.502-1.936 9.932-5.803 13.279-3.871 3.348-8.335 5.021-13.393 5.021-2.678 0-5.134-0.521-7.365-1.563-2.232-1.043-4.206-2.455-5.915-4.24-1.712-1.787-3.052-3.834-4.018-6.139-0.972-2.312-1.451-4.728-1.451-7.254 0-2.828 0.559-5.396 1.675-7.701 1.115-2.308 2.566-4.275 4.352-5.914 1.786-1.637 3.83-2.902 6.141-3.795 2.305-0.896 4.646-1.34 7.03-1.34 2.527 0 5.317 0.709 8.368 2.121 3.051 1.42 5.393 3.463 7.031 6.14zm19.866-316.72c-2.086-2.975-4.614-5.28-7.589-6.919-2.979-1.635-6.178-2.455-9.6-2.455-2.679 0-5.211 0.523-7.589 1.563-2.382 1.042-4.464 2.455-6.25 4.241-1.785 1.786-3.201 3.871-4.241 6.25-1.042 2.382-1.562 4.911-1.562 7.589 0 2.532 0.52 4.987 1.562 7.365 1.04 2.382 2.456 4.464 4.241 6.25 1.786 1.786 3.868 3.236 6.25 4.353 2.378 1.116 4.833 1.674 7.365 1.674 2.679 0 5.245-0.52 7.701-1.563 2.455-1.039 4.575-2.49 6.358-4.353 1.786-1.859 3.237-4.018 4.354-6.473s1.675-5.095 1.675-7.924c3e-3 -3.719-0.89-6.92-2.675-9.598zm19.197 268.96c1.636 2.829 2.453 5.952 2.453 9.375 0 2.827-0.558 5.396-1.674 7.7-1.114 2.31-2.564 4.279-4.353 5.914-1.785 1.642-3.833 2.902-6.138 3.795-2.312 0.896-4.576 1.341-6.81 1.341-2.532 0-4.949-0.48-7.255-1.451-2.309-0.968-4.354-2.306-6.138-4.019-1.786-1.709-3.201-3.756-4.241-6.139-1.042-2.379-1.563-4.984-1.563-7.813 0-2.229 0.481-4.465 1.451-6.694 0.966-2.232 2.308-4.24 4.02-6.027 1.709-1.785 3.756-3.197 6.139-4.24 2.378-1.039 4.91-1.563 7.589-1.563 3.271 0 6.436 0.893 9.485 2.678 3.051 1.787 5.394 4.167 7.035 7.143zm22.095-61.826c1.486 2.53 2.232 5.655 2.232 9.375 0 2.678-0.523 5.133-1.563 7.362-1.043 2.232-2.382 4.168-4.018 5.806-1.642 1.639-3.536 2.938-5.691 3.905-2.159 0.97-4.43 1.449-6.808 1.449-2.385 0-4.767-0.408-7.145-1.227-2.382-0.816-4.503-2.045-6.359-3.685-1.862-1.637-3.389-3.645-4.576-6.024-1.192-2.379-1.785-5.06-1.785-8.035 0-2.68 0.52-5.17 1.563-7.479 1.039-2.307 2.455-4.313 4.24-6.024 1.786-1.709 3.83-3.049 6.139-4.021 2.307-0.965 4.648-1.448 7.03-1.448 3.718 0 7.031 0.932 9.935 2.789 2.9 1.863 5.169 4.281 6.806 7.257zm17.856-62.721c0.895 2.532 1.342 4.987 1.342 7.366 0 5.506-1.938 10.082-5.806 13.728-3.871 3.646-8.335 5.469-13.393 5.469-2.531 0-4.948-0.521-7.254-1.563-2.311-1.039-4.317-2.455-6.026-4.239-1.712-1.785-3.052-3.795-4.018-6.027-0.972-2.232-1.451-4.537-1.451-6.918 0-2.379 0.479-4.725 1.451-7.032 0.966-2.305 2.267-4.387 3.904-6.25 1.638-1.858 3.646-3.348 6.026-4.464 2.378-1.116 4.983-1.674 7.813-1.674 3.422 0 6.77 1.043 10.045 3.125 3.273 2.083 5.728 4.907 7.367 8.479z" fill="#000000"></path>
</svg>