<?xml version='1.0' encoding='utf-8'?>
<!-- Generator: Adobe Illustrator 16.0.0, SVG Export Plug-In . SVG Version: 6.00 Build 0)  --><svg xmlns="http://www.w3.org/2000/svg" xmlns:cc="http://creativecommons.org/ns#" xmlns:ns="&amp;ns_sfw;" xmlns:rdf="http://www.w3.org/1999/02/22-rdf-syntax-ns#" xmlns:dc="http://purl.org/dc/elements/1.1/" width="243px" height="195px" version="1.2" viewBox="0 0 243 195" xml:space="preserve">
<metadata>
	<ns:sfw>
		<ns:slices></ns:slices>
		<ns:sliceSourceBounds x="320.557" y="233.493" width="199.887" height="137.368" bottomLeftOrigin="true"></ns:sliceSourceBounds>
	</ns:sfw>
<rdf:RDF><cc:Work rdf:about=""><dc:format>image/svg+xml</dc:format><dc:type rdf:resource="http://purl.org/dc/dcmitype/StillImage"></dc:type><dc:title></dc:title></cc:Work></rdf:RDF></metadata>
	<path d="m174.53 161.51h-152.97v-32.786h136.95c2.318 0 4.27-0.808 5.85-2.426 1.582-1.615 2.373-3.619 2.373-6.01v-18.66c0-1.193-0.246-2.318-0.737-3.372-0.492-1.055-1.125-1.967-1.897-2.742-2.883-1.614-5.5-3.584-7.854-5.903-2.355-2.319-4.375-4.902-6.063-7.75-1.688-2.846-2.988-5.92-3.9-9.224-0.916-3.304-1.37-6.748-1.37-10.333 0-5.271 1.001-10.207 3.005-14.811 2.003-4.604 4.727-8.646 8.17-12.125 3.441-3.479 7.502-6.219 12.176-8.223s9.646-3.004 14.918-3.004 10.244 1 14.92 3.004c4.672 2.002 8.73 4.743 12.176 8.223 3.443 3.479 6.166 7.521 8.172 12.125 2.002 4.604 3.002 9.541 3.002 14.811 0 5.977-1.248 11.51-3.74 16.604-2.494 5.098-5.852 9.437-10.068 13.021-1.406 1.407-2.568 2.936-3.479 4.586-0.914 1.652-1.635 3.584-2.162 5.797-0.525 2.215-0.914 4.815-1.158 7.803-0.248 2.988-0.371 6.555-0.371 10.699v2.899 5.062c0 1.791-0.018 3.463-0.053 5.008-0.035 1.547-0.088 2.461-0.156 2.74-0.143 3.444-0.879 6.68-2.213 9.699-1.336 3.021-3.164 5.676-5.484 7.96-2.32 2.283-5.025 4.077-8.115 5.376-3.1 1.303-6.403 1.952-9.919 1.952z" fill="#FFCE63"></path>
</svg>