<?xml version='1.0' encoding='utf-8'?>
<!-- Generator: Adobe Illustrator 16.0.0, SVG Export Plug-In . SVG Version: 6.00 Build 0)  --><svg xmlns="http://www.w3.org/2000/svg" xmlns:cc="http://creativecommons.org/ns#" xmlns:dc="http://purl.org/dc/elements/1.1/" xmlns:rdf="http://www.w3.org/1999/02/22-rdf-syntax-ns#" width="388px" height="425.2px" enable-background="new 0 0 388 425.2" version="1.1" viewBox="0 0 388 425.2" xml:space="preserve"><metadata><rdf:RDF><cc:Work rdf:about=""><dc:format>image/svg+xml</dc:format><dc:type rdf:resource="http://purl.org/dc/dcmitype/StillImage"></dc:type><dc:title></dc:title></cc:Work></rdf:RDF></metadata>
<path d="m20.607 417.94c-1.072 0-1.607-0.536-1.607-1.606v-128.47c0-1.069 0.535-1.604 1.607-1.604h24.64c0.654 0 1.146 0.104 1.474 0.313 0.326 0.212 0.638 0.579 0.937 1.118l28.033 49.729c0.535 0.89 1.039 1.828 1.517 2.81 0.477 0.981 0.894 1.876 1.25 2.679 0.356 0.805 0.654 1.488 0.893 2.057 0.238 0.563 0.387 0.906 0.447 1.024 0-0.06 0.119-0.356 0.358-0.896 0.237-0.531 0.536-1.203 0.893-2.008s0.773-1.709 1.25-2.725c0.475-1.008 0.981-2.021 1.518-3.034l27.944-49.638c0.297-0.536 0.609-0.906 0.937-1.118 0.328-0.208 0.818-0.313 1.475-0.313h24.73c1.071 0 1.606 0.535 1.606 1.605v128.48c0 1.069-0.537 1.605-1.606 1.605h-20.537c-1.072 0-1.606-0.536-1.606-1.605l-0.178-95.26c-0.06 0-0.164 0.209-0.313 0.625s-0.357 0.938-0.623 1.561c-0.27 0.63-0.581 1.343-0.938 2.145-0.357 0.805-0.746 1.596-1.161 2.368l-24.374 45.528c-0.299 0.539-0.61 0.91-0.938 1.117-0.328 0.211-0.818 0.313-1.473 0.313h-14.017c-0.657 0-1.147-0.102-1.475-0.313-0.328-0.207-0.639-0.578-0.937-1.117l-24.106-44.729c-0.478-0.949-0.908-1.871-1.295-2.766-0.389-0.893-0.729-1.696-1.027-2.41-0.299-0.714-0.521-1.279-0.67-1.695s-0.254-0.627-0.312-0.627l-0.178 95.26c0 1.07-0.535 1.606-1.606 1.606h-20.532z" fill="#000000"></path>
<path d="m146.49 417.94c-1.072 0-1.428-0.505-1.072-1.521l41.693-128.65c0.236-0.595 0.49-0.996 0.758-1.206 0.266-0.21 0.728-0.313 1.383-0.313h29.462c0.654 0 1.117 0.103 1.383 0.313 0.27 0.21 0.521 0.611 0.76 1.206l41.871 128.65c0.355 1.016 0 1.521-1.072 1.521h-22.854c-0.654 0-1.117-0.103-1.383-0.313-0.27-0.207-0.492-0.609-0.67-1.205l-7.768-25.267h-50.176l-7.678 25.267c-0.178 0.596-0.401 0.998-0.67 1.205-0.268 0.211-0.729 0.313-1.383 0.313h-22.584zm57.407-108.65-18.482 60.441h37.051l-18.569-60.441z" fill="#000000"></path>
<path d="m342.65 417.94c-0.656 0-1.148-0.103-1.477-0.313-0.328-0.207-0.641-0.547-0.938-1.025l-28.482-47.586-28.567 47.585c-0.297 0.479-0.607 0.818-0.936 1.025-0.33 0.211-0.818 0.313-1.475 0.313h-25.176c-1.131 0-1.371-0.448-0.715-1.34l41.516-64.638-41.516-64.371c-0.656-0.891-0.416-1.338 0.715-1.338h25.176c0.652 0 1.145 0.103 1.475 0.313 0.326 0.21 0.639 0.551 0.936 1.025l28.48 46.691 28.57-46.691c0.297-0.475 0.607-0.815 0.938-1.025 0.328-0.21 0.818-0.313 1.477-0.313h25.174c1.07 0 1.309 0.447 0.713 1.338l-41.604 64.371 41.604 64.638c0.596 0.892 0.357 1.34-0.713 1.34h-25.175v1e-3z" fill="#000000"></path>
<path d="m357.83 56.769c-2.49-2.035-62.156-49.854-162.14-49.854-99.982 0-159.64 47.819-162.14 49.854l-8.297 6.78 86.268 139.87 10.186-5.557c0.146-0.079 5.981-3.223 15.151-7.026l5.457 14.832-11.486 18.468 20.784 12.927 14.639-23.547c1.992-3.202 2.395-7.146 1.093-10.685l-7.379-20.059c6.805-1.916 14.107-3.538 21.552-4.513l10.083 27.411-11.482 18.466 20.784 12.924 14.642-23.545c1.991-3.201 2.396-7.145 1.091-10.684l-9.138-24.849c8.688 0.973 17.245 2.883 25.108 5.158l8.289 22.531-11.484 18.467 20.783 12.925 14.641-23.543c1.992-3.204 2.396-7.147 1.096-10.688l-3.059-8.313c4.137 1.921 6.605 3.241 6.805 3.348l10.188 5.555 86.262-139.87-8.295-6.783h-7e-3zm-86.888 114.49c-5.076-2.297-11.752-5.094-19.494-7.81l-2.205-5.997 16.422-29.452c1.592-2.855 1.975-6.228 1.064-9.367l-8.195-28.276v-0.499h8.594l-20.828-48.213-20.83 48.213h8.592v2.236c0 1.153 0.162 2.3 0.482 3.408l7.258 25.04-16.672 29.899c-0.92 1.646-1.42 3.46-1.52 5.299-6.859-1.363-13.984-2.348-21.178-2.744l13.938-24.996c1.594-2.855 1.977-6.228 1.064-9.367l-8.191-28.276v-0.499h8.59l-20.829-48.213-20.83 48.213h8.592v2.236c0 1.153 0.164 2.3 0.484 3.408l7.257 25.04-16.673 29.899c-0.719 1.291-1.177 2.686-1.394 4.114-8.015 1.259-15.763 3.098-22.943 5.185l-0.84-2.286 16.423-29.454c1.592-2.855 1.976-6.228 1.066-9.367l-8.196-28.276v-0.499h8.592l-20.83-48.213-20.829 48.213h8.592v2.236c0 1.153 0.162 2.3 0.483 3.408l7.257 25.04-16.675 29.899c-1.738 3.117-2.028 6.835-0.797 10.185l2.65 7.206c-2.952 1.209-5.624 2.371-7.952 3.425l-62.691-101.64c18.869-12.158 67.539-38.226 137.94-38.226 70.045 0 118.96 26.112 137.92 38.258l-62.668 101.61z" fill="#000000"></path>
</svg>