<?xml version='1.0' encoding='utf-8'?>
<!-- Generator: Adobe Illustrator 16.0.0, SVG Export Plug-In . SVG Version: 6.00 Build 0)  --><svg xmlns="http://www.w3.org/2000/svg" xmlns:cc="http://creativecommons.org/ns#" xmlns:dc="http://purl.org/dc/elements/1.1/" xmlns:ns="&amp;ns_sfw;" xmlns:rdf="http://www.w3.org/1999/02/22-rdf-syntax-ns#" width="454px" height="386px" enable-background="new 0 0 454 386" version="1.1" viewBox="0 0 454 386" xml:space="preserve">
<metadata>
	<ns:sfw>
		<ns:slices></ns:slices>
		<ns:sliceSourceBounds x="216.24" y="178.881" width="409.997" height="240.906" bottomLeftOrigin="true"></ns:sliceSourceBounds>
	</ns:sfw>
<rdf:RDF><cc:Work rdf:about=""><dc:format>image/svg+xml</dc:format><dc:type rdf:resource="http://purl.org/dc/dcmitype/StillImage"></dc:type><dc:title></dc:title></cc:Work></rdf:RDF></metadata>
	<path d="m413.93 124.29c4.449 2.883 15.389 9.375 18.809 11.779l-112.28 175.55c-8.865-4.687-18.236-8.931-28.117-12.73-8.486-3.164-18.178-6.08-29.066-8.74-10.896-2.657-22.295-3.987-34.199-3.987-11.907 0-23.435 1.33-34.578 3.987-11.147 2.66-21.088 5.576-29.828 8.74-10.259 3.801-19.949 8.045-29.067 12.73l-112.86-175.55c3.544-2.404 16.339-10.765 18.619-11.779 27.608-17.731 57.187-31.094 88.725-40.088 31.538-8.991 64.531-13.488 98.985-13.488 34.322 0 66.906 4.497 97.75 13.488 30.837 8.994 59.829 22.423 87.108 40.088zm-14.06 18.904c-24.699-15.422-51.33-27.525-79.891-36.313-28.564-8.787-58.867-13.18-90.91-13.18-15.959 0-31.508 1.14-46.644 3.414-15.137 2.276-29.923 5.563-44.361 9.861-14.439 4.299-28.498 9.479-42.179 15.547-13.679 6.066-26.979 12.957-39.896 20.67l32.106 49.11h43.317l32.108-71.625 33.059 74.124 33.06-74.096 33.057 74.096 33.059-74.124 31.92 71.625h41.418l30.777-49.109zm-41.418 66.211h-41.799l-20.896-46.928-33.061 74.098-33.057-74.098-33.06 74.098-33.059-74.098-21.088 46.928h-43.127l45.406 69.346c7.602-3.039 15.832-5.762 24.699-8.168 7.599-2.025 16.496-3.896 26.693-5.605 10.192-1.709 21.184-2.563 32.963-2.563 11.65 0 22.576 0.981 32.773 2.944 10.191 1.966 19.154 4.084 26.883 6.363 8.992 2.789 17.289 5.892 24.889 9.312l44.841-71.629z" fill="#000000"></path>
</svg>