<?xml version='1.0' encoding='utf-8'?>
<!-- Generator: Adobe Illustrator 16.0.0, SVG Export Plug-In . SVG Version: 6.00 Build 0)  --><svg xmlns="http://www.w3.org/2000/svg" xmlns:cc="http://creativecommons.org/ns#" xmlns:dc="http://purl.org/dc/elements/1.1/" xmlns:ns="&amp;ns_sfw;" xmlns:rdf="http://www.w3.org/1999/02/22-rdf-syntax-ns#" width="335px" height="551.14px" version="1.2" viewBox="0 0 335 551.14" xml:space="preserve">
<metadata>
	<ns:sfw>
		<ns:slices></ns:slices>
		<ns:sliceSourceBounds x="278.88" y="134.368" width="287.24" height="388.584" bottomLeftOrigin="true"></ns:sliceSourceBounds>
	</ns:sfw>
<rdf:RDF><cc:Work rdf:about=""><dc:format>image/svg+xml</dc:format><dc:type rdf:resource="http://purl.org/dc/dcmitype/StillImage"></dc:type><dc:title></dc:title></cc:Work></rdf:RDF></metadata>
	<path d="m246.21 241.25 35.523-62.331c0.871-0.872 1.486-2.213 1.852-4.032 0.361-1.815 0.545-3.449 0.545-4.903v-2.18c0-2.322-0.582-4.501-1.744-6.538-1.162-2.033-3.01-4.192-5.664-6.435-18.406-15.55-36.762-28.653-57.102-41.729-20.342-13.076-61.881-33.998-64.728-34.652-2.708-0.623-8.419-0.675-11.114 0-2.396 0.6-4.287 2.397-6.32 3.705-2.035 1.308-3.633 3.051-4.793 5.23l-40.102 69.085-20.05-11.115 49.036-84.559c1.742-3.194 4.501-5.775 8.281-7.737 3.777-1.961 7.334-2.942 10.679-2.942 2.469 0 5.084 0.582 7.847 1.743 57.827 22.523 110.49 55.139 158 97.855 0 0 2.521 2.699 4.193 4.949 1.67 2.254 2.563 6.383 2.563 8.563 0 2.326-0.109 4.652-0.326 6.974-0.219 2.326-0.91 5.23-2.07 8.717l-37.701 62.331h4.355c3.053 0 5.92 0.582 8.609 1.742 2.688 1.166 5.047 2.725 7.082 4.686 2.031 1.963 3.631 4.287 4.795 6.977 1.162 2.688 1.744 5.558 1.744 8.607v142.75c0 3.051-1.059 6.135-3.16 9.263-2.107 3.122-5.559 5.92-10.354 8.391-40.393 10.024-81.652 15.039-123.79 15.039-42.138 0-83.979-5.015-125.53-15.039 0 0-2.983-1.291-4.218-2.162s-2.41-2.244-3.5-3.334-1.545-3.404-2.198-5.072c-0.653-1.674-0.979-4.032-0.979-7.084v-142.75c0-6.538 1.814-11.842 5.449-15.909 3.629-4.064 9.151-6.103 16.563-6.103h198.32zm-198.32 149.07c0 1.164 0.327 2.471 0.98 3.922 0.653 1.455 1.524 2.908 2.615 4.356 1.09 1.451 2.287 2.65 3.596 3.599 1.309 0.94 3.924 1.416 3.924 1.416 34.576 7.846 69.086 11.77 103.52 11.77 34.143 0 67.521-4.205 101.37-10.717 3.17-0.609 5.131-2.143 7.604-4.322 2.469-2.178 3.705-5.084 3.705-8.717v-108.1c0-6.539-1.855-11.148-5.559-13.84-3.705-2.688-8.607-4.031-14.713-4.031h-186.99c-2.472 0-4.903 0.436-7.301 1.307-2.396 0.873-4.543 2.072-6.429 3.599-1.891 1.524-3.416 3.413-4.577 5.666-1.165 2.254-1.744 4.686-1.744 7.301l2e-3 106.79zm102.65-15.475s-0.98 13.488 10.896 13.295c11.623-0.188 11.115-12.563 11.115-13.295l-0.021-76.194c-0.307-2.648-3.031-8.695-11.096-8.58-6.877 0.098-10.544 6.098-10.243 8.936l-0.651 75.838z" fill="#000000"></path>
</svg>