<?xml version='1.0' encoding='utf-8'?>
<!-- Generator: Adobe Illustrator 16.0.0, SVG Export Plug-In . SVG Version: 6.00 Build 0)  --><svg xmlns="http://www.w3.org/2000/svg" xmlns:cc="http://creativecommons.org/ns#" xmlns:ns="&amp;ns_sfw;" xmlns:rdf="http://www.w3.org/1999/02/22-rdf-syntax-ns#" xmlns:dc="http://purl.org/dc/elements/1.1/" width="391px" height="458px" enable-background="new 0 0 391 458" version="1.1" viewBox="0 0 391 458" xml:space="preserve">
<metadata>
	<ns:sfw>
		<ns:slices></ns:slices>
		<ns:sliceSourceBounds x="262.208" y="106.161" width="316.584" height="382.677" bottomLeftOrigin="true"></ns:sliceSourceBounds>
	</ns:sfw>
<rdf:RDF><cc:Work rdf:about=""><dc:format>image/svg+xml</dc:format><dc:type rdf:resource="http://purl.org/dc/dcmitype/StillImage"></dc:type><dc:title></dc:title></cc:Work></rdf:RDF></metadata>
	<path d="m163.1 62.689c1.783-4.847 4.168-9.125 7.164-12.835 2.998-3.704 6.598-6.662 10.801-8.876 4.205-2.209 8.664-3.316 13.371-3.316 5.276 0 10.127 1.107 14.543 3.316 4.418 2.214 8.273 5.172 11.553 8.876 3.281 3.71 5.773 7.988 7.486 12.835 1.711 4.85 2.568 9.913 2.568 15.188 0 7.417-1.461 14.262-4.389 20.536-2.926 6.277-7.094 11.479-12.512 15.615v6.416c0 3.281 0.496 5.599 1.498 6.952 0.994 1.356 2.635 2.602 4.92 3.742l53.045-61.817 16.9 14.972-46.418 57.542 10.268 6.416c1.145 1 2.209 1.64 3.209 1.924 0.994 0.287 2.066 1.001 3.209 2.141 10.695 25.528 18.072 50.161 22.143 73.904 4.063 23.742 4.521 47.312 1.393 70.696 13.826 5.421 26.309 11.763 37.43 19.038 11.125 7.271 21.957 15.113 32.516 23.527l-14.764 14.762c-8.414-7.414-17.434-13.938-27.055-19.574-9.629-5.631-19.719-11.156-30.271-16.578-3.279 17.113-8.061 33.691-14.33 49.736-6.275 16.041-14.193 32.115-23.744 48.23l-34.439 4.279 2.357-4.279c7.555-12.834 14.045-26.023 19.463-39.569 5.418-13.55 10.268-27.308 14.543-41.284-8.557-2.279-17.041-4.242-25.449-5.885-8.416-1.637-16.973-2.461-25.67-2.461-8.416 0-16.401 0.505-23.959 1.5-7.563 1-15.117 2.566-22.674 4.703 3.133 13.836 7.698 27.633 13.69 41.395 5.985 13.762 12.761 27.627 20.321 41.604l2.139 4.279-34.227-4.279c-9.559-16.114-17.469-32.402-23.746-48.875-6.275-16.471-11.049-32.836-14.33-49.094-10.692 4.424-20.818 9.342-30.37 14.76-9.56 5.422-18.611 11.84-27.167 19.252h-2.141l-14.762-14.76c0-1.141 0.426-1.852 1.285-2.139 0.854-0.283 1.783-0.998 2.783-2.143l66.096-74.438c0.854-17.109 3.452-34.293 7.805-51.55 4.354-17.252 10.232-35.508 17.646-54.758 1.143-1.14 2.209-1.854 3.21-2.141 0.994-0.284 2.065-0.924 3.209-1.924l34.015-17.113c2.137-1.14 3.741-2.386 4.807-3.742 1.072-1.353 1.605-3.671 1.605-6.952v-6.416c-6.412-3.281-11.228-7.985-14.439-14.12-3.209-6.129-4.813-13.475-4.813-22.031 2e-3 -5.275 0.889-10.338 2.678-15.187zm-53.477 243c0.213 3.994 0.889 8.127 2.031 12.404 12.838-5.272 26.096-9.412 39.785-12.404 13.689-2.997 28.021-4.492 42.996-4.492s29.77 1.495 44.387 4.492c14.615 2.992 28.908 7.132 42.885 12.404 0-3.277 0.354-6.558 1.07-9.838 0.711-3.281 1.072-7.061 1.072-11.337-13.838-5.276-28.168-9.444-42.996-12.517-14.834-3.063-30.307-4.598-46.418-4.598-11.694 0-22.922 0.642-33.692 1.924-10.767 1.285-21.565 3.568-32.401 6.848v-21.395l110.8-125.34-19.037-10.697-112.73 127.49v31.873l1.924 4.276c0 3.286 0.107 6.921 0.32 10.913z" fill="#F54C4C"></path>
</svg>