<?xml version='1.0' encoding='utf-8'?>
<!-- Generator: Adobe Illustrator 16.0.3, SVG Export Plug-In . SVG Version: 6.00 Build 0)  --><svg xmlns="http://www.w3.org/2000/svg" xmlns:cc="http://creativecommons.org/ns#" xmlns:dc="http://purl.org/dc/elements/1.1/" xmlns:rdf="http://www.w3.org/1999/02/22-rdf-syntax-ns#" width="427.93px" height="425.2px" enable-background="new 0 0 427.933 425.197" version="1.1" viewBox="0 0 427.93 425.2" xml:space="preserve"><metadata><rdf:RDF><cc:Work rdf:about=""><dc:format>image/svg+xml</dc:format><dc:type rdf:resource="http://purl.org/dc/dcmitype/StillImage"></dc:type><dc:title></dc:title></cc:Work></rdf:RDF></metadata>
<path d="m387.02 340.16h-346.05c-14.777 0-26.791-11.988-26.791-26.732v-229.94c0-14.776 12.014-26.791 26.791-26.791h346.05c14.75 0 26.744 12.015 26.744 26.791v229.94c1e-3 14.745-11.993 26.733-26.743 26.733zm-346.05-266.99c-5.69 0-10.315 4.63-10.315 10.314v229.94c0 5.661 4.625 10.26 10.315 10.26h346.05c5.661 0 10.271-4.599 10.271-10.26v-229.94c0-5.684-4.61-10.314-10.271-10.314h-346.05z" fill="#000000"></path>
<path d="m75.069 116.72c-5.977-0.867-6.551-1.347-13.69-2.443-7.14-1.097-20.899-6.592-25.814 2.472-4.915 9.063 1.183 19.499 3.339 12.907s13.14-7.587 13.14 2.848 4.94 11.98-1.1 14.727c-6.04 2.748-6.04 13.731-3.844 20.322 2.196 6.592 15.381 14.283 18.126 19.774 2.744 5.492 10.432 7.918 15.375 11.099 4.944 3.181 13.734-1.211 14.283 4.28 0.548 5.492-0.548 9.884-5.492 15.373-4.943 5.5-6.592 17.029 2.196 22.519 8.787 5.5 17.577 14.837 15.378 30.213-2.199 15.375 4.94 25.262 7.688 29.109 2.747 3.847 7.69 3.847 6.591-2.745-1.1-6.591-0.545-17.029 6.043-25.263 6.589-8.244 19.223-17.029 19.772-26.366 0.548-9.335 6.591-10.438 7.139-15.927 0.548-5.494-0.014-9.003-3.844-9.335-24.715-2.183-10.987-15.732-25.266-13.209-7.246 1.28-9.338-9.634-15.378-8.649s-9.925 2.311-15.672 0-4.65-7.803-10.143-7.254c-5.492 0.548-14.828-1.103-10.984-9.338 3.844-8.236 7.691-9.885 11.536-9.885 3.844 0 4.903 7.143 9.591 6.592s2.492-4.395 2.492-10.987c0-6.591 4.825-8.239 9.769-8.239 4.943 0 14.397-7.688 16.044-10.983 1.648-3.296 4.94-5.492 8.236-5.492s9.887-2.199 4.943-6.591c-4.943-4.393-10.435-17.03-13.73-14.831-3.296 2.199-8.239 18.677-13.731 14.282-5.491-4.395-10.435-9.338-5.491-10.986s7.69-7.686 11.534-8.237-6.043-6.408-9.887-4.852-11.532-4.823-14.827-0.261c-3.295 4.561-10.243 5.948-14.322 5.356z" fill="#000000"></path>
<path d="m127.29 102.2c-5.153 3.563-9.887 14.83-4.395 14.83s15.379 4.944 15.379 4.944 6.348-7.14 0-4.944c-6.347 2.196-13.007-5.882-7.602-7.335 5.406-1.452 24.439-4.587 23.71 0-0.729 4.588-9.635 5.687-5.791 12.279 3.844 6.591 7.257 5.489 11.101 2.745s5.495-11.573 10.986-10.18c5.492 1.392 17.024-3.391 13.18-4.843s6.483-8.595 0.77-11.339c-5.713-2.745-16.696-0.548-23.836 0s-11.538 6.594-18.126 2.748c-6.588-3.849-11.876-1.325-15.376 1.095z" fill="#000000"></path>
<path d="m99.827 185.68c-2.748 2.196-4.392 4.94 0 4.392s2.747-6.589 0-4.392z" fill="#000000"></path>
<path d="m173.97 187.67c-5.343 3.281 4.519 20.523 12.419 21.622 7.901 1.1 18.319-8.238 21.063 0 2.745 8.239 6.324 12.861 7.556 21.405 1.157 8.026-4.791 15.944 4.809 26.929 5.661 6.476 6.327 21.427 12.367 14.284 6.046-7.143 10.438-9.887 13.183-23.621 2.744-13.733 16.479-13.733 7.693-20.325-8.79-6.591-2.99-8.784 2.895-12.631 5.891-3.842 14.131-12.95 3.697-16.909-10.438-3.959-7.143-5.466-10.438-13.226-3.296-7.76-1.643-11.058-12.632-12.155s-14.83-3.296-20.322-8.788-20.87-11.532-26.362-3.844-9.337 23.211-15.928 27.259z" fill="#000000"></path>
<path d="m191.55 132.4c-2.862 1.432-3.295 9.887 0 7.139 3.295-2.747 12.115 1.1 7.171 4.944-4.943 3.844-4.651 8.79 3.425 9.887 8.075 1.097 8.431-3.847 11.824-4.395 3.394-0.548 6.689 5.345 11.627 6.792 4.949 1.447 6.04-9.54 10.438-9.54s15.382 6.445 9.336 9.54c-6.04 3.095-9.853 13.429-4.72 15.6 5.134 2.17 12.058 5.765 14.056 15.302s8.899 13.578 9.945 9.619c1.045-3.959 9.278-5.431 8.733-12.091-0.546-6.66-8.733-9.936 0.028-11.035s11.472 1.628 14.761 6.571c3.291 4.943 6.953 14.42 7.184 19.03 0.608 12.272 6.591 5.914 10.432-1.341 3.842-7.254 2.75-11.506 10.433-13.226 7.693-1.72 11.534 4.32 15.927 10.363 4.398 6.043 12.092 8.469 13.183 2.862 1.103-5.606-12.631-9.31-4.938-13.226 7.683-3.916 20.337-5.561 19.785-11.604-0.546-6.043-17.007-7.691-10.415-13.183s20.286-8.239 18.638-13.731-4.938-7.142-9.337-11.535c-4.397-4.392-4.397-11.532 2.745-11.532s4.616 3.292 6.707 10.983c2.078 7.691 11.965 7.691 11.965-0.548s13.734-12.631 6.046-17.575c-7.688-4.943-21.974 2.199-26.365 0-4.393-2.199-14.303-12.947-27.485-6.209-13.177 6.738-25.285-5.894-39.559-5.345-14.285 0.548-31.505 12.459-36.46 10.869-17.581-5.638-10.736 12.215-16.226 5.627-5.494-6.589-15.927-5.236-17.58-9.482-1.643-4.246-6.781-16.332-8.883-11.937-2.101 4.395 1.927 2.357 4.582 9.691 2.658 7.335-4.68 6.784-4.582 11.728s5.035 5.409 9.984 5.452c4.938 0.043-0.918 1.143-5.402 5.535s-8.859 11.512-11.056 6.02c-2.196-5.491-8.256-9.863-15.947-6.019z" fill="#000000"></path>
<path d="m258 247.74c0 7.144 2.859 14.832 6.649 2.746 3.789-12.081-6.649-9.882-6.649-2.746z" fill="#000000"></path>
<path d="m351.37 249.36c-8.515 0.564-10.432 20.35-3.295 20.35 7.142 0 20.325-9.888 20.876 0 0.551 9.887 9.336 14.284 14.279 6.591 4.943-7.682 9.009-2.158 11.535-11.512 2.521-9.353 3.841-11.063-3.847-15.429-7.688-4.363-4.398-14.801-11.534-14.801-7.137 0-14.832 2.066-18.128 7.349-3.294 5.282-1.095 6.874-9.886 7.452z" fill="#000000"></path>
<path d="m378.54 218.02c-5.351 0-3.388 4.393 0 4.393s-0.034 10.989 7.384 10.989 15.439-4.398 6.93-7.693c-8.503-3.297-8.503-7.689-14.314-7.689z" fill="#000000"></path>
<path d="m352.47 209.3c-8.509-1.214-5.489 19.223 0 17.575s12.08-6.04 6.04-7.688 1.653-8.789-6.04-9.887z" fill="#000000"></path>
<path d="m332.15 212.59c-1.745 4.656 4.949 15.416 4.949 5.512 1e-3 -9.904-1.653-14.299-4.949-5.512z" fill="#000000"></path>
<path d="m360.92 201.06c0.992 4.911 14.945 4.395 9.296 0-5.662-4.396-5.243-15.238-9.296-10.915-4.054 4.323-0.891 6.522 0 10.915z" fill="#000000"></path>
<path d="m371.56 154.92c-3.102 2.592 3.594 15.927 5.162 3.844 1.566-12.083 0.74-8.788-5.162-3.844z" fill="#000000"></path>
</svg>