<?xml version='1.0' encoding='utf-8'?>
<!-- Generator: Adobe Illustrator 16.0.0, SVG Export Plug-In . SVG Version: 6.00 Build 0)  --><svg xmlns="http://www.w3.org/2000/svg" xmlns:cc="http://creativecommons.org/ns#" xmlns:dc="http://purl.org/dc/elements/1.1/" xmlns:rdf="http://www.w3.org/1999/02/22-rdf-syntax-ns#" width="471px" height="425.2px" enable-background="new 0 0 471 425.2" version="1.1" viewBox="0 0 471 425.2" xml:space="preserve"><metadata><rdf:RDF><cc:Work rdf:about=""><dc:format>image/svg+xml</dc:format><dc:type rdf:resource="http://purl.org/dc/dcmitype/StillImage"></dc:type><dc:title></dc:title></cc:Work></rdf:RDF></metadata>
<path d="m97.513 418.94c-0.676 0-1.166-0.104-1.473-0.323-0.308-0.213-0.613-0.599-0.921-1.15l-24.574-47.397c-1.166 0.063-2.346 0.091-3.542 0.091h-3.637c-3.005 0-5.951-0.046-8.836-0.139-2.884-0.094-6.167-0.258-9.848-0.505v47.767c0 1.104-0.552 1.658-1.658 1.658h-21.17c-1.104 0-1.657-0.555-1.657-1.658v-132.45c0-1.104 0.553-1.688 1.657-1.75 6.935-0.49 13.623-0.813 20.065-0.967 6.443-0.148 12.825-0.228 19.145-0.228 11.842 0 21.66 0.538 29.453 1.61 7.792 1.072 14.004 3.037 18.638 5.89 4.631 2.854 7.884 6.812 9.757 11.872 1.871 5.063 2.808 11.554 2.808 19.469v10.859c0 7.058-0.736 12.977-2.208 17.763-1.472 4.785-4.08 8.651-7.824 11.597-3.989 3.129-9.664 5.432-17.027 6.904 0.86 1.29 1.733 2.652 2.625 4.096 0.888 1.44 1.855 3.053 2.899 4.832l23.287 40.682c0.552 0.982 0.275 1.476-0.828 1.476h-25.131zm-35.068-115.23c-1.413 0-2.945 0.017-4.603 0.045-1.657 0.033-3.283 0.063-4.877 0.094-1.595 0.027-3.115 0.091-4.556 0.185-1.443 0.091-2.686 0.198-3.728 0.322v43.348c2.76 0.247 5.782 0.413 9.066 0.508 3.282 0.092 6.366 0.14 9.25 0.14 6.626 0 12.149-0.198 16.568-0.601 4.418-0.396 7.93-1.271 10.539-2.623 2.608-1.348 4.448-3.313 5.523-5.892 1.072-2.576 1.61-6.044 1.61-10.399v-5.892c0-4.418-0.553-7.916-1.657-10.493-1.105-2.574-2.992-4.51-5.66-5.8-2.667-1.289-6.229-2.101-10.676-2.438-4.451-0.335-10.05-0.504-16.799-0.504z" fill="#000000"></path>
<path d="m137.66 418.94c-1.105 0-1.657-0.554-1.657-1.657v-132.45c0-1.104 0.552-1.656 1.657-1.656h82.284c1.104 0 1.658 0.552 1.658 1.656v19.881c0 1.105-0.553 1.658-1.658 1.658h-59.459v30.74h47.769c1.104 0 1.657 0.553 1.657 1.658v19.786c0 1.104-0.553 1.657-1.657 1.657h-47.769v35.527h59.458c1.104 0 1.658 0.553 1.658 1.656v19.881c0 1.104-0.553 1.657-1.658 1.657h-82.283v4e-3z" fill="#000000"></path>
<path d="m222.73 418.94c-1.105 0-1.474-0.521-1.105-1.563l42.984-132.63c0.244-0.611 0.506-1.025 0.783-1.24 0.274-0.213 0.75-0.32 1.426-0.32h30.373c0.674 0 1.148 0.105 1.426 0.32 0.275 0.215 0.535 0.631 0.781 1.24l43.166 132.63c0.369 1.043 0 1.563-1.104 1.563h-23.563c-0.676 0-1.149-0.104-1.424-0.323-0.277-0.213-0.51-0.629-0.693-1.24l-8.008-26.049h-51.727l-7.915 26.049c-0.185 0.615-0.414 1.027-0.688 1.24-0.276 0.215-0.752 0.323-1.428 0.323h-23.284zm59.181-112.01-19.052 62.311h38.195l-19.143-62.311z" fill="#000000"></path>
<path d="m425.59 418.94c-0.674 0-1.167-0.104-1.473-0.323-0.306-0.213-0.614-0.599-0.92-1.15l-24.573-47.397c-1.169 0.063-2.348 0.091-3.543 0.091h-3.637c-3.007 0-5.952-0.046-8.836-0.139-2.887-0.094-6.168-0.258-9.851-0.505v47.767c0 1.104-0.552 1.658-1.656 1.658h-21.169c-1.105 0-1.658-0.555-1.658-1.658v-132.45c0-1.104 0.553-1.688 1.658-1.75 6.934-0.49 13.621-0.813 20.064-0.967 6.441-0.148 12.823-0.228 19.145-0.228 11.841 0 21.659 0.538 29.452 1.61s14.005 3.037 18.639 5.89c4.633 2.854 7.885 6.812 9.756 11.872 1.872 5.063 2.81 11.554 2.81 19.469v10.859c0 7.058-0.735 12.977-2.209 17.763-1.473 4.785-4.081 8.651-7.824 11.597-3.987 3.129-9.663 5.432-17.025 6.904 0.857 1.29 1.73 2.652 2.622 4.096 0.89 1.44 1.854 3.053 2.899 4.832l23.287 40.682c0.553 0.982 0.275 1.476-0.829 1.476h-25.129zm-35.065-115.23c-1.412 0-2.945 0.017-4.604 0.045-1.656 0.033-3.283 0.063-4.876 0.094-1.598 0.027-3.115 0.091-4.557 0.185-1.443 0.091-2.688 0.198-3.729 0.322v43.348c2.761 0.247 5.781 0.413 9.065 0.508 3.282 0.092 6.366 0.14 9.249 0.14 6.627 0 12.148-0.198 16.566-0.601 4.421-0.396 7.932-1.271 10.539-2.623 2.61-1.348 4.448-3.313 5.524-5.892 1.073-2.579 1.609-6.044 1.609-10.399v-5.892c0-4.418-0.553-7.916-1.658-10.493-1.104-2.574-2.99-4.51-5.659-5.8-2.668-1.289-6.228-2.101-10.676-2.438-4.443-0.338-10.045-0.504-16.793-0.504z" fill="#000000"></path>
<path d="m339.34 7.915h-218.67c-21.518 0-39.022 17.504-39.022 39.021v116.85c0 21.506 17.505 38.956 39.022 38.956h55.823l1.067 2.904-11.407 18.345 20.934 13.018 14.588-23.459c2.006-3.226 2.412-7.197 1.1-10.762l-0.016-0.044h21.208l1.068 2.904-11.41 18.346 20.932 13.02 14.591-23.461c2.008-3.226 2.414-7.198 1.104-10.763l-0.019-0.044h21.209l1.068 2.904-11.408 18.345 20.932 13.018 14.59-23.459c2.007-3.225 2.412-7.197 1.104-10.762l-0.019-0.044h41.631c21.474 0 38.946-17.45 38.946-38.956v-116.85c-2e-3 -21.516-17.476-39.021-38.949-39.021h5e-3zm14.955 155.87c0 8.253-6.706 14.967-14.953 14.967h-50.455l-7.769-21.119 16.336-29.295c1.603-2.875 1.99-6.273 1.072-9.434l-8.162-28.157v-0.478h8.432l-20.756-48.042-20.753 48.042h8.429v2.228c0 1.162 0.164 2.316 0.486 3.431l7.219 24.897-16.587 29.748c-1.75 3.139-2.044 6.885-0.804 10.257l6.593 17.922h-21.21l-7.771-21.119 16.339-29.295c1.603-2.875 1.989-6.273 1.072-9.435l-8.165-28.156v-0.477h8.435l-20.758-48.043-20.755 48.042h8.43v2.228c0 1.162 0.164 2.317 0.487 3.433l7.22 24.896-16.589 29.747c-1.75 3.139-2.043 6.886-0.804 10.259l6.595 17.922h-21.208l-7.769-21.119 16.336-29.295c1.602-2.875 1.989-6.271 1.073-9.434l-8.161-28.157v-0.479h8.429l-20.752-48.043-20.755 48.043h8.43v2.228c0 1.162 0.163 2.316 0.487 3.431l7.217 24.897-16.588 29.748c-1.75 3.139-2.043 6.885-0.804 10.257l6.593 17.922h-47.004c-8.285 0-15.023-6.714-15.023-14.967v-116.85c0-8.284 6.738-15.024 15.023-15.024h218.67c8.249 0 14.955 6.739 14.955 15.024v116.84h-5e-3z" fill="#000000"></path>
</svg>