<?xml version='1.0' encoding='utf-8'?>
<!-- Generator: Adobe Illustrator 16.0.0, SVG Export Plug-In . SVG Version: 6.00 Build 0)  --><svg xmlns="http://www.w3.org/2000/svg" xmlns:cc="http://creativecommons.org/ns#" xmlns:dc="http://purl.org/dc/elements/1.1/" xmlns:ns0="&amp;ns_sfw;" xmlns:rdf="http://www.w3.org/1999/02/22-rdf-syntax-ns#" width="567px" height="425.2px" enable-background="new 0 0 567 425.2" version="1.1" viewBox="0 0 567 425.2" xml:space="preserve">
<metadata>
	<rdf:RDF>
		<cc:Work rdf:about="">
			<dc:format>image/svg+xml</dc:format>
			<dc:type rdf:resource="http://purl.org/dc/dcmitype/StillImage"></dc:type>
			<dc:title></dc:title>
		</cc:Work>
	</rdf:RDF>
	<ns0:sfw>
		<ns0:slices></ns0:slices>
		<ns0:sliceSourceBounds x="101.517" y="128.043" width="633.699" height="263.972" bottomLeftOrigin="true">
			</ns0:sliceSourceBounds>
	</ns0:sfw>
	<ns0:sfw>
		<ns0:slices></ns0:slices>
		<ns0:sliceSourceBounds x="146.166" y="198.287" width="544.396" height="226.772" bottomLeftOrigin="true">
			</ns0:sliceSourceBounds>
	</ns0:sfw>
	<ns0:sfw>
		<ns0:slices></ns0:slices>
		<ns0:sliceSourceBounds x="148.603" y="198.288" width="544.396" height="226.773" bottomLeftOrigin="true"></ns0:sliceSourceBounds>
	</ns0:sfw>
</metadata>
<path d="m445.32 124.06 17.127-22.764c2.742-3.035 5.456-5.491 8.13-7.372 2.672-1.876 5.962-3.577 9.864-5.095 3.901-1.518 8.455-2.276 13.655-2.276 4.625 0 9.863 0.542 15.72 1.626 5.854 1.084 11.598 2.385 17.235 3.902 5.639 1.517 10.84 3.11 15.609 4.77 4.77 1.663 13.118 4.915 13.333 5.852 0.219 0.942-13.766 24.174-13.766 24.174-1.735 0-12.829-4.661-16.803-6.178-3.979-1.518-8.674-2.927-14.091-4.228-5.423-1.301-11.6-1.951-18.537-1.951-1.735 0-3.289 0.075-4.661 0.217-1.378 0.145-13.551 16.911-15.283 18.645-1.737 1.734-3.326 3.327-4.772 4.77 1.737 0.725 3.72 1.159 5.962 1.301 2.238 0.145 10.516 0.216 10.516 0.216 6.211 0 11.634 0.254 16.26 0.758 4.625 0.508 8.89 1.917 12.792 4.228 3.901 2.313 7.658 5.854 11.272 10.624 3.61 4.769 7.514 11.49 11.707 20.163 1.591 3.181 3.286 6.975 5.097 11.382 1.808 4.41 3.505 9.181 5.096 14.309 1.592 5.131 2.891 10.516 3.902 16.152 1.01 5.64 1.521 11.349 1.521 17.129v0.867c0 7.229-0.835 13.299-2.493 18.21-1.663 4.916-3.902 8.891-6.721 11.925-2.815 3.035-6.144 5.203-9.97 6.504-3.831 1.302-20.202 0.867-21.355 0.867-1.158 0-2.459 0.978-3.901 2.926-1.445 1.951-3.219 4.339-5.313 7.153-2.097 2.818-4.629 5.928-7.587 9.324-2.965 3.396-6.613 6.504-10.949 9.322s-9.396 5.205-15.176 7.154c-5.783 1.949-12.504 2.928-20.162 2.928-5.783 0-11.457-0.832-17.021-2.494-5.564-1.658-10.73-4.082-15.501-7.264-4.77-3.176-9.034-7.043-12.792-11.598-3.76-4.555-6.795-9.646-9.106-15.285-0.579-0.434-173.44 0-216.37 0-5.781 11.273-13.766 20.24-23.957 26.883-10.188 6.648-21.57 9.975-34.146 9.975-6.067 0-11.999-0.869-17.774-2.604-5.783-1.732-11.133-4.189-16.045-7.371-4.916-3.176-9.289-7.043-13.116-11.598-3.832-4.555-6.904-9.646-9.215-15.285h-31.223c-5.926 0-10.333-1.844-13.225-5.529-2.893-3.685-4.878-7.945-5.962-12.789-1.084-4.845-1.592-9.576-1.519-14.201 0.071-4.623 0.108-7.947 0.108-9.974 0-10.981 0.722-20.304 2.167-27.967 1.444-7.659 3.866-13.946 7.262-18.861 3.395-4.911 7.876-8.635 13.442-11.166 5.562-2.526 12.466-4.152 20.704-4.877 7.08-1.589 87.514-11.491 93.872-11.491 2.021-1.735 15.102-12.358 18.427-15.826 3.61-3.902 8.165-8.31 13.657-13.225 5.493-4.912 11.633-9.79 18.428-14.634 6.792-4.841 14.081-9.451 21.897-13.767 16.754-9.251 41.333-13.622 50.729-14.417 9.396-0.792 19.078-1.192 29.051-1.192 14.886 0 29.192 0.758 42.928 2.276 13.729 1.518 26.737 3.831 39.022 6.938 12.284 3.11 23.634 7.121 34.038 12.033 10.406 4.915 19.729 10.839 27.97 17.777h8e-3l4e-3 -1e-3zm-287.7 122.19 253.66 0.091v5.852c0 5.064 1.01 9.687 3.032 13.875 2.022 4.193 4.697 7.807 8.023 10.842 3.32 3.035 7.224 5.386 11.708 7.045 4.478 1.663 9.176 2.49 14.089 2.49 5.061 0 9.827-0.829 14.31-2.49 4.479-1.662 8.418-4.01 11.815-7.045 3.395-3.035 6.07-6.648 8.021-10.842 1.95-4.188 2.927-8.813 2.927-13.875v-5.852h5.638c1.735-0.576 23.704 0 25.581 0h3.035c1.155-0.142 1.986-0.613 2.493-1.408 0.505-0.795 0.759-2.635 0.759-5.531 0-8.237-1.194-16.547-3.577-24.93-2.385-8.383-5.063-15.899-8.021-22.548-2.965-6.646-5.64-11.996-8.021-16.043-2.385-4.045-3.577-5.925-3.577-5.638l-2.817-0.65h-39.894c-1.013 0-3.07-1.41-6.177-4.229-3.11-2.817-7.445-6.286-13.01-10.405-5.565-4.12-12.504-8.635-20.813-13.549-8.313-4.913-18.178-9.431-29.593-13.55-11.42-4.119-24.499-7.588-39.241-10.406s-31.295-4.228-49.647-4.228c-10.265 0-19.586 0.725-27.969 2.168-8.384 1.447-16.188 3.577-23.415 6.396-7.229 2.817-14.167 6.324-20.813 10.514-6.65 4.194-13.371 9.035-20.163 14.526-4.195 3.469-7.914 6.721-11.165 9.756-3.252 3.034-6.107 5.745-8.565 8.129-2.458 2.385-24.716 21.284-25.581 22.006 0 0-25.041 1.772-32.629 2.71-7.588 0.942-15.393 1.917-23.414 2.928-8.021 1.012-16.009 2.024-23.956 3.035-7.95 1.013-15.392 1.95-22.33 2.818-6.069 0.725-9.449 2.797-11.814 4.336-3.297 2.145-5.495 22.545-5.854 25.582-0.362 3.035-0.542 5.929-0.542 8.671v3.035c0 1.161 0.071 2.205 0.216 3.145 0.144 0.941 0.468 1.734 0.978 2.386 0.506 0.649 1.336 0.976 2.493 0.976h40.107v3.034c0 5.063 0.977 9.683 2.926 13.873 1.95 4.194 4.587 7.806 7.912 10.841 3.322 3.035 7.226 5.389 11.707 7.045 4.479 1.664 9.249 2.493 14.309 2.493 4.913 0 9.611-0.832 14.092-2.493 4.479-1.66 8.38-4.01 11.707-7.045 3.323-3.035 5.995-6.646 8.021-10.841 2.021-4.19 3.035-8.813 3.035-13.873v-3.129 6e-3h4e-3v-4e-3z" fill="#000000"></path>
</svg>