<?xml version='1.0' encoding='utf-8'?>
<!-- Generator: Adobe Illustrator 16.0.0, SVG Export Plug-In . SVG Version: 6.00 Build 0)  --><svg xmlns="http://www.w3.org/2000/svg" xmlns:cc="http://creativecommons.org/ns#" xmlns:dc="http://purl.org/dc/elements/1.1/" xmlns:ns="&amp;ns_sfw;" xmlns:rdf="http://www.w3.org/1999/02/22-rdf-syntax-ns#" width="609px" height="443px" version="1.2" viewBox="0 0 609 443" xml:space="preserve">
<metadata>
	<ns:sfw>
		<ns:slices></ns:slices>
		<ns:sliceSourceBounds x="145.4" y="164.06" width="550.2" height="291.196" bottomLeftOrigin="true"></ns:sliceSourceBounds>
	</ns:sfw>
<rdf:RDF><cc:Work rdf:about=""><dc:format>image/svg+xml</dc:format><dc:type rdf:resource="http://purl.org/dc/dcmitype/StillImage"></dc:type><dc:title></dc:title></cc:Work></rdf:RDF></metadata>
	<path d="m29.4 258.94h53.701c0 25.6 10.8 33.6 35.699 33.6 27.9 0 36-7.6 36-23.999 0-14.399-11.1-20.8-32.399-25.6l-20.398-4.802c-42.001-10-70.801-32.398-70.801-86.397 0-52.799 26.7-87.999 87.601-87.999 67.501 0 86.102 42.799 86.102 94.398h-52.199c0-21.201-9.301-32-32.7-32-27.602 0-33.602 6-33.602 22.4 0 13.601 8.101 20.399 36 27.199l19.2 4.8c39.602 10 69.603 28.8 69.603 84.799 0 56.399-27.602 89.601-92.401 89.601-67.805-1e-3 -89.105-39.6-89.406-96z" fill="#000000"></path>
	<path d="m384 287.74v62.396h-151.2v-281.59h148.8v62.399h-97.199v49.599h86.399v57.6h-86.399v49.602l99.6-2e-3z" fill="#000000"></path>
	<path d="m579.6 130.94h-66.001v219.2h-51.601v-219.2h-67.2v-62.399h184.8v62.399z" fill="#000000"></path>
</svg>