<?xml version='1.0' encoding='utf-8'?>
<!-- Generator: Adobe Illustrator 16.0.0, SVG Export Plug-In . SVG Version: 6.00 Build 0)  --><svg xmlns="http://www.w3.org/2000/svg" xmlns:cc="http://creativecommons.org/ns#" xmlns:dc="http://purl.org/dc/elements/1.1/" xmlns:rdf="http://www.w3.org/1999/02/22-rdf-syntax-ns#" width="596px" height="425.2px" version="1.2" viewBox="0 0 596 425.2" xml:space="preserve"><metadata><rdf:RDF><cc:Work rdf:about=""><dc:format>image/svg+xml</dc:format><dc:type rdf:resource="http://purl.org/dc/dcmitype/StillImage"></dc:type><dc:title></dc:title></cc:Work></rdf:RDF></metadata>
<path d="m0 366.56h596v-366.56h-596v366.56zm566.21-64.344c0 11.241-9.264 20.355-20.688 20.355h-495.02c-11.43 0-20.689-9.114-20.689-20.355v-252.53c0-11.246 9.26-20.36 20.689-20.36h495.02c11.425 0 20.688 9.114 20.688 20.36v252.53z" fill="#000000"></path>
<rect y="395.87" width="596" height="29.325" fill="#000000"></rect>
<path d="m229.72 143.67-34.904 80.361h-20.417l-15.969-36.777-15.641 36.777h-20.416l-34.905-80.361h30.953l14.489 38.398 15.805-38.398h18.44l17.945 39.532 16.301-39.532h28.319z" fill="#000000"></path>
<path d="m369.33 143.67-34.906 80.361h-20.416l-15.971-36.777-15.641 36.777h-20.416l-34.903-80.361h30.952l14.487 38.398 15.807-38.398h18.439l17.946 39.532 16.3-39.532h28.322z" fill="#000000"></path>
<path d="m508.94 143.67-34.903 80.361h-20.416l-15.971-36.777-15.643 36.777h-20.413l-34.906-80.361h30.952l14.49 38.398 15.805-38.398h18.438l17.947 39.532 16.301-39.532h28.319z" fill="#000000"></path>

	<rect x="18" y="384.1" width="36" height="12" fill="#000000"></rect>
	<rect x="65.591" y="384.1" width="36" height="12" fill="#000000"></rect>
	<rect x="113.18" y="384.1" width="36" height="12" fill="#000000"></rect>
	<rect x="160.77" y="384.1" width="36" height="12" fill="#000000"></rect>
	<rect x="208.36" y="384.1" width="36" height="12" fill="#000000"></rect>
	<rect x="255.96" y="384.1" width="36" height="12" fill="#000000"></rect>
	<rect x="303.54" y="384.1" width="36" height="12" fill="#000000"></rect>
	<rect x="351.14" y="384.1" width="36" height="12" fill="#000000"></rect>
	<rect x="398.73" y="384.1" width="36" height="12" fill="#000000"></rect>
	<rect x="446.32" y="384.1" width="36" height="12" fill="#000000"></rect>
	<rect x="493.91" y="384.1" width="36" height="12" fill="#000000"></rect>
	<rect x="541.5" y="384.1" width="36" height="12" fill="#000000"></rect>

</svg>