<?xml version='1.0' encoding='utf-8'?>
<!-- Generator: Adobe Illustrator 16.0.0, SVG Export Plug-In . SVG Version: 6.00 Build 0)  --><svg xmlns="http://www.w3.org/2000/svg" xmlns:cc="http://creativecommons.org/ns#" xmlns:dc="http://purl.org/dc/elements/1.1/" xmlns:ns="&amp;ns_sfw;" xmlns:rdf="http://www.w3.org/1999/02/22-rdf-syntax-ns#" width="480px" height="388px" enable-background="new 0 0 480 388" version="1.1" viewBox="0 0 480 388" xml:space="preserve">
<metadata>
	<ns:sfw>
		<ns:slices></ns:slices>
		<ns:sliceSourceBounds x="213.147" y="124.983" width="416.246" height="322.257" bottomLeftOrigin="true"></ns:sliceSourceBounds>
	</ns:sfw>
<rdf:RDF><cc:Work rdf:about=""><dc:format>image/svg+xml</dc:format><dc:type rdf:resource="http://purl.org/dc/dcmitype/StillImage"></dc:type><dc:title></dc:title></cc:Work></rdf:RDF></metadata>
	<path d="m32.647 299.83v-255.57h70.271c12.83 0 23.533 0.3 32.112 0.895 8.578 0.598 14.884 1.493 18.911 2.686 6.413 1.94 12.384 5.112 17.903 9.511 5.518 4.402 10.218 9.847 14.099 16.337 3.877 6.49 6.938 13.914 9.177 22.267 2.236 8.357 3.355 17.382 3.355 27.079 0 9.252-1.007 17.756-3.021 25.512-2.016 7.76-4.738 14.735-8.168 20.924-3.436 6.193-7.462 11.525-12.084 16.002-4.626 4.476-9.551 7.909-14.771 10.293-10.742 4.924-29.314 7.385-55.725 7.385h-28.42v96.678h-43.639zm43.639-212.15v72.509h24.169c7.904 0 14.396-0.225 19.47-0.672 5.07-0.447 9.322-1.23 12.757-2.35 3.43-1.119 6.266-2.686 8.504-4.7 2.237-2.014 4.478-4.511 6.714-7.497 3.581-5.818 5.371-12.902 5.371-21.26 0-8.952-1.939-16.26-5.817-21.932-3.883-5.668-8.581-9.399-14.101-11.189-2.984-0.895-7.386-1.602-13.204-2.126-5.816-0.521-13.354-0.783-22.604-0.783h-21.259zm249.53 278.84c-17.158 0-33.271-3.242-48.339-9.731-15.071-6.49-28.197-15.33-39.388-26.521-11.188-11.188-19.993-24.313-26.406-39.387-6.417-15.067-9.623-31.105-9.623-48.115 0-17.008 3.207-33.009 9.623-48.002 6.412-14.994 15.217-28.086 26.406-39.275 11.188-11.188 24.28-20.063 39.273-26.631 14.994-6.563 31.068-9.847 48.229-9.847 17.008 0 33.009 3.283 48.003 9.847 14.993 6.567 28.085 15.441 39.271 26.631 11.189 11.19 19.991 24.281 26.407 39.275 6.413 14.994 9.623 30.995 9.623 48.002 0 17.012-3.21 33.048-9.623 48.115-6.416 15.07-15.218 28.197-26.407 39.387-11.188 11.19-24.246 20.029-39.163 26.521-14.917 6.486-30.878 9.731-47.886 9.731zm-70.494-129.57h-27.302c-1.196 0-2.276 0.039-3.245 0.109-0.973 0.076-1.829 0.374-2.573 0.896-0.747 0.521-1.343 1.343-1.789 2.462-0.448 1.119-0.673 2.724-0.673 4.812 0 8.207 1.009 16.078 3.021 23.61 2.015 7.535 4.735 14.809 8.168 21.819l0.225 0.895c2.087 4.329 4.55 6.49 7.387 6.49 1.042 0 2.159-0.371 3.354-1.119l22.155-19.47c-2.838-5.07-5-10.406-6.489-16.001-1.493-5.598-2.238-11.525-2.238-17.791v-6.712h-1e-3zm70.494-100.48c-10.742 0-21.075 1.566-30.995 4.7-9.924 3.133-19.099 7.462-27.526 12.979-8.431 5.521-15.928 12.084-22.487 19.693-6.567 7.609-11.861 15.966-15.891 25.064-0.447 0.895-0.671 1.789-0.671 2.686 0 1.342 0.595 2.5 1.789 3.468 1.192 0.972 2.982 1.455 5.371 1.455h180.15c2.535 0 4.396-0.521 5.595-1.567 1.192-1.041 1.79-2.237 1.79-3.58 0-0.745-0.224-1.566-0.671-2.461-4.329-9.1-9.773-17.457-16.337-25.064-6.566-7.609-14.025-14.172-22.379-19.693-8.357-5.519-17.422-9.848-27.19-12.979-9.773-3.135-19.957-4.701-30.548-4.701zm-0.222 212.82c11.483 0 22.34-1.714 32.561-5.147 10.218-3.43 19.806-8.354 28.758-14.77 0.744-0.745 1.454-1.455 2.126-2.127 0.671-0.671 1.007-1.527 1.007-2.573 0-1.192-0.483-2.496-1.455-3.916-0.972-1.416-2.57-3.168-4.812-5.259l-17.231-15.218c-5.672 4.328-11.973 7.646-18.907 9.958-6.938 2.313-14.288 3.469-22.043 3.469-7.91 0-15.33-1.153-22.271-3.469-6.938-2.313-13.242-5.63-18.91-9.958l-17.229 15.218c-2.238 2.091-3.771 3.881-4.588 5.37-0.822 1.493-1.311 2.763-1.455 3.805 0 1.196 0.298 2.091 0.896 2.688s1.343 1.27 2.238 2.015c8.801 6.416 18.312 11.34 28.533 14.77 10.212 3.43 21.141 5.144 32.782 5.144zm0-56.619c4.923 0 9.511-0.969 13.763-2.909 4.252-1.938 7.944-4.549 11.077-7.833 3.134-3.278 5.63-7.122 7.497-11.521 1.864-4.399 2.798-9.141 2.798-14.211 0-4.927-0.937-9.549-2.798-13.875-1.867-4.325-4.363-8.168-7.497-11.525-3.133-3.356-6.825-6.004-11.077-7.944-4.252-1.937-8.84-2.908-13.763-2.908-4.927 0-9.515 0.972-13.767 2.908-4.252 1.94-7.979 4.586-11.188 7.944-3.21 3.357-5.706 7.2-7.497 11.525-1.79 4.326-2.688 8.948-2.688 13.875 0 5.07 0.896 9.812 2.688 14.211 1.791 4.399 4.287 8.243 7.497 11.521 3.207 3.284 6.938 5.896 11.188 7.833 4.252 1.94 8.84 2.909 13.767 2.909zm70.045-55.724v6.714c0 6.266-0.748 12.193-2.238 17.791-1.493 5.595-3.657 10.931-6.489 16.001l22.379 19.47c1.042 0.748 2.09 1.119 3.136 1.119 2.686 0 5.146-2.161 7.385-6.49l0.224-0.895c7.015-13.728 10.892-28.869 11.641-45.433-0.304-4.175-1.271-6.602-2.909-7.271-1.646-0.671-3.658-1.007-6.043-1.007h-27.086v1e-3z" fill="#000000"></path>
</svg>