<?xml version='1.0' encoding='utf-8'?>
<!-- Generator: Adobe Illustrator 16.0.3, SVG Export Plug-In . SVG Version: 6.00 Build 0)  --><svg xmlns="http://www.w3.org/2000/svg" xmlns:cc="http://creativecommons.org/ns#" xmlns:dc="http://purl.org/dc/elements/1.1/" xmlns:rdf="http://www.w3.org/1999/02/22-rdf-syntax-ns#" width="366.9px" height="425.2px" version="1.2" viewBox="0 0 366.9 425.2" xml:space="preserve"><metadata><rdf:RDF><cc:Work rdf:about=""><dc:format>image/svg+xml</dc:format><dc:type rdf:resource="http://purl.org/dc/dcmitype/StillImage"></dc:type><dc:title></dc:title></cc:Work></rdf:RDF></metadata>
<path d="m131.75 207.12 6e-3 -3e-3c-6.416 47.368-58.465 133.03-58.465 133.03s-52.043-85.666-58.468-133.03l7e-3 4e-3c-0.438-2.885-0.658-5.84-0.658-8.854 0-32.663 26.464-59.129 59.119-59.129 32.647 0 59.119 26.466 59.119 59.129 0 3.014-0.227 5.969-0.66 8.853zm-58.459-33.17c-16.262 0-29.444 13.182-29.444 29.444 0 16.248 13.183 29.431 29.444 29.431s29.444-13.184 29.444-29.431c0-16.262-13.182-29.444-29.444-29.444z" fill="#000000"></path>
<path d="m352.73 56.693v172.56h-203.52c1.871-6.732 3.292-13.197 4.106-19.21 0.011-0.083 0.022-0.167 0.032-0.25 0.543-3.803 0.819-7.676 0.819-11.521 0-43.54-34.579-79.135-77.71-80.807v-60.772h276.27zm-20.494 20.99h-27.656v27.657h27.656v-27.657zm0 38.442h-124.78v6h124.78v-6zm0 13.784h-124.78v6h124.78v-6zm-68.721 13.785h-56.064v6h56.064v-6z" fill="#000000"></path>
</svg>