<?xml version='1.0' encoding='utf-8'?>
<!-- Generator: Adobe Illustrator 16.0.3, SVG Export Plug-In . SVG Version: 6.00 Build 0)  --><svg xmlns="http://www.w3.org/2000/svg" xmlns:cc="http://creativecommons.org/ns#" xmlns:dc="http://purl.org/dc/elements/1.1/" xmlns:rdf="http://www.w3.org/1999/02/22-rdf-syntax-ns#" width="415.87px" height="425.2px" version="1.2" viewBox="0 0 415.87 425.2" xml:space="preserve"><metadata><rdf:RDF><cc:Work rdf:about=""><dc:format>image/svg+xml</dc:format><dc:type rdf:resource="http://purl.org/dc/dcmitype/StillImage"></dc:type><dc:title></dc:title></cc:Work></rdf:RDF></metadata>
<polygon points="401.7 285.36 338.09 230.56 338.09 271.29 198.13 271.29 198.13 299.43 338.09 299.43 338.09 340.16" fill-rule="evenodd" fill="#000000"></polygon>
<g fill-rule="evenodd">
	<path d="m188.24 288.88v-17.592c0-5.463 4.429-9.893 9.892-9.893h86.923l-63.225-54.325 15.814-15.567 81.355 69.893h9.201v-30.837c0-3.867 2.254-7.38 5.771-8.993 0.439-0.201 0.89-0.367 1.346-0.501v-150.21l-160.57 158.09-160.57-158.09v204.56l97.668-83.912 15.814 15.568-95.205 81.81h155.79z" fill="#000000"></path>
	<polygon points="31.323 56.693 174.74 197.91 318.17 56.693" fill="#000000"></polygon>
</g>
</svg>