<?xml version='1.0' encoding='utf-8'?>
<!-- Generator: Adobe Illustrator 16.0.3, SVG Export Plug-In . SVG Version: 6.00 Build 0)  --><svg xmlns="http://www.w3.org/2000/svg" xmlns:cc="http://creativecommons.org/ns#" xmlns:dc="http://purl.org/dc/elements/1.1/" xmlns:rdf="http://www.w3.org/1999/02/22-rdf-syntax-ns#" width="303.1px" height="425.2px" version="1.2" viewBox="0 0 303.1 425.2" xml:space="preserve"><metadata><rdf:RDF><cc:Work rdf:about=""><dc:format>image/svg+xml</dc:format><dc:type rdf:resource="http://purl.org/dc/dcmitype/StillImage"></dc:type><dc:title></dc:title></cc:Work></rdf:RDF></metadata>
<path d="m288.93 78.389v21.697h-14.984l-21.995 195.11h-64.661v-24.854l0.368-0.192h2.607v-151.76h-12.463v83.598h-22.732v-83.598h-12.461v83.598h-37.001l-11.488-101.91h-14.982v-21.697h57.772v-7.743c0-7.708 6.246-13.954 13.949-13.954h66.342c7.715 0 13.957 6.245 13.957 13.954v7.743h57.772zm-63.469 40.007h-12.463v151.76h12.463v-151.76z" fill="#000000"></path>
	<path d="m109.34 340.16h-20.744l-8.301-26.175h-37.94l-7.836 26.175h-20.341l36.907-115.58h20.266l37.989 115.58zm-35.205-45.727-13.085-42.891-12.84 42.891h25.925z" fill="#000000"></path>
	<path d="m117.05 340.16v-121.24h18.212v121.24h-18.212z" fill="#000000"></path>
	<path d="m152.15 340.16v-121.24h18.212v121.24h-18.212z" fill="#000000"></path>
</svg>