<?xml version='1.0' encoding='utf-8'?>
<!-- Generator: Adobe Illustrator 16.0.0, SVG Export Plug-In . SVG Version: 6.00 Build 0)  --><svg xmlns="http://www.w3.org/2000/svg" xmlns:cc="http://creativecommons.org/ns#" xmlns:dc="http://purl.org/dc/elements/1.1/" xmlns:rdf="http://www.w3.org/1999/02/22-rdf-syntax-ns#" width="392px" height="425.2px" version="1.2" viewBox="258.44 85.042 392 425.2" xml:space="preserve"><metadata><rdf:RDF><cc:Work rdf:about=""><dc:format>image/svg+xml</dc:format><dc:type rdf:resource="http://purl.org/dc/dcmitype/StillImage"></dc:type><dc:title></dc:title></cc:Work></rdf:RDF></metadata>

	<path d="m453.64 457.8c-96.126 0-174.33-78.204-174.33-174.33s78.204-174.33 174.33-174.33c96.126 0 174.33 78.205 174.33 174.33s-78.204 174.33-174.33 174.33zm0-310.74c-75.218 0-136.41 61.195-136.41 136.41 0 75.219 61.195 136.41 136.41 136.41s136.41-61.195 136.41-136.41c0-75.218-61.195-136.41-136.41-136.41z"></path>
	
		<path d="m396.39 370.19c-4.663 0-9.335-1.709-12.998-5.159-7.621-7.181-7.979-19.179-0.798-26.8l130.12-138.12c7.18-7.622 19.18-7.979 26.8-0.799s7.978 19.178 0.799 26.799l-130.12 138.12c-3.73 3.959-8.762 5.958-13.803 5.958z"></path>
		<path d="m530.51 366.15c-4.663 0-9.335-1.71-12.997-5.159l-138.12-130.12c-7.622-7.179-7.979-19.178-0.799-26.799 7.182-7.622 19.179-7.978 26.8-0.799l138.12 130.12c7.621 7.179 7.979 19.178 0.799 26.8-3.729 3.959-8.762 5.957-13.803 5.957z"></path>
	

</svg>