<?xml version='1.0' encoding='utf-8'?>
<!-- Generator: Adobe Illustrator 27.2.0, SVG Export Plug-In . SVG Version: 6.00 Build 0)  --><svg xmlns="http://www.w3.org/2000/svg" xmlns:xlink="http://www.w3.org/1999/xlink" version="1.1" id="Vrstva_1" x="0px" y="0px" viewBox="0 0 526.4 566.9" style="enable-background:new 0 0 526.4 566.9;" xml:space="preserve" width="371.42355" height="400.0">
<g>
	<path d="M275.4,370.2c10.3,31.5,19.3,61.7,28.9,91.3c2.6,7.7,0,9.6-6.4,11.6c-65,16.7-126.7,9-184.6-26.4   c-41.2-25.7-72-61.1-90-105.5C-28.2,215.8,34.9,77.6,161.6,33.8C276-5.4,400.2,49.3,447.7,161.2c21.2,49.5,23.8,101.6,8.4,154.4   c-0.6,1.3-0.6,1.9-1.9,4.5c-11.6-5.8-23.8-10.9-34.7-16.7c-1.9-0.6-1.3-6.4-0.6-9.6c7.1-34.1,5.8-67.5-4.5-101   c-2.6-7.7-5.8-10.3-14.2-8.4c-19.9,3.9-39.9,7.1-59.8,9.6c-7.1,1.3-10.3,3.2-9.6,10.9c1.3,15.4,1.3,31.5,1.9,47.6v10.3   c-14.1-6.4-27-12.2-39.2-18.7c-1.9-1.3-3.2-5.1-3.2-7.7c-0.6-9.6-1.3-18.6-1.9-28.3c0-6.4-2.6-9-9-9c-28.3,0-57.2,0.6-85.5,0   c-6.4,0-9.6,2.6-9.6,9v86.2c0,6.4,3.2,9,9.6,8.4c17.4-0.6,34.7,0,52.1-0.6c7.1,0,10.3,2.6,12.2,9c3.2,10.9,6.4,21.2,10.3,33.4   h-75.9c0,3.2-0.6,4.5-0.6,6.4c5.1,25.7,12.2,50.8,27,72.7c0.6,1.3,1.9,2.6,2.6,3.9c10.3,12.9,18,13.5,27.6,0   c8.4-11.6,14.2-25.1,19.9-38.6C271.5,384.3,272.8,377.9,275.4,370.2L275.4,370.2L275.4,370.2z M53.5,213.3   c-5.1,25.1-5.1,51.5,0,77.2c1.3,7.7,3.2,14.8,5.1,22.5c0.6,3.9,2.6,7.7,8.4,6.4c21.9-3.9,43.7-7.1,65.6-10.9   c7.7-1.3,9.6-3.9,8.4-14.8c-2.6-28.3-2.6-56.6,0-84.9c0.6-10.9-1.9-12.9-9.6-14.1c-20.6-3.2-41.2-5.8-61.7-10.3   c-6.4-1.3-9.6,0.6-10.9,6.4C56.7,198.5,54.8,205.5,53.5,213.3L53.5,213.3z M235.5,157.3h36.7c6.4,0,8.4-2.6,7.1-9   c-5.1-23.2-11.6-45-23.8-65.6c-13.5-23.1-25.1-23.1-39.2,0c-12.2,20.6-18.6,43.1-24.4,66.2c-1.3,6.4,1.3,8.4,7.1,8.4H235.5   L235.5,157.3z M168.6,426.8c0.6-3.2,0.6-3.9,0.6-5.1c-6.4-22.5-13.5-44.4-19.9-66.9c-1.3-5.1-5.1-5.8-9.6-5.1   c-12.2,1.9-24.4,3.2-36.7,5.1c-5.8,1.3-12.2,2.6-19.9,4.5C105,391.4,133.2,412.6,168.6,426.8L168.6,426.8z M169.3,76.3   c-36,14.8-63.7,36-86.8,68.2c16.7,2.6,30.9,5.8,45,7.1c22.5,2.6,19.3,6.4,23.8-15.4c0-1.3,0.6-1.9,0.6-3.2   C157.7,114.9,162.8,96.9,169.3,76.3L169.3,76.3z M303.7,76.9c-0.6,1.9-1.3,2.6-1.3,3.2c6.4,23.2,12.9,45.7,20.6,68.8   c0.6,1.9,5.8,3.9,8.4,3.9c8.4-0.6,16.7-1.9,25.1-3.2c9.7-1.9,19.9-3.9,32.2-5.8C365.4,112.3,337.8,90.4,303.7,76.9L303.7,76.9z"></path>
	<path d="M447.1,432.6c3.9,4.5,5.8,7.7,8.4,10.3c19.9,22.5,40.5,45.7,60.5,67.5c4.5,5.1,5.1,8.4-0.6,12.9   c-8.4,7.1-16.1,14.2-25.7,22.5c-25.1-27.7-49.5-55.3-75.2-84.2c-13.5,23.8-26.4,46.3-39.9,70.7c-25.1-78.5-49.5-155-74.6-233.4   c74.6,34.7,146.6,68.2,221.2,102.9C496.6,412,472.8,422.3,447.1,432.6L447.1,432.6L447.1,432.6z"></path>
</g>
</svg>