<?xml version='1.0' encoding='utf-8'?>
<!-- Generator: Adobe Illustrator 27.2.0, SVG Export Plug-In . SVG Version: 6.00 Build 0)  --><svg xmlns:cc="http://creativecommons.org/ns#" xmlns="http://www.w3.org/2000/svg" xmlns:rdf="http://www.w3.org/1999/02/22-rdf-syntax-ns#" xmlns:ns="http://ns.adobe.com/SaveForWeb/1.0/" xmlns:dc="http://purl.org/dc/elements/1.1/" xmlns:xlink="http://www.w3.org/1999/xlink" version="1.2" baseProfile="tiny" id="Layer_1" x="0px" y="0px" viewBox="0 0 396.9 425.2" overflow="visible" xml:space="preserve" width="373.37723" height="400.0">
<g>
	<path d="M291.1,320.2c-26.6,20.3-58.7,31.2-92.8,31.2s-66.3-11-92.8-31.2l-17,17.2c32.1,25.5,71.1,38.2,110,38.2   s77.8-12.7,110-38.2L291.1,320.2z" fill="#F54C4C"></path>
	<path d="M320.2,291.1l17.2,17.2c51-64.2,51-155.6,0-219.8l-17.2,17.2c20.3,26.6,31.2,58.7,31.2,92.8S340.5,264.5,320.2,291.1z" fill="#F54C4C"></path>
	<path d="M105.6,76.6c26.6-20.3,58.7-31.2,92.8-31.2s66.3,11,92.8,31.2l17.2-17.2c-32.1-25.5-71.1-38.2-110-38.2S120.6,34,88.5,59.5   L105.6,76.6z" fill="#F54C4C"></path>
	<path d="M76.6,105.6L59.5,88.5c-51,64.2-51,155.6,0,219.8l17.2-17.2c-20.3-26.6-31.2-58.7-31.2-92.8S56.4,132.2,76.6,105.6z" fill="#F54C4C"></path>
</g>
<g>
	<path d="M243,250.1c-2.7,8.6-10.9,14.4-20,13.7l38.2,46l18.5-15.4L243,250.1z" fill="#F54C4C"></path>
	<path d="M287.5,84.3c-13.9,20.3-27.6,36.5-41.7,49.1c7.6,4,12.7,11.9,13,20.8c16.6-14.2,32.7-32.9,48.7-56.2L287.5,84.3z" fill="#F54C4C"></path>
</g>
<g>
	<path d="M186.2,219.5l-22.7-3.1c-5.8-0.8-11.7,1.1-16,5.1l-44.1,41.7c-7.8,7.4-8.2,19.7-0.8,27.5c3.9,4,9,6,14.1,6   c4.8,0,9.7-1.7,13.4-5.4l37.4-35.4l54.2,7.4c0.4,0,0.8,0.1,1.2,0.1L186.2,219.5z" fill="#F54C4C"></path>
	<path d="M243,250.1c0.3-0.9,0.5-2,0.7-3.1c0-0.3,0.7-3.1,0.8-4.2l13.8-84.2c0.3-1.5,0.4-3.1,0.3-4.6   c-16.9,14.6-34.6,24.7-53.4,30.6l-2.7,16.6L243,250.1z" fill="#F54C4C"></path>
	<path d="M245.6,133.4c-2.3-1.2-4.7-2-7.2-2.4c-13.1-2.1-25.6,6.7-27.8,19.8l-1.1,6.3C222,151.8,234,143.8,245.6,133.4z" fill="#F54C4C"></path>
	<g>
		<ellipse cx="237.1" cy="95.4" rx="26.6" ry="26.6" fill="#F54C4C"></ellipse>
	</g>
</g>
</svg>