<?xml version='1.0' encoding='utf-8'?>
<!-- Generator: Adobe Illustrator 26.0.1, SVG Export Plug-In . SVG Version: 6.00 Build 0)  --><svg xmlns="http://www.w3.org/2000/svg" xmlns:cc="http://creativecommons.org/ns#" xmlns:dc="http://purl.org/dc/elements/1.1/" xmlns:rdf="http://www.w3.org/1999/02/22-rdf-syntax-ns#" enable-background="new 0 0 80.2 81.6" version="1.1" viewBox="0 0 80.2 81.6" xml:space="preserve" width="393.13724" height="400.0"><metadata><rdf:RDF><cc:Work rdf:about=""><dc:format>image/svg+xml</dc:format><dc:type rdf:resource="http://purl.org/dc/dcmitype/StillImage"></dc:type><dc:title></dc:title></cc:Work></rdf:RDF></metadata><path d="m42 54.3c1.6 4.9 3 9.6 4.5 14.2 0.4 1.2 0 1.5-1 1.8-10.1 2.6-19.7 1.4-28.7-4.1-6.4-4-11.2-9.5-14-16.4-8-19.5 1.8-41 21.5-47.8 17.8-6.1 37.1 2.4 44.5 19.8 3.3 7.7 3.7 15.8 1.3 24-0.1 0.2-0.1 0.3-0.3 0.7-1.8-0.9-3.7-1.7-5.4-2.6-0.3-0.1-0.2-1-0.1-1.5 1.1-5.3 0.9-10.5-0.7-15.7-0.4-1.2-0.9-1.6-2.2-1.3-3.1 0.6-6.2 1.1-9.3 1.5-1.1 0.2-1.6 0.5-1.5 1.7 0.2 2.4 0.2 4.9 0.3 7.4v1.6c-2.2-1-4.2-1.9-6.1-2.9-0.3-0.2-0.5-0.8-0.5-1.2-0.1-1.5-0.2-2.9-0.3-4.4 0-1-0.4-1.4-1.4-1.4-4.4 0-8.9 0.1-13.3 0-1 0-1.5 0.4-1.5 1.4v13.4c0 1 0.5 1.4 1.5 1.3 2.7-0.1 5.4 0 8.1-0.1 1.1 0 1.6 0.4 1.9 1.4 0.5 1.7 1 3.3 1.6 5.2h-11.8c0 0.5-0.1 0.7-0.1 1 0.8 4 1.9 7.9 4.2 11.3 0.1 0.2 0.3 0.4 0.4 0.6 1.6 2 2.8 2.1 4.3 0 1.3-1.8 2.2-3.9 3.1-6 0.4-0.7 0.6-1.7 1-2.9zm-34.5-24.4c-0.8 3.9-0.8 8 0 12 0.2 1.2 0.5 2.3 0.8 3.5 0.1 0.6 0.4 1.2 1.3 1 3.4-0.6 6.8-1.1 10.2-1.7 1.2-0.2 1.5-0.6 1.3-2.3-0.4-4.4-0.4-8.8 0-13.2 0.1-1.7-0.3-2-1.5-2.2-3.2-0.5-6.4-0.9-9.6-1.6-1-0.2-1.5 0.1-1.7 1-0.3 1.2-0.6 2.3-0.8 3.5zm28.3-8.7h5.7c1 0 1.3-0.4 1.1-1.4-0.8-3.6-1.8-7-3.7-10.2-2.1-3.6-3.9-3.6-6.1 0-1.9 3.2-2.9 6.7-3.8 10.3-0.2 1 0.2 1.3 1.1 1.3h5.7zm-10.4 41.9c0.1-0.5 0.1-0.6 0.1-0.8-1-3.5-2.1-6.9-3.1-10.4-0.2-0.8-0.8-0.9-1.5-0.8-1.9 0.3-3.8 0.5-5.7 0.8-0.9 0.2-1.9 0.4-3.1 0.7 3.4 5 7.8 8.3 13.3 10.5zm0.1-54.5c-5.6 2.3-9.9 5.6-13.5 10.6 2.6 0.4 4.8 0.9 7 1.1 3.5 0.4 3 1 3.7-2.4 0-0.2 0.1-0.3 0.1-0.5 0.9-2.8 1.7-5.6 2.7-8.8zm20.9 0.1c-0.1 0.3-0.2 0.4-0.2 0.5 1 3.6 2 7.1 3.2 10.7 0.1 0.3 0.9 0.6 1.3 0.6 1.3-0.1 2.6-0.3 3.9-0.5 1.5-0.3 3.1-0.6 5-0.9-3.6-4.9-7.9-8.3-13.2-10.4z"></path><path d="m68.7 64c0.6 0.7 0.9 1.2 1.3 1.6 3.1 3.5 6.3 7.1 9.4 10.5 0.7 0.8 0.8 1.3-0.1 2-1.3 1.1-2.5 2.2-4 3.5-3.9-4.3-7.7-8.6-11.7-13.1-2.1 3.7-4.1 7.2-6.2 11-3.9-12.2-7.7-24.1-11.6-36.3 11.6 5.4 22.8 10.6 34.4 16-3.8 1.6-7.5 3.2-11.5 4.8z"></path></svg>