<?xml version='1.0' encoding='utf-8'?>
<!-- Generator: Adobe Illustrator 16.0.0, SVG Export Plug-In . SVG Version: 6.00 Build 0)  --><svg xmlns="http://www.w3.org/2000/svg" xmlns:cc="http://creativecommons.org/ns#" xmlns:dc="http://purl.org/dc/elements/1.1/" xmlns:rdf="http://www.w3.org/1999/02/22-rdf-syntax-ns#" width="654px" height="425.2px" enable-background="new 0 0 654 425.2" version="1.1" viewBox="0 0 654 425.2" xml:space="preserve"><metadata><rdf:RDF><cc:Work rdf:about=""><dc:format>image/svg+xml</dc:format><dc:type rdf:resource="http://purl.org/dc/dcmitype/StillImage"></dc:type><dc:title></dc:title></cc:Work></rdf:RDF></metadata>
<path d="m43.4 189.97c-10.627-8.518-18.897-20.218-24.814-35.105-5.921-14.883-8.878-31.563-8.878-50.033 0-18.292 3.027-34.923 9.077-49.897 6.054-14.97 14.456-26.72 25.219-35.237 10.759-8.515 22.998-12.778 36.718-12.778 13.448 0 25.217 3.455 35.303 10.357 10.089 6.905 18.122 16.139 24.109 27.706 5.984 11.569 9.786 24.344 11.4 38.332h-36.313c-1.483-6.095-3.732-11.655-6.759-16.678-3.027-5.019-6.828-9.053-11.401-12.105-4.572-3.046-9.751-4.574-15.535-4.574-7.535 0-13.988 2.421-19.367 7.264-5.379 4.842-9.416 11.393-12.104 19.638-2.692 8.249-4.035 17.578-4.035 27.974 0 10.404 1.343 19.73 4.035 27.976 2.69 8.25 6.688 14.793 12.003 19.636s11.803 7.264 19.469 7.264c9.414 0 16.877-3.005 22.393-9.012 5.515-6.004 9.551-14.479 12.105-25.419h35.91c-1.481 13.81-5.179 26.586-11.096 38.332-5.917 11.748-14.055 21.206-24.41 28.376-10.355 7.176-22.529 10.76-36.514 10.76-13.718-2e-3 -25.892-4.259-36.515-12.777z" fill="#000000"></path>
<path d="m201.77 157.55h60.524v41.963h-95.225v-189.37h34.701v147.41z" fill="#000000"></path>
<path d="m274.39 199.51v-189.37h34.702v189.38l-34.702-1e-3z" fill="#000000"></path>
<path d="m482.6 10.143v189.37h-32.279v-89.038l-33.087 89.038h-22.597l-32.281-86.884v86.884h-32.274v-189.37h29.054l48.62 128.58 44.988-128.58h29.856z" fill="#000000"></path>
<path d="m606.86 199.51-8.873-27.976h-62.945l-8.876 27.976h-35.507l62.945-189.38h28.242l62.138 189.38h-37.124zm-59.714-65.636h38.736l-19.369-61.063-19.367 61.063z" fill="#000000"></path>
<path d="m166.86 405.03c-11.837-8.606-21.284-20.397-28.343-35.373-7.062-14.97-10.594-31.513-10.594-49.629 0-17.933 3.531-34.39 10.594-49.36 7.059-14.974 16.506-26.808 28.343-35.511 11.835-8.694 24.679-13.044 38.534-13.044 13.85 0 26.696 4.305 38.533 12.91 11.834 8.609 21.285 20.4 28.345 35.373 7.061 14.977 10.593 31.52 10.593 49.632 0 18.116-3.531 34.656-10.593 49.629-7.06 14.976-16.511 26.767-28.345 35.373-11.837 8.608-24.683 12.912-38.533 12.912-13.856 0-26.7-4.306-38.534-12.912zm58.908-37.527c6.321-4.931 11.364-11.566 15.134-19.905 3.762-8.339 5.649-17.524 5.649-27.569 0-10.037-1.887-19.236-5.649-27.57-3.767-8.342-8.81-14.971-15.134-19.908-6.323-4.928-13.113-7.396-20.375-7.396s-14.057 2.471-20.376 7.396c-6.323 4.938-11.367 11.613-15.133 20.045-3.767 8.427-5.649 17.574-5.649 27.438 0 10.045 1.881 19.233 5.649 27.569 3.763 8.339 8.808 14.976 15.133 19.905 6.319 4.936 13.114 7.399 20.376 7.399 7.262-3e-3 14.051-2.468 20.375-7.404z" fill="#000000"></path>
<path d="m401.48 267.3h-70.207v38.738h64.558v39.811h-64.558v68.861h-34.701v-189.37h104.91v41.962z" fill="#000000"></path>
<path d="m520.12 267.3h-70.207v38.738h64.558v39.811h-64.558v68.861h-34.7v-189.37h104.91v41.962z" fill="#000000"></path>
</svg>