<?xml version='1.0' encoding='utf-8'?>
<!-- Generator: Adobe Illustrator 16.0.3, SVG Export Plug-In . SVG Version: 6.00 Build 0)  --><svg xmlns="http://www.w3.org/2000/svg" xmlns:cc="http://creativecommons.org/ns#" xmlns:dc="http://purl.org/dc/elements/1.1/" xmlns:rdf="http://www.w3.org/1999/02/22-rdf-syntax-ns#" width="402.36px" height="425.2px" version="1.2" viewBox="0 0 402.36 425.2" xml:space="preserve"><metadata><rdf:RDF><cc:Work rdf:about=""><dc:format>image/svg+xml</dc:format><dc:type rdf:resource="http://purl.org/dc/dcmitype/StillImage"></dc:type><dc:title></dc:title></cc:Work></rdf:RDF></metadata>
<path d="m112.47 271.79c-10.837 18.384-10.487 27.563 2.151 40.661l26.742 27.707 55.193-68.537-12.938-21.456c-3.487-5.777-2.415-13.102 2.408-18.384 29.861-32.66 61.116-63.916 93.786-93.78 5.277-4.822 12.603-5.894 18.374-2.406l21.457 12.939 68.537-55.196-27.706-26.741c-13.099-12.639-22.278-12.988-40.66-2.151-73.446 43.283-164.06 133.91-207.34 207.34z" fill-rule="evenodd" fill="#000000"></path>
<path d="m104.65 269.35-11.571-19.188c-3.487-5.777-2.415-13.102 2.408-18.384 29.863-32.66 61.118-63.916 93.782-93.78 5.277-4.822 12.6-5.894 18.373-2.406l4.706 2.838c23.106-22.066 47.234-42.423 70.594-59.277l-13.012-12.559c-13.099-12.639-22.278-12.988-40.66-2.151-73.44 43.283-164.06 133.91-207.34 207.34-10.837 18.384-10.487 27.563 2.151 40.661l26.742 27.707 48.908-60.732c1.248-3.161 2.887-6.502 4.918-10.073z" fill-rule="evenodd" fill="#000000"></path>
</svg>