<?xml version='1.0' encoding='utf-8'?>
<!-- Generator: Adobe Illustrator 16.0.3, SVG Export Plug-In . SVG Version: 6.00 Build 0)  --><svg xmlns="http://www.w3.org/2000/svg" xmlns:cc="http://creativecommons.org/ns#" xmlns:dc="http://purl.org/dc/elements/1.1/" xmlns:rdf="http://www.w3.org/1999/02/22-rdf-syntax-ns#" width="99.822px" height="425.2px" version="1.2" viewBox="0 0 99.822 425.2" xml:space="preserve"><metadata><rdf:RDF><cc:Work rdf:about=""><dc:format>image/svg+xml</dc:format><dc:type rdf:resource="http://purl.org/dc/dcmitype/StillImage"></dc:type><dc:title></dc:title></cc:Work></rdf:RDF></metadata>
<path d="m85.649 304.42c0 19.745-15.995 35.733-35.738 35.733-19.736 0-35.737-15.988-35.737-35.733 0-19.742 16.001-35.73 35.737-35.73 19.743-1e-3 35.738 15.988 35.738 35.73z" fill="#000000"></path>
<path d="m85.649 198.42c0 19.744-15.995 35.733-35.738 35.733-19.736 0-35.737-15.989-35.737-35.733 0-19.743 16.001-35.733 35.737-35.733 19.743 0 35.738 15.991 35.738 35.733z" fill="#000000"></path>
<path d="m85.649 92.425c0 19.744-15.995 35.733-35.738 35.733-19.736 0-35.737-15.99-35.737-35.733s16.001-35.732 35.737-35.732c19.743 0 35.738 15.99 35.738 35.732z" fill="#000000"></path>
</svg>