<?xml version='1.0' encoding='utf-8'?>
<!-- Generator: Adobe Illustrator 16.0.0, SVG Export Plug-In . SVG Version: 6.00 Build 0)  --><svg xmlns="http://www.w3.org/2000/svg" xmlns:cc="http://creativecommons.org/ns#" xmlns:dc="http://purl.org/dc/elements/1.1/" xmlns:ns="&amp;ns_sfw;" xmlns:rdf="http://www.w3.org/1999/02/22-rdf-syntax-ns#" width="468.85px" height="255.12px" enable-background="new 0 0 468.85 255.118" version="1.1" viewBox="0 0 468.85 255.12" xml:space="preserve">
<metadata>
	<ns:sfw>
		<ns:slices></ns:slices>
		<ns:sliceSourceBounds x="211.052" y="185.354" width="413.167" height="188.996" bottomLeftOrigin="true"></ns:sliceSourceBounds>
	</ns:sfw>
<rdf:RDF><cc:Work rdf:about=""><dc:format>image/svg+xml</dc:format><dc:type rdf:resource="http://purl.org/dc/dcmitype/StillImage"></dc:type><dc:title></dc:title></cc:Work></rdf:RDF></metadata>
	<path d="m102.86 176.55v24.357l-1.2 8.721-1.055 3.91-3.909 7.969-2.403 3.607-3.007 3.309-3.158 2.705-3.608 2.561-3.909 2.254-4.06 1.504-4.062 1.053-8.568 1.203-8.723-1.203-4.21-1.053-3.907-1.504-4.062-2.254-3.606-2.561-3.157-2.705-3.007-3.309-2.559-3.607-3.906-7.816-1.807-8.42v-28.721l0.902-2.854 0.901-0.902 1.504-0.752 1.353-0.299h3.909v-3.91l-1.503-0.451-1.052-0.752-1.354-2.705v-11.728l0.301-4.063 0.752-4.209 1.203-3.91 3.759-7.063 5.563-6.016 3.308-2.855 3.311-2.105 7.668-2.707 8.42-1.203 8.119 1.203 7.518 2.707 3.608 2.105 6.165 5.713 2.556 3.158 3.759 7.063 1.056 3.91 0.751 4.209 0.301 4.063v19.547l1.652 0.299 2.405 1.654 0.604 1.354 0.444 1.499zm-16.689-4.808v-22.855l-0.902-3.154-1.354-3.311-1.654-2.854-2.105-2.559-5.109-4.059-3.007-1.504-3.311-1.055h-9.923l-3.157 1.055-3.007 1.504-2.854 1.953-2.406 2.104-2.105 2.561-1.651 2.854-2.105 6.465v22.854l44.65 1e-3zm-27.965 53.375h11.126l0.899-0.301 0.751-0.752 0.304-1.203-1.807-20.748 1.955-1.504 1.503-1.807 0.902-2.256 0.451-2.256v-2.406l-0.451-2.254-0.902-2.256-1.503-1.805-1.955-1.504-2.255-1.055-2.255-0.602h-2.406l-2.255 0.602-2.255 1.055-1.955 1.504-1.503 1.805-0.902 2.256-0.448 2.254v2.406l0.448 2.256 0.902 2.256 1.503 1.807 1.955 1.504-1.804 20.748 0.147 1.203 0.604 0.752 1.206 0.301zm52.924-65.254v-27.664c0-4.211-0.552-7.693-1.654-10.451-1.104-2.756-2.307-4.984-3.605-6.69-1.604-1.903-3.359-3.356-5.265-4.36v-59.99h38.791c11.025 0 19.118 2.808 24.282 8.42 5.162 5.615 7.743 13.582 7.743 23.906 0 8.418-1.654 15.286-4.961 20.598-3.311 5.313-8.321 8.922-15.035 10.826l25.109 42.85v2.559h-19.849l-24.507-44.054h-12.78v44.054l-8.269-4e-3zm27.364-60.593c4.511 0 7.917-1.478 10.224-4.435 2.305-2.957 3.458-6.891 3.458-11.803 0-4.711-1.153-8.52-3.458-11.428-2.307-2.906-5.713-4.359-10.224-4.359h-19.098v32.024h19.098zm114.42-48.564v16.539h-43.148v29.018h38.64v16.539h-38.64v30.521h43.603v16.539h-62.398v-109.16h61.943zm97.581 109.16h-20.146l-6.314-23.906h-36.836l-6.617 23.906h-19.996l33.83-109.16h21.951l34.128 109.16zm-45.256-91.567-6.916 29.47-6.164 22.252h26.463l-6.313-22.252-6.617-29.47h-0.453zm56.984 91.567v-109.16h38.791c11.023 0 19.119 2.808 24.281 8.42 5.16 5.615 7.742 13.582 7.742 23.906 0 8.418-1.65 15.286-4.963 20.598-3.307 5.313-8.316 8.922-15.035 10.826l25.109 42.85v2.559h-19.846l-24.508-44.054h-12.779v44.054l-18.792-2e-3zm38.041-60.593c4.51 0 7.893-1.478 10.145-4.435 2.256-2.957 3.383-6.891 3.383-11.803 0-4.711-1.127-8.52-3.383-11.428-2.254-2.906-5.639-4.359-10.145-4.359h-19.246v32.024h19.246z" fill="#000000"></path>
</svg>