<?xml version='1.0' encoding='utf-8'?>
<!-- Generator: Adobe Illustrator 16.0.3, SVG Export Plug-In . SVG Version: 6.00 Build 0)  --><svg xmlns="http://www.w3.org/2000/svg" xmlns:cc="http://creativecommons.org/ns#" xmlns:dc="http://purl.org/dc/elements/1.1/" xmlns:rdf="http://www.w3.org/1999/02/22-rdf-syntax-ns#" width="308.96px" height="425.2px" enable-background="new 0 0 308.965 425.197" version="1.1" viewBox="0 0 308.96 425.2" xml:space="preserve"><metadata><rdf:RDF><cc:Work rdf:about=""><dc:format>image/svg+xml</dc:format><dc:type rdf:resource="http://purl.org/dc/dcmitype/StillImage"></dc:type><dc:title></dc:title></cc:Work></rdf:RDF></metadata>
<path d="m292.56 114.15c-1.524-1.485-3.362-2.228-5.669-2.228-1.486-0.117-2.736-0.236-3.635-0.47-0.978-0.194-1.836-0.547-2.618-1.133-0.897-0.469-1.444-1.212-1.72-2.11v-0.118c-0.547-1.564-1.094-3.088-1.683-4.533-0.663-1.526-1.367-3.05-2.186-4.613-0.198-0.273-0.354-0.547-0.433-0.782-0.153-0.313-0.233-0.587-0.313-0.898l-0.194-0.156c-0.508-0.783-0.626-1.643-0.391-2.541 0.274-0.86 0.664-1.719 1.132-2.541 0.626-0.899 1.448-1.875 2.384-2.931 1.644-1.524 2.428-3.4 2.428-5.629 0-2.228-0.784-4.063-2.428-5.51l-4.061-4.144c-1.722-1.523-3.52-2.345-5.398-2.345-1.012 0-2.068 0.197-3.084 0.548-1.018 0.352-1.916 0.976-2.619 1.796-0.742 0.703-1.449 1.329-2.109 1.837-0.707 0.548-1.367 0.977-2.112 1.291-0.782 0.39-1.523 0.546-2.227 0.546-0.938 0-1.486-0.194-1.76-0.625h-0.118c-1.482-0.82-2.933-1.524-4.491-2.072-1.566-0.585-3.132-1.094-4.773-1.64-0.821-0.157-1.368-0.313-1.678-0.431l-0.156-0.155c-1.016-0.195-1.838-0.743-2.308-1.642-0.389-0.86-0.742-1.759-0.936-2.697-0.312-1.134-0.471-2.345-0.471-3.752 0-2.072-0.782-3.908-2.266-5.472-1.487-1.523-3.284-2.306-5.396-2.306h-5.859c-2.188 0-4.067 0.782-5.553 2.306-1.6 1.564-2.383 3.4-2.383 5.472 0 1.407-0.159 2.618-0.434 3.752-0.192 1.094-0.546 1.994-0.972 2.893-0.471 0.82-1.253 1.367-2.113 1.601-1.643 0.547-3.206 1.094-4.728 1.682-1.488 0.663-3.01 1.327-4.499 2.188-0.35 0.196-0.586 0.353-0.859 0.432-0.274 0.115-0.584 0.273-0.896 0.467v0.195c-0.392 0.196-0.979 0.274-1.68 0.274-0.822 0-1.604-0.157-2.387-0.47-0.783-0.312-1.443-0.703-2.068-1.212-0.703-0.548-1.45-1.133-2.15-1.875-1.487-1.525-3.322-2.229-5.59-2.229-2.149 0-3.985 0.704-5.553 2.229l-4.103 4.181c-1.483 1.407-2.19 3.205-2.19 5.472 0 2.188 0.707 3.988 2.19 5.551 0.94 0.898 1.681 1.835 2.268 2.852 0.469 0.86 0.941 1.72 1.251 2.658 0.313 0.938 0.196 1.797-0.31 2.659v0.116c-0.822 1.484-1.528 2.97-2.151 4.574-0.626 1.562-1.212 3.127-1.682 4.689-0.117 0.195-0.234 0.43-0.271 0.783-0.041 0.273-0.159 0.585-0.353 0.897v0.156c-0.235 0.782-0.705 1.485-1.408 2.032-0.704 0.47-1.485 0.86-2.384 1.134-0.9 0.273-1.642 0.431-2.464 0.431-0.663 0.078-1.173 0.157-1.483 0.157-2.229 0-4.143 0.741-5.707 2.226-1.563 1.447-2.268 3.362-2.268 5.591v5.703c0 2.114 0.704 3.987 2.268 5.551 1.564 1.563 3.478 2.345 5.707 2.345 1.251 0 2.422 0.118 3.557 0.43 0.937 0.195 1.836 0.586 2.693 1.094 0.822 0.509 1.409 1.174 1.643 1.994 0.509 1.681 1.095 3.244 1.682 4.768 0.586 1.564 1.253 3.088 1.994 4.495 0.313 0.273 0.547 0.547 0.628 0.82 0.113 0.313 0.23 0.586 0.467 0.86h0.155c0.51 0.861 0.625 1.721 0.271 2.735-0.271 0.979-0.7 1.838-1.209 2.659-0.626 1.017-1.368 1.954-2.307 2.815-1.523 1.601-2.305 3.556-2.305 5.666 0 2.15 0.781 3.987 2.305 5.551l4.183 3.985c1.367 1.486 3.204 2.189 5.394 2.189 2.305 0 4.3-0.703 5.668-2.189 0.744-0.587 1.482-1.134 2.189-1.681 0.623-0.39 1.328-0.703 2.109-1.133 0.703-0.392 1.523-0.547 2.308-0.547 0.781 0 1.248 0.08 1.563 0.273l0.152 0.196c1.448 0.821 2.937 1.447 4.536 1.993 1.522 0.508 3.127 1.016 4.767 1.564 0.237 0.077 0.549 0.194 0.784 0.233 0.312 0.041 0.586 0.118 0.897 0.197h0.119c0.938 0.233 1.643 0.741 2.189 1.64 0.508 0.859 0.86 1.759 1.055 2.697 0.314 1.134 0.429 2.422 0.314 3.712 0 2.229 0.737 4.104 2.343 5.746 1.525 1.485 3.359 2.228 5.548 2.228h5.827c2.069 0 3.908-0.742 5.472-2.228 1.601-1.643 2.464-3.517 2.464-5.746 0-1.29 0.114-2.578 0.426-3.712 0.235-0.938 0.47-1.838 0.98-2.697 0.427-0.899 1.131-1.407 2.068-1.64 3.168-0.938 6.291-2.112 9.3-3.754 0.274-0.156 0.548-0.313 0.822-0.43 0.235-0.118 0.588-0.233 0.821-0.429 0.626-0.313 1.292-0.468 1.878-0.468 0.82 0 1.603 0.232 2.305 0.585 0.704 0.313 1.448 0.743 1.996 1.252 0.7 0.547 1.367 1.132 1.991 1.72 1.758 1.446 3.673 2.11 5.744 2.11 0.939 0 1.838-0.157 2.814-0.509 0.98-0.312 1.876-0.897 2.619-1.601l4.144-4.026c1.484-1.642 2.345-3.518 2.345-5.706 0-2.149-0.86-4.027-2.345-5.55-0.94-0.899-1.681-1.875-2.347-2.932-0.506-0.781-0.86-1.68-1.173-2.696-0.349-0.938-0.234-1.876 0.313-2.659h0.118c0.781-1.445 1.564-3.009 2.111-4.689 0.586-1.604 1.056-3.283 1.562-4.886l0.51-1.406v-0.156c0.275-0.938 0.822-1.604 1.643-2.112 0.701-0.389 1.563-0.78 2.343-1.016 0.862-0.311 1.643-0.427 2.347-0.468 0.822-0.079 1.329-0.117 1.524-0.117h0.116c2.307 0 4.145-0.702 5.669-2.228 1.484-1.486 2.228-3.325 2.228-5.471v-5.67c4e-3 -2.301-0.74-4.175-2.224-5.662zm-31.269 22.475c-1.761 4.415-4.298 8.246-7.659 11.567-3.324 3.283-7.193 5.785-11.572 7.543-2.145 0.782-4.416 1.487-6.605 1.994-2.189 0.547-4.531 0.782-6.84 0.782-3.597 0-7.032-0.548-10.437-1.563-3.357-1.018-6.407-2.502-9.259-4.457-2.816-1.995-5.319-4.3-7.467-7.036-2.306-2.696-4.063-5.746-5.391-9.068-1.841-4.378-2.736-8.911-2.699-13.68 0.039-4.728 0.978-9.143 2.699-13.327 1.757-4.143 4.219-7.934 7.463-11.373 3.245-3.361 7.152-5.98 11.646-7.816 4.378-1.72 8.875-2.619 13.291-2.619 3.67 0 7.267 0.508 10.633 1.524 3.358 1.056 6.483 2.54 9.34 4.495 2.85 1.954 5.351 4.26 7.58 6.996 2.269 2.699 4.104 5.824 5.431 9.185 1.842 4.299 2.816 8.756 2.816 13.369 0 4.491-1.015 9.028-2.97 13.484z" fill="#000000"></path>
<path d="m204.3 187.13c-3.175-1.26-6.354-1.239-9.766 0.178-2.261 0.734-4.192 1.325-5.662 1.531-1.555 0.313-3.055 0.315-4.575-0.071-1.611-0.142-2.872-0.906-3.836-2.064l-0.07-0.174c-1.758-1.979-3.5-3.904-5.258-5.684-1.921-1.851-3.891-3.669-6.071-5.48-0.45-0.282-0.855-0.592-1.117-0.897-0.419-0.363-0.704-0.726-1.004-1.135l-0.39-0.114c-1.229-0.844-1.935-2.046-2.133-3.519-0.12-1.436-0.07-2.953 0.116-4.454 0.377-1.71 0.997-3.658 1.728-5.797 1.503-3.258 1.515-6.52 0.141-9.816-1.361-3.293-3.646-5.532-6.966-6.661l-8.537-3.645c-3.487-1.195-6.644-1.312-9.424-0.158-1.498 0.617-2.947 1.555-4.234 2.698-1.289 1.146-2.232 2.618-2.777 4.267-0.666 1.495-1.328 2.855-1.992 4.009-0.705 1.247-1.425 2.285-2.333 3.204-0.914 1.055-1.917 1.74-2.958 2.173-1.39 0.575-2.324 0.623-2.99 0.155l-0.174 0.071c-2.69-0.307-5.267-0.456-7.909-0.313-2.677 0.098-5.312 0.304-8.07 0.497-1.315 0.272-2.221 0.377-2.748 0.396l-0.321-0.132c-1.627 0.327-3.185 0.023-4.433-1.017-1.094-1.034-2.17-2.147-3.034-3.422-1.153-1.482-2.129-3.178-2.995-5.262-1.263-3.064-3.551-5.299-6.71-6.708-3.132-1.339-6.269-1.398-9.396-0.105l-8.667 3.595c-3.238 1.338-5.536 3.646-6.797 6.81-1.415 3.297-1.449 6.496-0.172 9.56 0.862 2.084 1.364 3.969 1.652 5.814 0.389 1.738 0.413 3.29 0.337 4.876-0.194 1.503-1.013 2.795-2.149 3.67-2.092 1.815-4.072 3.584-5.96 5.379-1.798 1.898-3.642 3.813-5.318 6.001-0.393 0.498-0.647 0.877-1.007 1.159-0.328 0.342-0.697 0.764-1.041 1.245l0.125 0.286c-0.457 0.527-1.283 1.006-2.322 1.432-1.215 0.51-2.47 0.757-3.815 0.768-1.346 0.023-2.564-0.15-3.807-0.525-1.37-0.38-2.834-0.779-4.323-1.454-3.137-1.341-6.288-1.262-9.638 0.128-3.185 1.319-5.464 3.483-6.852 6.706l-3.509 8.701c-1.33 2.992-1.277 6.073 0.112 9.428 1.344 3.248 3.493 5.476 6.642 6.875 1.944 0.758 3.613 1.681 5.106 2.839 1.22 0.981 2.444 1.962 3.479 3.153 1.04 1.217 1.392 2.553 1.174 4.145l0.07 0.158c-0.308 2.705-0.443 5.342-0.38 8.081 0.031 2.702 0.119 5.365 0.386 7.981-0.058 0.357-0.086 0.775 0.075 1.324 0.106 0.426 0.124 0.968 0.03 1.539l0.097 0.224c0.127 1.31-0.132 2.635-0.84 3.881-0.752 1.12-1.67 2.173-2.835 3.134-1.16 0.965-2.161 1.655-3.378 2.153-0.937 0.509-1.639 0.959-2.098 1.131-3.299 1.375-5.676 3.655-7.083 6.802-1.427 3.085-1.293 6.352 0.071 9.666l3.501 8.433c1.292 3.129 3.483 5.479 6.754 6.822 3.272 1.347 6.58 1.332 9.881-0.018 1.849-0.767 3.656-1.314 5.53-1.563 1.501-0.285 3.07-0.242 4.65-0.022 1.527 0.259 2.804 0.885 3.651 1.945 1.789 2.169 3.607 4.12 5.413 6.014 1.821 1.974 3.748 3.808 5.706 5.428 0.628 0.228 1.146 0.476 1.43 0.828 0.358 0.402 0.699 0.741 1.217 1.007l0.236-0.111c1.273 0.967 1.975 2.163 2.07 3.887 0.2 1.61 0.093 3.143-0.154 4.672-0.307 1.884-0.829 3.739-1.694 5.575-1.265 3.315-1.227 6.676 0.065 9.802 1.32 3.188 3.599 5.424 6.815 6.808l8.631 3.336c2.93 1.348 6.084 1.267 9.324-0.068 3.41-1.429 5.926-3.68 7.039-6.726 0.75-1.324 1.499-2.583 2.216-3.829 0.675-0.959 1.534-1.839 2.419-2.956 0.798-1.02 1.928-1.747 3.084-2.221 1.153-0.481 1.89-0.666 2.477-0.554l0.346 0.191c2.646 0.319 5.241 0.328 7.934 0.166 2.568-0.19 5.251-0.416 8.009-0.613 0.406-0.019 0.934-0.052 1.31-0.138 0.486-0.133 0.938-0.173 1.44-0.246l0.188-0.085c1.519-0.228 2.874 0.103 4.233 1.09 1.28 0.966 2.356 2.079 3.221 3.344 1.157 1.479 2.121 3.328 2.744 5.297 1.363 3.311 3.598 5.624 6.978 7.077 3.169 1.258 6.339 1.236 9.576-0.118l8.616-3.563c3.063-1.263 5.334-3.488 6.738-6.657 1.353-3.412 1.483-6.705 0.124-9.993-0.796-1.924-1.417-3.891-1.649-5.763-0.223-1.532-0.427-3.003-0.204-4.594 0.08-1.593 0.817-2.777 2.061-3.691 4.115-3.334 8.016-6.976 11.45-11.261 0.323-0.406 0.622-0.786 0.96-1.132 0.277-0.329 0.717-0.701 0.96-1.15 0.721-0.846 1.617-1.48 2.473-1.835 1.228-0.497 2.532-0.633 3.789-0.55 1.215 0.04 2.589 0.211 3.71 0.627 1.378 0.394 2.715 0.837 4.007 1.324 3.489 1.055 6.717 0.884 9.78-0.405 1.391-0.569 2.632-1.345 3.865-2.463 1.261-1.056 2.228-2.487 2.882-3.971l3.673-8.495c1.188-3.342 1.317-6.656-0.04-9.882-1.305-3.187-3.725-5.43-6.855-6.791-1.943-0.758-3.651-1.745-5.276-2.883-1.235-0.867-2.301-1.956-3.396-3.271-1.074-1.177-1.483-2.637-1.149-4.145l0.165-0.07c0.272-2.602 0.475-5.393 0.259-8.226-0.124-2.726-0.463-5.502-0.688-8.196l-0.119-2.384-0.086-0.221c-0.17-1.573 0.225-2.896 1.127-4.148 0.813-0.994 1.849-2.104 2.849-2.934 1.095-0.983 2.163-1.626 3.189-2.141 1.173-0.598 1.89-0.983 2.177-1.085l0.184-0.07c3.412-1.431 5.701-3.594 7.021-6.789 1.278-3.096 1.26-6.28-0.057-9.456l-3.479-8.387c-1.41-3.414-3.673-5.73-6.768-7.019zm-32.493 52.416c0.092 7.603-1.311 14.83-4.243 21.823-2.91 6.896-7.101 12.963-12.505 18.249-2.687 2.458-5.613 4.893-8.54 6.983-2.911 2.154-6.227 3.947-9.64 5.354-5.323 2.212-10.746 3.496-16.409 4.091-5.584 0.553-11.008 0.219-16.429-0.914-5.391-1.235-10.507-3.113-15.354-5.839-5.07-2.575-9.534-6.023-13.535-10.107-5.415-5.35-9.517-11.521-12.381-18.607-2.843-6.998-4.157-14.128-4.175-21.37 0.064-7.194 1.385-14.306 4.072-21.389 2.745-6.964 6.92-13.232 12.444-18.712 5.415-5.225 11.525-9.314 18.063-12.016 5.429-2.254 11.063-3.708 16.667-4.267 5.611-0.494 11.145-0.214 16.57 0.931 5.406 1.146 10.521 3.025 15.496 5.705 5.011 2.605 9.642 6.098 13.666 10.264 5.356 5.228 9.528 11.22 12.356 18.047 2.76 6.658 4.032 13.981 3.877 21.774z" fill="#000000"></path>
</svg>