<?xml version='1.0' encoding='utf-8'?>
<!-- Generator: Adobe Illustrator 16.0.0, SVG Export Plug-In . SVG Version: 6.00 Build 0)  --><svg xmlns="http://www.w3.org/2000/svg" xmlns:cc="http://creativecommons.org/ns#" xmlns:dc="http://purl.org/dc/elements/1.1/" xmlns:ns="&amp;ns_sfw;" xmlns:rdf="http://www.w3.org/1999/02/22-rdf-syntax-ns#" width="432px" height="425.2px" enable-background="new 0 0 432 425.197" version="1.1" viewBox="0 0 432 425.2" xml:space="preserve">
<metadata>
	<ns:sfw>
		<ns:slices></ns:slices>
		<ns:sliceSourceBounds x="224.768" y="169.941" width="391.465" height="297.545" bottomLeftOrigin="true"></ns:sliceSourceBounds>
	</ns:sfw>
<rdf:RDF><cc:Work rdf:about=""><dc:format>image/svg+xml</dc:format><dc:type rdf:resource="http://purl.org/dc/dcmitype/StillImage"></dc:type><dc:title></dc:title></cc:Work></rdf:RDF></metadata>
<path d="m239.32 245.87-1.219 5.863c-0.014 0.064-1.465 6.623-6.046 13.131-5.949 8.451-14.301 12.738-24.821 12.738-26.406 0-31.946-22.49-32.159-23.399l-1.279-5.839-5.977-0.058c-12.964-0.122-28.623-0.764-33.08-1.614-2.019-2.989-2.417-14.674-0.593-20.479 2.516-8.008 6.694-15.779 8.61-17.121 10.92-7.648 44.589-11.908 62.678-14.196 10.191-1.29 15.217-1.949 18.064-2.847 6.331-1.995 10.885-8.341 16.649-16.376 7.244-10.098 16.261-22.666 30.567-29.462 8.15-3.871 32.19-7.259 38.449-8.024-3.556-4.884-6.469-9.58-10.734-13.837-7.546 1.271-27.136 4.981-34.149 8.313-17.804 8.457-28.507 23.374-36.321 34.267-3.041 4.239-7.205 10.043-8.969 10.814-1.688 0.532-8.994 1.456-15.439 2.271-28.053 3.549-56.519 7.769-69.399 16.792-7.918 5.547-13.314 21.726-14.316 24.911-2.019 6.426-5.105 31.334 7.753 38.313 1.407 0.764 5.02 2.723 34.661 3.209 5.009 12.492 18.503 29.365 44.984 29.365 25.776 0 38.998-18.483 43.864-31.945l57.443-0.887c2.542-4.854 6.884-9.949 8.72-15.181l-77.941 1.278z" fill="#000000"></path>
	<path d="m172.92 86.823c0.164-0.062 0.331-0.119 0.495-0.18l26.128-29.064c-13.677 1.479-26.765 4.823-39.261 10.055-2.085 0.873-4.137 1.788-6.16 2.741l18.798 16.448z" fill="#000000"></path>
	<path d="m407.58 158.81c-2.773-12.832-6.687-25.125-11.754-36.877-5.065-11.751-11.179-22.928-18.337-33.534-7.161-10.603-15.266-20.429-24.315-29.481l-24.719 26.947c14.719 14.726 26.271 31.508 34.647 50.352s12.563 39.547 12.563 62.105c0 22.695-4.188 43.462-12.563 62.307-8.376 18.844-19.926 35.559-34.647 50.148l24.719 26.946c9.045-8.915 17.153-18.672 24.315-29.276 7.158-10.604 13.273-21.815 18.337-33.637 5.069-11.821 8.984-24.143 11.754-36.979 2.765-12.83 4.152-26.004 4.152-39.51 0-13.507-1.386-26.677-4.152-39.511z" fill="#000000"></path>
	<path d="m352.57 236.11c3.375-12.086 5.063-24.683 5.063-37.784 0-19.721-3.681-38.16-11.041-55.318-7.364-17.153-17.423-32.183-30.191-45.084-12.762-12.898-27.757-22.998-44.979-30.292-15.899-6.733-32.863-10.351-50.892-10.869l-6.971 22.258c0.814-0.015 1.625-0.04 2.443-0.04 16.343 0 31.742 3.21 46.197 9.624 14.45 6.418 27.117 14.995 37.992 25.733 10.872 10.74 19.417 23.372 25.632 37.892 6.212 14.522 9.32 29.887 9.32 46.097 0 10.806-1.387 21.31-4.153 31.506-2.771 10.199-6.788 19.69-12.056 28.468-5.27 8.78-11.553 16.816-18.847 24.11-7.293 7.292-15.365 13.542-24.213 18.74-8.847 5.201-18.335 9.218-28.468 12.055-10.131 2.837-20.601 4.258-31.407 4.258-16.889 0-32.693-3.141-47.414-9.422-14.725-6.284-27.591-14.823-38.599-25.632-11.011-10.803-19.689-23.469-26.037-37.991-6.351-14.521-9.521-29.888-9.521-46.095 0-10.942 1.483-21.444 4.461-31.507 2.613-8.854 6.094-17.238 10.435-25.152l-23.94-2.776c-0.648 1.36-1.285 2.73-1.897 4.118-7.569 17.157-11.348 35.594-11.348 55.317 0 13.104 1.687 25.699 5.069 37.785 3.373 12.091 8.273 23.369 14.69 33.839 6.413 10.469 13.979 20.022 22.691 28.667 8.715 8.649 18.405 16.043 29.077 22.188 10.669 6.15 22.117 10.912 34.346 14.284 12.223 3.378 24.887 5.067 37.99 5.067 13.238 0 25.867-1.689 37.893-5.067 12.021-3.372 23.302-8.134 33.838-14.284 10.533-6.144 20.091-13.539 28.668-22.188 8.576-8.641 15.908-18.196 21.984-28.667 6.08-10.465 10.807-21.747 14.185-33.838z" fill="#000000"></path>
	<path d="m68.793 260.63c-8.308-18.843-12.462-39.613-12.462-62.305 0-22.561 4.154-43.531 12.462-62.917 8.308-19.382 19.959-35.895 34.953-49.541l-27.152-26.948c-18.102 18.102-32.012 39.105-41.738 63.015-9.728 23.911-14.589 49.375-14.589 76.391 0 27.287 4.863 52.816 14.589 76.589 9.723 23.777 23.635 44.713 41.738 62.814l27.152-26.948c-14.996-14.588-26.645-31.304-34.953-50.15z" fill="#000000"></path>
	<path d="m137.16 105.97-2.076-24.835c-7.373 4.939-14.242 10.531-20.595 16.787-7.034 6.924-13.261 14.467-18.697 22.615l41.368-14.567z" fill="#000000"></path>
<path d="m219.72 42.612-46.195 51.386-34.904-30.541 3.841 45.951-66.376 23.372 66.899 7.757-1.454 46.054 38.782-42.176 51.442 2.465-34.96-31.067 22.925-73.201z" fill="#000000"></path>
</svg>