<?xml version='1.0' encoding='utf-8'?>
<!-- Generator: Adobe Illustrator 16.0.3, SVG Export Plug-In . SVG Version: 6.00 Build 0)  --><svg xmlns="http://www.w3.org/2000/svg" xmlns:cc="http://creativecommons.org/ns#" xmlns:dc="http://purl.org/dc/elements/1.1/" xmlns:rdf="http://www.w3.org/1999/02/22-rdf-syntax-ns#" width="342.94px" height="425.2px" enable-background="new 0 0 342.941 425.197" version="1.1" viewBox="0 0 342.94 425.2" xml:space="preserve"><metadata><rdf:RDF><cc:Work rdf:about=""><dc:format>image/svg+xml</dc:format><dc:type rdf:resource="http://purl.org/dc/dcmitype/StillImage"></dc:type><dc:title></dc:title></cc:Work></rdf:RDF></metadata>

	
		<path d="m78.369 212.56v125.47h-19.441v-104.26l-35.904 18.008-8.23-13.541 50.119-25.678h13.456z" fill="#000000"></path>
		<path d="m100.96 275.29c0-40.623 18.684-64.868 52.34-64.868 33.657 0 52.366 24.245 52.366 64.868 0 40.651-18.709 64.868-52.366 64.868-33.656 0-52.34-24.217-52.34-64.868zm84.506 0c0-31.016-10.844-47.759-32.167-47.759-21.295 0-32.141 16.743-32.141 47.759 0 30.65 10.846 47.73 32.141 47.73 21.324 1e-3 32.167-17.08 32.167-47.73z" fill="#000000"></path>
		<path d="m219.32 275.29c0-40.623 18.654-64.868 52.367-64.868 33.656 0 52.365 24.245 52.365 64.868 0 40.651-18.709 64.868-52.365 64.868-33.713 0-52.367-24.217-52.367-64.868zm84.506 0c0-31.016-10.844-47.759-32.139-47.759-21.352 0-32.195 16.743-32.195 47.759 0 30.65 10.844 47.73 32.195 47.73 21.295 1e-3 32.139-17.08 32.139-47.73z" fill="#000000"></path>
	
	
		<path d="M108.738,75.235H69.996v109.06h-17.08V75.235H14.174V58.829h94.564V75.235z" fill="#000000"></path>
		<path d="m110.17 121.56c0-37.056 26.268-64.868 59.756-64.868 34.163 0 59.727 28.347 59.727 64.868 0 35.819-25.564 64.868-59.727 64.868-33.488 0-59.756-28.514-59.756-64.868zm101.78 0c0-29.947-18.373-47.759-42.028-47.759-23.627 0-42.027 18.542-42.027 47.759 0 29.218 18.4 47.76 42.027 47.76 23.655 0 42.028-18.879 42.028-47.76z" fill="#000000"></path>
		<path d="m328.77 98.75c0 21.744-15.732 39.921-38.713 39.921h-24.33v45.624h-17.08v-125.47h41.41c22.307 0 38.713 18.175 38.713 39.921zm-17.699 0c0-12.839-8.709-23.515-21.014-23.515h-24.33v47.028h24.33c12.305 0 21.014-10.675 21.014-23.513z" fill="#000000"></path>
	

</svg>