<?xml version='1.0' encoding='utf-8'?>
<!-- Generator: Adobe Illustrator 16.0.3, SVG Export Plug-In . SVG Version: 6.00 Build 0)  --><svg xmlns="http://www.w3.org/2000/svg" xmlns:cc="http://creativecommons.org/ns#" xmlns:dc="http://purl.org/dc/elements/1.1/" xmlns:rdf="http://www.w3.org/1999/02/22-rdf-syntax-ns#" width="203.23px" height="425.2px" version="1.2" viewBox="0 0 203.23 425.2" xml:space="preserve"><metadata><rdf:RDF><cc:Work rdf:about=""><dc:format>image/svg+xml</dc:format><dc:type rdf:resource="http://purl.org/dc/dcmitype/StillImage"></dc:type><dc:title></dc:title></cc:Work></rdf:RDF></metadata>
<path d="m189.06 197.63v-20.196h-12.084v20.196c0 41.568-33.804 75.387-75.355 75.387-41.554 0-75.36-33.818-75.36-75.387v-20.196h-12.086v20.196c0 46.199 35.992 84.143 81.4 87.259v31.103h-62.268c-6.674 0-12.084 5.411-12.084 12.085 0 6.673 5.411 12.084 12.084 12.084h136.62c6.674 0 12.085-5.411 12.085-12.084 0-6.674-5.411-12.085-12.085-12.085h-62.269v-31.103c45.407-3.115 81.4-41.059 81.4-87.259z" fill="#000000"></path>
<path d="m101.62 229.63c27.95 0 50.689-22.739 50.689-50.688v-71.565c0-27.95-22.739-50.688-50.689-50.688s-50.689 22.739-50.689 50.688v71.564c0 27.95 22.739 50.689 50.689 50.689zm-38.604-122.25c0-21.286 17.318-38.603 38.604-38.603 21.287 0 38.604 17.317 38.604 38.603v71.564c0 21.286-17.317 38.604-38.604 38.604-21.286 0-38.604-17.317-38.604-38.604v-71.564z" fill="#000000"></path>
</svg>