<?xml version='1.0' encoding='utf-8'?>
<!-- Generator: Adobe Illustrator 16.0.3, SVG Export Plug-In . SVG Version: 6.00 Build 0)  --><svg xmlns="http://www.w3.org/2000/svg" xmlns:cc="http://creativecommons.org/ns#" xmlns:dc="http://purl.org/dc/elements/1.1/" xmlns:rdf="http://www.w3.org/1999/02/22-rdf-syntax-ns#" width="311.81px" height="425.2px" version="1.2" viewBox="0 0 311.81 425.2" xml:space="preserve"><metadata><rdf:RDF><cc:Work rdf:about=""><dc:format>image/svg+xml</dc:format><dc:type rdf:resource="http://purl.org/dc/dcmitype/StillImage"></dc:type><dc:title></dc:title></cc:Work></rdf:RDF></metadata>
<path d="m119.83 182.79h-85.168c-11.294 0-20.485-9.166-20.485-20.436v-85.179c0-11.293 9.191-20.484 20.485-20.484h85.168c11.279 0 20.444 9.191 20.444 20.484v85.179c1e-3 11.27-9.165 20.436-20.444 20.436z" fill="#000000"></path>
<path d="m119.83 340.16h-85.168c-11.294 0-20.485-9.166-20.485-20.436v-85.179c0-11.293 9.191-20.484 20.485-20.484h85.168c11.279 0 20.444 9.191 20.444 20.484v85.179c1e-3 11.27-9.165 20.436-20.444 20.436z" fill="#000000"></path>
<path d="m277.19 340.16h-85.169c-11.293 0-20.484-9.166-20.484-20.436v-85.179c0-11.293 9.191-20.484 20.484-20.484h85.169c11.279 0 20.444 9.191 20.444 20.484v85.179c1e-3 11.27-9.164 20.436-20.444 20.436z" fill="#000000"></path>
</svg>