<?xml version='1.0' encoding='utf-8'?>
<!-- Generator: Adobe Illustrator 16.0.3, SVG Export Plug-In . SVG Version: 6.00 Build 0)  --><svg xmlns="http://www.w3.org/2000/svg" xmlns:cc="http://creativecommons.org/ns#" xmlns:dc="http://purl.org/dc/elements/1.1/" xmlns:rdf="http://www.w3.org/1999/02/22-rdf-syntax-ns#" width="317.07px" height="425.2px" enable-background="new 0 0 317.069 425.197" version="1.1" viewBox="0 0 317.07 425.2" xml:space="preserve"><metadata><rdf:RDF><cc:Work rdf:about=""><dc:format>image/svg+xml</dc:format><dc:type rdf:resource="http://purl.org/dc/dcmitype/StillImage"></dc:type><dc:title></dc:title></cc:Work></rdf:RDF></metadata>
<path d="m291.49 340.16h-93.094c-6.324 0-11.402-5.078-11.402-11.402v-91.488h-56.836v91.488c0 6.324-5.078 11.402-11.402 11.402h-93.18c-6.328 0-11.406-5.078-11.406-11.402v-126.23c0-3.027 1.16-5.879 3.297-8.018l133-134.42c2.137-2.139 5.078-3.387 8.105-3.387h0.09c3.118 0 6.059 1.338 8.196 3.564l44.898 47.125v-23.162c0-6.324 5.078-11.402 11.402-11.402h38.84c6.324 0 11.402 5.078 11.402 11.402v83.738l26.191 26.547c2.137 2.139 3.297 4.99 3.297 8.018v126.23c1e-3 6.324-5.077 11.402-11.401 11.402zm-81.691-22.804h70.289v-110.2l-26.192-26.547c-2.137-2.139-3.297-4.988-3.297-8.018v-76.968h-16.035v40.266c0 4.633-2.852 8.82-7.125 10.602-4.457 1.693-9.355 0.623-12.563-2.762l-56.48-59.241-121.42 122.76v110.11h70.375v-91.49c0-6.324 5.078-11.402 11.402-11.402h79.641c6.324 0 11.402 5.078 11.402 11.402v91.49z" fill="#000000"></path>
</svg>