<?xml version='1.0' encoding='utf-8'?>
<!-- Generator: Adobe Illustrator 16.0.3, SVG Export Plug-In . SVG Version: 6.00 Build 0)  --><svg xmlns="http://www.w3.org/2000/svg" xmlns:cc="http://creativecommons.org/ns#" xmlns:dc="http://purl.org/dc/elements/1.1/" xmlns:rdf="http://www.w3.org/1999/02/22-rdf-syntax-ns#" width="311.81px" height="425.2px" enable-background="new 0 0 311.812 425.197" version="1.1" viewBox="0 0 311.81 425.2" xml:space="preserve"><metadata><rdf:RDF><cc:Work rdf:about=""><dc:format>image/svg+xml</dc:format><dc:type rdf:resource="http://purl.org/dc/dcmitype/StillImage"></dc:type><dc:title></dc:title></cc:Work></rdf:RDF></metadata>
<path d="m155.91 56.693c-78.151 0-141.73 63.581-141.73 141.73 0 78.151 63.581 141.73 141.73 141.73 78.152 0 141.73-63.58 141.73-141.73 0-78.152-63.581-141.73-141.73-141.73zm-114.74 141.73c0-63.268 51.472-114.74 114.74-114.74 26.781 0 51.447 9.225 70.991 24.661l-161.07 161.07c-15.436-19.544-24.661-44.21-24.661-70.99zm114.74 114.74c-26.781 0-51.447-9.226-70.991-24.661l161.07-161.07c15.437 19.544 24.662 44.211 24.662 70.992 0 63.266-51.472 114.74-114.74 114.74z" fill="#000000"></path>
</svg>