<?xml version='1.0' encoding='utf-8'?>
<!-- Generator: Adobe Illustrator 27.2.0, SVG Export Plug-In . SVG Version: 6.00 Build 0)  --><svg xmlns="http://www.w3.org/2000/svg" xmlns:xlink="http://www.w3.org/1999/xlink" version="1.2" baseProfile="tiny" id="Vrstva_1" x="0px" y="0px" viewBox="0 0 400 425.2" overflow="visible" xml:space="preserve" width="376.2935" height="400.0">
<g>
	<path d="M50.7,280.2h100.5v28.6h-133V89h32.5V280.2z"></path>
	<path d="M211.3,296.9c-17.7-9.9-31.5-23.7-41.4-41.4s-14.8-36.5-14.8-57.2c0-21.7,4.9-40.4,14.8-58.1s23.7-30.6,41.4-40.4   S247.8,85,268.5,85c21.7,0,40.4,4.9,58.1,14.8c17.7,9.9,30.6,23.7,40.4,41.4c9.9,17.7,14.8,36.5,14.8,57.2   c0,20.7-4.9,39.4-14.8,57.2c-9.9,17.7-23.7,31.5-40.4,41.4c-17.7,9.9-36.5,14.8-58.1,14.8C246.8,312.7,228.1,306.8,211.3,296.9z    M308.9,272.3c11.8-6.9,21.7-16.8,28.6-29.6c6.9-12.8,10.8-27.6,10.8-43.4c0-16.8-3.9-31.5-10.8-44.3   c-6.9-12.8-16.8-22.7-28.6-28.6c-11.8-6.9-25.6-9.9-40.4-9.9s-28.6,3-40.4,9.9c-11.8,6.9-21.7,16.8-28.6,29.6   c-6.9,12.8-10.8,27.6-10.8,44.3s3.9,31.5,10.8,44.3c6.9,12.8,16.8,22.7,28.6,29.6c11.8,6.9,25.6,9.9,40.4,9.9   C283.3,282.1,297.1,279.2,308.9,272.3z"></path>
</g>
</svg>