<?xml version='1.0' encoding='utf-8'?>
<!-- Generator: Adobe Illustrator 16.0.3, SVG Export Plug-In . SVG Version: 6.00 Build 0)  --><svg xmlns="http://www.w3.org/2000/svg" xmlns:cc="http://creativecommons.org/ns#" xmlns:dc="http://purl.org/dc/elements/1.1/" xmlns:rdf="http://www.w3.org/1999/02/22-rdf-syntax-ns#" width="232.32px" height="425.2px" version="1.2" viewBox="0 0 232.32 425.2" xml:space="preserve"><metadata><rdf:RDF><cc:Work rdf:about=""><dc:format>image/svg+xml</dc:format><dc:type rdf:resource="http://purl.org/dc/dcmitype/StillImage"></dc:type><dc:title></dc:title></cc:Work></rdf:RDF></metadata>
	<path d="m36.388 229.91v4.839c0 4.583 0.343 9.087 0.999 13.489l2.705-2.624c2.239-2.186 4.191-4.205 5.778-5.984 1.397-1.563 2.536-3.003 3.388-4.282 0.682-1.025 0.993-1.749 1.133-2.18 0.153-0.466 0.223-0.907 0.223-1.398v-0.749c-1.484-0.499-4.606-1.189-10.55-1.189-1.211-1e-3 -2.443 0.036-3.676 0.078z" fill="#000000"></path>
	<path d="m207.37 164.85-2e-3 -28.059c0-44.168-35.932-80.1-80.102-80.1-44.167 0-80.1 35.932-80.1 80.1l-2e-3 28.059c-5.953 0-10.779 4.827-10.779 10.78v13.463c2.109-0.086 4.206-0.14 6.27-0.14 6.496 0 12.531 0.484 17.939 1.438 6.175 1.09 11.661 3.044 16.304 5.811 5.259 3.139 9.385 7.377 12.27 12.606 2.833 5.14 4.267 11.304 4.267 18.324v1.391c0 3.768-0.436 7.425-1.293 10.862-0.877 3.509-2.289 7.027-4.195 10.458-1.764 3.175-4.051 6.443-6.799 9.72-2.446 2.913-5.438 6.177-8.893 9.698l-6.905 7.182c-2.329 2.44-4.148 4.463-5.375 5.979-0.95 1.172-1.332 1.911-1.475 2.251-0.184 0.428-0.3 0.974-0.35 1.623-0.129 1.69-0.196 3.911-0.196 6.611v0.586c16.671 19.637 41.534 32.107 69.315 32.107 50.188 0 90.883-40.694 90.883-90.855v-59.116c-3e-3 -5.952-4.829-10.779-10.782-10.779zm-67.519 67.067v45.863c0 6.95-5.635 12.586-12.584 12.586-6.948 0-12.584-5.636-12.584-12.586v-45.863c-5.085-3.827-8.389-9.897-8.389-16.749 0-11.584 9.391-20.971 20.973-20.971 11.585 0 20.972 9.387 20.972 20.971-1e-3 6.852-3.304 12.921-8.388 16.749zm35.947-67.067h-97.064v-28.059c0-26.76 21.772-48.532 48.533-48.532s48.531 21.772 48.531 48.532v28.059z" fill="#000000"></path>
<path d="m45.622 299.12c0 0.99-0.494 1.483-1.482 1.483h-12.692c-0.926 0-1.422-0.465-1.482-1.391-0.063-0.618-0.125-1.374-0.186-2.271-0.061-0.894-0.125-1.804-0.185-2.732-0.063-0.924-0.109-1.819-0.139-2.685-0.033-0.865-0.047-1.575-0.047-2.133 0-2.963 0.123-5.571 0.371-7.826 0.246-2.253 0.819-4.463 1.714-6.626 0.894-2.158 2.208-4.369 3.938-6.625 1.728-2.251 4.076-4.862 7.04-7.827l6.208-6.021c2.47-2.407 4.601-4.615 6.392-6.624 1.792-2.006 3.273-3.89 4.447-5.65 1.172-1.76 2.038-3.486 2.594-5.188 0.556-1.699 0.834-3.442 0.834-5.232v-1.391c0-4.634-1.899-7.936-5.698-9.915-3.799-1.972-9.528-2.961-17.185-2.961-3.397 0-6.841 0.136-10.33 0.413-3.49 0.282-7.365 0.762-11.627 1.439-0.556 0.061-0.958 0-1.204-0.186-0.247-0.188-0.433-0.559-0.556-1.113l-2.13-12.229c-0.186-0.987 0.216-1.605 1.204-1.853 3.892-0.864 8.246-1.527 13.063-1.991 4.817-0.462 9.542-0.695 14.174-0.695 5.805 0 11.071 0.418 15.796 1.252 4.724 0.834 8.768 2.256 12.135 4.26 3.366 2.011 5.959 4.665 7.783 7.969 1.822 3.305 2.733 7.429 2.733 12.366v1.391c0 2.776-0.311 5.403-0.926 7.873-0.618 2.473-1.622 4.955-3.011 7.459-1.39 2.5-3.212 5.096-5.466 7.78-2.255 2.689-5.019 5.699-8.292 9.034l-6.947 7.227c-2.594 2.719-4.619 4.974-6.068 6.76-1.452 1.795-2.533 3.521-3.243 5.188s-1.143 3.507-1.296 5.515c-0.155 2.007-0.232 4.524-0.232 7.549v6.207zm-14.174 41.04c-0.989 0-1.482-0.491-1.482-1.481v-21.124c0-1.047 0.399-1.66 1.482-1.668h13.618c1.041 8e-3 1.486 0.543 1.483 1.668v21.124c0 0.99-0.495 1.481-1.483 1.481h-13.618z" fill="#000000"></path>
</svg>