<?xml version='1.0' encoding='utf-8'?>
<!-- Generator: Adobe Illustrator 16.0.0, SVG Export Plug-In . SVG Version: 6.00 Build 0)  --><svg xmlns="http://www.w3.org/2000/svg" xmlns:cc="http://creativecommons.org/ns#" xmlns:ns="&amp;ns_sfw;" xmlns:rdf="http://www.w3.org/1999/02/22-rdf-syntax-ns#" xmlns:dc="http://purl.org/dc/elements/1.1/" width="461px" height="454px" enable-background="new 0 0 461 454" version="1.1" viewBox="0 0 461 454" xml:space="preserve">
<metadata>
	<ns:sfw>
		<ns:slices></ns:slices>
		<ns:sliceSourceBounds x="220.226" y="131.926" width="400.483" height="340.918" bottomLeftOrigin="true"></ns:sliceSourceBounds>
	</ns:sfw>
<rdf:RDF><cc:Work rdf:about=""><dc:format>image/svg+xml</dc:format><dc:type rdf:resource="http://purl.org/dc/dcmitype/StillImage"></dc:type><dc:title></dc:title></cc:Work></rdf:RDF></metadata>
	<path d="m218.64 392.57v-14.364h-26.403v14.363h-35.697v-14.363h-23.657v14.363h-50.06c-1.27-5.914-2.502-11.269-3.697-16.056-1.198-4.786-2.676-10.17-4.436-16.155-1.764-5.984-3.838-11.937-6.231-17.851-2.957-6.617-6.621-13.762-10.981-21.438-4.367-7.674-8.557-16.371-12.568-26.086-4.013-9.717-7.465-20.597-10.35-32.636-2.89-12.038-4.33-25.803-4.33-41.295 0-15.487 1.44-29.429 4.33-41.821 2.885-12.391 6.404-23.34 10.561-32.846 4.152-9.505 8.555-17.743 13.202-24.713 4.646-6.97 8.799-12.779 12.462-17.426 2.958-5.492 5.281-11.3 6.971-17.426 1.689-6.125 2.885-11.792 3.591-17.003 0.703-5.208 1.194-11.264 1.479-18.166h50.06c0 0.284-0.142 1.763-0.422 4.436-0.284 2.676-0.845 6.336-1.688 10.983-0.847 4.647-2.043 9.472-3.591 14.469-1.553 5-3.628 10-6.231 14.997-2.607 5-5.809 9.119-9.611 12.356-3.099 3.521-6.688 7.254-10.771 11.195-4.086 3.944-8.238 8.274-12.462 12.99-4.226 4.719-8.379 9.927-12.462 15.63-4.086 5.703-7.71 12.112-10.878 19.221-3.168 7.112-5.739 15.069-7.711 23.868-1.975 8.802-2.956 18.556-2.956 29.254 0 7.89 0.913 16.158 2.745 24.818 1.827 8.66 4.329 17.32 7.498 25.979 3.169 8.66 6.828 17.107 10.983 25.349 4.152 8.235 8.519 15.877 13.096 22.916 4.574 7.043 9.258 13.344 14.046 18.906 4.786 5.563 9.363 9.893 13.729 12.987h228.75c4.362-3.096 8.871-7.426 13.52-12.987 4.646-5.563 9.15-11.863 13.519-18.906 4.363-7.039 8.521-14.681 12.462-22.916 3.941-8.238 7.396-16.688 10.353-25.349 2.957-8.659 5.278-17.319 6.97-25.979 1.689-8.66 2.535-16.93 2.535-24.818 0-16.19-1.938-30.132-5.811-41.821-3.875-11.688-8.627-21.861-14.258-30.521-5.634-8.66-11.584-16.123-17.849-22.39-6.269-6.264-11.795-12.073-16.581-17.426-3.802-3.238-6.938-7.356-9.399-12.356-2.465-4.997-4.366-9.997-5.702-14.997-1.341-4.997-2.322-9.822-2.958-14.469-0.633-4.647-0.984-8.307-1.056-10.983-0.072-2.673-0.105-4.152-0.105-4.436h47.736c0.28 6.901 0.878 12.958 1.795 18.166 0.914 5.211 2.324 10.878 4.227 17.003 1.899 6.125 4.68 11.934 8.344 17.426 2.957 4.647 6.581 10.456 10.878 17.426 4.294 6.97 8.448 15.208 12.462 24.714 4.014 9.504 7.462 20.455 10.35 32.844 2.887 12.394 4.33 26.334 4.33 41.823 0 15.49-1.443 29.254-4.33 41.295-2.888 12.039-6.336 22.916-10.35 32.634-4.014 9.717-8.168 18.412-12.462 26.086-4.297 7.678-7.921 14.821-10.878 21.438-2.396 5.916-4.366 11.865-5.914 17.851-1.552 5.985-2.782 11.37-3.697 16.157-0.917 4.785-1.726 10.14-2.429 16.056h-52.383v-14.364h-21.545v14.363h-40.346v-14.363h-23.867v14.363l-23.875 1e-3zm25.875-322.54c3.307 4.367 4.964 10.139 4.964 17.32v176.37c0 7.183-1.657 12.957-4.964 17.32-3.313 4.367-7.993 6.547-14.047 6.547-5.916 0-10.599-2.18-14.048-6.547-3.452-4.363-5.175-10.139-5.175-17.32v-176.37c0-7.182 1.723-12.954 5.175-17.32 3.449-4.363 8.132-6.548 14.048-6.548 6.054 0 10.736 2.185 14.047 6.548zm-28.093 233.3c3.449-4.15 8.132-6.23 14.048-6.23 6.054 0 10.734 2.08 14.047 6.23 3.307 4.156 4.964 9.262 4.964 15.313 0 2.396-0.423 4.755-1.27 7.076-0.845 2.324-2.077 4.367-3.694 6.127-1.621 1.763-3.627 3.203-6.021 4.33-2.396 1.127-5.067 1.689-8.025 1.689-2.959 0-5.635-0.563-8.026-1.689-2.396-1.127-4.403-2.567-6.021-4.33-1.621-1.76-2.888-3.803-3.802-6.127-0.918-2.321-1.373-4.68-1.373-7.076-2e-3 -6.052 1.721-11.157 5.173-15.313z" fill="#FFCE63"></path>
</svg>