<?xml version='1.0' encoding='utf-8'?>
<!-- Generator: Adobe Illustrator 16.0.3, SVG Export Plug-In . SVG Version: 6.00 Build 0)  --><svg xmlns="http://www.w3.org/2000/svg" xmlns:cc="http://creativecommons.org/ns#" xmlns:rdf="http://www.w3.org/1999/02/22-rdf-syntax-ns#" xmlns:dc="http://purl.org/dc/elements/1.1/" width="413.96px" height="425.2px" enable-background="new 0 0 413.958 425.197" version="1.1" viewBox="0 0 413.96 425.2" xml:space="preserve"><metadata><rdf:RDF><cc:Work rdf:about=""><dc:format>image/svg+xml</dc:format><dc:type rdf:resource="http://purl.org/dc/dcmitype/StillImage"></dc:type><dc:title></dc:title></cc:Work></rdf:RDF></metadata>

	<polygon points="360.62 114.34 338.62 114.34 338.62 278.88 56.479 278.88 56.479 300.88 360.62 300.88" fill="#FFCE63"></polygon>
	<polygon points="377.78 142.16 377.78 318.16 90.12 318.16 90.12 340.16 399.78 340.16 399.78 142.16" fill="#FFCE63"></polygon>
	<path d="m321.45 81.001h-44.623v-24.309h-39.158v24.309h-139.72v-24.309h-39.159v24.309h-44.621v180.61h307.28v-180.61zm-22 158.61h-263.28v-136.61h263.28v136.61z" fill="#FFCE63"></path>
	<rect x="53.203" y="136.95" width="50.547" height="16.612" fill="#FFCE63"></rect>
	<polygon points="248.84 170.53 265.45 170.53 265.45 153.56 282.42 153.56 282.42 136.95 265.45 136.95 265.45 119.98 248.84 119.98 248.84 136.95 231.87 136.95 231.87 153.56 248.84 153.56" fill="#FFCE63"></polygon>

</svg>