<?xml version='1.0' encoding='utf-8'?>
<!-- Generator: Adobe Illustrator 16.0.3, SVG Export Plug-In . SVG Version: 6.00 Build 0)  --><svg xmlns="http://www.w3.org/2000/svg" xmlns:cc="http://creativecommons.org/ns#" xmlns:dc="http://purl.org/dc/elements/1.1/" xmlns:rdf="http://www.w3.org/1999/02/22-rdf-syntax-ns#" width="294.56px" height="425.2px" version="1.2" viewBox="0 0 294.56 425.2" xml:space="preserve"><metadata><rdf:RDF><cc:Work rdf:about=""><dc:format>image/svg+xml</dc:format><dc:type rdf:resource="http://purl.org/dc/dcmitype/StillImage"></dc:type><dc:title></dc:title></cc:Work></rdf:RDF></metadata>
<path d="m15.553 56.693-1.379 283.46h19.157c0-39.99 14.259-53.657 45.926-53.657s37.216-5.334 37.216-24-5.965-24.667-5.965-35 8.333-14.667 19.333-18 10.333-17.333-4-32c-10.262-10.5-24.638-16.373-21.333-40.333 5.332-38.667-6.91-80.474-88.955-80.474z" fill-rule="evenodd" fill="#000000"></path>
<path d="m251.08 316.12c-1.593 0-3.201-0.475-4.603-1.462-3.611-2.546-4.475-7.537-1.93-11.148 12.975-18.407 19.833-40.08 19.833-62.676 0-22.599-6.857-44.274-19.831-62.683-2.545-3.611-1.681-8.603 1.931-11.147 3.611-2.544 8.604-1.681 11.147 1.931 14.885 21.121 22.753 45.983 22.753 71.9 0 25.914-7.868 50.774-22.755 71.895-1.558 2.209-4.032 3.39-6.545 3.39z" fill="#000000"></path>
<path d="m211.47 291.05c-1.679 0-3.371-0.525-4.814-1.615-3.526-2.661-4.227-7.679-1.564-11.205 8.188-10.848 12.517-23.78 12.517-37.4 0-13.624-4.327-26.56-12.514-37.407-2.661-3.526-1.96-8.543 1.566-11.205 3.527-2.662 8.542-1.962 11.205 1.567 10.299 13.646 15.742 29.914 15.742 47.045 0 17.127-5.445 33.394-15.747 47.041-1.573 2.082-3.968 3.179-6.391 3.179z" fill="#000000"></path>
<path d="m177.68 269.67c-1.962 0-3.928-0.717-5.471-2.165-3.223-3.022-3.385-8.086-0.362-11.308 3.923-4.183 6.083-9.638 6.083-15.362s-2.16-11.181-6.082-15.365c-3.021-3.224-2.857-8.286 0.366-11.308 3.224-3.022 8.286-2.857 11.308 0.366 6.712 7.16 10.408 16.503 10.408 26.307 0 9.806-3.698 19.149-10.413 26.308-1.576 1.678-3.703 2.527-5.837 2.527z" fill="#000000"></path>
</svg>