<?xml version='1.0' encoding='utf-8'?>
<!-- Generator: Adobe Illustrator 16.0.3, SVG Export Plug-In . SVG Version: 6.00 Build 0)  --><svg xmlns="http://www.w3.org/2000/svg" xmlns:cc="http://creativecommons.org/ns#" xmlns:dc="http://purl.org/dc/elements/1.1/" xmlns:rdf="http://www.w3.org/1999/02/22-rdf-syntax-ns#" width="410.35px" height="425.2px" version="1.2" viewBox="0 0 410.35 425.2" xml:space="preserve"><metadata><rdf:RDF><cc:Work rdf:about=""><dc:format>image/svg+xml</dc:format><dc:type rdf:resource="http://purl.org/dc/dcmitype/StillImage"></dc:type><dc:title></dc:title></cc:Work></rdf:RDF></metadata>
<path d="m124.12 131.13-50.81 51.543h-41.357c-9.787 0-17.784 8.003-17.784 17.781v70.374c0 9.786 7.997 17.788 17.784 17.788h41.357l50.81 51.543h13.525v-209.03h-13.525z" fill-rule="evenodd" fill="#000000"></path>
<path d="m347.68 107.63-3.098 8.573c25.41 9.182 42.479 33.512 42.479 60.542 0 35.478-28.868 64.342-64.353 64.342h-126.5v-34.43l-51.949 38.986 51.949 38.63v-34.071h126.5c40.512 0 73.47-32.952 73.47-73.457 1e-3 -30.858-19.488-58.633-48.498-69.115z" fill="#000000"></path>
<path d="m333.06 95.678-51.828-38.984v34.426h-123.82c-26.659 0-51.278 14.478-64.252 37.787l7.966 4.434c11.366-20.419 32.934-33.105 56.286-33.105h123.82v34.068l51.828-38.626z" fill="#000000"></path>
</svg>