<?xml version='1.0' encoding='utf-8'?>
<!-- Generator: Adobe Illustrator 27.2.0, SVG Export Plug-In . SVG Version: 6.00 Build 0)  --><svg xmlns="http://www.w3.org/2000/svg" xmlns:xlink="http://www.w3.org/1999/xlink" version="1.1" id="Vrstva_1" x="0px" y="0px" viewBox="0 0 1031.6 566.9" style="enable-background:new 0 0 1031.6 566.9;" xml:space="preserve" width="727.8885" height="400.0">
<g>
	<path d="M283.9,452.8h-58.7v-162l-60.2,162h-41.1l-58.7-158v158H6.4V108.3h52.9l88.4,233.9l81.8-233.9h54.3V452.8L283.9,452.8z"></path>
	<path d="M507,376.4v76.3H322V108.3h182v76.3H385.1v60.7h105.7v70.5H385.1v60.7L507,376.4L507,376.4L507,376.4z"></path>
	<path d="M760.9,108.3v344.5h-38.2l-123.3-184v184h-63.1V108.3H573l124.8,185.9V108.3H760.9L760.9,108.3z"></path>
	<path d="M794.7,317.7V108.3h63.1v211.4c0,40.1,21.7,62.6,52.9,62.6s51.4-22.5,51.4-62.6V108.3h63.1v209.4   c0,86.1-47.7,140.9-114.5,140.9C842.4,458.6,794.7,403.8,794.7,317.7L794.7,317.7L794.7,317.7z"></path>
</g>
</svg>