<?xml version='1.0' encoding='utf-8'?>
<!-- Generator: Adobe Illustrator 16.0.3, SVG Export Plug-In . SVG Version: 6.00 Build 0)  --><svg xmlns="http://www.w3.org/2000/svg" xmlns:cc="http://creativecommons.org/ns#" xmlns:dc="http://purl.org/dc/elements/1.1/" xmlns:rdf="http://www.w3.org/1999/02/22-rdf-syntax-ns#" width="576.82px" height="425.2px" version="1.2" viewBox="0 0 576.82 425.2" xml:space="preserve"><metadata><rdf:RDF><cc:Work rdf:about=""><dc:format>image/svg+xml</dc:format><dc:type rdf:resource="http://purl.org/dc/dcmitype/StillImage"></dc:type><dc:title></dc:title></cc:Work></rdf:RDF></metadata>
<path d="m525.73 210.62c-7.776-7.26-12.536-16.342 8.354-18.261 20.895-1.945 28.561-6.134 28.561-54.875 0-48.758-14.617-80.793-49.45-80.793-11.36 0-22.878 4.841-31.947 12.354 11.752 14.799 18.092 38.046 18.092 68.439 0 45.401-10.008 64.505-35.727 68.174-2.486 0.375-5.62 0.908-6.66 1.891-1.353 1.271-0.18 3.025 0.102 3.283 27.955 27.348 40.506 73.349 40.506 107.5v21.82h65.085v-21.82c-2e-3 -33.432-16.731-88.939-36.916-107.71z" fill="#000000"></path>
<path d="m343.89 340.16h135.04v-21.82c0-33.432-16.71-88.938-36.911-107.71-7.797-7.26-12.535-16.342 8.361-18.261 20.896-1.945 28.55-6.134 28.55-54.875 0-48.758-14.636-80.793-49.446-80.793-24.379 0-49.465 22.28-49.465 45.268 0 42.484 16.707 36.914 16.707 63.987 0 16.018-52.835 35.607-52.835 105.93v68.277z" fill="#000000"></path>
<path d="m14.173 340.16h135.03v-21.82c0-33.432-16.726-88.938-36.908-107.71-7.796-7.26-12.541-16.342 8.355-18.261 20.895-1.945 28.553-6.134 28.553-54.875 0-48.758-14.631-80.793-49.449-80.793-24.38 0-49.457 22.28-49.457 45.268 0 42.484 16.716 36.914 16.716 63.987 0 16.018-52.839 35.607-52.839 105.93v68.277z" fill="#000000"></path>
<polygon points="327.95 129.28 265.5 129.28 265.5 66.815 249.75 66.815 249.75 129.28 187.3 129.28 187.3 145.01 249.75 145.01 249.75 207.46 265.5 207.46 265.5 145.01 327.95 145.01" fill="#000000"></polygon>
</svg>