<?xml version='1.0' encoding='utf-8'?>
<!-- Generator: Adobe Illustrator 16.0.0, SVG Export Plug-In . SVG Version: 6.00 Build 0)  --><svg xmlns="http://www.w3.org/2000/svg" xmlns:cc="http://creativecommons.org/ns#" xmlns:dc="http://purl.org/dc/elements/1.1/" xmlns:rdf="http://www.w3.org/1999/02/22-rdf-syntax-ns#" width="569px" height="417px" enable-background="new 0 0 569 417" version="1.1" viewBox="0 0 569 417" xml:space="preserve"><metadata><rdf:RDF><cc:Work rdf:about=""><dc:format>image/svg+xml</dc:format><dc:type rdf:resource="http://purl.org/dc/dcmitype/StillImage"></dc:type><dc:title></dc:title></cc:Work></rdf:RDF></metadata>
<path d="m51.354 334.16c0 2.691 0.404 5.833 1.211 9.416 0.807 3.589 2.375 6.994 4.708 10.223 2.329 3.229 5.69 5.966 10.09 8.207 4.393 2.244 10.265 3.363 17.623 3.363 3.943 0 7.89-0.355 11.838-1.077 3.943-0.715 7.533-1.969 10.762-3.766 3.229-1.792 5.827-4.306 7.803-7.534 1.971-3.229 2.96-7.441 2.96-12.645 0-3.767-0.72-6.949-2.153-9.553-1.437-2.598-3.41-4.749-5.918-6.457-2.514-1.702-5.516-3.182-9.013-4.439-3.497-1.253-7.398-2.507-11.704-3.766l-17.219-4.843c-6.458-1.792-12.737-3.807-18.833-6.055-6.1-2.241-11.481-5.382-16.143-9.416-4.666-4.036-8.433-9.325-11.3-15.875-2.873-6.545-4.304-15.202-4.304-25.962 0-5.38 0.761-11.57 2.287-18.564 1.521-6.995 4.481-13.54 8.878-19.64 4.393-6.1 10.627-11.258 18.699-15.471 8.072-4.212 18.564-6.322 31.478-6.322 12.194 0 22.286 2.152 30.269 6.457 7.979 4.305 14.347 9.686 19.103 16.143 4.75 6.456 8.071 13.317 9.954 20.582s2.826 13.856 2.826 19.776h-32.016c-0.182-2.154-0.63-4.886-1.346-8.206-0.72-3.315-2.153-6.545-4.304-9.686-2.153-3.136-5.381-5.826-9.686-8.07-4.305-2.241-10.047-3.363-17.219-3.363-3.229 0-6.503 0.404-9.82 1.211-3.321 0.808-6.323 2.111-9.013 3.901-2.69 1.796-4.889 4.217-6.591 7.266-1.707 3.049-2.556 6.725-2.556 11.03 0 3.766 0.579 6.86 1.749 9.282 1.163 2.421 2.599 4.397 4.304 5.918 1.701 1.527 3.539 2.65 5.516 3.364 1.97 0.719 3.767 1.344 5.382 1.882l39.012 11.569c5.381 1.614 10.58 3.633 15.604 6.054 5.019 2.422 9.458 5.609 13.318 9.553 3.854 3.947 6.95 8.878 9.283 14.796 2.329 5.92 3.497 13.274 3.497 22.063 0 9.686-1.211 17.984-3.633 24.887-2.421 6.907-5.562 12.738-9.417 17.487-3.859 4.756-8.206 8.522-13.049 11.301-4.843 2.783-9.599 4.89-14.26 6.322-4.666 1.431-9.013 2.377-13.049 2.826-4.035 0.448-7.222 0.673-9.551 0.673-14.529 0-26.233-2.239-35.112-6.727-8.878-4.484-15.786-10.042-20.716-16.681-4.933-6.637-8.206-13.722-9.82-21.253-1.614-7.534-2.421-14.259-2.421-20.179h32.015l-3e-3 -2e-3zm194.12-140.17c3.59 0 7.948 0.404 13.068 1.212 5.121 0.807 10.558 2.513 16.306 5.111 5.754 2.604 11.457 6.188 17.115 10.762 5.657 4.574 10.734 10.674 15.229 18.295 4.491 7.626 8.13 16.908 10.914 27.848 2.778 10.942 4.175 24.033 4.175 39.28s-1.396 28.385-4.175 39.415c-2.784 11.031-6.427 20.313-10.914 27.848-4.493 7.532-9.572 13.633-15.229 18.293-5.658 4.665-11.363 8.254-17.115 10.763-5.75 2.511-11.186 4.169-16.306 4.977-5.119 0.807-9.479 1.21-13.068 1.21-3.594 0-7.953-0.403-13.074-1.21-5.122-0.808-10.515-2.465-16.17-4.977-5.659-2.509-11.322-6.098-16.977-10.763-5.659-4.66-10.779-10.761-15.362-18.295-4.583-7.532-8.269-16.816-11.054-27.848-2.783-11.03-4.172-24.168-4.172-39.416 0-15.246 1.39-28.337 4.172-39.28 2.782-10.94 6.469-20.219 11.054-27.847 4.583-7.622 9.703-13.722 15.362-18.296 5.658-4.573 11.321-8.158 16.977-10.762 5.658-2.598 11.053-4.305 16.17-5.111 5.116-0.807 9.48-1.209 13.074-1.209zm0 170.85c4.469 0 9.253-0.985 14.347-2.962 5.094-1.967 9.79-5.515 14.081-10.626 4.287-5.111 7.817-12.107 10.593-20.986 2.771-8.877 4.159-20.131 4.159-33.764 0-13.634-1.387-24.84-4.159-33.631-2.773-8.79-6.305-15.74-10.593-20.853-4.291-5.111-8.987-8.651-14.081-10.627-5.094-1.972-9.878-2.962-14.347-2.962-4.474 0-9.257 0.99-14.352 2.962-5.094 1.972-9.791 5.516-14.077 10.627-4.29 5.112-7.824 12.064-10.593 20.853-2.772 8.791-4.157 19.997-4.157 33.631 0 13.633 1.382 24.887 4.157 33.764 2.771 8.879 6.301 15.875 10.593 20.986 4.287 5.111 8.984 8.655 14.077 10.626 5.095 1.977 9.878 2.962 14.352 2.962zm220.48-230.85c-3.051-2.329-7.265-5.248-12.646-8.745-5.38-3.497-11.391-7.171-18.024-11.032-6.639-3.854-13.633-7.803-20.986-11.838s-14.485-7.803-21.391-11.3c-6.908-3.497-13.273-6.591-19.102-9.281-5.833-2.691-10.538-4.662-14.125-5.919-0.719 2.334-1.614 5.158-2.69 8.476-1.075 3.322-2.421 6.458-4.035 9.417s-3.634 5.34-6.055 7.13c-2.422 1.795-5.339 2.334-8.744 1.614-3.766-0.54-8.567-1.521-14.394-2.961-5.834-1.432-11.753-3-17.758-4.708-6.011-1.701-11.615-3.363-16.814-4.978-5.203-1.614-8.969-2.866-11.3-3.766l-2.152-0.807c-2.69-1.792-4.351-4.306-4.978-7.535-0.63-3.229-0.63-6.726 0-10.493 0.625-3.767 1.791-7.71 3.498-11.837 1.7-4.124 3.497-8.071 5.381-11.839 1.883-3.767 3.766-7.13 5.649-10.09s3.362-5.335 4.439-7.13c1.077-1.614 2.332-2.867 3.767-3.767 0.718-0.539 1.525-0.984 2.422-1.346 0.357 0 2.238-0.404 5.65-1.21 3.407-0.807 8.158-1.479 14.259-2.019 6.098-0.538 13.451-0.626 22.062-0.269 8.608 0.361 18.295 1.614 29.056 3.768 10.762 2.152 22.51 5.562 35.245 10.224 12.732 4.666 26.185 10.942 40.356 18.833 21.525 11.483 39.012 23.409 52.464 35.785 13.452 12.377 23.944 23.768 31.479 34.17 7.533 10.405 12.685 19.061 15.47 25.963 2.775 6.907 4.258 10.627 4.44 11.166 0.178 0.719 0.269 1.437 0.269 2.151 0 0.721-0.047 1.438-0.135 2.154-0.091 0.719-0.315 1.526-0.673 2.421-0.897 1.974-1.749 3.725-2.556 5.247-0.808 1.527-1.614 3.094-2.422 4.708-0.807 1.614-1.706 3.363-2.691 5.247-0.99 1.883-2.286 4.263-3.9 7.13-1.436 2.334-3.188 5.112-5.248 8.341-2.065 3.229-4.396 6.101-6.994 8.609-2.605 2.511-5.473 4.44-8.61 5.784-3.143 1.346-6.416 1.305-9.819-0.134l-2.153-1.077c-1.976-1.432-5.024-3.901-9.146-7.398-4.127-3.497-8.523-7.353-13.184-11.569-4.665-4.212-9.193-8.381-13.588-12.511-4.396-4.123-7.848-7.534-10.357-10.226-2.516-2.508-3.634-5.287-3.364-8.339 0.269-3.047 1.212-6.054 2.826-9.013s3.498-5.785 5.65-8.476c2.154-2.689 4.038-4.928 5.652-6.725zm6.457 22.6c2.328 2.333 5.111 5.024 8.34 8.071 3.229 3.051 6.499 6.1 9.819 9.146 3.314 3.052 6.593 5.965 9.821 8.745 3.229 2.783 6.006 5.07 8.34 6.861 1.791-1.791 3.54-3.901 5.246-6.322 1.7-2.422 3.314-4.978 4.843-7.667 1.522-2.691 2.959-5.383 4.305-8.072 1.346-2.691 2.557-5.199 3.634-7.534-3.768-10.041-9.105-19.593-16.01-28.653-6.909-9.056-14.574-17.487-23.004-25.29-8.432-7.802-17.398-14.933-26.903-21.39-9.506-6.457-18.746-12.107-27.711-16.95-8.792-5.02-18.432-9.727-28.924-14.125-10.493-4.394-21.346-8.025-32.554-10.897-11.215-2.868-22.515-4.75-33.9-5.65-11.391-0.895-22.289-0.269-32.689 1.883-2.69 4.304-5.562 9.374-8.61 15.201-3.048 5.831-5.293 11.077-6.726 15.739 2.87 1.076 6.323 2.245 10.359 3.498 4.035 1.257 8.248 2.468 12.645 3.633 4.39 1.168 8.745 2.287 13.049 3.363 4.305 1.077 8.072 1.977 11.301 2.691 1.793-5.02 3.407-10.132 4.843-15.336l0.807-3.497c0.357-1.076 0.579-1.749 0.673-2.019 0.085-0.269 0.312-0.85 0.673-1.749 0.358-1.076 0.941-1.883 1.748-2.422 0.808-0.538 1.569-0.984 2.288-1.346 0.718-0.356 1.614-0.626 2.691-0.807 3.047-0.539 8.427 0.496 16.142 3.094 7.712 2.602 16.412 6.188 26.098 10.761s19.863 9.732 30.536 15.47c10.671 5.74 20.533 11.481 29.595 17.218 9.057 5.741 16.767 11.123 23.138 16.143 6.365 5.025 10.179 8.97 11.436 11.84 0.179 1.074 0.358 2.064 0.538 2.958 0.355 1.976 0.089 3.769-0.807 5.383-0.359 0.719-0.674 1.211-0.942 1.48s-0.765 0.854-1.479 1.749l-2.422 2.689c-1.795 1.977-3.586 3.948-5.38 5.92-1.801 1.979-3.415 4.039-4.847 6.19zm-99.815 177.57c0 2.691 0.403 5.833 1.21 9.416 0.808 3.589 2.422 6.994 4.844 10.223 2.421 3.229 5.827 5.966 10.223 8.207 4.392 2.243 10.265 3.363 17.624 3.363 3.946 0 7.89-0.355 11.838-1.077 3.945-0.715 7.533-1.969 10.762-3.766 3.229-1.792 5.829-4.306 7.802-7.534 1.972-3.229 2.96-7.441 2.96-12.645 0-3.767-0.72-6.949-2.152-9.553-1.435-2.598-3.455-4.749-6.054-6.457-2.605-1.702-5.65-3.182-9.148-4.439-3.498-1.253-7.398-2.507-11.704-3.766l-16.95-4.843c-6.457-1.792-12.735-3.807-18.833-6.055-6.101-2.241-11.527-5.382-16.276-9.416-4.759-4.036-8.568-9.325-11.436-15.875-2.872-6.545-4.305-15.202-4.305-25.962 0-5.38 0.761-11.57 2.288-18.564 1.521-6.995 4.527-13.54 9.013-19.64 4.483-6.1 10.715-11.258 18.698-15.471 7.98-4.212 18.431-6.322 31.345-6.322 12.194 0 22.33 2.152 30.402 6.457 8.071 4.305 14.437 9.686 19.102 16.143 4.661 6.456 7.981 13.317 9.954 20.582 1.972 7.265 2.96 13.856 2.96 19.776h-32.016c-0.359-2.154-0.897-4.886-1.614-8.206-0.721-3.315-2.153-6.545-4.305-9.686-2.153-3.136-5.382-5.826-9.686-8.07-4.305-2.241-10.047-3.363-17.219-3.363-3.229 0-6.458 0.404-9.687 1.211-3.229 0.808-6.187 2.111-8.878 3.901-2.69 1.796-4.889 4.217-6.593 7.266-1.706 3.048-2.555 6.725-2.555 11.03 0 3.766 0.58 6.86 1.748 9.282 1.161 2.421 2.599 4.397 4.304 5.918 1.7 1.527 3.54 2.65 5.517 3.364 1.972 0.719 3.768 1.344 5.382 1.882l38.741 11.569c5.382 1.614 10.627 3.633 15.74 6.054 5.111 2.422 9.594 5.609 13.451 9.553 3.853 3.947 6.949 8.878 9.283 14.796 2.331 5.92 3.498 13.273 3.498 22.063 0 9.686-1.212 17.984-3.634 24.887-2.422 6.907-5.607 12.738-9.551 17.487-3.949 4.756-8.3 8.522-13.05 11.301-4.757 2.783-9.462 4.89-14.125 6.322-4.664 1.431-9.014 2.376-13.049 2.826-4.036 0.447-7.225 0.672-9.551 0.672-14.528 0-26.279-2.239-35.244-6.727-8.969-4.484-15.921-10.042-20.852-16.681-4.937-6.637-8.206-13.722-9.82-21.253-1.614-7.534-2.421-14.259-2.421-20.179h32.016l3e-3 -1e-3z" fill="#000000"></path>
</svg>