<?xml version='1.0' encoding='utf-8'?>
<!-- Generator: Adobe Illustrator 27.2.0, SVG Export Plug-In . SVG Version: 6.00 Build 0)  --><svg xmlns="http://www.w3.org/2000/svg" xmlns:xlink="http://www.w3.org/1999/xlink" version="1.2" baseProfile="tiny" id="Vrstva_1" x="0px" y="0px" viewBox="0 0 400 425.2" overflow="visible" xml:space="preserve" width="376.2935" height="400.0">
<g>
	<circle cx="287.8" cy="84.3" r="38.5" fill="#FFCE63"></circle>
	<path d="M373.3,109.6l-15-12.2l-51.7,60.1c-3.8-3.8-7.5-6.6-12.2-9.4c-9.4-5.6-23.5-5.6-32.9-1.9c-11.3,3.8-19.7,11.3-23.5,23.5   l-19.7,50.7l56.4,83.6c0,0,40.4-106.2,41.3-109.9c0.9-2.8,1.9-5.6,1.9-8.5s0-5.6-0.9-8.5L373.3,109.6z" fill="#FFCE63"></path>
	<circle cx="114" cy="103.1" r="67.6" fill="#FFCE63"></circle>
	<polygon points="255,308.8 289.7,361.4 305.7,349.2 274.7,303.2  " fill="#FFCE63"></polygon>
	<path d="M255,308.8L192,217.7l-32.9-11.3c-11.3-3.8-23.5-1.9-31,7.5L32.3,314.4c-5.6,7.5-7.5,17.8-3.8,27.2   c3.8,9.4,11.3,15,23.5,15h29.1l78.9-85.5L255,308.8z" fill="#FFCE63"></path>
</g>
</svg>