<?xml version='1.0' encoding='utf-8'?>
<!-- Generator: Adobe Illustrator 16.0.0, SVG Export Plug-In . SVG Version: 6.00 Build 0)  --><svg xmlns="http://www.w3.org/2000/svg" xmlns:cc="http://creativecommons.org/ns#" xmlns:dc="http://purl.org/dc/elements/1.1/" xmlns:rdf="http://www.w3.org/1999/02/22-rdf-syntax-ns#" width="521px" height="425.2px" version="1.2" viewBox="212.44 85.042 521 425.2" xml:space="preserve"><metadata><rdf:RDF><cc:Work rdf:about=""><dc:format>image/svg+xml</dc:format><dc:type rdf:resource="http://purl.org/dc/dcmitype/StillImage"></dc:type><dc:title></dc:title></cc:Work></rdf:RDF></metadata>

	<path d="m678.35 162.99h-228.01v17.249h228.01c6.069 0 25.872 1.439 25.872 19.945v53.903c0 17.755-4.489 20.751-14.554 20.751h-8.623v-1.65c0-16.205-22.437-29.344-50.13-29.344h-3.235v79.237h3.235c27.693 0 50.13-13.139 50.13-29.343v-1.649h8.623c31.803 0 31.803-28.603 31.803-38.001v-53.903c0-22.248-17.33-37.195-43.122-37.195z"></path>
	<path d="m266.53 386.69c-6.069 0-25.874-1.438-25.874-19.943v-53.902c0-17.756 4.49-20.751 14.554-20.751v1.649c0 16.205 22.438 29.343 50.063 29.343h3.301v-79.237h-3.301c-27.625 0-50.063 13.139-50.063 29.344v1.65c-31.803 0-31.803 28.602-31.803 38.001v53.902c0 22.246 17.33 37.193 43.123 37.193h228.01v-17.25h-228.01z"></path>
	<g fill-rule="evenodd">
		<path d="m663.39 233.61v-8.019c0-16.204-13.138-29.343-29.31-29.343h-333.72c-16.239 0-29.377 13.139-29.377 29.343v8.019h48.917v99.718h-48.917v0.843c0 16.204 6.873 38.877 29.377 38.877h333.72c24.862 0 29.31-22.673 29.31-38.877v-0.843h-47.703v-99.718h47.702zm-161.91 103.22h-157.39v-66.3h157.4v66.3z"></path>
		
			<rect x="364.43" y="288.86" width="13.206" height="29.646"></rect>
			<rect x="398.93" y="288.86" width="13.206" height="29.646"></rect>
			<rect x="433.43" y="288.86" width="13.206" height="29.646"></rect>
			<rect x="467.92" y="288.86" width="13.204" height="29.646"></rect>
		
	</g>

</svg>