<?xml version='1.0' encoding='utf-8'?>
<!-- Generator: Adobe Illustrator 22.1.0, SVG Export Plug-In . SVG Version: 6.00 Build 0)  --><svg xmlns="http://www.w3.org/2000/svg" xmlns:cc="http://creativecommons.org/ns#" xmlns:dc="http://purl.org/dc/elements/1.1/" xmlns:rdf="http://www.w3.org/1999/02/22-rdf-syntax-ns#" version="1.2" viewBox="0 0 237 425.2" xml:space="preserve" width="222.9539" height="400.0"><metadata><rdf:RDF><cc:Work rdf:about=""><dc:format>image/svg+xml</dc:format><dc:type rdf:resource="http://purl.org/dc/dcmitype/StillImage"></dc:type><dc:title></dc:title></cc:Work></rdf:RDF></metadata>
	<polygon points="120.22 343.16 57.568 271.13 57.568 231.52 119.8 303.06 179.26 231.72 179.26 272.33" fill="#0069B4"></polygon>
		<polygon points="57.818 186.54 57.818 147.68 119.8 218.94 179 147.91 179 187.74 120.21 258.27" fill="#0069B4"></polygon>
		<path d="m58.068 148.35 61.349 70.531 0.385 0.443 0.376-0.451 58.576-70.272v39.045l-58.548 70.238-62.139-71.441v-38.093m-0.499-1.337v39.616l62.647 72.026 59.04-70.828v-40.607l-59.46 71.333-62.227-71.54z" fill="#0069B4"></path>
	<path d="m58.068 63.853 61.349 70.531 0.385 0.443 0.376-0.451 58.576-70.272v39.045l-58.548 70.238-62.139-71.441v-38.093m-0.499-1.337v39.616l62.647 72.026 59.04-70.828v-40.607l-59.46 71.333-62.227-71.54z" fill="#0069B4"></path>
</svg>