<?xml version='1.0' encoding='utf-8'?>
<!-- Generator: Adobe Illustrator 16.0.3, SVG Export Plug-In . SVG Version: 6.00 Build 0)  --><svg xmlns="http://www.w3.org/2000/svg" xmlns:cc="http://creativecommons.org/ns#" xmlns:dc="http://purl.org/dc/elements/1.1/" xmlns:rdf="http://www.w3.org/1999/02/22-rdf-syntax-ns#" width="327.71px" height="425.2px" enable-background="new 0 0 327.714 425.197" version="1.1" viewBox="0 0 327.71 425.2" xml:space="preserve"><metadata><rdf:RDF><cc:Work rdf:about=""><dc:format>image/svg+xml</dc:format><dc:type rdf:resource="http://purl.org/dc/dcmitype/StillImage"></dc:type><dc:title></dc:title></cc:Work></rdf:RDF></metadata>

	<path d="m312.27 138.44c0.661-3.042 1.059-6.084 1.257-9.259 0.066-3.142 0-6.151-0.396-9.325l-16.932-4.894c-1.124-4.96-2.778-9.524-5.093-13.823l9.854-14.682c-3.505-5.159-7.87-9.723-12.765-13.691l-15.311 8.532c-4.167-2.646-8.598-4.762-13.492-6.25l-3.373-17.262c-3.108-0.496-6.151-0.992-9.325-0.992-3.043-0.231-6.35 0-9.326 0.231l-4.762 16.998c-4.96 1.19-9.59 2.844-14.087 5.093l-14.551-9.789c-5.093 3.638-9.656 7.738-13.624 12.698l8.531 15.344c-2.777 4.167-4.762 8.73-6.282 13.393l-17.263 3.539c-0.463 3.108-1.058 6.019-1.124 9.193-0.132 3.174 0 6.316 0.463 9.259l16.733 4.96c1.19 4.878 2.909 9.574 5.225 13.906l-9.854 14.715c3.703 5.027 7.804 9.524 12.5 13.492l15.542-8.465c4.167 2.646 8.532 4.696 13.492 6.25l3.439 17.427c2.976 0.331 6.15 0.827 9.259 0.86 3.175 0.132 6.283 0 9.26-0.231l4.96-16.964c4.961-1.091 9.59-2.844 13.955-5.159l14.584 9.821c4.96-3.604 9.655-7.771 13.69-12.666l-8.73-15.41c2.777-4.101 4.895-8.631 6.35-13.426l17.196-3.423zm-68.42 24.389c-20.172 0-36.508-16.336-36.508-36.492 0-20.172 16.336-36.508 36.508-36.508 20.238 0 36.476 16.336 36.476 36.508-1e-3 20.155-16.238 36.492-36.476 36.492z" fill="#000000"></path>
	<path d="m36.92 244.64h24.008c0-33.631 27.183-60.847 60.83-60.847 33.598 0 60.847 27.216 60.847 60.847h25.529c0-3.935 0.529-7.937 0-11.839l23.082-16.799c-2.646-9.656-6.415-18.915-11.508-27.646l-28.175 4.266c-4.696-6.25-10.384-11.905-16.799-16.898l4.365-28.142c-4.299-2.546-8.532-4.795-13.427-6.713-4.563-1.984-9.457-3.422-14.285-4.778l-16.799 23.032c-8.069-1.124-16.006-1.124-23.876-0.066l-16.717-22.966c-9.655 2.662-18.981 6.333-27.711 11.392l4.364 28.108c-6.415 4.762-12.103 10.45-16.997 16.865l-28.042-4.398c-2.58 4.332-4.763 8.73-6.746 13.459-2.116 4.597-3.571 9.392-4.696 14.154l22.752 16.931c-0.462 4.068 1e-3 8.004 1e-3 12.038z" fill="#000000"></path>
	
		<path d="m94.525 268.93v70.04h-15.873v-32.937l-16.336 32.937h-11.176l-15.873-32.143v32.143h-15.94v-70.04h14.352l23.942 47.554 22.222-47.554h14.682z" fill="#000000"></path>
		<path d="m120.5 335.4c-5.82-3.208-10.516-7.573-13.955-13.095-3.488-5.557-5.208-11.674-5.208-18.354 0-6.646 1.72-12.732 5.208-18.254 3.439-5.557 8.135-9.921 13.955-13.162 5.82-3.207 12.17-4.828 19.048-4.828 6.813 0 13.161 1.621 18.981 4.795 5.82 3.175 10.516 7.54 13.955 13.096 3.506 5.522 5.225 11.641 5.225 18.354 0 6.68-1.719 12.797-5.225 18.354-3.439 5.521-8.135 9.887-13.955 13.095-5.82 3.175-12.169 4.762-18.981 4.762-6.878-2e-3 -13.228-1.589-19.048-4.763zm29.101-13.89c3.108-1.818 5.556-4.299 7.407-7.373 1.853-3.076 2.845-6.482 2.845-10.186 0-3.737-0.992-7.11-2.845-10.219-1.852-3.075-4.299-5.522-7.407-7.342-3.175-1.818-6.481-2.744-10.053-2.744-3.638 0-6.944 0.926-10.053 2.744-3.175 1.819-5.622 4.3-7.474 7.408s-2.778 6.481-2.778 10.152c0 3.703 0.927 7.109 2.778 10.186 1.852 3.074 4.299 5.555 7.474 7.373 3.108 1.819 6.415 2.746 10.053 2.746 3.571 1e-3 6.878-0.926 10.053-2.745z" fill="#000000"></path>
		<path d="m230.29 273.59c5.688 3.108 10.251 7.374 13.624 12.731 3.373 5.39 5.026 11.243 5.026 17.626 0 6.415-1.653 12.301-5.026 17.658-3.373 5.324-7.937 9.557-13.624 12.699-5.754 3.107-11.971 4.662-18.717 4.662h-27.117v-70.04h27.117c6.746 1e-3 12.963 1.555 18.717 4.664zm-9.061 47.354c3.108-1.653 5.489-3.968 7.274-6.911 1.72-2.943 2.58-6.316 2.58-10.086 0-3.803-0.86-7.143-2.58-10.119-1.785-2.943-4.166-5.258-7.274-6.912-3.043-1.652-6.548-2.479-10.45-2.479h-9.193v39.021h9.193c3.903-1e-3 7.408-0.827 10.45-2.514z" fill="#000000"></path>
		<path d="m272.88 323.46h32.97v15.51h-50.1v-70.04h49.306v15.51h-32.176v12.335h28.604v14.318h-28.604v12.367z" fill="#000000"></path>
	

</svg>