<?xml version='1.0' encoding='utf-8'?>
<!-- Generator: Adobe Illustrator 16.0.0, SVG Export Plug-In . SVG Version: 6.00 Build 0)  --><svg xmlns="http://www.w3.org/2000/svg" xmlns:cc="http://creativecommons.org/ns#" xmlns:dc="http://purl.org/dc/elements/1.1/" xmlns:ns="&amp;ns_sfw;" xmlns:rdf="http://www.w3.org/1999/02/22-rdf-syntax-ns#" width="894px" height="430px" version="1.2" viewBox="0 0 894 430" xml:space="preserve">
<metadata>
	<ns:sfw>
		<ns:slices></ns:slices>
		<ns:sliceSourceBounds x="5.101" y="156.561" width="832.795" height="286.396" bottomLeftOrigin="true"></ns:sliceSourceBounds>
	</ns:sfw>
<rdf:RDF><cc:Work rdf:about=""><dc:format>image/svg+xml</dc:format><dc:type rdf:resource="http://purl.org/dc/dcmitype/StillImage"></dc:type><dc:title></dc:title></cc:Work></rdf:RDF></metadata>
	<path d="m258.4 351.14h-48v-132.4l-49.2 132.4h-33.601l-48.001-129.2v129.2h-48v-281.6h43.2l72.302 191.2 66.899-191.2h44.399l2e-3 281.6z" fill="#000000"></path>
	<path d="m440.8 288.74v62.396h-151.2v-281.59h148.8v62.399h-97.2v49.599h86.4v57.6h-86.4v49.602l99.601-2e-3z" fill="#000000"></path>
	<path d="m648.4 69.544v281.6h-31.2l-100.8-150.4v150.4h-51.601v-281.6h30l102 152v-152h51.601z" fill="#000000"></path>
	<path d="m675.99 240.74v-171.2h51.603v172.8c0 32.8 17.7 51.199 43.2 51.199 24.301 0 42.001-18.399 42.001-51.199v-172.8h51.601v171.2c0 70.396-39.001 115.2-93.602 115.2-55.802 1e-3 -94.803-44.799-94.803-115.2z" fill="#000000"></path>
</svg>