<?xml version='1.0' encoding='utf-8'?>
<!-- Generator: Adobe Illustrator 16.0.0, SVG Export Plug-In . SVG Version: 6.00 Build 0)  --><svg xmlns="http://www.w3.org/2000/svg" xmlns:cc="http://creativecommons.org/ns#" xmlns:rdf="http://www.w3.org/1999/02/22-rdf-syntax-ns#" xmlns:ns0="&amp;ns_sfw;" xmlns:dc="http://purl.org/dc/elements/1.1/" width="324px" height="394px" enable-background="new 0 0 324 394" version="1.1" viewBox="0 0 324 394" xml:space="preserve">
<metadata>
	<rdf:RDF>
		<cc:Work rdf:about="">
			<dc:format>image/svg+xml</dc:format>
			<dc:type rdf:resource="http://purl.org/dc/dcmitype/StillImage"></dc:type>
			<dc:title></dc:title>
		</cc:Work>
	</rdf:RDF>
	<ns0:sfw>
		<ns0:slices></ns0:slices>
		<ns0:sliceSourceBounds x="289.67" y="136.317" width="249.771" height="333.023" bottomLeftOrigin="true"></ns0:sliceSourceBounds>
	</ns0:sfw>
</metadata>
<path d="m31.17 192.6c0-20.633 2.54-40.09 7.622-58.363 5.08-18.272 12.144-34.588 21.188-48.946 9.041-14.358 19.765-26.353 32.166-35.988 12.396-9.632 25.963-16.19 40.694-19.672 7.832 25.484 13.821 51.808 17.972 78.968 4.146 27.163 6.224 55.164 6.224 84.002 0 28.967-2.076 57.059-6.224 84.28-4.149 27.226-10.141 53.578-17.972 79.063-14.731-3.357-28.298-10.011-40.694-19.951-12.401-9.947-23.123-22.158-32.166-36.644-9.045-14.479-16.106-30.856-21.188-49.133-5.082-18.271-7.622-37.478-7.622-57.616zm91.321 135.75c5.126-21.877 9.274-43.911 12.446-66.102 3.168-22.189 4.754-45.404 4.754-69.646 0-24.24-1.586-47.642-4.754-70.203-3.17-22.563-7.32-44.348-12.446-65.356-10.817 4.601-20.769 11.281-29.858 20.045-9.09 8.764-16.898 19.02-23.425 30.767-6.526 11.748-11.631 24.801-15.313 39.158-3.686 14.357-5.523 29.555-5.523 45.59 0 15.539 1.839 30.521 5.523 44.938 3.683 14.422 8.787 27.568 15.313 39.438 6.524 11.873 14.335 22.257 23.425 31.142s19.042 15.63 29.858 20.229zm158.45-68.99v23.118h-46.43c-1.773 5.597-3.078 10.787-3.916 15.57-0.84 4.787-1.26 9.48-1.26 14.078 0 3.607 0.65 7.459 1.959 11.562 1.305 4.104 2.863 8.204 4.684 12.309 1.818 4.102 3.684 8.111 5.596 12.025 1.908 3.915 3.564 7.303 4.963 10.161h-19.02c-1.771-4.104-3.564-7.803-5.383-11.094-1.818-3.297-3.477-6.649-4.965-10.07-1.492-3.42-2.729-7.116-3.707-11.094-0.979-3.979-1.469-8.576-1.469-13.799 0-4.598 0.65-9.291 1.957-14.078 1.307-4.783 2.379-9.975 3.219-15.57h-41.396v-23.118h48.387c1.68-4.601 2.959-9.166 3.848-13.705 0.885-4.537 1.328-9.168 1.328-13.896 0-4.596-0.443-9.258-1.328-13.981-0.889-4.726-2.168-10.006-3.848-15.851h-48.387v-23.122h41.396c-0.84-4.598-1.912-9.137-3.219-13.611-1.307-4.476-1.957-9.072-1.957-13.799 0-4.598 0.65-9.259 1.957-13.984 1.307-4.723 2.379-10.006 3.219-15.85h-41.396v-22.935h48.387c1.68-4.723 2.959-9.632 3.848-14.731 0.885-5.096 1.328-9.445 1.328-13.052 0-6.835-1.377-13.859-4.125-21.07-2.75-7.208-7.156-15.413-13.217-24.613h19.021c2.143 3.481 4.17 6.745 6.082 9.79 1.91 3.047 3.543 6.278 4.895 9.696 1.354 3.42 2.447 7.243 3.287 11.468 0.838 4.228 1.26 9.137 1.26 14.73 0 4.726-0.652 9.355-1.957 13.892-1.309 4.539-2.379 9.169-3.219 13.892h39.578v22.936h-46.43c-0.936 2.86-1.703 5.5-2.311 7.924-0.605 2.425-1.143 4.787-1.605 7.086-0.469 2.302-0.793 4.632-0.98 6.992-0.188 2.362-0.277 4.974-0.277 7.832 0 9.322 1.723 18.459 5.174 27.41h46.43v23.12h-39.576c0.838 5.844 1.629 11.127 2.377 15.851 0.746 4.727 1.119 9.389 1.119 13.983 0 4.728-0.373 9.355-1.119 13.894-0.748 4.539-1.537 9.106-2.377 13.705h39.575v-1e-3z" fill="#FFCE63"></path>
</svg>