<?xml version='1.0' encoding='utf-8'?>
<!-- Generator: Adobe Illustrator 16.0.0, SVG Export Plug-In . SVG Version: 6.00 Build 0)  --><svg xmlns="http://www.w3.org/2000/svg" xmlns:cc="http://creativecommons.org/ns#" xmlns:ns="&amp;ns_sfw;" xmlns:rdf="http://www.w3.org/1999/02/22-rdf-syntax-ns#" xmlns:dc="http://purl.org/dc/elements/1.1/" width="455px" height="367px" enable-background="new 0 0 455 367" version="1.1" viewBox="0 0 455 367" xml:space="preserve">
<metadata>
	<ns:sfw>
		<ns:slices></ns:slices>
		<ns:sliceSourceBounds x="217.507" y="165.97" width="404.717" height="276.845" bottomLeftOrigin="true"></ns:sliceSourceBounds>
	</ns:sfw>
<rdf:RDF><cc:Work rdf:about=""><dc:format>image/svg+xml</dc:format><dc:type rdf:resource="http://purl.org/dc/dcmitype/StillImage"></dc:type><dc:title></dc:title></cc:Work></rdf:RDF></metadata>
	<path d="m126.56 285.32v29.713l-100-100.2h-2.051l102.05-102.05v59.631h61.886v85.246h-61.886v27.664zm-21.106-119.26-48.976 48.771 48.976 47.131v-25.615h59.426v-42.623h-59.426v-27.664zm134.22-127.87v134.22h-19.265v-115.16c-4.374 4.508-9.087 8.401-14.14 11.681-5.058 3.279-10.181 6.557-15.369 9.836l-2.459-21.517c1.639-0.41 3.925-1.399 6.865-2.972 2.936-1.568 5.975-3.381 9.117-5.43s6.182-4.063 9.119-6.045c2.938-1.979 5.227-3.516 6.865-4.611h19.267zm89.342 219.47h-61.681v-85.246h61.681v-59.631l100.21 102.05-100.21 100.2v-57.377zm21.311-91.598v27.664h-61.68v42.623h61.68v25.613l48.978-47.131-48.978-48.769z" fill="#51F093"></path>
</svg>