<?xml version='1.0' encoding='utf-8'?>
<!-- Generator: Adobe Illustrator 16.0.3, SVG Export Plug-In . SVG Version: 6.00 Build 0)  --><svg xmlns="http://www.w3.org/2000/svg" xmlns:cc="http://creativecommons.org/ns#" xmlns:dc="http://purl.org/dc/elements/1.1/" xmlns:rdf="http://www.w3.org/1999/02/22-rdf-syntax-ns#" width="316.42px" height="425.2px" enable-background="new 0 0 316.417 425.197" version="1.1" viewBox="0 0 316.42 425.2" xml:space="preserve"><metadata><rdf:RDF><cc:Work rdf:about=""><dc:format>image/svg+xml</dc:format><dc:type rdf:resource="http://purl.org/dc/dcmitype/StillImage"></dc:type><dc:title></dc:title></cc:Work></rdf:RDF></metadata>
<path d="m118.95 104.71 46.921-40.458c4.911-4.235 0.274-10.108-5.157-6.354l-67.737 46.813h-32.302v90.252c7.322-2.107 15.043-3.259 23.033-3.259 42.096 0 76.993 31.34 82.617 71.904h135.92v-158.9h-183.29zm118.42 130.4c-19.211 0-34.789-15.588-34.789-34.805 0-19.255 15.578-34.853 34.789-34.853 19.209 0 34.78 15.598 34.78 34.853 0 19.217-15.571 34.805-34.78 34.805zm48.086-94.131h-207.98v-7.806h207.98v7.806z" clip-rule="evenodd" fill-rule="evenodd" fill="#000000"></path>
<path d="m83.708 210.08c-22.478 0-42.313 11.467-53.999 28.848l-15.536-11.396 3.247 48.723 45.665-12.847-17.407-12.768c8.062-12.482 22.091-20.767 38.03-20.767 24.952 0 45.249 20.282 45.249 45.229 0 24.951-20.297 45.251-45.249 45.251-21.288 0-39.177-14.779-43.975-34.613l-19.24 4.647c6.895 28.522 32.614 49.77 63.215 49.77 35.865 0 65.047-29.177 65.047-65.055 0-35.855-29.182-65.022-65.047-65.022z" fill="#000000"></path>
<polygon points="88.445 292.93 72.227 292.93 72.227 240.12 90.011 240.12 90.011 262.67 96.933 254.05 110.5 265.48" fill="#000000"></polygon>
</svg>