<?xml version='1.0' encoding='utf-8'?>
<!-- Generator: Adobe Illustrator 16.0.3, SVG Export Plug-In . SVG Version: 6.00 Build 0)  --><svg xmlns="http://www.w3.org/2000/svg" xmlns:cc="http://creativecommons.org/ns#" xmlns:dc="http://purl.org/dc/elements/1.1/" xmlns:rdf="http://www.w3.org/1999/02/22-rdf-syntax-ns#" width="426.02px" height="425.2px" enable-background="new 0 0 426.016 425.197" version="1.1" viewBox="0 0 426.02 425.2" xml:space="preserve"><metadata><rdf:RDF><cc:Work rdf:about=""><dc:format>image/svg+xml</dc:format><dc:type rdf:resource="http://purl.org/dc/dcmitype/StillImage"></dc:type><dc:title></dc:title></cc:Work></rdf:RDF></metadata>

	<path d="m388.11 79.894c-30.563-30.323-79.477-30.882-110.76-1.835l-34.395 30.044-34.395-30.044c-31.198-29.047-80.116-28.489-110.76 1.835-31.363 31.082-31.523 81.794-0.48 113.15l145.56 147.11 145.71-147.11c31.198-31.36 30.96-82.072-0.481-113.15z" fill="#000000"></path>
	<path d="m51.043 319.45c0 10.255-8.297 18.474-18.434 18.474-10.211 0-18.434-8.219-18.434-18.474 0-10.174 8.223-18.434 18.434-18.434 10.138 1e-3 18.434 8.26 18.434 18.434z" fill="#000000"></path>
	<path d="m109.06 319.45c0 10.255-8.301 18.474-18.594 18.474-10.055 0-18.352-8.219-18.352-18.474 0-10.174 8.297-18.434 18.352-18.434 10.293 1e-3 18.594 8.26 18.594 18.434z" fill="#000000"></path>
	<path d="m166.99 319.45c0 10.255-8.301 18.474-18.512 18.474-10.137 0-18.434-8.219-18.434-18.474 0-10.174 8.297-18.434 18.434-18.434 10.211 1e-3 18.512 8.26 18.512 18.434z" fill="#000000"></path>

</svg>