<?xml version='1.0' encoding='utf-8'?>
<!-- Generator: Adobe Illustrator 16.0.0, SVG Export Plug-In . SVG Version: 6.00 Build 0)  --><svg xmlns="http://www.w3.org/2000/svg" xmlns:cc="http://creativecommons.org/ns#" xmlns:dc="http://purl.org/dc/elements/1.1/" xmlns:ns="&amp;ns_sfw;" xmlns:rdf="http://www.w3.org/1999/02/22-rdf-syntax-ns#" width="326px" height="510.24px" enable-background="new 0 0 326 510.236" version="1.1" viewBox="0 0 326 510.24" xml:space="preserve">
<metadata>
	<ns:sfw>
		<ns:slices></ns:slices>
		<ns:sliceSourceBounds x="282.322" y="112.554" width="277.391" height="384.066" bottomLeftOrigin="true"></ns:sliceSourceBounds>
	</ns:sfw>
<rdf:RDF><cc:Work rdf:about=""><dc:format>image/svg+xml</dc:format><dc:type rdf:resource="http://purl.org/dc/dcmitype/StillImage"></dc:type><dc:title></dc:title></cc:Work></rdf:RDF></metadata>
	<path d="m140.92 289.05 8.568 33.2 25.49 7.714 2.57-4.285c0.141-0.283 0.281-0.644 0.428-1.07 0.285-0.857 0.428-1.641 0.428-2.355 0-1.143-0.287-1.715-0.854-1.715l-6.855-31.485h-7.496c-0.43 0-0.823-0.07-1.178-0.215-0.358-0.142-0.537-0.644-0.537-1.5-0.145 0-0.145-0.142 0-0.429 0-0.285 0.285-0.713 0.856-1.285l16.065-38.344c0.143 0 0.355-0.141 0.645-0.428 0-0.144 0.068-0.285 0.215-0.43 1.141 0 1.713 0.286 1.713 0.856l17.137 38.342c0.285 0.287 0.428 0.535 0.428 0.75 0 0.216 0.07 0.396 0.217 0.535 0 0.287 0.068 0.428 0.215 0.428 0 0.572-0.146 1.003-0.432 1.285-0.143 0.289-0.285 0.431-0.428 0.431h-7.711l7.711 30.633c0.428 0.428 0.676 1.037 0.75 1.817 0.07 0.787 0.107 1.607 0.107 2.466 0 2.143-0.215 3.963-0.645 5.463-0.43 1.498-1.07 3.104-1.93 4.817h-0.855c6.854 1.285 14.172 2.322 21.955 3.105 7.781 0.787 16.389 1.178 25.814 1.178 1.713 0 3.139 0.572 4.283 1.715 1.143 1.146 1.715 2.57 1.715 4.283 0 0.572-0.146 1-0.43 1.285-0.145 0.287-0.287 0.428-0.43 0.428l-16.277 36.629c-1.857 4.146-4.572 7.465-8.143 9.961-3.57 2.5-7.641 3.75-12.209 3.75h-19.707l4.283 8.566c0 0.857 0.141 1.893 0.43 3.104 0.283 1.214 0.43 2.466 0.43 3.748 0 1.716-0.25 3.355-0.75 4.929-0.502 1.569-1.107 3-1.82 4.282l-11.139 18.853-17.139-9.426 9.426-16.064c0.43-0.428 0.678-1.145 0.75-2.143 0.07-1 0.107-1.713 0.107-2.144v-2.569l-4.285-11.14h-28.918l3.428 8.568c0.429 0.854 0.82 1.891 1.178 3.104 0.355 1.214 0.536 2.464 0.536 3.748 0 1.714-0.356 3.354-1.069 4.929-0.718 1.567-1.5 2.998-2.356 4.282l-10.282 18.853-17.993-9.426 10.282-16.064 0.857-3.428c0-0.857-0.037-1.537-0.107-2.035-0.074-0.502-0.32-0.965-0.75-1.393l-4.284-11.996h-28.916l3.428 9.426c0.428 0.854 0.676 1.891 0.75 3.104 0.069 1.211 0.106 2.464 0.106 3.748 0 1.713-0.106 3.354-0.319 4.929-0.216 1.567-0.682 2.998-1.395 4.282l-11.139 18.853-17.138-9.426 9.427-16.064c0.428-0.856 0.676-1.537 0.75-2.035 0.068-0.502 0.105-0.965 0.105-1.393v-3.428l-4.284-11.996h-20.563c-2.713 0-5.354-0.461-7.926-1.394-2.57-0.928-4.855-2.176-6.854-3.748-2.001-1.569-3.678-3.461-5.034-5.678-1.358-2.211-2.106-4.605-2.249-7.176l-6.854-40.058c0-2.998 0.568-5.854 1.713-8.565 1.142-2.711 2.678-5.105 4.605-7.176 1.928-2.068 4.246-3.783 6.961-5.144 2.711-1.354 5.709-2.176 8.996-2.463 3.713-0.285 7.104-0.463 10.176-0.535 3.067-0.07 5.891-0.106 8.461-0.106 2.569 0 4.817 0.036 6.746 0.106 1.928 0.072 3.963 0.32 6.104 0.748l-5.998-25.49h-7.711c-1.146 0-1.714-0.567-1.714-1.713 0-0.567 0.285-1.141 0.857-1.713l16.278-38.344 0.856-0.857c0.429 0 0.713 0.037 0.856 0.107 0.142 0.074 0.429 0.322 0.856 0.75l17.136 38.344v1.498c0 1.285-0.571 1.928-1.713 1.928h-5.998l5.998 25.49c5.997 0 11.278 0.215 15.853 0.646 4.566 0.428 9.209 1.069 13.922 1.928l-5.998-28.063h-9.424c-0.146 0-0.289-0.067-0.431-0.213-0.287-0.285-0.429-0.783-0.429-1.5 0.143 0 0.285-0.141 0.429-0.428 0.285-0.285 0.431-0.713 0.431-1.285l17.135-38.344 0.857-0.857c0.568 0 1.141 0.289 1.713 0.857l16.279 38.344c0.568 0.572 0.857 1.428 0.857 2.57 0 0.571-0.289 0.854-0.857 0.854h-7.712v9e-3h7e-3zm-34.059-147.8c-8.141 0-15.209-1.071-21.207-3.213s-10.998-4.997-14.994-8.568c-4-3.568-6.961-7.638-8.889-12.21-1.93-4.568-2.894-9.351-2.894-14.352 0-4.853 0.929-9.924 2.785-15.208 1.854-5.282 4.676-10.175 8.461-14.673 3.782-4.499 8.461-8.281 14.03-11.353 5.568-3.069 11.996-4.96 19.277-5.676 5.711 0 10.176 0.93 13.389 2.785 3.213 1.857 5.568 3.963 7.068 6.319s2.428 4.75 2.784 7.176c0.354 2.43 0.536 4.144 0.536 5.141 0 4.144-0.716 8.675-2.143 13.602-1.428 4.927-2.142 10.603-2.142 17.029 0 5.713 0.856 11.995 2.569 18.85 1.285 0 2.391 0.144 3.32 0.429 0.926 0.288 1.82 0.428 2.678 0.428 0-8.14 1.142-15.208 3.427-21.206 2.282-5.998 5.248-10.958 8.89-14.887 3.643-3.926 7.818-6.854 12.531-8.783 4.713-1.928 9.494-2.892 14.352-2.892 4.285 0 9.105 1.001 14.459 2.999 5.355 2.001 10.391 4.893 15.104 8.675 4.713 3.785 8.676 8.427 11.889 13.923 3.213 5.499 4.82 11.748 4.82 18.743 0 5.713-0.934 10.175-2.785 13.388-1.857 3.213-3.963 5.569-6.32 7.069-2.354 1.5-4.748 2.43-7.176 2.785-2.43 0.358-4.145 0.536-5.141 0.536-2.432 0-4.818-0.248-7.178-0.75-2.354-0.499-4.893-1.071-7.604-1.713-2.713-0.643-5.568-1.249-8.568-1.821-2.998-0.569-6.285-0.857-9.854-0.857-2.568 0-5.214 0.181-7.925 0.536-2.715 0.358-5.784 0.75-9.211 1.178v7.711c8.142 0 15.171 1.107 21.101 3.32 5.924 2.216 10.887 5.141 14.887 8.783 3.996 3.641 6.961 7.818 8.889 12.531 1.93 4.713 2.895 9.639 2.895 14.78 0 4.428-0.75 8.856-2.25 13.28-1.5 4.429-3.715 8.643-6.641 12.639-2.93 4-6.57 7.604-10.926 10.816s-9.391 5.75-15.102 7.604c-1.285 0.856-2.75 1.358-4.392 1.499-1.644 0.145-3.319 0.214-5.034 0.214-5.568 0-9.96-0.927-13.174-2.785-3.213-1.854-5.605-3.963-7.176-6.319-1.573-2.355-2.57-4.711-2.999-7.068-0.429-2.355-0.644-4.104-0.644-5.248 0-2.283 0.248-4.639 0.75-7.069 0.5-2.426 1.07-4.96 1.713-7.604 0.644-2.641 1.25-5.388 1.821-8.246 0.568-2.855 0.856-5.998 0.856-9.425 0-2.57-0.215-5.248-0.643-8.033-0.431-2.785-1.072-6.105-1.93-9.96h-6.854c0 8.14-1.071 15.175-3.213 21.099-2.144 5.927-5.035 10.891-8.676 14.888-3.642 4-7.818 6.961-12.531 8.89-4.711 1.928-9.64 2.892-14.779 2.892-4.428 0-9.284-0.927-14.566-2.785-5.283-1.854-10.174-4.676-14.673-8.461-4.498-3.781-8.283-8.424-11.353-13.923-3.072-5.496-4.605-11.889-4.605-19.171 0-5.569 0.855-9.96 2.57-13.174 1.713-3.213 3.712-5.603 5.998-7.176 2.283-1.57 4.568-2.57 6.854-2.999 2.283-0.429 3.928-0.643 4.928-0.643 2.282 0 4.639 0.288 7.068 0.857 2.428 0.572 4.928 1.178 7.497 1.821s5.248 1.215 8.032 1.714c2.785 0.502 5.818 0.75 9.105 0.75 5.141 0 11.139-0.857 17.991-2.57v-1.714c0-0.857 0.142-1.821 0.431-2.892 0.293-1.075 0.437-1.824 0.437-2.252zm-32.559 193c-3.427 0-7.176 0.037-11.245 0.107-4.07 0.074-8.818 0.322-14.244 0.75l-1.715 0.854c-1.146 0-1.714 0.289-1.714 0.857l5.998 36.629c0 0.857 0.285 1.359 0.856 1.5 0.57 0.146 1.072 0.213 1.5 0.213h11.996l-1.713-5.998c-0.43-1.141-0.824-2.28-1.18-3.426-0.357-1.143-0.533-2.283-0.533-3.428 0-1.855 0.176-3.644 0.533-5.355 0.355-1.713 1.034-3.283 2.035-4.713l9.426-17.99zm32.559-173.29c-3 0.857-6.104 1.5-9.318 1.928-3.213 0.429-6.104 0.643-8.675 0.643-3.427 0-6.533-0.248-9.318-0.75-2.784-0.499-5.354-1.071-7.711-1.713-2.354-0.643-4.679-1.249-6.961-1.821-2.286-0.569-4.571-0.857-6.854-0.857-2.857 0-5.106 0.93-6.748 2.785-1.645 1.857-2.463 4.07-2.463 6.64 0 0.857 0.035 1.75 0.106 2.678 0.069 0.93 0.321 2.035 0.75 3.32 2.854 9.425 7.032 16.316 12.531 20.67 5.495 4.357 11.245 6.533 17.243 6.533 3.568 0 7.033-0.75 10.39-2.249 3.354-1.5 6.282-3.712 8.782-6.64 2.498-2.925 4.498-6.426 5.998-10.496s2.25-8.675 2.25-13.816v-6.855h-2e-3zm4.927-33.203c-0.856-3.427-1.358-6.674-1.5-9.746-0.144-3.069-0.214-6.105-0.214-9.104 0-3.855 0.177-7.46 0.535-10.817 0.354-3.354 0.75-6.319 1.178-8.89 0.857-2.142 1.5-3.926 1.928-5.355 0.43-1.426 0.645-2.999 0.645-4.713 0-2.999-0.823-5.462-2.463-7.39-1.645-1.928-3.894-2.892-6.748-2.892-0.856 0-1.75 0.144-2.678 0.429-0.932 0.288-2.035 0.428-3.32 0.428-9.424 3.427-16.209 7.855-20.35 13.281-4.145 5.429-6.212 10.924-6.212 16.494 0 3.715 0.783 7.25 2.356 10.603 1.57 3.357 3.818 6.356 6.748 8.997 2.924 2.644 6.496 4.75 10.709 6.319 4.211 1.573 9.031 2.356 14.459 2.356h4.927zm3.427 248.26-2.568-6.854c-1.146-2.854-1.715-5.854-1.715-8.996 0-2.854 0.856-5.495 2.57-7.926l9.425-15.424h-1.714c-3.427-0.428-7.033-0.963-10.816-1.605-3.785-0.643-7.818-0.965-12.104-0.965h-1.714l-13.709 24.851c-0.429 0.428-0.681 1-0.75 1.713-0.073 0.717-0.106 1.215-0.106 1.5v2.567l4.283 10.283h28.917l1e-3 0.856zm10.282-235.62c-1.714 0-3.144 0.465-4.284 1.392-1.145 0.931-1.713 2.463-1.713 4.605 0 2.571 0.568 4.499 1.713 5.784 1.143 1.285 2.571 1.928 4.284 1.928 5.142 0 7.711-2.57 7.711-7.711 1e-3 -3.997-2.569-5.998-7.711-5.998zm17.137 201.56-10.28 17.14c-0.43 0.428-0.681 1-0.75 1.713-0.074 0.717-0.107 1.215-0.107 1.5v2.568l4.283 11.141h28.918l-2.355-6.855c-0.428-1.285-0.822-2.567-1.178-3.854-0.357-1.285-0.535-2.498-0.535-3.644 0-3.713 0.855-6.854 2.57-9.426l1.5-3.428c-2.858-0.428-6.393-1.355-10.604-2.783-4.216-1.427-8.035-2.785-11.462-4.072zm-1.714-175.86c0.857 3.427 1.355 6.64 1.5 9.639 0.143 2.999 0.214 5.784 0.214 8.354 0 3.287-0.214 6.356-0.644 9.211-0.428 2.858-0.93 5.536-1.498 8.032-0.573 2.5-1.071 4.965-1.5 7.391-0.43 2.43-0.643 4.855-0.643 7.283 0 0.856 0.068 1.787 0.213 2.785 0.142 1 0.568 1.963 1.287 2.892 0.713 0.931 1.746 1.714 3.104 2.356 1.354 0.643 3.245 0.963 5.676 0.963 0.429 0 1.211-0.069 2.356-0.213 1.142-0.142 2.354-0.644 3.642-1.5 8.854-3 15.315-7.246 19.388-12.746 4.066-5.496 6.104-11.172 6.104-17.028 0-3.568-0.787-7.069-2.355-10.496-1.572-3.427-3.855-6.459-6.854-9.104-2.999-2.641-6.641-4.746-10.926-6.319-4.283-1.57-9.209-2.356-14.779-2.356h-3.428l-0.857 0.856zm4.284-33.202c7.711-1.714 14.491-2.571 20.349-2.571 3.141 0 6.141 0.288 8.998 0.857 2.854 0.572 5.463 1.178 7.816 1.821 2.357 0.643 4.57 1.215 6.643 1.714 2.066 0.502 3.963 0.75 5.678 0.75 2.57 0 4.781-0.857 6.639-2.57 1.855-1.714 2.785-4.284 2.785-7.711 0-0.857-0.037-1.747-0.105-2.678-0.072-0.927-0.32-2.035-0.75-3.32-2.998-8.996-7.248-15.67-12.744-20.028-5.5-4.354-11.246-6.533-17.244-6.533-3.57 0-7.104 0.787-10.604 2.356-3.501 1.573-6.605 3.856-9.316 6.855-2.716 2.999-4.895 6.677-6.533 11.031-1.646 4.358-2.463 9.318-2.463 14.887v3.427c0 0.716 0.141 1.215 0.428 1.5 0.135 0.142 0.28 0.213 0.423 0.213zm38.345 221.06-2.57 5.144c-0.43 0.428-0.824 1-1.18 1.713-0.357 0.717-0.535 1.215-0.535 1.5l5.141 13.709h27.418c0.43 0 0.857-0.178 1.285-0.535 0.43-0.355 0.857-0.75 1.285-1.178l2.572-8.568c0.428-0.43 0.676-0.856 0.748-1.285 0.068-0.43 0.105-0.856 0.105-1.285 0-1.426-1.285-2.569-3.854-3.428-2.57-0.856-5.678-1.57-9.318-2.143-3.641-0.568-7.389-1.144-11.244-1.713-3.857-0.571-7.142-1.216-9.853-1.931zm58.904-184.43c0.143-3.996 1.033-7.782 2.68-11.353 1.639-3.568 3.816-6.674 6.531-9.318 2.711-2.641 5.816-4.712 9.316-6.212 3.498-1.5 7.316-2.249 11.461-2.249l11.781-0.857c2.281 0 4.531 0.502 6.746 1.5 2.213 1 4.141 2.323 5.785 3.963 1.639 1.643 2.961 3.571 3.963 5.783 0.996 2.216 1.498 4.465 1.498 6.748 0 10.282-0.822 21.635-2.463 34.059-1.645 12.424-3.965 25.564-6.963 39.415-3.428 15.851-7.428 30.666-11.994 44.447-4.572 13.781-9.355 25.383-14.354 34.81-1.43 2.567-3.465 4.643-6.104 6.211-2.646 1.571-5.465 2.354-8.463 2.354h-29.986c-4.146 0-7.713-1.498-10.711-4.498-3-2.998-4.498-6.563-4.498-10.709v-17.994c4.713-9.854 9.281-20.524 13.709-32.022 4.424-11.492 8.354-24.167 11.781-38.021 2.568-8.141 4.713-16.136 6.426-23.992 1.717-7.854 3.002-15.21 3.859-22.065zm-13.709 123.81c0 1.285 0.393 2.466 1.18 3.533 0.781 1.072 1.818 1.607 3.104 1.607h15.422c4.57-8.568 8.998-18.92 13.281-31.062 4.285-12.137 7.926-25.705 10.924-40.698l1.072-5.355c2.143-10.422 3.996-20.1 5.568-29.025 1.568-8.923 2.355-17.384 2.355-25.383 0-1.286-0.535-2.463-1.605-3.535-1.07-1.071-2.248-1.606-3.533-1.606h-8.355c-1.285 0-2.285 0.321-2.998 0.964-0.717 0.643-1.215 1.466-1.5 2.463-0.287 1.001-0.465 2.035-0.535 3.106-0.072 1.071-0.105 2.035-0.105 2.892-0.857 8.14-2.145 16.316-3.855 24.526-1.713 8.214-3.785 16.815-6.211 25.812-1.715 6.714-3.717 13.21-5.998 19.493-2.287 6.285-4.57 12.138-6.854 17.564-2.287 5.43-4.43 10.389-6.426 14.889-2.004 4.498-3.645 8.246-4.93 11.244v8.571h-1e-3zm17.992-212.49c0-2.999 0.998-5.462 2.998-7.39s4.713-2.892 8.141-2.892c5.281 0 10.176 0.856 14.676 2.57 4.496 1.714 8.354 4.358 11.564 7.926 3.213 3.571 5.746 8.106 7.604 13.602 1.854 5.499 2.785 11.962 2.785 19.386 0 2.142-0.895 4.25-2.68 6.319-1.787 2.072-3.748 3.106-5.891 3.106-3.428 0.429-6.82 0.894-10.174 1.393-3.357 0.502-6.395 0.964-9.105 1.392-2.715 0.429-4.963 0.787-6.748 1.071-1.787 0.288-2.75 0.428-2.891 0.428-3 0-5.463-0.927-7.393-2.785-1.928-1.854-2.891-4.07-2.891-6.64v-37.486h5e-3z" fill="#000000"></path>
</svg>