<?xml version='1.0' encoding='utf-8'?>
<!-- Generator: Adobe Illustrator 16.0.0, SVG Export Plug-In . SVG Version: 6.00 Build 0)  --><svg xmlns="http://www.w3.org/2000/svg" xmlns:cc="http://creativecommons.org/ns#" xmlns:dc="http://purl.org/dc/elements/1.1/" xmlns:ns0="&amp;ns_sfw;" xmlns:rdf="http://www.w3.org/1999/02/22-rdf-syntax-ns#" width="841.89px" height="284px" enable-background="new 0 0 841.891 284" version="1.1" viewBox="0 0 841.89 284" xml:space="preserve">
<metadata>
	<rdf:RDF>
		<cc:Work rdf:about="">
			<dc:format>image/svg+xml</dc:format>
			<dc:type rdf:resource="http://purl.org/dc/dcmitype/StillImage"></dc:type>
			<dc:title></dc:title>
		</cc:Work>
	</rdf:RDF>
	<ns0:sfw>
		<ns0:slices></ns0:slices>
		<ns0:sliceSourceBounds x="6.555" y="202.4" width="828.439" height="204.199" bottomLeftOrigin="true"></ns0:sliceSourceBounds>
	</ns0:sfw>
</metadata>
<path d="m7 169.78h37.657c0 17.951 7.571 23.561 25.033 23.561 19.564 0 25.245-5.328 25.245-16.828 0-10.098-7.784-14.586-22.722-17.95l-14.305-3.365c-29.453-7.013-49.648-22.722-49.648-60.586 0-37.024 18.724-61.708 61.43-61.708 47.335 0 60.378 30.013 60.378 66.195h-36.604c0-14.865-6.521-22.438-22.931-22.438-19.354 0-23.563 4.208-23.563 15.708 0 9.537 5.68 14.305 25.244 19.073l13.465 3.366c27.771 7.013 48.808 20.195 48.808 59.465 0 39.551-19.354 62.83-64.796 62.83-47.544-6e-3 -62.481-27.775-62.691-67.323z" fill="#000000"></path>
<path d="m266.6 102.46c0 35.903-19.984 65.075-51.332 65.075h-29.452v66.197h-36.186v-197.47h65.638c30.505 0 51.332 28.611 51.332 66.198zm-37.867 0c0-14.866-8.625-23.562-19.354-23.562h-23.563v48.246h23.563c11.359 1e-3 19.354-9.818 19.354-24.684z" fill="#000000"></path>
<path d="m388.62 189.98v43.758h-106.03v-197.47h104.35v43.757h-68.162v34.78h60.589v40.393h-60.589v34.781l69.846 2e-3h-4e-3z" fill="#000000"></path>
<path d="m511.47 189.98v43.758h-106.03v-197.47h104.34v43.757h-68.16v34.78h60.589v40.393h-60.589v34.781l69.845 2e-3h5e-3z" fill="#000000"></path>
<path d="m664.63 135c0 55.257-35.767 98.734-79.104 98.734h-57.223v-197.47h57.223c43.338 0 79.104 43.758 79.104 98.734v2e-3zm-37.868 0c0-32.538-17.883-54.977-42.917-54.977h-19.354v109.96h19.354c25.034 0 42.917-22.441 42.917-54.979v-5e-3z" fill="#000000"></path>
<path d="m835.44 154.08h-42.365v46.002h-38.231v-46.002h-43.4v-38.147h43.4v-46h38.231v46h42.365v38.147z" fill="#000000"></path>
</svg>