<?xml version='1.0' encoding='utf-8'?>
<!-- Generator: Adobe Illustrator 16.0.3, SVG Export Plug-In . SVG Version: 6.00 Build 0)  --><svg xmlns="http://www.w3.org/2000/svg" xmlns:cc="http://creativecommons.org/ns#" xmlns:dc="http://purl.org/dc/elements/1.1/" xmlns:rdf="http://www.w3.org/1999/02/22-rdf-syntax-ns#" width="422.63px" height="425.2px" version="1.2" viewBox="0 0 422.63 425.2" xml:space="preserve"><metadata><rdf:RDF><cc:Work rdf:about=""><dc:format>image/svg+xml</dc:format><dc:type rdf:resource="http://purl.org/dc/dcmitype/StillImage"></dc:type><dc:title></dc:title></cc:Work></rdf:RDF></metadata>
<path d="m33.062 185.52c0 13.659 3.841 26.417 10.494 37.263 0.819-6.55 4.435-7.899 10.464-7.899 16.734 0 22.809-10.974 22.809-18.351 0-2.169-0.385-3.791-0.694-5.094-0.212-0.892-0.395-1.663-0.395-2.373 0-3.172 0-3.833 6.515-8.268 2.587-1.762 4.133-4.11 4.472-6.793 0.347-2.752-0.646-5.685-2.726-8.047-3.513-3.993-7.871-8.901-9.689-10.864-0.757-0.818-1.414-3.603-1.07-7.784 0.761-9.12-1.336-16.698-6.225-22.557-20.372 12.566-33.955 35.076-33.955 60.767z" fill="#000000"></path>
	<path d="m266.73 56.693c-45.194 0-85.516 21.263-111.49 54.31-14.483-9.91-31.976-15.731-50.813-15.731-49.769 0-90.258 40.483-90.258 90.243 0 49.769 40.49 90.259 90.258 90.259 13.725 0 26.741-3.087 38.399-8.592 24.23 43.488 70.684 72.976 123.9 72.976 78.15 0 141.73-63.58 141.73-141.73 0-78.154-63.579-141.74-141.73-141.74zm-136.65 104.12c-1.414-0.584-3.098-0.343-4.289 0.77-1.625 1.519-1.713 4.067-0.194 5.693 0.812 0.869 1.567 1.763 2.296 2.667-1.887 9.205-2.901 18.724-2.901 28.479 0 8.166 0.706 16.168 2.039 23.96-0.464 0.542-0.939 1.08-1.434 1.609-1.519 1.625-1.431 4.174 0.194 5.692 0.777 0.726 1.764 1.085 2.749 1.085 0.063 0 0.124-0.016 0.186-0.019 2.082 8.883 4.991 17.452 8.659 25.609-10.021 4.688-21.184 7.324-32.959 7.324-43.105 0-78.174-35.069-78.174-78.175 0-43.097 35.068-78.159 78.174-78.159 16.21 0 31.266 4.981 43.761 13.467-7.99 12.167-14.146 25.633-18.107 39.998zm136.65 160.21c-67.603 0-122.6-54.996-122.6-122.6 0-67.602 54.998-122.6 122.6-122.6 67.6 0 122.6 54.999 122.6 122.6 0 67.6-54.997 122.6-122.6 122.6z" fill="#000000"></path>
	<path d="m113.66 171.45c-1.623-1.522-4.172-1.441-5.694 0.183-1.522 1.622-1.44 4.171 0.183 5.693 5.412 5.076 8.392 11.579 8.392 18.311s-2.981 13.235-8.393 18.311c-1.623 1.522-1.704 4.071-0.183 5.693 0.793 0.847 1.865 1.273 2.939 1.273 0.987 0 1.978-0.361 2.755-1.09 7.053-6.615 10.938-15.206 10.938-24.188 0-8.981-3.884-17.571-10.937-24.186z" fill="#000000"></path>
	<path d="m94.619 211.82c-1.127 0-2.248-0.47-3.044-1.388-1.458-1.68-1.278-4.224 0.402-5.682 2.768-2.402 4.292-5.637 4.292-9.111 0-3.473-1.524-6.708-4.293-9.107-1.681-1.457-1.863-4.001-0.405-5.682 1.456-1.681 4-1.864 5.682-0.405 4.494 3.896 7.072 9.434 7.072 15.195 0 5.759-2.576 11.299-7.068 15.196-0.762 0.66-1.703 0.984-2.638 0.984z" fill="#000000"></path>
<path d="m329.03 172.52c0.634 0.139 1.374 0.214 2.241 0.214 4.721 0 8.546-2.205 8.546-4.927 0-2.723-3.825-4.928-8.546-4.928-4.718 0-5.727 2.206-5.727 4.928 0 0.294 0.015 0.581 0.041 0.86l-0.139-0.155-20.531-29.445h-81.332l-20.54 29.445-0.126 0.141c0.026-0.275 0.041-0.557 0.041-0.846 0-2.723-1.008-4.928-5.727-4.928-4.72 0-8.546 2.206-8.546 4.928s3.826 4.927 8.546 4.927c0.861 0 1.597-0.075 2.228-0.212l-13.713 15.339v57.457h22.856v-14.604h111.29v14.604h22.859v-57.457l-13.719-15.341zm-104-29.236h78.458l16.562 25.229h-111.6l16.579-25.229zm-32.021 50.594v-7.405l25.043 2.474 1.443 11.133-26.486-6.202zm104.97 13.861h-67.447l-6.611-19.307 29.591 0.829 3.125 3.323h15.24l3.12-3.323 29.594-0.829-6.612 19.307zm37.528-13.861-26.494 6.202 1.455-11.133 25.039-2.474v7.405z" fill-rule="evenodd" fill="#000000"></path>
</svg>