<?xml version='1.0' encoding='utf-8'?>
<!-- Generator: Adobe Illustrator 16.0.0, SVG Export Plug-In . SVG Version: 6.00 Build 0)  --><svg xmlns="http://www.w3.org/2000/svg" xmlns:cc="http://creativecommons.org/ns#" xmlns:dc="http://purl.org/dc/elements/1.1/" xmlns:rdf="http://www.w3.org/1999/02/22-rdf-syntax-ns#" width="581px" height="425.2px" version="1.2" viewBox="0 0 581 425.2" xml:space="preserve"><metadata><rdf:RDF><cc:Work rdf:about=""><dc:format>image/svg+xml</dc:format><dc:type rdf:resource="http://purl.org/dc/dcmitype/StillImage"></dc:type><dc:title></dc:title></cc:Work></rdf:RDF></metadata>

	<path d="m361.31 118.1c0.417-2.267 0.621-4.636 0.621-7.107 0-2.882-0.244-5.696-0.724-8.444-0.479-2.745-1.066-5.148-1.75-7.209 11.534 1.927 22.795 4.604 33.777 8.033 10.985 3.436 21.763 7.76 32.34 12.978 6.18 3.022 12.595 6.42 19.254 10.194 6.66 3.777 12.391 7.655 17.202 11.635 0.272 0.144 0.753 0.553 1.441 1.237 0.686 0.69 1.402 1.442 2.161 2.271 0.753 0.82 1.511 1.539 2.265 2.16 0.753 0.615 1.271 0.924 1.545 0.924l16.889-0.41c4.254 0 8.41 0.308 12.464 0.929 4.048 0.616 7.856 2.024 11.432 4.219 4.944 2.611 9.438 6.386 13.491 11.329 4.048 4.943 7.583 10.332 10.605 16.17 3.016 5.839 5.593 11.809 7.726 17.915 2.126 6.113 3.81 11.712 5.046 16.792 0.958 3.841 1.75 7.925 2.365 12.251 0.622 4.322 0.93 8.684 0.93 13.08s-0.449 8.786-1.34 13.184c-0.895 4.396-2.439 8.34-4.636 11.842-2.194 3.501-5.114 6.352-8.751 8.547-3.646 2.195-8.206 3.296-13.696 3.296l-10.304-0.41c-1.784 0-3.397 0.205-4.834 0.615-1.443 0.411-2.51 1.237-3.193 2.469-2.885 4.813-6.181 9.34-9.887 13.601-3.706 4.252-7.794 7.998-12.259 11.22-4.459 3.228-9.339 5.771-14.619 7.624-5.291 1.853-10.884 2.781-16.785 2.781-8.239 0-16.137-1.682-23.69-5.051-7.55-3.359-14.208-8.269-19.979-14.723-0.821-0.964-1.751-2.298-2.776-4.021-1.031-1.715-2.099-3.426-3.192-5.147-1.102-1.716-2.235-3.222-3.398-4.532-1.169-1.3-2.372-2.087-3.603-2.365-3.165-0.549-6.797-0.822-10.919-0.822-8.377-0.272-17.888-0.416-28.526-0.416h-33.675l-113.28 0.416h-8.649c-2.064 0-3.604 0.035-4.636 0.104-1.032 0.068-1.682 0.171-1.956 0.309-0.278 0.138-0.553 0.273-0.826 0.41-0.273 0.279-0.616 0.484-1.026 0.615-3.296 5.086-7.042 9.756-11.228 14.01-4.189 4.26-8.752 7.932-13.695 11.016-4.943 3.091-10.131 5.531-15.555 7.315-5.423 1.784-11.016 2.675-16.785 2.675-7.822 0-15.31-1.607-22.447-4.842-7.145-3.222-13.525-7.994-19.158-14.312-0.41-0.41-1.129-1.442-2.161-3.091-1.032-1.647-2.161-3.433-3.398-5.354s-2.366-3.638-3.398-5.147c-1.032-1.512-1.682-2.271-1.956-2.271h-29.253c-4.396 0-8.034-0.89-10.914-2.674-2.885-1.785-5.148-4.122-6.796-7.002-1.647-2.886-2.816-6.181-3.5-9.888-0.69-3.711-1.032-7.549-1.032-11.533 0-4.944 0.342-9.784 1.032-14.522 0.684-4.737 1.368-8.819 2.059-12.253 0.41-2.338 0.752-4.704 1.026-7.109 0.274-2.4 0.65-4.732 1.135-7.002 0.479-2.265 1.134-4.459 1.956-6.592 0.827-2.126 1.99-4.22 3.501-6.277 3.569-4.807 8-8.654 13.285-11.534 5.285-2.886 11.021-4.669 17.202-5.359 14.961-3.016 29.894-5.457 44.792-7.31 14.899-1.854 29.832-3.81 44.798-5.873 4.123-0.543 7.624-2.127 10.509-4.732 2.88-2.611 5.766-5.359 8.649-8.238 3.569-3.569 7.31-7.002 11.227-10.298 3.912-3.299 7.857-6.522 11.844-9.685 5.354-4.117 10.913-8.099 16.683-11.945 5.765-3.843 11.7-7.313 17.813-10.4 6.111-3.091 12.43-5.665 18.951-7.726 6.519-2.059 13.145-3.43 19.877-4.12-0.553 1.648-0.896 3.295-1.031 4.943-0.139 1.648-0.205 3.367-0.205 5.152 0 2.882 0.171 5.733 0.513 8.547 0.343 2.816 0.514 5.528 0.514 8.136 0 2.058-0.685 3.087-2.059 3.087s-2.953 0.071-4.738 0.208c-7.412 1.924-14.591 4.704-21.518 8.342-6.939 3.638-13.497 7.519-19.671 11.634-6.318 4.26-12.19 8.896-17.613 13.907-5.423 5.013-10.953 9.92-16.581 14.722-3.433 3.022-6.318 5.668-8.649 7.932-2.338 2.27-4.533 4.156-6.592 5.668-2.058 1.511-4.189 2.674-6.386 3.501-2.195 0.819-4.943 1.305-8.239 1.442-7.001 0.684-13.9 1.373-20.696 2.058-6.796 0.69-13.771 1.442-20.908 2.265-7.549 0.826-15.172 1.682-22.858 2.576-7.691 0.896-15.315 2.161-22.864 3.811-4.943 1.1-8.582 2.646-10.919 4.635-2.332 1.99-4.048 5.184-5.149 9.574-0.273 0.688-0.582 1.927-0.923 3.711-0.348 1.785-0.724 3.844-1.135 6.176-0.411 2.337-0.758 4.771-1.032 7.314s-0.411 4.908-0.411 7.104c0 2.338 0.239 4.26 0.724 5.765 0.479 1.517 1.266 2.271 2.366 2.271h40.368c-0.274 0-0.411 0.205-0.411 0.615 0 0.963 0.411 2.61 1.237 4.942 0.821 2.338 1.75 4.738 2.776 7.213 1.032 2.47 2.064 4.772 3.091 6.899 1.032 2.126 1.75 3.398 2.167 3.809 3.569 3.985 7.652 6.899 12.253 8.752 4.602 1.854 9.436 2.782 14.521 2.782 3.843 0 7.652-0.581 11.432-1.75 3.775-1.169 7.275-2.885 10.503-5.147 3.222-2.271 6.038-5.047 8.444-8.343 2.4-3.296 4.151-7.139 5.251-11.534 0.411-1.647 0.685-2.953 0.827-3.918 0.131-0.957 0.479-2.469 1.026-4.526h236.24c0.82 1.922 1.545 3.534 2.16 4.842 0.615 1.306 1.236 2.542 1.854 3.705 0.621 1.17 1.237 2.401 1.854 3.706 0.621 1.306 1.271 2.92 1.955 4.841 2.476 7.281 6.694 12.636 12.669 16.067 5.977 3.433 12.459 5.148 19.468 5.148 5.764 0 10.945-0.998 15.548-2.986 4.601-1.99 8.513-4.738 11.739-8.239 3.228-3.501 5.696-7.624 7.418-12.355 1.711-4.737 2.571-9.854 2.571-15.35 0-0.958 0.513-1.607 1.545-1.956 1.032-0.342 2.298-0.514 3.81-0.514 1.783 0 3.397 0.068 4.841 0.205 1.442 0.139 2.954 0.309 4.532 0.514 1.573 0.205 3.297 0.383 5.148 0.52 1.853 0.137 4.014 0.205 6.488 0.205 2.742 0 5.012-0.308 6.796-0.93 1.785-0.615 2.681-2.436 2.681-5.456 0-2.332-0.313-4.978-0.93-7.933-0.615-2.946-0.997-4.972-1.134-6.07-0.548-3.57-1.308-7.076-2.265-10.51-0.964-3.425-2.133-6.794-3.502-10.091-2.059-4.806-4.396-10.091-7-15.854-2.612-5.771-5.702-10.64-9.271-14.625-1.1-1.237-2.469-2.058-4.116-2.474-1.646-0.412-3.369-0.617-5.148-0.617h-31.719c-1.236 0-2.063-0.067-2.475-0.204-0.41-0.138-0.964-0.685-1.647-1.648-1.512-1.921-3.228-3.5-5.147-4.737-1.928-1.237-3.781-2.812-5.56-4.738-12.909-9.471-25.954-17.299-39.138-23.479-13.183-6.179-27.597-10.708-43.253-13.594 0.825-1.795 1.44-3.826 1.851-6.088zm-108.54 53.444c8.648 8.792 18.502 15.521 29.559 20.19 11.05 4.67 22.824 7.002 35.32 7.002 12.082 0 23.55-2.195 34.398-6.592 10.845-4.396 20.595-10.845 29.245-19.363l22.043 23.479c-11.678 11.262-24.86 19.808-39.548 25.647-14.693 5.833-30.07 8.751-46.139 8.751-16.752 0-32.643-3.09-47.678-9.27-15.036-6.177-28.395-15.167-40.061-26.981l22.861-22.863zm35.636-35.629c3.979 3.849 8.442 6.796 13.387 8.854 4.943 2.063 10.224 3.09 15.855 3.09 5.354 0 10.47-0.992 15.345-2.988 4.875-1.984 9.236-4.768 13.08-8.338l22.453 23.271c-7.008 6.46-14.864 11.466-23.582 15.035-8.725 3.575-17.818 5.359-27.295 5.359-9.888 0-19.227-1.858-28.013-5.564s-16.819-9.06-24.096-16.062l22.866-22.657zm44.587-44.799c-4.191-4.048-9.3-6.075-15.345-6.075-6.181 0-11.396 2.027-15.649 6.075-4.26 4.054-6.386 9.166-6.386 15.346 0 3.159 0.581 6.076 1.75 8.752 1.163 2.68 2.741 4.98 4.737 6.902 1.989 1.924 4.321 3.467 7.001 4.632 2.681 1.169 5.525 1.751 8.548 1.751 3.021 0 5.833-0.582 8.443-1.751 2.605-1.166 4.875-2.708 6.797-4.632 1.922-1.921 3.468-4.222 4.637-6.902 1.163-2.677 1.75-5.593 1.75-8.752 0-6.18-2.093-11.293-6.283-15.346z" fill="#000000"></path>

</svg>