<?xml version='1.0' encoding='utf-8'?>
<!-- Generator: Adobe Illustrator 16.0.0, SVG Export Plug-In . SVG Version: 6.00 Build 0)  --><svg xmlns="http://www.w3.org/2000/svg" xmlns:cc="http://creativecommons.org/ns#" xmlns:dc="http://purl.org/dc/elements/1.1/" xmlns:ns="&amp;ns_sfw;" xmlns:rdf="http://www.w3.org/1999/02/22-rdf-syntax-ns#" width="469px" height="256px" enable-background="new 0 0 469 256" version="1.1" viewBox="0 0 469 256" xml:space="preserve">
<metadata>
	<ns:sfw>
		<ns:slices></ns:slices>
		<ns:sliceSourceBounds x="214.014" y="190.603" width="412.972" height="192.04" bottomLeftOrigin="true"></ns:sliceSourceBounds>
	</ns:sfw>
<rdf:RDF><cc:Work rdf:about=""><dc:format>image/svg+xml</dc:format><dc:type rdf:resource="http://purl.org/dc/dcmitype/StillImage"></dc:type><dc:title></dc:title></cc:Work></rdf:RDF></metadata>
	<path d="m28.018 171.21 0.306-1.379 0.767-1.529 1.068-0.766 2.905-1.229h66.051l5.047-6.123 1.835-2.904 1.985-6.279v-6.887l-1.834-6.279-3.669-5.969-5.199-3.828-3.059-1.379-3.363-1.223-3.059-0.613h-3.519l-3.361 0.459-3.06 0.918-3.211 1.379-2.903 1.99-2.295 2.143-18.042 24.189-1.068 0.764-1.528-0.305-3.823-2.908-0.151-1.072 0.307-0.92 5.504-7.961-1.683-2.447v-1.686l0.765-1.377 10.55-13.625 2.904-2.91 6.881-4.592 3.669-1.685 4.128-1.227 4.128-0.764h8.104l4.128 0.916 7.646 2.91 3.519 2.144 3.363 2.604 2.904 2.906 4.436 6.891 1.835 3.678 1.834 8.109v8.422l-0.766 3.826-1.376 3.828-1.683 3.98-1.987 3.52-7.646 9.799v23.425l-0.917 4.438-2.904 8.113-1.988 3.979-5.504 6.895-6.88 5.51-8.104 3.676-8.409 1.684-4.28 0.459-9.021-1.227-3.977-0.916-7.95-3.676-6.729-5.51-3.059-3.521-2.445-3.369-2.143-3.979-1.683-4.133-1.223-3.98-0.767-4.438-0.307-4.289v-24.65h6e-3zm33.484 49.004h11.313l0.917-0.305 0.766-0.768 0.306-1.223-1.834-21.1 1.988-1.529 1.527-1.834 0.917-2.295 0.458-2.293v-2.445l-0.458-2.295-0.917-2.293-1.527-1.834-1.988-1.529-2.293-1.068-2.293-0.611h-2.445l-2.293 0.611-2.293 1.068-1.987 1.529-1.527 1.834-0.917 2.293-0.458 2.295v2.445l0.458 2.293 0.917 2.295 1.527 1.834 1.987 1.529-1.834 21.1 0.152 1.223 0.609 0.768 1.222 0.305zm36.236-112.14v-65.22h39.447c11.211 0 19.44 2.854 24.691 8.563 5.249 5.709 7.874 13.813 7.874 24.311 0 8.562-1.684 15.545-5.045 20.946-3.364 5.404-8.464 9.073-15.29 11.009l25.532 43.573v2.602h-20.183l-24.922-44.876h-12.996v12.08c-2.958-3.461-5.81-6.137-8.563-8.02-2.751-1.883-6.264-3.54-10.545-4.968zm38.529-15.835c4.587 0 8.051-1.502 10.396-4.51 2.344-3.006 3.517-7.008 3.517-12.002 0-4.791-1.173-8.662-3.517-11.621-2.348-2.955-5.812-4.434-10.396-4.434h-19.417v32.566h19.417zm116.35-49.385v16.817h-43.882v29.509h39.296v16.818h-39.296v31.037h44.341v16.818h-63.452v-111h62.993v1e-3zm99.226 111h-20.484l-6.426-24.313h-37.459l-6.727 24.313h-20.336l34.402-111h22.32l34.71 111zm-46.019-93.266-7.033 29.968-6.268 22.627h26.906l-6.422-22.627-6.727-29.968h-0.456zm57.947 93.266v-111h39.445c11.211 0 19.441 2.854 24.691 8.562 5.25 5.709 7.875 13.813 7.875 24.31 0 8.563-1.686 15.545-5.045 20.947-3.363 5.404-8.463 9.073-15.291 11.008l25.535 43.575v2.602h-20.186l-24.92-44.8h-12.996v44.799h-19.108zm38.684-61.617c4.586 0 8.025-1.502 10.32-4.51 2.293-3.006 3.438-7.008 3.438-12.002 0-4.791-1.146-8.662-3.438-11.621-2.295-2.955-5.734-4.434-10.32-4.434h-19.572v32.566h19.572z" fill="#000000"></path>
</svg>