<?xml version='1.0' encoding='utf-8'?>
<!-- Generator: Adobe Illustrator 16.0.0, SVG Export Plug-In . SVG Version: 6.00 Build 0)  --><svg xmlns="http://www.w3.org/2000/svg" xmlns:cc="http://creativecommons.org/ns#" xmlns:dc="http://purl.org/dc/elements/1.1/" xmlns:rdf="http://www.w3.org/1999/02/22-rdf-syntax-ns#" width="493px" height="425.2px" enable-background="new 0 0 493 425.2" version="1.1" viewBox="0 0 493 425.2" xml:space="preserve"><metadata><rdf:RDF><cc:Work rdf:about=""><dc:format>image/svg+xml</dc:format><dc:type rdf:resource="http://purl.org/dc/dcmitype/StillImage"></dc:type><dc:title></dc:title></cc:Work></rdf:RDF></metadata>
<path d="m212.46 257.72 3.436 8.293c1.302 3.128 1.319 6.271 0.058 9.336-1.303 3.153-3.566 5.291-6.936 6.698l-0.183 0.068c-0.282 0.107-0.99 0.481-2.15 1.08-1.011 0.498-2.068 1.139-3.148 2.11-0.987 0.817-2.011 1.913-2.812 2.899-0.893 1.239-1.284 2.543-1.116 4.09l0.086 0.224 0.117 2.358c0.225 2.654 0.559 5.395 0.682 8.09 0.212 2.793 0.013 5.548-0.255 8.125l-0.162 0.072c-0.333 1.479 0.074 2.922 1.136 4.084 1.08 1.295 2.133 2.383 3.353 3.229 1.605 1.132 3.291 2.111 5.211 2.855 3.092 1.336 5.482 3.555 6.771 6.699 1.34 3.19 1.211 6.459 0.039 9.76l-3.627 8.392c-0.645 1.472-1.602 2.879-2.846 3.921-1.22 1.104-2.446 1.874-3.819 2.441-3.023 1.263-6.212 1.44-9.659 0.396-1.275-0.479-2.599-0.927-3.958-1.31-1.108-0.409-2.464-0.586-3.664-0.617-1.241-0.088-2.531 0.047-3.743 0.54-0.844 0.354-1.728 0.979-2.442 1.817-0.239 0.435-0.674 0.81-0.948 1.127-0.331 0.342-0.63 0.726-0.945 1.123-3.396 4.227-7.246 7.83-11.31 11.121-1.23 0.903-1.956 2.074-2.035 3.645-0.222 1.568-0.02 3.021 0.199 4.537 0.229 1.846 0.845 3.797 1.632 5.688 1.343 3.252 1.21 6.51-0.128 9.876-1.383 3.126-3.626 5.323-6.651 6.572l-8.508 3.521c-3.197 1.33-6.327 1.357-9.455 0.111-3.339-1.432-5.548-3.721-6.896-6.982-0.616-1.951-1.564-3.773-2.71-5.234-0.852-1.252-1.912-2.354-3.177-3.305-1.343-0.977-2.681-1.299-4.186-1.072l-0.18 0.074c-0.5 0.072-0.948 0.121-1.427 0.252-0.371 0.086-0.895 0.109-1.291 0.136-2.726 0.192-5.377 0.418-7.911 0.601-2.664 0.166-5.223 0.155-7.836-0.166l-0.342-0.188c-0.578-0.104-1.306 0.07-2.448 0.544-1.142 0.467-2.253 1.19-3.042 2.19-0.877 1.104-1.722 1.979-2.394 2.932-0.704 1.227-1.448 2.471-2.186 3.779-1.099 3.006-3.587 5.231-6.955 6.637-3.2 1.322-6.313 1.404-9.209 0.066l-8.524-3.293c-3.175-1.365-5.427-3.576-6.73-6.723-1.277-3.085-1.315-6.408-0.063-9.677 0.853-1.818 1.369-3.646 1.669-5.509 0.247-1.512 0.353-3.021 0.157-4.617-0.099-1.696-0.789-2.881-2.049-3.834l-0.231 0.102c-0.511-0.26-0.846-0.593-1.201-0.984-0.282-0.352-0.794-0.603-1.414-0.816-1.932-1.602-3.832-3.419-5.633-5.357-1.782-1.871-3.579-3.799-5.344-5.943-0.838-1.051-2.098-1.67-3.607-1.922-1.562-0.221-3.113-0.254-4.595 0.029-1.85 0.236-3.632 0.775-5.46 1.534-3.259 1.341-6.526 1.356-9.758 0.021-3.232-1.332-5.395-3.647-6.671-6.737l-3.457-8.334c-1.349-3.265-1.479-6.487-0.07-9.544 1.386-3.109 3.735-5.355 6.992-6.712 0.454-0.179 1.147-0.613 2.073-1.121 1.201-0.494 2.19-1.175 3.336-2.126 1.15-0.945 2.056-1.986 2.799-3.098 0.699-1.229 0.958-2.537 0.83-3.826l-0.095-0.225c0.09-0.57 0.078-1.102-0.028-1.522-0.16-0.541-0.132-0.954-0.076-1.31-0.261-2.574-0.351-5.211-0.381-7.877-0.061-2.715 0.072-5.313 0.375-7.982l-0.071-0.163c0.217-1.567-0.133-2.892-1.158-4.082-1.021-1.179-2.231-2.149-3.437-3.121-1.474-1.138-3.123-2.056-5.041-2.8-3.112-1.385-5.234-3.586-6.561-6.785-1.373-3.32-1.426-6.37-0.11-9.324l3.463-8.593c1.37-3.181 3.624-5.313 6.767-6.618 3.311-1.373 6.422-1.451 9.519-0.128 1.47 0.668 2.916 1.063 4.271 1.435 1.226 0.371 2.427 0.547 3.758 0.522 1.331-0.015 2.571-0.253 3.771-0.756 1.025-0.425 1.84-0.897 2.292-1.419l-0.121-0.28c0.339-0.476 0.7-0.892 1.027-1.231 0.353-0.274 0.604-0.653 0.995-1.146 1.654-2.157 3.475-4.047 5.249-5.914 1.867-1.773 3.821-3.518 5.891-5.305 1.117-0.863 1.927-2.137 2.12-3.618 0.078-1.565 0.049-3.101-0.331-4.815-0.286-1.82-0.783-3.686-1.635-5.742-1.256-3.026-1.225-6.185 0.169-9.44 1.248-3.124 3.52-5.405 6.717-6.727l8.563-3.548c3.085-1.278 6.184-1.22 9.279 0.105 3.119 1.387 5.375 3.596 6.625 6.623 0.854 2.058 1.817 3.731 2.959 5.198 0.851 1.256 1.913 2.355 2.998 3.377 1.232 1.027 2.768 1.33 4.373 1.004l0.317 0.131c0.523-0.02 1.417-0.122 2.715-0.389 2.726-0.193 5.325-0.396 7.968-0.492 2.609-0.141 5.154 8e-3 7.814 0.31l0.173-0.071c0.658 0.465 1.58 0.418 2.952-0.149 1.026-0.429 2.018-1.104 2.922-2.146 0.897-0.908 1.605-1.934 2.304-3.164 0.657-1.14 1.311-2.484 1.967-3.961 0.536-1.625 1.469-3.082 2.744-4.211 1.271-1.127 2.697-2.054 4.178-2.665 2.746-1.139 5.864-1.024 9.306 0.157l8.435 3.599c3.279 1.116 5.536 3.326 6.881 6.582 1.354 3.254 1.347 6.476-0.138 9.695-0.721 2.109-1.335 4.034-1.708 5.725-0.182 1.481-0.235 2.979-0.113 4.395 0.194 1.457 0.894 2.639 2.104 3.473l0.382 0.112c0.3 0.403 0.581 0.759 0.994 1.119 0.26 0.299 0.656 0.604 1.102 0.884 2.157 1.784 4.1 3.576 6.001 5.402 1.731 1.756 3.451 3.65 5.191 5.605l0.07 0.172c0.95 1.146 2.196 1.9 3.788 2.041 1.501 0.379 2.983 0.375 4.518 0.07 1.453-0.203 3.356-0.79 5.59-1.514 3.369-1.398 6.511-1.422 9.646-0.176 3.057 1.272 5.294 3.554 6.682 6.925zm-48.957 25.954c-2.455-5.924-6.07-11.12-10.715-15.654-3.489-3.609-7.502-6.637-11.849-8.896-4.311-2.318-8.747-3.953-13.437-4.944-4.703-0.995-9.501-1.233-14.368-0.804-4.856 0.483-9.741 1.738-14.447 3.697-5.668 2.346-10.966 5.883-15.659 10.41-4.792 4.754-8.414 10.188-10.789 16.227-2.333 6.145-3.474 12.311-3.533 18.545 0.019 6.283 1.159 12.463 3.621 18.533 2.487 6.143 6.04 11.492 10.737 16.125 3.467 3.549 7.339 6.533 11.732 8.771 4.206 2.355 8.641 3.986 13.314 5.061 4.7 0.986 9.4 1.268 14.243 0.791 4.909-0.511 9.614-1.631 14.225-3.543 2.961-1.22 5.837-2.775 8.358-4.643 2.537-1.811 5.074-3.919 7.407-6.057 4.683-4.586 8.318-9.846 10.838-15.822 2.542-6.063 3.762-12.327 3.679-18.922 0.139-6.759-0.967-13.105-3.357-18.875z" fill="#000000"></path>
<path d="m437.39 101.33c1.494 0.325 3.244 0.493 5.299 0.493 11.227 0 20.285-7.112 20.285-13.583 0-6.443-9.06-11.692-20.285-11.692-11.185 0-15.479 5.249-15.479 11.692 0 0.703 0.064 1.394 0.11 2.048l-0.326-0.367-48.353-64.999h-186.3l-48.373 64.999-0.299 0.349c0.063-0.668 0.091-1.335 0.091-2.03 0-6.443-4.277-11.692-15.474-11.692-11.208 0-20.283 5.249-20.283 11.692 0 6.472 9.075 13.583 20.283 13.583 2.045 0 3.794-0.166 5.286-0.489l-35.563 39.42v40.483c2.724-0.464 5.451-0.848 8.173-1.12 12.136-1.066 24.076-0.472 35.793 1.993 11.705 2.486 22.751 6.56 33.499 12.333 10.834 5.619 20.827 13.189 29.54 22.163 5.023 4.925 9.535 10.17 13.567 15.714h198.98v39.927h55.383v-131.49l-35.563-39.424h2e-3zm-239.72-65.27h175.67l39.349 58.758h-254.38l39.365-58.758h-5e-3zm-80.163 118.58v-16.075l58.325 4.755 3.419 24.931-61.744-13.611zm248.05 29.903h-160.11l-15.692-42.441 70.221 1.978 7.432 7.863h36.188l7.425-7.863 70.24-1.978-15.704 42.441h-3e-3zm87.932-29.903-61.733 13.611 3.422-24.931 58.313-4.755-2e-3 16.075z" fill="#000000"></path>
</svg>