<?xml version='1.0' encoding='utf-8'?>
<!-- Generator: Adobe Illustrator 16.0.0, SVG Export Plug-In . SVG Version: 6.00 Build 0)  --><svg xmlns="http://www.w3.org/2000/svg" xmlns:cc="http://creativecommons.org/ns#" xmlns:dc="http://purl.org/dc/elements/1.1/" xmlns:ns="&amp;ns_sfw;" xmlns:rdf="http://www.w3.org/1999/02/22-rdf-syntax-ns#" width="452px" height="547.14px" version="1.2" viewBox="0 0 452 547.14" xml:space="preserve">
<metadata>
	<ns:sfw>
		<ns:slices></ns:slices>
		<ns:sliceSourceBounds x="218.25" y="108.333" width="407.02" height="406.335" bottomLeftOrigin="true"></ns:sliceSourceBounds>
	</ns:sfw>
<rdf:RDF><cc:Work rdf:about=""><dc:format>image/svg+xml</dc:format><dc:type rdf:resource="http://purl.org/dc/dcmitype/StillImage"></dc:type><dc:title></dc:title></cc:Work></rdf:RDF></metadata>
	<path d="m23.75 259.8c0-18.635 2.422-36.623 7.272-53.974 4.847-17.346 11.665-33.556 20.453-48.633 8.785-15.074 19.392-28.784 31.814-41.134 12.421-12.347 26.136-22.953 41.134-31.816 14.999-8.863 31.136-15.717 48.406-20.567 17.271-4.847 35.227-7.272 53.86-7.272s36.625 2.425 53.975 7.272c17.347 4.851 33.596 11.704 48.746 20.567 15.147 8.863 28.938 19.469 41.36 31.816 12.422 12.35 23.067 26.06 31.93 41.134 8.863 15.077 15.758 31.287 20.683 48.633 4.922 17.351 7.386 35.339 7.386 53.974 0 18.637-2.464 36.59-7.386 53.86-4.925 17.271-11.817 33.406-20.683 48.406-8.86 14.998-19.508 28.672-31.93 41.02-12.424 12.354-26.213 22.953-41.36 31.816-15.15 8.863-31.399 15.715-48.746 20.566-17.351 4.848-35.34 7.271-53.975 7.271s-36.588-2.426-53.86-7.271c-17.271-4.852-33.407-11.703-48.405-20.566s-28.713-19.467-41.135-31.816c-12.424-12.348-23.029-26.02-31.814-41.02-8.789-15-15.606-31.135-20.453-48.406-4.85-17.269-7.272-35.222-7.272-53.86zm31.589 0c0 15.76 2.045 30.907 6.138 45.452 4.09 14.543 9.885 28.146 17.385 40.791 7.5 12.652 16.477 24.203 26.93 34.658 10.454 10.453 22.005 19.43 34.657 26.93 12.648 7.5 26.248 13.297 40.792 17.389 14.545 4.09 29.693 6.135 45.452 6.135 15.909 0 31.17-2.045 45.792-6.135 14.619-4.092 28.294-9.889 41.021-17.389s24.314-16.477 34.771-26.93c10.455-10.455 19.394-22.006 26.816-34.658 7.421-12.645 13.181-26.248 17.271-40.791 4.091-14.545 6.136-29.691 6.136-45.452 0-15.908-2.045-31.17-6.136-45.792-4.091-14.619-9.851-28.293-17.271-41.02-7.427-12.727-16.362-24.317-26.816-34.771s-22.044-19.392-34.771-26.816c-12.729-7.421-26.401-13.181-41.021-17.272-14.622-4.09-29.884-6.136-45.792-6.136-15.606 0-30.719 2.045-45.338 6.136-14.623 4.091-28.258 9.851-40.906 17.272-12.652 7.425-24.203 16.362-34.657 26.816s-19.43 22.044-26.93 34.771-13.294 26.401-17.385 41.02c-4.092 14.624-6.138 29.884-6.138 45.792zm102.49 0v-100.45l138.4 100.45-138.4 99.313v-99.313z" fill="#000000"></path>
</svg>