<?xml version='1.0' encoding='utf-8'?>
<!-- Generator: Adobe Illustrator 27.2.0, SVG Export Plug-In . SVG Version: 6.00 Build 0)  --><svg xmlns:cc="http://creativecommons.org/ns#" xmlns="http://www.w3.org/2000/svg" xmlns:rdf="http://www.w3.org/1999/02/22-rdf-syntax-ns#" xmlns:dc="http://purl.org/dc/elements/1.1/" xmlns:xlink="http://www.w3.org/1999/xlink" version="1.1" id="Vrstva_1" x="0px" y="0px" viewBox="0 0 471 425.2" style="enable-background:new 0 0 471 425.2;" xml:space="preserve" width="443.0856" height="400.0">
<path d="M13.7,198.3c0-30.6,5.5-59.5,16.6-86.6s26.8-50.9,47.3-71.4l30.8,30.6C91.3,86.4,78.1,105,68.6,127  c-9.5,21.9-14.1,45.7-14.1,71.3c0,25.7,4.7,49.2,14.1,70.6c9.5,21.4,22.6,40.3,39.7,56.8l-30.8,30.6C57,335.7,41.2,312,30.3,285.1  C19.2,258.1,13.7,229.2,13.7,198.3z M72.4,198.3c0-22.4,4.3-43.3,12.8-62.7c8.5-19.5,20.3-36.5,35.1-51.1  c14.8-14.6,32.2-26,51.9-34.3s40.8-12.4,63.1-12.4c22.4,0,43.3,4.1,62.8,12.4s36.5,19.7,51,34.3c14.5,14.6,25.9,31.6,34.2,51.1  c8.4,19.5,12.5,40.4,12.5,62.7c0,14.8-1.9,29.2-5.7,42.8c-3.9,13.7-9.2,26.5-16.1,38.4c-6.9,11.9-15.2,22.8-25,32.6  c-9.7,9.8-20.5,18.2-32.6,25.2c-11.9,7-24.7,12.4-38.4,16.2c-13.7,3.9-27.9,5.7-42.9,5.7c-14.8,0-29.2-1.9-43.1-5.7  c-13.9-3.9-26.8-9.2-39-16.2S130,321.8,120.2,312c-9.9-9.8-18.4-20.7-25.7-32.6c-7.2-11.9-12.8-24.6-16.7-38.4  C74.4,227.4,72.4,213.2,72.4,198.3L72.4,198.3z M97.7,198.3c0,18.3,3.6,35.8,10.9,52.3c7.2,16.5,17,30.8,29.5,43.1  s27.1,21.9,43.8,29.1s34.7,10.7,53.8,10.7c12.3,0,24.2-1.6,35.6-4.8c11.4-3.3,22.3-7.8,32.3-13.7c10-5.8,19.1-13,27.4-21.2  s15.4-17.4,21.4-27.3c6-9.9,10.5-20.7,13.7-32.3c3.2-11.6,4.7-23.5,4.7-35.7c0-18.3-3.5-35.8-10.6-52.3c-7-16.5-16.7-30.8-29.1-42.9  C318.6,91,304.2,81.2,287.9,74c-16.3-7.2-33.8-10.9-52.4-10.9c-12.7,0-25,1.6-36.8,4.9C187,71.3,176,76,165.8,81.8  c-10.2,6-19.5,13-27.8,21.2c-8.4,8.3-15.5,17.4-21.4,27.4c-6,10-10.5,20.8-13.9,32.2C99.3,174,97.7,185.9,97.7,198.3L97.7,198.3z   M181.9,292.7V104.1h61.4c9,0,17.5,0.8,25.4,2.6c7.9,1.6,14.9,4.7,21,8.9c6.1,4.2,10.9,9.7,14.5,16.6c3.6,6.8,5.4,15.4,5.4,25.6  c0,9.7-2,17.7-5.8,24.3c-3.9,6.5-9,11.8-15.2,16c-6.2,4.1-13.3,7.2-21.1,9.3c-7.9,2.1-16,3.4-24.3,4h-35.8v81.6L181.9,292.7  L181.9,292.7L181.9,292.7z M207.5,188.2h40.6c0.5,0,1.5,0,3.4-0.1c1.8-0.1,3.9-0.4,6.4-0.9c2.6-0.6,5.1-1.4,7.9-2.8  c2.8-1.3,5.4-3,7.7-5.3c2.3-2.2,4.3-5.1,5.7-8.6s2.2-7.8,2.2-12.8c0-5.3-0.7-9.6-2.2-13c-1.4-3.5-3.4-6.3-5.7-8.6s-4.9-4.1-7.7-5.3  s-5.4-2.1-7.9-2.7c-2.6-0.6-4.7-0.8-6.4-0.9s-2.9-0.1-3.4-0.1h-40.6V188.2L207.5,188.2z M391,40.3c10.3,10.3,19.5,21.4,27.5,33.4  c8.2,12,15.1,24.7,20.8,38c5.7,13.3,10.2,27.3,13.3,41.8c3.2,14.6,4.7,29.5,4.7,44.8s-1.5,30.2-4.7,44.8s-7.6,28.5-13.3,41.9  c-5.7,13.4-12.7,26.1-20.8,38.2c-8.2,12-17.3,23.1-27.5,33.1l-28-30.6c16.7-16.6,29.8-35.5,39.3-56.8c9.5-21.4,14.2-44.9,14.2-70.6  c0-25.6-4.8-49-14.2-70.4S379.7,87.5,363,70.9C362.9,70.9,391,40.3,391,40.3z" fill="#FFCE63"></path>
<rect x="-43.4" y="189.5" transform="matrix(0.7104 -0.7038 0.7038 0.7104 -73.1749 219.034)" width="545.8" height="17.9" fill="#FFCE63"></rect>
</svg>