<?xml version='1.0' encoding='utf-8'?>
<!-- Generator: Adobe Illustrator 16.0.0, SVG Export Plug-In . SVG Version: 6.00 Build 0)  --><svg xmlns="http://www.w3.org/2000/svg" xmlns:cc="http://creativecommons.org/ns#" xmlns:dc="http://purl.org/dc/elements/1.1/" xmlns:rdf="http://www.w3.org/1999/02/22-rdf-syntax-ns#" width="545px" height="425.2px" enable-background="new 0 0 545 425.2" version="1.1" viewBox="0 0 545 425.2" xml:space="preserve"><metadata><rdf:RDF><cc:Work rdf:about=""><dc:format>image/svg+xml</dc:format><dc:type rdf:resource="http://purl.org/dc/dcmitype/StillImage"></dc:type><dc:title></dc:title></cc:Work></rdf:RDF></metadata>
<g fill="#1D1D1B">
	<path d="m375.99 157.8h-360.59v-16.33h360.59c21.625 0 34.065-15.661 38.215-29.089 4.207-13.523 2.549-32.119-14.545-43.76-23.284-15.948-41.912-8.899-50.968-3.285-12.314 7.655-18.948 19.997-17.991 27.048l-16.203 2.233c-1.978-14.608 8.803-32.756 25.644-43.188 21.115-13.077 46.248-11.673 68.704 3.668 20.155 13.715 28.387 38.082 20.987 62.101-7.593 24.654-28.77 40.602-53.843 40.602z" fill="#000000"></path>
	<path d="m283.58 354.33c-9.439 0-18.115-2.554-25.58-7.527-12.566-8.422-20.094-23.156-20.094-39.549h16.331c0 10.904 4.785 20.666 12.822 26.021 9.122 5.999 21.625 6.254 35.402 0.577 8.295-3.444 12.759-16.333 10.146-29.28-1.149-5.742-6.635-24.305-29.473-24.305h-267.72v-16.332h267.72c28.07 0 41.912 19.33 45.483 37.445 4.209 21.051-4.146 41.018-19.903 47.523-8.672 3.637-17.16 5.424-25.131 5.424h-4e-3v3e-3z" fill="#000000"></path>
	<path d="m456.77 349.5c-18.627 0-36.172-7.08-48.734-15.884-22.838-16.077-34.193-39.425-29.025-59.515l15.817 4.082c-3.442 13.268 5.678 30.107 22.647 42.1 17.606 12.375 45.035 20.031 69.275 3.637 25.961-17.67 28.96-44.078 23.154-62.896-8.229-26.728-34.063-44.017-65.83-44.017h-428.67v-16.33h428.67c39.104 0 71.062 21.75 81.459 55.559 9.44 30.621-2.168 62.517-29.601 81.206-12.693 8.612-26.152 12.058-39.162 12.058z" fill="#000000"></path>
</g>
</svg>