<?xml version='1.0' encoding='utf-8'?>
<!-- Generator: Adobe Illustrator 16.0.0, SVG Export Plug-In . SVG Version: 6.00 Build 0)  --><svg xmlns="http://www.w3.org/2000/svg" xmlns:cc="http://creativecommons.org/ns#" xmlns:dc="http://purl.org/dc/elements/1.1/" xmlns:ns="&amp;ns_sfw;" xmlns:rdf="http://www.w3.org/1999/02/22-rdf-syntax-ns#" width="505px" height="428px" version="1.2" viewBox="0 0 505 428" xml:space="preserve">
<metadata>
	<ns:sfw>
		<ns:slices></ns:slices>
		<ns:sliceSourceBounds x="200.301" y="162.559" width="434.398" height="291.197" bottomLeftOrigin="true"></ns:sliceSourceBounds>
	</ns:sfw>
<rdf:RDF><cc:Work rdf:about=""><dc:format>image/svg+xml</dc:format><dc:type rdf:resource="http://purl.org/dc/dcmitype/StillImage"></dc:type><dc:title></dc:title></cc:Work></rdf:RDF></metadata>
	<path d="m32.301 203.34c0-81.999 52.801-145.6 115.2-145.6 62.401 0 115.2 63.199 115.2 145.6s-52.8 145.6-115.2 145.6c-62.4-2e-3 -115.2-63.2-115.2-145.6zm176.4 0c0-45.599-28.2-81.599-61.201-81.599-33 0-61.199 36.799-61.199 81.599 0 45.601 28.199 81.601 61.199 81.601 33.001-2e-3 61.201-36.002 61.201-81.601z" fill="#000000"></path>
	<path d="m466.7 62.544v281.6h-31.2l-100.8-150.4v150.4h-51.603v-281.6h30l102 152v-152h51.601z" fill="#000000"></path>
</svg>