<?xml version='1.0' encoding='utf-8'?>
<!-- Generator: Adobe Illustrator 16.0.0, SVG Export Plug-In . SVG Version: 6.00 Build 0)  --><svg xmlns="http://www.w3.org/2000/svg" xmlns:cc="http://creativecommons.org/ns#" xmlns:dc="http://purl.org/dc/elements/1.1/" xmlns:ns="&amp;ns_sfw;" xmlns:rdf="http://www.w3.org/1999/02/22-rdf-syntax-ns#" width="476px" height="473px" enable-background="new 0 0 476 473" version="1.1" viewBox="0 0 476 473" xml:space="preserve">
<metadata>
	<ns:sfw>
		<ns:slices></ns:slices>
		<ns:sliceSourceBounds x="217.88" y="108.499" width="407.24" height="379.973" bottomLeftOrigin="true"></ns:sliceSourceBounds>
	</ns:sfw>
<rdf:RDF><cc:Work rdf:about=""><dc:format>image/svg+xml</dc:format><dc:type rdf:resource="http://purl.org/dc/dcmitype/StillImage"></dc:type><dc:title></dc:title></cc:Work></rdf:RDF></metadata>
	<path d="m97.231 396.24c1.33 0.887 3.025 2.028 5.099 3.438 2.068 1.402 4.358 2.881 6.873 4.435 2.511 1.553 5.171 3.139 7.981 4.768 2.806 1.623 5.542 3.248 8.2 4.877 6.354 3.842 13.152 7.758 20.396 11.748h-52.982c-0.298-0.148-1.96-0.996-4.986-2.549-3.031-1.551-6.65-3.515-10.863-5.875-4.212-2.365-8.757-5.101-13.634-8.201-4.877-3.104-9.389-6.318-13.523-9.645-4.139-3.324-7.576-6.65-10.309-9.978-2.736-3.326-4.103-6.463-4.103-9.422 0-3.104 1.145-6.021 3.438-8.756 2.29-2.734 5.28-5.322 8.979-7.76 3.692-2.439 7.832-4.617 12.415-6.539 4.579-1.92 9.234-3.693 13.966-5.322 3.842-1.33 8.757-2.805 14.742-4.434 5.986-1.623 12.376-3.396 19.176-5.32 6.796-1.918 13.598-3.951 20.396-6.099 6.796-2.141 12.931-4.395 18.398-6.762 5.468-2.36 9.938-4.838 13.412-7.426 3.473-2.584 5.209-5.209 5.209-7.869 0-3.104-1.552-6.317-4.653-9.645-3.104-3.326-6.729-6.611-10.863-9.865-4.139-3.248-8.391-6.502-12.747-9.754-4.361-3.25-7.725-6.354-10.087-9.313h41.897c0.295 0 1.697 0.666 4.213 1.996 2.512 1.33 5.614 3.104 9.312 5.32 3.692 2.217 7.648 4.766 11.86 7.646 4.212 2.884 8.126 5.951 11.75 9.201 3.619 3.252 6.61 6.539 8.979 9.865 2.362 3.324 3.547 6.467 3.547 9.422 0 3.547-1.405 6.728-4.212 9.531-2.81 2.811-6.54 5.358-11.194 7.647-4.655 2.293-9.94 4.511-15.852 6.65-5.913 2.145-12.047 4.322-18.4 6.539-7.537 2.811-16 5.691-25.383 8.646-9.387 2.959-19.989 6.355-31.813 10.197-7.243 2.365-12.823 4.914-16.737 7.648-3.918 2.733-5.875 5.801-5.875 9.198-3e-3 3.858 2.657 7.772 7.978 11.762zm72.27-180.68v28.377c0 5.176-2.66 7.76-7.979 7.76h-33.697c-5.469 0-8.202-2.584-8.202-7.76v-46.111c-1.185-6.945-1.995-12.893-2.438-17.846-0.444-4.95-0.666-9.496-0.666-13.635 0-5.32 0.333-9.898 0.998-13.745 0.663-3.841 1.363-7.128 2.104-9.865 0.738-2.733 1.476-4.988 2.217-6.761 0.738-1.773 1.183-3.325 1.33-4.655h-17.513c-1.331 0-2.517-0.333-3.547-0.998-1.036-0.666-1.884-1.441-2.549-2.328s-1.187-1.773-1.554-2.66c-0.371-0.887-0.554-1.552-0.554-1.995l5.32-18.622c0-0.887 0.554-1.663 1.663-2.328 1.107-0.665 2.326-1.143 3.656-1.441 1.33-0.294 2.551-0.516 3.658-0.665 1.108-0.146 1.735-0.222 1.884-0.222h28.155c0.887-1.919 1.773-3.471 2.66-4.655 0.887-1.182 1.919-2.806 3.104-4.877 0.738-0.887 1.81-2.217 3.216-3.99 1.401-1.773 2.882-3.582 4.434-5.432 1.552-1.846 2.993-3.62 4.323-5.32 1.33-1.697 2.217-2.993 2.66-3.879 3.104-3.25 5.688-6.28 7.759-9.089 2.066-2.806 4.323-5.283 6.761-7.427 2.439-2.141 5.432-3.879 8.979-5.209s8.348-2.217 14.408-2.66c6.208-0.443 12.339-0.776 18.4-0.998 6.058-0.222 11.673-0.405 16.848-0.554 5.173-0.146 9.9-0.256 14.188-0.333 4.285-0.072 7.76-0.11 10.42-0.11h4.655c6.353 0 14.039 0.148 23.056 0.443 9.015 0.298 18.324 0.814 27.935 1.552 6.353 0.443 11.268 1.441 14.74 2.993 3.473 1.552 6.099 2.993 7.87 4.323 0.443 0.443 1.364 1.406 2.771 2.882 1.402 1.479 2.917 3.142 4.545 4.988 1.625 1.85 3.177 3.623 4.655 5.32 1.476 1.701 2.584 2.993 3.324 3.88l1.108 1.33c1.919 2.366 3.879 4.804 5.874 7.315 1.995 2.515 3.914 4.988 5.765 7.427 1.848 2.438 3.438 4.693 4.768 6.762 1.33 2.071 2.29 3.845 2.882 5.32h28.598c3.548 0 6.242 0.665 8.092 1.995 1.849 1.33 2.771 2.217 2.771 2.66l5.32 18.622c0 0.443-0.188 1.108-0.556 1.995-0.37 0.887-0.887 1.773-1.552 2.66s-1.518 1.663-2.55 2.328c-1.036 0.665-2.217 0.998-3.547 0.998h-17.511c0.146 1.33 0.556 2.882 1.221 4.655s1.4 3.99 2.217 6.651c0.811 2.66 1.514 5.913 2.104 9.754 0.591 3.845 0.889 8.5 0.889 13.967 0 4.139-0.148 8.756-0.443 13.855-0.298 5.099-1.257 10.974-2.882 17.624v46.11c0 5.176-2.736 7.76-8.202 7.76h-33.253c-5.176 0-7.76-2.584-7.76-7.76v-28.375l-177.35-1e-3zm-26.159-25.938h229.23v-26.824h-48.993v-25.494h41.014l-7.536-12.858h-197.97l-7.979 12.858h41.455v25.494h-49.216v26.824zm196.64-89.784c-2.958-6.651-7.062-11.86-12.304-15.629-5.248-3.769-11.233-6.575-17.957-8.424-6.729-1.846-14.004-3.027-21.836-3.547-7.836-0.516-15.816-0.776-23.942-0.776h-20.398c-7.243 0-14.264 0.298-21.061 0.887-6.799 0.592-13.156 1.85-19.065 3.769-5.913 1.922-11.193 4.766-15.851 8.535-4.655 3.769-8.462 8.833-11.417 15.186l163.83-1e-3zm-15.741 299.94c2.512 1.92 6.242 4.324 11.195 7.205 4.95 2.883 9.938 5.727 14.964 8.535 5.91 3.247 12.117 6.573 18.622 9.977h-56.31l-0.887-0.443c-1.479-0.739-3.807-1.961-6.981-3.655-3.182-1.701-6.764-3.734-10.754-6.099-3.988-2.367-8.13-4.987-12.412-7.871-4.289-2.881-8.169-5.875-11.641-8.979-3.475-3.104-6.354-6.244-8.646-9.422-2.293-3.176-3.438-6.24-3.438-9.199 0-2.66 0.813-5.209 2.438-7.648 1.624-2.438 3.69-4.653 6.207-6.649 2.512-1.994 5.394-3.73 8.646-5.209 3.249-1.478 6.575-2.732 9.979-3.771 4.877-1.182 11.379-3.063 19.508-5.651 8.127-2.584 16.738-5.468 25.827-8.646 9.089-3.176 18.065-6.352 26.936-9.531 8.867-3.178 16.404-5.875 22.612-8.092 3.396-1.182 5.836-2.549 7.313-4.102 1.478-1.554 2.219-3.287 2.219-5.209 0-2.808-1.479-5.91-4.436-9.313-2.958-3.396-6.467-6.834-10.53-10.309-4.064-3.474-8.239-6.906-12.523-10.31-4.288-3.397-7.759-6.502-10.42-9.313h40.348c-0.146 0.147 0.998 0.854 3.438 2.104 2.438 1.259 5.504 2.959 9.198 5.101 3.692 2.145 7.761 4.584 12.192 7.313 4.435 2.736 8.569 5.582 12.415 8.535 3.841 2.959 7.018 5.875 9.532 8.758 2.512 2.882 3.769 5.58 3.769 8.093 0 2.069-0.592 4.397-1.771 6.981-1.187 2.588-3.182 5.209-5.985 7.871-2.81 2.66-6.54 5.32-11.195 7.98-4.654 2.657-10.529 5.098-17.624 7.313-0.887 0.297-3.181 1.035-6.873 2.217-3.693 1.187-8.057 2.588-13.078 4.211-5.025 1.63-10.42 3.365-16.185 5.211-5.764 1.851-11.271 3.585-16.516 5.21-5.248 1.629-9.83 3.104-13.745 4.436-3.917 1.33-6.539 2.217-7.869 2.66-6.506 1.922-11.233 4.063-14.188 6.428-2.959 2.367-4.435 4.955-4.435 7.76 0 4.586 3.694 9.758 11.084 15.522z" fill="#000000"></path>
</svg>