<?xml version='1.0' encoding='utf-8'?>
<!-- Generator: Adobe Illustrator 16.0.0, SVG Export Plug-In . SVG Version: 6.00 Build 0)  --><svg xmlns="http://www.w3.org/2000/svg" xmlns:cc="http://creativecommons.org/ns#" xmlns:dc="http://purl.org/dc/elements/1.1/" xmlns:rdf="http://www.w3.org/1999/02/22-rdf-syntax-ns#" width="682.9px" height="425.2px" version="1.2" viewBox="0 0 682.9 425.2" xml:space="preserve"><metadata><rdf:RDF><cc:Work rdf:about=""><dc:format>image/svg+xml</dc:format><dc:type rdf:resource="http://purl.org/dc/dcmitype/StillImage"></dc:type><dc:title></dc:title></cc:Work></rdf:RDF></metadata>
<path d="m70.832 339.4h-56.658l40.662-89.743h49.661l-33.665 89.743zm2.106-129.71 27.979-61.76h41.728l-23.158 61.76h-46.549zm46.901-103.54 22.41-49.462h34.614l-18.554 49.462h-38.47z" fill="#000000"></path>
<path d="m612.62 339.4h56.659l-40.662-89.743h-49.661l33.664 89.743zm-2.105-129.71-27.979-61.76h-41.725l23.153 61.76h46.551zm-46.901-103.54-22.411-49.462h-34.611l18.557 49.462h38.465z" fill="#000000"></path>
<path d="m260.37 108.03-34.438 53.842h231.85l-34.438-53.842h-162.98 3e-3zm-34.114 184.79v32.988h-47.482v-122.62l35.937-41.309 42.654-62.84h168.98l42.651 62.84 35.938 41.309v122.62h-47.481v-32.988h-231.21 8e-3v-1e-3zm-32.407-78.617 55.022 13.244-2.998-23.17-52.023-5.288-1e-3 15.214zm125.67-9.266-61.473-1.75 13.741 40.592h140.13l13.743-40.592-61.474 1.75-6.497 7.119h-31.669l-6.494-7.119h-3e-3zm170.34-5.948-52.025 5.288-2.997 23.17 55.021-13.244 1e-3 -15.214z" fill="#000000"></path>
<path d="m203.57 142.64c10.663 0 12.934 4.982 12.934 11.13s-2.275 11.13-12.934 11.13c-10.66 0-19.3-4.982-19.3-11.13s8.643-11.13 19.3-11.13z" fill="#000000"></path>
<path d="m483.4 142.64c-10.662 0-12.932 4.982-12.932 11.13s2.274 11.13 12.932 11.13c10.663 0 19.3-4.982 19.3-11.13s-8.639-11.13-19.3-11.13z" fill="#000000"></path>
</svg>