<?xml version='1.0' encoding='utf-8'?>
<!-- Generator: Adobe Illustrator 16.0.3, SVG Export Plug-In . SVG Version: 6.00 Build 0)  --><svg xmlns="http://www.w3.org/2000/svg" xmlns:cc="http://creativecommons.org/ns#" xmlns:dc="http://purl.org/dc/elements/1.1/" xmlns:rdf="http://www.w3.org/1999/02/22-rdf-syntax-ns#" width="404.12px" height="425.2px" enable-background="new 0 0 404.116 425.197" version="1.1" viewBox="0 0 404.12 425.2" xml:space="preserve"><metadata><rdf:RDF><cc:Work rdf:about=""><dc:format>image/svg+xml</dc:format><dc:type rdf:resource="http://purl.org/dc/dcmitype/StillImage"></dc:type><dc:title></dc:title></cc:Work></rdf:RDF></metadata>

	<path d="m19.367 229.44c-1.146 0.256-1.813-0.191-2.005-1.336l-3.149-19.757c-0.19-1.145 0.286-1.844 1.432-2.098l31.496-6.49c0.509-0.127 1.081-0.223 1.718-0.286 0.636-0.063 1.208-0.096 1.719-0.096h21.855c1.146 0 1.719 0.572 1.719 1.718v137.34c0 1.145-0.573 1.717-1.719 1.717h-21.856c-1.146 0-1.719-0.572-1.719-1.717v-115.2l-29.491 6.203z" fill="#000000"></path>

<path d="m294.99 112.73-75.476-56.038v41.242h-120.2c-40.252 0-74.053 28.099-82.816 65.705h30.871c7.852-21.063 28.169-36.104 51.945-36.104h120.2v41.243l75.476-56.048z" fill="#000000"></path>
<path d="m304.92 267.92h-120.19v41.243l-75.475-56.04 75.475-56.044v41.242h120.19c30.561 0 55.416-24.848 55.416-55.394 0-30.552-24.855-55.389-55.416-55.389v-29.607c46.889 0 85.025 38.114 85.025 84.995 1e-3 46.867-38.136 84.994-85.025 84.994z" fill="#000000"></path>
</svg>