<?xml version='1.0' encoding='utf-8'?>
<!-- Generator: Adobe Illustrator 16.0.3, SVG Export Plug-In . SVG Version: 6.00 Build 0)  --><svg xmlns="http://www.w3.org/2000/svg" xmlns:cc="http://creativecommons.org/ns#" xmlns:dc="http://purl.org/dc/elements/1.1/" xmlns:rdf="http://www.w3.org/1999/02/22-rdf-syntax-ns#" width="452.26px" height="425.2px" version="1.2" viewBox="0 0 452.26 425.2" xml:space="preserve"><metadata><rdf:RDF><cc:Work rdf:about=""><dc:format>image/svg+xml</dc:format><dc:type rdf:resource="http://purl.org/dc/dcmitype/StillImage"></dc:type><dc:title></dc:title></cc:Work></rdf:RDF></metadata>
<path d="m296.35 56.693c-46.095 0-87.116 22.123-113.02 56.303-17.976-17.11-42.279-27.633-68.997-27.633-55.233 0-100.17 44.928-100.17 100.15 0 55.233 44.934 100.17 100.17 100.17 21.626 0 41.663-6.904 58.051-18.606 24.214 43.547 70.7 73.081 123.96 73.081 78.152 0 141.73-63.58 141.73-141.73 1e-3 -78.152-63.581-141.73-141.73-141.73zm-273.12 128.82c0-30.973 15.546-58.379 39.242-74.843 22.509 6.396 25.574 16.726 25.91 23.954 0.118 2.535 0.121 6.454 0.124 9.603 3e-3 3.343 8e-3 5.126 0.09 5.942 0.461 4.605 2.46 7.161 14.428 21.771 1.475 1.801 2.159 3.422 1.784 4.232-0.499 1.08-3.089 2.268-6.906 2.341-1.902 0.037-3.433 1.576-3.457 3.478-0.034 2.628 0.288 4.3 0.928 6.309-1.059 0.868-2.583 2.047-3.909 3.03-0.755 0.561-1.256 1.4-1.389 2.332s0.111 1.877 0.679 2.627l2.19 2.892-1.583 1.207c-0.788 0.601-1.286 1.505-1.374 2.492s0.245 1.965 0.915 2.694c0.984 1.073 1.035 3.185 0.125 5.255-1.319 3-4.819 6.207-10.689 6.207h-15.877c-1.409 0-2.682 0.839-3.238 2.133l-12.618 29.364c-15.707-16.377-25.375-38.589-25.375-63.02zm91.104 91.105c-23.103 0-44.22-8.647-60.296-22.871l12.745-29.661h13.553c9.263 0 14.929-5.384 17.143-10.421 1.453-3.305 1.632-6.705 0.609-9.543l1.922-1.466c1.544-1.178 1.845-3.383 0.672-4.931l-2.172-2.868c3.752-2.881 5.08-4.413 4.23-6.799-0.436-1.223-0.736-2.083-0.932-2.857 4.565-0.817 7.964-2.973 9.397-6.074 1.121-2.427 1.557-6.419-2.731-11.654-11.074-13.519-12.637-15.707-12.866-18.005-0.051-0.532-0.053-3.146-0.055-5.247-2e-3 -3.221-6e-3 -7.229-0.131-9.924-0.614-13.209-8.854-22.573-25.119-28.503 13.061-7.239 28.071-11.369 44.031-11.369 24.773 0 47.268 9.941 63.705 26.043-14.797 22.38-23.428 49.178-23.428 77.958 0 21.627 4.877 42.134 13.578 60.492-15.097 11.11-33.716 17.7-53.855 17.7zm182.01 44.404c-67.604 0-122.6-54.996-122.6-122.6 0-67.602 55-122.6 122.6-122.6s122.6 54.999 122.6 122.6c0 67.6-54.998 122.6-122.6 122.6z" fill="#000000"></path>
	<path d="m125.33 213.3-6.079-3.569c1.699-2.893 2.713-6.573 2.713-9.845 0-3.271-1.015-6.953-2.713-9.846l6.079-3.569c2.341 3.987 3.684 8.877 3.684 13.415s-1.344 9.428-3.684 13.414z" fill="#000000"></path>
	<path d="m141.23 222.44-6.088-3.555c3.277-5.614 5.234-12.717 5.234-19 0-6.284-1.957-13.388-5.233-19.001l6.087-3.554c3.879 6.645 6.195 15.077 6.195 22.555s-2.316 15.909-6.195 22.555z" fill="#000000"></path>
	<path d="m333.89 205.17h16.641c1.829 0 3.316-1.487 3.316-3.319v-6.154c0-1.834-1.487-3.317-3.316-3.317h-16.641c-1.834 0-3.319 1.482-3.319 3.317v6.154c0 1.832 1.485 3.319 3.319 3.319z" fill="#000000"></path>
	<path d="m383.13 171.18h-12.798c-7.991-10.832-18.068-22.815-25.785-30.648-4.525-4.593-12.301-6.686-17.61-6.686h-61.042c-5.31 0-13.084 2.092-17.607 6.686-7.715 7.833-17.792 19.815-25.78 30.648h-12.795c-2.648 0-4.797 2.149-4.797 4.792v4.808c0 2.65 2.148 4.796 4.797 4.796h5.954c-0.104 0.767-0.163 1.543-0.163 2.328v31.091l-6e-3 -5e-3v36.318c0 1.833 1.486 3.32 3.315 3.32h16.574c1.834 0 3.318-1.487 3.318-3.32v-15.369h115.43v15.369c0 1.833 1.484 3.32 3.318 3.32h16.577c1.829 0 3.316-1.487 3.316-3.32v-36.318l-7e-3 6e-3v-31.092c0-0.785-0.059-1.561-0.163-2.328h5.956c2.648 0 4.797-2.146 4.797-4.796v-4.808c0-2.643-2.148-4.792-4.797-4.792zm-126.95-22.875c1.962-1.993 6.696-3.381 9.716-3.381h61.042c3.021 0 7.756 1.389 9.72 3.382 7.361 7.473 17.436 19.475 25.068 29.864 1.121 1.527 4.534 6.174 4.534 9.734v34.978c0 1.879-3.117 5.98-6.21 5.98h-127.26c-3.092 0-6.208-4.102-6.208-5.98v-34.978c0-3.562 3.412-8.208 4.534-9.734 7.631-10.391 17.703-22.393 25.064-29.865z" fill="#000000"></path>
	<path d="m242.3 205.17h16.638c1.835 0 3.318-1.487 3.318-3.319v-6.154c0-1.834-1.483-3.317-3.318-3.317h-16.638c-1.828 0-3.315 1.482-3.315 3.317v6.154c0 1.832 1.487 3.319 3.315 3.319z" fill="#000000"></path>
	<path d="m333.16 175.82h-73.49c-1.834 0-3.319-1.487-3.319-3.319v-9.51c0-1.834 1.485-3.317 3.319-3.317h73.49c1.829 0 3.315 1.482 3.315 3.317v9.51c0 1.831-1.486 3.319-3.315 3.319z" fill="#000000"></path>
</svg>