<?xml version='1.0' encoding='utf-8'?>
<!-- Generator: Adobe Illustrator 16.0.0, SVG Export Plug-In . SVG Version: 6.00 Build 0)  --><svg xmlns="http://www.w3.org/2000/svg" xmlns:cc="http://creativecommons.org/ns#" xmlns:dc="http://purl.org/dc/elements/1.1/" xmlns:rdf="http://www.w3.org/1999/02/22-rdf-syntax-ns#" width="443px" height="426px" version="1.2" viewBox="0 0 443 426" xml:space="preserve"><metadata><rdf:RDF><cc:Work rdf:about=""><dc:format>image/svg+xml</dc:format><dc:type rdf:resource="http://purl.org/dc/dcmitype/StillImage"></dc:type><dc:title></dc:title></cc:Work></rdf:RDF></metadata>
<path d="m319.38 145.66c1.741-5.467 7.312-7.575 11.749-7.22 1.663 0.133 3.139 0.601 4.271 1.354 2.074 1.381 5.345 5.909 10.656 13.783 1.915 2.842 3.569 5.295 4.807 6.871 0.721 0.919 1.387 2.01 2.093 3.165 2.365 3.869 5.046 8.254 11.365 9.064 5.487 0.695 6.32-0.745 8.525-4.282l0.094-0.151c4.292-6.888 1.571-14.383-0.615-20.407-0.709-1.953-1.379-3.796-1.695-5.35-0.165-0.817-1.089-4.112-6.068-17.059l-1.854-4.817 5.103 0.773c6.021 0.912 10.384 2.153 12.971 3.692 2.291 1.363 4.456 2.73 6.589 4.075 4.278 2.7 8.317 5.25 13.035 7.56 4.159 2.032 5.278 4.231 6.222 6.689 0.532 1.381 0.956 2.328 1.982 2.893 4.767 2.625 7.839 5.555 8.429 12.041 0.448 5.076 1.198 21.982 1.146 27.319-0.158 14.212-0.932 24.175-1.496 31.454-0.857 11.048-1.286 16.594 1.051 23.494 0.48 1.414 1.744 3.695 3.209 6.341 4.819 8.701 6.423 12.627 6.129 15l-0.062 0.494-0.218 0.449c-9.357 19.234-23.165 40.173-28.97 43.93l-2.316 1.501-1.687-2.187c-2.79-3.609-7.542-14.813-12.58-26.966-4.069-9.813-7.913-19.084-10.876-24.074-6.545-11.031-23.544-37.979-25.461-41.016l-0.262-0.52c-1.589-4.114-9.656-25.001-12.273-32.274-2.154-6.001-4.754-12.282-7.048-17.824-3.503-8.463-5.817-14.189-6.068-16.57l-0.066-0.626 0.189-0.599z" fill="#000000"></path>
<path d="m123.15 145.66c-1.741-5.467-7.311-7.575-11.749-7.22-1.663 0.133-3.139 0.601-4.271 1.354-2.074 1.381-5.344 5.909-10.656 13.783-1.915 2.842-3.569 5.295-4.806 6.871-0.721 0.919-1.387 2.01-2.093 3.165-2.365 3.869-5.045 8.254-11.365 9.064-5.487 0.695-6.32-0.745-8.525-4.282l-0.094-0.151c-4.292-6.888-1.571-14.383 0.615-20.407 0.709-1.953 1.379-3.796 1.695-5.35 0.165-0.817 1.089-4.112 6.068-17.059l1.854-4.817-5.102 0.773c-6.021 0.912-10.383 2.153-12.97 3.692-2.291 1.363-4.456 2.73-6.588 4.075-4.278 2.7-8.317 5.25-13.035 7.56-4.159 2.032-5.278 4.231-6.221 6.689-0.532 1.381-0.956 2.328-1.982 2.893-4.767 2.625-7.838 5.555-8.428 12.041-0.448 5.076-1.198 21.982-1.146 27.319 0.158 14.212 0.932 24.175 1.496 31.454 0.857 11.048 1.286 16.594-1.051 23.494-0.48 1.414-1.744 3.695-3.209 6.341-4.819 8.701-6.422 12.627-6.128 15l0.062 0.494 0.218 0.449c9.357 19.234 23.164 40.173 28.968 43.93l2.316 1.501 1.687-2.187c2.79-3.609 7.542-14.813 12.58-26.966 4.069-9.813 7.913-19.084 10.875-24.074 6.544-11.031 23.543-37.979 25.459-41.016l0.262-0.52c1.589-4.114 9.656-25.001 12.273-32.274 2.154-6.001 4.754-12.282 7.047-17.824 3.503-8.463 5.817-14.189 6.068-16.57l0.066-0.626-0.19-0.599z" fill="#000000"></path>

	<path d="m351.4 235.07c-3.838 10.918-14.018 29.521-15.935 30.697-2.166 1.328-4.853 1.987-8.063 1.987l-26.602-24.297c3.486-6.703 6.248-13.752 8.273-21.15 2.022-7.4 3.037-14.941 3.037-22.621v-8.799h17.789c-1.275-3.38-2.243-5.982-2.855-7.685-2.11-5.877-4.682-12.09-6.951-17.572-2.192-5.296-3.754-9.135-4.8-12.038h-188.05c-1.046 2.902-2.607 6.74-4.799 12.034-2.278 5.504-4.845 11.708-6.95 17.571-0.614 1.705-1.581 4.306-2.854 7.68h19.126v8.795c0 7.68 1.012 15.149 3.037 22.41 2.022 7.264 4.641 13.688 7.854 19.271l-26.181 26.391c-3.351 0-6.11-0.658-8.273-1.986-1.983-1.215-12.918-21.013-16.409-31.74-5.38 8.608-11.43 18.363-14.754 23.966-0.289 0.485-0.59 1.03-0.9 1.608 2.766 6.408 5.942 12.588 9.545 18.531 6.979 11.52 15.321 22.027 25.028 31.523 9.704 9.496 20.389 17.666 32.049 24.506 11.658 6.84 24.193 12.111 37.598 15.814 13.408 3.697 27.229 5.551 41.473 5.551 14.662 0 28.695-1.854 42.104-5.553 13.404-3.701 25.897-8.969 37.491-15.813 11.589-6.84 22.063-15.01 31.419-24.506 9.354-9.496 17.386-20.002 24.088-31.523 3.52-6.05 6.604-12.347 9.276-18.877-0.243-0.446-0.482-0.874-0.712-1.261-3.174-5.348-8.891-14.574-14.1-22.914zm-172.19-38.843c2.307-5.935 5.516-11.102 9.635-15.5 4.118-4.4 9.01-7.889 14.662-10.473 5.656-2.582 11.766-3.875 18.328-3.875 6.702 0 12.845 1.293 18.434 3.875 5.584 2.584 10.438 6.074 14.559 10.473 4.117 4.398 7.33 9.566 9.636 15.5s3.455 12.183 3.455 18.746c0 6.567-1.149 12.778-3.455 18.643s-5.519 10.996-9.636 15.396c-4.121 4.399-8.975 7.892-14.559 10.474-5.586 2.584-11.73 3.875-18.434 3.875-6.563 0-12.672-1.291-18.328-3.875-5.654-2.582-10.545-6.077-14.662-10.474-4.117-4.399-7.328-9.53-9.635-15.396-2.305-5.868-3.456-12.08-3.456-18.643 0-6.56 1.151-12.808 3.456-18.746zm121.59 113.2c-12.149 7.682-24.752 13.616-37.81 17.805-13.055 4.188-26.777 6.283-41.157 6.283-14.384 0-28.418-2.095-42.101-6.283-13.688-4.19-26.045-10.123-37.074-17.805 0 0-1.258-6.632-1.258-8.589 0-1.676 0.42-3.245 1.258-4.713 0.838-1.463 26.392-23.981 26.392-23.981 7.679 4.472 15.884 8.485 24.614 12.045 8.727 3.562 18.117 5.34 28.172 5.34s19.407-1.778 28.066-5.34c8.656-3.562 16.826-7.573 24.506-12.045 0 0 24.82 22.867 25.869 24.61 1.047 1.748 1.569 3.599 1.569 5.552 1e-3 1.395-1.046 7.121-1.046 7.121z" fill="#000000"></path>
	<path d="m77.455 143.63c-0.398 1.956-1.135 3.985-1.915 6.134-2.328 6.413-3.768 11.268-1.138 15.489l0.164 0.265c0.363 0.583 0.795 1.276 1.082 1.663 0.063 3e-3 0.136 4e-3 0.222 4e-3 0.424 0 0.971-0.042 1.625-0.125 3.445-0.441 4.924-2.607 7.24-6.396 0.769-1.257 1.549-2.534 2.47-3.707 1.124-1.431 2.795-3.913 4.565-6.54 4.323-6.409 7.191-10.456 9.533-12.964 5.028-9.604 11.127-18.573 18.312-26.897 8.378-9.704 17.836-18.046 28.381-25.03 10.542-6.981 22.064-12.427 34.563-16.338 12.496-3.908 25.584-5.865 39.271-5.865h2e-3c13.684 0 26.773 1.957 39.277 5.865 12.496 3.911 24.053 9.357 34.666 16.338 10.609 6.984 20.107 15.326 28.485 25.03 8.256 9.564 15.08 19.979 20.486 31.231 1.663 2.245 3.611 5.069 6.012 8.627 1.773 2.632 3.447 5.116 4.565 6.54 0.923 1.176 1.703 2.454 2.459 3.689 2.328 3.81 3.808 5.975 7.261 6.418 0.646 0.082 1.193 0.124 1.618 0.124 0.086 0 0.16-1e-3 0.223-4e-3 0.286-0.387 0.719-1.081 1.081-1.663l0.156-0.251c2.639-4.235 1.198-9.09-1.124-15.488-0.786-2.164-1.522-4.193-1.922-6.153-0.054-0.249-0.689-2.856-5.804-16.155l-4.457-11.583c-6.259-10.332-13.578-19.828-21.972-28.473-9.355-9.635-19.83-17.837-31.419-24.611-11.594-6.772-24.087-12.044-37.491-15.814-13.408-3.771-27.441-5.656-42.104-5.656-14.243 0-28.066 1.885-41.473 5.656-13.407 3.77-25.942 9.043-37.598 15.814-11.66 6.775-22.345 14.976-32.049 24.611-8.914 8.848-16.662 18.591-23.275 29.204l-4.176 10.853c-5.111 13.298-5.746 15.905-5.802 16.158z" fill="#000000"></path>

</svg>