<?xml version='1.0' encoding='utf-8'?>
<!-- Generator: Adobe Illustrator 16.0.0, SVG Export Plug-In . SVG Version: 6.00 Build 0)  --><svg xmlns="http://www.w3.org/2000/svg" xmlns:cc="http://creativecommons.org/ns#" xmlns:ns="&amp;ns_sfw;" xmlns:rdf="http://www.w3.org/1999/02/22-rdf-syntax-ns#" xmlns:dc="http://purl.org/dc/elements/1.1/" width="473px" height="429px" enable-background="new 0 0 473 429" version="1.1" viewBox="0 0 473 429" xml:space="preserve">
<metadata>
	<ns:sfw>
		<ns:slices></ns:slices>
		<ns:sliceSourceBounds x="216.829" y="115.168" width="407.794" height="366.663" bottomLeftOrigin="true"></ns:sliceSourceBounds>
	</ns:sfw>
<rdf:RDF><cc:Work rdf:about=""><dc:format>image/svg+xml</dc:format><dc:type rdf:resource="http://purl.org/dc/dcmitype/StillImage"></dc:type><dc:title></dc:title></cc:Work></rdf:RDF></metadata>
	<path d="m234.99 89.575h-158.2l-3.046 6.528h31.986v20.02h-39.386c-0.436 2.904-0.652 5.875-0.652 8.922 0 2.322 0.108 4.862 0.326 7.616 0.218 2.757 0.615 5.804 1.196 9.14h112.72c-9.867 5.08-18.933 11.098-27.201 18.062h-64.412v22.194c0 1.599-0.617 2.938-1.85 4.026-1.234 1.089-2.648 1.632-4.244 1.632h-25.242c-2.031 0-3.591-0.543-4.679-1.632-1.089-1.088-1.633-2.428-1.633-4.026v-32.641c0-0.869-0.363-2.248-1.088-4.134-0.729-3.771-1.196-7.324-1.414-10.663-0.218-3.335-0.326-6.454-0.326-9.357 0-8.269 0.688-14.722 2.066-19.367 1.377-4.641 2.646-7.834 3.809-9.575h-14.58c-1.599 0-3.047-0.507-4.353-1.523-1.308-1.013-1.958-2.176-1.958-3.481 0-0.578 0.069-0.942 0.218-1.088l4.353-12.404c0.289-1.594 1.308-2.9 3.047-3.917 1.74-1.013 3.406-1.523 5.006-1.523h20.89c1.159-2.176 2.067-3.771 2.721-4.787 0.652-1.013 1.56-2.21 2.722-3.591 1.158-1.377 2.938-3.444 5.332-6.202 2.395-2.754 5.907-6.963 10.554-12.621 1.307-1.306 2.465-2.645 3.479-4.025 1.015-1.377 2.318-2.683 3.917-3.917 1.597-1.231 3.662-2.248 6.202-3.046 2.537-0.795 5.908-1.34 10.119-1.632 10.444-1.159 19.547-1.85 27.309-2.067 7.761-0.218 13.603-0.327 17.519-0.327 3.771 0 9.575 0.109 17.409 0.327 7.833 0.217 16.974 0.908 27.418 2.067 4.206 0.146 7.579 0.653 10.119 1.523 2.535 0.871 4.641 1.887 6.312 3.046 1.666 1.163 3.009 2.469 4.024 3.917 1.013 1.452 2.103 2.829 3.264 4.134 4.642 5.369 8.086 9.432 10.337 12.186 2.248 2.757 3.951 4.896 5.111 6.419 1.159 1.523 2.067 2.829 2.723 3.917 0.65 1.088 1.703 2.648 3.152 4.678h20.021c2.03 0 3.951 0.51 5.767 1.523 1.813 1.017 2.863 2.322 3.155 3.917l4.354 12.404c0 0.292 0.03 0.472 0.105 0.544 0.071 0.075 0.108 0.255 0.108 0.544 0 1.163-0.729 2.285-2.176 3.373-1.452 1.088-2.829 1.632-4.138 1.632h-14.579c1.017 1.598 2.179 4.678 3.481 9.248 1.305 4.57 1.959 10.554 1.959 17.953h-17.622c0-1.16-0.075-2.395-0.218-3.7-0.146-1.306-0.218-2.536-0.218-3.699h-39.389v-20.02h31.988l-3.696-6.527zm-146.23-17.843h134.92c-1.598-1.741-3.373-3.808-5.332-6.202-1.958-2.394-3.81-4.712-5.549-6.963-1.741-2.248-3.266-4.134-4.568-5.658-1.307-1.523-2.034-2.285-2.177-2.285v0.217c-5.368-0.724-10.628-1.306-15.775-1.741-5.149-0.435-9.938-0.762-14.36-0.979-4.429-0.218-8.38-0.327-11.859-0.327h-7.834c-3.773 0-9.503 0.184-17.189 0.544-7.689 0.364-16.538 0.979-26.548 1.85-2.176 0-3.917 0.218-5.223 0.653-1.308 0.436-2.359 0.979-3.154 1.632-0.8 0.653-1.452 1.38-1.958 2.176-0.511 0.799-1.055 1.561-1.632 2.285-0.87 1.017-1.851 2.25-2.938 3.699-1.088 1.452-2.176 2.903-3.264 4.352-1.088 1.452-2.143 2.795-3.155 4.025-1.023 1.236-1.822 2.144-2.4 2.722zm97.051 297.03-28.289 28.072c-0.436-0.293-1.38-1.197-2.829-2.721-1.452-1.523-3.013-3.121-4.679-4.787-1.67-1.67-3.23-3.264-4.679-4.787-1.452-1.521-2.321-2.432-2.61-2.721-11.461-13.201-20.384-27.996-26.766-44.395-6.388-16.391-9.575-33.943-9.575-52.656 0-13.492 1.775-26.551 5.331-39.17 3.554-12.619 8.521-24.404 14.906-35.36 6.382-10.951 14.067-20.924 23.064-29.92 8.993-8.993 18.965-16.719 29.92-23.176 10.952-6.453 22.74-11.457 35.36-15.015 12.621-3.553 25.75-5.332 39.388-5.332 13.491 0 26.547 1.778 39.168 5.332 12.621 3.556 24.372 8.562 35.252 15.015 10.881 6.457 20.815 14.183 29.813 23.176 8.991 8.996 16.72 18.969 23.177 29.92 6.453 10.956 11.424 22.741 14.905 35.36 3.479 12.619 5.223 25.678 5.223 39.17 0 18.713-3.155 36.268-9.466 52.656-6.313 16.396-14.98 31.189-26.004 44.395-2.471 2.465-5.007 4.969-7.616 7.508-2.611 2.537-5.226 5.039-7.833 7.508l-28.507-28.072c2.897-2.318 5.619-4.783 8.158-7.395 2.536-2.611 5.038-5.295 7.51-8.051l12.839 12.621c8.269-9.576 14.905-20.201 19.91-31.883 5.005-11.676 8.014-24.334 9.027-37.973h-18.06c0.143-1.012 0.251-1.957 0.326-2.828 0.068-0.871 0.105-1.74 0.105-2.607v-10.884c0-0.867-0.037-1.736-0.105-2.607-0.075-0.871-0.187-1.814-0.326-2.828h18.061c-1.017-13.635-4.022-26.33-9.027-38.082-5.008-11.75-11.645-22.484-19.91-32.205l-12.839 12.621c-4.937-6.093-10.156-11.241-15.668-15.45l13.057-12.839c-9.721-8.269-20.529-14.978-32.423-20.128-11.897-5.146-24.664-8.303-38.299-9.466v18.714c-2.471-0.578-5.95-0.871-10.444-0.871-1.888 0-3.774 0.075-5.658 0.218-1.887 0.146-3.628 0.364-5.223 0.653v-18.714c-13.491 1.163-26.222 4.317-38.188 9.466-11.97 5.15-22.813 11.859-32.532 20.128l13.272 12.839c-5.949 4.646-11.024 9.792-15.23 15.45l-13.273-12.621c-8.27 9.574-14.834 20.275-19.691 32.097-4.862 11.824-8.02 24.557-9.468 38.189h18.715c-0.581 1.887-0.907 3.699-0.979 5.438-0.075 1.74-0.109 3.41-0.109 5.008 0 1.738 0.109 3.557 0.326 5.438 0.219 1.887 0.47 3.846 0.763 5.875h-18.715c1.448 13.637 4.68 26.258 9.685 37.863 5.005 11.604 11.496 22.27 19.477 31.988l13.273-12.621c2.177 2.756 4.495 5.438 6.963 8.051 2.46 2.611 5.143 5.075 8.046 7.396zm68.546-106.62c3.188 0 6.201 0.619 9.03 1.852s5.256 2.904 7.29 5.006c2.026 2.104 3.661 4.57 4.896 7.398 1.23 2.826 1.853 5.842 1.853 9.027 0 3.047-0.619 5.951-1.853 8.705-1.231 2.756-2.9 5.188-5.005 7.289-2.104 2.105-4.604 3.773-7.507 5.004-2.904 1.234-5.95 1.854-9.14 1.854-3.192 0-6.171-0.615-8.925-1.854-2.758-1.229-5.148-2.938-7.181-5.109-2.033-2.18-3.628-4.682-4.788-7.51-1.163-2.83-1.739-5.838-1.739-9.029 0-1.016 0.069-2.066 0.217-3.154 0.144-1.088 0.359-2.139 0.653-3.156l-40.692-41.775-7.397-23.067 22.633 8.051 40.908 41.127c1.883-0.44 4.134-0.659 6.747-0.659zm173.86-95.747h-55.707v-55.054l14.145 13.491 26.769-26.33 27.197 27.201-26.766 26.766 14.362 13.926z" fill="#51F093"></path>
</svg>