<?xml version='1.0' encoding='utf-8'?>
<!-- Generator: Adobe Illustrator 16.0.0, SVG Export Plug-In . SVG Version: 6.00 Build 0)  --><svg xmlns="http://www.w3.org/2000/svg" xmlns:cc="http://creativecommons.org/ns#" xmlns:dc="http://purl.org/dc/elements/1.1/" xmlns:ns="&amp;ns_sfw;" xmlns:rdf="http://www.w3.org/1999/02/22-rdf-syntax-ns#" width="461px" height="467.14px" version="1.2" viewBox="0 0 461 467.14" xml:space="preserve">
<metadata>
	<ns:sfw>
		<ns:slices></ns:slices>
		<ns:sliceSourceBounds x="216.375" y="179.896" width="409.051" height="247.207" bottomLeftOrigin="true"></ns:sliceSourceBounds>
	</ns:sfw>
<rdf:RDF><cc:Work rdf:about=""><dc:format>image/svg+xml</dc:format><dc:type rdf:resource="http://purl.org/dc/dcmitype/StillImage"></dc:type><dc:title></dc:title></cc:Work></rdf:RDF></metadata>
	<path d="m70.166 321.51-25.831 26.033-17.96-17.961 8.072-8.072h35.719zm138.84 29.666h-39.352l-54.892-45.406h-65.383v-156.4h65.384l54.892-45.204h39.352v247h-1e-3zm-30.27-25.226h5.045v-196.55h-5.045l-55.093 45.205h-49.038v105.94h49.038l55.093 45.405zm42.984-191.51 30.271-30.472 17.96 17.96-48.23 48.029-1e-3 -35.517zm202 216.74h-138.64c-3.229 0-5.988-1.244-8.272-3.731-2.289-2.488-3.433-5.48-3.433-8.98 0-3.498 1.144-6.459 3.433-8.879 2.284-2.422 5.045-3.633 8.272-3.633h138.64c3.229 0 5.985 1.211 8.274 3.633 2.286 2.42 3.431 5.381 3.431 8.879 0 3.5-1.145 6.492-3.431 8.98-2.288 2.487-5.043 3.731-8.274 3.731zm-18.162-36.728h-118.46l57.312-146.51c0.808-2.019 2.084-3.633 3.834-4.844 1.747-1.209 3.766-1.815 6.055-1.815 2.286 0 4.341 0.604 6.154 1.815 1.816 1.211 3.128 2.825 3.937 4.844l57.311 146.51h-16.148zm-86.571-21.593h70.631l-35.315-91.617-35.316 91.617z" fill="#000000"></path>
</svg>