<?xml version='1.0' encoding='utf-8'?>
<!-- Generator: Adobe Illustrator 27.2.0, SVG Export Plug-In . SVG Version: 6.00 Build 0)  --><svg xmlns:cc="http://creativecommons.org/ns#" xmlns="http://www.w3.org/2000/svg" xmlns:rdf="http://www.w3.org/1999/02/22-rdf-syntax-ns#" xmlns:ns="http://ns.adobe.com/SaveForWeb/1.0/" xmlns:dc="http://purl.org/dc/elements/1.1/" xmlns:xlink="http://www.w3.org/1999/xlink" version="1.2" baseProfile="tiny" id="Layer_1" x="0px" y="0px" viewBox="0 0 529.7 425.2" overflow="visible" xml:space="preserve" width="498.30667" height="400.0">
<g>
	<path d="M157,239.9c-4.8,0-9,0.9-12.6,2.8c-3.6,1.9-6.4,4.4-8.4,7.8c-2,3.2-3,6.8-3,10.9c0,3.6,0.5,6.7,1.7,9.4   c1.2,2.7,3.9,5.6,8,8.7c4.2,3.2,10.6,6.6,19,10.2c10.9,4.7,19.4,9.1,25.8,13.5c6.3,4.3,10.9,9,13.5,13.9c2.8,5,4.2,10.6,4.2,17.2   c0,8.4-2,15.8-5.9,22c-3.9,6.2-9.3,11-16.2,14.4c-7,3.4-14.9,5-23.9,5c-30,0-46.3-16.1-49-48.4l17-1.5c0.9,11.5,4.2,20.1,9.7,25.9   c5.5,5.8,13.3,8.6,23.5,8.6c5.6,0,10.6-1.1,14.8-3.4c4.2-2.3,7.4-5.1,9.7-8.7c2.3-3.6,3.4-7.4,3.4-11.4c0-4.6-0.9-8.3-2.7-11.4   c-1.7-3.1-5.1-6.2-9.9-9.3c-4.8-3.1-11.9-6.7-21.5-10.7c-9.5-4.2-17.2-8.3-22.8-12.6c-5.6-4.3-9.5-8.9-11.9-13.7   c-2.4-4.8-3.6-10.2-3.6-16.2c0-7.5,1.7-14.1,5.4-19.8c3.6-5.8,8.6-10.3,15-13.5c6.4-3.2,13.8-4.8,22.1-4.8c8.2,0,15.4,1.7,21.9,5.1   s11.4,8.3,15.2,14.9c3.8,6.6,5.6,14.4,5.9,23.5l-17.2,1.3c-0.9-10.1-3.6-17.4-8-22.1C171.5,242.1,165.2,239.9,157,239.9z" fill="#FFCE63"></path>
	<path d="M317.9,299.5c0,24-4.3,42.6-12.7,55.9c-8.4,13.4-21.7,20.1-39.6,20.1c-17,0-30.3-6.2-39.7-18.6   c-9.4-12.5-14.1-31.9-14.1-58.3c0-24.3,4.6-42.6,13.7-55.3c9.1-12.6,22.4-18.9,40.1-18.9c10.9,0,20.3,2.7,28,8   c7.8,5.4,13.8,13.7,18.1,24.9C315.8,268.6,317.9,282.6,317.9,299.5z M229.8,301.4c0,20.1,3.1,34.9,9.3,44.1   c6.2,9.4,14.8,14.1,25.9,14.1c23.2,0,34.9-19.7,34.9-59c0-20.3-3-35.4-8.9-45.5c-5.9-10.1-14.8-15.2-26.7-15.2   c-12.5,0-21.3,5.2-26.6,15.6C232.5,266,229.8,281.3,229.8,301.4z" fill="#FFCE63"></path>
	<path d="M371.3,239.9c-4.8,0-9,0.9-12.6,2.8c-3.6,1.9-6.4,4.4-8.4,7.8c-2,3.2-3,6.8-3,10.9c0,3.6,0.5,6.7,1.7,9.4   c1.2,2.7,3.9,5.6,8,8.7c4.2,3.2,10.6,6.6,19,10.2c10.9,4.7,19.4,9.1,25.8,13.5c6.3,4.3,10.9,9,13.5,13.9c2.8,5,4.2,10.6,4.2,17.2   c0,8.4-2,15.8-5.9,22s-9.3,11-16.2,14.4s-14.9,5-23.9,5c-30,0-46.3-16.1-49-48.4l17-1.5c0.9,11.5,4.2,20.1,9.7,25.9   c5.5,5.8,13.3,8.6,23.5,8.6c5.6,0,10.6-1.1,14.8-3.4c4.2-2.3,7.4-5.1,9.7-8.7c2.3-3.6,3.4-7.4,3.4-11.4c0-4.6-0.9-8.3-2.7-11.4   s-5.1-6.2-9.9-9.3c-4.8-3.1-11.9-6.7-21.5-10.7c-9.5-4.2-17.2-8.3-22.8-12.6c-5.6-4.3-9.5-8.9-11.9-13.7   c-2.4-4.8-3.6-10.2-3.6-16.2c0-7.5,1.7-14.1,5.4-19.8c3.6-5.8,8.6-10.3,15-13.5c6.4-3.2,13.8-4.8,22.1-4.8c8.2,0,15.4,1.7,21.9,5.1   c6.4,3.4,11.4,8.3,15.2,14.9c3.8,6.6,5.6,14.4,5.9,23.5l-17.2,1.3c-0.9-10.1-3.6-17.4-8-22.1C385.8,242.1,379.5,239.9,371.3,239.9z   " fill="#FFCE63"></path>
</g>
<path d="M398,89.7l-1.5-22h-15.8l-54.5-44.1l-3.4-0.3c-0.9-0.1-24.3-2-58.1-2s-57.1,1.9-58.1,2l-3.4,0.3L149,67.7h-15.8l-1.5,22  h14.6v101h44.3v-32.9h148.7v32.9h44.3v-101C383.5,89.7,398,89.7,398,89.7z M211.7,44.3c7.5-0.5,27.2-1.7,53.1-1.7  c25.8,0,45.6,1.2,53.1,1.7l26.2,21.2H185.6L211.7,44.3z M167.7,136.3v-21.7h40.4V93.1h-40.4v-9h194.2v9h-40.4v21.5h40.4v21.7H167.7z  " fill="#FFCE63"></path>
</svg>