<?xml version='1.0' encoding='utf-8'?>
<!-- Generator: Adobe Illustrator 16.0.0, SVG Export Plug-In . SVG Version: 6.00 Build 0)  --><svg xmlns="http://www.w3.org/2000/svg" xmlns:cc="http://creativecommons.org/ns#" xmlns:dc="http://purl.org/dc/elements/1.1/" xmlns:rdf="http://www.w3.org/1999/02/22-rdf-syntax-ns#" width="491px" height="425.2px" version="1.2" viewBox="0 0 491 425.2" xml:space="preserve"><metadata><rdf:RDF><cc:Work rdf:about=""><dc:format>image/svg+xml</dc:format><dc:type rdf:resource="http://purl.org/dc/dcmitype/StillImage"></dc:type><dc:title></dc:title></cc:Work></rdf:RDF></metadata>

	<path d="m10.764 171.02v197.48h132.99v-197.48h-132.99zm22.971 186.2h-10.68v-174.51h10.68v174.51zm76.774-120.3h-65.488v-10.882h65.489v10.882zm21.763-21.561h-87.251v-10.883h87.251v10.883z" fill="#000000"></path>
	<path d="m116.01 79.374c12.873 0 15.613 5.83 15.613 13.023 0 7.198-2.746 13.029-15.613 13.029-12.878 0-23.307-5.832-23.307-13.029 1e-3 -7.194 10.436-13.023 23.307-13.023z" fill="#000000"></path>
	<path d="m453.88 79.374c-12.874 0-15.612 5.83-15.612 13.023 0 7.198 2.743 13.029 15.612 13.029 12.872 0 23.306-5.832 23.306-13.029 0-7.194-10.434-13.023-23.306-13.023z" fill="#000000"></path>
	<path d="m436.49 101.89-51.503-73.547h-204.03l-51.5 73.547-33.826 37.689h80.365v115.56h246.55v38.611h57.332v-143.51l-43.389-48.345zm-293.48-9e-3 41.577-63.011h196.78l41.584 63.011h-279.94zm224.55 95.86h-169.19l-16.587-47.504 74.22 2.046h7e-3l7.84 8.33h38.237l7.843-8.33 74.225-2.046-16.592 47.504zm94.109-34.614-66.438 15.5 3.621-27.116 62.816-6.189 1e-3 17.805z" fill="#000000"></path>

</svg>