<?xml version='1.0' encoding='utf-8'?>
<!-- Generator: Adobe Illustrator 16.0.0, SVG Export Plug-In . SVG Version: 6.00 Build 0)  --><svg xmlns="http://www.w3.org/2000/svg" xmlns:cc="http://creativecommons.org/ns#" xmlns:dc="http://purl.org/dc/elements/1.1/" xmlns:rdf="http://www.w3.org/1999/02/22-rdf-syntax-ns#" width="371.98px" height="425.2px" version="1.2" viewBox="0 0 371.98 425.2" xml:space="preserve"><metadata><rdf:RDF><cc:Work rdf:about=""><dc:format>image/svg+xml</dc:format><dc:type rdf:resource="http://purl.org/dc/dcmitype/StillImage"></dc:type><dc:title></dc:title></cc:Work></rdf:RDF></metadata>
<path d="m185.99 75.023c36.747 0 71.294 14.311 97.281 40.295 25.983 25.984 40.295 60.533 40.295 97.28s-14.312 71.295-40.295 97.28c-25.986 25.984-60.534 40.295-97.281 40.295s-71.295-14.311-97.28-40.295c-25.985-25.985-40.295-60.533-40.295-97.28s14.311-71.295 40.295-97.28c25.984-25.984 60.533-40.295 97.28-40.295m0-29.669c-92.366 0-167.24 74.878-167.24 167.24 0 92.367 74.878 167.24 167.24 167.24 92.368 0 167.24-74.876 167.24-167.24-1e-3 -92.365-74.877-167.24-167.24-167.24z" fill="#000000"></path>
<path d="m272.51 214.07c-2.772-12.917-16.705-20.64-41.41-22.957-16.241-1.522-31.62-0.251-32.268-0.197l-47.884 5.07-2.626-11.176-49.201 34.861 58.349 4.063-2.873-12.223 45.65-4.835c24.978-2.09 54.036 1.648 56.691 10.337-1.33 2.285-8.698 6.223-15.365 8.156l4.369 15.209c5.068-1.452 30.161-9.562 26.568-26.308z" fill="#000000"></path>
</svg>