<?xml version='1.0' encoding='utf-8'?>
<!-- Generator: Adobe Illustrator 16.0.3, SVG Export Plug-In . SVG Version: 6.00 Build 0)  --><svg xmlns="http://www.w3.org/2000/svg" xmlns:cc="http://creativecommons.org/ns#" xmlns:dc="http://purl.org/dc/elements/1.1/" xmlns:rdf="http://www.w3.org/1999/02/22-rdf-syntax-ns#" width="459.62px" height="425.2px" enable-background="new 0 0 459.615 425.197" version="1.1" viewBox="0 0 459.62 425.2" xml:space="preserve"><metadata><rdf:RDF><cc:Work rdf:about=""><dc:format>image/svg+xml</dc:format><dc:type rdf:resource="http://purl.org/dc/dcmitype/StillImage"></dc:type><dc:title></dc:title></cc:Work></rdf:RDF></metadata>
<path d="m442.22 267.7c-1.646-3.238-3.9-7.675-3.9-31.938 0-12.344-7.594-19.421-20.83-19.421-4.011 0-12.974-5.019-20.094-9.316 8.813-14.86 13.884-32.191 13.884-50.685 0-54.947-44.702-99.65-99.647-99.65-54.946 0-99.651 44.703-99.651 99.65 0 7.593 0.858 14.991 2.474 22.102-13.553 1.747-25.505 6.576-30.56 9.282-11.733 6.285-35.677 19.174-44.91 24.146-4.355 2.14-19.02 9.086-28.592 10.399-18.521 2.539-42.293 6.617-56.523 9.698-27.274 5.907-39.695 31.039-39.695 51.885 0 9.677 2.72 17.298 8.084 22.649 9.255 9.236 24.128 9.731 37.73 9.731 0.635 0 1.266-2e-3 1.896-2e-3 6.089 14.061 20.095 23.924 36.366 23.924 16.272 0 30.28-9.867 36.368-23.93h169.54c6.086 14.063 20.095 23.93 36.365 23.93 16.274 0 30.281-9.867 36.369-23.93h33.928c20.705 0 34.617-13.13 34.617-32.671 1e-3 -8.829-1.337-12.142-3.223-15.853zm-130.59-198.59c48.099 0 87.226 39.131 87.226 87.229 0 48.103-39.127 87.236-87.226 87.236-48.098 0-87.229-39.134-87.229-87.236 0-48.098 39.132-87.229 87.229-87.229zm-213.38 258.62c-14.993 0-27.191-12.196-27.191-27.19 0-14.992 12.198-27.189 27.191-27.189s27.189 12.197 27.189 27.189c1e-3 14.994-12.196 27.19-27.189 27.19zm242.28 0c-14.99 0-27.188-12.196-27.188-27.19 0-14.992 12.197-27.189 27.188-27.189 14.994 0 27.192 12.197 27.192 27.189 0 14.994-12.198 27.19-27.192 27.19zm70.297-23.928h-30.831c0.088-1.077 0.145-2.162 0.145-3.262 0-21.841-17.769-39.61-39.61-39.61-21.839 0-39.608 17.77-39.608 39.61 0 1.1 0.056 2.185 0.144 3.262h-163.35c0.088-1.077 0.145-2.162 0.145-3.262 0-21.841-17.769-39.61-39.61-39.61-21.842 0-39.612 17.77-39.612 39.61 0 1.101 0.057 2.188 0.146 3.268-11.203-0.027-22.187-0.549-27.753-6.102-2.985-2.978-4.438-7.512-4.438-13.857 0-16.533 10.272-35.491 29.904-39.745 13.96-3.023 37.334-7.032 55.581-9.532 8.788-1.205 20.129-5.862 27.521-9.251 0.478-0.118 0.984-0.292 1.517-0.531l0.014 0.028 1.01-0.547c1.2-0.643 1.987-1.061 2.416-1.289 0.147-0.077 0.29-0.158 0.427-0.239 9.307-5.012 33.094-17.814 44.776-24.071 3.685-1.974 15.245-6.843 28.264-8.14 13.982 38.158 50.667 65.461 93.607 65.461 32.001 0 60.523-15.166 78.768-38.687 10.995 6.668 20.083 11.451 27.09 11.451 7.824 0 8.409 2.772 8.409 7.002 0 25.233 2.274 31.716 5.248 37.564 1.13 2.221 1.875 3.688 1.875 10.228-1e-3 12.679-8.298 20.251-22.196 20.251z" fill="#000000"></path>

	<rect x="302.55" y="126.91" width="18.153" height="89.856" fill="#000000"></rect>
	<polygon points="320.7 91.077 302.55 91.077 302.55 109.26 320.7 109.23" fill="#000000"></polygon>

</svg>