<?xml version='1.0' encoding='utf-8'?>
<!-- Generator: Adobe Illustrator 16.0.0, SVG Export Plug-In . SVG Version: 6.00 Build 0)  --><svg xmlns="http://www.w3.org/2000/svg" xmlns:cc="http://creativecommons.org/ns#" xmlns:dc="http://purl.org/dc/elements/1.1/" xmlns:ns="&amp;ns_sfw;" xmlns:rdf="http://www.w3.org/1999/02/22-rdf-syntax-ns#" width="874px" height="333px" version="1.2" viewBox="0 0 874 333" xml:space="preserve">
<metadata>
	<ns:sfw>
		<ns:slices></ns:slices>
		<ns:sliceSourceBounds x="4.346" y="208.129" width="822.019" height="212.213" bottomLeftOrigin="true"></ns:sliceSourceBounds>
	</ns:sfw>
<rdf:RDF><cc:Work rdf:about=""><dc:format>image/svg+xml</dc:format><dc:type rdf:resource="http://purl.org/dc/dcmitype/StillImage"></dc:type><dc:title></dc:title></cc:Work></rdf:RDF></metadata>
	<path d="m137.16 222.06h-68.212l-9.618 30.316h-38.48l68.212-205.22h30.607l67.337 205.22h-40.229l-9.617-30.316zm-13.118-40.81-20.988-66.171-20.987 66.171h41.975z" fill="#000000"></path>
	<path d="m195.74 47.154h37.604v205.22h-37.604v-205.22z" fill="#000000"></path>
	<path d="m313.8 184.74h-20.113v67.629h-37.604v-205.22h71.71c31.699 0 53.345 29.732 53.345 68.795 0 26.817-10.713 48.682-28.858 59.467l38.479 76.957h-44.602l-32.357-67.629zm-20.114-43.142h27.983c11.807 0 20.112-10.202 20.112-25.651s-8.964-24.486-20.112-24.486h-27.983v50.137z" fill="#000000"></path>
	<path d="m530.67 188.24c0 40.228-22.521 64.131-54.223 64.131h-75.206v-205.22h74.331c24.486 0 48.102 20.404 48.102 57.135 0 15.74-6.34 27.109-15.307 35.854 13.775 9.912 22.303 27.401 22.303 48.099zm-91.825-97.946v39.646h31.479c9.4 0 15.74-7.871 15.74-19.822 0-10.786-6.34-19.822-15.74-19.822l-31.479-2e-3zm52.471 99.112c0-10.494-7.215-19.822-16.616-19.822h-35.854v39.646h35.854c9.401-2e-3 16.616-7.581 16.616-19.824z" fill="#000000"></path>
	<path d="m644.35 222.06h-68.212l-9.62 30.316h-38.479l68.214-205.22h30.604l67.338 205.22h-40.226l-9.619-30.316zm-13.117-40.81-20.988-66.171-20.985 66.171h41.973z" fill="#000000"></path>
	<path d="m842.86 252.37h-25.357l-8.526-19.239c-9.401 12.826-24.271 22.737-44.818 22.737-41.759 0-77.832-42.563-77.832-106.11 0-58.301 33.45-106.1 81.33-106.1 37.604 0 64.935 25.359 75.207 67.629h-40.442c-8.093-14.284-20.555-20.988-34.765-20.988-23.609 0-41.977 22.154-41.977 58.302 0 39.354 20.112 61.8 42.851 61.8 15.96 0 29.296-6.705 37.604-20.113v-12.539h-43.729v-41.977h80.455v116.6h-1e-3z" fill="#000000"></path>
</svg>