<?xml version='1.0' encoding='utf-8'?>
<!-- Generator: Adobe Illustrator 16.0.0, SVG Export Plug-In . SVG Version: 6.00 Build 0)  --><svg xmlns="http://www.w3.org/2000/svg" xmlns:cc="http://creativecommons.org/ns#" xmlns:dc="http://purl.org/dc/elements/1.1/" xmlns:ns="&amp;ns_sfw;" xmlns:rdf="http://www.w3.org/1999/02/22-rdf-syntax-ns#" width="451px" height="482px" enable-background="new 0 0 451 482" version="1.1" viewBox="0 0 451 482" xml:space="preserve">
<metadata>
	<ns:sfw>
		<ns:slices></ns:slices>
		<ns:sliceSourceBounds x="219.553" y="127.202" width="403.933" height="347.35" bottomLeftOrigin="true"></ns:sliceSourceBounds>
	</ns:sfw>
<rdf:RDF><cc:Work rdf:about=""><dc:format>image/svg+xml</dc:format><dc:type rdf:resource="http://purl.org/dc/dcmitype/StillImage"></dc:type><dc:title></dc:title></cc:Work></rdf:RDF></metadata>
	<path d="m27.535 118.4 2.127-10.423 4.894-10.209 6.594-8.721 8.295-7.445 9.784-4.467 10.635-2.978 39.776-5.318 39.986-3.19 40.414-1.702h40.201l39.776 1.702 39.776 3.19 39.986 5.318 10.638 2.978 9.782 4.467 8.083 7.445 7.021 8.721 4.255 10.209 2.34 10.423 2.979 48.071 0.425 47.859-2.127 47.86 1.915 10.209 7.019 7.02 19.782 11.486 4.892 4.68 1.702 6.594v46.156l-1.063 5.318-3.19 4.254-5.104 2.766-4.894 0.639-5.317-1.916-53.603-30.416-11.699-4.68-13.188-0.426-17.229 1.914-16.804 2.127 5.53 12.551 3.614 13.188-0.639 13.823-5.104 12.765-18.507 31.055-17.018-10.209 18.293-31.268 3.616-10.425-2.127-10.848-8.509-18.932-25.524 1.274-24.887 0.64 4.254 8.934 3.616 13.189-0.853 13.823-5.316 12.765-18.294 31.055-17.017-10.211 18.505-31.268 3.19-10.425-1.914-10.848-8.083-16.803-25.737-0.64-25.95-1.063 5.105 10.422 2.978 13.188-0.638 13.823-4.894 12.765-18.506 31.055-17.652-10.209 18.718-31.268 3.403-10.425-2.128-10.848-9.146-20.42-29.354-2.766-29.565-4.255-10.635-2.553-9.784-5.315-8.295-7.232-6.595-8.721-4.893-10.211-2.122-10.418-2.34-39.777-0.638-39.35 0.638-39.776 2.345-39.346zm26.588 2.766-2.765 38.074-1.063 38.286 1.063 38.076 2.765 38.713 3.403 9.569 6.807 7.445 9.359 3.615 21.481 3.188 20.847 2.127-2.127-9.356v-9.572l1.915-9.359 4.254-9.145 16.378-27.439 3.616-9.571-1.276-9.784-12.55-37.011h-12.337l22.76-59.345 23.185 59.345h-12.337l10.423 30.416 1.914 12.125-1.063 12.551-4.894 11.483-17.229 27.652-2.34 7.021-0.426 7.229 2.127 7.445 2.765 7.442 26.801 1.703 25.95 0.853-1.063-1.914-2.979-9.785-0.638-10.422 1.915-10.211 4.042-9.785 17.016-27.438 3.403-9.572-1.063-9.784-12.762-37.011h-12.55l23.185-59.345 23.187 59.345h-12.55l10.21 30.416 2.34 12.125-1.489 12.55-5.104 11.485-16.593 27.65-2.978 7.02-0.639 7.232 2.341 7.445 4.68 10.209 24.886-0.213 25.525-1.488-0.426-0.426-3.403-9.785-0.426-10.422 1.915-10.209 4.467-9.785 16.591-27.439 3.403-9.57-1.276-9.785-12.336-37.011h-12.763l22.973-59.345 23.187 59.345h-12.764l10.424 30.418 2.34 12.123-1.276 12.552-4.892 11.483-17.019 27.652-2.34 7.02-0.638 7.23 1.914 7.445 3.188 7.02 30.63-2.766 30.63-4.254 9.358-3.615 7.021-7.445 2.978-9.572 2.553-38.711 1.063-38.074-1.063-38.287-2.553-38.074-2.978-9.997-7.021-7.232-9.358-3.829-45.094-5.743-45.52-3.403-45.308-1.489-45.73 1.489-45.521 3.403-45.093 5.743-9.359 3.829-6.807 7.232-3.399 9.999z" fill="#000000"></path>
</svg>