<?xml version='1.0' encoding='utf-8'?>
<!-- Generator: Adobe Illustrator 16.0.0, SVG Export Plug-In . SVG Version: 6.00 Build 0)  --><svg xmlns="http://www.w3.org/2000/svg" xmlns:cc="http://creativecommons.org/ns#" xmlns:dc="http://purl.org/dc/elements/1.1/" xmlns:rdf="http://www.w3.org/1999/02/22-rdf-syntax-ns#" width="383px" height="425.2px" enable-background="new 0 0 383 425.2" version="1.1" viewBox="0 0 383 425.2" xml:space="preserve"><metadata><rdf:RDF><cc:Work rdf:about=""><dc:format>image/svg+xml</dc:format><dc:type rdf:resource="http://purl.org/dc/dcmitype/StillImage"></dc:type><dc:title></dc:title></cc:Work></rdf:RDF></metadata>
<path d="m209.07 273.17h-25.088v-157.91h21.995v118.56l43.334-42.521 21.178 21.588-61.418 60.272v6e-3h-1e-3zm-8.306-204.78v-12.788c9.694-3.788 17.514-11.445 17.514-22.483 0-14.336-11.646-26.024-25.987-26.024-14.336 0-26.064 11.69-26.064 26.024 0 11.038 7.82 18.695 17.594 22.483v12.788c-34.699 1.669-66.63 13.114-93.187 32.094l-24.763-14.011-29.977 29.976 14.009 24.723c-20.525 28.713-32.907 63.658-32.907 101.66 0 96.813 78.523 175.29 175.29 175.29s175.31-78.484 175.31-175.29c-3e-3 -93.916-74.045-169.91-166.82-174.44h-8e-3z" fill="#000000"></path>
</svg>