<?xml version='1.0' encoding='utf-8'?>
<!-- Generator: Adobe Illustrator 16.0.0, SVG Export Plug-In . SVG Version: 6.00 Build 0)  --><svg xmlns="http://www.w3.org/2000/svg" xmlns:cc="http://creativecommons.org/ns#" xmlns:rdf="http://www.w3.org/1999/02/22-rdf-syntax-ns#" xmlns:ns0="&amp;ns_sfw;" xmlns:dc="http://purl.org/dc/elements/1.1/" width="752px" height="425.2px" enable-background="new 0 0 752 425.2" version="1.1" viewBox="0 0 752 425.2" xml:space="preserve">
<metadata>
	<rdf:RDF>
		<cc:Work rdf:about="">
			<dc:format>image/svg+xml</dc:format>
			<dc:type rdf:resource="http://purl.org/dc/dcmitype/StillImage"></dc:type>
			<dc:title></dc:title>
		</cc:Work>
	</rdf:RDF>
	<ns0:sfw>
		<ns0:slices></ns0:slices>
		<ns0:sliceSourceBounds x="12.061" y="134.702" width="816.879" height="323.318" bottomLeftOrigin="true">
			</ns0:sliceSourceBounds>
	</ns0:sfw>
	<ns0:sfw>
		<ns0:slices></ns0:slices>
		<ns0:sliceSourceBounds x="62.406" y="169.941" width="716.186" height="283.464" bottomLeftOrigin="true">
			</ns0:sliceSourceBounds>
	</ns0:sfw>
	<ns0:sfw>
		<ns0:slices></ns0:slices>
		<ns0:sliceSourceBounds x="62.311" y="169.944" width="716.189" height="283.461" bottomLeftOrigin="true"></ns0:sliceSourceBounds>
	</ns0:sfw>
</metadata>
<path d="m17.81 198.43c0-70.37 45.313-124.94 98.86-124.94 53.55 0 98.86 54.235 98.86 124.94 0 70.707-45.313 124.95-98.86 124.95-53.55-1e-3 -98.86-54.236-98.86-124.95zm151.38 0c0-39.132-24.2-70.026-52.521-70.026-28.319 0-52.519 31.58-52.519 70.026 0 39.133 24.2 70.024 52.519 70.024 28.322 2e-3 52.521-30.893 52.521-70.024z" fill="#FFCE63"></path>
<path d="m390.6 77.595v241.65h-26.774l-86.504-129.06v129.06h-44.283v-241.65h25.745l87.536 130.44v-130.44h44.28z" fill="#FFCE63"></path>
<path d="m692.39 98.128c13.481 13.51 23.819 28.856 30.953 46.065 7.104 17.18 10.657 35.262 10.657 54.218 0 19.073-3.555 37.185-10.657 54.334-7.134 17.118-17.472 32.436-30.954 45.945-13.394 13.513-28.684 23.791-45.86 30.865-17.21 7.049-35.349 10.6-54.395 10.6-18.983 0-37.053-3.551-54.247-10.6-17.192-7.074-32.494-17.354-45.892-30.865-13.497-13.51-23.803-28.827-30.924-45.945-7.134-17.15-10.686-35.262-10.686-54.334 0-18.956 3.554-37.039 10.686-54.218 7.119-17.209 17.428-32.553 30.924-46.065 13.396-13.365 28.695-23.643 45.892-30.777 17.194-7.104 35.264-10.657 54.247-10.657 19.045 0 37.185 3.552 54.395 10.657 17.176 7.134 32.466 17.413 45.861 30.777zm-194.12 18.664c-9.653 11.036-17.18 23.469-22.581 37.359-5.419 13.86-8.11 28.622-8.11 44.258 0 11.472 1.501 22.507 4.499 33.107 3 10.598 7.193 20.526 12.607 29.729 5.418 9.231 11.896 17.588 19.452 25.158 7.544 7.543 15.929 14.036 25.146 19.45 9.216 5.39 19.129 9.609 29.728 12.607 10.613 3.001 21.648 4.485 33.122 4.485 15.726 0 30.544-2.707 44.438-8.097 13.858-5.414 26.32-12.898 37.326-22.418l-175.63-175.64 1e-3 -4e-3 2e-3 6e-3zm121.81 132.08c2.975 2.998 6.266 6.229 9.785 9.726 3.552 3.492 7.046 6.928 10.453 10.363 3.437 3.438 6.639 6.641 9.638 9.637 2.998 3.002 5.591 5.537 7.717 7.571-0.552 2.128-1.482 3.757-2.824 4.894-1.339 1.107-2.738 1.951-4.25 2.476-1.691 0.64-3.525 1.021-5.478 1.138-17.12 0.116-32.728 0.174-46.762 0.174-5.998 0-11.938 0-17.821 0.057-5.897 0.059-11.27 0.091-16.146 0.091h-19.204c-2.037 0-3.697-0.175-4.979-0.556-1.298-0.381-2.416-0.901-3.38-1.602-0.961-0.697-1.805-1.543-2.49-2.503-0.697-0.964-1.427-2.04-2.169-3.204-0.115-0.117-0.163-0.234-0.163-0.318 0-0.117-0.056-0.235-0.157-0.322-8.577-13.941-15.696-26.99-21.375-39.131-5.678-12.174-10.264-23.764-13.742-34.797-3.48-11.038-5.955-21.636-7.398-31.828-1.439-10.162-2.169-20.238-2.169-30.195 0-2.475 0.22-4.397 0.64-5.794 0.438-1.398 1.079-2.475 1.936-3.203 0.86-0.757 1.896-1.222 3.132-1.367 1.225-0.176 2.649-0.264 4.251-0.264 3.221 0 5.793 0.204 7.719 0.582 1.937 0.381 3.407 0.932 4.427 1.69 1.02 0.728 1.762 1.63 2.24 2.649 0.481 1.019 0.991 2.213 1.53 3.611 0.217 0.757 0.537 2.417 0.959 4.98 0.438 2.562 1.268 5.824 2.505 9.812 1.225 3.961 2.984 8.504 5.301 13.657 2.3 5.124 5.431 10.599 9.39 16.393 2.577 3.726 5.229 7.631 7.965 11.65 2.724 4.018 5.242 8.177 7.559 12.517 2.3 4.337 4.177 8.794 5.616 13.336 1.442 4.571 2.17 9.262 2.17 14.065 0 2.037-0.13 4.045-0.406 6.027-0.263 1.979-0.713 4.047-1.354 6.201 2.563-0.639 5.912-1.457 10.028-2.416 4.138-0.963 8.679-1.922 13.686-2.912 4.951-0.962 10.25-1.773 15.813-2.477 5.562-0.699 11.151-1.045 16.713-1.045 1.835 0 3.67 0.057 5.564 0.175 1.864 0.084 3.698 0.257 5.53 0.462zm-27.95-175c-15.666 0-30.412 2.708-44.289 8.124-13.874 5.417-26.337 12.928-37.359 22.566l175.65 175.64c9.638-11.035 17.121-23.472 22.479-37.356 5.355-13.86 8.037-28.682 8.037-44.434 0-11.445-1.456-22.48-4.429-33.108-2.909-10.598-7.104-20.499-12.52-29.729-5.418-9.202-11.908-17.587-19.509-25.128-7.63-7.571-16.018-14.035-25.221-19.451-9.226-5.417-19.158-9.609-29.754-12.607-10.601-3-21.64-4.514-33.08-4.514l-3e-3 1e-3 -2e-3 -4e-3zm-29.744 117.64c0.96 0.962 2.168 2.155 3.609 3.524 1.44 1.398 2.896 2.826 4.337 4.283 1.455 1.426 2.811 2.823 4.107 4.161 1.266 1.341 2.314 2.39 3.043 3.147-1.835 0-3.291 0.026-4.41 0.059-1.12 0.056-2.127 0.172-2.971 0.317-0.858 0.175-1.616 0.409-2.257 0.729-0.64 0.319-1.398 0.699-2.243 1.135-0.857 0.435-1.674 1.078-2.417 1.921-0.757 0.875-1.499 1.688-2.256 2.502-0.743 0.785-1.472 1.516-2.169 2.154-0.686 0.64-1.412 0.962-2.172 0.962-1.182 0-2.024-0.641-2.564-1.922-0.535-1.28-0.799-2.678-0.799-4.162 0-2.796 0.745-5.939 2.244-9.405 1.502-3.492 3.802-6.609 6.918-9.405zm50.476 50.142c-0.673-0.116-1.574-0.176-2.738-0.176h-4.191c-2.358 0-5.125 0.06-8.268 0.176-3.174 0.087-6.584 0.35-10.313 0.729-3.669 0.379-7.57 0.844-11.646 1.426-4.063 0.613-8.182 1.371-12.362 2.33-0.104-1.369-0.16-2.709-0.16-3.93v-3.61c0-4.603 0.263-8.529 0.8-11.735 0.539-3.202 1.397-5.794 2.576-7.717 1.182-1.919 2.724-3.317 4.658-4.161 1.921-0.875 4.282-1.311 7.077-1.311 1.075 0 2.181 0.057 3.289 0.175 1.106 0.115 2.389 0.261 3.782 0.493l27.496 27.311zm16.364-80.51c1.718 0.959 2.562 2.939 2.562 5.939 0 1.921-0.202 4.046-0.641 6.346-0.406 2.302-1.134 4.865-2.153 7.629-1.021 2.795-2.446 5.94-4.253 9.494-1.833 3.524-4.189 7.542-7.072 12.055-2.475-2.591-4.979-5.096-7.485-7.572-2.501-2.444-5.471-5.387-8.906-8.822 1.717-3.116 3.145-5.911 4.336-8.358 1.194-2.475 2.183-4.628 3.059-6.521 0.845-1.863 1.658-3.437 2.388-4.747 0.757-1.281 1.631-2.33 2.591-3.204-2.356-1.165-4.22-2.853-5.62-5.065-1.397-2.184-2.097-4.689-2.097-7.454 0-3.874 1.34-7.163 4.019-9.901 2.68-2.736 5.941-4.105 9.785-4.105 3.873 0 7.162 1.369 9.899 4.105 2.735 2.738 4.104 6.028 4.104 9.901 0 2.037-0.405 3.929-1.189 5.706-0.825 1.749-1.93 3.291-3.327 4.574zm-5.94 47.084c2.997-4.399 5.59-9.229 7.8-14.56 2.186-5.299 4.076-10.365 5.62-15.169 1.547-4.835 2.768-9.114 3.61-12.871 0.845-3.728 1.428-6.202 1.776-7.396 0.317-2.328 0.96-4.193 1.919-5.533 0.964-1.339 2.038-2.358 3.203-3.057 1.192-0.7 2.445-1.107 3.783-1.282 1.339-0.146 2.564-0.233 3.61-0.233 3.438 0 6.001 0.146 7.629 0.467 1.691 0.319 2.503 1.455 2.503 3.379 0 0.755-0.291 3.435-0.873 8.036-0.583 4.601-1.629 10.484-3.145 17.617-1.518 7.105-3.494 15.171-6.029 24.167-2.533 8.999-5.706 18.316-9.58 27.953l-21.826-21.518zm75.067 36.949c-2.041 0-3.846-0.556-5.33-1.69-1.485-1.106-2.823-2.416-3.988-3.929-1.312-1.603-2.505-3.465-3.553-5.618-0.119-0.438-0.7-1.455-1.776-3.057s-2.357-3.553-3.87-5.855c-1.484-2.329-3.089-4.89-4.806-7.716-1.719-2.854-3.318-5.706-4.805-8.616-1.513-2.886-2.735-5.712-3.726-8.417-0.934-2.739-1.428-5.242-1.428-7.484 0-5.242 1.542-11.037 4.657-17.354 1.602-3.203 3.175-5.968 4.659-8.27 1.486-2.3 3.378-4.252 5.619-5.794 2.271-1.543 5.065-2.765 8.444-3.609 3.377-0.844 7.744-1.545 13.104-2.098 2.794 7.601 4.716 14.939 5.854 21.955 1.134 7.017 1.688 13.716 1.688 20.148 0 5.358-0.321 10.426-0.962 15.201-0.643 4.745-1.456 9.143-2.415 13.159-0.964 4.021-2.01 7.604-3.12 10.775-1.136 3.173-2.18 5.853-3.144 8.124l-1.102 0.145z" fill="#FFCE63"></path>
</svg>