<?xml version='1.0' encoding='utf-8'?>
<!-- Generator: Adobe Illustrator 16.0.0, SVG Export Plug-In . SVG Version: 6.00 Build 0)  --><svg xmlns="http://www.w3.org/2000/svg" xmlns:cc="http://creativecommons.org/ns#" xmlns:dc="http://purl.org/dc/elements/1.1/" xmlns:rdf="http://www.w3.org/1999/02/22-rdf-syntax-ns#" width="393px" height="425.2px" enable-background="new 102.14 208.347 393 425.197" version="1.1" viewBox="102.14 208.35 393 425.2" xml:space="preserve"><metadata><rdf:RDF><cc:Work rdf:about=""><dc:format>image/svg+xml</dc:format><dc:type rdf:resource="http://purl.org/dc/dcmitype/StillImage"></dc:type><dc:title></dc:title></cc:Work></rdf:RDF></metadata>
<path d="m280.96 490.86 20.261 33.997 144.15 0.596c-5.697-19.94-78.045-40.229-82.212-62.674-3.663-19.737 32.558-38.254 33.371-69.999 1.12-43.654-83.693-71.803-98.488-76.104h-44.385l27.293 17.092h-20.349l-22.078-17.092h-67.456s89.537 46.798 89.537 72.034c0 25.638-33.358 29.404-67.079 61.528-12.211 11.633-35.885 39.809-43.618 73.992l128.47 0.532c-5.488-10.348-17.777-33.903-17.777-33.903h20.353zm13.837-143.66s35.813 24.215 46.802 48.43h-20.349c-11.396-20.349-43.14-48.43-43.14-48.43h16.687zm10.175 72.033h18.654s-27.608 25.64-43.104 50.558l-19.91 0.721c20.623-32.444 44.36-51.279 44.36-51.279z" fill="#000000"></path>
<path d="m439.81 568.16h-283.46c-18.388 0-33.347-14.959-33.347-33.348v-226.77c0-18.388 14.959-33.347 33.347-33.347h283.46c18.387 0 33.348 14.959 33.348 33.347l-2e-3 226.77c0 18.388-14.959 33.347-33.346 33.347zm-283.46-283.46c-12.874 0-23.347 10.474-23.347 23.347v226.77c0 12.873 10.474 23.348 23.347 23.348h283.46c12.873 0 23.346-10.475 23.346-23.348l2e-3 -226.77c0-12.874-10.475-23.347-23.348-23.347h-283.46z" fill="#000000"></path>
</svg>