<?xml version='1.0' encoding='utf-8'?>
<!-- Generator: Adobe Illustrator 27.2.0, SVG Export Plug-In . SVG Version: 6.00 Build 0)  --><svg xmlns:cc="http://creativecommons.org/ns#" xmlns="http://www.w3.org/2000/svg" xmlns:rdf="http://www.w3.org/1999/02/22-rdf-syntax-ns#" xmlns:dc="http://purl.org/dc/elements/1.1/" xmlns:xlink="http://www.w3.org/1999/xlink" version="1.2" baseProfile="tiny" id="Vrstva_1" x="0px" y="0px" viewBox="0 0 283.5 425.2" overflow="visible" xml:space="preserve" width="266.69803" height="400.0">
<path d="M181.3,338.7l-39.9-32v-54.9c-25-1-47.9-11-65.9-29c-18-18-28-42.9-28-68.9c0-53.9,43.9-97.9,97.9-97.9c11,0,23,2,35,7l1,1  V338.7L181.3,338.7z M145.4,304.8l31,25V66.1c-11-4-22-6-32-6c-51.9,0-93.9,41.9-93.9,93.9c0,50.9,40.9,92.9,91.9,93.9h2v56.9H145.4  z M196.3,235.9V72.1l3,2c28,19,42.9,47.9,42.9,79.9c0,31-16,59.9-42.9,78.9L196.3,235.9L196.3,235.9z M201.3,81.1v146.8  c24-18,37.9-44.9,37.9-72.9C239.2,125,225.3,99.1,201.3,81.1z M145.4,215.9h-2c-16,0-32-7-42.9-19c-11-12-18-27-18-42.9  c0-16,6-32,18-42.9c11-12,27-18,42.9-19h2V215.9L145.4,215.9z M141.4,96.1c-31,2-53.9,27-53.9,57.9s24,55.9,53.9,57.9V96.1z   M198.3,56.1c-12,0-21-9-21-21s9-21,21-21c11,0,21,9,21,21S210.3,56.1,198.3,56.1z M198.3,19.2c-9,0-17,7-17,17c0,9,7,17,17,17  c9,0,17-7,17-17C215.3,26.2,207.3,19.2,198.3,19.2z"></path>
<polygon fill="#9FC7A3" points="116.4,287.8 90.4,287.8 90.4,204.9 40.5,298.8 65.5,298.8 65.5,382.7 "></polygon>
</svg>