<?xml version='1.0' encoding='utf-8'?>
<!-- Generator: Adobe Illustrator 22.1.0, SVG Export Plug-In . SVG Version: 6.00 Build 0)  --><svg xmlns="http://www.w3.org/2000/svg" xmlns:cc="http://creativecommons.org/ns#" xmlns:rdf="http://www.w3.org/1999/02/22-rdf-syntax-ns#" xmlns:dc="http://purl.org/dc/elements/1.1/" version="1.2" viewBox="0 0 567 425.2" xml:space="preserve" width="533.39606" height="400.0"><metadata><rdf:RDF><cc:Work rdf:about=""><dc:format>image/svg+xml</dc:format><dc:type rdf:resource="http://purl.org/dc/dcmitype/StillImage"></dc:type><dc:title></dc:title></cc:Work></rdf:RDF></metadata>
<path d="m471.8 239.2c1.3 1.1 3.4 1 5.4 1.2 2 0.1 9.5 0.2 9.5 0.2 5.6 0 10.5 0.2 14.7 0.7s8 1.7 11.5 3.8 6.9 5.3 10.2 9.6 6.8 10.4 10.6 18.2c1.4 2.9 3 6.3 4.6 10.3s3.2 8.3 4.6 12.9 2.6 9.5 3.5 14.6 1.4 10.2 1.4 15.5v0.8c0 6.5-0.8 12-2.2 16.4-1.5 4.4-3.5 8-6.1 10.8-2.5 2.7-5.5 4.7-9 5.9s-18.2 0.8-19.3 0.8c-1 0-2.2 0.9-3.5 2.6-1.3 1.8-2.9 3.9-4.8 6.5-1.9 2.5-4.2 5.3-6.8 8.4-2.7 3.1-6 5.9-9.9 8.4s-8.5 4.7-13.7 6.5-11.3 2.6-18.2 2.6c-5.2 0-10.3-0.8-15.4-2.2-5-1.5-9.7-3.7-14-6.6s-8.1-6.4-11.5-10.5-6.1-8.7-8.2-13.8c-0.5-0.4-156.5 0-195.2 0-5.2 10.2-12.4 18.3-21.6 24.2-9.2 6-19.5 9-30.8 9-5.5 0-10.8-0.8-16-2.3-5.2-1.6-10-3.8-14.5-6.6-4.4-2.9-8.4-6.4-11.8-10.5-3.5-4.1-6.2-8.7-8.3-13.8h-28.3c-5.3 0-9.3-1.7-11.9-5s-4.4-7.2-5.4-11.5c-1-4.4-1.4-8.6-1.4-12.8 0.1-4.2 0.1-7.2 0.1-9 0-9.9 0.7-18.3 2-25.2s3.5-12.6 6.6-17 7.1-7.8 12.1-10.1 11.2-3.7 18.7-4.4c6.4-1.4 78.9-10.4 84.7-10.4 1.8-1.6 13.6-11.1 16.6-14.3 3.3-3.5 7.4-7.5 12.3-11.9 5-4.4 10.5-8.8 16.6-13.2s12.7-8.5 19.8-12.4c15.1-8.3 37.3-12.3 45.8-13s17.2-1.1 26.2-1.1c13.4 0 26.3 0.7 38.7 2.1s24.1 3.5 35.2 6.3c10.3 2.6 20 5.8 28.8 10 21.8 10.2 46.9 29 47.6 29.3zm-280.1 97.6 228.8 0.1v5.3c0 4.6 0.9 8.7 2.7 12.5s4.2 7 7.2 9.8c3 2.7 6.5 4.9 10.6 6.4 4 1.5 8.3 2.2 12.7 2.2 4.6 0 8.9-0.7 12.9-2.2s7.6-3.6 10.7-6.4c3.1-2.7 5.5-6 7.2-9.8 1.8-3.8 2.6-7.9 2.6-12.5v-5.3h5.1c1.6-0.5 21.4 0 23.1 0h2.7c1-0.1 1.8-0.6 2.2-1.3 0.5-0.7 0.7-2.4 0.7-5 0-7.4-1.1-14.9-3.2-22.5-2.2-7.6-4.6-14.3-7.2-20.3-2.7-6-5.1-10.8-7.2-14.5-2.2-3.6-3.2-5.3-3.2-5.1l-2.5-0.6h-36c-0.9 0-2.8-1.3-5.6-3.8s-6.7-5.7-11.7-9.4-11.3-7.8-18.8-12.2-16.4-8.5-26.7-12.2-22.1-6.8-35.4-9.4c-13.3-2.5-28.2-3.8-44.8-3.8-9.3 0-17.7 0.7-25.2 2-7.6 1.3-14.6 3.2-21.1 5.8-6.5 2.5-12.8 5.7-18.8 9.5s-12.1 8.1-18.2 13.1c-3.8 3.1-7.1 6.1-10.1 8.8-2.9 2.7-5.5 5.2-7.7 7.3-2.2 2.2-22.3 19.2-23.1 19.9 0 0-22.6 1.6-29.4 2.4s-13.9 1.7-21.1 2.6l-21.6 2.7c-7.2 0.9-13.9 1.8-20.1 2.5-5.5 0.7-8.5 2.5-10.7 3.9-3 1.9-5 20.3-5.3 23.1-0.3 2.7-0.5 5.3-0.5 7.8v2.7c0 1 0.1 2 0.2 2.8s0.4 1.6 0.9 2.2 1.2 0.9 2.2 0.9h36.2v2.7c0 4.6 0.9 8.7 2.6 12.5 1.8 3.8 4.1 7 7.1 9.8 3 2.7 6.5 4.9 10.6 6.4 4 1.5 8.3 2.2 12.9 2.2 4.4 0 8.7-0.8 12.7-2.2 4-1.5 7.6-3.6 10.6-6.4 3-2.7 5.4-6 7.2-9.8s2.7-7.9 2.7-12.5l0.1-2.7z" fill="#FFCE63"></path>
<polygon points="227.7 89.6 206.6 89.6 177.9 53.4 148 53.4 148 89.6 148 176.9 148 212.3 177.9 212.3 205.3 176.9 227.7 176.9" fill="#FFCE63"></polygon>
	<path d="m67.9 132.8c0 29.5 11.7 56.3 30.7 76.1l19.1-11.9c-17.1-16.1-27.9-38.9-27.9-64.2s10.7-48.1 27.9-64.2l-17.5-13.6c-19.9 19.9-32.3 47.5-32.3 77.8z" fill="#FFCE63"></path>
	<path d="m56.4 235.2 18.9-11.7c-21.9-23.9-35.2-55.7-35.2-90.6 0-36.8 14.8-70.1 38.8-94.4l-17.4-13.6c-26.9 28.1-43.4 66.1-43.4 107.9 0 39.2 14.5 75 38.3 102.4z" fill="#FFCE63"></path>
</svg>