<?xml version='1.0' encoding='utf-8'?>
<!-- Generator: Adobe Illustrator 16.0.3, SVG Export Plug-In . SVG Version: 6.00 Build 0)  --><svg xmlns="http://www.w3.org/2000/svg" xmlns:cc="http://creativecommons.org/ns#" xmlns:dc="http://purl.org/dc/elements/1.1/" xmlns:rdf="http://www.w3.org/1999/02/22-rdf-syntax-ns#" width="335.37px" height="425.2px" version="1.2" viewBox="0 0 335.37 425.2" xml:space="preserve"><metadata><rdf:RDF><cc:Work rdf:about=""><dc:format>image/svg+xml</dc:format><dc:type rdf:resource="http://purl.org/dc/dcmitype/StillImage"></dc:type><dc:title></dc:title></cc:Work></rdf:RDF></metadata>
<path d="m180.28 297.38c0 8.55-6.938 15.484-15.476 15.484-8.562 0-15.499-6.935-15.499-15.484 0-8.566 6.937-15.501 15.499-15.501 8.538 0 15.476 6.934 15.476 15.501z" fill="#000000"></path>
<path d="m297.3 183-9.063-9.062c-68.096-68.081-178.85-68.139-246.89-0.12l-9.059 9.053-18.115-18.114 9.058-9.054c37.764-37.755 87.998-58.548 141.45-58.548h0.067c53.478 0.017 103.77 20.858 141.6 58.67l9.062 9.059-18.111 18.116z" fill="#000000"></path>
<path d="m256.52 223.76-9.053-9.058c-45.608-45.601-119.79-45.637-165.35-0.085l-9.056 9.048-18.116-18.1 9.058-9.064c55.555-55.53 145.99-55.495 201.58 0.088l9.064 9.057-18.127 18.114z" fill="#000000"></path>
<path d="m215 265.28-9.063-9.052c-22.685-22.7-59.618-22.706-82.293-0.045l-9.062 9.067-18.112-18.135 9.061-9.049c32.667-32.655 85.832-32.642 118.54 0.047l9.051 9.061-18.117 18.106z" fill="#000000"></path>
<path d="m278.76 107.86c-2.219 0-4.435-0.846-6.126-2.534-3.388-3.381-3.395-8.868-0.014-12.255l33.777-33.831c3.375-3.388 8.868-3.393 12.247-0.014 3.388 3.384 3.394 8.871 0.012 12.257l-33.764 33.833c-1.7 1.694-3.913 2.544-6.132 2.544z" fill="#000000"></path>
<path d="m46.862 340.16c-2.217 0-4.43-0.846-6.123-2.531-3.387-3.387-3.392-8.869-0.011-12.257l42.367-42.438c3.383-3.396 8.87-3.4 12.254-0.011 3.39 3.369 3.396 8.861 0.012 12.242l-42.368 42.453c-1.69 1.695-3.911 2.542-6.131 2.542z" fill="#000000"></path>
</svg>