<?xml version='1.0' encoding='utf-8'?>
<!-- Generator: Adobe Illustrator 16.0.0, SVG Export Plug-In . SVG Version: 6.00 Build 0)  --><svg xmlns="http://www.w3.org/2000/svg" xmlns:cc="http://creativecommons.org/ns#" xmlns:dc="http://purl.org/dc/elements/1.1/" xmlns:ns="&amp;ns_sfw;" xmlns:rdf="http://www.w3.org/1999/02/22-rdf-syntax-ns#" width="457px" height="406px" version="1.2" viewBox="0 0 457 406" xml:space="preserve">
<metadata>
	<ns:sfw>
		<ns:slices></ns:slices>
		<ns:sliceSourceBounds x="218.93" y="191.45" width="405.943" height="242.55" bottomLeftOrigin="true"></ns:sliceSourceBounds>
	</ns:sfw>
<rdf:RDF><cc:Work rdf:about=""><dc:format>image/svg+xml</dc:format><dc:type rdf:resource="http://purl.org/dc/dcmitype/StillImage"></dc:type><dc:title></dc:title></cc:Work></rdf:RDF></metadata>
	<path d="m26.929 309.05v-242.47h84.066c4.409-0.389 32.142 0.714 40.771 3.308 8.626 2.597 16.15 6.65 22.572 12.163 6.424 5.516 11.448 12.553 15.082 21.114 3.632 8.563 5.449 18.813 5.449 30.747 0 12.716-2.369 23.352-7.103 31.916-4.737 8.563-11.063 15.471-18.976 20.725-7.915 5.254-17.094 8.984-27.536 11.189-10.442 2.207-21.375 3.309-32.789 3.309h-45.535v108h-36.001zm36.002-136.8h56.629c2.724 0 6.322-0.42 10.8-1.269 4.476-0.842 8.821-2.627 13.038-5.352 4.214-2.723 7.848-6.583 10.896-11.579 3.047-4.992 4.573-11.707 4.573-20.141 0-8.432-1.526-15.18-4.573-20.238-3.05-5.061-6.684-8.952-10.896-11.676-4.217-2.725-8.563-4.506-13.038-5.352-4.478-0.843-8.076-1.266-10.8-1.266h-56.629v76.873zm167.94-40.868v2.53c0 9.73-0.973 18.65-2.919 26.758-1.943 8.109-4.64 15.441-8.076 21.99-3.438 6.553-7.492 12.391-12.163 17.514-4.67 5.127-9.729 9.506-15.179 13.137l-12.063-12.26c4.67-3.504 9.077-7.521 13.231-12.066 4.15-4.538 7.717-9.6 10.703-15.178 2.983-5.578 5.352-11.676 7.103-18.293 1.753-6.615 2.629-13.816 2.629-21.601 0-1.167-0.073-2.53-0.073-2.53l16.807-1e-3zm43.202 0v2.53c0 13.105-1.266 25.234-3.795 36.39-2.53 11.16-6.033 21.279-10.509 30.357-4.477 9.084-9.764 17.063-15.859 23.938-6.1 6.877-12.778 12.648-20.044 17.318l-12.066-12.064c5.968-4.799 11.579-10.346 16.835-16.639 5.254-6.291 9.827-13.428 13.719-21.406 3.893-7.979 6.973-16.766 9.244-26.369 2.269-9.598 3.404-20.106 3.404-31.523v-2.53l19.071-2e-3zm40.671 0c0 17.515-1.524 33.375-4.57 47.581-3.052 14.205-7.27 27.117-12.649 38.725-5.385 11.613-11.71 21.961-18.974 31.039-7.27 9.084-15.115 17.193-23.547 24.326l-12.868-13.09c8.432-6.617 14.648-12.92 21.723-21.354 7.069-8.435 13.136-17.904 18.195-28.412 5.06-10.511 9.016-22.088 11.87-34.736 2.853-12.648 4.279-26.497 4.279-41.547v-2.53l16.541-2e-3zm-9.341 177.67h122.4c1.296 0 2.433-0.584 3.405-1.752 0.974-1.168 2.131-3.143 1.46-5.449l-4.865-16.733h-124.74s-4.563 15.897-4.563 18.36c2e-3 2.337 2.098 5.574 6.898 5.574zm14.401-40.672 35.807-148.87c0.55-2.832 1.892-9.383 9.925-9.729 9.456-0.409 10.778 7.26 11.679 9.729l36.193 148.87h-93.604zm46.571-116.38-24.97 97.113h50.401l-25.431-97.113z" fill="#000000"></path>
</svg>