<?xml version='1.0' encoding='utf-8'?>
<!-- Generator: Adobe Illustrator 16.0.3, SVG Export Plug-In . SVG Version: 6.00 Build 0)  --><svg xmlns="http://www.w3.org/2000/svg" xmlns:cc="http://creativecommons.org/ns#" xmlns:dc="http://purl.org/dc/elements/1.1/" xmlns:rdf="http://www.w3.org/1999/02/22-rdf-syntax-ns#" width="451.66px" height="425.2px" enable-background="new 0 0 451.658 425.197" version="1.1" viewBox="0 0 451.66 425.2" xml:space="preserve"><metadata><rdf:RDF><cc:Work rdf:about=""><dc:format>image/svg+xml</dc:format><dc:type rdf:resource="http://purl.org/dc/dcmitype/StillImage"></dc:type><dc:title></dc:title></cc:Work></rdf:RDF></metadata><g clip-rule="evenodd" fill-rule="evenodd">
<path d="m161.82 115.63 9.949-39.61h122.97l9.949 39.61h17.775v6.899h17.52v12.448h-17.52v37.037c-4.127-0.472-8.287-0.772-12.447-0.891v-18.183h-34.705v-12.453h34.705v-12.41h-153.54v12.41h34.716v12.453h-34.716v21.582h117.39c-11.986 2.638-23.705 6.786-34.865 12.447h-68.993v34.497h-25.978v-86.49h-17.508v-12.448h17.508v-6.899h17.787v1e-3zm12.823 0h117.23l-6.819-27.163h-103.59l-6.818 27.163z" fill="#000000"></path>
<path d="m402.8 172.29-20.521-46.66h-30.632l16.994 46.66h34.159zm-34.417-78.224-16.447-37.369h-25.398l13.616 37.369h28.229zm-312.64 176.22h-41.578l29.838-67.802h36.442l-24.702 67.802zm1.544-97.993 20.531-46.66h30.62l-16.993 46.66h-34.158zm34.415-78.224 16.446-37.369h25.399l-13.615 37.369h-28.23z" fill="#000000"></path>
<path d="m398.94 225.39c-51.398-51.699-135.07-51.699-186.77 0-28.122 28.122-40.859 65.915-38.2 102.79h38.2v-19.117h-19.116c1.876-20.992 9.402-41.362 22.879-58.913l23.501 2.198c-2.198-23.502-2.198-23.502-2.198-23.502 17.551-13.477 37.921-21.003 58.913-22.569v18.806h19.117v-18.806c20.682 1.565 41.363 9.092 58.604 22.569-2.199 23.502-2.199 23.502-2.199 23.502l23.813-2.198c13.166 17.551 20.682 37.921 22.568 58.913h-18.805v19.117h37.889c2.65-36.871-10.077-74.664-38.199-102.79z" fill="#000000"></path>
<path d="m298.98 298.09c-34.469-34.781-34.469-34.781-34.469-34.781l-20.682-6.582 6.572 20.682 34.791 34.469c-2.51 7.526-0.633 15.985 5.006 21.937 8.471 8.459 22.258 8.459 30.717 0 8.459-8.46 8.459-21.937 0-30.396-5.95-5.952-14.409-7.839-21.935-5.329z" fill="#000000"></path>
</g></svg>