<?xml version='1.0' encoding='utf-8'?>
<!-- Generator: Adobe Illustrator 25.0.0, SVG Export Plug-In . SVG Version: 6.00 Build 0)  --><svg xmlns="http://www.w3.org/2000/svg" xmlns:cc="http://creativecommons.org/ns#" xmlns:dc="http://purl.org/dc/elements/1.1/" xmlns:rdf="http://www.w3.org/1999/02/22-rdf-syntax-ns#" overflow="visible" version="1.2" viewBox="0 0 502.7 512.3" xml:space="preserve" width="392.5044" height="400.0"><metadata><rdf:RDF><cc:Work rdf:about=""><dc:format>image/svg+xml</dc:format><dc:type rdf:resource="http://purl.org/dc/dcmitype/StillImage"></dc:type><dc:title></dc:title></cc:Work></rdf:RDF></metadata>
<path d="m187.6 422.5v-41.1c0-9.3-1.7-17.9-5.2-25.9s-8.2-15-14.2-21-13-10.7-21-14.2-16.5-5.2-25.6-5.2h-26.7c-9.3 0-17.9 1.7-25.9 5.2s-15.1 8.2-21.1 14.2c-6.1 6-10.9 13-14.3 21-3.5 8-5.2 16.6-5.2 25.9v40.8l-7.5 18.3 7.5 9.5v33.8h159.2v-33.8l10.2-10.7-10.2-16.8zm-37.3 47.1c-4.8-1.5-16.4-2.7-22.4-3.5s-12.4-1.2-19.4-1.2c-6.8 0-13.2 0.4-19.4 1.2s-17.9 1.9-22.7 3.5l-21.3-47.2c4.8-2.7 24.1-13.6 64.2-13.6 39.9 0 57.6 10.9 61.8 13.6l-20.8 47.2z" fill="#000000"></path>
<path d="m471.3 118.6v-23.2c0-9.3-1.7-17.9-5.2-25.9s-8.3-15-14.3-21c-6.1-6-13.1-10.7-21.1-14.2s-16.6-5.2-25.9-5.2h-26.6c-9.1 0-17.6 1.7-25.6 5.2s-15 8.2-21 14.2-10.7 13-14.2 21-5.2 16.6-5.2 25.9v26.8l-10.9 14.3 10.9 10.5v148.7c0 7.3 1.4 14.3 4.2 20.8 2.8 6.6 6.6 12.3 11.4 17.1s10.5 8.6 17.1 11.4 13.5 4.2 20.8 4.2h51.8c7.5 0 14.5-1.4 21-4.2s12.2-6.6 17.1-11.4 8.8-10.5 11.6-17.1 4.2-13.5 4.2-20.8v-152.4l11.7-6.8-11.8-17.9zm-78.4 187c-40 0-54.5-10.9-59.3-13.6l4.2-32.7c4.8 1.5 30.5 4.6 55.1 4.6 23.4 0.1 48-3.1 52.8-4.6l4.2 32.7c-4.1 2.7-17.1 13.6-57 13.6zm45.7-141.6c-4.8-1.5-23-11.6-46.4-11.5-24.6 0.1-46.6 10.3-51.5 11.9l-12.1-45.7c4.8-2.7 22.9-15.8 63-15.8 39.9 0 58.8 13.1 63 15.8l-16 45.3z" fill="#000000"></path>
<path d="m282.3 425.5 10.5-21.5c-14.8-11.9-27.8-25.7-38.9-41.5-10.3-14.7-17.5-27.8-23.5-44.5l-24 3c7 19.9 16.9 38.9 29.5 56.6 13.3 18.5 28.7 34.4 46.4 47.9z" fill="#000000"></path>
<path d="m296.7 371.3 11-22.6c-4.4-4.7-8.5-9.6-12.2-14.8-5-7-7.5-10.7-10.9-18.5l-24.9 1.8c4.3 10.7 9.7 20.8 16.4 30.3 6.2 8.7 13 16.7 20.6 23.8z" fill="#000000"></path>
</svg>