<?xml version='1.0' encoding='utf-8'?>
<!-- Generator: Adobe Illustrator 16.0.3, SVG Export Plug-In . SVG Version: 6.00 Build 0)  --><svg xmlns="http://www.w3.org/2000/svg" xmlns:cc="http://creativecommons.org/ns#" xmlns:dc="http://purl.org/dc/elements/1.1/" xmlns:rdf="http://www.w3.org/1999/02/22-rdf-syntax-ns#" width="311.81px" height="425.2px" version="1.2" viewBox="0 0 311.81 425.2" xml:space="preserve"><metadata><rdf:RDF><cc:Work rdf:about=""><dc:format>image/svg+xml</dc:format><dc:type rdf:resource="http://purl.org/dc/dcmitype/StillImage"></dc:type><dc:title></dc:title></cc:Work></rdf:RDF></metadata><g fill-rule="evenodd">
<path d="m155.92 56.693c-78.158 0-141.74 63.583-141.74 141.74 0 78.149 63.586 141.73 141.74 141.73 78.147 0 141.72-63.577 141.72-141.73 1e-3 -78.155-63.573-141.74-141.72-141.74zm0 266.19c-47.38 0-88.658-26.609-109.68-65.664 1.398-1.276 2.764-2.587 3.964-4.077 2.551-3.174 5.725-6.35 6.501-10.501 1.338-7.166 1.262-14.874-0.435-21.957-1.165-4.86-4.687-8.727-7.799-12.412-2.877-3.396-5.884-7.434-9.969-8.591-2.299-0.652-4.661-0.849-7.046-0.803 0-0.149-6e-3 -0.298-6e-3 -0.448 0-66.732 52.793-121.36 118.81-124.33-4e-3 0.042 0 0.09-4e-3 0.132-0.54 5.927-7.956 10.929-11.033 16.023-3.032 5.013-25.477 0.714-28.279 5.852-3.9 7.151 13.978 6.176 7.802 18.203-3.208 6.245-19.701 8.239-10.077 13.652 15.602 8.776 33.432-12.43 38.547-13.421 4.835-0.936 8.44-0.517 13.356-0.342 4.279 0.155 3.565 4.432 7.256 6.611 7.578 4.47 9.528 0.175 16.254 5.852 2.168 1.833 5.335 7.164 5.655 9.983 0.555 4.884-2.079 10.515 0.433 14.739 1.87 3.136 18.607 12.753 18.607 17.769 0 4.596 5.41 8.925 9.971 9.534 4.672 0.629 11.073-2.024 12.568-6.499 2.095-6.289-4.276-9.246-1.692-15.356 1.57-3.727 8.792-2.272 12.136 0 5.238 3.558 4.371 6.764 8.624 11.454 4.199 4.637 8.203 10.751 14.303 12.139 4.664 1.06 8.999-6.574 13.368-5.911 1.512 7.743 2.314 15.738 2.314 23.917-1e-3 68.623-55.828 124.45-124.45 124.45z" fill="#000000"></path>
<path d="m207.67 243.32c-4.691 8.712-8.016 28.964 4.452 13.49 12.465-15.472 6.232-33.327-4.452-13.49z" fill="#000000"></path>
<path d="m204.86 175.23c-5.131-4.36-8.779-10.236-13.631-14.901-3.235-3.102-6.251-15.424-10.561-16.676-5.772-1.682-12.321 1.875-18.031 0-8.56-2.81-14.737-5.946-23.341-8.609-9.28-2.872-19.529-1.286-29.03 0.743-6.005 1.281-10.846 6.634-14.075 11.834-4.662 7.501-8.145 16.177-8.798 24.979-0.432 5.848 1.842 12.236 5.719 16.652 2.959 3.375 8.405 5.729 12.754 6.877 11.794 3.106 24.697 0.441 35.628 5.845 5.373 2.649 0.638 8.808 2.549 14.46 1.794 5.262 1.256 11.181 2.212 16.653 1.269 7.238 5.029 13.765 6.066 21.034 1.044 7.382 2.455 15.744 5.912 22.35 1.73 3.306 8.317 0.412 11.001-2.187 3.758-3.656 11.143-10.181 14.168-14.465 2.978-4.232 6.378-6.393 9.497-10.514 4.154-5.491 1.929-11.437 4.047-17.976 2.355-7.29-0.398-15.941 3.078-22.786 2.958-5.82 11.171-7.375 14.95-12.708 2.523-3.567 5.003-8.804 3.079-12.722-2.253-4.584-9.289-4.571-13.193-7.883z" fill="#000000"></path>
</g></svg>