<?xml version='1.0' encoding='utf-8'?>
<!-- Generator: Adobe Illustrator 16.0.3, SVG Export Plug-In . SVG Version: 6.00 Build 0)  --><svg xmlns="http://www.w3.org/2000/svg" xmlns:cc="http://creativecommons.org/ns#" xmlns:dc="http://purl.org/dc/elements/1.1/" xmlns:rdf="http://www.w3.org/1999/02/22-rdf-syntax-ns#" width="354.95px" height="425.2px" version="1.2" viewBox="0 0 354.95 425.2" xml:space="preserve"><metadata><rdf:RDF><cc:Work rdf:about=""><dc:format>image/svg+xml</dc:format><dc:type rdf:resource="http://purl.org/dc/dcmitype/StillImage"></dc:type><dc:title></dc:title></cc:Work></rdf:RDF></metadata>
<path d="m324.58 201.99c-1.956-1.082-8.993-7.874-11.841-10.853l-0.147-7.832c1.332-2.625 2.378-5.879 2.988-9.49 3.851-4.08 5.503-8.081 6.099-13.259 0.279-2.417-0.029-4.882-1.707-4.519 2.59-20.294-4.1-26.397-16.561-27.709-4.068-6.127-19.659-2.415-25.526 4.413-6.341 1.285-7.345 9.152-6.262 23.151-1.556 0.212-2.048 1.998-1.485 5.418 1.006 6.189 3.351 10.134 6.307 12.583 0.162 3.312 1.368 6.527 2.55 8.956v8.896c-6.98 5.841-11.284 8.584-13.996 9.94-1.382 0.697-7.495 2.17-13.156 3.449-3.755-1.073-7.33-2.228-8.995-3.145-1.956-1.082-8.993-7.874-11.841-10.853l-0.147-7.832c1.332-2.625 2.378-5.879 2.988-9.49 3.851-4.08 5.503-8.081 6.099-13.259 0.279-2.417-0.029-4.882-1.707-4.519 2.589-20.294-4.1-26.397-16.561-27.709-4.068-6.127-19.659-2.415-25.526 4.413-6.341 1.285-7.345 9.152-6.262 23.151-1.556 0.212-2.048 1.998-1.485 5.418 1.006 6.189 3.351 10.134 6.307 12.583 0.162 3.312 1.368 6.527 2.55 8.956v8.896c-6.98 5.841-11.285 8.584-13.996 9.94-2.132 1.074-20.893 5.18-28.813 6.885-4.324-4.109-8.561-8.317-11.163-11.027l-0.322-16.746c2.827-5.601 5.083-12.55 6.37-20.274 8.224-8.711 11.755-17.27 13.048-28.322 0.606-5.18-0.07-10.443-3.648-9.656 5.514-43.372-8.749-56.412-35.402-59.217-8.698-13.087-41.991-5.158-54.542 9.427-13.55 2.751-15.69 19.561-13.364 49.469-3.344 0.452-4.38 4.28-3.193 11.586 2.15 13.214 7.156 21.644 13.499 26.887 0.332 7.07 2.903 13.942 5.421 19.136v18.998c-14.903 12.489-24.096 18.345-29.889 21.242-2.872 1.436-15.297 4.453-27.1 7.131v31.988 80.967h326.6v-133.1c-5.375-1.36-13.424-3.545-16.194-5.071z" fill="#000000"></path>
</svg>