<?xml version='1.0' encoding='utf-8'?>
<!-- Generator: Adobe Illustrator 16.0.0, SVG Export Plug-In . SVG Version: 6.00 Build 0)  --><svg xmlns="http://www.w3.org/2000/svg" xmlns:cc="http://creativecommons.org/ns#" xmlns:dc="http://purl.org/dc/elements/1.1/" xmlns:ns="&amp;ns_sfw;" xmlns:rdf="http://www.w3.org/1999/02/22-rdf-syntax-ns#" width="331px" height="432px" version="1.2" viewBox="0 0 331 432" xml:space="preserve">
<metadata>
	<ns:sfw>
		<ns:slices></ns:slices>
		<ns:sliceSourceBounds x="278.767" y="155.771" width="283.464" height="283.463" bottomLeftOrigin="true">
			</ns:sliceSourceBounds>
	</ns:sfw>
	<rdf:RDF>
		<cc:Work rdf:about="">
			<dc:format>image/svg+xml</dc:format>
			<dc:type rdf:resource="http://purl.org/dc/dcmitype/StillImage"></dc:type>
			<dc:title></dc:title>
		</cc:Work>
	</rdf:RDF>
	<ns:sfw>
		<ns:slices></ns:slices>
		<ns:sliceSourceBounds x="278.769" y="172.131" width="283.464" height="283.466" bottomLeftOrigin="true"></ns:sliceSourceBounds>
	</ns:sfw>
</metadata>
<path d="m284.94 275.87c0.305-0.404 0.574-0.836 0.807-1.293 13.607-21.756 21.488-47.443 21.488-74.943 0-27.498-7.879-53.186-21.484-74.939-0.232-0.461-0.506-0.895-0.813-1.303-20.721-32.345-54.207-55.75-93.295-63.065-0.055-0.012-0.107-0.021-0.162-0.032-8.42-1.565-17.098-2.392-25.963-2.392-8.818 0-17.45 0.817-25.828 2.365-0.133 0.024-0.266 0.046-0.396 0.077-39.041 7.332-72.489 30.712-93.196 63.01-0.327 0.428-0.613 0.886-0.854 1.371-13.599 21.748-21.472 47.424-21.472 74.909 0 27.487 7.875 53.165 21.474 74.913 0.24 0.482 0.524 0.938 0.85 1.359 20.699 32.289 54.132 55.666 93.154 63.01 0.097 0.02 0.192 0.035 0.291 0.055 8.426 1.568 17.107 2.396 25.98 2.396 8.932 0 17.67-0.84 26.146-2.428 0.012-5e-3 0.025-7e-3 0.039-9e-3 39.058-7.329 72.526-30.729 93.234-63.061zm-110.84 48.021v-44.598h36.529c-6.584 15.299-15.127 29.83-25.541 43.355-3.613 0.575-7.277 0.989-10.988 1.243zm-28.196-1.246c-10.414-13.523-18.953-28.056-25.539-43.353h36.563v44.598c-3.721-0.255-7.399-0.671-11.024-1.245zm-104.66-114.43h45.869c0.698 18.502 3.666 36.558 8.801 53.902h-38.125c-9.347-16.046-15.207-34.363-16.545-53.902zm16.547-71.075h38.127c-5.137 17.346-8.104 35.401-8.805 53.903h-45.869c1.338-19.54 7.198-37.855 16.547-53.903zm99.143-61.769v44.596h-36.559c6.588-15.296 15.129-29.827 25.545-43.351 3.621-0.575 7.295-0.991 11.014-1.245zm28.148 1.239c10.418 13.526 18.961 28.058 25.547 43.356h-36.521v-44.595c3.703 0.253 7.365 0.667 10.974 1.239zm104.68 114.43h-45.869c-0.699-18.502-3.668-36.557-8.807-53.904h38.133c9.348 16.049 15.205 34.364 16.543 53.904zm-16.543 71.076h-38.129c5.137-17.351 8.104-35.402 8.803-53.904h45.869c-1.338 19.54-7.195 37.855-16.543 53.904zm-56.108 0h-43.006v-53.904h52.605c-0.761 18.566-3.999 36.636-9.599 53.904zm9.6-71.076h-52.605v-53.904h43.004c5.601 17.267 8.839 35.34 9.601 53.904zm-69.778-53.904v53.904h-52.642c0.764-18.564 4.002-36.637 9.604-53.904h43.038zm-52.642 71.075h52.642v53.904h-43.039c-5.603-17.267-8.84-35.337-9.603-53.904zm106.59 107.42c7.279-11.594 13.4-23.744 18.322-36.342h31.979c-13.34 15.997-30.602 28.612-50.301 36.342zm50.301-195.66h-31.98c-4.924-12.598-11.047-24.749-18.328-36.345 19.698 7.731 36.966 20.346 50.308 36.345zm-141.06-36.335c-7.277 11.593-13.398 23.74-18.319 36.334h-31.976c13.338-15.991 30.601-28.601 50.295-36.334zm-50.297 195.66h31.973c4.92 12.594 11.039 24.74 18.314 36.332-19.691-7.732-36.949-20.341-50.287-36.332z" fill="#000000"></path>
</svg>