<?xml version='1.0' encoding='utf-8'?>
<!-- Generator: Adobe Illustrator 16.0.3, SVG Export Plug-In . SVG Version: 6.00 Build 0)  --><svg xmlns="http://www.w3.org/2000/svg" xmlns:cc="http://creativecommons.org/ns#" xmlns:dc="http://purl.org/dc/elements/1.1/" xmlns:rdf="http://www.w3.org/1999/02/22-rdf-syntax-ns#" width="244.33px" height="425.2px" version="1.2" viewBox="0 0 244.33 425.2" xml:space="preserve"><metadata><rdf:RDF><cc:Work rdf:about=""><dc:format>image/svg+xml</dc:format><dc:type rdf:resource="http://purl.org/dc/dcmitype/StillImage"></dc:type><dc:title></dc:title></cc:Work></rdf:RDF></metadata>
<path d="m230.15 340.16h-215.98v-283.46h215.98v283.46zm-157.56-249.66h-33.333v33.333h33.333v-33.333zm66.256 0h-33.333v33.333h33.333v-33.333zm66.233 0h-33.332v33.333h33.332v-33.333zm-132.49 58.167h-33.333v33.333h33.333v-33.333zm66.256 0h-33.333v33.333h33.333v-33.333zm66.233 0h-33.332v33.333h33.332v-33.333zm-132.49 58.166h-33.333v33.333h33.333v-33.333zm66.256 0h-33.333v33.333h33.333v-33.333zm66.233 0h-33.332v33.333h33.332v-33.333zm-66.233 50.069h-33.333v33.332h33.333v-33.332z" fill-rule="evenodd" fill="#000000"></path>
</svg>