<?xml version='1.0' encoding='utf-8'?>
<!-- Generator: Adobe Illustrator 16.0.0, SVG Export Plug-In . SVG Version: 6.00 Build 0)  --><svg xmlns="http://www.w3.org/2000/svg" xmlns:cc="http://creativecommons.org/ns#" xmlns:dc="http://purl.org/dc/elements/1.1/" xmlns:rdf="http://www.w3.org/1999/02/22-rdf-syntax-ns#" width="647.17px" height="425.2px" version="1.2" viewBox="0 0 647.17 425.2" xml:space="preserve"><metadata><rdf:RDF><cc:Work rdf:about=""><dc:format>image/svg+xml</dc:format><dc:type rdf:resource="http://purl.org/dc/dcmitype/StillImage"></dc:type><dc:title></dc:title></cc:Work></rdf:RDF></metadata>

	<rect transform="matrix(.7071 -.7071 .7071 .7071 -58.364 285.38)" x="39.59" y="208.25" width="551.44" height="9.786" fill="#000000"></rect>
	
		<rect transform="matrix(-.7071 -.7071 .7071 -.7071 387.55 586.81)" x="39.589" y="208.25" width="551.44" height="9.786" fill="#000000"></rect>


	<polygon points="381.73 136.6 396.73 121.6 233.89 121.6 248.89 136.6" fill="#000000"></polygon>
	<polygon points="360.64 268.6 269.98 268.6 254.98 283.6 375.64 283.6" fill="#000000"></polygon>
	<path d="m477.67 136.6v132h-96.777l15 15h96.777v-70.459c-0.539-0.033-0.097-20.033-0.097-20.033 0.019 0 0.065 3e-3 0.097 4e-3v-71.513h-75.688l-15 15h75.688z" fill="#000000"></path>
	<polygon points="66.667 268.6 66.667 136.6 228.64 136.6 213.64 121.6 51.667 121.6 51.667 283.6 234.72 283.6 249.72 268.6" fill="#000000"></polygon>
	<path d="m134.17 139.6c-35.014 0-63.5 28.486-63.5 63.5s28.486 63.5 63.5 63.5 63.5-28.486 63.5-63.5c0-35.015-28.486-63.5-63.5-63.5zm47.56 73c-4.429 22.209-24.067 39-47.56 39s-43.131-16.791-47.56-39h8.893v-17.167h-9.222c3.687-23.112 23.754-40.833 47.888-40.833s44.201 17.721 47.888 40.833h-8.884v17.167h8.557z" fill="#000000"></path>
	<circle cx="134.17" cy="173.1" r="11" fill="#000000"></circle>
	<circle cx="134.17" cy="234.1" r="11" fill="#000000"></circle>
	<path d="m272.17 154.6c24.136 0 44.203 17.721 47.891 40.833h-8.884v3.458l4.127 4.127 17.791-17.791c-7.74-26.337-32.114-45.627-60.925-45.627-6.159 0-12.108 0.898-17.743 2.541l12.726 12.726c1.65-0.171 3.322-0.267 5.017-0.267z" fill="#000000"></path>
	<path d="m333.14 220.84c1.644-5.636 2.542-11.586 2.542-17.745 0-0.064-5e-3 -0.128-5e-3 -0.192l-10.237 10.237 7.7 7.7z" fill="#000000"></path>
	<path d="m290.63 247.94-18.65 18.65c0.064 0 0.126 5e-3 0.19 5e-3 23.389 0 43.85-12.719 54.869-31.593l-11.084-11.084c-5.162 10.813-14.207 19.429-25.325 24.022z" fill="#000000"></path>
	<path d="m224.61 212.6h8.893v-17.167h-9.222c2.548-15.976 12.926-29.372 27.061-36.124l-11.078-11.078c-18.875 11.019-31.595 31.479-31.595 54.868 0 28.809 19.291 53.183 45.629 60.923l12.707-12.707c-21.158-2.251-38.295-18.157-42.395-38.715z" fill="#000000"></path>
	<path d="m261.17 173.1c0 6.075 4.925 11 11 11 1.193 0 2.339-0.196 3.415-0.547l-13.868-13.868c-0.351 1.075-0.547 2.221-0.547 3.415z" fill="#000000"></path>
	<path d="m274.69 162.4 8.184 8.184c-0.95-4.052-4.133-7.234-8.184-8.184z" fill="#000000"></path>
	<path d="m272.17 223.1c-6.075 0-11 4.925-11 11s4.925 11 11 11c0.374 0 0.743-0.02 1.107-0.056l9.837-9.837c0.036-0.364 0.056-0.733 0.056-1.107 0-6.076-4.925-11-11-11z" fill="#000000"></path>
	<path d="m408.19 266.6c35.017 0 63.503-28.486 63.503-63.5s-28.486-63.5-63.503-63.5c-3.403 0-6.742 0.276-10.002 0.794l-52.707 52.707c-0.518 3.259-0.794 6.597-0.794 9.999 0 35.013 28.487 63.5 63.503 63.5zm0-112c24.136 0 44.203 17.721 47.891 40.833h-8.884v17.167h8.556c-4.43 22.209-24.069 39-47.563 39s-43.133-16.791-47.562-39h8.894v-17.167h-9.223c3.687-23.112 23.756-40.833 47.891-40.833z" fill="#000000"></path>
	<circle cx="408.19" cy="173.1" r="11" fill="#000000"></circle>
	<circle cx="408.19" cy="234.1" r="11" fill="#000000"></circle>
	<path d="m423.66 364.11c-62.372-6.281-126.41-23.551-163.16-43.759-10.219-5.679-20.333-9.582-30.14-12.132l-16.277 16.277c12.187 1.69 24.818 5.767 37.084 13.521 39.523 21.731 104.66 39.362 170.49 45.992 14.398 1.45 32.778 2.734 52.693 2.734 1.46 0 2.931-9e-3 4.406-0.023l-20.244-20.244c-11.229-0.379-22.864-1.159-34.851-2.366z" fill="#000000"></path>
	<path d="m632.66 291.11c-1.867-38.442-27.227-67.641-73.335-84.437-32.736-11.925-65.642-13.473-67.819-13.565l0.333 20.032c10.936 0.667 117.45 8.974 120.84 78.94 1.086 22.356-8.187 39.347-28.349 51.939-22.985 14.356-59.991 22.154-105.32 22.691l19.363 19.363c34.314-1.955 70.196-8.627 96.557-25.092 26.111-16.307 39.158-40.468 37.729-69.871z" fill="#000000"></path>
	<path d="m130.34 322.23c-8.257-13.771-21.334-21.333-32.152-17.634l-0.02-0.051-52.165 19.906 3.906 10.236-23.561 8.99 5e-3 0.013c-12.719 4.939-12.93 8.214-11.62 11.647 1.312 3.438 3.65 5.739 16.429 0.956l2e-3 4e-3 23.56-8.99 8.99 23.559-23.561 8.99 6e-3 0.016c-12.72 4.938-12.931 8.213-11.62 11.647 1.311 3.436 3.649 5.735 16.428 0.953l2e-3 7e-3 23.561-8.99 4.281 11.22 52.166-19.905-0.017-0.044c10.536-4.446 15.252-18.802 12.231-34.579 0 0 25.209-14.993 57.473-16.522l18.625-18.624c-46.821-5.392-82.949 17.195-82.949 17.195z" fill="#000000"></path>

</svg>