<?xml version='1.0' encoding='utf-8'?>
<!-- Generator: Adobe Illustrator 16.0.0, SVG Export Plug-In . SVG Version: 6.00 Build 0)  --><svg xmlns="http://www.w3.org/2000/svg" xmlns:cc="http://creativecommons.org/ns#" xmlns:dc="http://purl.org/dc/elements/1.1/" xmlns:ns="&amp;ns_sfw;" xmlns:rdf="http://www.w3.org/1999/02/22-rdf-syntax-ns#" width="467px" height="516px" enable-background="new 0 0 467 516" version="1.1" viewBox="0 0 467 516" xml:space="preserve">
<metadata>
	<ns:sfw>
		<ns:slices></ns:slices>
		<ns:sliceSourceBounds x="230.023" y="78.349" width="379.035" height="437.694" bottomLeftOrigin="true"></ns:sliceSourceBounds>
	</ns:sfw>
<rdf:RDF><cc:Work rdf:about=""><dc:format>image/svg+xml</dc:format><dc:type rdf:resource="http://purl.org/dc/dcmitype/StillImage"></dc:type><dc:title></dc:title></cc:Work></rdf:RDF></metadata>
<path d="m220.62 360.51v-12.525h-24.812v12.525h-34.637v-12.525h-21.614v12.525h-46.918s-8.023-25.951-8.844-28.737c-0.82-2.783-1.719-5.688-2.701-8.724-0.983-3.025-11.545-24.933-13.021-27.88l-0.981-1.966c-3.278-6.387-6.349-13.303-9.212-20.757-2.866-7.449-5.403-15.229-7.614-23.336-2.21-8.106-3.973-16.416-5.281-24.933-1.313-8.514-1.965-17.111-1.965-25.792 0-14.9 1.965-29.067 5.896-42.497 3.932-13.426 8.476-25.954 13.634-37.583 5.158-11.625 10.354-22.392 15.599-32.302 5.239-9.907 9.088-18.792 11.545-26.652 0 0 2.333-7.205 2.58-10.317 0.246-3.109 0.368-6.302 0.368-9.58h46.918l-0.491 3.439c-0.819 4.752-1.72 9.542-2.7 14.37-0.981 4.833-2.132 9.458-3.438 13.879-1.313 4.422-2.948 8.475-4.913 12.16s-4.261 6.755-6.878 9.211c-7.859 7.208-15.069 14.658-21.617 22.354-6.552 7.699-12.2 15.844-16.947 24.441-4.752 8.598-8.477 17.81-11.179 27.635s-4.053 20.473-4.053 31.934c1.144 14.903 3.027 27.8 5.649 38.688 2.616 10.893 6.223 20.922 10.809 30.091 4.583 9.174 10.193 18.098 16.826 26.775 6.633 8.682 14.451 18.178 23.459 28.491h214.69c4.748-2.126 9.373-5.4 13.879-9.822 4.502-4.425 9.457-11.303 14.861-20.637 3.931-6.713 7.737-13.879 11.422-21.491 3.688-7.615 6.917-15.395 9.703-23.339 2.783-7.938 5.036-16.087 6.756-24.439 1.719-8.353 2.579-16.619 2.579-24.81 0-10.479-1.474-20.673-4.422-30.583-2.947-9.906-6.878-19.363-11.791-28.372-4.913-9.004-10.524-17.479-16.826-25.424-6.307-7.941-10.493-12.919-17.442-19.476-1.496-1.414-4.575-4.252-7.119-7.176-2.356-2.709-4.141-6.345-6.267-10.194-2.131-3.846-3.931-7.776-5.401-11.791-1.477-4.011-2.212-7.408-2.212-10.194v-15.72h46.918c0 2.295-0.041 4.261-0.122 5.896-0.084 1.639-0.123 3.278-0.123 4.913 0 1.965 0.123 3.972 0.368 6.018 0.244 2.05 0.815 4.506 1.72 7.369 0.896 2.867 2.127 6.387 3.685 10.563s3.727 9.376 6.511 15.598c11.791 15.229 20.84 32.264 27.146 51.094 6.303 18.834 9.458 38.159 9.458 57.972 0 17.36-2.541 34.229-7.615 50.604-5.078 16.378-11.545 31.604-19.404 45.688-5.403 9.825-9.989 20.311-13.758 31.441-3.769 11.139-6.387 22.438-7.857 33.897h-50.111v-12.526h-18.676v12.526h-40.531v-12.526h-21.861v12.526h-21.624l-1e-3 3e-3zm27.388-296.74c0.246 2.13 0.369 5.569 0.369 10.317v156.23c0 3.438-0.026 7.153-0.354 10.103-0.33 2.947-3.59 14.383-16.414 14.516-13.092 0.136-16.52-12.743-16.764-14.055-0.246-1.31-0.368-2.826-0.368-4.545s0-3.723 0-6.018v-156.23c0-4.748 0.123-8.145 0.368-10.194 0.245-2.046 2.003-14.891 17.204-14.832 13.676 0.053 15.714 12.582 15.959 14.709z" fill="#000000"></path>
<circle cx="232.54" cy="286.18" r="16.173" fill="#000000"></circle>
	<path d="m92.636 453.19c5.884 3.014 14.926 6.025 24.255 6.025 10.047 0 15.356-4.163 15.356-10.478 0-6.028-4.595-9.475-16.22-13.635-16.073-5.601-26.552-14.496-26.552-28.563 0-16.505 13.777-29.136 36.601-29.136 10.906 0 18.943 2.297 24.687 4.88l-4.881 17.653c-3.875-1.865-10.764-4.595-20.236-4.595-9.474 0-14.063 4.309-14.063 9.328 0 6.172 5.454 8.899 17.938 13.638 17.08 6.313 25.117 15.214 25.117 28.849 0 16.219-12.487 29.997-39.039 29.997-11.053 0-21.959-2.871-27.414-5.885l4.451-18.078z" fill="#000000"></path>
	<path d="m259.27 434.82h-35.595v22.964h39.758v17.938h-61.717v-96.732h59.707v17.938h-37.748v20.097h35.595v17.795z" fill="#000000"></path>
	<path d="m330.03 397.36h-25.978v-18.371h74.345v18.371h-26.408v78.361h-21.959v-78.361z" fill="#000000"></path>
</svg>