<?xml version='1.0' encoding='utf-8'?>
<!-- Generator: Adobe Illustrator 16.0.0, SVG Export Plug-In . SVG Version: 6.00 Build 0)  --><svg xmlns="http://www.w3.org/2000/svg" xmlns:cc="http://creativecommons.org/ns#" xmlns:dc="http://purl.org/dc/elements/1.1/" xmlns:rdf="http://www.w3.org/1999/02/22-rdf-syntax-ns#" width="497px" height="425.2px" enable-background="new 0 0 497 425.2" version="1.1" viewBox="0 0 497 425.2" xml:space="preserve"><metadata><rdf:RDF><cc:Work rdf:about=""><dc:format>image/svg+xml</dc:format><dc:type rdf:resource="http://purl.org/dc/dcmitype/StillImage"></dc:type><dc:title></dc:title></cc:Work></rdf:RDF></metadata>
<g fill="#1D1D1B">
	<path d="m48.774 268.21c-5.217 6.771-7.992 13.102-8.103 18.982-0.223 5.881 2.165 11.766 7.132 17.704 8.213 9.49 11.516 21.038 9.962 34.412-0.666 5.604-2.221 11.155-4.69 16.705-2.498 5.493-5.717 10.546-9.63 15.151l-5.134 6.16-12.072-10.271 4.94-5.827c2.525-3.217 4.745-6.824 6.631-10.877 1.858-3.941 3.053-7.993 3.58-12.102 0.554-4.051 0.305-8.103-0.527-12.1-0.833-3.939-2.637-7.66-5.355-11.1-7.383-8.657-10.991-17.872-10.906-27.641 0.111-9.771 3.941-19.428 11.683-28.916 3.747-4.609 5.383-9.047 4.995-13.267-0.444-4.274-1.832-9.489-4.247-15.819-1.36-3.386-2.608-7.158-3.746-11.377-1.053-4.107-1.47-8.437-1.138-12.821h-17.149l26.643-55.862 26.667 55.862h-20.286c-0.277 2.72-0.083 5.607 0.693 8.493 0.75 2.998 1.804 6.439 3.164 10.324 1.193 3.109 2.386 6.327 3.608 9.879 1.221 3.441 1.859 7.049 1.916 10.768 0.083 3.773-0.5 7.602-1.694 11.545-1.164 3.893-3.467 7.889-6.937 11.995z" fill="#000000"></path>
	<path d="m114.91 268.21c-5.106 6.771-7.77 13.102-8.103 18.982-0.194 5.881 2.166 11.766 7.077 17.704 8.075 9.49 11.295 21.038 9.714 34.412-0.637 5.604-2.193 11.155-4.55 16.705-2.386 5.493-5.579 10.546-9.463 15.151l-4.884 6.16-12.545-10.267 5.108-5.827c2.748-3.217 4.967-6.824 6.8-10.877 1.803-3.941 2.996-7.993 3.58-12.102 0.61-4.051 0.443-8.103-0.39-12.1-0.859-3.939-2.664-7.66-5.383-11.1-7.493-8.657-11.186-17.872-11.019-27.641 0.167-9.771 4.107-19.428 11.794-28.916 3.553-4.609 5.161-9.047 4.746-13.267-0.471-4.274-1.803-9.489-4.023-15.819-1.332-3.386-2.608-7.158-3.83-11.377-1.195-4.107-1.582-8.437-1.276-12.821h-17.154l26.642-55.862 26.64 55.862h-20.229c-0.333 2.72-0.084 5.607 0.749 8.493 0.861 2.998 2.055 6.439 3.58 10.324 1.054 3.109 2.081 6.327 3.08 9.879 1.056 3.441 1.638 7.049 1.832 10.768 0.139 3.773-0.416 7.602-1.691 11.545-1.223 3.889-3.527 7.885-6.802 11.991z" fill="#000000"></path>
	<path d="m181.51 268.21c-5.413 6.771-8.27 13.102-8.408 18.982-0.195 5.881 2.301 11.766 7.409 17.704 7.854 9.658 11.018 21.146 9.462 34.412-0.666 5.604-2.192 11.155-4.579 16.705-2.442 5.493-5.549 10.546-9.491 15.151l-5.135 6.16-12.294-10.271 5.107-5.827c2.58-3.217 4.83-6.824 6.688-10.877 1.858-3.941 3.052-7.993 3.579-12.102 0.5-4.051 0.362-8.103-0.527-12.1-0.805-3.939-2.665-7.66-5.356-11.1-7.354-8.657-10.99-17.872-10.907-27.641 0.085-9.771 3.97-19.428 11.657-28.916 3.58-4.609 5.161-9.047 4.746-13.267-0.445-4.274-1.75-9.489-3.969-15.819-1.36-3.386-2.609-7.158-3.719-11.377-1.11-4.107-1.5-8.437-1.138-12.821h-17.175l26.362-55.862 26.919 55.862h-19.924c-0.417 2.72-0.11 5.607 0.692 8.493 0.917 2.998 1.999 6.439 3.331 10.324 1.055 3.109 2.165 6.327 3.221 9.879 1.138 3.441 1.72 7.049 1.775 10.768 0.111 3.773-0.444 7.602-1.637 11.545-1.165 3.893-3.415 7.889-6.689 11.995z" fill="#000000"></path>
	<path d="m107.75 122.94 33.161 69.571 32.802-69.571 40.738 84.558c58 5.604 124.66 10.991 158.74 9.879 25.753-0.777 86.14-9.047 103.01-28.419 3.553-4.023 2.999-16.898 0-21.312-12.432-18.288-94.021-25.363-142.08-39.961-76.012-23.088-99.432-62.801-114.53-62.163-11.352 0.472-50.704 46.955-85.197 43.513-26.64-2.665-37.464-33.189-53.282-34.633-19.592-1.776-34.688 22.201-34.688 22.201l-4.773 24.866 33.051 70.819 33.052-69.348z" fill="#000000"></path>
	<polygon points="74.696 192.3 73.889 193.96 75.555 194.06" fill="#000000"></polygon>
	<path d="m425.58 217.49c-22.033 5.495-40.073 6.217-90.578 7.881-24.534 0.777-80.979-4.938-116.22-8.879l0.056 0.109h-24.505c0.39 1.223 0.805 2.441 1.249 3.773 1.109 3.222 2.275 6.604 3.358 10.213 1.416 4.328 2.194 9.104 2.276 13.986 0 0.11-0.083 0.332-0.083 0.555 39.045 3.107 76.037 5.385 98.35 5.105 33.746-0.443 107.45-6.215 138.53-19.092 12.101-4.995 33.247-13.652 40.63-24.421 1.775-2.498 3.774-14.208 3.774-14.208s-20.426 15.986-56.838 24.978z" fill="#000000"></path>
	<path d="m154.78 221.04c-0.389-1.498-0.694-2.996-0.943-4.439h-1.443l-12.737-3.664-10.129 3.664h-1.72c0.387 1.055 0.805 2.165 1.248 3.331 1.305 3.717 2.387 7.104 3.442 10.877 0.776 2.555 1.027 5.551 1.414 8.381 8.798 0.835 17.817 1.666 27.031 2.499-0.584-2.664-0.943-4.994-2.166-8.492-1.332-3.278-2.747-7.552-3.997-12.157z" fill="#000000"></path>
	<path d="m88.626 221.27c-0.446-1.556-0.805-3.108-1.083-4.664h-1.221l-12.433-3.663-10.794 3.663h-1.72c0.362 1.167 0.777 2.442 1.249 3.72 1.11 2.832 2.332 6.16 3.607 9.822 0.252 0.777 0.195 1.555 0.416 2.331 7.577 0.776 16.428 1.722 26.503 2.719-0.249-0.776-0.223-1.161-0.527-1.997-1.279-3.274-2.665-7.38-3.997-11.931z" fill="#000000"></path>
</g>
</svg>