<?xml version='1.0' encoding='utf-8'?>
<!-- Generator: Adobe Illustrator 16.0.0, SVG Export Plug-In . SVG Version: 6.00 Build 0)  --><svg xmlns="http://www.w3.org/2000/svg" xmlns:cc="http://creativecommons.org/ns#" xmlns:dc="http://purl.org/dc/elements/1.1/" xmlns:ns="&amp;ns_sfw;" xmlns:rdf="http://www.w3.org/1999/02/22-rdf-syntax-ns#" width="922px" height="425.2px" enable-background="new 0 0 922 425.2" version="1.1" viewBox="0 0 922 425.2" xml:space="preserve">
<metadata>
	<ns:sfw>
		<ns:slices></ns:slices>
		<ns:sliceSourceBounds x="20.438" y="194.942" width="801.808" height="226.541" bottomLeftOrigin="true"></ns:sliceSourceBounds>
	</ns:sfw>
	<rdf:RDF>
		<cc:Work rdf:about="">
			<dc:format>image/svg+xml</dc:format>
			<dc:type rdf:resource="http://purl.org/dc/dcmitype/StillImage"></dc:type>
			<dc:title></dc:title>
		</cc:Work>
	</rdf:RDF>
	<ns:sfw>
		<ns:slices></ns:slices>
		<ns:sliceSourceBounds x="-30.125" y="184.114" width="902.927" height="255.118" bottomLeftOrigin="true">
			</ns:sliceSourceBounds>
	</ns:sfw>
	<ns:sfw>
		<ns:slices></ns:slices>
		<ns:sliceSourceBounds x="-30.423" y="184.117" width="902.923" height="255.116" bottomLeftOrigin="true"></ns:sliceSourceBounds>
	</ns:sfw>
</metadata>
<path d="m275.6 246.03c-5.331 0.123-11.592 0.185-18.783 0.185h-52.247c-11.284 0-23.493-0.029-36.631-0.093-13.141-0.063-27.271-0.092-42.393-0.092-1.616 3.717-3.722 7.188-6.323 10.41-2.605 3.225-5.643 5.983-9.111 8.275-3.472 2.294-7.285 4.121-11.436 5.484-4.154 1.365-8.525 2.043-13.109 2.043-8.557 0-16.397-2.289-23.524-6.877-7.131-4.586-12.49-10.6-16.082-18.037-0.869 0-2.885-0.121-6.043-0.373-3.164-0.246-8.277-0.492-15.341-0.742-2.854-0.12-5.208-0.9-7.065-2.324-1.856-1.424-3.348-3.161-4.463-5.205-1.116-2.043-1.893-4.246-2.322-6.602-0.439-2.354-0.651-4.524-0.651-6.504 0-8.558 0.806-15.31 2.416-20.27 1.612-4.955 3.164-8.367 4.648-10.226 1.612-2.107 3.376-4.091 5.3-5.948 1.921-1.86 4.369-3.593 7.345-5.206s6.63-3.13 10.972-4.555c4.337-1.424 9.787-2.883 16.358-4.369 1.859-0.372 3.966-0.771 6.322-1.208 2.354-0.433 4.864-0.897 7.532-1.394 2.662-0.493 5.419-0.991 8.274-1.488 2.851-0.494 5.579-0.991 8.182-1.487 6.196-1.116 12.646-2.23 19.337-3.348 0.869-0.246 1.52-0.401 1.953-0.465 0.432-0.061 0.837-0.246 1.209-0.558 0.372-0.308 0.896-0.744 1.577-1.301 0.681-0.558 1.705-1.455 3.07-2.696 3.469-2.975 7.156-6.322 11.063-10.042 3.904-3.718 8.024-7.373 12.362-10.97 4.341-3.594 9.019-6.879 14.038-9.855 5.021-2.975 10.442-5.327 16.271-7.065 6.071-1.735 12.891-3.003 20.453-3.813 7.56-0.805 15.369-1.208 23.429-1.208 10.292 0 20.362 0.558 30.217 1.673 9.854 1.115 18.438 2.542 25.753 4.277 6.445 1.487 13.139 3.937 20.082 7.344 6.94 3.411 13.758 6.973 20.454 10.692 6.695 3.718 13.077 7.189 19.152 10.413 6.075 3.225 11.529 5.456 16.363 6.693 5.699 1.488 10.6 2.417 14.688 2.79 4.09 0.372 7.561 0.962 10.414 1.766 2.851 0.808 5.206 2.17 7.063 4.091 1.858 1.924 3.407 5.177 4.649 9.761 0.867 2.975 1.764 6.509 2.697 10.601 0.931 4.092 1.794 8.523 2.604 13.296 0.808 4.772 1.455 9.827 1.951 15.153 0.494 5.328 0.745 10.723 0.745 16.176 0 2.479-0.807 4.494-2.417 6.043-1.614 1.551-3.627 2.76-6.042 3.625-2.417 0.869-5.021 1.523-7.813 1.953-2.789 0.437-5.393 0.715-7.81 0.836-2.417 0.125-5.239 0.125-8.462 0-1.613 3.72-3.75 7.222-6.414 10.506-2.668 3.285-5.736 6.136-9.205 8.555-3.472 2.416-7.344 4.34-11.621 5.764-4.276 1.428-8.771 2.137-13.48 2.137-8.926 0-16.954-2.418-24.081-7.25-7.12-4.842-12.48-11.165-16.074-18.971zm92.227-23.246c-0.25-3.222-0.622-7.063-1.115-11.525-0.494-4.463-1.087-8.707-1.764-12.739-0.683-4.027-1.395-7.437-2.139-10.228s-1.485-4.185-2.229-4.185c-2.23-0.37-5.02-0.897-8.369-1.578-3.347-0.68-6.943-1.581-10.782-2.698-3.843-1.116-7.78-2.417-11.809-3.904-4.028-1.488-7.903-3.222-11.622-5.208-5.327-2.85-10.568-5.67-15.711-8.46s-10.042-5.392-14.688-7.81c-4.648-2.417-9.051-4.522-13.201-6.322-4.154-1.795-7.903-3.068-11.25-3.812-6.818-1.61-14.688-2.883-23.615-3.812-8.924-0.929-18.035-1.394-27.334-1.394-7.313 0-14.253 0.311-20.821 0.93-6.572 0.623-12.458 1.674-17.667 3.162-3.966 1.115-7.936 3.007-11.898 5.671-3.969 2.667-7.905 5.642-11.808 8.924-3.904 3.286-7.72 6.602-11.437 9.948-3.717 3.347-7.189 6.322-10.414 8.926-1.983 1.736-3.564 3.099-4.741 4.09-1.179 0.993-2.077 1.799-2.695 2.417-0.744 0.624-1.365 1.114-1.859 1.485-0.622 0.252-1.764 0.465-3.439 0.65-1.677 0.187-3.07 0.402-4.185 0.651-13.018 2.109-24.051 3.938-33.101 5.485-9.052 1.551-16.545 3.036-22.498 4.463-5.951 1.429-10.631 2.914-14.038 4.463-3.412 1.55-5.951 3.314-7.626 5.298-1.673 1.985-2.695 4.34-3.068 7.063-0.372 2.729-0.558 6.014-0.558 9.854 0 0.868 0.06 1.646 0.186 2.323 0.119 0.683 0.619 1.023 1.484 1.023 3.222 0.494 6.448 0.773 9.671 0.836 3.22 0.063 6.135 0.125 8.74 0.184 2.603 0.066 4.709 0.188 6.32 0.373 1.61 0.188 2.417 0.65 2.417 1.393 0 3.598 0.681 7.008 2.047 10.229 1.361 3.224 3.253 6.016 5.667 8.369 2.418 2.356 5.208 4.215 8.37 5.58 3.161 1.362 6.599 2.043 10.32 2.043 3.468 0 6.754-0.65 9.854-1.951 3.097-1.303 5.824-3.098 8.181-5.395 2.354-2.291 4.248-4.955 5.672-7.997 1.423-3.032 2.259-6.29 2.509-9.761v-1.672c0-0.868 0.063-1.612 0.187-2.229h177.21v1.671c0 3.596 0.681 7.036 2.045 10.32 1.363 3.285 3.254 6.169 5.668 8.646 2.417 2.479 5.236 4.465 8.463 5.951 3.219 1.484 6.691 2.229 10.414 2.229 4.213 0 7.961-0.774 11.247-2.323 3.284-1.549 6.043-3.653 8.277-6.321 2.228-2.664 3.904-5.763 5.021-9.297 1.115-3.531 1.671-7.219 1.671-11.063 2.479 0 5.021-0.063 7.625-0.186 2.23-0.121 4.771-0.248 7.624-0.371 2.851-0.123 5.766-0.308 8.743-0.559 1.233-0.24 1.853-0.859 1.853-1.854h-2e-3l-3e-3 4e-3zm156.37 43.509v19.896h-125.33v-19.896h-19.896v59.688h19.896v-19.896h125.33v19.896h19.896v-59.688h-19.896zm-79.771-37.186c0-2.353 0.434-4.557 1.302-6.601 0.865-2.043 2.074-3.838 3.625-5.391 1.549-1.549 3.376-2.756 5.486-3.627 2.106-0.869 4.337-1.304 6.692-1.304 2.354 0 4.558 0.438 6.599 1.304 2.046 0.866 3.842 2.078 5.395 3.627 1.549 1.553 2.757 3.348 3.629 5.391 0.864 2.044 1.298 4.248 1.298 6.601 0 2.358-0.436 4.587-1.298 6.694-0.868 2.109-2.08 3.938-3.629 5.484-1.553 1.551-3.349 2.758-5.395 3.625-2.04 0.869-4.246 1.303-6.599 1.303-2.356 0-4.587-0.434-6.692-1.303-2.109-0.867-3.938-2.074-5.486-3.625-1.552-1.547-2.76-3.375-3.625-5.484-0.87-2.107-1.302-4.34-1.302-6.694zm17.107-158.24c2.354 0 4.583 0.497 6.692 1.487 2.104 0.993 3.933 2.356 5.485 4.09 1.548 1.738 2.757 3.783 3.628 6.136 0.866 2.357 1.299 4.899 1.299 7.624v88.509c0 2.728-0.436 5.271-1.299 7.624-0.867 2.356-2.08 4.434-3.628 6.228-1.554 1.799-3.381 3.194-5.485 4.184-2.109 0.995-4.342 1.487-6.692 1.487-4.714 0-8.71-1.891-11.992-5.67-3.286-3.779-4.928-8.397-4.928-13.852v-88.51c0-5.453 1.643-10.042 4.928-13.76 3.282-3.718 7.279-5.577 11.992-5.577zm338.04 175.16c-5.331 0.123-11.593 0.184-18.779 0.184h-52.25c-11.282 0-23.491-0.027-36.628-0.092-13.143-0.063-27.211-0.092-42.209-0.092-1.612 3.717-3.75 7.189-6.415 10.41-2.664 3.227-5.735 5.982-9.203 8.275-3.472 2.294-7.284 4.121-11.434 5.486-4.154 1.364-8.523 2.041-13.112 2.041-8.553 0-16.395-2.289-23.521-6.877-7.129-4.586-12.488-10.6-16.083-18.037-0.869 0-2.885-0.121-6.044-0.373-3.161-0.246-8.273-0.492-15.34-0.742-2.853-0.121-5.207-0.899-7.063-2.325-1.859-1.423-3.352-3.16-4.462-5.205-1.117-2.041-1.896-4.246-2.325-6.601-0.437-2.354-0.651-4.525-0.651-6.506 0-8.557 0.837-15.308 2.511-20.268 1.67-4.955 3.19-8.367 4.556-10.226 1.609-2.107 3.377-4.091 5.3-5.948 1.922-1.861 4.37-3.594 7.343-5.207 2.979-1.613 6.634-3.13 10.972-4.555 4.34-1.424 9.791-2.883 16.362-4.37 1.856-0.372 3.965-0.772 6.32-1.208 2.354-0.432 4.861-0.897 7.532-1.394 2.663-0.493 5.42-0.992 8.273-1.488 2.851-0.494 5.579-0.99 8.186-1.487 6.196-1.116 12.645-2.231 19.338-3.347 0.866-0.247 1.518-0.401 1.948-0.465 0.438-0.061 0.836-0.247 1.211-0.558 0.37-0.309 0.896-0.744 1.579-1.302 0.681-0.557 1.702-1.455 3.066-2.695 3.47-2.975 7.16-6.322 11.064-10.042 3.903-3.718 8.023-7.374 12.365-10.97 4.337-3.594 9.019-6.88 14.037-9.855 5.021-2.974 10.439-5.327 16.271-7.064 6.072-1.735 12.89-3.004 20.451-3.812 7.563-0.806 15.369-1.208 23.434-1.208 10.286 0 20.359 0.558 30.215 1.673 9.854 1.116 18.438 2.543 25.753 4.277 6.443 1.487 13.138 3.938 20.081 7.345 6.939 3.41 13.76 6.972 20.45 10.691 6.694 3.719 13.077 7.19 19.156 10.414 6.07 3.225 11.523 5.456 16.359 6.694 5.702 1.487 10.599 2.416 14.688 2.79 4.095 0.373 7.592 0.961 10.506 1.765 2.911 0.808 5.271 2.17 7.065 4.091 1.796 1.924 3.376 5.179 4.741 9.761 0.865 2.975 1.734 6.509 2.604 10.601 0.869 4.092 1.672 8.522 2.417 13.296 0.743 4.774 1.395 9.829 1.951 15.155 0.555 5.328 0.835 10.722 0.835 16.174 0 2.48-0.81 4.496-2.416 6.043-1.616 1.553-3.627 2.761-6.044 3.627-2.417 0.867-5.021 1.521-7.811 1.953-2.793 0.435-5.393 0.713-7.813 0.834-2.418 0.125-5.237 0.125-8.461 0-1.615 3.72-3.751 7.224-6.414 10.507-2.668 3.286-5.736 6.137-9.205 8.555-3.473 2.416-7.345 4.341-11.621 5.765-4.276 1.426-8.771 2.135-13.481 2.135-8.925 0-16.952-2.416-24.079-7.248-7.123-4.844-12.481-11.169-16.076-18.975zm92.23-23.244c-0.253-3.223-0.626-7.064-1.116-11.527-0.496-4.463-1.087-8.706-1.766-12.739-0.68-4.027-1.394-7.437-2.135-10.227-0.745-2.791-1.488-4.185-2.232-4.185-2.228-0.371-5.021-0.897-8.367-1.578-3.35-0.681-6.914-1.581-10.69-2.698-3.783-1.116-7.688-2.417-11.714-3.904-4.029-1.488-7.903-3.222-11.62-5.207-3.225-1.734-6.479-3.533-9.763-5.392-3.286-1.86-6.666-3.779-10.135-5.765-13.761-7.81-25.412-12.891-34.956-15.248-6.691-1.609-14.568-2.883-23.617-3.811-9.05-0.93-18.222-1.395-27.52-1.395-7.315 0-14.257 0.311-20.825 0.931-6.572 0.621-12.459 1.672-17.667 3.161-3.967 1.116-7.936 3.006-11.897 5.67-3.97 2.667-7.904 5.643-11.809 8.925-3.903 3.286-7.717 6.601-11.434 9.948-3.722 3.347-7.192 6.322-10.411 8.926-1.986 1.736-3.564 3.099-4.742 4.091-1.182 0.993-2.078 1.798-2.698 2.416-0.744 0.623-1.366 1.114-1.858 1.485-0.622 0.252-1.799 0.466-3.533 0.651-1.737 0.186-3.1 0.401-4.091 0.65-13.389 2.229-24.67 4.153-33.843 5.761-9.175 1.616-16.77 3.165-22.78 4.651-6.016 1.485-10.663 3.009-13.946 4.557-3.286 1.552-5.701 3.378-7.25 5.484-1.552 2.109-2.45 4.586-2.698 7.438-0.249 2.852-0.37 6.321-0.37 10.41 0.247 1.242 1.302 2.045 3.162 2.417 1.857 0.374 4.025 0.56 6.506 0.56 2.354 0 4.771-0.093 7.252-0.279 2.478-0.186 4.711-0.279 6.69-0.279 1.983 0 3.351 0.125 4.093 0.374 0.741 0.251 1.116 0.808 1.116 1.672 0 3.597 0.68 7.005 2.042 10.228 1.364 3.226 3.255 6.014 5.672 8.367 2.416 2.358 5.233 4.217 8.461 5.58 3.223 1.363 6.631 2.043 10.229 2.043 3.964 0 7.591-0.773 10.877-2.322 3.282-1.549 6.072-3.627 8.367-6.229 2.292-2.605 4.06-5.672 5.3-9.206 1.238-3.532 1.858-7.278 1.858-11.248h177.2v1.673c0 3.596 0.682 7.034 2.045 10.319 1.362 3.285 3.255 6.169 5.673 8.646 2.416 2.481 5.229 4.465 8.46 5.953 3.222 1.483 6.693 2.229 10.41 2.229 4.215 0 7.966-0.775 11.25-2.324 3.283-1.549 6.042-3.654 8.275-6.32 2.231-2.662 3.904-5.764 5.021-9.298 1.114-3.532 1.673-7.219 1.673-11.062 2.479 0 5.021-0.064 7.624-0.188 2.23-0.12 4.771-0.247 7.626-0.37 2.85-0.121 5.765-0.306 8.737-0.558 1.238-0.244 1.864-0.864 1.864-1.856h-4e-3l4e-3 -1e-3z" fill="#000000"></path>
</svg>