<?xml version='1.0' encoding='utf-8'?>
<!-- Generator: Adobe Illustrator 16.0.0, SVG Export Plug-In . SVG Version: 6.00 Build 0)  --><svg xmlns="http://www.w3.org/2000/svg" xmlns:cc="http://creativecommons.org/ns#" xmlns:dc="http://purl.org/dc/elements/1.1/" xmlns:rdf="http://www.w3.org/1999/02/22-rdf-syntax-ns#" width="521px" height="425.2px" version="1.2" viewBox="212.44 85.042 521 425.2" xml:space="preserve"><metadata><rdf:RDF><cc:Work rdf:about=""><dc:format>image/svg+xml</dc:format><dc:type rdf:resource="http://purl.org/dc/dcmitype/StillImage"></dc:type><dc:title></dc:title></cc:Work></rdf:RDF></metadata>
<path d="m709.22 239.55c8.269 0 14.973-6.703 14.973-14.971 0-8.269-6.704-14.973-14.973-14.973h-41.642c-4.966 0-9.607 2.462-12.394 6.572l-19.808 29.221h-17.76l-14.841-60.668-37.431-31.66h-183.8l-34.154 28.268s-13.221 40.828-20.695 64.06h-16.115l-19.807-29.221c-2.786-4.11-7.428-6.572-12.394-6.572h-41.564c-8.269 0-14.971 6.704-14.971 14.973s6.703 14.971 14.971 14.971h33.625l3.964 5.85h-3.667c-18.716 0-33.922 15.206-33.922 33.96v71c0 18.755 15.206 33.96 33.922 33.96h7.017v38.872h77.356v-38.872h242.05v38.872h77.354v-38.872h3.275c18.715 0 33.921-15.205 33.921-33.96v-71c0-18.754-15.206-33.96-33.921-33.96h-6.24l3.963-5.85h33.704zm-88.35 19.145v26.006h-298.43v-26.006h298.43zm-349.97 34.116h45.542l29.943 14.972-2.494 27.448h-72.99v-42.42zm287.59 59.264h-181.54v-44.292h181.54v44.292zm121.65-59.264v42.42h-72.988l-2.496-27.448 29.946-14.972h45.538z" fill-rule="evenodd"></path>
</svg>