<?xml version='1.0' encoding='utf-8'?>
<!-- Generator: Adobe Illustrator 16.0.0, SVG Export Plug-In . SVG Version: 6.00 Build 0)  --><svg xmlns="http://www.w3.org/2000/svg" xmlns:cc="http://creativecommons.org/ns#" xmlns:dc="http://purl.org/dc/elements/1.1/" xmlns:ns="&amp;ns_sfw;" xmlns:rdf="http://www.w3.org/1999/02/22-rdf-syntax-ns#" width="439px" height="425.2px" enable-background="new 0 0 439 425.2" version="1.1" viewBox="0 0 439 425.2" xml:space="preserve">
<metadata>
	<rdf:RDF>
		<cc:Work rdf:about="">
			<dc:format>image/svg+xml</dc:format>
			<dc:type rdf:resource="http://purl.org/dc/dcmitype/StillImage"></dc:type>
			<dc:title></dc:title>
		</cc:Work>
	</rdf:RDF>
	<ns:sfw>
		<ns:slices></ns:slices>
		<ns:sliceSourceBounds x="216.538" y="169.938" width="406.462" height="165.47" bottomLeftOrigin="true"></ns:sliceSourceBounds>
	</ns:sfw>
</metadata>
<path d="m339.26 174.69c-45.619 0-82.731 37.115-82.731 82.738 0 27.131 13.129 51.251 33.367 66.347h-142.26c20.238-15.098 33.367-39.219 33.367-66.347 0-45.621-37.115-82.738-82.737-82.738-45.621 0-82.737 37.115-82.737 82.738 0 45.618 37.115 82.731 82.737 82.731h240.99c45.621 0 82.737-37.113 82.737-82.731 0-45.621-37.115-82.738-82.737-82.738h2e-3zm-307.34 82.738c0-36.589 29.767-66.353 66.353-66.353s66.354 29.766 66.354 66.353c0 36.585-29.767 66.347-66.354 66.347-36.589 0-66.353-29.764-66.353-66.347zm307.34 66.347c-36.588 0-66.353-29.764-66.353-66.347 0-36.589 29.765-66.353 66.353-66.353 36.59 0 66.358 29.766 66.358 66.353 2e-3 36.585-29.765 66.347-66.358 66.347z" fill="#000000"></path>
</svg>