<?xml version='1.0' encoding='utf-8'?>
<!-- Generator: Adobe Illustrator 16.0.0, SVG Export Plug-In . SVG Version: 6.00 Build 0)  --><svg xmlns="http://www.w3.org/2000/svg" xmlns:cc="http://creativecommons.org/ns#" xmlns:dc="http://purl.org/dc/elements/1.1/" xmlns:rdf="http://www.w3.org/1999/02/22-rdf-syntax-ns#" width="440.82px" height="425.2px" version="1.2" viewBox="0 0 440.82 425.2" xml:space="preserve"><metadata><rdf:RDF><cc:Work rdf:about=""><dc:format>image/svg+xml</dc:format><dc:type rdf:resource="http://purl.org/dc/dcmitype/StillImage"></dc:type><dc:title></dc:title></cc:Work></rdf:RDF></metadata>
<path d="m108.87 120.56 133.85-4e-3v47.039l74.047-55.196-74.047-55.702v47.039h-133.85l-8.41 4e-3v0.37c-48.291 4.269-86.284 44.943-86.284 94.326 0 37.38 22.078 71.353 56.246 86.549l6.835-15.369c-28.102-12.498-46.261-40.438-46.261-71.18 0-42.942 34.934-77.876 77.874-77.876z" fill="#000000"></path>
<path d="m370.4 111.87-6.834 15.369c28.104 12.499 46.262 40.439 46.262 71.181 0 42.939-34.934 77.875-77.873 77.875h-133.86v-47.035l-74.047 55.702 74.047 55.196v-47.044h133.85c52.215 0 94.693-42.48 94.693-94.695 1e-3 -37.38-22.078-71.353-56.247-86.549z" fill="#000000"></path>
</svg>