<?xml version='1.0' encoding='utf-8'?>
<!-- Generator: Adobe Illustrator 16.0.0, SVG Export Plug-In . SVG Version: 6.00 Build 0)  --><svg xmlns="http://www.w3.org/2000/svg" xmlns:cc="http://creativecommons.org/ns#" xmlns:dc="http://purl.org/dc/elements/1.1/" xmlns:ns="&amp;ns_sfw;" xmlns:rdf="http://www.w3.org/1999/02/22-rdf-syntax-ns#" width="291px" height="438px" version="1.2" viewBox="0 0 291 438" xml:space="preserve">
<metadata>
	<rdf:RDF>
		<cc:Work rdf:about="">
			<dc:format>image/svg+xml</dc:format>
			<dc:type rdf:resource="http://purl.org/dc/dcmitype/StillImage"></dc:type>
			<dc:title></dc:title>
		</cc:Work>
	</rdf:RDF>
	<ns:sfw>
		<ns:slices></ns:slices>
		<ns:sliceSourceBounds x="292.954" y="178.132" width="255.983" height="283.458" bottomLeftOrigin="true"></ns:sliceSourceBounds>
	</ns:sfw>
</metadata>
<path d="m95.15 86.77v186.51c-7.771-2.469-16.971-3.418-26.842-2.398-27.812 2.869-50.354 20.213-50.354 38.736 0 18.522 22.544 31.215 50.354 28.344 27.811-2.869 50.354-20.213 50.354-38.736v-170.17l131.76-23.482v139.84c-7.771-2.467-16.971-3.416-26.84-2.398-27.813 2.871-50.355 20.213-50.355 38.736s22.545 31.215 50.355 28.344c27.811-2.869 50.354-20.213 50.354-38.735v-216.45l-178.79 31.865 2e-3 -5e-3z" fill="#000000"></path>
</svg>