<?xml version='1.0' encoding='utf-8'?>
<!-- Generator: Adobe Illustrator 16.0.0, SVG Export Plug-In . SVG Version: 6.00 Build 0)  --><svg xmlns="http://www.w3.org/2000/svg" xmlns:cc="http://creativecommons.org/ns#" xmlns:dc="http://purl.org/dc/elements/1.1/" xmlns:ns0="&amp;ns_sfw;" xmlns:rdf="http://www.w3.org/1999/02/22-rdf-syntax-ns#" width="841.89px" height="240px" enable-background="new 0 0 841.891 240" version="1.1" viewBox="0 0 841.89 240" xml:space="preserve">
<metadata>
	<rdf:RDF>
		<cc:Work rdf:about="">
			<dc:format>image/svg+xml</dc:format>
			<dc:type rdf:resource="http://purl.org/dc/dcmitype/StillImage"></dc:type>
			<dc:title></dc:title>
		</cc:Work>
	</rdf:RDF>
	<ns0:sfw>
		<ns0:slices></ns0:slices>
		<ns0:sliceSourceBounds x="2.151" y="219.3" width="838.294" height="168.4" bottomLeftOrigin="true"></ns0:sliceSourceBounds>
	</ns0:sfw>
</metadata>
<path d="m115.02 114c0 45.567-29.494 81.424-65.232 81.424h-47.191v-162.85h47.189c35.739 0 65.232 36.086 65.232 81.425l2e-3 2e-3zm-31.228 0c0-26.834-14.747-45.339-35.394-45.339h-15.96v90.677h15.961c20.646-1e-3 35.393-18.507 35.393-45.338z" fill="#000000"></path>
<path d="M126.82,32.583h29.842v162.85H126.82V32.583z" fill="#000000"></path>
<path d="m169.49 142.68h31.056c0 14.805 6.245 19.43 20.646 19.43 16.136 0 20.819-4.395 20.819-13.877 0-8.328-6.42-12.029-18.737-14.805l-11.797-2.776c-24.29-5.783-40.943-18.737-40.943-49.965 0-30.534 15.44-50.89 50.658-50.89 39.036 0 49.792 24.75 49.792 54.59h-30.188c0-12.26-5.378-18.506-18.911-18.506-15.961 0-19.431 3.471-19.431 12.955 0 7.863 4.686 11.797 20.817 15.729l11.104 2.775c22.9 5.783 40.251 16.654 40.251 49.038 0 32.615-15.962 51.814-53.437 51.814-39.208 0-51.525-22.898-51.699-55.512z" fill="#000000"></path>
<path d="m383.75 68.662h-38.169v126.76h-29.84v-126.76h-38.863v-36.085h106.87v36.085h2e-3z" fill="#000000"></path>
<path d="m453.67 171.37h-54.13l-7.635 24.06h-30.533l54.129-162.85h24.288l53.438 162.85h-31.923l-7.634-24.06zm-10.411-32.383-16.654-52.508-16.655 52.508h33.309z" fill="#000000"></path>
<path d="m606.34 32.583v162.85h-18.042l-58.293-86.977v86.977h-29.844v-162.85h17.352l58.987 87.9v-87.9h29.84z" fill="#000000"></path>
<path d="m618.13 114c0-47.651 24.982-84.199 61.067-84.199 36.087 0 56.732 30.765 60.896 65.693h-31.229c-3.644-14.804-13.356-28.683-28.973-28.683-20.125 0-30.534 21.05-30.534 47.188s10.235 47.188 30.534 47.188c17.001 0 25.503-11.797 29.667-29.607h30.88c-3.643 34.234-24.113 66.617-61.935 66.617-36.082-1e-3 -60.373-36.546-60.373-84.197z" fill="#000000"></path>
<path d="m840.89 159.34v36.086h-87.44v-162.85h86.054v36.085h-56.214v28.684h49.967v33.311h-49.967v28.684h57.601l-1e-3 1e-3z" fill="#000000"></path>
</svg>