<?xml version='1.0' encoding='utf-8'?>
<!-- Generator: Adobe Illustrator 27.2.0, SVG Export Plug-In . SVG Version: 6.00 Build 0)  --><svg xmlns="http://www.w3.org/2000/svg" xmlns:xlink="http://www.w3.org/1999/xlink" version="1.2" baseProfile="tiny" id="Vrstva_1" x="0px" y="0px" viewBox="0 0 56.7 56.7" overflow="visible" xml:space="preserve" width="400.0" height="400.0">
<path fill-rule="evenodd" d="M19.4,15c-0.9-0.5-2-0.8-3.2-0.8H9.9v18.9h3.7v-6.6h2.6c1.3,0,2.3-0.3,3.2-0.8c0.9-0.5,1.6-1.3,2-2.2  c0.5-0.9,0.7-2,0.7-3.1c0-1.2-0.2-2.2-0.7-3.1C21,16.3,20.3,15.5,19.4,15z M17.7,22.5c-0.4,0.5-1.1,0.8-1.9,0.8h-2.2v-5.9h2.2  c0.8,0,1.4,0.3,1.9,0.8c0.4,0.5,0.7,1.2,0.7,2.1C18.3,21.3,18.1,22,17.7,22.5z M25.2,25.3c0.6-1.3,1-2.6,1-4.1h-1.9  c0,1.2-0.3,2.3-0.8,3.3c-0.6,1-1.3,1.9-2.3,2.6l1.3,1.3C23.6,27.7,24.5,26.6,25.2,25.3z M28.7,26.8c0.8-1.7,1.2-3.6,1.2-5.5H28  c0,1.7-0.4,3.3-1.1,4.8c-0.7,1.5-1.8,2.8-3.1,3.9l1.4,1.3C26.7,30.1,27.9,28.6,28.7,26.8z M33.7,21.3c0,2.4-0.5,4.8-1.5,7  c-1,2.2-2.4,4.2-4.2,5.8l-1.3-1.3c1.6-1.4,2.9-3.2,3.8-5.1c0.9-2,1.4-4.1,1.4-6.3H33.7z M46.8,40.6h-17v1.9h17V40.6z M38.3,21.7  l6.6,17H31.7L38.3,21.7z M42.1,36.8h-7.7l3.9-9.9L42.1,36.8z" fill="#FFCE63"></path>
</svg>