<?xml version='1.0' encoding='utf-8'?>
<!-- Generator: Adobe Illustrator 16.0.0, SVG Export Plug-In . SVG Version: 6.00 Build 0)  --><svg xmlns="http://www.w3.org/2000/svg" xmlns:cc="http://creativecommons.org/ns#" xmlns:dc="http://purl.org/dc/elements/1.1/" xmlns:rdf="http://www.w3.org/1999/02/22-rdf-syntax-ns#" width="497.36px" height="425.2px" version="1.2" viewBox="0 0 497.36 425.2" xml:space="preserve"><metadata><rdf:RDF><cc:Work rdf:about=""><dc:format>image/svg+xml</dc:format><dc:type rdf:resource="http://purl.org/dc/dcmitype/StillImage"></dc:type><dc:title></dc:title></cc:Work></rdf:RDF></metadata>
	<path d="m483.19 283.88-74.816-55.714v47.471h-35.038c-44.48 0-79.65-18.324-120.04-63.993-1.617 2.009-3.244 4.052-4.891 6.156-1.97 2.517-3.92 4.967-5.858 7.366 17.125 19.123 33.126 33.274 49.208 43.632 24.9 16.037 51.587 23.834 81.583 23.834h35.038v47.527l74.816-56.279z" fill="#000000"></path>
	<path d="m164.9 120.83c-24.899-16.049-51.585-23.851-81.584-23.851h-69.138v16.995h69.138c46.673 0 83.094 20.197 126.04 71.004 3.688-4.686 7.319-9.166 10.902-13.439-19.476-22.755-37.368-39.111-55.362-50.709z" fill="#000000"></path>
<path d="m483.19 112.97-74.816-56.281v47.528h-35.038c-30.001 0-56.688 7.801-81.585 23.851-22.443 14.466-44.724 36.323-70.118 68.782-48.484 61.967-87.267 86.11-138.32 86.11h-69.137v16.995h69.138c29.999 0 56.686-7.802 81.584-23.852 22.443-14.466 44.725-36.322 70.122-68.782 48.478-61.967 87.259-86.11 138.32-86.11h35.038v47.527l74.816-55.768z" fill="#000000"></path>
</svg>