<?xml version='1.0' encoding='utf-8'?>
<!-- Generator: Adobe Illustrator 16.0.0, SVG Export Plug-In . SVG Version: 6.00 Build 0)  --><svg xmlns="http://www.w3.org/2000/svg" xmlns:cc="http://creativecommons.org/ns#" xmlns:ns="&amp;ns_sfw;" xmlns:rdf="http://www.w3.org/1999/02/22-rdf-syntax-ns#" xmlns:dc="http://purl.org/dc/elements/1.1/" width="478px" height="376px" enable-background="new 0 0 478 376" version="1.1" viewBox="0 0 478 376" xml:space="preserve">
<metadata>
	<ns:sfw>
		<ns:slices></ns:slices>
		<ns:sliceSourceBounds x="216.943" y="170.113" width="408.808" height="258.432" bottomLeftOrigin="true"></ns:sliceSourceBounds>
	</ns:sfw>
<rdf:RDF><cc:Work rdf:about=""><dc:format>image/svg+xml</dc:format><dc:type rdf:resource="http://purl.org/dc/dcmitype/StillImage"></dc:type><dc:title></dc:title></cc:Work></rdf:RDF></metadata>
	<path d="m35.443 61.829h151.51l-0.615 1.024c-0.687 1.506-1.88 4.34-3.588 8.508-1.71 4.171-3.658 9.672-5.844 16.505h-141.46v-26.037zm0 55.355h133.67c-0.819 3.967-1.607 8.099-2.357 12.403-0.753 4.306-1.47 8.851-2.151 13.634h-129.16l-2e-3 -26.037zm0 55.355h126.08c-0.138 2.326-0.274 4.646-0.409 6.971-0.139 2.326-0.205 4.648-0.205 6.973 0 2.051 0.031 4.102 0.104 6.148 0.065 2.051 0.169 4.033 0.308 5.945h-125.88l-1e-3 -26.037zm0 55.355h128.75c0.683 4.785 1.4 9.328 2.152 13.637 0.75 4.305 1.536 8.438 2.356 12.4h-133.26v-26.037zm140.85 55.354c2.322 7.109 4.407 12.85 6.253 17.223 1.847 4.375 3.106 7.313 3.792 8.814h-150.89v-26.037h140.85zm10.661-96.77c0.409-16.398 1.742-31.264 3.997-44.589 2.256-13.326 4.681-24.807 7.278-34.443 2.595-9.635 5.055-17.288 7.381-22.961 2.322-5.67 3.757-9.053 4.306-10.148 0.955-1.913 2.255-4.132 3.896-6.663 1.641-2.526 4.438-4.407 8.403-5.638 8.746-2.87 18.108-4.51 28.089-4.92 9.976-0.41 19.784-0.032 29.42 1.128 9.636 1.163 18.791 2.769 27.473 4.817 8.678 2.051 16.094 4.101 22.244 6.15 6.285 2.051 12.948 4.479 19.989 7.278 7.038 2.803 14.044 5.981 21.015 9.534 6.972 3.556 13.735 7.451 20.296 11.686 6.563 4.238 12.574 8.814 18.042 13.736 4.373 3.966 8.681 8.373 12.916 13.224 4.235 4.853 8.027 10.286 11.379 16.299 3.35 6.017 6.049 12.747 8.101 20.194 2.051 7.452 3.075 15.754 3.075 24.909 0 9.297-1.024 17.668-3.075 25.113-2.05 7.451-4.751 14.184-8.101 20.193-3.352 6.016-7.144 11.449-11.379 16.299-4.235 4.854-8.543 9.264-12.916 13.227-5.468 4.92-11.479 9.502-18.042 13.732-6.561 4.238-13.324 8.137-20.296 11.688-6.971 3.557-13.977 6.73-21.015 9.533-7.041 2.803-13.704 5.229-19.989 7.275-6.15 2.051-13.566 4.104-22.244 6.15-8.682 2.051-17.837 3.658-27.473 4.814-9.636 1.164-19.444 1.539-29.42 1.129-9.979-0.408-19.344-2.051-28.089-4.92-3.966-1.363-6.766-3.277-8.403-5.738-1.642-2.461-2.94-4.646-3.896-6.563-0.549-1.092-1.981-4.438-4.306-10.045-2.325-5.604-4.786-13.188-7.381-22.758-2.6-9.564-5.022-20.979-7.278-34.236-2.255-13.252-3.587-28.084-3.997-44.486zm231.46 0c0-6.691-0.753-12.711-2.255-18.04-1.506-5.33-3.482-10.25-5.942-14.762-2.461-4.51-5.331-8.609-8.611-12.301s-6.766-7.243-10.456-10.661c-4.376-4.101-9.328-7.925-14.863-11.481-5.533-3.551-11.379-6.867-17.526-9.942-6.15-3.076-12.403-5.875-18.762-8.406-6.354-2.528-12.541-4.817-18.554-6.868-8.477-2.869-16.883-5.158-25.218-6.867-8.338-1.709-16.334-2.871-23.986-3.485-7.653-0.615-14.797-0.718-21.425-0.308-6.631 0.41-12.474 1.301-17.528 2.666-0.819 2.188-2.291 6.047-4.408 11.582-2.12 5.535-4.305 12.576-6.562 21.117-2.255 8.543-4.272 18.487-6.048 29.83-1.777 11.346-2.87 23.854-3.28 37.521 0 12.301 0.888 24.021 2.665 35.16 1.775 11.143 3.825 21.188 6.151 30.139 2.32 8.953 4.611 16.471 6.866 22.551 2.257 6.084 3.792 10.219 4.613 12.404 5.057 1.506 10.897 2.428 17.528 2.768 6.628 0.342 13.771 0.205 21.425-0.41 7.652-0.613 15.648-1.771 23.986-3.482 8.335-1.707 16.741-3.998 25.218-6.869 6.013-2.049 12.198-4.336 18.554-6.867 6.355-2.527 12.608-5.33 18.762-8.406 6.148-3.072 11.992-6.387 17.526-9.939 5.535-3.556 10.487-7.381 14.863-11.48 3.69-3.416 7.176-6.971 10.456-10.662 3.28-3.688 6.15-7.721 8.611-12.096 2.46-4.373 4.438-9.19 5.942-14.453 1.505-5.271 2.258-11.254 2.258-17.953zm-55.353 57.406-47.771-133.88h-29.11l-46.95 133.88h26.037l9.226-27.268h50.642l9.432 27.268h28.494zm-44.696-47.769h-37.313l12.096-34.237c1.365-3.825 2.595-7.618 3.69-11.379 1.093-3.757 1.979-7.413 2.665-10.968h0.205c0.817 3.828 1.74 7.451 2.768 10.865 1.025 3.418 2.153 6.903 3.383 10.457l12.506 35.262z" fill="#53A7F5"></path>
</svg>