<?xml version='1.0' encoding='utf-8'?>
<!-- Generator: Adobe Illustrator 25.0.0, SVG Export Plug-In . SVG Version: 6.00 Build 0)  --><svg xmlns="http://www.w3.org/2000/svg" xmlns:cc="http://creativecommons.org/ns#" xmlns:dc="http://purl.org/dc/elements/1.1/" xmlns:rdf="http://www.w3.org/1999/02/22-rdf-syntax-ns#" overflow="visible" version="1.2" viewBox="0 0 364 425.2" xml:space="preserve" width="342.4271" height="400.0"><metadata><rdf:RDF><cc:Work rdf:about=""><dc:format>image/svg+xml</dc:format><dc:type rdf:resource="http://purl.org/dc/dcmitype/StillImage"></dc:type><dc:title></dc:title></cc:Work></rdf:RDF></metadata>
<polygon points="292.9 277.6 299.8 292.9 306.8 276.9 299.8 260.9"></polygon>
<path d="m241.6 6.1z"></path>
<path d="m181.5 6.1c-95.8 0-173.7 77.9-173.7 173.7s77.9 173.8 173.7 173.8 173.8-77.9 173.8-173.8c-0.1-95.8-78-173.7-173.8-173.7zm0 328.2c-60.9 0-113.1-35.7-138.3-87.1l19.3-25.1v-25.3l-34.9-22.8c2.9-75.4 59.9-136.7 133.5-146.5v18.6l-24.9 19.3 12.5 12.1h30.9l26.6 15.7 14.5 6 10.9 26.7-9.7-13.4-62.9-19.4h-22.9l-36.2 39.8v22.9l18.1 18.1h39.8l14.5 84.4 9.2 9.6 31.8-9.6 21.7-35v-35l24.1-24.1-27.7-38.4 18.1 8.3 21.7 7.2v-12.1l-19.3-13.2 25.3 1.2 32.6 24.1v15.7l22.2-10.9c2.4 10.9 4 22.1 4 33.7 0 85.2-69.3 154.5-154.5 154.5z"></path>
</svg>