<?xml version='1.0' encoding='utf-8'?>
<!-- Generator: Adobe Illustrator 16.0.0, SVG Export Plug-In . SVG Version: 6.00 Build 0)  --><svg xmlns="http://www.w3.org/2000/svg" xmlns:cc="http://creativecommons.org/ns#" xmlns:dc="http://purl.org/dc/elements/1.1/" xmlns:rdf="http://www.w3.org/1999/02/22-rdf-syntax-ns#" width="556px" height="425.2px" enable-background="new 0 0 556 425.2" version="1.1" viewBox="0 0 556 425.2" xml:space="preserve"><metadata><rdf:RDF><cc:Work rdf:about=""><dc:format>image/svg+xml</dc:format><dc:type rdf:resource="http://purl.org/dc/dcmitype/StillImage"></dc:type><dc:title></dc:title></cc:Work></rdf:RDF></metadata>
<g fill="#1D1D1B">
	<path d="m117.17 307.66c22.235 3.428 66.343 11.6 88.699 14.543 62.496 8.172 134.97 11.897 171.86 10.696 27.822-0.842 93.264-9.795 111.54-30.769 3.786-4.328 3.243-18.266 0-23.073-13.464-19.832-101.8-27.466-153.84-43.269-82.328-25-107.69-67.997-124.03-67.304-12.26 0.51-54.924 50.839-92.242 47.112-28.845-2.886-40.562-35.937-57.688-37.499-21.213-1.924-33.231 13.762-37.558 24.035-2.644 6.31 0.181 37.018-0.12 43.871-0.84 16.345 1.082 48.072 1.082 48.072s69.284 9.98 92.301 13.585z" fill="#000000"></path>
	<polygon points="54.548 305.75 53.647 307.55 55.45 307.66" fill="#000000"></polygon>
	<path d="m434.45 333.02c-23.917 5.952-43.39 6.731-98.073 8.536-26.561 0.841-87.735-5.352-125.83-9.614v0.119l-182.8-26.319c0.481 1.26-4.387 8.17-5.049 9.492-5.528 11.537 0 26.922 0 26.922l168.8 20.19s-0.06 0.358-0.06 0.601c42.246 3.367 82.267 5.829 106.48 5.527 36.541-0.48 116.28-6.729 150-20.672 13.1-5.408 35.935-14.782 43.987-26.441 1.86-2.701 4.085-15.382 4.085-15.382s-22.109 17.31-61.532 27.041h-4e-3z" fill="#000000"></path>
	<path d="m518.28 80.336c-18.327-19.651-39.361-27.132-56.247-20.193-12.198 5.078-26.317 19.381-28.364 57.81-1.623-0.091-3.185-0.091-4.867-0.06-0.479 0.031-0.841 0.06-1.321 0.06 0.48-1.924 0.962-3.938 1.441-6.009 2.645-10.998 5.651-23.407 5.05-39.451-0.783-24.038-6.673-37.979-17.85-42.636-10.877-4.537-25.06 1.143-42.009 16.886-19.588 18.298-27.158 39.331-20.129 56.248 5.106 12.259 19.41 26.32 57.75 28.393v4.837c0 0.453 0.058 0.901 0 1.323-1.926-0.421-3.846-0.931-5.951-1.412-10.998-2.674-23.437-5.678-39.48-5.106-24.039 0.81-37.98 6.669-42.667 17.907-4.507 10.938 1.202 25.089 16.945 41.915 14.183 15.383 30.048 23.316 44.35 22.834 4.146-0.182 8.054-0.962 11.9-2.525 12.26-5.167 26.317-19.41 28.361-57.899 1.562 0.091 3.245 0.091 4.866 0.06 0.421-0.06 0.901-0.06 1.324-0.06-0.422 1.924-0.962 3.938-1.444 6.009-2.644 10.968-5.646 23.406-5.105 39.452 0.84 24.096 6.729 38.038 17.906 42.724 2.645 1.082 5.529 1.563 8.533 1.445 9.493-0.304 20.674-6.492 33.41-18.332 19.654-18.329 27.163-39.361 20.194-56.306-5.11-12.289-19.349-26.38-57.748-28.394 0.059-1.592 0.059-3.215 0.059-4.866-0.059-0.453-0.119-0.873-0.059-1.323 1.92 0.422 3.904 0.932 5.95 1.413 10.937 2.674 23.436 5.678 39.422 5.108 24.095-0.811 37.976-6.701 42.665-17.879 4.569-10.965-1.08-25.118-16.885-41.973zm-126.68 118.2c-11.297 4.808-27.102-1.802-41.162-16.826-11.059-11.988-16.469-22.293-14.244-27.642 1.084-2.554 6.189-8.624 30.591-9.466 14.18-0.51 25.176 2.134 35.813 4.688 3.066 0.753 6.069 1.503 9.135 2.102-1.324 25.42-8.355 42.338-20.133 47.144zm-25.06-100.75c-4.687-11.327 1.683-27.07 16.827-41.131 9.977-9.315 18.809-14.544 24.52-14.753 1.2-0.061 2.161 0.12 3.123 0.481 2.525 1.051 8.534 6.189 9.437 30.586 0.54 14.122-2.104 25.149-4.747 35.817-0.724 3.064-1.441 6.068-2.043 9.073-25.362-1.233-42.307-8.324-47.117-20.073zm125.84 75.629c4.627 11.297-1.803 27.102-16.945 41.223-11.897 11.056-22.114 16.464-27.521 14.304-2.525-1.082-8.653-6.253-9.497-30.708-0.48-14.123 2.165-25.149 4.688-35.785 0.781-3.065 1.504-6.069 2.102-9.074 25.36 1.229 42.245 8.289 47.173 20.04zm-58.83-33.773c-1.322 0.029-2.585 0.061-3.966 0.12-1.385 0.031-2.826 0-4.207-0.06 0-1.323-0.06-2.644-0.06-3.967-0.062-1.412-0.062-2.795 0-4.176 1.321 0 2.644-0.06 3.966-0.12 1.441-0.029 2.763 0 4.206 0.06 0 1.292 0 2.583 0.119 3.967 0 1.381 0 2.763-0.058 4.176zm88.997-22.505c-0.961 2.554-6.128 8.624-30.527 9.495-14.12 0.51-25.117-2.165-35.754-4.717-3.064-0.751-6.069-1.472-9.072-2.074 1.2-25.42 8.353-42.277 20.07-47.174 11.298-4.656 27.042 1.804 41.105 16.917 11.174 11.928 16.462 22.204 14.178 27.553z" fill="#000000"></path>
</g>
</svg>