<?xml version='1.0' encoding='utf-8'?>
<!-- Generator: Adobe Illustrator 16.0.0, SVG Export Plug-In . SVG Version: 6.00 Build 0)  --><svg xmlns="http://www.w3.org/2000/svg" xmlns:cc="http://creativecommons.org/ns#" xmlns:dc="http://purl.org/dc/elements/1.1/" xmlns:rdf="http://www.w3.org/1999/02/22-rdf-syntax-ns#" width="496px" height="425.2px" version="1.2" viewBox="0 0 496 425.2" xml:space="preserve"><metadata><rdf:RDF><cc:Work rdf:about=""><dc:format>image/svg+xml</dc:format><dc:type rdf:resource="http://purl.org/dc/dcmitype/StillImage"></dc:type><dc:title></dc:title></cc:Work></rdf:RDF></metadata>

	<path d="m478.04 382.38c-0.822-2.738-3.361-7.844-4.76-10.324-0.059-0.086-0.174-0.289-0.23-0.375-26.779-42.481-102.73-172.65-102.73-172.65l-64.188-107.66-23.662-39.699s-7.672-12.935-10.238-17.247c-0.779-1.313-2.363-3.959-3.145-5.264-0.346-0.57-1.053-1.708-1.384-2.285-0.115-0.203-0.302-0.613-0.432-0.8-1.746-2.416-5.481-7.254-7.99-8.847-2.22-1.406-7.412-3.015-10.037-3.015-2.61 0-7.808 1.609-10.022 3.015-2.509 1.593-6.15 6.496-7.974 8.847-0.065 0.079-0.158 0.274-0.216 0.36-26.807 42.503-102.91 172.67-102.91 172.67l-64.193 107.72-23.563 39.686s-7.744 12.977-10.326 17.303c-0.786 1.297-2.357 3.951-3.15 5.25-0.346 0.576-1.061 1.701-1.391 2.277-0.116 0.201-0.332 0.605-0.433 0.807-1.248 2.511-3.886 7.529-4.686 10.24-0.656 2.191-1.355 6.834-1.384 9.143-0.022 1.587 0.367 4.759 0.8 6.285 0.288 1.011 1.124 3.029 1.759 3.865 1.204 1.646 4.333 4.355 6.078 5.393 1.889 1.097 6.115 2.453 8.256 2.914 3.022 0.664 12.301 1.068 12.301 1.068h401.13c0.215 0 0.678 0.027 0.895 0 4.254-0.289 12.922-0.924 16.916-2.396 2.406-0.894 6.906-3.66 8.623-5.566 1.211-1.325 2.711-4.729 3.229-6.459 0.273-0.896 0.377-2.771 0.434-3.69 0.016-0.349 0.029-1.068 0-1.414-0.174-2.305-0.721-6.947-1.385-9.142l7e-3 -7e-3zm-408.62-12.371 179.83-306.24 179.75 306.24h-359.58z" fill="#000000"></path>

<polygon points="230.28 112.1 269.28 112.1 232.6 230.77 293.28 205.77 247.94 330.35 266.65 329.35 234.94 360.1 223.28 317.43 237.28 327.1 252.36 233.19 202.61 253.1" fill="#000000"></polygon>
</svg>