<?xml version='1.0' encoding='utf-8'?>
<!-- Generator: Adobe Illustrator 16.0.0, SVG Export Plug-In . SVG Version: 6.00 Build 0)  --><svg xmlns="http://www.w3.org/2000/svg" xmlns:cc="http://creativecommons.org/ns#" xmlns:dc="http://purl.org/dc/elements/1.1/" xmlns:rdf="http://www.w3.org/1999/02/22-rdf-syntax-ns#" width="585px" height="425.2px" version="1.2" viewBox="0 0 585 425.2" xml:space="preserve"><metadata><rdf:RDF><cc:Work rdf:about=""><dc:format>image/svg+xml</dc:format><dc:type rdf:resource="http://purl.org/dc/dcmitype/StillImage"></dc:type><dc:title></dc:title></cc:Work></rdf:RDF></metadata>

	<path d="m144.61 341.67v10.382l-31.559 13.912 31.559 14.325v10.381l-45.263-21.177v-7.061l45.263-20.762zm-45.262 61.874v-8.305h45.263v8.305h-45.263z" fill="#000000"></path>
	<path d="m214.38 384.45v9.136h-10.797v16.193h-10.382v-16.193h-37.374v-6.643l39.865-50.248h7.891v47.756l10.797-1e-3zm-45.057 0h23.878v-29.691l-23.878 29.691z" fill="#000000"></path>
	<path d="m227.25 401.42c-4.708-6.403-7.06-15.797-7.06-28.186s2.352-21.781 7.06-28.185c4.706-6.403 11.489-9.605 20.349-9.605 8.857 0 15.639 3.202 20.347 9.605 4.706 6.403 7.059 15.796 7.059 28.185s-2.353 21.782-7.059 28.186c-4.708 6.402-11.489 9.603-20.347 9.603-8.86-1e-3 -15.643-3.201-20.349-9.603zm32.495-7.164c2.698-4.532 4.047-11.54 4.047-21.021s-1.351-16.491-4.047-21.022c-2.699-4.532-6.75-6.801-12.146-6.801-5.399 0-9.449 2.269-12.147 6.801-2.699 4.531-4.048 11.541-4.048 21.022s1.351 16.489 4.048 21.021c2.698 4.533 6.748 6.8 12.147 6.8 5.398 0 9.447-2.267 12.146-6.8z" fill="#000000"></path>
	<path d="m289.54 401.42c-4.708-6.403-7.06-15.797-7.06-28.186s2.352-21.781 7.06-28.185c4.705-6.403 11.487-9.605 20.35-9.605 8.857 0 15.64 3.202 20.346 9.605 4.705 6.403 7.063 15.796 7.063 28.185s-2.357 21.782-7.063 28.186c-4.708 6.402-11.488 9.603-20.346 9.603-8.863-1e-3 -15.645-3.201-20.35-9.603zm32.495-7.164c2.699-4.532 4.048-11.54 4.048-21.021s-1.349-16.491-4.048-21.022c-2.697-4.532-6.75-6.801-12.146-6.801-5.398 0-9.447 2.269-12.148 6.801-2.699 4.531-4.049 11.541-4.049 21.022s1.35 16.489 4.049 21.021c2.699 4.533 6.748 6.8 12.148 6.8 5.396 0 9.449-2.267 12.146-6.8z" fill="#000000"></path>
	<path d="m351.83 401.42c-4.708-6.403-7.061-15.797-7.061-28.186s2.353-21.781 7.061-28.185c4.704-6.403 11.486-9.605 20.347-9.605 8.857 0 15.64 3.202 20.347 9.605 4.704 6.403 7.062 15.796 7.062 28.185s-2.357 21.782-7.062 28.186c-4.707 6.402-11.489 9.603-20.347 9.603-8.86-1e-3 -15.643-3.201-20.347-9.603zm32.494-7.164c2.699-4.532 4.05-11.54 4.05-21.021s-1.351-16.491-4.05-21.022c-2.698-4.532-6.748-6.801-12.146-6.801s-9.447 2.269-12.146 6.801c-2.7 4.531-4.047 11.541-4.047 21.022s1.347 16.489 4.047 21.021c2.699 4.533 6.749 6.8 12.146 6.8s9.447-2.267 12.146-6.8z" fill="#000000"></path>
	<path d="m477.23 359.69c2.977 1.765 5.243 4.223 6.802 7.37 1.557 3.152 2.336 6.734 2.336 10.747v31.975h-10.382v-30.729c0-4.5-1.038-7.7-3.113-9.604-2.078-1.903-4.916-2.854-8.513-2.854-2.217 0-4.433 0.502-6.647 1.506-2.214 1.002-3.772 2.267-4.672 3.788 0.347 2.077 0.519 4.047 0.519 5.918v31.975h-10.378v-30.729c0-4.29-1.109-7.441-3.323-9.449-2.215-2.005-5.122-3.009-8.721-3.009-2.076 0-4.049 0.502-5.916 1.506-1.872 1.002-3.496 2.301-4.88 3.893v37.786h-10.381v-51.491h7.473l2.908 5.396c1.453-2.144 3.321-3.788 5.606-4.931 2.282-1.14 4.841-1.713 7.681-1.713 3.807 0 7.076 0.66 9.812 1.973 2.732 1.317 4.929 3.184 6.592 5.605 2.146-2.699 4.567-4.637 7.267-5.813s5.744-1.765 9.137-1.765c4.219 3e-3 7.816 0.884 10.793 2.649z" fill="#000000"></path>

<polygon points="20.434 304.89 160.54 14.173 247.23 191.06 290.14 103.49 333.04 190.18 362.81 123.63 372.45 130.64 423.23 14.173 564.22 304.89" fill="#000000"></polygon>
</svg>