<?xml version='1.0' encoding='utf-8'?>
<svg xmlns="http://www.w3.org/2000/svg" xmlns:cc="http://creativecommons.org/ns#" xmlns:dc="http://purl.org/dc/elements/1.1/" xmlns:rdf="http://www.w3.org/1999/02/22-rdf-syntax-ns#" enable-background="new 0 0 336.28 425.2" version="1.1" viewBox="0 0 336.28 425.2" xml:space="preserve" width="316.34995" height="400.0"><metadata><rdf:RDF><cc:Work rdf:about=""><dc:format>image/svg+xml</dc:format><dc:type rdf:resource="http://purl.org/dc/dcmitype/StillImage"></dc:type><dc:title></dc:title></cc:Work></rdf:RDF></metadata>

	<path d="M269.34,117.93l3.04,0.8v91.24h20.69v-91.24l3.02-0.87c13.51-4.53,23.87-13.12,23.87-25.47V56h-11.44V19.02h-13.83V56   h-24.76V19.02h-13.9V56h-11.44v36.4C244.58,104.75,255.63,113.54,269.34,117.93z"></path>
	<path d="m194.39 303.41h-0.88v-1.27l-41.48-59.54c-4.42-6.34-4.95-14.62-1.37-21.47s10.67-11.15 18.4-11.15h24.45v-54.48h9.29c11.44 2.59 17.97 11.57 17.97 18.81v35.67h20.56v-35.67c0-18.62-14.93-38.01-38.53-40.54h-9.29v-119.6h-163.24v289.24h-16.1v20.43h194.45l-14.23-20.43zm-143.5-268.61h122.12v102.08h-122.12v-102.08z"></path>

<path d="M169.06,230.74l63.29,90.85v89.44l26.47-26.47v-62.97l63.29-90.85H169.06z"></path>
</svg>