<?xml version='1.0' encoding='utf-8'?>
<!-- Generator: Adobe Illustrator 16.0.0, SVG Export Plug-In . SVG Version: 6.00 Build 0)  --><svg xmlns="http://www.w3.org/2000/svg" xmlns:cc="http://creativecommons.org/ns#" xmlns:dc="http://purl.org/dc/elements/1.1/" xmlns:ns="&amp;ns_sfw;" xmlns:rdf="http://www.w3.org/1999/02/22-rdf-syntax-ns#" width="500px" height="453px" enable-background="new 0 0 500 453" version="1.1" viewBox="0 0 500 453" xml:space="preserve">
<metadata>
	<ns:sfw>
		<ns:slices></ns:slices>
		<ns:sliceSourceBounds x="218.52" y="124.156" width="403.452" height="368.221" bottomLeftOrigin="true"></ns:sliceSourceBounds>
	</ns:sfw>
<rdf:RDF><cc:Work rdf:about=""><dc:format>image/svg+xml</dc:format><dc:type rdf:resource="http://purl.org/dc/dcmitype/StillImage"></dc:type><dc:title></dc:title></cc:Work></rdf:RDF></metadata>
	<path d="m48.019 399.84v-294.05h97.003c14.208 0 27.476 1.342 39.801 4.023 12.323 2.685 23.235 7.178 32.733 13.485 9.493 6.308 16.964 14.79 22.4 25.447 5.438 10.656 8.156 23.673 8.156 39.041 0 15.371-2.865 28.203-8.591 38.496-5.729 10.299-13.562 18.563-23.489 24.795-9.934 6.233-21.172 10.842-33.712 13.811-12.543 2.976-25.848 4.752-39.91 5.33h-53.285v129.63h-41.106v-3e-3zm41.107-165.08h61.77 5.873c2.897 0 6.416-0.325 10.548-0.979s8.265-1.92 12.396-3.808c4.134-1.883 8.012-4.528 11.638-7.938 3.623-3.404 6.634-7.863 9.024-13.375 2.394-5.509 3.588-12.47 3.588-20.879 0-7.83-1.194-14.39-3.588-19.685-2.393-5.291-5.402-9.641-9.024-13.049-3.626-3.404-7.503-6.124-11.638-8.156-4.132-2.028-8.265-3.514-12.396-4.457-4.132-0.941-7.612-1.485-10.439-1.631-2.828-0.144-4.82-0.218-5.979-0.218h-61.77l-3e-3 94.175zm167.9-117.66 147.03-85.475 15.007 26.969-147.24 85.041c-1.305-4.639-3.337-9.098-6.09-13.376-2.755-4.276-5.655-8.663-8.7-13.159zm14.79 114.62 147.24 88.086-15.007 26.752-147.03-88.086c3.045-2.897 5.509-6.522 7.396-10.875 1.883-4.349 4.349-9.64 7.394-15.877zm5.872-58.723h173.78v29.579h-173.78v-29.579z" fill="#000000"></path>
</svg>