<?xml version='1.0' encoding='utf-8'?>
<!-- Generator: Adobe Illustrator 16.0.3, SVG Export Plug-In . SVG Version: 6.00 Build 0)  --><svg xmlns="http://www.w3.org/2000/svg" xmlns:cc="http://creativecommons.org/ns#" xmlns:dc="http://purl.org/dc/elements/1.1/" xmlns:rdf="http://www.w3.org/1999/02/22-rdf-syntax-ns#" width="463.75px" height="425.2px" version="1.2" viewBox="0 0 463.75 425.2" xml:space="preserve"><metadata><rdf:RDF><cc:Work rdf:about=""><dc:format>image/svg+xml</dc:format><dc:type rdf:resource="http://purl.org/dc/dcmitype/StillImage"></dc:type><dc:title></dc:title></cc:Work></rdf:RDF></metadata>
<path d="m91.306 340.16h149.42s-0.874-26.997-10.992-51.796c-9.283-22.757-28.385-59.702-47.711-91.035-5.381-8.724-1.686-14.33 6.476-14.33 24.485 0 32.136-7.645 36.209-34.641 0.751-4.966 8.168 0.314 8.168-7.534 0-34.216-0.94-84.128-53.679-84.128-31.077 0-44.71 24.485-44.71 49.284 0 18.521 10.859 31.391 10.859 44.575 0 27.625-54.045 43.949-54.045 115.21 1e-3 24.172 1e-3 74.398 1e-3 74.398z" fill="#000000"></path>
<path d="m14.173 340.16h147.62s-0.864-26.997-10.858-51.796c-9.171-22.757-28.043-59.702-47.135-91.035-5.314-8.724-1.666-14.33 6.399-14.33 24.189 0 31.747-7.645 35.771-34.641 0.741-4.966 8.07 0.314 8.07-7.534 0-34.216-0.931-84.128-53.031-84.128-30.702 0-44.169 24.485-44.169 49.284 0 18.521 10.727 31.391 10.727 44.575 0 27.625-53.393 43.949-53.393 115.21 1e-3 24.172 1e-3 74.398 1e-3 74.398z" fill="none" stroke="#fff" stroke-linecap="round" stroke-linejoin="round" stroke-miterlimit="10" stroke-width="10"></path>
<path d="m14.173 340.16h147.62s-0.864-26.997-10.858-51.796c-9.171-22.757-28.043-59.702-47.135-91.035-5.314-8.724-1.666-14.33 6.399-14.33 24.189 0 31.747-7.645 35.771-34.641 0.741-4.966 8.07 0.314 8.07-7.534 0-34.216-0.931-84.128-53.031-84.128-30.702 0-44.169 24.485-44.169 49.284 0 18.521 10.727 31.391 10.727 44.575 0 27.625-53.393 43.949-53.393 115.21 1e-3 24.172 1e-3 74.398 1e-3 74.398z" fill="#000000"></path>
<rect x="240.86" y="116.16" width="89.595" height="22.733" fill="#000000"></rect>
<path d="m300.15 340.16h149.42s-0.875-26.997-10.992-51.796c-9.283-22.757-28.385-59.702-47.711-91.035-5.38-8.724-1.686-14.33 6.477-14.33 24.484 0 32.135-7.645 36.21-34.641 0.749-4.966 8.168 0.314 8.168-7.534 0-34.216-0.941-84.128-53.68-84.128-31.077 0-44.709 24.485-44.709 49.284 0 18.521 10.858 31.391 10.858 44.575 0 27.625-54.045 43.949-54.045 115.21v74.398z" fill="#000000"></path>
</svg>