<?xml version='1.0' encoding='utf-8'?>
<!-- Generator: Adobe Illustrator 16.0.0, SVG Export Plug-In . SVG Version: 6.00 Build 0)  --><svg xmlns="http://www.w3.org/2000/svg" xmlns:cc="http://creativecommons.org/ns#" xmlns:dc="http://purl.org/dc/elements/1.1/" xmlns:ns="&amp;ns_sfw;" xmlns:rdf="http://www.w3.org/1999/02/22-rdf-syntax-ns#" width="593px" height="595.28px" version="1.2" viewBox="0 0 593 595.28" xml:space="preserve">
<metadata>
	<ns:sfw>
		<ns:slices></ns:slices>
		<ns:sliceSourceBounds x="172.931" y="75.727" width="492.029" height="492.019" bottomLeftOrigin="true"></ns:sliceSourceBounds>
	</ns:sfw>
<rdf:RDF><cc:Work rdf:about=""><dc:format>image/svg+xml</dc:format><dc:type rdf:resource="http://purl.org/dc/dcmitype/StillImage"></dc:type><dc:title></dc:title></cc:Work></rdf:RDF></metadata>
<path d="m295.19 519.41c-5.77 0-11.625-0.205-17.404-0.609-65.55-4.584-125.39-34.42-168.5-84.01-43.108-49.592-64.326-113-59.742-178.55 4.372-62.522 32.059-120.43 77.958-163.06 45.682-42.425 105.06-65.79 167.2-65.79 5.771 0 11.624 0.205 17.404 0.609 65.549 4.584 125.39 34.419 168.5 84.01s64.326 113 59.743 178.55c-4.373 62.521-32.061 120.43-77.959 163.06-45.681 42.423-105.06 65.788-167.2 65.788zm-0.49-478.02c-121.18 0-222.73 94.802-231.19 215.83-8.924 127.61 87.638 238.69 215.25 247.62 5.457 0.383 10.983 0.576 16.429 0.576 121.18 0 222.73-94.803 231.19-215.83 8.923-127.61-87.641-238.69-215.25-247.62-5.456-0.383-10.985-0.575-16.429-0.575z" fill="#000000"></path>
<g fill="#1D1D1B">
	<path d="m309.3 29.781-131.33 457.49c4.286 1.924 8.638 3.721 13.06 5.369l132.16-460.39c-4.526-1.14-9.259-1.614-13.892-2.469z" fill="#000000"></path>
	<path d="m337.14 36.256-132.34 461.01c4.465 1.342 8.983 2.557 13.563 3.615l132.31-460.9c-4.352-1.718-9.057-2.277-13.535-3.724z" fill="#000000"></path>
	<path d="m364.86 43.106-132.21 460.58c4.645 0.756 9.331 1.385 14.069 1.85l131.43-457.85c-4.166-2.308-8.967-2.538-13.286-4.582z" fill="#000000"></path>
	<path d="m391.74 52.922-130.2 453.56c4.896 0.152 9.77 0.156 14.604-0.014l127.78-445.13c-3.97-2.938-8.034-5.741-12.186-8.416z" fill="#000000"></path>
	<path d="m290.44 508.89c5.116-0.541 9.928-0.773 14.952-1.666l122.39-425.59c-3.745-3.642-7.604-7.155-11.577-10.534l-125.76 437.79z" fill="#000000"></path>
</g>
</svg>