<?xml version='1.0' encoding='utf-8'?>
<!-- Generator: Adobe Illustrator 27.2.0, SVG Export Plug-In . SVG Version: 6.00 Build 0)  --><svg xmlns:cc="http://creativecommons.org/ns#" xmlns="http://www.w3.org/2000/svg" xmlns:rdf="http://www.w3.org/1999/02/22-rdf-syntax-ns#" xmlns:dc="http://purl.org/dc/elements/1.1/" xmlns:xlink="http://www.w3.org/1999/xlink" version="1.2" baseProfile="tiny" id="Vrstva_1" x="0px" y="0px" viewBox="0 0 56.7 56.7" overflow="visible" xml:space="preserve" width="400.0" height="400.0">
<path d="M15,12.8V23h14.3V12.8H15L15,12.8z M31.9,23.5h0.5c2.6,0,4.4,2.3,4.4,4.6v8.7c0,2.2,1.4,3.2,2.7,3.2c1.4,0,2.8-1.1,2.8-3.2  c0-1.6-0.1-3.4-0.2-5.5c-0.1-2.6-0.4-5.6-0.5-9.1c-2-0.4-3.5-1.7-3.5-2.9v-4.6h1.3v-4.5H41v4.5h2.9v-4.5h1.6v4.5h1.3v4.6  c0,1.2-1.4,2.5-3.4,2.9c0,3.8,0.4,7.1,0.5,9.7c0.1,1.9,0.2,3.5,0.2,4.9c0,3.1-2.3,5-4.6,5c-1.2,0-2.3-0.5-3.2-1.3  c-0.5-0.5-1.4-1.7-1.4-3.7v-8.7c0-1.3-1.3-2.6-2.5-2.6h-0.5v18.3h2.6v2.5H9.9v-2.5h2.6V10.3h19.3L31.9,23.5L31.9,23.5z"></path>
</svg>