<?xml version='1.0' encoding='utf-8'?>
<!-- Generator: Adobe Illustrator 16.0.0, SVG Export Plug-In . SVG Version: 6.00 Build 0)  --><svg xmlns="http://www.w3.org/2000/svg" xmlns:cc="http://creativecommons.org/ns#" xmlns:ns="&amp;ns_sfw;" xmlns:rdf="http://www.w3.org/1999/02/22-rdf-syntax-ns#" xmlns:dc="http://purl.org/dc/elements/1.1/" width="472px" height="447px" enable-background="new 0 0 472 447" version="1.1" viewBox="0 0 472 447" xml:space="preserve">
<metadata>
	<ns:sfw>
		<ns:slices></ns:slices>
		<ns:sliceSourceBounds x="218.126" y="133.053" width="403.996" height="338.673" bottomLeftOrigin="true"></ns:sliceSourceBounds>
	</ns:sfw>
<rdf:RDF><cc:Work rdf:about=""><dc:format>image/svg+xml</dc:format><dc:type rdf:resource="http://purl.org/dc/dcmitype/StillImage"></dc:type><dc:title></dc:title></cc:Work></rdf:RDF></metadata>
	<path d="m60.772 362.29 4.666 3.604 5.938 1.695 5.938-0.424 5.515-1.908 34.991-21.631 34.992-20.359 15.691-5.303 16.117 0.213 22.903 4.453 23.328 4.453 8.694 13.361 8.48 13.781-1.481-0.211-1.272-0.213-34.567-6.57-33.932-6.574-8.694-0.213-8.693 2.969-31.601 18.875-31.812 19.299-7.21 3.816-8.061 2.121-8.694 0.424-8.694-1.271-7.634-2.971-6.787-4.453-6.361-5.725-4.666-6.787-3.604-8.063-0.638-6.357 2.333-6.363 4.666-4.453 55.353-33.719 55.985-33.084 10.814-4.242 11.24-2.119 11.451 1.063 6.364 1.274 10.394 13.996 9.755 14.42-16.966-3.604-17.392-3.184-9.543-0.213-9.119 3.184-48.774 28.631-48.354 29.053-2.333 2.758-0.424 3.605 1.698 2.966zm40.93-197.86-1.062-14.845 0.848-15.057 2.333-14.845 4.878-14.209 6.361-13.36 7.848-12.512 7.21-8.059 8.694-7.21 9.543-6.362 9.969-3.817 10.391-3.393 10.604-1.484 11.24 0.424 11.026 2.121 10.182 3.605 10.179 4.666 8.907 6.787 3.816 5.089 0.425 5.726-1.484 12.937 1.484 13.148 3.394 12.3 5.938 11.452 8.48 9.967 2.757 5.302v5.726l-2.119 5.09-10.182 16.966-5.726 19.086-2.545 8.694-5.729 7.424-8.906 7.634-10.181 6.15-10.814 4.449-11.451 2.973-11.663 1.061-11.664-0.848-11.876-2.971-11.028-4.453-10.179-5.938-8.907-7.635-7.422-9.119-6.149-10.179-4.666-11.24-2.754-11.241zm191.93 220.55-24.18-41.99-25.872-40.293-27.355-39.656 11.876-5.303 11.665-6.361 29.898 43.051 27.994 44.322 25.66 46.23h-29.686zm26.296-55.139-8.694-14.207-8.695-13.998 1.272-2.545 0.425-2.756 15.905-57.26 15.057-57.048-0.849-4.877-3.816-2.758-5.727-0.848-5.09-0.85-7.425-0.424-7.423 1.272-6.359 3.394-5.729 4.877-4.454 6.149-2.544 6.574-7.847 28.628-7.847 29.055-8.907-12.936-9.119-12.516 5.09-18.662 5.302-19.51 3.396-9.543 5.09-8.484 6.362-7.635 8.059-6.361 8.907-4.454 9.543-2.757 9.968-1.063 9.755 0.637 5.729 1.061 5.302 1.061 7.847 2.332 6.786 4.241 5.514 6.574 3.605 7.423 1.271 8.059-1.061 8.271-18.875 70.832-19.724 71.052zm21.63-238.37-0.852 7.847-2.333 7.21-3.604 7.422-4.878 6.362-6.15 5.089-6.786 4.242-7.422 2.545-8.06 1.272-7.847-0.424-7.637-2.121-7.423-3.393-6.362-4.454-5.726-5.938-4.029-6.786-3.182-7.21-1.696-7.635v-8.271l1.696-7.634 3.182-6.999 4.029-6.574 5.726-6.362 6.362-4.242 7.423-3.393 7.637-1.909 7.847-0.636 8.06 1.272 7.422 2.757 6.786 4.242 6.15 5.089 4.878 5.938 3.604 7.635 2.333 7.21 0.852 7.849zm-24.174 0-0.64-5.09-2.333-4.877-3.393-4.029-4.878-2.333-5.09-1.272-5.305 0.424-5.09 2.121-4.241 2.757-2.969 4.666-1.481 4.878v5.514l1.481 4.877 2.969 4.454 4.241 2.969 5.09 2.121 5.305 0.424 5.09-1.061 4.878-2.545 3.393-4.029 2.333-4.877 0.64-5.092zm120.24 53.654v3.817l-56.196 17.178-4.665-11.452-7.211-9.967 60.229-18.45 4.665 11.027 3.178 7.847z" fill="#FFCE63"></path>
</svg>