<?xml version='1.0' encoding='utf-8'?>
<!-- Generator: Adobe Illustrator 16.0.0, SVG Export Plug-In . SVG Version: 6.00 Build 0)  --><svg xmlns="http://www.w3.org/2000/svg" xmlns:cc="http://creativecommons.org/ns#" xmlns:rdf="http://www.w3.org/1999/02/22-rdf-syntax-ns#" xmlns:dc="http://purl.org/dc/elements/1.1/" width="585px" height="425.2px" enable-background="new 0 0 585 425.2" version="1.1" viewBox="0 0 585 425.2" xml:space="preserve"><metadata><rdf:RDF><cc:Work rdf:about=""><dc:format>image/svg+xml</dc:format><dc:type rdf:resource="http://purl.org/dc/dcmitype/StillImage"></dc:type><dc:title></dc:title></cc:Work></rdf:RDF></metadata>
<path d="m296.86 267.45c3.986-7.99 8.918-15.277 14.788-21.872 5.871-6.594 12.46-12.217 19.785-16.879 7.318-4.657 15.306-8.258 23.958-10.797 8.649-2.543 17.69-3.812 27.132-3.812 13.43 0 25.982 2.511 37.66 7.532 11.676 5.022 21.841 11.86 30.491 20.506 8.648 8.652 15.49 18.849 20.508 30.584 5.023 11.733 7.532 24.316 7.532 37.753 0 13.431-2.509 26.015-7.532 37.752-5.018 11.733-11.859 21.961-20.508 30.668-8.65 8.71-18.815 15.612-30.491 20.693-11.678 5.085-24.228 7.622-37.66 7.622-10.525 0-20.538-1.635-30.034-4.897-9.503-3.268-18.214-7.776-26.135-13.523-7.929-5.743-14.886-12.581-20.874-20.51-5.987-7.921-10.68-16.541-14.064-25.862h-46.282c-0.97 0-1.907-0.276-2.815-0.818-0.908-0.54-1.782-0.816-2.632-0.816l-21.416-21.232c-0.97-0.97-1.938-1.453-2.905-1.453-0.966 0-1.755 0.483-2.358 1.453l-12.883 12.341h-3.633l-15.971-14.339c0-0.723-0.367-1.09-1.089-1.09-0.246 0-0.576 0.065-0.999 0.184-0.425 0.125-0.817 0.425-1.185 0.906l-12.883 12.526c-0.483 0.973-1.336 1.452-2.546 1.452-1.086 0-1.931-0.479-2.536-1.452l-12.344-12.526h-3.628l-27.041 26.858h-3.447l-21.597-21.417c-0.724-0.964-1.575-1.449-2.542-1.449-0.969 0-1.813 0.485-2.541 1.449l-21.417 19.42c0 0.85-0.423 1.271-1.271 1.271-1.088 0-1.813-0.424-2.174-1.271l-44.831-44.465c-0.967-0.846-1.45-1.757-1.45-2.724 0-0.966 0.482-1.875 1.45-2.724l23.23-23.052c0-0.964 0.664-1.541 1.998-1.724 1.332-0.185 2.48-0.273 3.45-0.273h251.73v7e-3zm149.73 43.01c0-3.141-0.609-6.105-1.811-8.896-1.213-2.778-2.879-5.228-4.996-7.352-2.117-2.111-4.565-3.777-7.353-4.989-2.783-1.204-5.687-1.813-8.707-1.813-3.146 0-6.143 0.609-8.981 1.813-2.847 1.212-5.356 2.878-7.538 4.989-2.178 2.124-3.9 4.573-5.172 7.352-1.269 2.79-1.907 5.755-1.907 8.896 0 3.146 0.634 6.199 1.907 9.166 1.269 2.968 2.99 5.629 5.172 7.985 2.177 2.36 4.691 4.268 7.538 5.718 2.839 1.447 5.835 2.175 8.981 2.175 3.021 0 5.924-0.728 8.707-2.175 2.787-1.45 5.235-3.357 7.353-5.718 2.117-2.356 3.783-5.021 4.996-7.985 1.202-2.966 1.811-6.017 1.811-9.166z" fill="#FFCE63"></path>
<path d="m211.36 109.99-15.972-16.155c24.322-24.319 52.388-43.254 84.214-56.805 32.908-13.912 67.332-20.873 103.27-20.873 35.693 0 70.114 6.962 103.27 20.873 31.818 13.551 59.891 32.486 84.22 56.805l-16.153 16.155c-11.506-11.375-23.838-21.509-37.031-30.402-13.183-8.895-27.039-16.335-41.559-22.323-14.521-5.992-29.588-10.556-45.189-13.704-15.612-3.147-31.465-4.72-47.551-4.72-16.218 0-32.124 1.573-47.736 4.72-15.607 3.147-30.668 7.714-45.188 13.704-14.52 5.987-28.403 13.428-41.652 22.323-13.263 8.895-25.573 19.029-36.943 30.402zm47.007 47.01-15.972-16.156c9.314-9.313 19.389-17.603 30.218-24.861 10.827-7.263 22.204-13.342 34.122-18.243 11.917-4.898 24.262-8.62 37.023-11.158 12.765-2.541 25.799-3.813 39.113-3.813 26.616 0 51.964 4.992 76.043 14.976 24.08 9.986 45.557 24.354 64.432 43.104l-16.153 16.152c-16.694-16.817-35.692-29.613-56.989-38.389-21.296-8.771-43.739-13.157-67.332-13.157-23.596 0-46.071 4.386-67.426 13.157-21.358 8.773-40.385 21.571-57.079 38.388zm46.28 46.097-16.152-15.971c12.698-12.703 27.134-22.384 43.283-29.039 16.155-6.653 33.185-9.983 51.094-9.983s34.905 3.328 50.998 9.983c16.091 6.653 30.489 16.336 43.194 29.039l-15.968 15.971c-10.526-10.528-22.504-18.54-35.936-24.049-13.43-5.503-27.528-8.253-42.289-8.253-14.885 0-29.013 2.75-42.38 8.253-13.371 5.509-25.317 13.521-35.844 24.049z" fill="#FFCE63"></path>
</svg>