<?xml version='1.0' encoding='utf-8'?>
<svg xmlns="http://www.w3.org/2000/svg" xmlns:cc="http://creativecommons.org/ns#" xmlns:dc="http://purl.org/dc/elements/1.1/" xmlns:rdf="http://www.w3.org/1999/02/22-rdf-syntax-ns#" width="425.2px" height="425.2px" enable-background="new 0 0 425.197 425.197" version="1.1" viewBox="0 0 425.2 425.2" xml:space="preserve"><metadata><rdf:RDF><cc:Work rdf:about=""><dc:format>image/svg+xml</dc:format><dc:type rdf:resource="http://purl.org/dc/dcmitype/StillImage"></dc:type><dc:title></dc:title></cc:Work></rdf:RDF></metadata>
<path d="m212.6 411.02-198.43-198.42 198.43-198.43 198.42 198.42-198.42 198.42zm-197.02-198.42 197.02 197.02 197.02-197.02-197.02-197.02-197.02 197.02z"></path>
<path d="m212.6 386.31-173.72-173.71 173.72-173.72 173.72 173.72-173.72 173.71zm-161.03-173.71 161.03 161.03 161.03-161.03-161.03-161.03-161.03 161.03z"></path>
<polygon points="307.41 151.23 287.79 151.23 287.79 131.6 270.4 131.6 270.4 151.23 250.78 151.23 250.78 168.61 270.4 168.61 270.4 188.24 287.79 188.24 287.79 168.61 307.41 168.61"></polygon>
<path d="m233.11 163.63c-10.901-18.01-29.962-28.762-50.987-28.762s-40.086 10.752-50.987 28.762l-1.405 2.321 1.405 2.322c10.9 18.012 29.961 28.766 50.988 28.766s40.088-10.753 50.987-28.766l1.405-2.322-1.406-2.321zm-50.986-16.235c7.372 0 13.369 5.998 13.369 13.369 0 7.372-5.997 13.369-13.369 13.369s-13.37-5.997-13.37-13.369c0-7.371 5.997-13.369 13.37-13.369zm-1e-3 40.677c-16.938 0-32.376-8.217-41.825-22.119 6.042-8.887 14.537-15.435 24.301-19.014-3.009 3.807-4.813 8.608-4.813 13.826 0 12.316 10.021 22.337 22.338 22.337 12.316 0 22.336-10.021 22.336-22.337 0-5.218-1.803-10.019-4.812-13.826 9.764 3.579 18.26 10.127 24.301 19.014-9.449 13.902-24.887 22.119-41.826 22.119z"></path>
<polygon points="147.15 266.56 147.15 277.67 151.63 282.02 170.54 285.82 173.89 289.06 173.89 321.21 182.12 321.21 190.36 321.21 190.36 289.06 193.71 285.82 212.61 282.02 217.09 277.67 217.09 266.56"></polygon>

	
		<circle cx="153.44" cy="259.78" r="2.74"></circle>
		<circle cx="163" cy="259.78" r="2.74"></circle>
		<circle cx="172.56" cy="259.78" r="2.74"></circle>
		<circle cx="182.12" cy="259.78" r="2.74"></circle>
		<circle cx="191.68" cy="259.78" r="2.74"></circle>
		<circle cx="201.24" cy="259.78" r="2.74"></circle>
		<circle cx="210.8" cy="259.78" r="2.74"></circle>
	
	
		<circle cx="152.58" cy="251.2" r="2.74"></circle>
		<circle cx="162.43" cy="251.2" r="2.74"></circle>
		<circle cx="172.28" cy="251.2" r="2.74"></circle>
		<circle cx="182.12" cy="251.2" r="2.74"></circle>
		<circle cx="191.97" cy="251.2" r="2.74"></circle>
		<circle cx="201.82" cy="251.2" r="2.74"></circle>
		<circle cx="211.67" cy="251.2" r="2.737"></circle>
	
	
		<circle cx="150.71" cy="242.09" r="2.74"></circle>
		<circle cx="161.18" cy="242.09" r="2.74"></circle>
		<circle cx="171.65" cy="242.09" r="2.74"></circle>
		<circle cx="182.12" cy="242.09" r="2.74"></circle>
		<circle cx="192.6" cy="242.09" r="2.74"></circle>
		<circle cx="203.07" cy="242.09" r="2.74"></circle>
		<circle cx="213.54" cy="242.09" r="2.739"></circle>
	
	
		<circle cx="148.07" cy="232.55" r="2.74"></circle>
		<circle cx="159.42" cy="232.55" r="2.74"></circle>
		<circle cx="170.78" cy="232.55" r="2.74"></circle>
		<circle cx="182.13" cy="232.55" r="2.74"></circle>
		<circle cx="193.48" cy="232.55" r="2.74"></circle>
		<circle cx="204.83" cy="232.55" r="2.74"></circle>
		<path d="m218.91 232.55c0 1.513-1.222 2.74-2.729 2.74-1.514 0-2.74-1.228-2.74-2.74 0-1.514 1.227-2.74 2.74-2.74 1.507-1e-3 2.729 1.226 2.729 2.74z"></path>
	
	
		<circle cx="144.41" cy="222.53" r="2.74"></circle>
		<circle cx="156.98" cy="222.53" r="2.74"></circle>
		<circle cx="169.55" cy="222.53" r="2.74"></circle>
		<circle cx="182.12" cy="222.53" r="2.74"></circle>
		<circle cx="194.69" cy="222.53" r="2.74"></circle>
		<circle cx="207.26" cy="222.53" r="2.74"></circle>
		<circle cx="219.83" cy="222.53" r="2.74"></circle>
	
	
		<circle cx="139.82" cy="211.41" r="2.74"></circle>
		<circle cx="153.92" cy="211.41" r="2.74"></circle>
		<circle cx="168.02" cy="211.41" r="2.74"></circle>
		<circle cx="182.12" cy="211.41" r="2.74"></circle>
		<circle cx="196.23" cy="211.41" r="2.74"></circle>
		<circle cx="210.33" cy="211.41" r="2.74"></circle>
		<circle cx="224.43" cy="211.41" r="2.74"></circle>
	
	
		<circle cx="131.6" cy="198.37" r="2.74"></circle>
		<circle cx="148.44" cy="198.37" r="2.74"></circle>
		<circle cx="215.8" cy="198.37" r="2.74"></circle>
		<circle cx="232.64" cy="198.37" r="2.74"></circle>
	
	
		<circle cx="118.63" cy="182.48" r="2.74"></circle>
		<circle cx="245.62" cy="182.48" r="2.74"></circle>
	

</svg>