<?xml version='1.0' encoding='utf-8'?>
<!-- Generator: Adobe Illustrator 16.0.0, SVG Export Plug-In . SVG Version: 6.00 Build 0)  --><svg xmlns="http://www.w3.org/2000/svg" xmlns:cc="http://creativecommons.org/ns#" xmlns:ns="&amp;ns_sfw;" xmlns:rdf="http://www.w3.org/1999/02/22-rdf-syntax-ns#" xmlns:dc="http://purl.org/dc/elements/1.1/" width="475px" height="421px" enable-background="new 0 0 475 421" version="1.1" viewBox="0 0 475 421" xml:space="preserve">
<metadata>
	<ns:sfw>
		<ns:slices></ns:slices>
		<ns:sliceSourceBounds x="218.875" y="151.576" width="404.374" height="291.099" bottomLeftOrigin="true"></ns:sliceSourceBounds>
	</ns:sfw>
<rdf:RDF><cc:Work rdf:about=""><dc:format>image/svg+xml</dc:format><dc:type rdf:resource="http://purl.org/dc/dcmitype/StillImage"></dc:type><dc:title></dc:title></cc:Work></rdf:RDF></metadata>
	<path d="m35.875 210.67c0-13.743 1.388-27.207 4.165-40.396 2.774-13.187 6.696-25.853 11.767-38 5.064-12.146 11.104-23.635 18.116-34.461 7.007-10.829 14.887-20.892 23.632-30.193l27.692 27.694c-7.496 6.803-14.229 14.507-20.196 23.113-5.972 8.609-11.072 17.839-15.306 27.694-4.234 9.857-7.428 20.197-9.579 31.025-2.152 10.828-3.229 22.004-3.229 33.522 0 23.186 4.27 44.492 12.807 63.926 8.537 19.438 20.37 36.648 35.502 51.643l-25.193 27.691c-9.441-9.162-17.839-19.156-25.194-29.982-7.359-10.826-13.64-22.313-18.845-34.463-5.206-12.146-9.197-24.813-11.975-38.002-2.778-13.186-4.164-26.789-4.164-40.811zm55.18 0c0-13.327 1.771-26.201 5.311-38.625 3.54-12.422 8.435-24.014 14.682-34.773 6.245-10.757 13.813-20.579 22.695-29.463 8.882-8.882 18.705-16.45 29.464-22.697 10.758-6.247 22.35-11.104 34.772-14.576 12.423-3.468 25.3-5.206 38.625-5.206 13.604 0 26.617 1.737 39.042 5.206 12.422 3.472 24.017 8.329 34.773 14.576s20.579 13.814 29.464 22.697c8.882 8.885 16.45 18.708 22.696 29.463 6.247 10.76 11.104 22.352 14.573 34.773 3.471 12.425 5.205 25.299 5.205 38.625 0 13.605-1.734 26.621-5.205 39.043-3.472 12.424-8.327 24.049-14.573 34.877s-13.814 20.613-22.696 29.359c-8.885 8.746-18.707 16.275-29.464 22.592-10.759 6.318-22.354 11.213-34.773 14.68-12.425 3.475-25.438 5.207-39.042 5.207-13.325 0-26.203-1.732-38.625-5.207-12.425-3.467-24.018-8.357-34.772-14.68-10.759-6.314-20.582-13.846-29.464-22.592-8.886-8.746-16.45-18.531-22.695-29.359-6.247-10.828-11.142-22.453-14.682-34.877-3.541-12.422-5.311-25.438-5.311-39.043zm23.321 0c0 11.244 1.458 22.039 4.373 32.379 2.915 10.344 7.08 20.063 12.494 29.152 5.414 9.092 11.797 17.422 19.155 24.982 7.356 7.568 15.617 13.988 24.779 19.264s18.947 9.367 29.358 12.283c10.411 2.914 21.101 4.373 32.065 4.373 11.244 0 22.072-1.459 32.483-4.373 10.411-2.912 20.126-7.008 29.148-12.283 9.021-5.273 17.282-11.691 24.778-19.264 7.496-7.563 13.915-15.893 19.261-24.982 5.345-9.092 9.507-18.813 12.494-29.152 2.983-10.34 4.479-21.135 4.479-32.379 0-16.794-3.229-32.587-9.686-47.372s-15.271-27.728-26.441-38.834c-11.179-11.104-24.19-19.885-39.042-26.34-14.855-6.455-30.684-9.683-47.479-9.683-16.521 0-32.241 3.228-47.163 9.683-14.924 6.455-27.938 15.236-39.042 26.34-11.106 11.106-19.885 24.05-26.34 38.834s-9.674 30.577-9.674 47.372zm122.23-94.535c2.915 0 5.69 0.661 8.329 1.979 2.636 1.322 4.857 3.056 6.663 5.207 1.803 2.154 3.26 4.617 4.373 7.392 1.109 2.778 1.666 5.622 1.666 8.538v83.082c0 7.08-2.015 12.701-6.039 16.867-4.027 4.164-9.025 6.246-14.992 6.246-5.692 0-10.551-2.082-14.575-6.246-4.028-4.166-6.039-9.787-6.039-16.867v-83.082c0-2.916 0.553-5.76 1.666-8.538 1.108-2.774 2.566-5.237 4.373-7.392 1.803-2.151 3.956-3.885 6.454-5.207 2.499-1.318 5.206-1.979 8.121-1.979zm143.26-48.516c9.302 9.302 17.663 19.365 25.094 30.192 7.425 10.828 13.772 22.316 19.053 34.46 5.271 12.148 9.299 24.814 12.077 38.002 2.772 13.188 4.164 26.652 4.164 40.395 0 14.023-1.392 27.627-4.164 40.813-2.778 13.189-6.807 25.855-12.077 38.002-5.277 12.148-11.628 23.637-19.053 34.463-7.431 10.826-15.792 20.82-25.094 29.982l-27.691-27.691c15.129-14.992 26.998-32.203 35.604-51.643 8.605-19.434 12.91-40.74 12.91-63.926 0-23.182-4.305-44.419-12.91-63.715-8.605-19.293-20.478-36.507-35.604-51.64l27.691-27.694z" fill="#F54C4C"></path>
<circle cx="237.5" cy="287.62" r="20.125" fill="#F54C4C"></circle>
</svg>