<?xml version='1.0' encoding='utf-8'?>
<!-- Generator: Adobe Illustrator 16.0.0, SVG Export Plug-In . SVG Version: 6.00 Build 0)  --><svg xmlns="http://www.w3.org/2000/svg" xmlns:cc="http://creativecommons.org/ns#" xmlns:dc="http://purl.org/dc/elements/1.1/" xmlns:rdf="http://www.w3.org/1999/02/22-rdf-syntax-ns#" width="421px" height="425.2px" version="1.2" viewBox="0 0 421 425.2" xml:space="preserve"><metadata><rdf:RDF><cc:Work rdf:about=""><dc:format>image/svg+xml</dc:format><dc:type rdf:resource="http://purl.org/dc/dcmitype/StillImage"></dc:type><dc:title></dc:title></cc:Work></rdf:RDF></metadata>
<polygon points="292.85 277.62 299.81 292.93 306.79 276.91 299.81 260.87"></polygon>

	<path d="m181.37 238.15-46.937 135.22-20.873-56.069 67.81-79.153m26.552-46.241-108.75 126.94 33.778 89.047 74.972-215.99z"></path>
	<polygon points="207.93 191.9 99.176 318.84 6 299.13"></polygon>


	<polygon points="241.59 6.1 241.59 6.1 241.6 6.1"></polygon>
	<path d="m241.59 6.1c-95.805 3e-3 -173.74 77.943-173.74 173.75 0 24.763 5.216 48.326 14.59 69.664l32.382-17.195 7.823-10.148v-25.327l-34.901-22.783c2.828-75.492 59.889-136.74 133.42-146.59v18.619l-24.951 19.296 12.476 12.062h30.943l26.553 15.679 14.472 6.031 10.894 26.703-9.687-13.436-62.734-19.297h-22.914l-36.183 39.801v22.914l18.091 18.093h39.801l0.571 3.331 0.671-0.356-0.49 1.412 13.721 80.02 9.197 9.647 31.827-9.647 21.71-34.956v-34.975l24.12-24.123-27.701-38.424 18.052 8.272 21.711 7.236v-12.061l-19.296-13.267 25.325 1.207 32.566 24.121v15.679l22.197-10.854c2.45 10.854 3.958 22.067 3.958 33.657-2e-3 85.161-69.273 154.47-154.47 154.47l3e-3 -6e-3c-25.663 0-49.774-6.362-70.98-17.543l-6.456 18.598c23.328 11.663 49.623 18.24 77.427 18.24 95.825 0 173.76-77.941 173.76-173.76 2e-3 -95.811-77.937-173.75-173.76-173.75z"></path>

</svg>