<?xml version='1.0' encoding='utf-8'?>
<!-- Generator: Adobe Illustrator 16.0.0, SVG Export Plug-In . SVG Version: 6.00 Build 0)  --><svg xmlns="http://www.w3.org/2000/svg" xmlns:cc="http://creativecommons.org/ns#" xmlns:dc="http://purl.org/dc/elements/1.1/" xmlns:ns="&amp;ns_sfw;" xmlns:rdf="http://www.w3.org/1999/02/22-rdf-syntax-ns#" width="424px" height="529.14px" enable-background="new 0 0 424 529.141" version="1.1" viewBox="0 0 424 529.14" xml:space="preserve">
<metadata>
	<ns:sfw>
		<ns:slices></ns:slices>
		<ns:sliceSourceBounds x="246.92" y="77.449" width="346.409" height="451.887" bottomLeftOrigin="true"></ns:sliceSourceBounds>
	</ns:sfw>
<rdf:RDF><cc:Work rdf:about=""><dc:format>image/svg+xml</dc:format><dc:type rdf:resource="http://purl.org/dc/dcmitype/StillImage"></dc:type><dc:title></dc:title></cc:Work></rdf:RDF></metadata>
	<path d="m349.57 224.96c6.899 0.938 12.64 2.377 17.209 4.336 4.568 1.959 8.158 4.617 10.772 7.979 2.606 3.354 4.477 7.602 5.596 12.729 1.119 5.133 1.679 11.332 1.679 18.607v149.7c0 7.834-1.354 15.205-4.057 22.105-2.706 6.896-6.672 12.771-11.893 17.627-2.238 2.422-5.507 4.709-9.794 6.854-4.295 2.144-8.633 3.962-13.019 5.453-4.39 1.492-8.263 2.703-11.62 3.642-3.358 0.932-5.229 1.396-5.601 1.396-4.11 0.742-9.479 1.631-16.107 2.658-6.628 1.023-14.702 2.051-24.225 3.078-9.522 1.023-20.627 1.861-33.324 2.518-12.696 0.652-27.075 0.98-43.129 0.98-18.302 0-34.452-0.377-48.455-1.119-14.004-0.748-26.044-1.68-36.126-2.799s-18.253-2.195-24.505-3.219c-6.257-1.027-10.6-1.818-13.021-2.377-8.964-0.938-16.389-3.078-22.269-6.438-5.886-3.354-10.228-6.902-13.022-10.633-5.229-4.854-9.243-10.729-12.041-17.627-2.805-6.9-4.202-14.271-4.202-22.105v-149.69c0-7.275 0.514-13.479 1.539-18.607 1.021-5.129 2.843-9.375 5.456-12.729 2.608-3.357 6.154-6.021 10.634-7.979 4.478-1.959 10.164-3.397 17.066-4.336v-54.003c0-19.027 3.639-36.935 10.922-53.723 7.281-16.788 17.228-31.431 29.829-43.93 12.604-12.495 27.355-22.385 44.259-29.66 16.896-7.275 34.871-10.913 53.916-10.913 18.675 0 36.365 3.638 53.075 10.913 16.709 7.275 31.32 17.165 43.833 29.66 12.517 12.5 22.407 27.142 29.69 43.93 7.284 16.789 10.926 34.696 10.926 53.723v54.003l9e-3 -1e-3zm-184.95 9.793c-2.057-0.932-4.479-1.303-7.273-1.119-2.429 0.188-5.271 0.938-8.534 2.238-3.268 1.307-6.952 3.734-11.053 7.275-2.8 2.426-6.532 5.875-11.192 10.352-4.665 4.479-9.651 9.422-14.97 14.83-5.314 5.414-10.729 10.961-16.229 16.646-5.504 5.691-10.493 10.773-14.972 15.25-4.104 4.296-6.154 9.33-6.154 15.109 0 5.783 2.145 10.82 6.438 15.109 4.289 4.293 9.324 6.436 15.108 6.436 5.778 0 10.814-2.143 15.108-6.436l29.38-29.379c2.052-2.056 4.431-2.564 7.137-1.539 2.702 1.022 4.059 3.031 4.059 6.016v41.412c0 3.174-0.142 6.295-0.421 9.373s-0.796 6.203-1.538 9.373l-9.516 60.44c-1.495 6.156-0.562 11.938 2.798 17.353 3.357 5.408 8.115 8.854 14.271 10.354 6.341 1.49 12.265 0.604 17.77-2.657 5.5-3.267 8.998-8.068 10.493-14.408l12.591-50.086c0.743-2.609 2.052-4.568 3.917-5.878 1.862-1.305 3.917-1.959 6.156-1.959 2.236 0 4.289 0.654 6.154 1.959 1.862 1.31 3.169 3.269 3.917 5.878l12.591 50.086c1.491 6.34 4.989 11.145 10.493 14.408 5.5 3.264 11.424 4.147 17.771 2.657 6.152-1.496 10.911-4.94 14.271-10.354 3.357-5.412 4.289-11.191 2.798-17.353l-9.514-60.438c-0.747-3.17-1.259-6.295-1.538-9.373-0.28-3.078-0.42-6.199-0.42-9.373v-41.412c0-2.979 1.351-4.988 4.057-6.016 2.702-1.023 5.081-0.517 7.14 1.539l29.38 29.379c4.289 4.293 9.324 6.436 15.105 6.436 5.78 0 10.816-2.143 15.11-6.436 4.288-4.289 6.436-9.326 6.436-15.109 0-5.779-2.056-10.813-6.152-15.107-4.479-4.479-9.474-9.561-14.974-15.25-5.504-5.688-10.911-11.233-16.229-16.647-5.316-5.408-10.313-10.354-14.97-14.83-4.665-4.477-8.396-7.926-11.192-10.352-4.105-3.541-7.791-5.972-11.053-7.275-3.27-1.303-6.112-2.051-8.534-2.238-2.798-0.184-5.229 0.188-7.275 1.119-7.091 4.105-14.087 7.187-20.981 9.234-6.903 2.055-13.854 3.076-20.848 3.076-6.996 0-14.181-1.021-21.545-3.076-7.38-2.054-15.166-5.131-23.372-9.237zm153.06-64.356c0-14.734-2.798-28.541-8.396-41.412-5.597-12.871-13.147-24.107-22.665-33.717-9.514-9.605-20.706-17.16-33.577-22.665-12.867-5.5-26.579-8.254-41.13-8.254-14.928 0-28.868 2.754-41.831 8.254-12.97 5.504-24.252 13.06-33.855 22.665-9.61 9.61-17.208 20.846-22.807 33.717s-8.396 26.678-8.396 41.412v56.522h54.842c-5.782-6.34-10.309-13.522-13.569-21.546-3.268-8.018-4.896-16.692-4.896-26.022 0-9.697 1.817-18.791 5.456-27.282 3.64-8.486 8.626-15.901 14.97-22.245 6.341-6.339 13.756-11.333 22.245-14.97 8.486-3.638 17.58-5.457 27.281-5.457 9.697 0 18.791 1.819 27.281 5.457 8.482 3.637 15.897 8.63 22.241 14.97 6.344 6.344 11.38 13.759 15.109 22.245 3.729 8.491 5.597 17.584 5.597 27.282 0 9.33-1.679 18.004-5.033 26.022-3.357 8.023-7.935 15.206-13.71 21.546h54.842l1e-3 -56.522zm-152.22 8.954c0 6.344 1.211 12.312 3.64 17.908 2.422 5.597 5.734 10.493 9.935 14.69 4.195 4.197 9.046 7.511 14.55 9.933 5.5 2.426 11.424 3.642 17.77 3.642 6.339 0 12.312-1.216 17.908-3.642 5.596-2.422 10.491-5.735 14.688-9.933 4.197-4.197 7.507-9.094 9.938-14.69 2.422-5.596 3.638-11.564 3.638-17.908 0-6.339-1.216-12.312-3.638-17.908-2.431-5.596-5.736-10.493-9.938-14.69-4.194-4.197-9.094-7.506-14.688-9.933-5.601-2.422-11.569-3.637-17.908-3.637-6.346 0-12.27 1.215-17.77 3.637-5.504 2.427-10.354 5.736-14.55 9.933-4.197 4.197-7.513 9.094-9.935 14.69-2.429 5.597-3.64 11.569-3.64 17.908z" fill="#000000"></path>
</svg>